<svg xmlns="http://www.w3.org/2000/svg" width="23.284" height="23.347" viewBox="0 0 23.284 23.347">
  <defs>
    <style>
      .cls-1 {
        fill: #00b584;
        stroke: #009C72;
      }
    </style>
  </defs>
  <g id="alarm-clock" transform="translate(-0.08 0)">
    <path id="Path_2364" data-name="Path 2364" class="cls-1" d="M31.1,20.774H28.231a1.6,1.6,0,0,0-1.147-1.147V15.554a.4.4,0,1,0-.8,0v4.072a1.6,1.6,0,1,0,1.95,1.95H31.1a.4.4,0,1,0,0-.8Zm-4.416,1.2a.8.8,0,1,1,.8-.8A.8.8,0,0,1,26.682,21.978Z" transform="translate(-14.961 -9.069)"/>
    <path id="Path_2365" data-name="Path 2365" class="cls-1" d="M20.2,3.92l1.644,1.644a.4.4,0,0,0,.568,0A3.261,3.261,0,0,0,17.8.954a.4.4,0,0,0,0,.568L19.63,3.353l-.682.682a10.814,10.814,0,0,0-14.452,0l-.683-.682L5.644,1.522a.4.4,0,0,0,0-.568A3.261,3.261,0,0,0,1.033,5.565a.4.4,0,0,0,.568,0L3.246,3.92l.673.673A10.822,10.822,0,0,0,6.229,21.447L5.014,22.663a.4.4,0,1,0,.568.568l1.385-1.385a10.815,10.815,0,0,0,9.51,0l1.385,1.385a.4.4,0,0,0,.568-.568l-1.216-1.216A10.822,10.822,0,0,0,19.524,4.593Zm1.644-2.4A2.462,2.462,0,0,1,22.1,4.69L18.673,1.261A2.461,2.461,0,0,1,21.842,1.522ZM1.341,4.69A2.458,2.458,0,0,1,4.77,1.261ZM11.721,22.143A10.037,10.037,0,1,1,21.759,12.106,10.049,10.049,0,0,1,11.721,22.143Z"/>
    <path id="Path_2366" data-name="Path 2366" class="cls-1" d="M23.293,11.752A9.3,9.3,0,0,0,19.946,8.4c-.006,0-.01-.011-.017-.015s-.015,0-.022-.008a9.2,9.2,0,0,0-9.19,0,.2.2,0,0,0-.022.008c-.007,0-.01.011-.017.015a9.3,9.3,0,0,0-3.348,3.348c0,.007-.011.01-.015.017a.2.2,0,0,0-.007.022,9.2,9.2,0,0,0,0,9.19c0,.007,0,.015.007.022a.332.332,0,0,0,.02.026,9.3,9.3,0,0,0,3.342,3.338c.006,0,.01.011.017.015s.022.008.032.013a9.2,9.2,0,0,0,9.17,0c.01,0,.022-.007.032-.013s.01-.011.017-.015a9.3,9.3,0,0,0,3.342-3.338.332.332,0,0,0,.02-.026.2.2,0,0,0,.007-.022,9.2,9.2,0,0,0,0-9.19c0-.007,0-.015-.007-.022S23.3,11.759,23.293,11.752ZM19.865,23.471l-.192-.332a.4.4,0,0,0-.7.4l.192.333a8.367,8.367,0,0,1-3.458.923v-.381a.4.4,0,0,0-.8,0V24.8a8.361,8.361,0,0,1-3.458-.923l.192-.333a.4.4,0,1,0-.7-.4l-.192.332a8.482,8.482,0,0,1-2.531-2.531l.332-.192a.4.4,0,1,0-.4-.7l-.333.192A8.369,8.369,0,0,1,6.9,16.788h.381a.4.4,0,1,0,0-.8H6.9a8.365,8.365,0,0,1,.923-3.458l.333.192a.4.4,0,0,0,.4-.7l-.332-.192A8.487,8.487,0,0,1,10.757,9.3l.192.332a.4.4,0,0,0,.7-.4L11.451,8.9a8.367,8.367,0,0,1,3.458-.923v.381a.4.4,0,0,0,.8,0V7.976a8.361,8.361,0,0,1,3.458.923l-.192.333a.4.4,0,1,0,.7.4l.192-.332a8.483,8.483,0,0,1,2.531,2.531l-.332.192a.4.4,0,1,0,.4.7l.333-.192a8.369,8.369,0,0,1,.923,3.458H23.34a.4.4,0,1,0,0,.8h.381a8.365,8.365,0,0,1-.923,3.458l-.333-.192a.4.4,0,0,0-.4.7l.332.192A8.469,8.469,0,0,1,19.865,23.471Z" transform="translate(-3.589 -4.28)"/>
  </g>
</svg>
