<svg xmlns="http://www.w3.org/2000/svg" width="67.012" height="78.872" viewBox="0 0 67.012 78.872">
  <defs>
    <style>
      .cls-1 {
        fill: #009C72;
        stroke: #009C72;
      }
    </style>
  </defs>
  <g id="artificial-intelligence" transform="translate(-39.51 -1)">
    <g id="Group_467" data-name="Group 467" transform="translate(39.51 1)">
      <g id="Group_466" data-name="Group 466" transform="translate(0 0)">
        <path id="Path_2320" data-name="Path 2320" class="cls-1" d="M105.958,39.127c2.053-11.152-1.3-26.482-13.512-33.788A33.939,33.939,0,0,0,67.087,2.148C55.249,5.314,46.548,13.808,43.812,24.87a22.493,22.493,0,0,0-.766,6.892,23.133,23.133,0,0,0,.794,4.259,18.4,18.4,0,0,1,.785,5.463c-.055,2.2-1.572,4.487-2.912,6.5-1.461,2.2-2.722,4.1-1.99,5.853a4.29,4.29,0,0,0,3.285,2.1,1.571,1.571,0,0,0,.239.024,1.232,1.232,0,0,1,1.378,1.313c0,2.731.068,4.14,1.2,4.786a2.4,2.4,0,0,0-.2.649,2.341,2.341,0,0,0,.74,2.072,3.991,3.991,0,0,0,2.084,1.064l.159.035a3.36,3.36,0,0,1,.041.591,14.147,14.147,0,0,1-.1,1.462c-.218,2.1-.517,4.981,3.688,6.356a8.661,8.661,0,0,0,2.595.316,41.16,41.16,0,0,0,11.683-2.239,14.849,14.849,0,0,1,1.919,6.186,1.314,1.314,0,0,0,1.314,1.314h32.853a1.3,1.3,0,0,0,1.227-.909,1.345,1.345,0,0,0-.47-1.48c-1.36-1.032-5.862-11.91-6-15.817.4-.9.928-1.913,1.558-3.088A61.75,61.75,0,0,0,105.958,39.127ZM94.71,61.535c.033,3.143,2.867,11.447,5.3,15.709H70.941A18.82,18.82,0,0,0,69.01,71.48c3.808-1.492,7.161-3.411,8.771-5.517a1.315,1.315,0,0,0-2.089-1.6C71.972,69.233,56.5,72.928,53.043,71.8c-2.188-.715-2.1-1.555-1.89-3.586a16.523,16.523,0,0,0,.118-1.734c0-2.214-.893-2.875-2.236-3.187a1.685,1.685,0,0,1-.707-.273A3.647,3.647,0,0,1,49.2,62.4a1.314,1.314,0,0,0-.579-2.494c-.475,0-1,0-1.279-.035a20.291,20.291,0,0,1-.085-2.592,3.844,3.844,0,0,0-3.846-3.939c-.947-.2-1.235-.456-1.259-.516-.191-.456,1.075-2.362,1.756-3.386,1.459-2.2,3.275-4.932,3.35-7.891a18.44,18.44,0,0,0-.543-4.875,13.1,13.1,0,0,1,4.955-2.732,4.074,4.074,0,0,1,1.953.137,1.314,1.314,0,0,0,.7-2.533,6.632,6.632,0,0,0-3.2-.175A13.542,13.542,0,0,0,46.03,33.9a15.614,15.614,0,0,1-.363-2.327,19.455,19.455,0,0,1,.7-6.071C48.9,15.231,56.7,7.645,67.767,4.687A31.216,31.216,0,0,1,91.1,7.6c11.138,6.661,14.172,20.768,12.278,31.055a58.64,58.64,0,0,1-6.784,18.688c-.723,1.348-1.346,2.512-1.8,3.589A1.285,1.285,0,0,0,94.71,61.535Z" transform="translate(-39.51 -1)"/>
        <path id="Path_2321" data-name="Path 2321" class="cls-1" d="M176.748,71.14a3.939,3.939,0,0,0-3.2-4.236l-2.516-3.488a3.9,3.9,0,0,0,.352-.9l2.437-.975a3.933,3.933,0,1,0,3.807-6.435l-1.974-3.938a3.926,3.926,0,0,0-4.828-6.113l-2.2-1.828a3.928,3.928,0,0,0-6.525-4.085l-3.9-.974a3.918,3.918,0,0,0-7.54-.046l-5.207,1.041a3.924,3.924,0,0,0-6.274,4.631l-2.551,3.4a3.931,3.931,0,0,0-.225,7.688l2.11,5.208a3.935,3.935,0,1,0,6.469,4.115h7.055a3.806,3.806,0,0,0,4.3,2.567l4.363,6.636a3.932,3.932,0,1,0,6.794,3.311l3.257-2.6a3.923,3.923,0,0,0,6-2.974Zm.017-13.508a1.314,1.314,0,1,1-1.2,1.836c0-.012,0-.024-.007-.036l-.008-.013a1.3,1.3,0,0,1-.1-.472A1.316,1.316,0,0,1,176.765,57.632Zm-5.229-9.466a1.314,1.314,0,1,1,1.287,1.581,1.3,1.3,0,0,1-.474-.1l-.011-.007c-.012,0-.024,0-.036-.007A1.312,1.312,0,0,1,171.536,48.166Zm-1.307,3.213h0L167.8,57.45l-4.257-3.406a3.922,3.922,0,0,0,1.215-1.87l5.207-1.041C170.047,51.22,170.138,51.3,170.228,51.378Zm-1.4,10.551a1.313,1.313,0,1,1-1.264-1.669,1.3,1.3,0,0,1,.474.1l.011.007c.012,0,.024,0,.036.007A1.313,1.313,0,0,1,168.829,61.929Zm-3.892-21.381a1.314,1.314,0,1,1-1.314,1.314A1.314,1.314,0,0,1,164.937,40.548Zm-6.916.283,3,.75c-.007.095-.028.185-.028.281a3.947,3.947,0,0,0,3.942,3.942,3.9,3.9,0,0,0,2-.563l2.2,1.828a3.9,3.9,0,0,0-.258,1.364c0,.079.019.154.023.232l-4.28.856A3.944,3.944,0,0,0,161.6,47.18l-4.812-4.811A3.953,3.953,0,0,0,158.022,40.831Zm4.287,10.23A1.314,1.314,0,1,1,161,49.747,1.314,1.314,0,0,1,162.309,51.061ZM154.424,37.92a1.314,1.314,0,1,1-1.314,1.314A1.314,1.314,0,0,1,154.424,37.92Zm.26,6.062,3.946,3.945a3.936,3.936,0,0,0-1.336,1.82h-3.113a3.937,3.937,0,0,0-1.713-2.071Zm-8.169-2.352,4.28-.856a3.952,3.952,0,0,0,1.641,1.845L150.052,46.6l-4.124-2.646a3.907,3.907,0,0,0,.611-2.087C146.54,41.783,146.521,41.708,146.516,41.63Zm5.28,9.431a1.314,1.314,0,1,1-1.314-1.314A1.314,1.314,0,0,1,151.8,51.061Zm-9.2-10.513a1.314,1.314,0,1,1-1.314,1.314A1.314,1.314,0,0,1,142.6,40.548Zm-1.43,4.978a3.687,3.687,0,0,0,2.518.107l4.057,2.6a3.936,3.936,0,0,0-.96,1.511h-5.741a3.945,3.945,0,0,0-1.553-1.984Zm-3.826,6.849a1.314,1.314,0,1,1,1.314-1.314A1.314,1.314,0,0,1,137.341,52.375ZM141.283,64.2a1.314,1.314,0,1,1,1.314-1.314A1.314,1.314,0,0,1,141.283,64.2Zm.747-5.181a3.943,3.943,0,0,0-.747-.076,3.812,3.812,0,0,0-.38.039l-1.791-4.421a3.938,3.938,0,0,0,1.928-2.188h5.741a3.93,3.93,0,0,0,1.187,1.7Zm10.008,2.553h-7.055a3.913,3.913,0,0,0-.6-1.092l6.454-5.378,2.2,4.929A3.935,3.935,0,0,0,152.038,61.574Zm2.144-9.2H157.3a3.937,3.937,0,0,0,1.713,2.071L156.276,59a3.906,3.906,0,0,0-.537-.054c-.1,0-.2.022-.3.03l-2.256-5.06A3.937,3.937,0,0,0,154.182,52.375ZM155.739,64.2a1.314,1.314,0,1,1,1.314-1.314A1.314,1.314,0,0,1,155.739,64.2Zm5.609-8.548,3.67,2.936a3.924,3.924,0,0,0-1.215,1.87l-4.436.887a3.946,3.946,0,0,0-.752-1.137Zm2.275,21.689a1.314,1.314,0,1,1,1.314-1.314A1.314,1.314,0,0,1,163.623,77.344Zm5.257-6.571a3.894,3.894,0,0,0,.234,1.287L166.9,73.833a3.791,3.791,0,0,0-3.873-1.685l-4.363-6.636A3.918,3.918,0,0,0,159.5,64l4.436-.887a3.937,3.937,0,0,0,5.148,2.1l1.621,2.247A3.934,3.934,0,0,0,168.88,70.773Zm1.28-12.144,2.507-6.269c.053,0,.1.016.155.016a3.861,3.861,0,0,0,.473-.048l1.591,3.174a3.93,3.93,0,0,0-2.064,3.444c0,.053.014.1.016.156l-1.767.706A3.94,3.94,0,0,0,170.16,58.629Zm2.663,13.459a1.314,1.314,0,1,1,1.314-1.314A1.314,1.314,0,0,1,172.822,72.087Z" transform="translate(-118.939 -30.011)"/>
      </g>
    </g>
  </g>
</svg>
