<svg xmlns="http://www.w3.org/2000/svg" width="16.519" height="19.279" viewBox="0 0 16.519 19.279">
  <defs>
    <style>
      .cls-1 {
        fill: #00b584;
        stroke: #009C72;
      }
    </style>
  </defs>
  <g id="balloons" transform="translate(-33.323)">
    <path id="Path_2400" data-name="Path 2400" class="cls-1" d="M185.532,37.557a3.207,3.207,0,0,1,.6.269.311.311,0,1,0,.312-.537,3.831,3.831,0,0,0-.721-.322.311.311,0,1,0-.194.59Z" transform="translate(-145.702 -35.422)"/>
    <path id="Path_2401" data-name="Path 2401" class="cls-1" d="M224.548,66.829a6.412,6.412,0,0,1-.16,1.407.311.311,0,1,0,.606.137,7.033,7.033,0,0,0,.175-1.544,4.377,4.377,0,0,0-.787-2.684.311.311,0,1,0-.5.372A3.776,3.776,0,0,1,224.548,66.829Z" transform="translate(-182.613 -61.369)"/>
    <path id="Path_2402" data-name="Path 2402" class="cls-1" d="M76.257,178.934a5.346,5.346,0,0,1-1.846-2.7.311.311,0,1,0-.59.195,5.9,5.9,0,0,0,2.086,3.018.311.311,0,1,0,.35-.513Z" transform="translate(-38.807 -168.734)"/>
    <path id="Path_2403" data-name="Path 2403" class="cls-1" d="M48.293,5.071a5.285,5.285,0,0,0-3.73-1.428,6.123,6.123,0,0,0-.908.067,4.992,4.992,0,0,0-1.324-2.283,5.585,5.585,0,0,0-7.459,0,5.464,5.464,0,0,0-1.549,4.032,8.551,8.551,0,0,0,1.511,4.8,5.143,5.143,0,0,0,2.908,2.181.967.967,0,0,0-.114.456v.662a.311.311,0,0,0,.311.311h.333a1.923,1.923,0,0,1-.127.463,2.748,2.748,0,0,0,0,1.984,2.129,2.129,0,0,1,0,1.549,2.472,2.472,0,0,0-.185.992.311.311,0,1,0,.621,0,1.867,1.867,0,0,1,.146-.774,2.749,2.749,0,0,0,0-1.985,2.128,2.128,0,0,1,0-1.548,2.45,2.45,0,0,0,.171-.681h.367a.311.311,0,0,0,.311-.311V12.9a.967.967,0,0,0-.114-.456,3.863,3.863,0,0,0,.465-.145,6,6,0,0,0,3.78,3.786.967.967,0,0,0-.115.458V17.2a.311.311,0,0,0,.311.311h.333a1.923,1.923,0,0,1-.127.463,2.47,2.47,0,0,0-.185.992.311.311,0,0,0,.621,0,1.864,1.864,0,0,1,.146-.774,2.45,2.45,0,0,0,.171-.681h.367a.311.311,0,0,0,.311-.311V16.54a.967.967,0,0,0-.114-.456A5.143,5.143,0,0,0,48.331,13.9a8.552,8.552,0,0,0,1.511-4.8,5.464,5.464,0,0,0-1.549-4.032ZM35.343,9.9a7.916,7.916,0,0,1-1.4-4.444,4.86,4.86,0,0,1,1.361-3.587,4.967,4.967,0,0,1,6.593,0,4.86,4.86,0,0,1,1.361,3.587,7.916,7.916,0,0,1-1.4,4.444,4.122,4.122,0,0,1-3.259,2.02A4.122,4.122,0,0,1,35.343,9.9ZM38.954,12.9v.352h-.7V12.9a.352.352,0,0,1,.7,0Zm5.962,3.643v.352h-.7V16.54a.352.352,0,1,1,.7,0Zm2.907-2.993a4.122,4.122,0,0,1-3.259,2.02,3.6,3.6,0,0,1-2.423-1.055,6.946,6.946,0,0,1-1.651-2.48,4.81,4.81,0,0,0,.593-.395,5.744,5.744,0,0,0,1.98,2.72.31.31,0,1,0,.35-.513A5.32,5.32,0,0,1,41.584,11.2a6.807,6.807,0,0,0,.785-.936,8.552,8.552,0,0,0,1.511-4.8,6.926,6.926,0,0,0-.092-1.141,5.515,5.515,0,0,1,.775-.054,4.669,4.669,0,0,1,3.3,1.252A4.86,4.86,0,0,1,49.221,9.1a7.916,7.916,0,0,1-1.4,4.444Z"/>
    <path id="Path_2404" data-name="Path 2404" class="cls-1" d="M368.381,152.143a.311.311,0,0,0-.5.372,3.776,3.776,0,0,1,.663,2.312,6.412,6.412,0,0,1-.16,1.407.311.311,0,1,0,.606.137,7.035,7.035,0,0,0,.175-1.544A4.378,4.378,0,0,0,368.381,152.143Z" transform="translate(-320.65 -145.725)"/>
    <path id="Path_2405" data-name="Path 2405" class="cls-1" d="M330.448,125.29a3.829,3.829,0,0,0-.721-.322.311.311,0,1,0-.195.59,3.208,3.208,0,0,1,.6.269.311.311,0,0,0,.312-.537Z" transform="translate(-283.741 -119.779)"/>
  </g>
</svg>
