<svg xmlns="http://www.w3.org/2000/svg" width="1366" height="768" viewBox="0 0 1366 768">
  <defs>
    <style>
      .cls-1 {
        fill: #00cf97;
      }

      .cls-2, .cls-3, .cls-5 {
        fill: none;
        stroke: #00b584;
      }

      .cls-2 {
        stroke-width: 3px;
      }

      .cls-3 {
        stroke-width: 2px;
      }

      .cls-4 {
        fill: #00b584;
      }
    </style>
  </defs>
  <g id="Group_935" data-name="Group 935" transform="translate(0 -2304)">
    <rect id="Rectangle_2244" data-name="Rectangle 2244" class="cls-1" width="1366" height="768" transform="translate(0 2304)"/>
    <g id="Group_934" data-name="Group 934">
      <g id="photo-camera_1_" data-name="photo-camera (1)" transform="translate(773.207 2664.333)">
        <g id="Group_450" data-name="Group 450">
          <path id="Path_2316" data-name="Path 2316" class="cls-2" d="M44.274,44.483a5.919,5.919,0,0,0-4.343-1.8H34.555L33.332,39.42a4.457,4.457,0,0,0-1.668-2.028,4.274,4.274,0,0,0-2.484-.852H16.894a4.274,4.274,0,0,0-2.484.852,4.458,4.458,0,0,0-1.668,2.028l-1.224,3.263H6.143a5.919,5.919,0,0,0-4.344,1.8A5.919,5.919,0,0,0,0,48.826v21.5a5.918,5.918,0,0,0,1.8,4.343,5.919,5.919,0,0,0,4.344,1.8H39.93a6.145,6.145,0,0,0,6.143-6.143v-21.5A5.918,5.918,0,0,0,44.274,44.483ZM30.632,67.172a10.353,10.353,0,0,1-7.595,3.156,10.353,10.353,0,0,1-7.595-3.156,10.717,10.717,0,0,1,0-15.19,10.353,10.353,0,0,1,7.595-3.156,10.354,10.354,0,0,1,7.595,3.156,10.717,10.717,0,0,1,0,15.19Z" transform="translate(0 -36.54)"/>
        </g>
      </g>
      <g id="infinity" transform="translate(581 2493.11)">
        <g id="Group_449" data-name="Group 449" transform="translate(0 141.333)">
          <path id="Path_2315" data-name="Path 2315" class="cls-3" d="M25.4,141.333a7.286,7.286,0,0,0-5.155,2.1l-3.858,3.414-.007-.007-2.069,1.823.014.014-3.68,3.264a4.62,4.62,0,1,1-3.271-7.873,4.666,4.666,0,0,1,3.332,1.407l1.55,1.372,2.062-1.823-1.728-1.529a7.337,7.337,0,1,0-.061,10.434l3.858-3.421.007.007,2.062-1.83-.007-.007,3.68-3.257a4.618,4.618,0,1,1,3.271,7.866,4.686,4.686,0,0,1-3.332-1.4l-1.55-1.372-2.062,1.83,1.728,1.53A7.36,7.36,0,1,0,25.4,141.333Z" transform="translate(0 -141.333)"/>
        </g>
      </g>
      <g id="artificial-intelligence" transform="translate(806.479 2604.611)">
        <g id="Group_467" data-name="Group 467" transform="translate(39.51 1)">
          <g id="Group_466" data-name="Group 466" transform="translate(0 0)">
            <path id="Path_2320" data-name="Path 2320" class="cls-4" d="M105.958,39.127c2.053-11.152-1.3-26.482-13.512-33.788A33.939,33.939,0,0,0,67.087,2.148C55.249,5.314,46.548,13.808,43.812,24.87a22.493,22.493,0,0,0-.766,6.892,23.133,23.133,0,0,0,.794,4.259,18.4,18.4,0,0,1,.785,5.463c-.055,2.2-1.572,4.487-2.912,6.5-1.461,2.2-2.722,4.1-1.99,5.853a4.29,4.29,0,0,0,3.285,2.1,1.571,1.571,0,0,0,.239.024,1.232,1.232,0,0,1,1.378,1.313c0,2.731.068,4.14,1.2,4.786a2.4,2.4,0,0,0-.2.649,2.341,2.341,0,0,0,.74,2.072,3.991,3.991,0,0,0,2.084,1.064l.159.035a3.36,3.36,0,0,1,.041.591,14.147,14.147,0,0,1-.1,1.462c-.218,2.1-.517,4.981,3.688,6.356a8.661,8.661,0,0,0,2.595.316,41.16,41.16,0,0,0,11.683-2.239,14.849,14.849,0,0,1,1.919,6.186,1.314,1.314,0,0,0,1.314,1.314h32.853a1.3,1.3,0,0,0,1.227-.909,1.345,1.345,0,0,0-.47-1.48c-1.36-1.032-5.862-11.91-6-15.817.4-.9.928-1.913,1.558-3.088A61.75,61.75,0,0,0,105.958,39.127ZM94.71,61.535c.033,3.143,2.867,11.447,5.3,15.709H70.941A18.82,18.82,0,0,0,69.01,71.48c3.808-1.492,7.161-3.411,8.771-5.517a1.315,1.315,0,0,0-2.089-1.6C71.972,69.233,56.5,72.928,53.043,71.8c-2.188-.715-2.1-1.555-1.89-3.586a16.523,16.523,0,0,0,.118-1.734c0-2.214-.893-2.875-2.236-3.187a1.685,1.685,0,0,1-.707-.273A3.647,3.647,0,0,1,49.2,62.4a1.314,1.314,0,0,0-.579-2.494c-.475,0-1,0-1.279-.035a20.291,20.291,0,0,1-.085-2.592,3.844,3.844,0,0,0-3.846-3.939c-.947-.2-1.235-.456-1.259-.516-.191-.456,1.075-2.362,1.756-3.386,1.459-2.2,3.275-4.932,3.35-7.891a18.44,18.44,0,0,0-.543-4.875,13.1,13.1,0,0,1,4.955-2.732,4.074,4.074,0,0,1,1.953.137,1.314,1.314,0,0,0,.7-2.533,6.632,6.632,0,0,0-3.2-.175A13.542,13.542,0,0,0,46.03,33.9a15.614,15.614,0,0,1-.363-2.327,19.455,19.455,0,0,1,.7-6.071C48.9,15.231,56.7,7.645,67.767,4.687A31.216,31.216,0,0,1,91.1,7.6c11.138,6.661,14.172,20.768,12.278,31.055a58.64,58.64,0,0,1-6.784,18.688c-.723,1.348-1.346,2.512-1.8,3.589A1.285,1.285,0,0,0,94.71,61.535Z" transform="translate(-39.51 -1)"/>
            <path id="Path_2321" data-name="Path 2321" class="cls-4" d="M176.748,71.14a3.939,3.939,0,0,0-3.2-4.236l-2.516-3.488a3.9,3.9,0,0,0,.352-.9l2.437-.975a3.933,3.933,0,1,0,3.807-6.435l-1.974-3.938a3.926,3.926,0,0,0-4.828-6.113l-2.2-1.828a3.928,3.928,0,0,0-6.525-4.085l-3.9-.974a3.918,3.918,0,0,0-7.54-.046l-5.207,1.041a3.924,3.924,0,0,0-6.274,4.631l-2.551,3.4a3.931,3.931,0,0,0-.225,7.688l2.11,5.208a3.935,3.935,0,1,0,6.469,4.115h7.055a3.806,3.806,0,0,0,4.3,2.567l4.363,6.636a3.932,3.932,0,1,0,6.794,3.311l3.257-2.6a3.923,3.923,0,0,0,6-2.974Zm.017-13.508a1.314,1.314,0,1,1-1.2,1.836c0-.012,0-.024-.007-.036l-.008-.013a1.3,1.3,0,0,1-.1-.472A1.316,1.316,0,0,1,176.765,57.632Zm-5.229-9.466a1.314,1.314,0,1,1,1.287,1.581,1.3,1.3,0,0,1-.474-.1l-.011-.007c-.012,0-.024,0-.036-.007A1.312,1.312,0,0,1,171.536,48.166Zm-1.307,3.213h0L167.8,57.45l-4.257-3.406a3.922,3.922,0,0,0,1.215-1.87l5.207-1.041C170.047,51.22,170.138,51.3,170.228,51.378Zm-1.4,10.551a1.313,1.313,0,1,1-1.264-1.669,1.3,1.3,0,0,1,.474.1l.011.007c.012,0,.024,0,.036.007A1.313,1.313,0,0,1,168.829,61.929Zm-3.892-21.381a1.314,1.314,0,1,1-1.314,1.314A1.314,1.314,0,0,1,164.937,40.548Zm-6.916.283,3,.75c-.007.095-.028.185-.028.281a3.947,3.947,0,0,0,3.942,3.942,3.9,3.9,0,0,0,2-.563l2.2,1.828a3.9,3.9,0,0,0-.258,1.364c0,.079.019.154.023.232l-4.28.856A3.944,3.944,0,0,0,161.6,47.18l-4.812-4.811A3.953,3.953,0,0,0,158.022,40.831Zm4.287,10.23A1.314,1.314,0,1,1,161,49.747,1.314,1.314,0,0,1,162.309,51.061ZM154.424,37.92a1.314,1.314,0,1,1-1.314,1.314A1.314,1.314,0,0,1,154.424,37.92Zm.26,6.062,3.946,3.945a3.936,3.936,0,0,0-1.336,1.82h-3.113a3.937,3.937,0,0,0-1.713-2.071Zm-8.169-2.352,4.28-.856a3.952,3.952,0,0,0,1.641,1.845L150.052,46.6l-4.124-2.646a3.907,3.907,0,0,0,.611-2.087C146.54,41.783,146.521,41.708,146.516,41.63Zm5.28,9.431a1.314,1.314,0,1,1-1.314-1.314A1.314,1.314,0,0,1,151.8,51.061Zm-9.2-10.513a1.314,1.314,0,1,1-1.314,1.314A1.314,1.314,0,0,1,142.6,40.548Zm-1.43,4.978a3.687,3.687,0,0,0,2.518.107l4.057,2.6a3.936,3.936,0,0,0-.96,1.511h-5.741a3.945,3.945,0,0,0-1.553-1.984Zm-3.826,6.849a1.314,1.314,0,1,1,1.314-1.314A1.314,1.314,0,0,1,137.341,52.375ZM141.283,64.2a1.314,1.314,0,1,1,1.314-1.314A1.314,1.314,0,0,1,141.283,64.2Zm.747-5.181a3.943,3.943,0,0,0-.747-.076,3.812,3.812,0,0,0-.38.039l-1.791-4.421a3.938,3.938,0,0,0,1.928-2.188h5.741a3.93,3.93,0,0,0,1.187,1.7Zm10.008,2.553h-7.055a3.913,3.913,0,0,0-.6-1.092l6.454-5.378,2.2,4.929A3.935,3.935,0,0,0,152.038,61.574Zm2.144-9.2H157.3a3.937,3.937,0,0,0,1.713,2.071L156.276,59a3.906,3.906,0,0,0-.537-.054c-.1,0-.2.022-.3.03l-2.256-5.06A3.937,3.937,0,0,0,154.182,52.375ZM155.739,64.2a1.314,1.314,0,1,1,1.314-1.314A1.314,1.314,0,0,1,155.739,64.2Zm5.609-8.548,3.67,2.936a3.924,3.924,0,0,0-1.215,1.87l-4.436.887a3.946,3.946,0,0,0-.752-1.137Zm2.275,21.689a1.314,1.314,0,1,1,1.314-1.314A1.314,1.314,0,0,1,163.623,77.344Zm5.257-6.571a3.894,3.894,0,0,0,.234,1.287L166.9,73.833a3.791,3.791,0,0,0-3.873-1.685l-4.363-6.636A3.918,3.918,0,0,0,159.5,64l4.436-.887a3.937,3.937,0,0,0,5.148,2.1l1.621,2.247A3.934,3.934,0,0,0,168.88,70.773Zm1.28-12.144,2.507-6.269c.053,0,.1.016.155.016a3.861,3.861,0,0,0,.473-.048l1.591,3.174a3.93,3.93,0,0,0-2.064,3.444c0,.053.014.1.016.156l-1.767.706A3.94,3.94,0,0,0,170.16,58.629Zm2.663,13.459a1.314,1.314,0,1,1,1.314-1.314A1.314,1.314,0,0,1,172.822,72.087Z" transform="translate(-118.939 -30.011)"/>
          </g>
        </g>
      </g>
      <path id="devices" class="cls-4" d="M90.742,53.176V30.206a6.677,6.677,0,0,0-6.669-6.669H6.669A6.677,6.677,0,0,0,0,30.206V77a6.677,6.677,0,0,0,6.669,6.669H28.606l-2.511,2.7H22.332a1.549,1.549,0,1,0,0,3.1H43.881V104.4a3.917,3.917,0,0,0,3.913,3.913H64.441a3.917,3.917,0,0,0,3.913-3.913v-3.145H89.2a5.311,5.311,0,0,0,5.3-5.306v-37.7a5.315,5.315,0,0,0-3.758-5.075Zm.661,5.075v.423H55.788v-.423A2.212,2.212,0,0,1,58,56.043H89.2A2.211,2.211,0,0,1,91.4,58.252ZM64.441,71.335H55.788V61.772H91.4v30.66H68.354V75.248A3.917,3.917,0,0,0,64.441,71.335Zm.816,5.948H46.978V75.248a.817.817,0,0,1,.816-.816H64.441a.817.817,0,0,1,.816.816v2.035ZM87.645,31.755V52.945H58a5.312,5.312,0,0,0-5.306,5.306V71.335h-4.9a3.917,3.917,0,0,0-3.913,3.908H3.1V31.755H87.645ZM46.977,80.381H65.256V99.272H46.977ZM6.669,26.634h77.4a3.573,3.573,0,0,1,3.214,2.023H3.455a3.573,3.573,0,0,1,3.214-2.023ZM3.36,78.34h40.52v2.232H6.669A3.576,3.576,0,0,1,3.36,78.34Zm26.962,8.032,2.511-2.7H43.881v2.7ZM64.441,105.22H47.793a.817.817,0,0,1-.816-.816v-2.035H65.256V104.4A.817.817,0,0,1,64.441,105.22ZM89.2,98.162H68.354V95.529H91.4v.423A2.211,2.211,0,0,1,89.2,98.162Z" transform="translate(652 2598.219)"/>
      <g id="robot-arm" transform="translate(518.236 2627.96)">
        <g id="Group_482" data-name="Group 482" transform="translate(45.247 47.704)">
          <g id="Group_481" data-name="Group 481">
            <path id="Path_2334" data-name="Path 2334" class="cls-4" d="M430,451.9a1.055,1.055,0,1,0,1.055,1.055A1.055,1.055,0,0,0,430,451.9Z" transform="translate(-428.945 -451.898)"/>
          </g>
        </g>
        <g id="Group_484" data-name="Group 484" transform="translate(38.604 47.704)">
          <g id="Group_483" data-name="Group 483">
            <path id="Path_2335" data-name="Path 2335" class="cls-4" d="M367.02,451.9a1.055,1.055,0,1,0,1.055,1.055A1.055,1.055,0,0,0,367.02,451.9Z" transform="translate(-365.965 -451.898)"/>
          </g>
        </g>
        <g id="Group_486" data-name="Group 486" transform="translate(32.277 47.704)">
          <g id="Group_485" data-name="Group 485">
            <path id="Path_2336" data-name="Path 2336" class="cls-4" d="M307.039,451.9a1.055,1.055,0,1,0,1.055,1.055A1.055,1.055,0,0,0,307.039,451.9Z" transform="translate(-305.984 -451.898)"/>
          </g>
        </g>
        <g id="Group_488" data-name="Group 488" transform="translate(25.317 47.704)">
          <g id="Group_487" data-name="Group 487">
            <path id="Path_2337" data-name="Path 2337" class="cls-4" d="M241.06,451.9a1.055,1.055,0,1,0,1.055,1.055A1.055,1.055,0,0,0,241.06,451.9Z" transform="translate(-240.005 -451.898)"/>
          </g>
        </g>
        <g id="Group_490" data-name="Group 490" transform="translate(18.99 47.704)">
          <g id="Group_489" data-name="Group 489">
            <path id="Path_2338" data-name="Path 2338" class="cls-4" d="M181.079,451.9a1.055,1.055,0,1,0,1.055,1.055A1.055,1.055,0,0,0,181.079,451.9Z" transform="translate(-180.024 -451.898)"/>
          </g>
        </g>
        <g id="Group_492" data-name="Group 492" transform="translate(12.663 47.704)">
          <g id="Group_491" data-name="Group 491">
            <path id="Path_2339" data-name="Path 2339" class="cls-4" d="M121.1,451.9a1.055,1.055,0,1,0,1.055,1.055A1.055,1.055,0,0,0,121.1,451.9Z" transform="translate(-120.043 -451.898)"/>
          </g>
        </g>
        <g id="Group_494" data-name="Group 494" transform="translate(6.336 47.704)">
          <g id="Group_493" data-name="Group 493">
            <path id="Path_2340" data-name="Path 2340" class="cls-4" d="M61.117,451.9a1.055,1.055,0,1,0,1.055,1.055A1.055,1.055,0,0,0,61.117,451.9Z" transform="translate(-60.062 -451.898)"/>
          </g>
        </g>
        <g id="Group_496" data-name="Group 496" transform="translate(0 0.04)">
          <g id="Group_495" data-name="Group 495">
            <path id="Path_2341" data-name="Path 2341" class="cls-4" d="M48.727,43.478H47.356V32.73A1.055,1.055,0,0,0,46.3,31.676H37.549a1.055,1.055,0,0,0-1.055,1.055V43.478H27.426V29.567a8.362,8.362,0,0,0-1.706-5.088,8.5,8.5,0,0,0-4.066-2.917l-6.921-6.585L36.28,12.356a7.327,7.327,0,0,0,1.27,1.122v3.434H36.495a1.054,1.054,0,0,0-.943.583l-2.109,4.218a1.055,1.055,0,0,0,.2,1.217l4.218,4.218a1.055,1.055,0,1,0,1.491-1.491l-3.681-3.681,1.478-2.955h9.242l1.478,2.955-3.681,3.681a1.055,1.055,0,1,0,1.491,1.491l4.218-4.218a1.054,1.054,0,0,0,.2-1.217L47.983,17.5a1.054,1.054,0,0,0-.943-.583H45.985V13.478A7.381,7.381,0,1,0,35.267,3.922l-25.7.547A1.054,1.054,0,0,0,9.3,4.51a7.381,7.381,0,1,0-2.324,14.5L11.774,25.2a8.356,8.356,0,0,0-1.22,4.37V43.478H5.281a5.281,5.281,0,0,0,0,10.562H48.727a5.281,5.281,0,0,0,0-10.562ZM43.876,16.912H39.658V14.5a7.384,7.384,0,0,0,4.218,0v2.417ZM36.907,5.373h0a5.28,5.28,0,1,1-.413,2.049A5.265,5.265,0,0,1,36.907,5.373Zm1.7,28.412h6.643v9.7H38.6ZM20.8,23.5h0a6.328,6.328,0,1,1-8.137,6.064A6.331,6.331,0,0,1,20.8,23.5Zm4.52,11.636v8.349H12.663V35.138a8.419,8.419,0,0,0,12.654,0Zm9.2-29.09a7.415,7.415,0,0,0-.129,1.374,7.335,7.335,0,0,0,.619,2.965L14.67,12.86A7.38,7.38,0,0,0,12.7,6.512ZM7.177,16.907a5.266,5.266,0,1,1,5.073-3.218A5.424,5.424,0,0,1,12,14.2,5.294,5.294,0,0,1,7.73,16.9,1.058,1.058,0,0,0,7.177,16.907Zm2.256,1.825a7.427,7.427,0,0,0,3.658-2.405l5.091,4.844A8.5,8.5,0,0,0,13.129,23.5ZM50.958,50.989a3.134,3.134,0,0,1-2.23.924H5.281a3.155,3.155,0,0,1,0-6.31h6.327a1.059,1.059,0,0,0,.129-.009H26.243a1.058,1.058,0,0,0,.129.009H37.549a1.059,1.059,0,0,0,.129-.009h8.5a1.059,1.059,0,0,0,.129.009h2.425a3.154,3.154,0,0,1,2.23,5.386Z" transform="translate(0 -0.04)"/>
          </g>
        </g>
        <g id="Group_498" data-name="Group 498" transform="translate(38.604 4.258)">
          <g id="Group_497" data-name="Group 497">
            <path id="Path_2342" data-name="Path 2342" class="cls-4" d="M369.129,40.028a3.164,3.164,0,1,0,3.164,3.164A3.167,3.167,0,0,0,369.129,40.028Zm0,4.218a1.055,1.055,0,1,1,1.055-1.055A1.056,1.056,0,0,1,369.129,44.246Z" transform="translate(-365.965 -40.028)"/>
          </g>
        </g>
        <g id="Group_500" data-name="Group 500" transform="translate(4.227 8.476)">
          <g id="Group_499" data-name="Group 499">
            <path id="Path_2343" data-name="Path 2343" class="cls-4" d="M43.232,80.016A3.164,3.164,0,1,0,46.4,83.18,3.167,3.167,0,0,0,43.232,80.016Zm0,4.218a1.055,1.055,0,1,1,1.055-1.055A1.056,1.056,0,0,1,43.232,84.234Z" transform="translate(-40.068 -80.016)"/>
          </g>
        </g>
        <g id="Group_502" data-name="Group 502" transform="translate(14.772 25.348)">
          <g id="Group_501" data-name="Group 501">
            <path id="Path_2344" data-name="Path 2344" class="cls-4" d="M144.255,239.965a4.218,4.218,0,1,0,4.218,4.218A4.223,4.223,0,0,0,144.255,239.965Zm0,6.327a2.109,2.109,0,1,1,2.109-2.109A2.111,2.111,0,0,1,144.255,246.292Z" transform="translate(-140.037 -239.965)"/>
          </g>
        </g>
      </g>
      <g id="robotic" transform="translate(744.307 2625.177)">
        <g id="Group_470" data-name="Group 470" transform="translate(65.473 8.157)">
          <g id="Group_469" data-name="Group 469" transform="translate(0)">
            <path id="Path_2328" data-name="Path 2328" class="cls-4" d="M160.506,105.178a2.482,2.482,0,1,0,2.482,2.482A2.482,2.482,0,0,0,160.506,105.178Zm0,3.722a1.238,1.238,0,1,1,0-2.475v-.006a1.241,1.241,0,1,1,0,2.482Z" transform="translate(-158.024 -105.178)"/>
          </g>
        </g>
        <g id="Group_472" data-name="Group 472" transform="translate(72.571 8.157)">
          <g id="Group_471" data-name="Group 471" transform="translate(0)">
            <path id="Path_2329" data-name="Path 2329" class="cls-4" d="M252.026,105.178a2.482,2.482,0,1,0,2.482,2.482A2.482,2.482,0,0,0,252.026,105.178Zm0,3.722a1.238,1.238,0,1,1,0-2.475v-.006a1.241,1.241,0,1,1,0,2.482Z" transform="translate(-249.544 -105.178)"/>
          </g>
        </g>
        <g id="Group_474" data-name="Group 474" transform="translate(60.335 0.001)">
          <g id="Group_473" data-name="Group 473" transform="translate(0)">
            <path id="Path_2330" data-name="Path 2330" class="cls-4" d="M114.042,11.013a3.456,3.456,0,0,0-2.937-2.806,3.724,3.724,0,0,0-3.958-2.8h-3.6V4.038a2.066,2.066,0,1,0-1.241,0V5.372H98.716a3.825,3.825,0,0,0-3.97,2.8A3.456,3.456,0,0,0,94.6,15l-.006.031a3.816,3.816,0,0,0,4.113,3.722h8.437a3.794,3.794,0,0,0,4.113-3.722A3.456,3.456,0,0,0,114.042,11.013ZM94.578,13.79a2.209,2.209,0,0,1,0-4.243ZM102.1,2.1a.825.825,0,1,1,.825.825A.825.825,0,0,1,102.1,2.1Zm7.935,12.482a2.622,2.622,0,0,1-2.891,2.891H98.716a2.622,2.622,0,0,1-2.891-2.891l-.006-5.038A2.619,2.619,0,0,1,98.71,6.656h8.437a2.619,2.619,0,0,1,2.891,2.891Zm1.216-.838V9.5a2.207,2.207,0,0,1,0,4.243Z" transform="translate(-91.76 -0.001)"/>
          </g>
        </g>
        <g id="Group_476" data-name="Group 476" transform="translate(67.335 14.808)">
          <g id="Group_475" data-name="Group 475" transform="translate(0)">
            <path id="Path_2331" data-name="Path 2331" class="cls-4" d="M189.742,190.938h-7.1a.62.62,0,1,0,0,1.241h7.1a.62.62,0,0,0,0-1.241Z" transform="translate(-182.024 -190.938)"/>
          </g>
        </g>
        <g id="Group_478" data-name="Group 478" transform="translate(57.693 17.499)">
          <g id="Group_477" data-name="Group 477">
            <path id="Path_2332" data-name="Path 2332" class="cls-4" d="M85.307,228.053h0a2.407,2.407,0,0,0-4.752-.521l-1.656.323H64.108l-1.656-.323a2.407,2.407,0,1,0-2.965,2.841v4.634a2.407,2.407,0,0,0-1.787,2.314v1.1a.62.62,0,1,0,1.241,0v-1.1a1.166,1.166,0,1,1,2.333,0v1.1a.62.62,0,0,0,1.241,0v-1.1A2.407,2.407,0,0,0,60.727,235v-4.634a2.4,2.4,0,0,0,1.663-1.588l1.036.2v7.656a8.022,8.022,0,0,0,.695,3.257v.056a8.065,8.065,0,0,0,14.7,0l.031-.068a8.015,8.015,0,0,0,.713-3.245v-7.656l1.036-.2a2.4,2.4,0,0,0,1.663,1.588V235a2.407,2.407,0,0,0-1.787,2.314v1.1a.62.62,0,1,0,1.241,0v-1.1a1.166,1.166,0,0,1,2.333,0v1.1a.62.62,0,0,0,1.241,0v-1.1A2.407,2.407,0,0,0,83.508,235v-4.634A2.407,2.407,0,0,0,85.307,228.053Zm-25.2,1.166a1.166,1.166,0,1,1,1.166-1.166A1.166,1.166,0,0,1,60.107,229.219Zm11.4,14.25a6.824,6.824,0,0,1-5.763-3.17H77.267A6.825,6.825,0,0,1,71.5,243.469Zm6.824-6.824a6.823,6.823,0,0,1-.453,2.42H65.12a6.823,6.823,0,0,1-.453-2.42v-7.55H78.328Zm4.579-7.426H82.9l-.012-.019a.825.825,0,1,1,.019.019Z" transform="translate(-57.693 -225.638)"/>
          </g>
        </g>
        <g id="Group_480" data-name="Group 480" transform="translate(69.335 21.812)">
          <g id="Group_479" data-name="Group 479">
            <path id="Path_2333" data-name="Path 2333" class="cls-4" d="M212.181,284.776a.621.621,0,0,0-.414-.16h-1.861l2.283-2.345a.62.62,0,0,0-.887-.862l-3.307,3.4a.62.62,0,0,0,.447,1.055h1.911L208,288.481a.62.62,0,0,0,.043.875h0a.62.62,0,0,0,.875-.043l3.307-3.66A.62.62,0,0,0,212.181,284.776Z" transform="translate(-207.817 -281.253)"/>
          </g>
        </g>
      </g>
      <g id="blockchain" transform="translate(403 2585.39)">
        <path id="Path_2322" data-name="Path 2322" class="cls-4" d="M87.7,38.733a1.731,1.731,0,0,0,.91-1.524V25.095a1.768,1.768,0,0,0-.91-1.524L73.009,15.584a1.731,1.731,0,0,0-1.693,3.02l.719.4-8.475,4.563a1.768,1.768,0,0,0-.91,1.524V35.67l-6.756.795-9.859-5.308V26.994l10.339-5.567a1.731,1.731,0,0,0,.91-1.524V10.741l1.952,1.094a1.728,1.728,0,0,0,2.355-.665,1.728,1.728,0,0,0-.663-2.355L45.126.206a1.73,1.73,0,0,0-1.641,0l-15.8,8.609a1.731,1.731,0,1,0,1.693,3.02l1.952-1.094V19.9a1.731,1.731,0,0,0,.91,1.524l10.339,5.567v4.163l-9.859,5.309L25.96,35.67V25.095a1.77,1.77,0,0,0-.91-1.524l-8.475-4.563.719-.4a1.731,1.731,0,1,0-1.693-3.02L.91,23.571A1.792,1.792,0,0,0,0,25.095V37.209a1.731,1.731,0,0,0,.91,1.524L11.249,44.3v1.221L.91,51.089A1.769,1.769,0,0,0,0,52.613V64.727a1.731,1.731,0,0,0,.91,1.524l14.344,7.606a1.731,1.731,0,0,0,1.549-3.1l-.066-.033,8.313-4.476a1.731,1.731,0,0,0,.91-1.524V53.958l6.869-1.751,9.745,5.247v4.163L32.236,67.184a1.771,1.771,0,0,0-.91,1.524v9.315l-2.139-1.07a1.731,1.731,0,0,0-1.549,3.1L43.485,88.4a1.776,1.776,0,0,0,.821.207,1.757,1.757,0,0,0,.821-.207l15.846-8.355a1.731,1.731,0,1,0-1.547-3.1l-2.139,1.069V68.708a1.77,1.77,0,0,0-.91-1.524L46.036,61.617V57.454l9.745-5.247,6.869,1.751v10.77a1.731,1.731,0,0,0,.91,1.524l8.313,4.476-.066.033a1.731,1.731,0,0,0,.777,3.28,1.717,1.717,0,0,0,.772-.183L87.7,66.251a1.731,1.731,0,0,0,.91-1.524V52.613a1.77,1.77,0,0,0-.91-1.524L77.362,45.521V44.3ZM64.155,50.769l-6.869-1.751V39.787l6.756-.795L73.9,44.3v1.221ZM73.9,32.186v8.184l-7.788-4.194V27.992Zm3.461,8.184V32.186l7.788-4.194v8.184ZM75.631,21l7.6,4.092-7.6,4.092-7.6-4.092Zm-29.595,2.06V14.879l7.788-4.194v8.184ZM44.306,3.7l7.6,4.092-7.6,4.092-7.6-4.092Zm-9.519,6.989,7.788,4.194v8.184l-7.788-4.194Zm9.519,23.471,7.6,4.092-7.6,4.092-7.6-4.092ZM24.456,50.769l-9.745-5.247V44.3l9.859-5.309,6.756.795v9.231ZM22.5,27.992v8.184l-7.788,4.194V32.186ZM12.98,21l7.6,4.092-7.6,4.092-7.6-4.092ZM3.461,27.992l7.788,4.194v8.184L3.461,36.176ZM12.98,48.521l7.6,4.092L12.98,56.7l-7.6-4.092ZM3.461,55.51,11.249,59.7v8.184L3.461,63.694ZM14.711,67.887V59.7L22.5,55.51v8.184ZM34.787,41.145l7.788,4.194v8.184l-7.788-4.194ZM42.575,75.8v8.184l-7.788-4.194V71.606Zm3.461,8.184V75.8l7.788-4.194v8.184ZM44.306,72.8l-7.6-4.092,7.6-4.092,7.6,4.092Zm1.731-19.277V45.339l7.788-4.194v8.184ZM66.112,55.51,73.9,59.7v8.184l-7.788-4.194ZM77.362,67.887V59.7L85.15,55.51v8.184ZM75.631,56.7l-7.6-4.092,7.6-4.092,7.6,4.092Z" transform="translate(0 0)"/>
        <path id="Path_2323" data-name="Path 2323" class="cls-4" d="M372.949,72.46a1.73,1.73,0,1,0-.82-1.04A1.724,1.724,0,0,0,372.949,72.46Z" transform="translate(-307.671 -57.241)"/>
        <path id="Path_2324" data-name="Path 2324" class="cls-4" d="M375.342,425.69a1.712,1.712,0,0,0-.772.183,1.731,1.731,0,0,0,.775,3.28,1.732,1.732,0,0,0,0-3.463Z" transform="translate(-308.952 -352.017)"/>
        <path id="Path_2325" data-name="Path 2325" class="cls-4" d="M121.66,72.681a1.73,1.73,0,1,0-1.511-.884A1.724,1.724,0,0,0,121.66,72.681Z" transform="translate(-99.171 -57.241)"/>
        <path id="Path_2326" data-name="Path 2326" class="cls-4" d="M120.89,425.873a1.731,1.731,0,1,0,.774,2.323A1.733,1.733,0,0,0,120.89,425.873Z" transform="translate(-97.896 -352.017)"/>
      </g>
      <g id="website" transform="translate(533 2439.742)">
        <g id="Group_504" data-name="Group 504" transform="translate(0 8.533)">
          <g id="Group_503" data-name="Group 503">
            <path id="Path_2345" data-name="Path 2345" class="cls-4" d="M44.147,8.533H3.154A3.158,3.158,0,0,0,0,11.687V37.7a.789.789,0,0,0,.788.788H46.513A.789.789,0,0,0,47.3,37.7V11.687A3.158,3.158,0,0,0,44.147,8.533Zm1.577,28.381H1.577V11.687A1.579,1.579,0,0,1,3.154,10.11H44.147a1.579,1.579,0,0,1,1.577,1.577Z" transform="translate(0 -8.533)"/>
          </g>
        </g>
        <g id="Group_506" data-name="Group 506" transform="translate(0 36.914)">
          <g id="Group_505" data-name="Group 505">
            <path id="Path_2346" data-name="Path 2346" class="cls-4" d="M46.513,315.733H.788a.789.789,0,0,0-.788.788v3.941a3.158,3.158,0,0,0,3.154,3.154H44.147a3.158,3.158,0,0,0,3.154-3.154v-3.941A.789.789,0,0,0,46.513,315.733Zm-.788,4.729a1.579,1.579,0,0,1-1.577,1.577H3.154a1.579,1.579,0,0,1-1.577-1.577V317.31H45.725v3.153Z" transform="translate(0 -315.733)"/>
          </g>
        </g>
        <g id="Group_508" data-name="Group 508" transform="translate(20.497 40.067)">
          <g id="Group_507" data-name="Group 507">
            <path id="Path_2347" data-name="Path 2347" class="cls-4" d="M227.385,349.867h-4.73a.788.788,0,1,0,0,1.577h4.73a.788.788,0,0,0,0-1.577Z" transform="translate(-221.867 -349.867)"/>
          </g>
        </g>
        <g id="Group_510" data-name="Group 510" transform="translate(3.153 11.686)">
          <g id="Group_509" data-name="Group 509">
            <path id="Path_2348" data-name="Path 2348" class="cls-4" d="M74.34,42.667H34.922a.789.789,0,0,0-.788.788V68.683a.789.789,0,0,0,.788.788H74.34a.789.789,0,0,0,.788-.788V43.455A.789.789,0,0,0,74.34,42.667Zm-.788,25.227H35.711V44.244H73.552V67.894Z" transform="translate(-34.134 -42.667)"/>
          </g>
        </g>
        <g id="Group_512" data-name="Group 512" transform="translate(11.037 49.528)">
          <g id="Group_511" data-name="Group 511">
            <path id="Path_2349" data-name="Path 2349" class="cls-4" d="M142.329,452.267h-20.5a2.365,2.365,0,1,0,0,4.73h20.5a2.365,2.365,0,1,0,0-4.73Zm0,3.153h-20.5a.788.788,0,1,1,0-1.577h20.5a.788.788,0,1,1,0,1.577Z" transform="translate(-119.467 -452.267)"/>
          </g>
        </g>
        <g id="Group_514" data-name="Group 514" transform="translate(14.191 43.221)">
          <g id="Group_513" data-name="Group 513">
            <path id="Path_2350" data-name="Path 2350" class="cls-4" d="M171.733,390.308c-2.616,0-3.942-1.857-3.942-5.519A.789.789,0,0,0,167,384h-7.884a.789.789,0,0,0-.788.788c0,3.662-1.326,5.519-3.942,5.519a.788.788,0,0,0,0,1.577h17.344a.788.788,0,0,0,0-1.577Zm-13.5,0a7.553,7.553,0,0,0,1.657-4.73h6.35a7.544,7.544,0,0,0,1.657,4.73Z" transform="translate(-153.601 -384.001)"/>
          </g>
        </g>
        <g id="Group_516" data-name="Group 516" transform="translate(27.598 25.088)">
          <g id="Group_515" data-name="Group 515">
            <path id="Path_2351" data-name="Path 2351" class="cls-4" d="M308.8,194.4l-1.9-1.9,1.059-1.059a.788.788,0,0,0-.33-1.313l-7.884-2.365a.789.789,0,0,0-.982.982l2.365,7.884a.788.788,0,0,0,1.313.331l1.115-1.116,1.9,1.9a.788.788,0,0,0,1.115,0l2.229-2.23A.787.787,0,0,0,308.8,194.4Zm-2.787,1.673-1.733-1.734a1.031,1.031,0,0,0-1.455,0l-.569.569-1.565-5.217,5.217,1.565-.61.61a.894.894,0,0,0,0,1.262l1.829,1.829Z" transform="translate(-298.723 -187.731)"/>
          </g>
        </g>
        <g id="Group_518" data-name="Group 518" transform="translate(10.249 14.84)">
          <g id="Group_517" data-name="Group 517">
            <path id="Path_2352" data-name="Path 2352" class="cls-4" d="M133.8,76.8H111.722a.789.789,0,0,0-.788.788V81.53a.789.789,0,0,0,.788.788H133.8a.789.789,0,0,0,.788-.788V77.588A.789.789,0,0,0,133.8,76.8Zm-.788,3.942h-20.5V78.377h20.5Z" transform="translate(-110.934 -76.8)"/>
          </g>
        </g>
        <g id="Group_520" data-name="Group 520" transform="translate(13.402 23.512)">
          <g id="Group_519" data-name="Group 519">
            <path id="Path_2353" data-name="Path 2353" class="cls-4" d="M152.162,170.667h-6.307a.789.789,0,0,0-.788.788v3.153a.789.789,0,0,0,.788.788h6.307a.789.789,0,0,0,.788-.788v-3.153A.789.789,0,0,0,152.162,170.667Zm-.788,3.153h-4.73v-1.577h4.73Z" transform="translate(-145.067 -170.667)"/>
          </g>
        </g>
        <g id="Group_522" data-name="Group 522" transform="translate(10.249 14.84)">
          <g id="Group_521" data-name="Group 521">
            <path id="Path_2354" data-name="Path 2354" class="cls-4" d="M133.8,76.8H111.722a.789.789,0,0,0-.788.788V92.567a.789.789,0,0,0,.788.788H130.49a.789.789,0,0,0,.755-1.015l-1-3.328,3.323,1a.789.789,0,0,0,1.015-.755V77.588A.789.789,0,0,0,133.8,76.8Zm-.788,11.395L129.3,87.082a.789.789,0,0,0-.982.982l1.115,3.715h-16.92v-13.4h20.5Z" transform="translate(-110.934 -76.8)"/>
          </g>
        </g>
      </g>
      <g id="movie-symbol-of-video-camera" transform="translate(426.321 2420.281)">
        <g id="_x33__13_" transform="translate(0 38.25)">
          <g id="Group_468" data-name="Group 468">
            <path id="Path_2327" data-name="Path 2327" class="cls-2" d="M76.574,68.88,61.259,79.089a10.142,10.142,0,0,0-3.589-7.714,17.831,17.831,0,1,0-21.652-2.5H26.655A15.292,15.292,0,1,0,0,58.67,15.214,15.214,0,0,0,5.314,70.181,10.169,10.169,0,0,0,0,79.089v20.42a10.21,10.21,0,0,0,10.21,10.21H51.049a10.21,10.21,0,0,0,10.21-10.21l15.315,10.21a5.1,5.1,0,0,0,5.1-5.1V73.984A5.1,5.1,0,0,0,76.574,68.88Zm-61.259,0a10.21,10.21,0,1,1,10.21-10.21A10.21,10.21,0,0,1,15.315,68.88Zm33.182.028a12.79,12.79,0,1,1,12.79-12.79A12.79,12.79,0,0,1,48.5,68.908Z" transform="translate(0 -38.25)"/>
          </g>
        </g>
      </g>
      <g id="headphone-symbol_1_" data-name="headphone-symbol (1)" transform="translate(801 2462.159)">
        <g id="Group_523" data-name="Group 523" transform="translate(0 22.804)">
          <path id="Path_2355" data-name="Path 2355" class="cls-3" d="M62.743,146.359v14.172a1.527,1.527,0,1,0,3.054,0V146.359a1.527,1.527,0,1,0-3.054,0Z" transform="translate(-53.708 -127.26)"/>
          <path id="Path_2356" data-name="Path 2356" class="cls-3" d="M4.242,57.619H7.6V40.793a2.136,2.136,0,0,0,.024-.244,13.06,13.06,0,1,1,26.12,0,2.125,2.125,0,0,0,.033.326V57.619h3.363a4.316,4.316,0,0,0,4.24-4.387V44.457a4.37,4.37,0,0,0-3.062-4.212,17.635,17.635,0,0,0-35.267,0A4.366,4.366,0,0,0,0,44.459v8.773A4.317,4.317,0,0,0,4.242,57.619Z" transform="translate(0 -22.804)"/>
          <path id="Path_2357" data-name="Path 2357" class="cls-3" d="M203.454,146.359v14.172a1.527,1.527,0,1,0,3.054,0V146.359a1.527,1.527,0,1,0-3.054,0Z" transform="translate(-174.157 -127.26)"/>
        </g>
      </g>
      <g id="hourglass" transform="translate(589 2462.042)">
        <path id="Path_2358" data-name="Path 2358" class="cls-4" d="M20.727,18.487h-.963V17.212h-1.6V13.954a2.56,2.56,0,0,0-1.152-2.137L13.6,9.562l3.4-2.254a2.56,2.56,0,0,0,1.152-2.137V1.912h1.6V.637h.963a.319.319,0,1,0,0-.637H5.321a.319.319,0,1,0,0,.637h.963V1.912h1.6V5.171A2.56,2.56,0,0,0,9.041,7.308l3.4,2.254-3.4,2.254a2.56,2.56,0,0,0-1.152,2.137v3.258h-1.6v1.275H5.321a.319.319,0,1,0,0,.637H20.727a.319.319,0,1,0,0-.637ZM6.926,1.275V.637h12.2v.637H6.926ZM9.4,6.778a1.925,1.925,0,0,1-.866-1.607V1.912h8.987V5.171a1.925,1.925,0,0,1-.866,1.607l-3.627,2.4Zm-.866,7.176A1.925,1.925,0,0,1,9.4,12.347l3.627-2.4,3.627,2.4a1.925,1.925,0,0,1,.866,1.607v3.258H8.531Zm-1.6,3.9h12.2v.637H6.926Z" transform="translate(0 0)"/>
        <path id="Path_2359" data-name="Path 2359" class="cls-4" d="M19.024,14.733a.722.722,0,0,1-.322-.6v-.78a.351.351,0,0,0-.7,0v.78a1.422,1.422,0,0,0,.635,1.186L20.263,16.4a.351.351,0,0,0,.39-.584Z" transform="translate(-8.902 -8.939)"/>
        <path id="Path_2360" data-name="Path 2360" class="cls-4" d="M36.174,39.144l-1.628-1.086a.351.351,0,1,0-.39.584l1.628,1.086a.721.721,0,0,1,.322.6v.78a.351.351,0,0,0,.7,0v-.78A1.422,1.422,0,0,0,36.174,39.144Z" transform="translate(-19.858 -26.129)"/>
      </g>
      <path id="music-player" class="cls-5" d="M24.31.11A.446.446,0,0,0,23.963,0L10.311,1.77a.44.44,0,0,0-.384.436V17.89a4.57,4.57,0,0,0-3.523-1.6A4.206,4.206,0,0,0,2,20.258a4.206,4.206,0,0,0,4.4,3.964,4.206,4.206,0,0,0,4.4-3.964c0-.1-.008-.2-.017-.3a.424.424,0,0,0,.017-.085V7.1L23.579,5.446v8.04a4.571,4.571,0,0,0-3.523-1.6,4.206,4.206,0,0,0-4.4,3.964,4.206,4.206,0,0,0,4.4,3.964,4.212,4.212,0,0,0,4.4-3.9c0-.006,0-.011,0-.016V.441A.439.439,0,0,0,24.31.11Z" transform="translate(596 2492.777)"/>
      <g id="piggy-bank" transform="translate(636 2422.097)">
        <g id="Group_525" data-name="Group 525" transform="translate(68.12 52.556)">
          <g id="Group_524" data-name="Group 524">
            <path id="Path_2361" data-name="Path 2361" class="cls-4" d="M388.6,270.613a1.331,1.331,0,0,0-1.331,1.331,1.691,1.691,0,1,1-3.381,0,1.331,1.331,0,0,0-2.663,0,4.353,4.353,0,1,0,8.707,0A1.331,1.331,0,0,0,388.6,270.613Z" transform="translate(-381.228 -270.613)"/>
          </g>
        </g>
        <g id="Group_527" data-name="Group 527" transform="translate(0 5.115)">
          <g id="Group_526" data-name="Group 526">
            <path id="Path_2362" data-name="Path 2362" class="cls-4" d="M87.993,52.773l-3.747-1.2a1.568,1.568,0,0,1-1.012-1.025,24.161,24.161,0,0,0-3.542-7.007,25.71,25.71,0,0,0-2.367-2.792,33.026,33.026,0,0,0,.814-7.541c-.056-3.392-.734-5.382-2.072-6.083-.721-.378-2.915-1.527-14.792,3.91a4.321,4.321,0,0,0-.787.469c-.8-.215-1.619-.414-2.442-.593-.1-.022-.2-.041-.3-.062a18.138,18.138,0,0,0,1.63-6.743,1.331,1.331,0,0,0-2.66-.119A15.492,15.492,0,0,1,46.578,37.838a38.611,38.611,0,0,0-10.717,0A15.5,15.5,0,1,1,55.078,16.313a1.331,1.331,0,0,0,2.378-1.2,18.174,18.174,0,1,0-25.88,23.577h0q-1.242.323-2.462.728a1.332,1.332,0,0,0,.844,2.526,35.731,35.731,0,0,1,22.52,0,1.332,1.332,0,0,0,.844-2.526q-1.219-.407-2.462-.728h0a18.155,18.155,0,0,0,5.527-5.4c.367.071.731.146,1.09.224q.717.156,1.426.332c-.015.058-.03.116-.042.174a15.879,15.879,0,0,0,.125,8.1,9.639,9.639,0,0,0,3.531,4.963,11.2,11.2,0,0,0,6.554,2.08,8.786,8.786,0,0,0,4.247-.982c1.252-.709,2.3-2.2,3.13-4.445q.575.672,1.09,1.376a21.5,21.5,0,0,1,3.153,6.236,4.234,4.234,0,0,0,2.74,2.762l3.747,1.2a2.358,2.358,0,0,1,1.644,2.253v6.214a2.358,2.358,0,0,1-1.644,2.253l-6.038,1.934a4.114,4.114,0,0,0-2.3,1.869A26.538,26.538,0,0,1,67.756,79.915a2.086,2.086,0,0,0-1.095,1.471L64.728,91.625a.6.6,0,0,1-.588.487H57.853a.6.6,0,0,1-.588-.487l-1.071-5.659a2.092,2.092,0,0,0-2.379-1.683,55.656,55.656,0,0,1-8.294.617,53.084,53.084,0,0,1-6.1-.345,2.109,2.109,0,0,0-2.307,1.693l-1.018,5.377a.6.6,0,0,1-.588.487H29.219a.6.6,0,0,1-.588-.491l-1.862-9.671A2.09,2.09,0,0,0,25.694,80.5c-8.5-4.535-12.986-12.112-12.986-21.911a25.6,25.6,0,0,1,3.219-13.013,23.23,23.23,0,0,1,8.654-8.448,1.332,1.332,0,0,0-1.333-2.305,25.343,25.343,0,0,0-12.86,18.931h0c-.128-.012-.256-.023-.384-.036a6.629,6.629,0,0,0-.488-2.657,5.454,5.454,0,0,0-4.043-3.531,3.68,3.68,0,0,0-3.465,1.543,3.507,3.507,0,0,0-.666,3.826c.671,1.382,2.394,2.359,5.255,2.974q-.118.177-.26.355a6.533,6.533,0,0,1-4.974,2.633A1.4,1.4,0,0,0,0,60.246v.006a1.394,1.394,0,0,0,1.336,1.391q.143.007.3.007c1.636,0,4.262-.6,6.785-3.767a7.593,7.593,0,0,0,.972-1.57q.377.043.724.074h0c-.045.722-.071,1.454-.071,2.2a27.438,27.438,0,0,0,3.928,14.693A26.918,26.918,0,0,0,24.2,82.718l1.81,9.4a3.264,3.264,0,0,0,3.2,2.655h6.287a3.264,3.264,0,0,0,3.2-2.655l.92-4.862a56.107,56.107,0,0,0,5.89.305,58.494,58.494,0,0,0,8.158-.569l.97,5.126a3.264,3.264,0,0,0,3.2,2.654H64.14a3.264,3.264,0,0,0,3.2-2.655l1.883-9.969A29.029,29.029,0,0,0,81.146,71.165a1.455,1.455,0,0,1,.809-.667l6.037-1.934a5.013,5.013,0,0,0,3.494-4.789V57.562A5.012,5.012,0,0,0,87.993,52.773ZM75.277,36.949c-.512,4.382-1.887,8.131-3.268,8.914a8.147,8.147,0,0,1-7.916-.93c-2.725-1.993-3.631-5.577-2.623-10.365h0a1.606,1.606,0,0,1,.914-1.112c6.666-3.051,10.509-4.049,11.936-4.049a1.393,1.393,0,0,1,.483.065C75.231,29.928,75.794,32.527,75.277,36.949ZM3.738,51.732c-.138-.284.187-.784.394-1.056a1.062,1.062,0,0,1,.855-.52,1,1,0,0,1,.134.009A2.9,2.9,0,0,1,7.046,52.05a4.043,4.043,0,0,1,.279,1.256C5.481,52.924,4.049,52.373,3.738,51.732Z" transform="translate(0 -5.115)"/>
          </g>
        </g>
        <g id="Group_529" data-name="Group 529" transform="translate(36.246 13.664)">
          <g id="Group_528" data-name="Group 528">
            <path id="Path_2363" data-name="Path 2363" class="cls-4" d="M209.112,61.057V56.292c1.643.117,2.253.868,2.817.868.7,0,1.033-.892,1.033-1.338,0-1.15-2.253-1.643-3.849-1.69V53.5c0-.282-.352-.54-.7-.54a.619.619,0,0,0-.681.54v.681c-2.23.235-4.46,1.408-4.46,4.366,0,3,2.347,3.849,4.46,4.6v5.516c-2.394-.188-3.028-1.831-3.8-1.831-.587,0-1.08.775-1.08,1.338,0,1.15,1.972,2.723,4.882,2.77h0v.728a.619.619,0,0,0,.681.54c.352,0,.7-.258.7-.54v-.8a4.547,4.547,0,0,0,4.272-4.835C213.384,62.841,211.154,61.808,209.112,61.057Zm-1.244-.446c-1.244-.469-2.253-.962-2.253-2.3,0-1.221.939-1.807,2.253-1.972Zm1.1,8V63.662c1.15.493,2.065,1.15,2.065,2.629A2.232,2.232,0,0,1,208.971,68.615Z" transform="translate(-202.845 -52.959)"/>
          </g>
        </g>
      </g>
      <g id="alarm-clock" transform="translate(550.92 2504.804)">
        <path id="Path_2364" data-name="Path 2364" class="cls-4" d="M31.1,20.774H28.231a1.6,1.6,0,0,0-1.147-1.147V15.554a.4.4,0,1,0-.8,0v4.072a1.6,1.6,0,1,0,1.95,1.95H31.1a.4.4,0,1,0,0-.8Zm-4.416,1.2a.8.8,0,1,1,.8-.8A.8.8,0,0,1,26.682,21.978Z" transform="translate(-14.961 -9.069)"/>
        <path id="Path_2365" data-name="Path 2365" class="cls-4" d="M20.2,3.92l1.644,1.644a.4.4,0,0,0,.568,0A3.261,3.261,0,0,0,17.8.954a.4.4,0,0,0,0,.568L19.63,3.353l-.682.682a10.814,10.814,0,0,0-14.452,0l-.683-.682L5.644,1.522a.4.4,0,0,0,0-.568A3.261,3.261,0,0,0,1.033,5.565a.4.4,0,0,0,.568,0L3.246,3.92l.673.673A10.822,10.822,0,0,0,6.229,21.447L5.014,22.663a.4.4,0,1,0,.568.568l1.385-1.385a10.815,10.815,0,0,0,9.51,0l1.385,1.385a.4.4,0,0,0,.568-.568l-1.216-1.216A10.822,10.822,0,0,0,19.524,4.593Zm1.644-2.4A2.462,2.462,0,0,1,22.1,4.69L18.673,1.261A2.461,2.461,0,0,1,21.842,1.522ZM1.341,4.69A2.458,2.458,0,0,1,4.77,1.261ZM11.721,22.143A10.037,10.037,0,1,1,21.759,12.106,10.049,10.049,0,0,1,11.721,22.143Z"/>
        <path id="Path_2366" data-name="Path 2366" class="cls-4" d="M23.293,11.752A9.3,9.3,0,0,0,19.946,8.4c-.006,0-.01-.011-.017-.015s-.015,0-.022-.008a9.2,9.2,0,0,0-9.19,0,.2.2,0,0,0-.022.008c-.007,0-.01.011-.017.015a9.3,9.3,0,0,0-3.348,3.348c0,.007-.011.01-.015.017a.2.2,0,0,0-.007.022,9.2,9.2,0,0,0,0,9.19c0,.007,0,.015.007.022a.332.332,0,0,0,.02.026,9.3,9.3,0,0,0,3.342,3.338c.006,0,.01.011.017.015s.022.008.032.013a9.2,9.2,0,0,0,9.17,0c.01,0,.022-.007.032-.013s.01-.011.017-.015a9.3,9.3,0,0,0,3.342-3.338.332.332,0,0,0,.02-.026.2.2,0,0,0,.007-.022,9.2,9.2,0,0,0,0-9.19c0-.007,0-.015-.007-.022S23.3,11.759,23.293,11.752ZM19.865,23.471l-.192-.332a.4.4,0,0,0-.7.4l.192.333a8.367,8.367,0,0,1-3.458.923v-.381a.4.4,0,0,0-.8,0V24.8a8.361,8.361,0,0,1-3.458-.923l.192-.333a.4.4,0,1,0-.7-.4l-.192.332a8.482,8.482,0,0,1-2.531-2.531l.332-.192a.4.4,0,1,0-.4-.7l-.333.192A8.369,8.369,0,0,1,6.9,16.788h.381a.4.4,0,1,0,0-.8H6.9a8.365,8.365,0,0,1,.923-3.458l.333.192a.4.4,0,0,0,.4-.7l-.332-.192A8.487,8.487,0,0,1,10.757,9.3l.192.332a.4.4,0,0,0,.7-.4L11.451,8.9a8.367,8.367,0,0,1,3.458-.923v.381a.4.4,0,0,0,.8,0V7.976a8.361,8.361,0,0,1,3.458.923l-.192.333a.4.4,0,1,0,.7.4l.192-.332a8.483,8.483,0,0,1,2.531,2.531l-.332.192a.4.4,0,1,0,.4.7l.333-.192a8.369,8.369,0,0,1,.923,3.458H23.34a.4.4,0,1,0,0,.8h.381a8.365,8.365,0,0,1-.923,3.458l-.333-.192a.4.4,0,0,0-.4.7l.332.192A8.469,8.469,0,0,1,19.865,23.471Z" transform="translate(-3.589 -4.28)"/>
      </g>
      <g id="XMLID_2603_" transform="translate(842 2538.333)">
        <g id="XMLID_636_">
          <path id="XMLID_1699_" class="cls-4" d="M7.259,14.518A7.259,7.259,0,1,0,0,7.259,7.268,7.268,0,0,0,7.259,14.518Zm0-12.95a5.69,5.69,0,1,1-5.69,5.69A5.7,5.7,0,0,1,7.259,1.569Z"/>
          <path id="XMLID_1701_" class="cls-4" d="M84.016,40.316a.784.784,0,0,0,1.108-1.111l-.942-.939V34.784a.784.784,0,1,0-1.569,0v3.808a.785.785,0,0,0,.231.556Z" transform="translate(-76.133 -31.333)"/>
          <path id="XMLID_1706_" class="cls-4" d="M39.377,152.23H34.549a4.632,4.632,0,0,0-2.8-1.861l-3.449-.754a5.293,5.293,0,0,0,2.341-4.392v-3a5.294,5.294,0,1,0-10.587,0v3a5.293,5.293,0,0,0,2.336,4.388l-3.446.756c-.147.032-.292.072-.434.118v-6.491a.784.784,0,0,0-.784-.784H12.394a.784.784,0,0,0,0,1.569h4.55V155.76H11.609v-3.922a2.353,2.353,0,0,0-4.706,0v3.922H1.569V144.779h4.55a.784.784,0,0,0,0-1.569H.784a.784.784,0,0,0-.784.784v12.55a.784.784,0,0,0,.784.784H6.9v1.49H6.824a2.434,2.434,0,0,0-2.432,2.432v.392H.784a.784.784,0,0,0-.784.784v3.138a.784.784,0,0,0,.784.784H39.377a.784.784,0,0,0,.784-.784v-12.55A.784.784,0,0,0,39.377,152.23Zm-4.771,9.413H30.121v-1.569h8.472v1.569Zm3.986-3.138H30.121v-1.569h8.472Zm0-3.138H30.121V153.8h8.472ZM21.625,142.223a3.725,3.725,0,0,1,7.438-.292L27.24,140.86a.784.784,0,0,0-1,.172,4.16,4.16,0,0,1-3.2,1.492h-1.42v-.3Zm0,1.87h1.42a5.723,5.723,0,0,0,3.938-1.564l2.091,1.229v1.466a3.725,3.725,0,0,1-7.45,0v-1.131Zm4.954,6.279-1.241,3.318L24.1,150.366a5.267,5.267,0,0,0,2.483.006Zm-8.851,6.957a.784.784,0,0,0,.784-.784v-4.363a3.051,3.051,0,0,1,.77-.281l3.431-.753L24.6,156.2a.784.784,0,0,0,1.469,0l1.891-5.056,3.452.755a3.053,3.053,0,0,1,.855.329H29.337a.784.784,0,0,0-.784.784v8.628H16.879v-4.314h.849Zm-2.418,0v4.314H14.119v-.392a2.434,2.434,0,0,0-2.432-2.432h-.078v-1.49Zm-6.838-5.491a.784.784,0,0,1,1.569,0v6.981H8.472Zm-2.51,9.413a.864.864,0,0,1,.863-.863h4.863a.864.864,0,0,1,.863.863v.392H5.961Zm32.631,3.53H1.569v-1.569H38.592Z" transform="translate(0 -126.188)"/>
          <path id="XMLID_1768_" class="cls-4" d="M108.23,217.23a.784.784,0,1,0,.555-.23A.79.79,0,0,0,108.23,217.23Z" transform="translate(-99.528 -199.979)"/>
        </g>
      </g>
      <g id="wrench" transform="translate(754.248 2431.833)">
        <g id="Group_531" data-name="Group 531" transform="translate(18.118 0)">
          <g id="Group_530" data-name="Group 530" transform="translate(0)">
            <path id="Path_2367" data-name="Path 2367" class="cls-4" d="M257.492,3.2l-2.113-2.113A3.861,3.861,0,0,0,250.2.91l-3.714,3.219a.6.6,0,0,0-.121.144L242.752,10.3l-2.321.774a.6.6,0,0,0-.233.988l6.326,6.326a.6.6,0,0,0,.988-.233l.774-2.322,6.111-3.69a.6.6,0,0,0,.143-.121l3.143-3.642A3.865,3.865,0,0,0,257.492,3.2Zm-.712,4.393L253.7,11.165l-6.218,3.754a.6.6,0,0,0-.258.322l-.538,1.615-1.426-1.426h0l-2.109-2.109h0L241.723,11.9l1.615-.538a.6.6,0,0,0,.323-.259l3.68-6.13,3.642-3.157a2.649,2.649,0,0,1,3.552.121l2.113,2.113A2.652,2.652,0,0,1,256.78,7.595Z" transform="translate(-240.023 0)"/>
          </g>
        </g>
        <g id="Group_533" data-name="Group 533" transform="translate(1.752 1.101)">
          <g id="Group_532" data-name="Group 532" transform="translate(0)">
            <path id="Path_2368" data-name="Path 2368" class="cls-4" d="M33.9,38.89a6.564,6.564,0,0,0-6.664-1.6L14.556,24.611a6.564,6.564,0,0,0-8.64-8.134.6.6,0,0,0-.2.977l3.794,3.794L6.976,23.779,3.181,19.984a.6.6,0,0,0-.977.2,6.564,6.564,0,0,0,8.134,8.64l4.74,4.74-5.9,5.9-3.754,2.1a.6.6,0,0,0-.242.254L3.492,45.2a.6.6,0,0,0,.112.689L5.712,48a.6.6,0,0,0,.689.112L9.775,46.42a.6.6,0,0,0,.254-.242l2.1-3.754,5.9-5.9L23.015,41.5a6.563,6.563,0,0,0,8.64,8.134.6.6,0,0,0,.2-.977l-3.794-3.794,2.531-2.531,3.794,3.794a.6.6,0,0,0,.977-.2A6.564,6.564,0,0,0,33.9,38.89ZM11.225,41.638a.6.6,0,0,0-.1.131l-2.05,3.666L6.252,46.848l-1.5-1.5,1.413-2.825,3.666-2.05a.6.6,0,0,0,.131-.1l5.961-5.961,1.265,1.265Zm23.3,2.939-3.507-3.507a.6.6,0,0,0-.844,0L26.8,44.445a.6.6,0,0,0,0,.844L30.305,48.8a5.371,5.371,0,0,1-6.047-7.228.6.6,0,0,0-.134-.639l-13.21-13.21a.6.6,0,0,0-.639-.134,5.371,5.371,0,0,1-7.228-6.047l3.507,3.507a.6.6,0,0,0,.844,0l3.374-3.374a.6.6,0,0,0,0-.844L7.265,17.32a5.371,5.371,0,0,1,6.047,7.228.6.6,0,0,0,.134.639L26.655,38.4a.6.6,0,0,0,.639.134,5.371,5.371,0,0,1,7.228,6.047Z" transform="translate(-1.752 -16.024)"/>
          </g>
        </g>
      </g>
      <g id="project-management" transform="translate(805 2448.611)">
        <g id="Group_535" data-name="Group 535" transform="translate(0 0.159)">
          <g id="Group_534" data-name="Group 534">
            <path id="Path_2369" data-name="Path 2369" class="cls-4" d="M22,7.823h0l-1.441-.206a.37.37,0,0,1-.17-.663l1.164-.873a.37.37,0,0,0,.074-.519L20.3,3.784a.37.37,0,0,0-.519-.074l-1.164.873a.37.37,0,0,1-.59-.349l.206-1.441a.37.37,0,0,0-.314-.419h0l-2.2-.314a.37.37,0,0,0-.419.314h0l-.206,1.441a.37.37,0,0,1-.663.17l-.873-1.164a.37.37,0,0,0-.519-.074l-1.113.835a7.166,7.166,0,0,0-1.515,0,7.037,7.037,0,0,0-6.2,6.31c-.01.1-.014.209-.019.313H4.075a.37.37,0,0,0-.362.3l-.256,1.217-1.025-.707a.37.37,0,0,0-.472.043L.848,12.166a.37.37,0,0,0-.043.472l.7,1.023-1.217.256A.37.37,0,0,0,0,14.279v1.482a.37.37,0,0,0,.294.363l1.217.256L.808,17.4a.37.37,0,0,0,.043.472l1.111,1.111a.37.37,0,0,0,.472.043l1.023-.706.256,1.217a.37.37,0,0,0,.362.3H5.557a.37.37,0,0,0,.363-.294l.256-1.217,1.023.7a.37.37,0,0,0,.472-.043l.575-.577v1.056a1.477,1.477,0,0,0,.741,1.276V22.8a1.482,1.482,0,0,0,1.482,1.482H11.95A1.482,1.482,0,0,0,13.431,22.8V20.74a1.477,1.477,0,0,0,.741-1.276V18a1.815,1.815,0,0,1,.857-1.512,7.108,7.108,0,0,0,.872-.667l-.494-.552a6.305,6.305,0,0,1-.78.6A2.551,2.551,0,0,0,13.431,18v1.466a.741.741,0,0,1-.741.741H9.728a.741.741,0,0,1-.741-.741v-1.5a2.492,2.492,0,0,0-1.175-2.09A6.278,6.278,0,0,1,11.129,4.285a.4.4,0,0,0-.014.04.37.37,0,0,0,.071.274l.873,1.164a.363.363,0,0,1,.022.411.368.368,0,0,1-.37.178L10.27,6.147a.37.37,0,0,0-.419.314h0l-.314,2.2a.37.37,0,0,0,.314.419h0l1.441.206a.37.37,0,0,1,.17.663l-1.164.873a.37.37,0,0,0-.074.519l1.333,1.778a.37.37,0,0,0,.519.074l1.164-.873a.37.37,0,0,1,.589.349l-.206,1.441a.37.37,0,0,0,.314.419h0l2.2.314a.411.411,0,0,0,.052,0,.37.37,0,0,0,.367-.318l.206-1.441a.37.37,0,0,1,.663-.17l.873,1.164a.37.37,0,0,0,.519.074l1.778-1.333a.37.37,0,0,0,.074-.519L19.8,11.14a.364.364,0,0,1-.022-.411.36.36,0,0,1,.37-.178l1.441.206A.37.37,0,0,0,22,10.442h0l.314-2.2A.37.37,0,0,0,22,7.823ZM9.728,20.946h2.963v.741H9.728Zm0,1.482h2.963v.37a.741.741,0,0,1-.741.741H10.468a.741.741,0,0,1-.741-.741ZM6.779,16.04a7,7,0,0,0,.633.461,1.808,1.808,0,0,1,.746.948l-.794.793-.769-.53a.741.741,0,0,0-1.145.457l-.194.925h-.88l-.194-.923a.741.741,0,0,0-1.145-.457l-.77.529-.675-.673.53-.769a.741.741,0,0,0-.457-1.146L.741,15.46v-.88l.923-.194a.741.741,0,0,0,.457-1.143l-.53-.771.675-.673.77.53a.741.741,0,0,0,1.145-.458l.065-.308a7.053,7.053,0,0,0,.294,1.256,2.222,2.222,0,1,0,2.24,3.222ZM6.2,15.519a1.479,1.479,0,1,1-1.389-1.98h.014A7.015,7.015,0,0,0,6.2,15.519ZM21.32,9.97l-1.074-.153A1.111,1.111,0,0,0,19.2,11.583l.651.868-1.185.889-.651-.867a1.111,1.111,0,0,0-1.989.509l-.15,1.076-1.466-.21.153-1.074A1.111,1.111,0,0,0,12.8,11.727l-.868.651-.889-1.185.867-.651A1.111,1.111,0,0,0,11.4,8.553L10.323,8.4l.21-1.466,1.074.153a1.111,1.111,0,0,0,1.046-1.767L12,4.451l1.185-.889.651.868a1.111,1.111,0,0,0,1.989-.509l.153-1.074,1.466.209L17.292,4.13a1.111,1.111,0,0,0,1.767,1.046l.868-.651.889,1.185-.868.651a1.111,1.111,0,0,0,.509,1.989l1.074.153Z" transform="translate(0 -2.057)"/>
          </g>
        </g>
        <g id="Group_537" data-name="Group 537" transform="translate(12.963 3.59)">
          <g id="Group_536" data-name="Group 536">
            <path id="Path_2370" data-name="Path 2370" class="cls-4" d="M282.963,76.171a2.963,2.963,0,1,0,2.963,2.963A2.963,2.963,0,0,0,282.963,76.171Zm0,5.185a2.222,2.222,0,1,1,2.222-2.222A2.222,2.222,0,0,1,282.963,81.356Z" transform="translate(-280 -76.171)"/>
          </g>
        </g>
        <g id="Group_539" data-name="Group 539" transform="translate(10.839 16.456)">
          <g id="Group_538" data-name="Group 538">
            <rect id="Rectangle_2245" data-name="Rectangle 2245" class="cls-4" width="0.741" height="1.111"/>
          </g>
        </g>
        <g id="Group_541" data-name="Group 541" transform="translate(6.021 4.29)">
          <g id="Group_540" data-name="Group 540">
            <path id="Path_2371" data-name="Path 2371" class="cls-4" d="M133.613,99.819a4.445,4.445,0,0,1-.75-7.9l-.4-.627a5.185,5.185,0,0,0,.877,9.217,2.365,2.365,0,0,1,1.519,2.207h.741A3.1,3.1,0,0,0,133.613,99.819Z" transform="translate(-130.044 -91.291)"/>
          </g>
        </g>
        <g id="Group_543" data-name="Group 543" transform="translate(18.246 13.863)">
          <g id="Group_542" data-name="Group 542">
            <rect id="Rectangle_2246" data-name="Rectangle 2246" class="cls-4" width="2.593" height="0.741"/>
          </g>
        </g>
        <g id="Group_545" data-name="Group 545" transform="translate(17.639 15.8)">
          <g id="Group_544" data-name="Group 544" transform="translate(0 0)">
            <rect id="Rectangle_2247" data-name="Rectangle 2247" class="cls-4" width="0.741" height="2.893" transform="matrix(0.64, -0.768, 0.768, 0.64, 0, 0.569)"/>
          </g>
        </g>
        <g id="Group_547" data-name="Group 547" transform="translate(16.024 16.826)">
          <g id="Group_546" data-name="Group 546">
            <rect id="Rectangle_2248" data-name="Rectangle 2248" class="cls-4" width="0.741" height="2.593"/>
          </g>
        </g>
        <g id="Group_549" data-name="Group 549" transform="translate(0.378 5.725)">
          <g id="Group_548" data-name="Group 548" transform="translate(0 0)">
            <rect id="Rectangle_2249" data-name="Rectangle 2249" class="cls-4" width="3.054" height="0.74" transform="translate(0 0.741) rotate(-14.035)"/>
          </g>
        </g>
        <g id="Group_551" data-name="Group 551" transform="translate(0.993 2.08)">
          <g id="Group_550" data-name="Group 550" transform="translate(0 0)">
            <rect id="Rectangle_2250" data-name="Rectangle 2250" class="cls-4" width="0.74" height="3.186" transform="matrix(0.581, -0.814, 0.814, 0.581, 0, 0.602)"/>
          </g>
        </g>
        <g id="Group_553" data-name="Group 553" transform="translate(4.167 0.067)">
          <g id="Group_552" data-name="Group 552" transform="translate(0 0)">
            <rect id="Rectangle_2251" data-name="Rectangle 2251" class="cls-4" width="0.741" height="3.058" transform="matrix(0.969, -0.248, 0.248, 0.969, 0, 0.183)"/>
          </g>
        </g>
      </g>
      <g id="project-management-2" data-name="project-management" transform="translate(461 2553.78)">
        <g id="Group_535-2" data-name="Group 535" transform="translate(0 0.175)">
          <g id="Group_534-2" data-name="Group 534">
            <path id="Path_2369-2" data-name="Path 2369" class="cls-4" d="M25.781,8.813h0l-1.688-.241a.434.434,0,0,1-.2-.777l1.364-1.023a.434.434,0,0,0,.087-.608L23.782,4.08a.434.434,0,0,0-.608-.087L21.81,5.017a.434.434,0,0,1-.692-.408L21.36,2.92a.434.434,0,0,0-.368-.491h0l-2.576-.368a.434.434,0,0,0-.491.368h0l-.241,1.688a.434.434,0,0,1-.777.2L15.883,2.952a.434.434,0,0,0-.608-.087l-1.3.979a8.4,8.4,0,0,0-1.775,0,8.245,8.245,0,0,0-7.27,7.393c-.012.123-.016.245-.022.367h-.13a.434.434,0,0,0-.424.347l-.3,1.426-1.2-.828a.434.434,0,0,0-.553.05l-1.3,1.3a.434.434,0,0,0-.05.553l.825,1.2-1.426.3A.434.434,0,0,0,0,16.378v1.736a.434.434,0,0,0,.345.425l1.426.3-.825,1.2A.434.434,0,0,0,1,20.59l1.3,1.3a.434.434,0,0,0,.553.05l1.2-.827.3,1.426a.434.434,0,0,0,.424.347H6.511a.434.434,0,0,0,.425-.345l.3-1.426,1.2.825a.434.434,0,0,0,.553-.05l.674-.676v1.237a1.73,1.73,0,0,0,.868,1.495v2.411a1.736,1.736,0,0,0,1.736,1.736H14a1.736,1.736,0,0,0,1.736-1.736V23.948a1.73,1.73,0,0,0,.868-1.495V20.736a2.126,2.126,0,0,1,1-1.771,8.328,8.328,0,0,0,1.022-.781l-.579-.647a7.387,7.387,0,0,1-.914.7,2.989,2.989,0,0,0-1.4,2.5v1.718a.868.868,0,0,1-.868.868H11.4a.868.868,0,0,1-.868-.868V20.7A2.92,2.92,0,0,0,9.153,18.25,7.355,7.355,0,0,1,13.04,4.667a.472.472,0,0,0-.017.047.434.434,0,0,0,.083.322L14.129,6.4a.425.425,0,0,1,.026.482.431.431,0,0,1-.434.209l-1.688-.241a.434.434,0,0,0-.491.368h0l-.368,2.577a.434.434,0,0,0,.368.491h0l1.688.241a.434.434,0,0,1,.2.777l-1.364,1.023a.434.434,0,0,0-.087.608l1.562,2.083a.434.434,0,0,0,.608.087l1.364-1.023a.434.434,0,0,1,.69.408l-.241,1.688a.434.434,0,0,0,.368.491h0l2.578.368a.481.481,0,0,0,.061,0,.434.434,0,0,0,.43-.372l.241-1.688a.434.434,0,0,1,.777-.2l1.023,1.364a.434.434,0,0,0,.608.087L24.13,14.67a.434.434,0,0,0,.087-.608L23.194,12.7a.427.427,0,0,1-.026-.482.421.421,0,0,1,.434-.208l1.688.241a.434.434,0,0,0,.491-.368h0L26.149,9.3A.434.434,0,0,0,25.781,8.813ZM11.4,24.189h3.472v.868H11.4Zm0,1.736h3.472v.434a.868.868,0,0,1-.868.868H12.266a.868.868,0,0,1-.868-.868ZM7.943,18.441a8.2,8.2,0,0,0,.742.54,2.118,2.118,0,0,1,.874,1.111l-.931.929-.9-.621a.868.868,0,0,0-1.342.536l-.227,1.084H5.126L4.9,20.937A.868.868,0,0,0,3.557,20.4l-.9.62-.791-.789.621-.9a.868.868,0,0,0-.536-1.342L.868,17.761V16.73L1.95,16.5a.868.868,0,0,0,.536-1.34l-.621-.9.791-.789.9.621A.868.868,0,0,0,4.9,13.555l.076-.361a8.264,8.264,0,0,0,.344,1.472,2.6,2.6,0,1,0,2.624,3.775Zm-.674-.611a1.733,1.733,0,1,1-1.627-2.32h.016A8.219,8.219,0,0,0,7.269,17.83Zm17.712-6.5-1.258-.18a1.3,1.3,0,0,0-1.226,2.07l.762,1.017L21.87,15.277l-.763-1.016a1.3,1.3,0,0,0-2.33.6l-.176,1.26-1.718-.246.18-1.258a1.3,1.3,0,0,0-2.07-1.226l-1.017.762-1.042-1.389L13.951,12a1.3,1.3,0,0,0-.6-2.33L12.1,9.488l.246-1.718,1.258.18a1.3,1.3,0,0,0,1.226-2.07l-.765-1.018L15.45,3.82l.763,1.017a1.3,1.3,0,0,0,2.33-.6l.18-1.258,1.718.245-.18,1.258a1.3,1.3,0,0,0,2.07,1.226l1.017-.762,1.042,1.389L23.372,7.1a1.3,1.3,0,0,0,.6,2.33l1.258.18Z" transform="translate(0 -2.057)"/>
          </g>
        </g>
        <g id="Group_537-2" data-name="Group 537" transform="translate(15.189 4.195)">
          <g id="Group_536-2" data-name="Group 536">
            <path id="Path_2370-2" data-name="Path 2370" class="cls-4" d="M283.472,76.171a3.472,3.472,0,1,0,3.472,3.472A3.472,3.472,0,0,0,283.472,76.171Zm0,6.076a2.6,2.6,0,1,1,2.6-2.6A2.6,2.6,0,0,1,283.472,82.246Z" transform="translate(-280 -76.171)"/>
          </g>
        </g>
        <g id="Group_539-2" data-name="Group 539" transform="translate(12.7 19.269)">
          <g id="Group_538-2" data-name="Group 538">
            <rect id="Rectangle_2245-2" data-name="Rectangle 2245" class="cls-4" width="0.868" height="1.302"/>
          </g>
        </g>
        <g id="Group_541-2" data-name="Group 541" transform="translate(7.054 5.015)">
          <g id="Group_540-2" data-name="Group 540">
            <path id="Path_2371-2" data-name="Path 2371" class="cls-4" d="M134.225,101.283a5.208,5.208,0,0,1-.879-9.258l-.464-.734a6.076,6.076,0,0,0,1.028,10.8,2.77,2.77,0,0,1,1.779,2.586h.868A3.631,3.631,0,0,0,134.225,101.283Z" transform="translate(-130.044 -91.291)"/>
          </g>
        </g>
        <g id="Group_543-2" data-name="Group 543" transform="translate(21.379 16.231)">
          <g id="Group_542-2" data-name="Group 542">
            <rect id="Rectangle_2246-2" data-name="Rectangle 2246" class="cls-4" width="3.038" height="0.868"/>
          </g>
        </g>
        <g id="Group_545-2" data-name="Group 545" transform="translate(20.667 18.502)">
          <g id="Group_544-2" data-name="Group 544" transform="translate(0 0)">
            <rect id="Rectangle_2247-2" data-name="Rectangle 2247" class="cls-4" width="0.868" height="3.389" transform="matrix(0.64, -0.768, 0.768, 0.64, 0, 0.667)"/>
          </g>
        </g>
        <g id="Group_547-2" data-name="Group 547" transform="translate(18.775 19.703)">
          <g id="Group_546-2" data-name="Group 546">
            <rect id="Rectangle_2248-2" data-name="Rectangle 2248" class="cls-4" width="0.868" height="3.038"/>
          </g>
        </g>
        <g id="Group_549-2" data-name="Group 549" transform="translate(0.443 6.697)">
          <g id="Group_548-2" data-name="Group 548" transform="translate(0 0)">
            <rect id="Rectangle_2249-2" data-name="Rectangle 2249" class="cls-4" width="3.578" height="0.867" transform="translate(0 0.868) rotate(-14.035)"/>
          </g>
        </g>
        <g id="Group_551-2" data-name="Group 551" transform="translate(1.164 2.426)">
          <g id="Group_550-2" data-name="Group 550" transform="translate(0 0)">
            <rect id="Rectangle_2250-2" data-name="Rectangle 2250" class="cls-4" width="0.867" height="3.733" transform="matrix(0.581, -0.814, 0.814, 0.581, 0, 0.706)"/>
          </g>
        </g>
        <g id="Group_553-2" data-name="Group 553" transform="translate(4.882 0.067)">
          <g id="Group_552-2" data-name="Group 552" transform="translate(0 0)">
            <rect id="Rectangle_2251-2" data-name="Rectangle 2251" class="cls-4" width="0.868" height="3.583" transform="matrix(0.969, -0.248, 0.248, 0.969, 0, 0.215)"/>
          </g>
        </g>
      </g>
      <g id="start-up" transform="translate(912.999 2572.434)">
        <path id="Path_2372" data-name="Path 2372" class="cls-5" d="M73.232,284.176a.779.779,0,0,0,.145.9l.19.19c.55-.652,1.191-1.359,1.968-2.136.055-.055.111-.081.167-.132l-1.224-1.225C73.766,283.061,73.351,283.94,73.232,284.176Zm0,0" transform="translate(-69.353 -267.152)"/>
        <path id="Path_2373" data-name="Path 2373" class="cls-5" d="M165.023,389.729c-.779.779-1.484,1.421-2.132,1.971l.258.258a.778.778,0,0,0,.906.142c.4-.208,1.037-.506,2.383-1.256l-1.282-1.282C165.1,389.617,165.078,389.674,165.023,389.729Zm0,0" transform="translate(-154.438 -369.349)"/>
        <path id="Path_2374" data-name="Path 2374" class="cls-5" d="M66.665,311.542c-.562-.562-2.144-.058-2.887.685a20.7,20.7,0,0,0-4.112,5.288.778.778,0,0,0,1.041,1.039,20.848,20.848,0,0,0,5.273-4.126c.817-.817,1.22-2.351.686-2.885Zm0,0" transform="translate(-56.496 -295.149)"/>
        <path id="Path_2375" data-name="Path 2375" class="cls-5" d="M2.43,165.648l-2.2,2.2a.778.778,0,0,0,.752,1.3,6.4,6.4,0,0,1,2.941-.273,41.762,41.762,0,0,1,3.222-4.915c-.66-.423-2.841-.187-4.714,1.685Zm0,0" transform="translate(0 -155.285)"/>
        <path id="Path_2376" data-name="Path 2376" class="cls-5" d="M246.069,383.44a.777.777,0,0,0,.9-.144l2.2-2.2c1.7-1.7,2-3.9,1.618-4.6a44.417,44.417,0,0,1-4.919,3.2,9.538,9.538,0,0,1-.22,2.941A.777.777,0,0,0,246.069,383.44Zm0,0" transform="translate(-232.895 -356.957)"/>
        <path id="Path_2377" data-name="Path 2377" class="cls-5" d="M285.326,137.992a2.335,2.335,0,1,0,3.3,0A2.338,2.338,0,0,0,285.326,137.992Zm0,0" transform="translate(-269.875 -130.183)"/>
        <path id="Path_2378" data-name="Path 2378" class="cls-5" d="M394.173.76a.777.777,0,0,0-.718-.718A15.386,15.386,0,0,0,387.773.7a6.534,6.534,0,0,0,1.936,3.8,6.513,6.513,0,0,0,3.876,1.932A16.094,16.094,0,0,0,394.173.76Zm0,0" transform="translate(-367.653 0)"/>
        <path id="Path_2379" data-name="Path 2379" class="cls-5" d="M129.361,28.357A8.176,8.176,0,0,1,127.022,24c-4.673,1.917-9.147,6.1-12.682,11.982l1.756,1.756a3.277,3.277,0,0,1,3.581.308,3.274,3.274,0,0,1,.307,3.58l1.814,1.814c4.524-2.727,9.791-7.022,12.031-12.737a8.137,8.137,0,0,1-4.467-2.342Zm-1.1,6.6a3.891,3.891,0,1,1,0-5.5A3.9,3.9,0,0,1,128.26,34.96Zm0,0" transform="translate(-108.406 -22.75)"/>
      </g>
      <g id="confetti" transform="translate(731.918 2497.055)">
        <g id="Group_555" data-name="Group 555" transform="translate(0.082 7.713)">
          <g id="Group_554" data-name="Group 554" transform="translate(0)">
            <path id="Path_2380" data-name="Path 2380" class="cls-4" d="M22.334,126.226a.544.544,0,0,0-1.023.369l.008.021c.5,1.294.532,2.284.1,2.719-.526.525-1.838.361-3.508-.438a23.261,23.261,0,0,1-6.02-4.492c-4.26-4.26-6.017-8.441-4.93-9.528a1.486,1.486,0,0,1,1.23-.287.544.544,0,0,0,.106-1.082,2.5,2.5,0,0,0-2.1.6C4.2,116.1,7.243,121.293,11.12,125.17a24.322,24.322,0,0,0,6.319,4.7,10.714,10.714,0,0,0,1.312.525l-3.864,1.465a15.393,15.393,0,0,1-9.735-11.988.544.544,0,0,0-1.075.169,16.465,16.465,0,0,0,9.34,12.375l-6.36,2.406a.534.534,0,0,0-.109-.129,7.577,7.577,0,0,1-2.806-5.266l-.252-3.056a.537.537,0,0,0-.572-.5H3.3a.544.544,0,0,0-.5.585v0l.257,3.055a8.663,8.663,0,0,0,2.877,5.729L1.4,136.967l.816-3.348a.544.544,0,1,0-1.057-.258L.1,137.712a.544.544,0,0,0,.721.638l20.122-7.614a.507.507,0,0,0,.09-.057,2.113,2.113,0,0,0,1.155-.576C22.724,129.565,23.188,128.454,22.334,126.226Z" transform="translate(-0.082 -113.468)"/>
          </g>
        </g>
        <g id="Group_557" data-name="Group 557" transform="translate(15.867 17.931)">
          <g id="Group_556" data-name="Group 556">
            <path id="Path_2381" data-name="Path 2381" class="cls-4" d="M243.892,264.918a17.908,17.908,0,0,0-9.214-.895l-1.943.326a.544.544,0,0,0,.179,1.072l1.943-.324a16.808,16.808,0,0,1,8.653.841.562.562,0,0,0,.191.032.544.544,0,0,0,.191-1.053Z" transform="translate(-232.294 -263.781)"/>
          </g>
        </g>
        <g id="Group_559" data-name="Group 559" transform="translate(16.944 10.333)">
          <g id="Group_558" data-name="Group 558">
            <path id="Path_2382" data-name="Path 2382" class="cls-4" d="M260.581,152.307a.544.544,0,0,0-.725-.257l-11.42,5.438a.544.544,0,0,0-.257.725h0a.544.544,0,0,0,.725.257h0l11.42-5.438A.544.544,0,0,0,260.581,152.307Z" transform="translate(-248.126 -151.997)"/>
          </g>
        </g>
        <g id="Group_561" data-name="Group 561" transform="translate(10.584 3.255)">
          <g id="Group_560" data-name="Group 560">
            <path id="Path_2383" data-name="Path 2383" class="cls-4" d="M157.282,48.323a.544.544,0,1,0-1.066.217l0,.019a15.212,15.212,0,0,1-.812,9.2l-.791,1.9a.544.544,0,0,0,.292.709.536.536,0,0,0,.209.042.544.544,0,0,0,.5-.334l.791-1.9A16.293,16.293,0,0,0,157.282,48.323Z" transform="translate(-154.576 -47.887)"/>
          </g>
        </g>
        <g id="Group_563" data-name="Group 563" transform="translate(28.363 19.578)">
          <g id="Group_562" data-name="Group 562">
            <path id="Path_2384" data-name="Path 2384" class="cls-4" d="M417.736,288a1.631,1.631,0,1,0,1.632,1.631A1.631,1.631,0,0,0,417.736,288Zm0,2.175a.544.544,0,1,1,.544-.544A.544.544,0,0,1,417.736,290.175Z" transform="translate(-416.105 -288)"/>
          </g>
        </g>
        <g id="Group_565" data-name="Group 565" transform="translate(15.311 4.351)">
          <g id="Group_564" data-name="Group 564">
            <path id="Path_2385" data-name="Path 2385" class="cls-4" d="M225.736,64a1.631,1.631,0,1,0,1.632,1.631A1.631,1.631,0,0,0,225.736,64Zm0,2.175a.544.544,0,1,1,.544-.544A.544.544,0,0,1,225.736,66.175Z" transform="translate(-224.105 -64)"/>
          </g>
        </g>
        <g id="Group_567" data-name="Group 567" transform="translate(10.96)">
          <g id="Group_566" data-name="Group 566">
            <circle id="Ellipse_3234" data-name="Ellipse 3234" class="cls-4" cx="1.088" cy="1.088" r="1.088"/>
          </g>
        </g>
        <g id="Group_569" data-name="Group 569" transform="translate(26.731 2.719)">
          <g id="Group_568" data-name="Group 568">
            <path id="Path_2386" data-name="Path 2386" class="cls-4" d="M392.649,40a.544.544,0,0,0-.544.544v.544a.544.544,0,1,0,1.088,0v-.544A.544.544,0,0,0,392.649,40Z" transform="translate(-392.105 -40)"/>
          </g>
        </g>
        <g id="Group_571" data-name="Group 571" transform="translate(26.731)">
          <g id="Group_570" data-name="Group 570">
            <path id="Path_2387" data-name="Path 2387" class="cls-4" d="M392.649,0a.544.544,0,0,0-.544.544v.544a.544.544,0,1,0,1.088,0V.544A.544.544,0,0,0,392.649,0Z" transform="translate(-392.105)"/>
          </g>
        </g>
        <g id="Group_573" data-name="Group 573" transform="translate(27.819 1.631)">
          <g id="Group_572" data-name="Group 572">
            <path id="Path_2388" data-name="Path 2388" class="cls-4" d="M409.193,24h-.544a.544.544,0,0,0,0,1.088h.544a.544.544,0,0,0,0-1.088Z" transform="translate(-408.105 -24)"/>
          </g>
        </g>
        <g id="Group_575" data-name="Group 575" transform="translate(25.1 1.631)">
          <g id="Group_574" data-name="Group 574">
            <path id="Path_2389" data-name="Path 2389" class="cls-4" d="M369.193,24h-.544a.544.544,0,0,0,0,1.088h.544a.544.544,0,0,0,0-1.088Z" transform="translate(-368.105 -24)"/>
          </g>
        </g>
        <g id="Group_577" data-name="Group 577" transform="translate(20.194 5.971)">
          <g id="Group_576" data-name="Group 576">
            <path id="Path_2390" data-name="Path 2390" class="cls-4" d="M299.211,87.832h-2.731a.544.544,0,0,0-.544.544v2.731a.544.544,0,0,0,.544.544h2.731a.544.544,0,0,0,.544-.544V88.376A.544.544,0,0,0,299.211,87.832Zm-.544,2.731h-1.643V88.92h1.643Z" transform="translate(-295.937 -87.832)"/>
          </g>
        </g>
        <g id="Group_579" data-name="Group 579" transform="translate(13.136 10.34)">
          <g id="Group_578" data-name="Group 578">
            <path id="Path_2391" data-name="Path 2391" class="cls-4" d="M198.478,152.277a.544.544,0,0,0-.753-.039l-5.438,4.894a.544.544,0,1,0,.728.808l5.438-4.894A.544.544,0,0,0,198.478,152.277Z" transform="translate(-192.107 -152.105)"/>
          </g>
        </g>
        <g id="Group_581" data-name="Group 581" transform="translate(28.906 12.508)">
          <g id="Group_580" data-name="Group 580">
            <path id="Path_2392" data-name="Path 2392" class="cls-4" d="M424.649,184a.544.544,0,0,0-.544.544v.544a.544.544,0,1,0,1.088,0v-.544A.544.544,0,0,0,424.649,184Z" transform="translate(-424.105 -184)"/>
          </g>
        </g>
        <g id="Group_583" data-name="Group 583" transform="translate(30.452 11.877)">
          <g id="Group_582" data-name="Group 582">
            <path id="Path_2393" data-name="Path 2393" class="cls-4" d="M448.142,175.259l-.384-.384a.544.544,0,0,0-.769.769l.385.384a.544.544,0,0,0,.769-.769Z" transform="translate(-446.836 -174.722)"/>
          </g>
        </g>
        <g id="Group_585" data-name="Group 585" transform="translate(31.082 10.333)">
          <g id="Group_584" data-name="Group 584">
            <path id="Path_2394" data-name="Path 2394" class="cls-4" d="M457.193,152h-.544a.544.544,0,0,0,0,1.088h.544a.544.544,0,0,0,0-1.088Z" transform="translate(-456.105 -152)"/>
          </g>
        </g>
        <g id="Group_587" data-name="Group 587" transform="translate(30.445 8.417)">
          <g id="Group_586" data-name="Group 586">
            <path id="Path_2395" data-name="Path 2395" class="cls-4" d="M448.038,123.971a.544.544,0,0,0-.756,0l-.384.384a.544.544,0,0,0,.384.928h0a.544.544,0,0,0,.385-.159l.384-.384A.544.544,0,0,0,448.038,123.971Z" transform="translate(-446.739 -123.818)"/>
          </g>
        </g>
        <g id="Group_589" data-name="Group 589" transform="translate(28.906 7.614)">
          <g id="Group_588" data-name="Group 588">
            <path id="Path_2396" data-name="Path 2396" class="cls-4" d="M424.649,112a.544.544,0,0,0-.544.544v.544a.544.544,0,0,0,1.088,0v-.544A.544.544,0,0,0,424.649,112Z" transform="translate(-424.105 -112)"/>
          </g>
        </g>
        <g id="Group_591" data-name="Group 591" transform="translate(26.99 8.417)">
          <g id="Group_590" data-name="Group 590">
            <path id="Path_2397" data-name="Path 2397" class="cls-4" d="M397.222,124.355l-.385-.384a.544.544,0,0,0-.769.769l.384.384a.544.544,0,0,0,.769-.769Z" transform="translate(-395.915 -123.818)"/>
          </g>
        </g>
        <g id="Group_593" data-name="Group 593" transform="translate(0.083 0.025)">
          <g id="Group_592" data-name="Group 592">
            <path id="Path_2398" data-name="Path 2398" class="cls-4" d="M6.595,2.688a.544.544,0,0,0-.439-.37l-1.6-.232L3.848.64a.566.566,0,0,0-.976,0L2.157,2.086l-1.6.232a.544.544,0,0,0-.3.927L1.413,4.371l-.272,1.59a.544.544,0,0,0,.79.575l1.428-.753,1.428.75a.544.544,0,0,0,.789-.573L5.3,4.371,6.458,3.245A.544.544,0,0,0,6.595,2.688Zm-2.257,1.1a.544.544,0,0,0-.157.481l.135.786-.7-.371a.544.544,0,0,0-.506,0L2.4,5.058l.135-.786a.544.544,0,0,0-.154-.48l-.572-.556L2.6,3.121a.544.544,0,0,0,.41-.3l.352-.714.352.714a.544.544,0,0,0,.409.3l.789.115Z" transform="translate(-0.095 -0.361)"/>
          </g>
        </g>
        <g id="Group_595" data-name="Group 595" transform="translate(24.569 23.387)">
          <g id="Group_594" data-name="Group 594">
            <path id="Path_2399" data-name="Path 2399" class="cls-4" d="M366.6,347.9h0l-.224-.336a8.207,8.207,0,0,0-5.461-3.531.544.544,0,0,0-.18,1.072,7.115,7.115,0,0,1,4.15,2.313,3.208,3.208,0,0,0-2.175,1.494,2.175,2.175,0,1,0,3.8,2.121,3.154,3.154,0,0,0,.353-1.4,2.657,2.657,0,0,1,.119,2.824.544.544,0,1,0,.935.555l.014-.025A3.8,3.8,0,0,0,366.6,347.9Zm-1.041,2.6a1.088,1.088,0,0,1-1.9-1.051l0-.009a2.038,2.038,0,0,1,1.473-.958.553.553,0,0,1,.272.063C365.864,348.807,365.888,349.918,365.56,350.506Z" transform="translate(-360.294 -344.031)"/>
          </g>
        </g>
      </g>
      <g id="balloons" transform="translate(731.677 2480.37)">
        <path id="Path_2400" data-name="Path 2400" class="cls-4" d="M185.532,37.557a3.207,3.207,0,0,1,.6.269.311.311,0,1,0,.312-.537,3.831,3.831,0,0,0-.721-.322.311.311,0,1,0-.194.59Z" transform="translate(-145.702 -35.422)"/>
        <path id="Path_2401" data-name="Path 2401" class="cls-4" d="M224.548,66.829a6.412,6.412,0,0,1-.16,1.407.311.311,0,1,0,.606.137,7.033,7.033,0,0,0,.175-1.544,4.377,4.377,0,0,0-.787-2.684.311.311,0,1,0-.5.372A3.776,3.776,0,0,1,224.548,66.829Z" transform="translate(-182.613 -61.369)"/>
        <path id="Path_2402" data-name="Path 2402" class="cls-4" d="M76.257,178.934a5.346,5.346,0,0,1-1.846-2.7.311.311,0,1,0-.59.195,5.9,5.9,0,0,0,2.086,3.018.311.311,0,1,0,.35-.513Z" transform="translate(-38.807 -168.734)"/>
        <path id="Path_2403" data-name="Path 2403" class="cls-4" d="M48.293,5.071a5.285,5.285,0,0,0-3.73-1.428,6.123,6.123,0,0,0-.908.067,4.992,4.992,0,0,0-1.324-2.283,5.585,5.585,0,0,0-7.459,0,5.464,5.464,0,0,0-1.549,4.032,8.551,8.551,0,0,0,1.511,4.8,5.143,5.143,0,0,0,2.908,2.181.967.967,0,0,0-.114.456v.662a.311.311,0,0,0,.311.311h.333a1.923,1.923,0,0,1-.127.463,2.748,2.748,0,0,0,0,1.984,2.129,2.129,0,0,1,0,1.549,2.472,2.472,0,0,0-.185.992.311.311,0,1,0,.621,0,1.867,1.867,0,0,1,.146-.774,2.749,2.749,0,0,0,0-1.985,2.128,2.128,0,0,1,0-1.548,2.45,2.45,0,0,0,.171-.681h.367a.311.311,0,0,0,.311-.311V12.9a.967.967,0,0,0-.114-.456,3.863,3.863,0,0,0,.465-.145,6,6,0,0,0,3.78,3.786.967.967,0,0,0-.115.458V17.2a.311.311,0,0,0,.311.311h.333a1.923,1.923,0,0,1-.127.463,2.47,2.47,0,0,0-.185.992.311.311,0,0,0,.621,0,1.864,1.864,0,0,1,.146-.774,2.45,2.45,0,0,0,.171-.681h.367a.311.311,0,0,0,.311-.311V16.54a.967.967,0,0,0-.114-.456A5.143,5.143,0,0,0,48.331,13.9a8.552,8.552,0,0,0,1.511-4.8,5.464,5.464,0,0,0-1.549-4.032ZM35.343,9.9a7.916,7.916,0,0,1-1.4-4.444,4.86,4.86,0,0,1,1.361-3.587,4.967,4.967,0,0,1,6.593,0,4.86,4.86,0,0,1,1.361,3.587,7.916,7.916,0,0,1-1.4,4.444,4.122,4.122,0,0,1-3.259,2.02A4.122,4.122,0,0,1,35.343,9.9ZM38.954,12.9v.352h-.7V12.9a.352.352,0,0,1,.7,0Zm5.962,3.643v.352h-.7V16.54a.352.352,0,1,1,.7,0Zm2.907-2.993a4.122,4.122,0,0,1-3.259,2.02,3.6,3.6,0,0,1-2.423-1.055,6.946,6.946,0,0,1-1.651-2.48,4.81,4.81,0,0,0,.593-.395,5.744,5.744,0,0,0,1.98,2.72.31.31,0,1,0,.35-.513A5.32,5.32,0,0,1,41.584,11.2a6.807,6.807,0,0,0,.785-.936,8.552,8.552,0,0,0,1.511-4.8,6.926,6.926,0,0,0-.092-1.141,5.515,5.515,0,0,1,.775-.054,4.669,4.669,0,0,1,3.3,1.252A4.86,4.86,0,0,1,49.221,9.1a7.916,7.916,0,0,1-1.4,4.444Z"/>
        <path id="Path_2404" data-name="Path 2404" class="cls-4" d="M368.381,152.143a.311.311,0,0,0-.5.372,3.776,3.776,0,0,1,.663,2.312,6.412,6.412,0,0,1-.16,1.407.311.311,0,1,0,.606.137,7.035,7.035,0,0,0,.175-1.544A4.378,4.378,0,0,0,368.381,152.143Z" transform="translate(-320.65 -145.725)"/>
        <path id="Path_2405" data-name="Path 2405" class="cls-4" d="M330.448,125.29a3.829,3.829,0,0,0-.721-.322.311.311,0,1,0-.195.59,3.208,3.208,0,0,1,.6.269.311.311,0,0,0,.312-.537Z" transform="translate(-283.741 -119.779)"/>
      </g>
      <g id="present" transform="translate(858 2404.751)">
        <g id="Group_597" data-name="Group 597" transform="translate(71.37 34.249)">
          <g id="Group_596" data-name="Group 596">
            <path id="Path_2406" data-name="Path 2406" class="cls-4" d="M340.366,37.331a1.613,1.613,0,0,0-2.035-1.03l-.573.188v-.627a1.613,1.613,0,0,0-3.226,0v.627l-.573-.188a1.613,1.613,0,1,0-1.005,3.066l.594.2-.374.52a1.615,1.615,0,0,0,1.308,2.556c.94,0,1.306-.664,1.663-1.161l.353.49a1.613,1.613,0,1,0,2.618-1.885l-.374-.52.594-.2A1.613,1.613,0,0,0,340.366,37.331Z" transform="translate(-331.843 -34.249)"/>
          </g>
        </g>
        <g id="Group_599" data-name="Group 599" transform="translate(87.321 51.563)">
          <g id="Group_598" data-name="Group 598">
            <path id="Path_2407" data-name="Path 2407" class="cls-4" d="M414.53,117.836a1.613,1.613,0,0,0-2.035-1.03l-.573.188v-.627a1.613,1.613,0,1,0-3.226,0v.627l-.573-.188a1.613,1.613,0,1,0-1.005,3.065l.594.2-.374.52a1.613,1.613,0,0,0,2.618,1.885l.352-.49c.339.471.71,1.161,1.663,1.161a1.615,1.615,0,0,0,1.308-2.556l-.374-.52.594-.2A1.613,1.613,0,0,0,414.53,117.836Z" transform="translate(-406.006 -114.754)"/>
          </g>
        </g>
        <g id="Group_601" data-name="Group 601" transform="translate(72.694 49.304)">
          <g id="Group_600" data-name="Group 600">
            <circle id="Ellipse_3235" data-name="Ellipse 3235" class="cls-4" cx="1.5" cy="1.5" r="1.5" transform="translate(0.306 -0.055)"/>
          </g>
        </g>
        <g id="Group_603" data-name="Group 603" transform="translate(98.503 75.416)">
          <g id="Group_602" data-name="Group 602">
            <circle id="Ellipse_3236" data-name="Ellipse 3236" class="cls-4" cx="1.613" cy="1.613" r="1.613"/>
          </g>
        </g>
        <g id="Group_605" data-name="Group 605" transform="translate(81.727 63.069)">
          <g id="Group_604" data-name="Group 604" transform="translate(0 0)">
            <circle id="Ellipse_3237" data-name="Ellipse 3237" class="cls-4" cx="1.5" cy="1.5" r="1.5" transform="translate(0.273 0.18)"/>
          </g>
        </g>
        <g id="Group_607" data-name="Group 607" transform="translate(99.15 41.992)">
          <g id="Group_606" data-name="Group 606" transform="translate(0 0)">
            <circle id="Ellipse_3238" data-name="Ellipse 3238" class="cls-4" cx="1.5" cy="1.5" r="1.5" transform="translate(-0.15 0.257)"/>
          </g>
        </g>
        <g id="Group_609" data-name="Group 609" transform="translate(51.297 48.492)">
          <g id="Group_608" data-name="Group 608">
            <path id="Path_2408" data-name="Path 2408" class="cls-4" d="M258.175,106.715a3.208,3.208,0,0,0-2.03-1.144,1.614,1.614,0,0,0-.465,3.194l-2.878,2.8a1.613,1.613,0,0,0-.465,1.428l.68,3.962h0c-4.739-2.493-3.906-2.477-8.609,0h0s0,0,0,0l.68-3.962a1.618,1.618,0,0,0-.462-1.428l-2.88-2.8,3.979-.578a1.615,1.615,0,0,0,1.213-.882l1.781-3.6.7,1.422a1.614,1.614,0,1,0,2.895-1.428l-.7-1.421a3.229,3.229,0,0,0-5.788,0l-1.4,2.843c-3.2.465-4.2.4-5.17,1.6a3.229,3.229,0,0,0-.731,2.058c-.012,1.673.965,2.29,3.245,4.515l-.536,3.127a3.213,3.213,0,0,0,.929,2.856,3.229,3.229,0,0,0,2.254.918c1.007,0,1.362-.3,4.3-1.85h0l2.807,1.475a3.229,3.229,0,0,0,4.727-2.845,3.172,3.172,0,0,0-.047-.555l-.536-3.127,2.271-2.213A3.222,3.222,0,0,0,258.175,106.715Z" transform="translate(-238.511 -100.475)"/>
          </g>
        </g>
        <g id="Group_611" data-name="Group 611" transform="translate(0 69.353)">
          <g id="Group_610" data-name="Group 610">
            <path id="Path_2409" data-name="Path 2409" class="cls-4" d="M108.5,211.506H87.035l.765-.746a3.634,3.634,0,0,0-2.014-6.2l-4.143-.6-1.853-3.754a3.634,3.634,0,0,0-6.516,0l-1.853,3.754-4.143.6a3.634,3.634,0,0,0-2.014,6.2l.765.746H60.26a3.222,3.222,0,0,0-.926-2.609l-9.125-9.125a3.23,3.23,0,0,0-4.562,0l-5.614,5.614L33.85,199.2a5.914,5.914,0,0,0-9.895,2.651l-3.234,12.068a8.013,8.013,0,0,0-4.266,4.266L4.388,221.422a5.913,5.913,0,0,0-2.651,9.9L7.92,237.5l-5.614,5.614a3.224,3.224,0,0,0,0,4.563L11.43,256.8a3.23,3.23,0,0,0,4.562,0l42.068-42.07h48.83v38.176a1.621,1.621,0,0,1-1.613,1.613H50.865a1.621,1.621,0,0,1-1.613-1.613V232.336a1.613,1.613,0,0,0-3.226,0v20.576a4.839,4.839,0,0,0,4.839,4.839h54.412a4.837,4.837,0,0,0,4.839-4.839V213.119A1.616,1.616,0,0,0,108.5,211.506ZM27.071,202.69a2.688,2.688,0,0,1,4.5-1.205l6.183,6.183L30.3,215.124l1.946-7.263a1.613,1.613,0,1,0-3.116-.835l-1.874,6.992a8.008,8.008,0,0,0-3.02-.733ZM22.513,216.7a4.816,4.816,0,0,1,4.882,1.325l-6.837,6.837A4.839,4.839,0,0,1,22.513,216.7Zm-18.5,12.335a2.689,2.689,0,0,1,1.205-4.5L15.817,221.7a8.014,8.014,0,0,0,.733,3.02l-6.992,1.874a1.613,1.613,0,0,0,.835,3.116l7.263-1.946L10.2,235.22Zm9.694,25.485L4.586,245.4l6.755-6.755h0l29.832-29.832h0l6.755-6.755,9.126,9.123ZM85.548,208.45l-3.135,3.056H70.653c-3.371-3.286-3.346-3.142-3.238-3.474s-.051-.222,5.311-1a1.612,1.612,0,0,0,1.215-.882c2.405-4.874,2.245-4.742,2.593-4.742s.188-.132,2.593,4.742a1.613,1.613,0,0,0,1.215.882l4.982.724A.406.406,0,0,1,85.548,208.45Z" transform="translate(0 -197.466)"/>
          </g>
        </g>
      </g>
      <g id="computer" transform="translate(605 2668)">
        <path id="Path_2417" data-name="Path 2417" class="cls-4" d="M48,160h2.129v1.065H48Zm0,0" transform="translate(-44.806 -149.355)"/>
        <path id="Path_2418" data-name="Path 2418" class="cls-4" d="M31.4,8.516a1.6,1.6,0,0,0,1.6-1.6V1.6A1.6,1.6,0,0,0,31.4,0H23.951a1.6,1.6,0,0,0-1.6,1.6V6.919a1.6,1.6,0,0,0,1.6,1.6h1.6V9.581H24.484v1.065h2.661v5.323h-2.2a3.721,3.721,0,0,0-1.533-.906c0-.054,0-.106,0-.158a4.255,4.255,0,0,0-7.844-2.288,4.236,4.236,0,0,0-1.736-.373,4.282,4.282,0,0,0-3.979,2.746,3.7,3.7,0,0,0-1.123.447H4.79v-1.6H6.919a1.6,1.6,0,0,0,1.6-1.6V1.6A1.6,1.6,0,0,0,6.919,0H1.6A1.6,1.6,0,0,0,0,1.6V12.242a1.6,1.6,0,0,0,1.6,1.6H3.726V16.5H7.6a3.705,3.705,0,0,0-.517,1.065H4.79v5.855H2.661a1.6,1.6,0,0,0-1.6,1.6v4.79H0v1.6A1.6,1.6,0,0,0,1.6,33h8.516a1.6,1.6,0,0,0,1.6-1.6v-1.6H10.645v-4.79a1.6,1.6,0,0,0-1.6-1.6H5.855v-4.79H6.919a3.731,3.731,0,0,0,3.726,3.726h11.71a3.729,3.729,0,0,0,3.683-3.194h2.172v4.258H24.484V33H33V23.419H29.274V18.1H26.036a3.684,3.684,0,0,0-.331-1.065h2.5V10.645h2.661V9.581H29.806V8.516Zm-23.951,0H1.065V3.194H7.452ZM1.6,1.065H6.919a.533.533,0,0,1,.532.532v.532H1.065V1.6A.533.533,0,0,1,1.6,1.065ZM1.065,12.242V9.581H7.452v2.661a.533.533,0,0,1-.532.532H1.6A.533.533,0,0,1,1.065,12.242ZM10.645,31.4a.533.533,0,0,1-.532.532H1.6a.533.533,0,0,1-.532-.532v-.532h9.581ZM9.581,25.016v4.79H2.129v-4.79a.533.533,0,0,1,.532-.532H9.048A.533.533,0,0,1,9.581,25.016Zm15.968,6.919V28.742h6.387v3.194Zm6.387-4.258H25.548V24.484h6.387ZM22.355,21.29H10.645a2.66,2.66,0,0,1-.319-5.3l.349-.042.1-.338a3.185,3.185,0,0,1,4.735-1.826l.508.313.253-.541A3.186,3.186,0,0,1,22.312,15.4l-.08.527.526.08a2.66,2.66,0,0,1-.4,5.288Zm1.6-20.226H31.4a.533.533,0,0,1,.532.532V5.323H23.419V1.6A.533.533,0,0,1,23.951,1.065Zm-.532,5.855V6.387h8.516v.532a.533.533,0,0,1-.532.532H23.951A.533.533,0,0,1,23.419,6.919Zm5.323,2.661H26.613V8.516h2.129Zm0,0"/>
        <path id="Path_2419" data-name="Path 2419" class="cls-4" d="M400,384h1.065v1.065H400Zm0,0" transform="translate(-373.387 -358.452)"/>
        <path id="Path_2420" data-name="Path 2420" class="cls-4" d="M448,448h1.065v1.065H448Zm0,0" transform="translate(-418.194 -418.194)"/>
        <path id="Path_2421" data-name="Path 2421" class="cls-4" d="M432,384h2.129v1.065H432Zm0,0" transform="translate(-403.258 -358.452)"/>
        <path id="Path_2422" data-name="Path 2422" class="cls-4" d="M400,448h2.129v1.065H400Zm0,0" transform="translate(-373.387 -418.194)"/>
      </g>
      <g id="computer-2" data-name="computer" transform="translate(765 2619.604)">
        <path id="Path_2417-2" data-name="Path 2417" class="cls-4" d="M48,160h1.509v.755H48Zm0,0" transform="translate(-45.736 -152.453)"/>
        <path id="Path_2418-2" data-name="Path 2418" class="cls-4" d="M22.264,6.038A1.134,1.134,0,0,0,23.4,4.906V1.132A1.134,1.134,0,0,0,22.264,0H16.981a1.134,1.134,0,0,0-1.132,1.132V4.906a1.134,1.134,0,0,0,1.132,1.132h1.132v.755h-.755v.755h1.887v3.774H17.688a2.638,2.638,0,0,0-1.087-.643c0-.038,0-.075,0-.112a3.017,3.017,0,0,0-5.561-1.622,3,3,0,0,0-1.231-.265A3.036,3.036,0,0,0,6.99,10.626a2.623,2.623,0,0,0-.8.317H3.4V9.811H4.906A1.134,1.134,0,0,0,6.038,8.679V1.132A1.134,1.134,0,0,0,4.906,0H1.132A1.134,1.134,0,0,0,0,1.132V8.679A1.134,1.134,0,0,0,1.132,9.811H2.641V11.7H5.391a2.627,2.627,0,0,0-.367.755H3.4V16.6H1.887A1.134,1.134,0,0,0,.755,17.736v3.4H0v1.132A1.134,1.134,0,0,0,1.132,23.4H7.17A1.134,1.134,0,0,0,8.3,22.264V21.132H7.547v-3.4A1.134,1.134,0,0,0,6.415,16.6H4.151v-3.4h.755a2.645,2.645,0,0,0,2.641,2.641h8.3a2.643,2.643,0,0,0,2.611-2.264H20V16.6H17.358V23.4H23.4V16.6H20.754V12.83h-2.3a2.612,2.612,0,0,0-.235-.755H20V7.547h1.887V6.792h-.755V6.038Zm-16.981,0H.755V2.264H5.283ZM1.132.755H4.906a.378.378,0,0,1,.377.377v.377H.755V1.132A.378.378,0,0,1,1.132.755ZM.755,8.679V6.792H5.283V8.679a.378.378,0,0,1-.377.377H1.132A.378.378,0,0,1,.755,8.679ZM7.547,22.264a.378.378,0,0,1-.377.377H1.132a.378.378,0,0,1-.377-.377v-.377H7.547Zm-.755-4.528v3.4H1.509v-3.4a.378.378,0,0,1,.377-.377H6.415A.378.378,0,0,1,6.792,17.736Zm11.321,4.906V20.377h4.528v2.264Zm4.528-3.019H18.113V17.358h4.528Zm-6.792-4.528h-8.3a1.886,1.886,0,0,1-.226-3.758l.248-.03.07-.24A2.258,2.258,0,0,1,11,9.772l.36.222.18-.384a2.259,2.259,0,0,1,4.284,1.3l-.057.373.373.057a1.886,1.886,0,0,1-.286,3.749ZM16.981.755h5.283a.378.378,0,0,1,.377.377V3.774H16.6V1.132A.378.378,0,0,1,16.981.755ZM16.6,4.906V4.528h6.038v.377a.378.378,0,0,1-.377.377H16.981A.378.378,0,0,1,16.6,4.906Zm3.774,1.887H18.868V6.038h1.509Zm0,0" transform="translate(0 0)"/>
        <path id="Path_2419-2" data-name="Path 2419" class="cls-4" d="M400,384h.755v.755H400Zm0,0" transform="translate(-381.132 -365.887)"/>
        <path id="Path_2420-2" data-name="Path 2420" class="cls-4" d="M448,448h.755v.755H448Zm0,0" transform="translate(-426.868 -426.868)"/>
        <path id="Path_2421-2" data-name="Path 2421" class="cls-4" d="M432,384h1.509v.755H432Zm0,0" transform="translate(-411.623 -365.887)"/>
        <path id="Path_2422-2" data-name="Path 2422" class="cls-4" d="M400,448h1.509v.755H400Zm0,0" transform="translate(-381.132 -426.868)"/>
      </g>
      <g id="statistics" transform="translate(464 2683.574)">
        <path id="Path_2423" data-name="Path 2423" class="cls-4" d="M104.917,286.1a2.024,2.024,0,0,1-2.806,2.806l-.56.845a3.039,3.039,0,0,0,4.211-4.212Zm0,0" transform="translate(-95.117 -267.451)"/>
        <path id="Path_2424" data-name="Path 2424" class="cls-4" d="M83.041,265.014a2.014,2.014,0,0,1,1.116.337l.56-.845a3.039,3.039,0,0,0-4.211,4.212l.845-.56a2.025,2.025,0,0,1,1.69-3.144Zm0,0" transform="translate(-74.931 -247.273)"/>
        <path id="Path_2425" data-name="Path 2425" class="cls-4" d="M288,336v3.041h2.027v-1.014h-1.014V336Zm0,0" transform="translate(-269.753 -314.711)"/>
        <path id="Path_2426" data-name="Path 2426" class="cls-4" d="M243.841,288a5.586,5.586,0,0,0-3.528,1.259l.643.785a4.565,4.565,0,0,1,2.379-1v.982h1.014v-.984a4.568,4.568,0,0,1,4.025,4.025h-.984v1.014h.982a4.566,4.566,0,0,1-1,2.379l.784.642a5.575,5.575,0,0,0-4.316-9.1Zm0,0" transform="translate(-225.087 -269.752)"/>
        <path id="Path_2427" data-name="Path 2427" class="cls-4" d="M214.082,328.371v-.982h-1.014v.984a4.568,4.568,0,0,1-4.025-4.025h.984v-1.014h-.982a4.566,4.566,0,0,1,1-2.379l-.784-.642a5.575,5.575,0,0,0,7.844,7.845l-.643-.785A4.563,4.563,0,0,1,214.082,328.371Zm0,0" transform="translate(-194.821 -300.018)"/>
        <path id="Path_2428" data-name="Path 2428" class="cls-4" d="M28.385,98.248H27.371V84.056H24.33V93.6a7.644,7.644,0,0,0-1.014-.916v-6.1H20.275V91.3a7.625,7.625,0,0,0-1.014-.128V89.124H16.22V91.6a7.565,7.565,0,0,0-1.448.695,7.009,7.009,0,0,0-.35-.824l.8-1.122-2.757-2.758-1.123.8a7.058,7.058,0,0,0-1.056-.436L10.06,86.59H6.16l-.226,1.362a7.058,7.058,0,0,0-1.056.436l-1.123-.8L1,90.344l.8,1.122a6.967,6.967,0,0,0-.436,1.056L0,92.75v3.9l1.362.227A7.017,7.017,0,0,0,1.8,97.933L1,99.055l2.757,2.758,1.123-.8a7.059,7.059,0,0,0,1.056.436l.226,1.362h3.9l.226-1.362a7.058,7.058,0,0,0,1.056-.436l.2.145a7.595,7.595,0,0,0,14.786-1.9h5.094V80H28.385ZM25.344,85.069h1.014V98.248h-.026a7.544,7.544,0,0,0-.988-3.27ZM21.289,87.6H22.3v4.432a7.542,7.542,0,0,0-1.014-.44Zm-4.055,2.534h1.014v1.039a7.585,7.585,0,0,0-1.014.128Zm-6.105,9.838a6.031,6.031,0,0,1-1.422.587l-.314.085L9.2,101.8H7.019l-.192-1.148-.314-.085a6.039,6.039,0,0,1-1.422-.587l-.282-.162-.945.676L2.32,98.947,3,98l-.162-.282A6.023,6.023,0,0,1,2.246,96.3l-.085-.314-1.148-.191V93.609l1.148-.191.085-.314a6.039,6.039,0,0,1,.587-1.422L3,91.4l-.676-.946L3.864,88.91l.945.676.282-.162a6.031,6.031,0,0,1,1.422-.587l.314-.085L7.019,87.6H9.2l.192,1.148.314.085a6.04,6.04,0,0,1,1.422.587l.282.162.945-.676L13.9,90.453l-.676.946.162.282a6.029,6.029,0,0,1,.519,1.222,7.694,7.694,0,0,0-.825.807,5.088,5.088,0,1,0-1.929,5.03s0,.009,0,.014a7.587,7.587,0,0,0,.1,1.152ZM12.152,95a7.564,7.564,0,0,0-.833,2.173,4.05,4.05,0,1,1,.845-2.471c0,.1-.006.2-.013.3Zm6.6,10.346a6.589,6.589,0,1,1,6.589-6.589A6.6,6.6,0,0,1,18.754,105.344ZM29.4,81.014h1.014V98.248H29.4Zm0,0" transform="translate(0 -74.932)"/>
        <path id="Path_2429" data-name="Path 2429" class="cls-4" d="M28.385,0V1.014h1.089L25.888,3.883,24.33,2.324l-2.39,2.39a1.5,1.5,0,0,0-.651-.152,1.523,1.523,0,0,0-1.521,1.521,1.5,1.5,0,0,0,.19.721L17.309,9.747a1.513,1.513,0,0,0-.582-.117c-.01,0-.018,0-.028,0L14.661,4.2A1.518,1.518,0,1,0,12.2,3.361L8.044,5.917a1.5,1.5,0,0,0-2.376.672H2.948a1.521,1.521,0,1,0,0,1.014H5.669a1.517,1.517,0,0,0,2.913-.826L12.738,4.22a1.5,1.5,0,0,0,.948.342c.01,0,.018,0,.028,0l2.038,5.435a1.524,1.524,0,1,0,2.306.437l2.649-2.944a1.519,1.519,0,0,0,2.1-1.4,1.5,1.5,0,0,0-.152-.651L24.33,3.758l1.483,1.483,4.6-3.679v1.48h1.014V0ZM1.52,7.6A.507.507,0,1,1,2.027,7.1.508.508,0,0,1,1.52,7.6ZM7.1,7.6A.507.507,0,1,1,7.6,7.1.508.508,0,0,1,7.1,7.6Zm6.082-4.562a.507.507,0,1,1,.507.507A.508.508,0,0,1,13.179,3.041Zm3.548,8.617a.507.507,0,1,1,.507-.507A.508.508,0,0,1,16.727,11.658Zm4.562-5.069a.507.507,0,1,1,.507-.507A.508.508,0,0,1,21.289,6.589Zm0,0" transform="translate(0)"/>
      </g>
      <g id="data-mining" transform="translate(396.986 2541.945)">
        <path id="Path_2410" data-name="Path 2410" class="cls-4" d="M16.993,9.877h2.822v8.56H16.993V15.943L12.76,13.121V9.877h2.822V0H8.527V9.877h2.822v3.244L7.116,15.943v2.494H4.294V9.877H7.116V0H.014V9.877H2.883v9.971H7.116v.942l4.939,3.292,4.939-3.292v-.942h4.233V9.877H24.1V0h-7.1ZM9.938,1.411h4.233V8.466H9.938Zm-8.513,0h4.28V8.466H1.425ZM12.055,18.3,9.094,16.321l2.961-1.974,2.961,1.974Zm-3.528-.656,2.822,1.881v2.4L8.527,20.035Zm4.233,4.278v-2.4l2.822-1.881v2.4ZM18.4,1.411h4.28V8.466H18.4Z"/>
        <path id="Path_2411" data-name="Path 2411" class="cls-4" d="M61.014,60h1.411v1.411H61.014Z" transform="translate(-58.131 -57.178)"/>
        <path id="Path_2412" data-name="Path 2412" class="cls-4" d="M61.014,120h1.411v1.411H61.014Z" transform="translate(-58.131 -114.356)"/>
        <path id="Path_2413" data-name="Path 2413" class="cls-4" d="M241.014,60h1.411v1.411h-1.411Z" transform="translate(-229.665 -57.178)"/>
        <path id="Path_2414" data-name="Path 2414" class="cls-4" d="M241.014,120h1.411v1.411h-1.411Z" transform="translate(-229.665 -114.356)"/>
        <path id="Path_2415" data-name="Path 2415" class="cls-4" d="M421.014,60h1.411v1.411h-1.411Z" transform="translate(-401.198 -57.178)"/>
        <path id="Path_2416" data-name="Path 2416" class="cls-4" d="M421.014,120h1.411v1.411h-1.411Z" transform="translate(-401.198 -114.356)"/>
      </g>
    </g>
  </g>
</svg>
