<svg xmlns="http://www.w3.org/2000/svg" width="156.785" height="79.005" viewBox="0 0 156.785 79.005">
  <g id="Group_7270" data-name="Group 7270" transform="translate(-108.986 -1037.825)">
    <g id="artificial-intelligence" transform="translate(232.244 1086.799)">
      <g id="Group_467" data-name="Group 467" transform="translate(0 0)">
        <g id="Group_466" data-name="Group 466" transform="translate(0 0)">
          <path id="Path_2320" data-name="Path 2320" d="M57.751,11.467c.564-3.062-.357-7.27-3.709-9.276a9.317,9.317,0,0,0-6.962-.876,8.677,8.677,0,0,0-6.389,6.238,6.175,6.175,0,0,0-.21,1.892,6.351,6.351,0,0,0,.218,1.169,5.052,5.052,0,0,1,.216,1.5,3.78,3.78,0,0,1-.8,1.785c-.4.6-.747,1.126-.546,1.607a1.178,1.178,0,0,0,.9.578.431.431,0,0,0,.066.007.338.338,0,0,1,.378.361c0,.75.019,1.137.328,1.314a.66.66,0,0,0-.056.178.643.643,0,0,0,.2.569,1.1,1.1,0,0,0,.572.292l.044.01a.922.922,0,0,1,.011.162,3.884,3.884,0,0,1-.029.4A1.373,1.373,0,0,0,43,21.121a2.378,2.378,0,0,0,.712.087,11.3,11.3,0,0,0,3.207-.615,4.076,4.076,0,0,1,.527,1.7.361.361,0,0,0,.361.361h9.019a.358.358,0,0,0,.337-.249A.369.369,0,0,0,57.035,22a12.108,12.108,0,0,1-1.647-4.342c.109-.247.255-.525.428-.848A16.952,16.952,0,0,0,57.751,11.467Zm-3.088,6.152a13.131,13.131,0,0,0,1.455,4.312h-7.98a5.167,5.167,0,0,0-.53-1.583,5.834,5.834,0,0,0,2.408-1.514.361.361,0,0,0-.574-.438c-1.021,1.336-5.269,2.35-6.218,2.04-.6-.2-.577-.427-.519-.984a4.536,4.536,0,0,0,.032-.476c0-.608-.245-.789-.614-.875a.462.462,0,0,1-.194-.075,1,1,0,0,1,.239-.169.361.361,0,0,0-.159-.685c-.13,0-.275,0-.351-.01a5.57,5.57,0,0,1-.023-.712,1.055,1.055,0,0,0-1.056-1.081c-.26-.055-.339-.125-.346-.142-.053-.125.3-.648.482-.93a4.357,4.357,0,0,0,.92-2.166,5.062,5.062,0,0,0-.149-1.338,3.6,3.6,0,0,1,1.36-.75,1.118,1.118,0,0,1,.536.038.361.361,0,0,0,.192-.7,1.821,1.821,0,0,0-.877-.048,3.718,3.718,0,0,0-1.4.694,4.287,4.287,0,0,1-.1-.639,5.341,5.341,0,0,1,.191-1.667,7.866,7.866,0,0,1,5.876-5.714,8.57,8.57,0,0,1,6.4.8c3.058,1.829,3.891,5.7,3.371,8.525a16.1,16.1,0,0,1-1.862,5.13c-.2.37-.37.69-.493.985A.353.353,0,0,0,54.663,17.618Z" transform="translate(-39.51 -1)" fill="#413d5d"/>
          <path id="Path_2321" data-name="Path 2321" d="M145.3,45.133a1.081,1.081,0,0,0-.879-1.163l-.691-.958a1.07,1.07,0,0,0,.1-.247l.669-.268a1.08,1.08,0,1,0,1.045-1.767L145,39.65a1.078,1.078,0,0,0-1.325-1.678l-.6-.5a1.078,1.078,0,0,0-1.791-1.121l-1.07-.267a1.075,1.075,0,0,0-2.07-.013l-1.429.286a1.077,1.077,0,0,0-1.722,1.271l-.7.933a1.079,1.079,0,0,0-.062,2.111l.579,1.43a1.08,1.08,0,1,0,1.776,1.13h1.937a1.045,1.045,0,0,0,1.181.7l1.2,1.822a1.08,1.08,0,1,0,1.865.909l.894-.715a1.077,1.077,0,0,0,1.646-.816Zm0-3.708a.361.361,0,1,1-.33.5s0-.007,0-.01l0,0a.355.355,0,0,1-.026-.13A.361.361,0,0,1,145.3,41.424Zm-1.435-2.6a.361.361,0,1,1,.353.434.357.357,0,0,1-.13-.026l0,0-.01,0A.36.36,0,0,1,143.868,38.826Zm-.359.882h0l-.667,1.667-1.169-.935a1.077,1.077,0,0,0,.334-.513l1.429-.286C143.459,39.664,143.484,39.686,143.509,39.708Zm-.384,2.9a.361.361,0,1,1-.347-.458.357.357,0,0,1,.13.026l0,0,.01,0A.361.361,0,0,1,143.125,42.6Zm-1.068-5.87a.361.361,0,1,1-.361.361A.361.361,0,0,1,142.056,36.735Zm-1.9.078.824.206c0,.026-.008.051-.008.077a1.083,1.083,0,0,0,1.082,1.082,1.071,1.071,0,0,0,.549-.155l.6.5a1.071,1.071,0,0,0-.071.374c0,.022.005.042.006.064l-1.175.235a1.083,1.083,0,0,0-.83-.643l-1.321-1.321A1.085,1.085,0,0,0,140.158,36.812Zm1.177,2.808a.361.361,0,1,1-.361-.361A.361.361,0,0,1,141.335,39.621Zm-2.165-3.608a.361.361,0,1,1-.361.361A.361.361,0,0,1,139.17,36.013Zm.071,1.664,1.083,1.083a1.081,1.081,0,0,0-.367.5H139.1a1.081,1.081,0,0,0-.47-.569ZM137,37.032l1.175-.235a1.085,1.085,0,0,0,.451.507l-.655,1.091-1.132-.726a1.072,1.072,0,0,0,.168-.573C137.006,37.073,137,37.053,137,37.032Zm1.449,2.589a.361.361,0,1,1-.361-.361A.361.361,0,0,1,138.449,39.621Zm-2.525-2.886a.361.361,0,1,1-.361.361A.361.361,0,0,1,135.923,36.735Zm-.393,1.367a1.012,1.012,0,0,0,.691.029l1.114.715a1.08,1.08,0,0,0-.264.415H135.5a1.083,1.083,0,0,0-.426-.545Zm-1.05,1.88a.361.361,0,1,1,.361-.361A.361.361,0,0,1,134.48,39.981Zm1.082,3.247a.361.361,0,1,1,.361-.361A.361.361,0,0,1,135.563,43.228Zm.205-1.422a1.082,1.082,0,0,0-.205-.021,1.048,1.048,0,0,0-.1.011l-.492-1.214a1.081,1.081,0,0,0,.529-.6h1.576a1.079,1.079,0,0,0,.326.466Zm2.747.7h-1.937a1.074,1.074,0,0,0-.165-.3l1.772-1.476.6,1.353A1.08,1.08,0,0,0,138.515,42.507Zm.589-2.525h.855a1.081,1.081,0,0,0,.47.569l-.75,1.25a1.072,1.072,0,0,0-.148-.015c-.028,0-.054.006-.082.008L138.83,40.4A1.081,1.081,0,0,0,139.1,39.981Zm.427,3.247a.361.361,0,1,1,.361-.361A.361.361,0,0,1,139.531,43.228Zm1.54-2.347,1.008.806a1.077,1.077,0,0,0-.334.513l-1.218.244a1.083,1.083,0,0,0-.206-.312Zm.625,5.954a.361.361,0,1,1,.361-.361A.361.361,0,0,1,141.7,46.836Zm1.443-1.8a1.069,1.069,0,0,0,.064.353l-.609.487a1.041,1.041,0,0,0-1.063-.463l-1.2-1.822a1.076,1.076,0,0,0,.231-.415l1.218-.244a1.081,1.081,0,0,0,1.413.575l.445.617A1.08,1.08,0,0,0,143.139,45.032Zm.351-3.334.688-1.721c.014,0,.028,0,.043,0a1.06,1.06,0,0,0,.13-.013l.437.871a1.079,1.079,0,0,0-.567.946c0,.015,0,.028,0,.043l-.485.194A1.081,1.081,0,0,0,143.49,41.7Zm.731,3.695a.361.361,0,1,1,.361-.361A.361.361,0,0,1,144.221,45.393Z" transform="translate(-129.429 -33.842)" fill="#413d5d"/>
        </g>
      </g>
    </g>
    <g id="XMLID_2603_" transform="translate(231.149 1068.33)">
      <g id="XMLID_636_">
        <path id="XMLID_1699_" d="M1.993,3.986A1.993,1.993,0,1,0,0,1.993,2,2,0,0,0,1.993,3.986Zm0-3.555A1.562,1.562,0,1,1,.431,1.993,1.564,1.564,0,0,1,1.993.431Z" fill="#413d5d"/>
        <path id="XMLID_1701_" d="M83,35.734a.215.215,0,0,0,.3-.305l-.259-.258v-.956a.215.215,0,0,0-.431,0v1.045a.215.215,0,0,0,.063.153Z" transform="translate(-80.834 -33.268)" fill="#413d5d"/>
        <path id="XMLID_1706_" d="M10.81,141.13H9.485a1.272,1.272,0,0,0-.768-.511l-.947-.207a1.453,1.453,0,0,0,.643-1.206v-.824a1.453,1.453,0,0,0-2.906,0v.824a1.453,1.453,0,0,0,.641,1.2l-.946.208c-.04.009-.08.02-.119.032v-1.782a.215.215,0,0,0-.215-.215H3.4a.215.215,0,0,0,0,.431H4.651V142.1H3.187v-1.077a.646.646,0,1,0-1.292,0V142.1H.431v-3.015H1.68a.215.215,0,0,0,0-.431H.215a.215.215,0,0,0-.215.215v3.445a.215.215,0,0,0,.215.215h1.68v.409H1.873a.668.668,0,0,0-.668.668v.108H.215a.215.215,0,0,0-.215.215v.861a.215.215,0,0,0,.215.215H10.81a.215.215,0,0,0,.215-.215v-3.445A.215.215,0,0,0,10.81,141.13ZM9.5,143.714H8.269v-.431h2.326v.431Zm1.094-.861H8.269v-.431h2.326Zm0-.861H8.269v-.431h2.326Zm-4.658-3.609a1.023,1.023,0,0,1,2.042-.08l-.5-.294a.215.215,0,0,0-.274.047,1.142,1.142,0,0,1-.877.41h-.39v-.083Zm0,.513h.39a1.571,1.571,0,0,0,1.081-.429l.574.337v.4a1.023,1.023,0,0,1-2.045,0v-.31Zm1.36,1.724-.341.911-.341-.912a1.446,1.446,0,0,0,.682,0Zm-2.43,1.91a.215.215,0,0,0,.215-.215v-1.2a.837.837,0,0,1,.211-.077l.942-.207.519,1.388a.215.215,0,0,0,.4,0l.519-1.388.948.207a.839.839,0,0,1,.235.09H8.054a.215.215,0,0,0-.215.215v2.369h-3.2v-1.184h.233Zm-.664,0v1.184H3.876v-.108a.668.668,0,0,0-.668-.668H3.187v-.409Zm-1.877-1.507a.215.215,0,0,1,.431,0v1.917H2.326Zm-.689,2.584a.237.237,0,0,1,.237-.237H3.209a.237.237,0,0,1,.237.237v.108H1.637Zm8.958.969H.431v-.431H10.595Z" transform="translate(0 -133.98)" fill="#413d5d"/>
        <path id="XMLID_1768_" d="M108.063,217.063a.215.215,0,1,0,.152-.063A.217.217,0,0,0,108.063,217.063Z" transform="translate(-105.674 -212.327)" fill="#413d5d"/>
      </g>
    </g>
    <path id="Path_2372" data-name="Path 2372" d="M73.172,282.433a.214.214,0,0,0,.04.247l.052.052c.151-.179.327-.373.54-.586.015-.015.031-.022.046-.036l-.336-.336C73.318,282.127,73.2,282.368,73.172,282.433Zm0,0" transform="translate(178.533 799.932)" fill="none" stroke="#413d5d" stroke-width="0.5"/>
    <path id="Path_2373" data-name="Path 2373" d="M163.476,389.608c-.214.214-.408.39-.585.541l.071.071a.214.214,0,0,0,.249.039c.111-.057.285-.139.654-.345l-.352-.352C163.5,389.577,163.491,389.593,163.476,389.608Zm0,0" transform="translate(90.07 693.679)" fill="none" stroke="#413d5d" stroke-width="0.5"/>
    <path id="Path_2374" data-name="Path 2374" d="M61.531,311.368c-.154-.154-.589-.016-.793.188a5.681,5.681,0,0,0-1.129,1.452.214.214,0,0,0,.286.285,5.723,5.723,0,0,0,1.448-1.133c.224-.224.335-.646.188-.792Zm0,0" transform="translate(191.901 770.824)" fill="none" stroke="#413d5d" stroke-width="0.5"/>
    <path id="Path_2375" data-name="Path 2375" d="M.668,164.3l-.6.6a.214.214,0,0,0,.206.357,1.756,1.756,0,0,1,.807-.075,11.465,11.465,0,0,1,.884-1.349,1.305,1.305,0,0,0-1.294.462Zm0,0" transform="translate(250.64 916.241)" fill="none" stroke="#413d5d" stroke-width="0.5"/>
    <path id="Path_2376" data-name="Path 2376" d="M245.758,378.4a.213.213,0,0,0,.247-.04l.6-.6a1.339,1.339,0,0,0,.444-1.263,12.193,12.193,0,0,1-1.35.878,2.618,2.618,0,0,1-.06.807A.213.213,0,0,0,245.758,378.4Zm0,0" transform="translate(8.499 706.562)" fill="none" stroke="#413d5d" stroke-width="0.5"/>
    <path id="Path_2377" data-name="Path 2377" d="M284.831,137.5a.641.641,0,1,0,.906,0A.642.642,0,0,0,284.831,137.5Zm0,0" transform="translate(-29.949 942.339)" fill="none" stroke="#413d5d" stroke-width="0.5"/>
    <path id="Path_2378" data-name="Path 2378" d="M389.53.21a.213.213,0,0,0-.2-.2,4.224,4.224,0,0,0-1.56.182,1.794,1.794,0,0,0,.531,1.044,1.788,1.788,0,0,0,1.064.531A4.418,4.418,0,0,0,389.53.21Zm0,0" transform="translate(-131.609 1077.691)" fill="none" stroke="#413d5d" stroke-width="0.5"/>
    <path id="Path_2379" data-name="Path 2379" d="M118.463,25.193a2.245,2.245,0,0,1-.642-1.2,7.746,7.746,0,0,0-3.482,3.289l.482.482a.766.766,0,0,1,1.067,1.067l.5.5a7.752,7.752,0,0,0,3.3-3.5,2.234,2.234,0,0,1-1.226-.643Zm-.3,1.813a1.068,1.068,0,1,1,0-1.511A1.07,1.07,0,0,1,118.161,27.006Zm0,0" transform="translate(137.93 1054.038)" fill="none" stroke="#413d5d" stroke-width="0.5"/>
    <g id="present" transform="translate(235.542 1041.061)">
      <g id="Group_597" data-name="Group 597" transform="translate(19.593 0)">
        <g id="Group_596" data-name="Group 596">
          <path id="Path_2406" data-name="Path 2406" d="M334.183,35.1a.443.443,0,0,0-.559-.283l-.157.052v-.172a.443.443,0,0,0-.886,0v.172l-.157-.052a.443.443,0,1,0-.276.842l.163.054-.1.143a.443.443,0,0,0,.359.7c.258,0,.358-.182.457-.319l.1.134a.443.443,0,1,0,.719-.517l-.1-.143.163-.054A.443.443,0,0,0,334.183,35.1Z" transform="translate(-331.843 -34.249)" fill="#413d5d"/>
        </g>
      </g>
      <g id="Group_599" data-name="Group 599" transform="translate(23.972 4.753)">
        <g id="Group_598" data-name="Group 598">
          <path id="Path_2407" data-name="Path 2407" d="M408.346,115.6a.443.443,0,0,0-.559-.283l-.157.052V115.2a.443.443,0,0,0-.886,0v.172l-.157-.052a.443.443,0,1,0-.276.842l.163.054-.1.143a.443.443,0,0,0,.719.517l.1-.134c.093.129.195.319.457.319a.443.443,0,0,0,.359-.7l-.1-.143.163-.054A.443.443,0,0,0,408.346,115.6Z" transform="translate(-406.006 -114.754)" fill="#413d5d"/>
        </g>
      </g>
      <g id="Group_601" data-name="Group 601" transform="translate(20.04 4.118)">
        <g id="Group_600" data-name="Group 600" transform="translate(0 0)">
          <ellipse id="Ellipse_3235" data-name="Ellipse 3235" cy="0.5" ry="0.5" transform="translate(0.418 -0.179)" fill="#413d5d"/>
        </g>
      </g>
      <g id="Group_603" data-name="Group 603" transform="translate(27.041 11.301)">
        <g id="Group_602" data-name="Group 602">
          <circle id="Ellipse_3236" data-name="Ellipse 3236" cx="0.443" cy="0.443" r="0.443" fill="#413d5d"/>
        </g>
      </g>
      <g id="Group_605" data-name="Group 605" transform="translate(22.511 7.961)">
        <g id="Group_604" data-name="Group 604" transform="translate(0 0)">
          <circle id="Ellipse_3237" data-name="Ellipse 3237" cx="0.5" cy="0.5" r="0.5" transform="translate(-0.053 -0.022)" fill="#413d5d"/>
        </g>
      </g>
      <g id="Group_607" data-name="Group 607" transform="translate(27.178 2.196)">
        <g id="Group_606" data-name="Group 606" transform="translate(0 0)">
          <circle id="Ellipse_3238" data-name="Ellipse 3238" cx="0.5" cy="0.5" r="0.5" transform="translate(0.28 -0.257)" fill="#413d5d"/>
        </g>
      </g>
      <g id="Group_609" data-name="Group 609" transform="translate(14.082 3.91)">
        <g id="Group_608" data-name="Group 608">
          <path id="Path_2408" data-name="Path 2408" d="M243.91,102.188a.881.881,0,0,0-.557-.314.443.443,0,0,0-.128.877l-.79.77a.443.443,0,0,0-.128.392l.187,1.088h0c-1.3-.684-1.072-.68-2.363,0h0l.187-1.088a.444.444,0,0,0-.127-.392l-.791-.77,1.092-.159a.443.443,0,0,0,.333-.242l.489-.99.192.39a.443.443,0,1,0,.795-.392l-.193-.39a.886.886,0,0,0-1.589,0l-.385.781c-.878.128-1.153.11-1.419.439a.886.886,0,0,0-.2.565c0,.459.265.629.891,1.239l-.147.858a.882.882,0,0,0,.255.784.887.887,0,0,0,.619.252c.276,0,.374-.083,1.181-.508h0l.771.4a.887.887,0,0,0,1.3-.781.872.872,0,0,0-.013-.152l-.147-.858.623-.608A.884.884,0,0,0,243.91,102.188Z" transform="translate(-238.511 -100.475)" fill="#413d5d"/>
        </g>
      </g>
      <g id="Group_611" data-name="Group 611" transform="translate(0 9.637)">
        <g id="Group_610" data-name="Group 610">
          <path id="Path_2409" data-name="Path 2409" d="M29.787,201.32H23.893l.21-.2a1,1,0,0,0-.553-1.7l-1.137-.165-.509-1.031a1,1,0,0,0-1.789,0l-.509,1.031-1.137.165a1,1,0,0,0-.553,1.7l.21.2H16.543a.884.884,0,0,0-.254-.716l-2.5-2.5a.887.887,0,0,0-1.252,0L10.99,199.64l-1.7-1.7a1.624,1.624,0,0,0-2.716.728l-.888,3.313a2.2,2.2,0,0,0-1.171,1.171l-3.313.888a1.623,1.623,0,0,0-.728,2.716l1.7,1.7L.633,210a.885.885,0,0,0,0,1.253l2.5,2.505a.887.887,0,0,0,1.252,0l11.549-11.549h13.4v10.48a.445.445,0,0,1-.443.443H13.963a.445.445,0,0,1-.443-.443v-5.647a.443.443,0,0,0-.886,0h0v5.647a1.328,1.328,0,0,0,1.328,1.328H28.9a1.328,1.328,0,0,0,1.328-1.328V201.763A.444.444,0,0,0,29.787,201.32ZM7.431,198.9a.738.738,0,0,1,1.235-.331l1.7,1.7-2.047,2.047.534-1.994A.443.443,0,1,0,8,200.09l-.514,1.92a2.2,2.2,0,0,0-.829-.2ZM6.18,202.746a1.322,1.322,0,0,1,1.34.364l-1.877,1.877A1.328,1.328,0,0,1,6.18,202.746ZM1.1,206.132a.738.738,0,0,1,.331-1.235l2.909-.779a2.2,2.2,0,0,0,.2.829l-1.919.514a.443.443,0,0,0,.229.856l1.994-.534L2.8,207.83Zm2.661,7-2.5-2.5,1.854-1.854h0l8.189-8.19h0l1.854-1.854,2.505,2.5Zm19.721-12.648-.861.839H19.4c-.925-.9-.919-.863-.889-.954s-.014-.061,1.458-.275a.443.443,0,0,0,.333-.242c.66-1.338.616-1.3.712-1.3s.052-.036.712,1.3a.443.443,0,0,0,.333.242l1.368.2A.111.111,0,0,1,23.485,200.481Z" transform="translate(0 -197.466)" fill="#413d5d"/>
        </g>
      </g>
    </g>
    <g id="data-mining" transform="translate(108.986 1069.322)">
      <path id="Path_2410" data-name="Path 2410" d="M4.675,2.712H5.45v2.35H4.675V4.377L3.513,3.6V2.712h.775V0H2.351V2.712h.775V3.6l-1.162.775v.685H1.189V2.712h.775V0H.014V2.712H.8V5.449H1.964v.259l1.356.9,1.356-.9V5.449H5.837V2.712h.788V0H4.675ZM2.738.387H3.9V2.324H2.738ZM.4.387H1.576V2.324H.4ZM3.32,5.022,2.507,4.48l.813-.542.813.542Zm-.968-.18.775.516v.658L2.351,5.5ZM3.513,6.017V5.359l.775-.516V5.5ZM5.063.387H6.238V2.324H5.063Z" transform="translate(-0.014 0)" fill="#413d5d"/>
      <path id="Path_2411" data-name="Path 2411" d="M61.014,60H61.4v.387h-.387Z" transform="translate(-60.226 -59.225)" fill="#413d5d"/>
      <path id="Path_2412" data-name="Path 2412" d="M61.014,120H61.4v.387h-.387Z" transform="translate(-60.226 -118.451)" fill="#413d5d"/>
      <path id="Path_2413" data-name="Path 2413" d="M241.014,60h.387v.387h-.387Z" transform="translate(-237.902 -59.225)" fill="#413d5d"/>
      <path id="Path_2414" data-name="Path 2414" d="M241.014,120h.387v.387h-.387Z" transform="translate(-237.902 -118.451)" fill="#413d5d"/>
      <path id="Path_2415" data-name="Path 2415" d="M421.014,60h.387v.387h-.387Z" transform="translate(-415.578 -59.225)" fill="#413d5d"/>
      <path id="Path_2416" data-name="Path 2416" d="M421.014,120h.387v.387h-.387Z" transform="translate(-415.578 -118.451)" fill="#413d5d"/>
    </g>
    <g id="Group_450" data-name="Group 450" transform="translate(212.264 1102.92)">
      <path id="Path_2316" data-name="Path 2316" d="M12.154,38.721a1.625,1.625,0,0,0-1.192-.494H9.486l-.336-.9a1.224,1.224,0,0,0-.458-.557,1.173,1.173,0,0,0-.682-.234H4.638a1.173,1.173,0,0,0-.682.234,1.224,1.224,0,0,0-.458.557l-.336.9H1.686a1.625,1.625,0,0,0-1.192.494A1.625,1.625,0,0,0,0,39.913v5.9a1.625,1.625,0,0,0,.494,1.192,1.625,1.625,0,0,0,1.192.494h9.275a1.687,1.687,0,0,0,1.686-1.686v-5.9A1.625,1.625,0,0,0,12.154,38.721ZM8.409,44.949a2.842,2.842,0,0,1-2.085.866,2.842,2.842,0,0,1-2.085-.866,2.942,2.942,0,0,1,0-4.17,2.842,2.842,0,0,1,2.085-.866,2.842,2.842,0,0,1,2.085.866,2.942,2.942,0,0,1,0,4.17Z" transform="translate(0 -36.54)" fill="none" stroke="#413d5d" stroke-width="1"/>
    </g>
    <g id="Group_449" data-name="Group 449" transform="translate(159.499 1094.715)">
      <path id="Path_2315" data-name="Path 2315" d="M6.973,141.333a2,2,0,0,0-1.415.575l-1.059.937,0,0-.568.5,0,0-1.01.9a1.268,1.268,0,1,1-.9-2.161,1.281,1.281,0,0,1,.915.386l.426.377.566-.5-.474-.42a2.014,2.014,0,1,0-.017,2.864L4.5,143.85l0,0,.566-.5,0,0,1.01-.894a1.268,1.268,0,1,1,.9,2.159,1.287,1.287,0,0,1-.915-.384l-.426-.377-.566.5.474.42a2.02,2.02,0,1,0,1.432-3.442Z" transform="translate(0 -141.333)" fill="none" stroke="#413d5d" stroke-width="0.5"/>
    </g>
    <path id="devices" d="M24.911,31.674V25.368a1.833,1.833,0,0,0-1.831-1.831H1.831A1.833,1.833,0,0,0,0,25.368V38.214a1.833,1.833,0,0,0,1.831,1.831H7.853l-.689.742H6.131a.425.425,0,0,0,0,.85h5.915v4.1a1.075,1.075,0,0,0,1.074,1.074h4.57a1.075,1.075,0,0,0,1.074-1.074v-.864h5.722a1.458,1.458,0,0,0,1.456-1.457V33.067a1.459,1.459,0,0,0-1.032-1.393Zm.181,1.393v.116H15.315v-.116a.607.607,0,0,1,.607-.607h8.565A.607.607,0,0,1,25.092,33.067Zm-7.4,3.592H15.315V34.033h9.777V42.45H18.765V37.733A1.075,1.075,0,0,0,17.691,36.659Zm.224,1.633H12.9v-.559a.224.224,0,0,1,.224-.224h4.57a.224.224,0,0,1,.224.224v.559Zm6.146-12.5V31.61H15.922a1.458,1.458,0,0,0-1.457,1.457v3.592H13.12a1.075,1.075,0,0,0-1.074,1.073H.85V25.793h23.21ZM12.9,39.142h5.018v5.186H12.9ZM1.831,24.387H23.08a.981.981,0,0,1,.882.555H.948a.981.981,0,0,1,.882-.555ZM.922,38.582H12.046v.613H1.831A.982.982,0,0,1,.922,38.582Zm7.4,2.2.689-.742h3.033v.742Zm9.366,5.174H13.12a.224.224,0,0,1-.224-.224v-.559h5.018v.559A.224.224,0,0,1,17.691,45.961Zm6.8-1.938H18.765V43.3h6.327v.116A.607.607,0,0,1,24.486,44.023Z" transform="translate(178.99 1067.695)" fill="#413d5d"/>
    <g id="robot-arm" transform="translate(142.268 1092.946)">
      <g id="Group_482" data-name="Group 482" transform="translate(12.421 13.085)">
        <g id="Group_481" data-name="Group 481">
          <path id="Path_2334" data-name="Path 2334" d="M429.234,451.9a.289.289,0,1,0,.289.289A.29.29,0,0,0,429.234,451.9Z" transform="translate(-428.945 -451.898)" fill="#413d5d"/>
        </g>
      </g>
      <g id="Group_484" data-name="Group 484" transform="translate(10.598 13.085)">
        <g id="Group_483" data-name="Group 483">
          <path id="Path_2335" data-name="Path 2335" d="M366.254,451.9a.289.289,0,1,0,.29.289A.29.29,0,0,0,366.254,451.9Z" transform="translate(-365.965 -451.898)" fill="#413d5d"/>
        </g>
      </g>
      <g id="Group_486" data-name="Group 486" transform="translate(8.861 13.085)">
        <g id="Group_485" data-name="Group 485">
          <path id="Path_2336" data-name="Path 2336" d="M306.273,451.9a.289.289,0,1,0,.29.289A.29.29,0,0,0,306.273,451.9Z" transform="translate(-305.984 -451.898)" fill="#413d5d"/>
        </g>
      </g>
      <g id="Group_488" data-name="Group 488" transform="translate(6.95 13.085)">
        <g id="Group_487" data-name="Group 487">
          <path id="Path_2337" data-name="Path 2337" d="M240.294,451.9a.289.289,0,1,0,.289.289A.29.29,0,0,0,240.294,451.9Z" transform="translate(-240.005 -451.898)" fill="#413d5d"/>
        </g>
      </g>
      <g id="Group_490" data-name="Group 490" transform="translate(5.213 13.085)">
        <g id="Group_489" data-name="Group 489">
          <path id="Path_2338" data-name="Path 2338" d="M180.313,451.9a.289.289,0,1,0,.29.289A.29.29,0,0,0,180.313,451.9Z" transform="translate(-180.024 -451.898)" fill="#413d5d"/>
        </g>
      </g>
      <g id="Group_492" data-name="Group 492" transform="translate(3.476 13.085)">
        <g id="Group_491" data-name="Group 491">
          <path id="Path_2339" data-name="Path 2339" d="M120.332,451.9a.289.289,0,1,0,.29.289A.29.29,0,0,0,120.332,451.9Z" transform="translate(-120.043 -451.898)" fill="#413d5d"/>
        </g>
      </g>
      <g id="Group_494" data-name="Group 494" transform="translate(1.739 13.085)">
        <g id="Group_493" data-name="Group 493">
          <path id="Path_2340" data-name="Path 2340" d="M60.351,451.9a.289.289,0,1,0,.289.289A.29.29,0,0,0,60.351,451.9Z" transform="translate(-60.062 -451.898)" fill="#413d5d"/>
        </g>
      </g>
      <g id="Group_496" data-name="Group 496" transform="translate(0 0)">
        <g id="Group_495" data-name="Group 495">
          <path id="Path_2341" data-name="Path 2341" d="M13.377,11.965H13V9.014a.29.29,0,0,0-.289-.289h-2.4a.29.29,0,0,0-.289.289v2.95H7.529V8.146a2.3,2.3,0,0,0-.468-1.4,2.334,2.334,0,0,0-1.116-.8l-1.9-1.808,5.915-.72a2.012,2.012,0,0,0,.349.308v.943h-.289a.289.289,0,0,0-.259.16L9.181,5.99a.289.289,0,0,0,.054.334l1.158,1.158a.29.29,0,1,0,.409-.409l-1.01-1.01.406-.811h2.537l.406.811-1.01,1.01a.29.29,0,1,0,.409.409L13.7,6.324a.289.289,0,0,0,.054-.334l-.579-1.158a.289.289,0,0,0-.259-.16h-.289V3.729A2.026,2.026,0,1,0,9.682,1.106l-7.054.15a.289.289,0,0,0-.073.011,2.026,2.026,0,1,0-.638,3.98l1.316,1.7a2.294,2.294,0,0,0-.335,1.2v3.819H1.45a1.45,1.45,0,0,0,0,2.9H13.377a1.45,1.45,0,0,0,0-2.9ZM12.045,4.672H10.887V4.008a2.027,2.027,0,0,0,1.158,0v.663ZM10.132,1.5h0a1.45,1.45,0,1,1-.113.562A1.445,1.445,0,0,1,10.132,1.5ZM10.6,9.3h1.824v2.663H10.6ZM5.709,6.481h0A1.737,1.737,0,1,1,3.476,8.146,1.738,1.738,0,0,1,5.709,6.481ZM6.95,9.675v2.292H3.476V9.675a2.311,2.311,0,0,0,3.474,0ZM9.475,1.689a2.036,2.036,0,0,0-.035.377,2.014,2.014,0,0,0,.17.814L4.027,3.56a2.026,2.026,0,0,0-.54-1.743ZM1.97,4.67a1.446,1.446,0,1,1,1.393-.883,1.489,1.489,0,0,1-.068.14,1.453,1.453,0,0,1-1.173.741A.29.29,0,0,0,1.97,4.67Zm.619.5a2.039,2.039,0,0,0,1-.66l1.4,1.33a2.333,2.333,0,0,0-1.387.64Zm11.4,8.855a.86.86,0,0,1-.612.254H1.45a.866.866,0,0,1,0-1.732H3.187l.035,0H7.2l.035,0h3.069l.035,0h2.332l.035,0h.666a.866.866,0,0,1,.612,1.478Z" transform="translate(0 -0.04)" fill="#413d5d"/>
        </g>
      </g>
      <g id="Group_498" data-name="Group 498" transform="translate(10.598 1.158)">
        <g id="Group_497" data-name="Group 497">
          <path id="Path_2342" data-name="Path 2342" d="M366.833,40.028a.868.868,0,1,0,.868.868A.869.869,0,0,0,366.833,40.028Zm0,1.158a.289.289,0,1,1,.29-.289A.29.29,0,0,1,366.833,41.186Z" transform="translate(-365.965 -40.028)" fill="#413d5d"/>
        </g>
      </g>
      <g id="Group_500" data-name="Group 500" transform="translate(1.16 2.316)">
        <g id="Group_499" data-name="Group 499">
          <path id="Path_2343" data-name="Path 2343" d="M40.936,80.016a.868.868,0,1,0,.868.868A.869.869,0,0,0,40.936,80.016Zm0,1.158a.289.289,0,1,1,.289-.289A.29.29,0,0,1,40.936,81.174Z" transform="translate(-40.068 -80.016)" fill="#413d5d"/>
        </g>
      </g>
      <g id="Group_502" data-name="Group 502" transform="translate(4.055 6.948)">
        <g id="Group_501" data-name="Group 501">
          <path id="Path_2344" data-name="Path 2344" d="M141.195,239.965a1.158,1.158,0,1,0,1.158,1.158A1.159,1.159,0,0,0,141.195,239.965Zm0,1.737a.579.579,0,1,1,.579-.579A.58.58,0,0,1,141.195,241.7Z" transform="translate(-140.037 -239.965)" fill="#413d5d"/>
        </g>
      </g>
    </g>
    <g id="robotic" transform="translate(220.168 1092.171)">
      <g id="Group_470" data-name="Group 470" transform="translate(2.136 2.239)">
        <g id="Group_469" data-name="Group 469" transform="translate(0)">
          <path id="Path_2328" data-name="Path 2328" d="M158.705,105.178a.681.681,0,1,0,.681.681A.681.681,0,0,0,158.705,105.178Zm0,1.022a.34.34,0,1,1,0-.68v0a.341.341,0,1,1,0,.681Z" transform="translate(-158.024 -105.178)" fill="#413d5d"/>
        </g>
      </g>
      <g id="Group_472" data-name="Group 472" transform="translate(4.084 2.239)">
        <g id="Group_471" data-name="Group 471" transform="translate(0)">
          <path id="Path_2329" data-name="Path 2329" d="M250.225,105.178a.681.681,0,1,0,.681.681A.681.681,0,0,0,250.225,105.178Zm0,1.022a.34.34,0,1,1,0-.68v0a.341.341,0,0,1,0,.681Z" transform="translate(-249.544 -105.178)" fill="#413d5d"/>
        </g>
      </g>
      <g id="Group_474" data-name="Group 474" transform="translate(0.725 0)">
        <g id="Group_473" data-name="Group 473" transform="translate(0)">
          <path id="Path_2330" data-name="Path 2330" d="M97.877,3.024a.949.949,0,0,0-.806-.77,1.022,1.022,0,0,0-1.087-.77H95V1.109a.567.567,0,1,0-.341,0v.366h-.986a1.05,1.05,0,0,0-1.09.77.949.949,0,0,0-.039,1.873l0,.009a1.048,1.048,0,0,0,1.129,1.022h2.316a1.042,1.042,0,0,0,1.129-1.022A.949.949,0,0,0,97.877,3.024Zm-5.343.762a.606.606,0,0,1,0-1.165ZM94.6.578A.227.227,0,1,1,94.826.8.227.227,0,0,1,94.6.578ZM96.777,4a.72.72,0,0,1-.794.794H93.669A.72.72,0,0,1,92.876,4l0-1.383a.719.719,0,0,1,.794-.794h2.316a.719.719,0,0,1,.794.794Zm.334-.23V2.61a.606.606,0,0,1,0,1.165Z" transform="translate(-91.76 -0.001)" fill="#413d5d"/>
        </g>
      </g>
      <g id="Group_476" data-name="Group 476" transform="translate(2.647 4.065)">
        <g id="Group_475" data-name="Group 475" transform="translate(0)">
          <path id="Path_2331" data-name="Path 2331" d="M184.143,190.938h-1.948a.17.17,0,0,0,0,.341h1.948a.17.17,0,0,0,0-.341Z" transform="translate(-182.024 -190.938)" fill="#413d5d"/>
        </g>
      </g>
      <g id="Group_478" data-name="Group 478" transform="translate(0 4.804)">
        <g id="Group_477" data-name="Group 477">
          <path id="Path_2332" data-name="Path 2332" d="M65.274,226.3h0a.661.661,0,0,0-1.3-.143l-.455.089h-4.06L59,226.158a.661.661,0,1,0-.814.78v1.272a.661.661,0,0,0-.49.635v.3a.17.17,0,0,0,.341,0v-.3a.32.32,0,1,1,.64,0v.3a.17.17,0,0,0,.341,0v-.3a.661.661,0,0,0-.49-.635v-1.272a.659.659,0,0,0,.456-.436l.284.056v2.1a2.2,2.2,0,0,0,.191.894v.015a2.214,2.214,0,0,0,4.036,0l.009-.019a2.2,2.2,0,0,0,.2-.891v-2.1l.284-.056a.659.659,0,0,0,.456.436v1.272a.661.661,0,0,0-.49.635v.3a.17.17,0,0,0,.341,0v-.3a.32.32,0,0,1,.64,0v.3a.17.17,0,0,0,.341,0v-.3a.661.661,0,0,0-.491-.635v-1.272A.661.661,0,0,0,65.274,226.3Zm-6.918.32a.32.32,0,1,1,.32-.32A.32.32,0,0,1,58.356,226.621Zm3.129,3.912a1.873,1.873,0,0,1-1.582-.87h3.164A1.873,1.873,0,0,1,61.484,230.533Zm1.873-1.873a1.873,1.873,0,0,1-.124.664h-3.5a1.873,1.873,0,0,1-.124-.664v-2.073h3.75Zm1.257-2.039h0l0-.005a.226.226,0,1,1,.005.005Z" transform="translate(-57.693 -225.638)" fill="#413d5d"/>
        </g>
      </g>
      <g id="Group_480" data-name="Group 480" transform="translate(3.196 5.988)">
        <g id="Group_479" data-name="Group 479">
          <path id="Path_2333" data-name="Path 2333" d="M209.015,282.22a.17.17,0,0,0-.114-.044h-.511l.627-.644a.17.17,0,0,0-.244-.237l-.908.933a.17.17,0,0,0,.123.289h.525l-.645.719a.17.17,0,0,0,.012.24h0a.17.17,0,0,0,.24-.012l.908-1A.17.17,0,0,0,209.015,282.22Z" transform="translate(-207.817 -281.253)" fill="#413d5d"/>
        </g>
      </g>
    </g>
    <g id="blockchain" transform="translate(110.633 1081.248)">
      <path id="Path_2322" data-name="Path 2322" d="M24.076,10.633a.475.475,0,0,0,.25-.418V6.889a.485.485,0,0,0-.25-.418L20.043,4.278a.475.475,0,0,0-.465.829l.2.111L17.449,6.47a.485.485,0,0,0-.25.418v2.9l-1.855.218L12.638,8.553V7.41l2.838-1.528a.475.475,0,0,0,.25-.418V2.948l.536.3a.474.474,0,0,0,.647-.182.474.474,0,0,0-.182-.647L12.388.056a.475.475,0,0,0-.451,0L7.6,2.42a.475.475,0,1,0,.465.829l.536-.3V5.463a.475.475,0,0,0,.25.418L11.688,7.41V8.553L8.981,10.01,7.127,9.792v-2.9a.486.486,0,0,0-.25-.418L4.55,5.218l.2-.111a.475.475,0,1,0-.465-.829L.25,6.47A.492.492,0,0,0,0,6.889v3.326a.475.475,0,0,0,.25.418l2.838,1.528V12.5L.25,14.025a.486.486,0,0,0-.25.418v3.326a.475.475,0,0,0,.25.418l3.938,2.088a.475.475,0,0,0,.425-.85l-.018-.009,2.282-1.229a.475.475,0,0,0,.25-.418V14.812l1.886-.481,2.675,1.441v1.143L8.849,18.443a.486.486,0,0,0-.25.418v2.557l-.587-.294a.475.475,0,0,0-.425.85l4.351,2.294a.488.488,0,0,0,.225.057.482.482,0,0,0,.225-.057l4.35-2.294a.475.475,0,1,0-.425-.85l-.587.293V18.862a.486.486,0,0,0-.25-.418l-2.838-1.528V15.772l2.675-1.441,1.886.481v2.957a.475.475,0,0,0,.25.418l2.282,1.229-.018.009a.475.475,0,0,0,.213.9.471.471,0,0,0,.212-.05l3.938-2.088a.475.475,0,0,0,.25-.418V14.443a.486.486,0,0,0-.25-.418L21.238,12.5v-.335Zm-6.464,3.3-1.886-.481V10.922l1.855-.218,2.706,1.457V12.5Zm2.675-5.1v2.247L18.149,9.931V7.684Zm.95,2.247V8.835l2.138-1.151V9.931Zm-.475-5.317,2.086,1.123L20.763,8.012,18.676,6.889Zm-8.124.565V4.084l2.138-1.151V5.18Zm-.475-5.317,2.086,1.123L12.163,3.261,10.077,2.138ZM9.55,2.933l2.138,1.151V6.331L9.55,5.18Zm2.613,6.443L14.249,10.5l-2.086,1.123L10.077,10.5ZM6.714,13.937,4.038,12.5v-.335L6.745,10.7l1.855.218v2.534ZM6.177,7.684V9.931L4.038,11.082V8.835ZM3.563,5.765,5.649,6.889,3.563,8.012,1.477,6.889ZM.95,7.684,3.088,8.835v2.247L.95,9.931ZM3.563,13.32l2.086,1.123L3.563,15.566,1.477,14.443ZM.95,15.239,3.088,16.39v2.247L.95,17.485Zm3.088,3.4V16.39l2.138-1.151v2.247ZM9.55,11.3l2.138,1.151v2.247L9.55,13.542Zm2.138,9.513v2.247L9.55,21.9V19.657Zm.95,2.247V20.808l2.138-1.151V21.9Zm-.475-3.07-2.086-1.123,2.086-1.123,2.086,1.123Zm.475-5.292V12.446L14.776,11.3v2.247Zm5.511.546,2.138,1.151v2.247l-2.138-1.151Zm3.088,3.4V16.39l2.138-1.151v2.247Zm-.475-3.07-2.086-1.123,2.086-1.123,2.086,1.123Z" transform="translate(0 0)" fill="#413d5d"/>
      <path id="Path_2323" data-name="Path 2323" d="M372.307,70.109a.475.475,0,1,0-.225-.286A.473.473,0,0,0,372.307,70.109Z" transform="translate(-354.386 -65.931)" fill="#413d5d"/>
      <path id="Path_2324" data-name="Path 2324" d="M374.088,425.69a.47.47,0,0,0-.212.05.475.475,0,0,0,.213.9.475.475,0,0,0,0-.951Z" transform="translate(-355.862 -405.465)" fill="#413d5d"/>
      <path id="Path_2325" data-name="Path 2325" d="M120.4,70.17a.475.475,0,1,0-.415-.243A.473.473,0,0,0,120.4,70.17Z" transform="translate(-114.229 -65.931)" fill="#413d5d"/>
      <path id="Path_2326" data-name="Path 2326" d="M119.073,425.74a.475.475,0,1,0,.212.638A.476.476,0,0,0,119.073,425.74Z" transform="translate(-112.76 -405.465)" fill="#413d5d"/>
    </g>
    <g id="website" transform="translate(146.321 1043.607)">
      <g id="Group_504" data-name="Group 504" transform="translate(0 0)">
        <g id="Group_503" data-name="Group 503">
          <path id="Path_2345" data-name="Path 2345" d="M12.119,8.533H.866A.867.867,0,0,0,0,9.4v7.142a.217.217,0,0,0,.216.216H12.769a.217.217,0,0,0,.216-.216V9.4A.867.867,0,0,0,12.119,8.533Zm.433,7.791H.433V9.4a.434.434,0,0,1,.433-.433H12.119a.434.434,0,0,1,.433.433Z" transform="translate(0 -8.533)" fill="#413d5d"/>
        </g>
      </g>
      <g id="Group_506" data-name="Group 506" transform="translate(0 7.791)">
        <g id="Group_505" data-name="Group 505">
          <path id="Path_2346" data-name="Path 2346" d="M12.769,315.733H.216a.217.217,0,0,0-.216.216v1.082a.867.867,0,0,0,.866.866H12.119a.867.867,0,0,0,.866-.866v-1.082A.217.217,0,0,0,12.769,315.733Zm-.216,1.3a.434.434,0,0,1-.433.433H.866a.434.434,0,0,1-.433-.433v-.865h12.12v.865Z" transform="translate(0 -315.733)" fill="#413d5d"/>
        </g>
      </g>
      <g id="Group_508" data-name="Group 508" transform="translate(5.627 8.657)">
        <g id="Group_507" data-name="Group 507">
          <path id="Path_2347" data-name="Path 2347" d="M223.382,349.867h-1.3a.216.216,0,1,0,0,.433h1.3a.216.216,0,1,0,0-.433Z" transform="translate(-221.867 -349.867)" fill="#413d5d"/>
        </g>
      </g>
      <g id="Group_510" data-name="Group 510" transform="translate(0.866 0.866)">
        <g id="Group_509" data-name="Group 509">
          <path id="Path_2348" data-name="Path 2348" d="M45.172,42.667H34.35a.217.217,0,0,0-.216.216v6.926a.217.217,0,0,0,.216.216H45.172a.217.217,0,0,0,.216-.216V42.883A.217.217,0,0,0,45.172,42.667Zm-.216,6.926H34.567V43.1H44.955v6.493Z" transform="translate(-34.134 -42.667)" fill="#413d5d"/>
        </g>
      </g>
      <g id="Group_512" data-name="Group 512" transform="translate(3.03 11.254)">
        <g id="Group_511" data-name="Group 511">
          <path id="Path_2349" data-name="Path 2349" d="M125.743,452.267h-5.627a.649.649,0,1,0,0,1.3h5.627a.649.649,0,1,0,0-1.3Zm0,.866h-5.627a.216.216,0,1,1,0-.433h5.627a.216.216,0,1,1,0,.433Z" transform="translate(-119.467 -452.267)" fill="#413d5d"/>
        </g>
      </g>
      <g id="Group_514" data-name="Group 514" transform="translate(3.896 9.523)">
        <g id="Group_513" data-name="Group 513">
          <path id="Path_2350" data-name="Path 2350" d="M158.579,385.732c-.718,0-1.082-.51-1.082-1.515a.217.217,0,0,0-.216-.216h-2.164a.216.216,0,0,0-.216.216c0,1.005-.364,1.515-1.082,1.515a.216.216,0,0,0,0,.433h4.761a.216.216,0,1,0,0-.433Zm-3.707,0a2.073,2.073,0,0,0,.455-1.3h1.743a2.071,2.071,0,0,0,.455,1.3Z" transform="translate(-153.601 -384.001)" fill="#413d5d"/>
        </g>
      </g>
      <g id="Group_516" data-name="Group 516" transform="translate(7.576 4.545)">
        <g id="Group_515" data-name="Group 515">
          <path id="Path_2351" data-name="Path 2351" d="M301.489,189.563l-.522-.522.291-.291a.216.216,0,0,0-.091-.36L299,187.74a.217.217,0,0,0-.269.269l.649,2.164a.216.216,0,0,0,.36.091l.306-.306.522.523a.216.216,0,0,0,.306,0l.612-.612A.216.216,0,0,0,301.489,189.563Zm-.765.459-.476-.476a.283.283,0,0,0-.4,0l-.156.156-.43-1.432,1.432.43-.168.168a.245.245,0,0,0,0,.346l.5.5Z" transform="translate(-298.723 -187.731)" fill="#413d5d"/>
        </g>
      </g>
      <g id="Group_518" data-name="Group 518" transform="translate(2.814 1.731)">
        <g id="Group_517" data-name="Group 517">
          <path id="Path_2352" data-name="Path 2352" d="M117.21,76.8h-6.06a.216.216,0,0,0-.216.216V78.1a.216.216,0,0,0,.216.216h6.06a.216.216,0,0,0,.216-.216V77.016A.216.216,0,0,0,117.21,76.8Zm-.216,1.082h-5.627v-.649h5.627Z" transform="translate(-110.934 -76.8)" fill="#413d5d"/>
        </g>
      </g>
      <g id="Group_520" data-name="Group 520" transform="translate(3.679 4.112)">
        <g id="Group_519" data-name="Group 519">
          <path id="Path_2353" data-name="Path 2353" d="M147.015,170.667h-1.731a.216.216,0,0,0-.216.216v.866a.217.217,0,0,0,.216.216h1.731a.217.217,0,0,0,.216-.216v-.866A.217.217,0,0,0,147.015,170.667Zm-.216.866h-1.3V171.1h1.3Z" transform="translate(-145.067 -170.667)" fill="#413d5d"/>
        </g>
      </g>
      <g id="Group_522" data-name="Group 522" transform="translate(2.814 1.731)">
        <g id="Group_521" data-name="Group 521">
          <path id="Path_2354" data-name="Path 2354" d="M117.21,76.8h-6.06a.216.216,0,0,0-.216.216v4.112a.217.217,0,0,0,.216.216H116.3a.217.217,0,0,0,.207-.279l-.274-.914.912.274a.216.216,0,0,0,.279-.207v-3.2A.217.217,0,0,0,117.21,76.8Zm-.216,3.128-1.019-.306a.217.217,0,0,0-.269.27l.306,1.02h-4.645V77.233h5.627Z" transform="translate(-110.934 -76.8)" fill="#413d5d"/>
        </g>
      </g>
    </g>
    <g id="_x33__13_" transform="translate(117.036 1046.422)">
      <g id="Group_468" data-name="Group 468">
        <path id="Path_2327" data-name="Path 2327" d="M21.021,46.659l-4.2,2.8a2.784,2.784,0,0,0-.985-2.118,4.895,4.895,0,1,0-5.944-.685H7.318A4.2,4.2,0,1,0,0,43.856a4.177,4.177,0,0,0,1.459,3.16A2.792,2.792,0,0,0,0,49.461v5.606a2.8,2.8,0,0,0,2.8,2.8H14.014a2.8,2.8,0,0,0,2.8-2.8l4.2,2.8a1.4,1.4,0,0,0,1.4-1.4V48.06A1.4,1.4,0,0,0,21.021,46.659Zm-16.817,0a2.8,2.8,0,1,1,2.8-2.8A2.8,2.8,0,0,1,4.2,46.659Zm9.109.008a3.511,3.511,0,1,1,3.511-3.511A3.511,3.511,0,0,1,13.314,46.666Z" transform="translate(0 -38.25)" fill="none" stroke="#413d5d" stroke-width="1"/>
      </g>
    </g>
    <text id="EMPO" transform="translate(138 1087)" fill="#fff" font-size="27" font-family="Montserrat-Regular, Montserrat"><tspan x="0" y="0">EMPO</tspan></text>
    <g id="Group_523" data-name="Group 523" transform="translate(219.894 1053.679)">
      <path id="Path_2355" data-name="Path 2355" d="M62.743,145.251v3.891a.419.419,0,1,0,.838,0v-3.891a.419.419,0,1,0-.838,0Z" transform="translate(-60.263 -140.008)" fill="none" stroke="#413d5d" stroke-width="0.5"/>
      <path id="Path_2356" data-name="Path 2356" d="M1.164,32.362h.923V27.742a.586.586,0,0,0,.007-.067,3.585,3.585,0,1,1,7.17,0,.583.583,0,0,0,.009.089v4.6H10.2a1.185,1.185,0,0,0,1.164-1.2V28.748a1.2,1.2,0,0,0-.84-1.156,4.841,4.841,0,0,0-9.682,0A1.2,1.2,0,0,0,0,28.749v2.408A1.185,1.185,0,0,0,1.164,32.362Z" transform="translate(0 -22.804)" fill="none" stroke="#413d5d" stroke-width="0.5"/>
      <path id="Path_2357" data-name="Path 2357" d="M203.454,145.251v3.891a.419.419,0,1,0,.838,0v-3.891a.419.419,0,1,0-.838,0Z" transform="translate(-195.411 -140.008)" fill="none" stroke="#413d5d" stroke-width="0.5"/>
    </g>
    <g id="hourglass" transform="translate(163.067 1047.386)">
      <path id="Path_2358" data-name="Path 2358" d="M9.317,5.075H9.053v-.35H8.613V3.831A.7.7,0,0,0,8.3,3.244l-.935-.619L8.3,2.006a.7.7,0,0,0,.316-.587V.525h.441V.175h.264a.088.088,0,1,0,0-.175H5.088a.088.088,0,1,0,0,.175h.264v.35h.441v.894a.7.7,0,0,0,.316.587l.935.619-.935.619a.7.7,0,0,0-.316.587v.894H5.352v.35H5.088a.088.088,0,1,0,0,.175H9.317a.088.088,0,1,0,0-.175ZM5.529.35V.175H8.877V.35H5.529Zm.678,1.511a.528.528,0,0,1-.238-.441V.525H8.436v.894a.528.528,0,0,1-.238.441l-1,.659Zm-.238,1.97a.528.528,0,0,1,.238-.441l1-.659,1,.659a.528.528,0,0,1,.238.441v.894H5.969ZM5.529,4.9H8.877v.175H5.529Z" transform="translate(-5 0)" fill="#413d5d"/>
      <path id="Path_2359" data-name="Path 2359" d="M18.281,13.476a.2.2,0,0,1-.088-.165V13.1a.1.1,0,0,0-.193,0v.214a.39.39,0,0,0,.174.326l.447.3a.1.1,0,1,0,.107-.16Z" transform="translate(-16.875 -11.885)" fill="#413d5d"/>
      <path id="Path_2360" data-name="Path 2360" d="M34.6,38.314l-.447-.3a.1.1,0,1,0-.107.16l.447.3a.2.2,0,0,1,.088.165v.214a.1.1,0,1,0,.193,0v-.214A.39.39,0,0,0,34.6,38.314Z" transform="translate(-31.49 -34.741)" fill="#413d5d"/>
    </g>
    <path id="music-player" d="M8.125.031A.122.122,0,0,0,8.029,0L4.281.487a.121.121,0,0,0-.105.12V4.912a1.255,1.255,0,0,0-.967-.438A1.155,1.155,0,0,0,2,5.562,1.155,1.155,0,0,0,3.209,6.65,1.155,1.155,0,0,0,4.418,5.562c0-.028,0-.056,0-.083a.116.116,0,0,0,0-.023V1.949L7.924,1.5V3.7a1.255,1.255,0,0,0-.967-.438A1.155,1.155,0,0,0,5.748,4.353,1.155,1.155,0,0,0,6.957,5.441,1.156,1.156,0,0,0,8.165,4.369s0,0,0,0V.122A.121.121,0,0,0,8.125.031Z" transform="translate(162.165 1055.823)" fill="none" stroke="#413d5d" stroke-width="0.58"/>
    <g id="piggy-bank" transform="translate(174.597 1037.825)">
      <g id="Group_525" data-name="Group 525" transform="translate(18.701 13.024)">
        <g id="Group_524" data-name="Group 524">
          <path id="Path_2361" data-name="Path 2361" d="M383.253,270.613a.365.365,0,0,0-.366.365.464.464,0,1,1-.928,0,.365.365,0,0,0-.731,0,1.2,1.2,0,1,0,2.39,0A.365.365,0,0,0,383.253,270.613Z" transform="translate(-381.228 -270.613)" fill="#413d5d"/>
        </g>
      </g>
      <g id="Group_527" data-name="Group 527" transform="translate(0 0)">
        <g id="Group_526" data-name="Group 526">
          <path id="Path_2362" data-name="Path 2362" d="M24.156,18.2l-1.029-.33a.43.43,0,0,1-.278-.281,6.633,6.633,0,0,0-.972-1.924,7.058,7.058,0,0,0-.65-.766,9.066,9.066,0,0,0,.224-2.07c-.015-.931-.2-1.477-.569-1.67-.2-.1-.8-.419-4.061,1.073a1.186,1.186,0,0,0-.216.129c-.22-.059-.444-.114-.671-.163l-.083-.017a4.979,4.979,0,0,0,.447-1.851.366.366,0,0,0-.73-.033,4.253,4.253,0,0,1-2.782,3.8,10.6,10.6,0,0,0-2.942,0A4.256,4.256,0,1,1,15.12,8.189a.366.366,0,0,0,.653-.329,4.989,4.989,0,1,0-7.1,6.472h0q-.341.089-.676.2a.366.366,0,0,0,.232.693,9.809,9.809,0,0,1,6.182,0,.366.366,0,0,0,.232-.693q-.335-.112-.676-.2h0a4.984,4.984,0,0,0,1.517-1.483c.1.02.2.04.3.061q.2.043.391.091c0,.016-.008.032-.012.048a4.359,4.359,0,0,0,.034,2.224,2.646,2.646,0,0,0,.969,1.363,3.075,3.075,0,0,0,1.8.571,2.412,2.412,0,0,0,1.166-.27,2.226,2.226,0,0,0,.859-1.22q.158.184.3.378a5.9,5.9,0,0,1,.866,1.712,1.162,1.162,0,0,0,.752.758l1.029.33a.647.647,0,0,1,.451.618v1.706a.647.647,0,0,1-.451.618l-1.657.531a1.129,1.129,0,0,0-.632.513A7.285,7.285,0,0,1,18.6,25.649a.573.573,0,0,0-.3.4l-.531,2.811a.164.164,0,0,1-.161.134H15.882a.164.164,0,0,1-.161-.134l-.294-1.553a.574.574,0,0,0-.653-.462,15.279,15.279,0,0,1-2.277.169,14.573,14.573,0,0,1-1.675-.095.579.579,0,0,0-.633.465l-.279,1.476A.164.164,0,0,1,9.747,29H8.021a.165.165,0,0,1-.162-.135l-.511-2.655a.574.574,0,0,0-.295-.4,6.455,6.455,0,0,1-3.565-6.015,7.027,7.027,0,0,1,.884-3.572A6.377,6.377,0,0,1,6.748,13.9a.366.366,0,0,0-.366-.633,6.957,6.957,0,0,0-3.53,5.2h0l-.105-.01a1.82,1.82,0,0,0-.134-.729,1.5,1.5,0,0,0-1.11-.969,1.01,1.01,0,0,0-.951.424.963.963,0,0,0-.183,1.05c.184.379.657.648,1.443.816q-.032.048-.071.1a1.794,1.794,0,0,1-1.366.723A.384.384,0,0,0,0,20.25v0a.383.383,0,0,0,.367.382l.082,0A2.374,2.374,0,0,0,2.311,19.6a2.084,2.084,0,0,0,.267-.431l.2.02h0c-.012.2-.019.4-.019.6a7.533,7.533,0,0,0,1.078,4.034,7.39,7.39,0,0,0,2.809,2.592L7.142,29a.9.9,0,0,0,.88.729H9.747a.9.9,0,0,0,.88-.729l.253-1.335a15.4,15.4,0,0,0,1.617.084,16.058,16.058,0,0,0,2.24-.156L15,29a.9.9,0,0,0,.88.729h1.726a.9.9,0,0,0,.88-.729L19,26.263a7.969,7.969,0,0,0,3.272-3.016.4.4,0,0,1,.222-.183l1.657-.531a1.376,1.376,0,0,0,.959-1.315V19.513A1.376,1.376,0,0,0,24.156,18.2Zm-3.491-4.344a3.894,3.894,0,0,1-.9,2.447,2.237,2.237,0,0,1-2.173-.255,2.62,2.62,0,0,1-.72-2.845h0a.441.441,0,0,1,.251-.305A10.622,10.622,0,0,1,20.4,11.784a.382.382,0,0,1,.133.018A3.728,3.728,0,0,1,20.665,13.854ZM1.026,17.912c-.038-.078.051-.215.108-.29a.292.292,0,0,1,.235-.143l.037,0A.8.8,0,0,1,1.934,18a1.11,1.11,0,0,1,.076.345C1.5,18.24,1.112,18.089,1.026,17.912Z" transform="translate(0 -5.115)" fill="#413d5d"/>
        </g>
      </g>
      <g id="Group_529" data-name="Group 529" transform="translate(9.95 2.347)">
        <g id="Group_528" data-name="Group 528">
          <path id="Path_2363" data-name="Path 2363" d="M204.565,55.182V53.874c.451.032.619.238.773.238.193,0,.284-.245.284-.367,0-.316-.619-.451-1.057-.464v-.174c0-.077-.1-.148-.193-.148a.17.17,0,0,0-.187.148v.187a1.2,1.2,0,0,0-1.224,1.2c0,.825.644,1.057,1.224,1.263V57.27c-.657-.052-.831-.5-1.044-.5-.161,0-.3.213-.3.367,0,.316.541.747,1.34.76h0v.2a.17.17,0,0,0,.187.148c.1,0,.193-.071.193-.148v-.219a1.248,1.248,0,0,0,1.173-1.327C205.738,55.672,205.126,55.388,204.565,55.182Zm-.342-.122c-.342-.129-.619-.264-.619-.631,0-.335.258-.5.619-.541Zm.3,2.2V55.9a.754.754,0,0,1,.567.722A.613.613,0,0,1,204.527,57.257Z" transform="translate(-202.845 -52.959)" fill="#413d5d"/>
        </g>
      </g>
    </g>
    <g id="alarm-clock" transform="translate(151.263 1059.126)">
      <path id="Path_2364" data-name="Path 2364" d="M26.729,16.7h-.787a.44.44,0,0,0-.315-.315V15.263a.11.11,0,1,0-.22,0v1.118a.44.44,0,1,0,.535.535h.787a.11.11,0,1,0,0-.22Zm-1.212.331a.22.22,0,1,1,.22-.22A.221.221,0,0,1,25.517,17.027Z" transform="translate(-22.321 -13.483)" fill="#413d5d"/>
      <path id="Path_2365" data-name="Path 2365" d="M5.6,1.077l.451.451a.11.11,0,0,0,.156,0A.9.9,0,0,0,4.944.262a.11.11,0,0,0,0,.156l.5.5-.187.187a2.969,2.969,0,0,0-3.967,0L1.1.921l.5-.5a.11.11,0,0,0,0-.156A.9.9,0,0,0,.342,1.528a.11.11,0,0,0,.156,0l.451-.451.185.185a2.971,2.971,0,0,0,.634,4.627l-.334.334a.11.11,0,1,0,.156.156L1.97,6A2.969,2.969,0,0,0,4.581,6l.38.38a.11.11,0,1,0,.156-.156l-.334-.334a2.971,2.971,0,0,0,.634-4.627ZM6.054.418a.676.676,0,0,1,.072.87L5.184.347A.676.676,0,0,1,6.054.418Zm-5.628.87A.675.675,0,0,1,1.367.347Zm2.85,4.791A2.755,2.755,0,1,1,6.031,3.324,2.759,2.759,0,0,1,3.276,6.079Z" transform="translate(-0.08 -0.001)" fill="#413d5d"/>
      <path id="Path_2366" data-name="Path 2366" d="M10.8,8.415A2.553,2.553,0,0,0,9.884,7.5l0,0-.006,0a2.526,2.526,0,0,0-2.523,0l-.006,0,0,0a2.552,2.552,0,0,0-.919.919l0,0a.056.056,0,0,0,0,.006,2.526,2.526,0,0,0,0,2.523s0,0,0,.006l.006.007a2.554,2.554,0,0,0,.918.916l0,0,.009,0a2.526,2.526,0,0,0,2.517,0l.009,0,0,0a2.553,2.553,0,0,0,.918-.916l.006-.007a.056.056,0,0,0,0-.006,2.526,2.526,0,0,0,0-2.523s0,0,0-.006Zm-.941,3.217-.053-.091a.11.11,0,0,0-.191.11l.053.091A2.3,2.3,0,0,1,8.722,12v-.1a.11.11,0,1,0-.22,0V12a2.3,2.3,0,0,1-.949-.254l.053-.091a.11.11,0,0,0-.191-.11l-.053.091a2.329,2.329,0,0,1-.695-.695l.091-.053a.11.11,0,1,0-.11-.191l-.091.053A2.3,2.3,0,0,1,6.3,9.8h.1a.11.11,0,1,0,0-.22H6.3a2.3,2.3,0,0,1,.254-.949l.091.053a.11.11,0,0,0,.11-.191l-.091-.053a2.33,2.33,0,0,1,.695-.695l.053.091a.11.11,0,0,0,.191-.11l-.053-.091A2.3,2.3,0,0,1,8.5,7.378v.1a.11.11,0,0,0,.22,0v-.1a2.3,2.3,0,0,1,.949.254l-.053.091a.11.11,0,1,0,.191.11l.053-.091a2.329,2.329,0,0,1,.695.695l-.091.053a.11.11,0,1,0,.11.191l.091-.053a2.3,2.3,0,0,1,.254.949h-.1a.11.11,0,0,0,0,.22h.1a2.3,2.3,0,0,1-.254.949l-.091-.053a.11.11,0,1,0-.11.191l.091.053A2.325,2.325,0,0,1,9.862,11.632Z" transform="translate(-5.416 -6.364)" fill="#413d5d"/>
    </g>
    <g id="wrench" transform="translate(207.54 1039.093)">
      <g id="Group_531" data-name="Group 531" transform="translate(4.493 0)">
        <g id="Group_530" data-name="Group 530" transform="translate(0)">
          <path id="Path_2367" data-name="Path 2367" d="M244.819.879l-.58-.58A1.06,1.06,0,0,0,242.817.25l-1.02.884a.165.165,0,0,0-.033.039l-.992,1.653-.637.212a.164.164,0,0,0-.064.271l1.737,1.737a.164.164,0,0,0,.271-.064l.212-.637,1.678-1.013a.164.164,0,0,0,.039-.033l.863-1A1.061,1.061,0,0,0,244.819.879Zm-.2,1.206-.846.98L242.07,4.1a.164.164,0,0,0-.071.088l-.148.443-.391-.391h0l-.579-.579h0l-.391-.391.443-.148a.164.164,0,0,0,.089-.071l1.01-1.683,1-.867a.727.727,0,0,1,.975.033l.58.58A.728.728,0,0,1,244.623,2.085Z" transform="translate(-240.023 0)" fill="#413d5d"/>
        </g>
      </g>
      <g id="Group_533" data-name="Group 533" transform="translate(0 0.302)">
        <g id="Group_532" data-name="Group 532" transform="translate(0)">
          <path id="Path_2368" data-name="Path 2368" d="M10.576,22.3a1.8,1.8,0,0,0-1.829-.44l-3.48-3.48a1.8,1.8,0,0,0-2.372-2.233.164.164,0,0,0-.056.268L3.88,17.458l-.695.695L2.144,17.111a.164.164,0,0,0-.268.056,1.8,1.8,0,0,0,2.233,2.372l1.3,1.3L3.79,22.461l-1.031.576a.164.164,0,0,0-.067.07l-.463.926a.164.164,0,0,0,.031.189l.579.579a.164.164,0,0,0,.189.031l.926-.463a.164.164,0,0,0,.07-.067L4.6,23.271l1.621-1.62,1.368,1.368a1.8,1.8,0,0,0,2.372,2.233.164.164,0,0,0,.056-.268L8.975,23.942l.695-.695,1.042,1.042a.164.164,0,0,0,.268-.056A1.8,1.8,0,0,0,10.576,22.3Zm-6.224.755a.163.163,0,0,0-.027.036L3.762,24.1l-.776.388-.412-.412.388-.776,1.006-.563a.163.163,0,0,0,.036-.027l1.637-1.637.347.347Zm6.4.807L9.785,22.9a.164.164,0,0,0-.232,0l-.926.926a.164.164,0,0,0,0,.232l.963.963a1.474,1.474,0,0,1-1.66-1.984.164.164,0,0,0-.037-.176L4.267,19.234a.164.164,0,0,0-.176-.037,1.474,1.474,0,0,1-1.984-1.66l.963.963a.164.164,0,0,0,.232,0l.926-.926a.164.164,0,0,0,0-.232l-.963-.963a1.474,1.474,0,0,1,1.66,1.984.164.164,0,0,0,.037.176l3.626,3.626a.164.164,0,0,0,.176.037,1.474,1.474,0,0,1,1.984,1.66Z" transform="translate(-1.752 -16.024)" fill="#413d5d"/>
        </g>
      </g>
    </g>
    <g id="project-management" transform="translate(220.992 1043.718)">
      <g id="Group_535" data-name="Group 535" transform="translate(0 0.025)">
        <g id="Group_534" data-name="Group 534">
          <path id="Path_2369" data-name="Path 2369" d="M6.04,3.64h0l-.4-.056A.1.1,0,0,1,5.6,3.4l.32-.24a.1.1,0,0,0,.02-.142l-.366-.488a.1.1,0,0,0-.142-.02l-.32.24a.1.1,0,0,1-.162-.1L5,2.259a.1.1,0,0,0-.086-.115h0l-.6-.086a.1.1,0,0,0-.115.086h0l-.057.4a.1.1,0,0,1-.182.047l-.24-.32a.1.1,0,0,0-.142-.02l-.306.229a1.967,1.967,0,0,0-.416,0,1.932,1.932,0,0,0-1.7,1.732c0,.029,0,.057-.005.086H1.119a.1.1,0,0,0-.1.081l-.07.334L.667,4.515a.1.1,0,0,0-.13.012l-.305.305a.1.1,0,0,0-.012.13l.193.281-.334.07a.1.1,0,0,0-.08.1v.407a.1.1,0,0,0,.081.1l.334.07L.222,6.27a.1.1,0,0,0,.012.13L.539,6.7a.1.1,0,0,0,.13.012l.281-.194.07.334a.1.1,0,0,0,.1.081h.407a.1.1,0,0,0,.1-.081l.07-.334.281.193a.1.1,0,0,0,.13-.012l.158-.158v.29a.405.405,0,0,0,.2.35v.565a.407.407,0,0,0,.407.407h.407a.407.407,0,0,0,.407-.407V7.186a.405.405,0,0,0,.2-.35v-.4a.5.5,0,0,1,.235-.415,1.951,1.951,0,0,0,.239-.183l-.136-.151a1.731,1.731,0,0,1-.214.164.7.7,0,0,0-.328.586v.4a.2.2,0,0,1-.2.2H2.67a.2.2,0,0,1-.2-.2V6.425a.684.684,0,0,0-.323-.574,1.723,1.723,0,0,1,.911-3.182l0,.011a.1.1,0,0,0,.019.075l.24.32a.1.1,0,0,1,.006.113.1.1,0,0,1-.1.049l-.4-.057a.1.1,0,0,0-.115.086h0l-.086.6a.1.1,0,0,0,.086.115h0l.4.057a.1.1,0,0,1,.047.182l-.32.24a.1.1,0,0,0-.02.142l.366.488a.1.1,0,0,0,.142.02l.32-.24a.1.1,0,0,1,.162.1l-.056.4a.1.1,0,0,0,.086.115h0l.6.086h.014a.1.1,0,0,0,.1-.087l.056-.4a.1.1,0,0,1,.182-.047l.24.32a.1.1,0,0,0,.142.02l.488-.366a.1.1,0,0,0,.02-.142l-.24-.32a.1.1,0,0,1-.006-.113.1.1,0,0,1,.1-.049l.4.056a.1.1,0,0,0,.115-.086h0l.086-.6A.1.1,0,0,0,6.04,3.64Zm-3.37,3.6h.813v.2H2.67Zm0,.407h.813v.1a.2.2,0,0,1-.2.2H2.874a.2.2,0,0,1-.2-.2ZM1.861,5.9a1.922,1.922,0,0,0,.174.127.5.5,0,0,1,.2.26L2.022,6.5,1.81,6.354A.2.2,0,0,0,1.5,6.48l-.053.254H1.2L1.148,6.48a.2.2,0,0,0-.314-.126L.622,6.5.437,6.315.582,6.1A.2.2,0,0,0,.457,5.79L.2,5.736V5.495l.253-.053a.2.2,0,0,0,.126-.314L.437,4.916l.185-.185.211.146a.2.2,0,0,0,.314-.126l.018-.085a1.936,1.936,0,0,0,.081.345.61.61,0,1,0,.615.885ZM1.7,5.752a.406.406,0,1,1-.381-.544h0A1.926,1.926,0,0,0,1.7,5.752Zm4.15-1.523-.295-.042a.305.305,0,0,0-.287.485l.179.238-.325.244-.179-.238a.305.305,0,0,0-.546.14l-.041.3-.4-.058L4,5a.305.305,0,0,0-.485-.287l-.238.179-.244-.325.238-.179a.305.305,0,0,0-.14-.546L2.834,3.8l.058-.4.295.042a.305.305,0,0,0,.287-.485l-.179-.238L3.62,2.47l.179.238a.305.305,0,0,0,.546-.14l.042-.295.4.057-.042.295a.305.305,0,0,0,.485.287l.238-.179.244.325-.238.179a.305.305,0,0,0,.14.546l.295.042Z" transform="translate(0 -2.057)" fill="#413d5d"/>
        </g>
      </g>
      <g id="Group_537" data-name="Group 537" transform="translate(3.559 0.967)">
        <g id="Group_536" data-name="Group 536">
          <path id="Path_2370" data-name="Path 2370" d="M280.813,76.171a.813.813,0,1,0,.813.813A.813.813,0,0,0,280.813,76.171Zm0,1.423a.61.61,0,1,1,.61-.61A.61.61,0,0,1,280.813,77.594Z" transform="translate(-280 -76.171)" fill="#413d5d"/>
        </g>
      </g>
      <g id="Group_539" data-name="Group 539" transform="translate(2.975 4.499)">
        <g id="Group_538" data-name="Group 538">
          <rect id="Rectangle_2245" data-name="Rectangle 2245" width="0.203" height="0.305" fill="#413d5d"/>
        </g>
      </g>
      <g id="Group_541" data-name="Group 541" transform="translate(1.653 1.159)">
        <g id="Group_540" data-name="Group 540">
          <path id="Path_2371" data-name="Path 2371" d="M131.024,93.632a1.22,1.22,0,0,1-.206-2.169l-.109-.172a1.423,1.423,0,0,0,.241,2.53.649.649,0,0,1,.417.606h.2A.851.851,0,0,0,131.024,93.632Z" transform="translate(-130.044 -91.291)" fill="#413d5d"/>
        </g>
      </g>
      <g id="Group_543" data-name="Group 543" transform="translate(5.009 3.787)">
        <g id="Group_542" data-name="Group 542">
          <rect id="Rectangle_2246" data-name="Rectangle 2246" width="0.712" height="0.203" fill="#413d5d"/>
        </g>
      </g>
      <g id="Group_545" data-name="Group 545" transform="translate(4.842 4.319)">
        <g id="Group_544" data-name="Group 544" transform="translate(0 0)">
          <rect id="Rectangle_2247" data-name="Rectangle 2247" width="0.203" height="0.794" transform="matrix(0.64, -0.768, 0.768, 0.64, 0, 0.156)" fill="#413d5d"/>
        </g>
      </g>
      <g id="Group_547" data-name="Group 547" transform="translate(4.399 4.601)">
        <g id="Group_546" data-name="Group 546">
          <rect id="Rectangle_2248" data-name="Rectangle 2248" width="0.203" height="0.712" fill="#413d5d"/>
        </g>
      </g>
      <g id="Group_549" data-name="Group 549" transform="translate(0.104 1.553)">
        <g id="Group_548" data-name="Group 548" transform="translate(0 0)">
          <rect id="Rectangle_2249" data-name="Rectangle 2249" width="0.838" height="0.203" transform="translate(0 0.203) rotate(-14.035)" fill="#413d5d"/>
        </g>
      </g>
      <g id="Group_551" data-name="Group 551" transform="translate(0.273 0.553)">
        <g id="Group_550" data-name="Group 550" transform="translate(0 0)">
          <rect id="Rectangle_2250" data-name="Rectangle 2250" width="0.203" height="0.875" transform="matrix(0.581, -0.814, 0.814, 0.581, 0, 0.165)" fill="#413d5d"/>
        </g>
      </g>
      <g id="Group_553" data-name="Group 553" transform="translate(1.144 0)">
        <g id="Group_552" data-name="Group 552" transform="translate(0 0)">
          <rect id="Rectangle_2251" data-name="Rectangle 2251" width="0.203" height="0.84" transform="matrix(0.969, -0.248, 0.248, 0.969, 0, 0.05)" fill="#413d5d"/>
        </g>
      </g>
    </g>
    <g id="project-management-2" data-name="project-management" transform="translate(126.556 1072.589)">
      <g id="Group_535-2" data-name="Group 535" transform="translate(0 0.03)">
        <g id="Group_534-2" data-name="Group 534">
          <path id="Path_2369-2" data-name="Path 2369" d="M7.078,3.911h0l-.463-.066a.119.119,0,0,1-.055-.213l.375-.281a.119.119,0,0,0,.024-.167l-.429-.572a.119.119,0,0,0-.167-.024l-.374.281a.119.119,0,0,1-.19-.112l.066-.463a.119.119,0,0,0-.1-.135h0l-.707-.1a.119.119,0,0,0-.135.1h0l-.066.463a.119.119,0,0,1-.213.055L4.36,2.3a.119.119,0,0,0-.167-.024l-.358.269a2.305,2.305,0,0,0-.487,0,2.264,2.264,0,0,0-2,2.03c0,.034,0,.067-.006.1H1.311a.119.119,0,0,0-.117.1l-.082.391-.33-.227a.119.119,0,0,0-.152.014l-.357.357a.119.119,0,0,0-.014.152l.226.329-.392.082A.119.119,0,0,0,0,5.988v.477a.119.119,0,0,0,.095.117l.392.082L.26,6.993a.119.119,0,0,0,.014.152L.631,7.5a.119.119,0,0,0,.152.014l.329-.227.082.392a.119.119,0,0,0,.117.1h.477A.119.119,0,0,0,1.9,7.681l.082-.392.329.226A.119.119,0,0,0,2.467,7.5l.185-.186v.34a.475.475,0,0,0,.238.41v.662a.477.477,0,0,0,.477.477h.477a.477.477,0,0,0,.477-.477V8.066a.475.475,0,0,0,.238-.41V7.185A.584.584,0,0,1,4.834,6.7a2.286,2.286,0,0,0,.28-.214l-.159-.178A2.028,2.028,0,0,1,4.7,6.5a.821.821,0,0,0-.384.686v.472a.238.238,0,0,1-.238.238H3.129a.238.238,0,0,1-.238-.238V7.175A.8.8,0,0,0,2.513,6.5,2.019,2.019,0,0,1,3.58,2.773l0,.013a.119.119,0,0,0,.023.088l.281.374a.117.117,0,0,1,.007.132.118.118,0,0,1-.119.057L3.3,3.372a.119.119,0,0,0-.135.1h0l-.1.708a.119.119,0,0,0,.1.135h0l.463.066a.119.119,0,0,1,.055.213l-.374.281a.119.119,0,0,0-.024.167l.429.572a.119.119,0,0,0,.167.024l.375-.281a.119.119,0,0,1,.189.112l-.066.463a.119.119,0,0,0,.1.135h0l.708.1h.017a.119.119,0,0,0,.118-.1L5.391,5.6A.119.119,0,0,1,5.6,5.55l.281.374a.119.119,0,0,0,.167.024l.572-.429a.119.119,0,0,0,.024-.167l-.281-.374a.117.117,0,0,1-.007-.132.116.116,0,0,1,.119-.057l.463.066a.119.119,0,0,0,.135-.1h0l.1-.708A.119.119,0,0,0,7.078,3.911ZM3.129,8.133h.953v.238H3.129Zm0,.477h.953v.119a.238.238,0,0,1-.238.238H3.367a.238.238,0,0,1-.238-.238ZM2.18,6.555a2.252,2.252,0,0,0,.2.148.582.582,0,0,1,.24.3l-.256.255-.247-.171a.238.238,0,0,0-.368.147l-.062.3H1.407l-.062-.3a.238.238,0,0,0-.368-.147l-.248.17L.512,7.046.682,6.8a.238.238,0,0,0-.147-.368l-.3-.063V6.085l.3-.063a.238.238,0,0,0,.147-.368L.512,5.407.729,5.19l.248.171a.238.238,0,0,0,.368-.147l.021-.1a2.269,2.269,0,0,0,.094.4.715.715,0,1,0,.72,1.036ZM2,6.387a.476.476,0,1,1-.447-.637h0A2.256,2.256,0,0,0,2,6.387ZM6.858,4.6l-.345-.049a.357.357,0,0,0-.336.568l.209.279L6,5.686l-.209-.279a.357.357,0,0,0-.64.164l-.048.346-.472-.067L4.684,5.5a.357.357,0,0,0-.568-.337l-.279.209L3.551,5l.279-.209a.357.357,0,0,0-.164-.64L3.321,4.1l.067-.472.345.049a.357.357,0,0,0,.337-.568l-.21-.279.381-.286.209.279a.357.357,0,0,0,.64-.164l.049-.345.472.067-.049.345a.357.357,0,0,0,.568.336l.279-.209.286.381-.279.209a.357.357,0,0,0,.164.64l.345.049Z" transform="translate(0 -2.057)" fill="#413d5d"/>
        </g>
      </g>
      <g id="Group_537-2" data-name="Group 537" transform="translate(4.17 1.133)">
        <g id="Group_536-2" data-name="Group 536">
          <path id="Path_2370-2" data-name="Path 2370" d="M280.953,76.171a.953.953,0,1,0,.953.953A.953.953,0,0,0,280.953,76.171Zm0,1.668a.715.715,0,1,1,.715-.715A.715.715,0,0,1,280.953,77.839Z" transform="translate(-280 -76.171)" fill="#413d5d"/>
        </g>
      </g>
      <g id="Group_539-2" data-name="Group 539" transform="translate(3.486 5.272)">
        <g id="Group_538-2" data-name="Group 538">
          <rect id="Rectangle_2245-2" data-name="Rectangle 2245" width="0.238" height="0.357" fill="#413d5d"/>
        </g>
      </g>
      <g id="Group_541-2" data-name="Group 541" transform="translate(1.937 1.358)">
        <g id="Group_540-2" data-name="Group 540">
          <path id="Path_2371-2" data-name="Path 2371" d="M131.192,94.034a1.43,1.43,0,0,1-.241-2.541l-.127-.2a1.668,1.668,0,0,0,.282,2.965.761.761,0,0,1,.488.71h.238A1,1,0,0,0,131.192,94.034Z" transform="translate(-130.044 -91.291)" fill="#413d5d"/>
        </g>
      </g>
      <g id="Group_543-2" data-name="Group 543" transform="translate(5.869 4.438)">
        <g id="Group_542-2" data-name="Group 542">
          <rect id="Rectangle_2246-2" data-name="Rectangle 2246" width="0.834" height="0.238" fill="#413d5d"/>
        </g>
      </g>
      <g id="Group_545-2" data-name="Group 545" transform="translate(5.674 5.061)">
        <g id="Group_544-2" data-name="Group 544" transform="translate(0 0)">
          <rect id="Rectangle_2247-2" data-name="Rectangle 2247" width="0.238" height="0.93" transform="matrix(0.64, -0.768, 0.768, 0.64, 0, 0.183)" fill="#413d5d"/>
        </g>
      </g>
      <g id="Group_547-2" data-name="Group 547" transform="translate(5.154 5.391)">
        <g id="Group_546-2" data-name="Group 546">
          <rect id="Rectangle_2248-2" data-name="Rectangle 2248" width="0.238" height="0.834" fill="#413d5d"/>
        </g>
      </g>
      <g id="Group_549-2" data-name="Group 549" transform="translate(0.122 1.82)">
        <g id="Group_548-2" data-name="Group 548" transform="translate(0 0)">
          <rect id="Rectangle_2249-2" data-name="Rectangle 2249" width="0.982" height="0.238" transform="translate(0 0.238) rotate(-14.035)" fill="#413d5d"/>
        </g>
      </g>
      <g id="Group_551-2" data-name="Group 551" transform="translate(0.32 0.648)">
        <g id="Group_550-2" data-name="Group 550" transform="translate(0 0)">
          <rect id="Rectangle_2250-2" data-name="Rectangle 2250" width="0.238" height="1.025" transform="matrix(0.581, -0.814, 0.814, 0.581, 0, 0.194)" fill="#413d5d"/>
        </g>
      </g>
      <g id="Group_553-2" data-name="Group 553" transform="translate(1.34 0)">
        <g id="Group_552-2" data-name="Group 552" transform="translate(0 0)">
          <rect id="Rectangle_2251-2" data-name="Rectangle 2251" width="0.238" height="0.984" transform="matrix(0.969, -0.248, 0.248, 0.969, 0, 0.059)" fill="#413d5d"/>
        </g>
      </g>
    </g>
    <g id="confetti" transform="translate(200.952 1056.998)">
      <g id="Group_555" data-name="Group 555" transform="translate(0 2.118)">
        <g id="Group_554" data-name="Group 554" transform="translate(0)">
          <path id="Path_2380" data-name="Path 2380" d="M6.191,116.97a.149.149,0,1,0-.281.1l0,.006c.136.355.146.627.027.746-.145.144-.5.1-.963-.12a6.386,6.386,0,0,1-1.653-1.233c-1.169-1.17-1.652-2.317-1.353-2.616a.408.408,0,0,1,.338-.079.149.149,0,0,0,.029-.3.688.688,0,0,0-.578.164c-.547.547.289,1.973,1.353,3.038a6.677,6.677,0,0,0,1.735,1.291,2.942,2.942,0,0,0,.36.144l-1.061.4a4.226,4.226,0,0,1-2.672-3.291.149.149,0,1,0-.3.046,4.52,4.52,0,0,0,2.564,3.4L2,119.331a.147.147,0,0,0-.03-.036,2.08,2.08,0,0,1-.77-1.446l-.069-.839a.148.148,0,0,0-.157-.137h0a.149.149,0,0,0-.137.161h0l.07.839a2.378,2.378,0,0,0,.79,1.573l-1.245.471L.668,119a.149.149,0,1,0-.29-.071l-.291,1.194a.149.149,0,0,0,.2.175l5.524-2.09a.139.139,0,0,0,.025-.016.58.58,0,0,0,.317-.158C6.3,117.887,6.425,117.582,6.191,116.97Z" transform="translate(-0.082 -113.468)" fill="#413d5d"/>
        </g>
      </g>
      <g id="Group_557" data-name="Group 557" transform="translate(4.333 4.923)">
        <g id="Group_556" data-name="Group 556">
          <path id="Path_2381" data-name="Path 2381" d="M235.478,264.093a4.916,4.916,0,0,0-2.529-.246l-.533.09a.149.149,0,0,0,.049.294l.533-.089a4.615,4.615,0,0,1,2.376.231.154.154,0,0,0,.052.009.149.149,0,0,0,.052-.289Z" transform="translate(-232.294 -263.781)" fill="#413d5d"/>
        </g>
      </g>
      <g id="Group_559" data-name="Group 559" transform="translate(4.629 2.837)">
        <g id="Group_558" data-name="Group 558">
          <path id="Path_2382" data-name="Path 2382" d="M251.545,152.082a.149.149,0,0,0-.2-.071l-3.135,1.493a.149.149,0,0,0-.071.2h0a.149.149,0,0,0,.2.071h0l3.135-1.493A.149.149,0,0,0,251.545,152.082Z" transform="translate(-248.126 -151.997)" fill="#413d5d"/>
        </g>
      </g>
      <g id="Group_561" data-name="Group 561" transform="translate(2.883 0.894)">
        <g id="Group_560" data-name="Group 560">
          <path id="Path_2383" data-name="Path 2383" d="M155.319,48.007a.149.149,0,1,0-.293.059v.005A4.176,4.176,0,0,1,154.8,50.6l-.217.521a.149.149,0,0,0,.08.195.147.147,0,0,0,.057.011.149.149,0,0,0,.138-.092l.217-.52A4.473,4.473,0,0,0,155.319,48.007Z" transform="translate(-154.576 -47.887)" fill="#413d5d"/>
        </g>
      </g>
      <g id="Group_563" data-name="Group 563" transform="translate(7.764 5.375)">
        <g id="Group_562" data-name="Group 562">
          <path id="Path_2384" data-name="Path 2384" d="M416.553,288a.448.448,0,1,0,.448.448A.448.448,0,0,0,416.553,288Zm0,.6a.149.149,0,1,1,.149-.149A.149.149,0,0,1,416.553,288.6Z" transform="translate(-416.105 -288)" fill="#413d5d"/>
        </g>
      </g>
      <g id="Group_565" data-name="Group 565" transform="translate(4.181 1.194)">
        <g id="Group_564" data-name="Group 564">
          <path id="Path_2385" data-name="Path 2385" d="M224.553,64a.448.448,0,1,0,.448.448A.448.448,0,0,0,224.553,64Zm0,.6a.149.149,0,1,1,.149-.149A.149.149,0,0,1,224.553,64.6Z" transform="translate(-224.105 -64)" fill="#413d5d"/>
        </g>
      </g>
      <g id="Group_567" data-name="Group 567" transform="translate(2.986)">
        <g id="Group_566" data-name="Group 566">
          <circle id="Ellipse_3234" data-name="Ellipse 3234" cx="0.299" cy="0.299" r="0.299" fill="#413d5d"/>
        </g>
      </g>
      <g id="Group_569" data-name="Group 569" transform="translate(7.316 0.746)">
        <g id="Group_568" data-name="Group 568">
          <path id="Path_2386" data-name="Path 2386" d="M392.254,40a.149.149,0,0,0-.149.149V40.3a.149.149,0,1,0,.3,0v-.149A.149.149,0,0,0,392.254,40Z" transform="translate(-392.105 -40)" fill="#413d5d"/>
        </g>
      </g>
      <g id="Group_571" data-name="Group 571" transform="translate(7.316)">
        <g id="Group_570" data-name="Group 570">
          <path id="Path_2387" data-name="Path 2387" d="M392.254,0a.149.149,0,0,0-.149.149V.3a.149.149,0,1,0,.3,0V.149A.149.149,0,0,0,392.254,0Z" transform="translate(-392.105)" fill="#413d5d"/>
        </g>
      </g>
      <g id="Group_573" data-name="Group 573" transform="translate(7.614 0.448)">
        <g id="Group_572" data-name="Group 572">
          <path id="Path_2388" data-name="Path 2388" d="M408.4,24h-.149a.149.149,0,0,0,0,.3h.149a.149.149,0,0,0,0-.3Z" transform="translate(-408.105 -24)" fill="#413d5d"/>
        </g>
      </g>
      <g id="Group_575" data-name="Group 575" transform="translate(6.868 0.448)">
        <g id="Group_574" data-name="Group 574">
          <path id="Path_2389" data-name="Path 2389" d="M368.4,24h-.149a.149.149,0,0,0,0,.3h.149a.149.149,0,0,0,0-.3Z" transform="translate(-368.105 -24)" fill="#413d5d"/>
        </g>
      </g>
      <g id="Group_577" data-name="Group 577" transform="translate(5.521 1.639)">
        <g id="Group_576" data-name="Group 576">
          <path id="Path_2390" data-name="Path 2390" d="M296.836,87.832h-.75a.149.149,0,0,0-.149.149v.75a.149.149,0,0,0,.149.149h.75a.149.149,0,0,0,.149-.149v-.75A.149.149,0,0,0,296.836,87.832Zm-.149.75h-.451v-.451h.451Z" transform="translate(-295.937 -87.832)" fill="#413d5d"/>
        </g>
      </g>
      <g id="Group_579" data-name="Group 579" transform="translate(3.584 2.839)">
        <g id="Group_578" data-name="Group 578">
          <path id="Path_2391" data-name="Path 2391" d="M193.856,152.152a.149.149,0,0,0-.207-.011l-1.493,1.344a.149.149,0,1,0,.2.222l1.493-1.344A.149.149,0,0,0,193.856,152.152Z" transform="translate(-192.107 -152.105)" fill="#413d5d"/>
        </g>
      </g>
      <g id="Group_581" data-name="Group 581" transform="translate(7.913 3.434)">
        <g id="Group_580" data-name="Group 580">
          <path id="Path_2392" data-name="Path 2392" d="M424.254,184a.149.149,0,0,0-.149.149v.149a.149.149,0,1,0,.3,0v-.149A.149.149,0,0,0,424.254,184Z" transform="translate(-424.105 -184)" fill="#413d5d"/>
        </g>
      </g>
      <g id="Group_583" data-name="Group 583" transform="translate(8.337 3.261)">
        <g id="Group_582" data-name="Group 582">
          <path id="Path_2393" data-name="Path 2393" d="M447.194,174.869l-.106-.106a.149.149,0,0,0-.211.211l.106.106a.149.149,0,0,0,.211-.211Z" transform="translate(-446.836 -174.722)" fill="#413d5d"/>
        </g>
      </g>
      <g id="Group_585" data-name="Group 585" transform="translate(8.51 2.837)">
        <g id="Group_584" data-name="Group 584">
          <path id="Path_2394" data-name="Path 2394" d="M456.4,152h-.149a.149.149,0,0,0,0,.3h.149a.149.149,0,0,0,0-.3Z" transform="translate(-456.105 -152)" fill="#413d5d"/>
        </g>
      </g>
      <g id="Group_587" data-name="Group 587" transform="translate(8.335 2.311)">
        <g id="Group_586" data-name="Group 586">
          <path id="Path_2395" data-name="Path 2395" d="M447.1,123.86a.149.149,0,0,0-.207,0l-.106.106a.149.149,0,0,0,.106.255h0a.149.149,0,0,0,.106-.044l.106-.106A.149.149,0,0,0,447.1,123.86Z" transform="translate(-446.739 -123.818)" fill="#413d5d"/>
        </g>
      </g>
      <g id="Group_589" data-name="Group 589" transform="translate(7.913 2.09)">
        <g id="Group_588" data-name="Group 588">
          <path id="Path_2396" data-name="Path 2396" d="M424.254,112a.149.149,0,0,0-.149.149v.149a.149.149,0,1,0,.3,0v-.149A.149.149,0,0,0,424.254,112Z" transform="translate(-424.105 -112)" fill="#413d5d"/>
        </g>
      </g>
      <g id="Group_591" data-name="Group 591" transform="translate(7.387 2.311)">
        <g id="Group_590" data-name="Group 590">
          <path id="Path_2397" data-name="Path 2397" d="M396.274,123.966l-.106-.106a.149.149,0,0,0-.211.211l.106.106a.149.149,0,0,0,.211-.211Z" transform="translate(-395.915 -123.818)" fill="#413d5d"/>
        </g>
      </g>
      <g id="Group_593" data-name="Group 593" transform="translate(0 0.007)">
        <g id="Group_592" data-name="Group 592">
          <path id="Path_2398" data-name="Path 2398" d="M1.879,1a.149.149,0,0,0-.12-.1L1.321.834l-.2-.4a.155.155,0,0,0-.268,0l-.2.4L.223.9a.149.149,0,0,0-.083.255l.317.309L.382,1.9A.149.149,0,0,0,.6,2.056l.392-.207.392.206A.149.149,0,0,0,1.6,1.9l-.075-.436.317-.309A.149.149,0,0,0,1.879,1Zm-.62.3a.149.149,0,0,0-.043.132l.037.216-.193-.1a.149.149,0,0,0-.139,0l-.194.1.037-.216A.149.149,0,0,0,.722,1.3L.565,1.15l.217-.032a.149.149,0,0,0,.112-.082l.1-.2.1.2a.149.149,0,0,0,.112.082l.216.032Z" transform="translate(-0.095 -0.361)" fill="#413d5d"/>
        </g>
      </g>
      <g id="Group_595" data-name="Group 595" transform="translate(6.722 6.42)">
        <g id="Group_594" data-name="Group 594">
          <path id="Path_2399" data-name="Path 2399" d="M362.025,345.094h0l-.062-.092a2.253,2.253,0,0,0-1.5-.969.149.149,0,0,0-.049.294,1.953,1.953,0,0,1,1.139.635.881.881,0,0,0-.6.41.6.6,0,1,0,1.043.582.866.866,0,0,0,.1-.383.73.73,0,0,1,.033.775.149.149,0,1,0,.257.152l0-.007A1.042,1.042,0,0,0,362.025,345.094Zm-.286.715a.3.3,0,0,1-.523-.289v0a.559.559,0,0,1,.4-.263.152.152,0,0,1,.075.017C361.823,345.342,361.83,345.647,361.74,345.808Z" transform="translate(-360.294 -344.031)" fill="#413d5d"/>
        </g>
      </g>
    </g>
    <g id="balloons" transform="translate(210.011 1052.418)">
      <path id="Path_2400" data-name="Path 2400" d="M185.377,37.118a.88.88,0,0,1,.166.074.085.085,0,1,0,.086-.147,1.052,1.052,0,0,0-.2-.088.085.085,0,1,0-.053.162Z" transform="translate(-183.591 -36.532)" fill="#413d5d"/>
      <path id="Path_2401" data-name="Path 2401" d="M224.022,64.791a1.761,1.761,0,0,1-.044.386.085.085,0,0,0,.064.1l.019,0a.085.085,0,0,0,.083-.067,1.93,1.93,0,0,0,.048-.424,1.2,1.2,0,0,0-.216-.737.085.085,0,1,0-.136.1A1.037,1.037,0,0,1,224.022,64.791Z" transform="translate(-221.658 -63.292)" fill="#413d5d"/>
      <path id="Path_2402" data-name="Path 2402" d="M74.479,176.821a1.468,1.468,0,0,1-.507-.741.085.085,0,1,0-.162.053,1.618,1.618,0,0,0,.573.829.085.085,0,1,0,.1-.141Z" transform="translate(-73.346 -174.021)" fill="#413d5d"/>
      <path id="Path_2403" data-name="Path 2403" d="M37.433,1.392A1.451,1.451,0,0,0,36.409,1a1.681,1.681,0,0,0-.249.018A1.37,1.37,0,0,0,35.8.392a1.533,1.533,0,0,0-2.048,0A1.5,1.5,0,0,0,33.323,1.5a2.348,2.348,0,0,0,.415,1.318,1.412,1.412,0,0,0,.8.6.265.265,0,0,0-.031.125v.182a.085.085,0,0,0,.085.085h.092a.528.528,0,0,1-.035.127.754.754,0,0,0,0,.545.584.584,0,0,1,0,.425.679.679,0,0,0-.051.272.085.085,0,0,0,.17,0,.513.513,0,0,1,.04-.213.755.755,0,0,0,0-.545.584.584,0,0,1,0-.425.673.673,0,0,0,.047-.187h.1a.085.085,0,0,0,.085-.085V3.54a.265.265,0,0,0-.031-.125,1.06,1.06,0,0,0,.128-.04,1.647,1.647,0,0,0,1.038,1.039.265.265,0,0,0-.032.126v.182a.085.085,0,0,0,.085.085h.092a.528.528,0,0,1-.035.127.678.678,0,0,0-.051.272.085.085,0,0,0,.17,0,.512.512,0,0,1,.04-.212.673.673,0,0,0,.047-.187h.1a.085.085,0,0,0,.085-.085V4.541a.265.265,0,0,0-.031-.125,1.412,1.412,0,0,0,.8-.6A2.348,2.348,0,0,0,37.858,2.5a1.5,1.5,0,0,0-.425-1.107ZM33.878,2.719a2.173,2.173,0,0,1-.384-1.22,1.334,1.334,0,0,1,.374-.985,1.363,1.363,0,0,1,1.81,0,1.334,1.334,0,0,1,.374.985,2.173,2.173,0,0,1-.384,1.22,1,1,0,0,1-1.789,0Zm.991.822v.1h-.193v-.1a.1.1,0,0,1,.193,0Zm1.637,1v.1h-.193v-.1a.1.1,0,1,1,.193,0Zm.8-.822a1.132,1.132,0,0,1-.895.555.988.988,0,0,1-.665-.29A1.907,1.907,0,0,1,35.29,3.3a1.321,1.321,0,0,0,.163-.108A1.577,1.577,0,0,0,36,3.941a.085.085,0,1,0,.1-.141,1.46,1.46,0,0,1-.5-.727,1.869,1.869,0,0,0,.216-.257A2.348,2.348,0,0,0,36.221,1.5a1.9,1.9,0,0,0-.025-.313,1.514,1.514,0,0,1,.213-.015,1.282,1.282,0,0,1,.9.344,1.334,1.334,0,0,1,.374.985,2.173,2.173,0,0,1-.384,1.22Z" transform="translate(-33.323)" fill="#413d5d"/>
      <path id="Path_2404" data-name="Path 2404" d="M367.976,152.053a.085.085,0,0,0-.136.1,1.037,1.037,0,0,1,.182.635,1.759,1.759,0,0,1-.044.386.085.085,0,0,0,.064.1l.019,0a.085.085,0,0,0,.083-.067,1.931,1.931,0,0,0,.048-.424A1.2,1.2,0,0,0,367.976,152.053Z" transform="translate(-364.02 -150.291)" fill="#413d5d"/>
      <path id="Path_2405" data-name="Path 2405" d="M329.629,125.045a1.051,1.051,0,0,0-.2-.088.085.085,0,1,0-.053.162.881.881,0,0,1,.166.074.085.085,0,1,0,.086-.147Z" transform="translate(-325.955 -123.532)" fill="#413d5d"/>
    </g>
    <g id="computer" transform="translate(166.087 1103.927)">
      <path id="Path_2417" data-name="Path 2417" d="M48,160h.584v.292H48Zm0,0" transform="translate(-47.123 -157.078)" fill="#413d5d"/>
      <path id="Path_2418" data-name="Path 2418" d="M8.621,2.338A.439.439,0,0,0,9.059,1.9V.438A.439.439,0,0,0,8.621,0H6.575a.439.439,0,0,0-.438.438V1.9a.439.439,0,0,0,.438.438h.438V2.63H6.721v.292h.731V4.383h-.6a1.022,1.022,0,0,0-.421-.249c0-.015,0-.029,0-.043a1.168,1.168,0,0,0-2.153-.628,1.163,1.163,0,0,0-.477-.1,1.175,1.175,0,0,0-1.092.754,1.016,1.016,0,0,0-.308.123H1.315V3.8H1.9a.439.439,0,0,0,.438-.438V.438A.439.439,0,0,0,1.9,0H.438A.439.439,0,0,0,0,.438V3.361A.439.439,0,0,0,.438,3.8h.584V4.53H2.087a1.017,1.017,0,0,0-.142.292h-.63V6.429H.731a.439.439,0,0,0-.438.438V8.182H0v.438a.439.439,0,0,0,.438.438H2.776a.439.439,0,0,0,.438-.438V8.182H2.922V6.867a.439.439,0,0,0-.438-.438H1.607V5.114H1.9A1.024,1.024,0,0,0,2.922,6.137H6.137A1.024,1.024,0,0,0,7.148,5.26h.6V6.429H6.721v2.63H9.059V6.429H8.036V4.968H7.147a1.011,1.011,0,0,0-.091-.292h.688V2.922h.731V2.63H8.182V2.338Zm-6.575,0H.292V.877H2.046ZM.438.292H1.9a.146.146,0,0,1,.146.146V.584H.292V.438A.146.146,0,0,1,.438.292ZM.292,3.361V2.63H2.046v.731a.146.146,0,0,1-.146.146H.438A.146.146,0,0,1,.292,3.361Zm2.63,5.26a.146.146,0,0,1-.146.146H.438a.146.146,0,0,1-.146-.146V8.475h2.63ZM2.63,6.867V8.182H.584V6.867a.146.146,0,0,1,.146-.146H2.484A.146.146,0,0,1,2.63,6.867Zm4.383,1.9V7.89H8.767v.877ZM8.767,7.6H7.014V6.721H8.767ZM6.137,5.845H2.922a.73.73,0,0,1-.088-1.455l.1-.012.027-.093a.874.874,0,0,1,1.3-.5L4.4,3.87l.07-.149a.875.875,0,0,1,1.659.505L6.1,4.371l.144.022a.73.73,0,0,1-.111,1.452ZM6.575.292H8.621a.146.146,0,0,1,.146.146V1.461H6.429V.438A.146.146,0,0,1,6.575.292ZM6.429,1.9V1.753H8.767V1.9a.146.146,0,0,1-.146.146H6.575A.146.146,0,0,1,6.429,1.9ZM7.89,2.63H7.306V2.338H7.89Zm0,0" transform="translate(0 0)" fill="#413d5d"/>
      <path id="Path_2419" data-name="Path 2419" d="M400,384h.292v.292H400Zm0,0" transform="translate(-392.694 -376.986)" fill="#413d5d"/>
      <path id="Path_2420" data-name="Path 2420" d="M448,448h.292v.292H448Zm0,0" transform="translate(-439.818 -439.818)" fill="#413d5d"/>
      <path id="Path_2421" data-name="Path 2421" d="M432,384h.584v.292H432Zm0,0" transform="translate(-424.11 -376.986)" fill="#413d5d"/>
      <path id="Path_2422" data-name="Path 2422" d="M400,448h.584v.292H400Zm0,0" transform="translate(-392.694 -439.818)" fill="#413d5d"/>
    </g>
    <g id="computer-2" data-name="computer" transform="translate(210.011 1090.641)">
      <path id="Path_2417-2" data-name="Path 2417" d="M48,160h.414v.207H48Zm0,0" transform="translate(-47.378 -157.928)" fill="#413d5d"/>
      <path id="Path_2418-2" data-name="Path 2418" d="M6.112,1.657a.311.311,0,0,0,.311-.311V.311A.311.311,0,0,0,6.112,0H4.662a.311.311,0,0,0-.311.311V1.347a.311.311,0,0,0,.311.311h.311v.207H4.765v.207h.518V3.108H4.856a.724.724,0,0,0-.3-.176c0-.01,0-.021,0-.031a.828.828,0,0,0-1.527-.445.824.824,0,0,0-.338-.073.833.833,0,0,0-.774.535A.72.72,0,0,0,1.7,3H.932V2.693h.414a.311.311,0,0,0,.311-.311V.311A.311.311,0,0,0,1.347,0H.311A.311.311,0,0,0,0,.311V2.383a.311.311,0,0,0,.311.311H.725v.518H1.48a.721.721,0,0,0-.1.207H.932v1.14H.518a.311.311,0,0,0-.311.311V5.8H0v.311a.311.311,0,0,0,.311.311H1.968a.311.311,0,0,0,.311-.311V5.8H2.072V4.869a.311.311,0,0,0-.311-.311H1.14V3.626h.207a.726.726,0,0,0,.725.725H4.351a.726.726,0,0,0,.717-.622H5.49v.829H4.765V6.423H6.423V4.558H5.7V3.522h-.63A.717.717,0,0,0,5,3.315H5.49V2.072h.518V1.865H5.8V1.657Zm-4.662,0H.207V.622H1.45ZM.311.207H1.347a.1.1,0,0,1,.1.1v.1H.207v-.1A.1.1,0,0,1,.311.207Zm-.1,2.175V1.865H1.45v.518a.1.1,0,0,1-.1.1H.311A.1.1,0,0,1,.207,2.383ZM2.072,6.112a.1.1,0,0,1-.1.1H.311a.1.1,0,0,1-.1-.1v-.1H2.072ZM1.865,4.869V5.8H.414V4.869a.1.1,0,0,1,.1-.1H1.761A.1.1,0,0,1,1.865,4.869ZM4.972,6.216V5.594H6.216v.622Zm1.243-.829H4.972V4.765H6.216ZM4.351,4.144H2.072A.518.518,0,0,1,2.01,3.112L2.078,3.1,2.1,3.038a.62.62,0,0,1,.922-.355l.1.061.049-.105A.62.62,0,0,1,4.343,3l-.016.1.1.016a.518.518,0,0,1-.079,1.029ZM4.662.207h1.45a.1.1,0,0,1,.1.1v.725H4.558V.311A.1.1,0,0,1,4.662.207Zm-.1,1.14v-.1H6.216v.1a.1.1,0,0,1-.1.1H4.662A.1.1,0,0,1,4.558,1.347Zm1.036.518H5.18V1.657h.414Zm0,0" transform="translate(0 0)" fill="#413d5d"/>
      <path id="Path_2419-2" data-name="Path 2419" d="M400,384h.207v.207H400Zm0,0" transform="translate(-394.82 -379.028)" fill="#413d5d"/>
      <path id="Path_2420-2" data-name="Path 2420" d="M448,448h.207v.207H448Zm0,0" transform="translate(-442.199 -442.199)" fill="#413d5d"/>
      <path id="Path_2421-2" data-name="Path 2421" d="M432,384h.414v.207H432Zm0,0" transform="translate(-426.406 -379.028)" fill="#413d5d"/>
      <path id="Path_2422-2" data-name="Path 2422" d="M400,448h.414v.207H400Zm0,0" transform="translate(-394.82 -442.199)" fill="#413d5d"/>
    </g>
    <g id="statistics" transform="translate(127.379 1108.202)">
      <path id="Path_2423" data-name="Path 2423" d="M102.475,285.7a.556.556,0,0,1-.77.77l-.154.232a.834.834,0,0,0,1.156-1.156Zm0,0" transform="translate(-99.785 -280.577)" fill="#413d5d"/>
      <path id="Path_2424" data-name="Path 2424" d="M80.835,264.278a.553.553,0,0,1,.306.093l.154-.232a.834.834,0,0,0-1.156,1.156l.232-.154a.556.556,0,0,1,.464-.863Zm0,0" transform="translate(-78.609 -259.408)" fill="#413d5d"/>
      <path id="Path_2425" data-name="Path 2425" d="M288,336v.835h.557v-.278h-.278V336Zm0,0" transform="translate(-282.991 -330.156)" fill="#413d5d"/>
      <path id="Path_2426" data-name="Path 2426" d="M241.281,288a1.534,1.534,0,0,0-.969.346l.176.215a1.253,1.253,0,0,1,.653-.274v.27h.278v-.27a1.254,1.254,0,0,1,1.1,1.1h-.27v.278h.27a1.253,1.253,0,0,1-.274.653l.215.176a1.53,1.53,0,0,0-1.185-2.5Zm0,0" transform="translate(-236.133 -282.991)" fill="#413d5d"/>
      <path id="Path_2427" data-name="Path 2427" d="M209.67,322.525v-.27h-.278v.27a1.254,1.254,0,0,1-1.1-1.1h.27v-.278h-.27a1.254,1.254,0,0,1,.274-.653l-.215-.176a1.53,1.53,0,0,0,2.153,2.154l-.176-.215A1.253,1.253,0,0,1,209.67,322.525Zm0,0" transform="translate(-204.382 -314.741)" fill="#413d5d"/>
      <path id="Path_2428" data-name="Path 2428" d="M7.792,85.01H7.514v-3.9H6.679v2.621a2.1,2.1,0,0,0-.278-.252V81.81H5.566V83.1a2.093,2.093,0,0,0-.278-.035v-.564H4.453v.678a2.077,2.077,0,0,0-.4.191,1.924,1.924,0,0,0-.1-.226l.22-.308-.757-.757-.308.22a1.938,1.938,0,0,0-.29-.12l-.062-.374H1.691l-.062.374a1.938,1.938,0,0,0-.29.12l-.308-.22-.757.757.22.308a1.912,1.912,0,0,0-.12.29L0,83.5v1.071l.374.062a1.927,1.927,0,0,0,.12.29l-.22.308.757.757.308-.22a1.938,1.938,0,0,0,.29.12l.062.374H2.762l.062-.374a1.937,1.937,0,0,0,.29-.12l.056.04a2.085,2.085,0,0,0,4.059-.52h1.4V80H7.792Zm-.835-3.618h.278V85.01H7.229a2.071,2.071,0,0,0-.271-.9Zm-1.113.7h.278V83.3a2.071,2.071,0,0,0-.278-.121Zm-1.113.7h.278v.285a2.082,2.082,0,0,0-.278.035Zm-1.676,2.7a1.655,1.655,0,0,1-.39.161l-.086.023-.053.315h-.6l-.053-.315-.086-.023a1.658,1.658,0,0,1-.39-.161L1.32,85.44l-.259.185L.637,85.2l.185-.26-.044-.078a1.653,1.653,0,0,1-.161-.39l-.023-.086-.315-.052v-.6l.315-.052L.617,83.6a1.658,1.658,0,0,1,.161-.39l.044-.078-.185-.26.424-.424.259.185.078-.044a1.656,1.656,0,0,1,.39-.161l.086-.023.053-.315h.6l.053.315.086.023a1.658,1.658,0,0,1,.39.161l.078.044.259-.185.424.424-.185.26.044.078a1.655,1.655,0,0,1,.143.336,2.112,2.112,0,0,0-.226.221,1.4,1.4,0,1,0-.53,1.381s0,0,0,0a2.083,2.083,0,0,0,.027.316Zm.281-1.366a2.077,2.077,0,0,0-.229.6,1.112,1.112,0,1,1,.232-.678c0,.028,0,.055,0,.082Zm1.812,2.84a1.809,1.809,0,1,1,1.809-1.809A1.811,1.811,0,0,1,5.148,86.958ZM8.07,80.279h.278V85.01H8.07Zm0,0" transform="translate(0 -78.609)" fill="#413d5d"/>
      <path id="Path_2429" data-name="Path 2429" d="M7.792,0V.278h.3l-.984.788L6.679.638l-.656.656a.411.411,0,0,0-.179-.042.418.418,0,0,0-.417.417.413.413,0,0,0,.052.2l-.727.808a.415.415,0,0,0-.16-.032H4.584l-.56-1.492a.417.417,0,1,0-.676-.23l-1.141.7a.413.413,0,0,0-.652.185H.809a.417.417,0,1,0,0,.278h.747a.416.416,0,0,0,.8-.227l1.141-.7a.412.412,0,0,0,.26.094h.008l.56,1.492a.418.418,0,1,0,.633.12l.727-.808a.417.417,0,0,0,.577-.385.411.411,0,0,0-.042-.179l.459-.459.407.407L8.349.429V.835h.278V0ZM.417,2.087a.139.139,0,1,1,.139-.139A.139.139,0,0,1,.417,2.087Zm1.531,0a.139.139,0,1,1,.139-.139A.139.139,0,0,1,1.948,2.087ZM3.618.835a.139.139,0,1,1,.139.139A.139.139,0,0,1,3.618.835ZM4.592,3.2a.139.139,0,1,1,.139-.139A.139.139,0,0,1,4.592,3.2ZM5.844,1.809a.139.139,0,1,1,.139-.139A.139.139,0,0,1,5.844,1.809Zm0,0" transform="translate(0)" fill="#413d5d"/>
    </g>
  </g>
</svg>
