<svg xmlns="http://www.w3.org/2000/svg" xmlns:xlink="http://www.w3.org/1999/xlink" width="1367" height="768" viewBox="0 0 1367 768">
  <defs>
    <style>
      .cls-1 {
        fill: none;
      }

      .cls-2 {
        fill: #d04541;
      }

      .cls-3 {
        opacity: 0.2;
      }

      .cls-4 {
        clip-path: url(#clip-path);
      }

      .cls-5 {
        fill: url(#linear-gradient);
      }

      .cls-6 {
        fill: url(#linear-gradient-2);
      }

      .cls-7 {
        fill: url(#linear-gradient-3);
      }

      .cls-8 {
        fill: #fffad7;
      }

      .cls-9 {
        fill: url(#linear-gradient-4);
      }

      .cls-10 {
        fill: #ec4963;
      }

      .cls-11 {
        fill: #d4dfe1;
      }

      .cls-12 {
        fill: #88959d;
      }

      .cls-13 {
        fill: #62c7cd;
      }

      .cls-14 {
        fill: #fff;
      }
    </style>
    <clipPath id="clip-path">
      <rect id="Rectangle_2497" data-name="Rectangle 2497" class="cls-1" width="1367" height="747" transform="translate(0 0.277)"/>
    </clipPath>
    <linearGradient id="linear-gradient" x1="-0.072" y1="0.505" x2="0.939" y2="0.505" gradientUnits="objectBoundingBox">
      <stop offset="0" stop-color="#ffe139"/>
      <stop offset="1" stop-color="#bf2786"/>
    </linearGradient>
    <linearGradient id="linear-gradient-2" x1="0.18" y1="0.109" x2="0.552" y2="1.247" xlink:href="#linear-gradient"/>
    <linearGradient id="linear-gradient-3" x1="-0.377" y1="0.427" x2="0.583" y2="0.427" xlink:href="#linear-gradient"/>
    <linearGradient id="linear-gradient-4" x1="-0.087" y1="1.103" x2="0.846" y2="0.263" xlink:href="#linear-gradient"/>
  </defs>
  <g id="Group_1217" data-name="Group 1217" transform="translate(0 -1536)">
    <rect id="Rectangle_1653" data-name="Rectangle 1653" class="cls-2" width="1366" height="768" transform="translate(0 1536)"/>
    <g id="Group_830" data-name="Group 830" class="cls-3" transform="translate(-0.003 1557.158)">
      <g id="Group_829" data-name="Group 829" class="cls-4" transform="translate(0.003 -0.435)">
        <g id="Group_828" data-name="Group 828" transform="translate(-42.829 119.195)">
          <g id="Group_821" data-name="Group 821" transform="translate(0 29.74)">
            <path id="Path_3267" data-name="Path 3267" class="cls-5" d="M415.576,235.508c-46.282,55.01-64.488,117.433-61.812,178.839,1.193,27.414,6.567,55.089,23.018,80.665,28.632,44.514,91.617,84.7,161.974,107.384s141.461,41.136,220.888,47.3c125.336,9.723,270.476-6.725,368.18-54.781,39.659-19.506,70.231-45.509,87.424-74.36,18.279-30.673,20.946-65.623-1.913-95.086s-74.076-51.858-128.627-50.715-106.326,29.521-104.893,62.014c-22.575-22.381-3.063-55.767,38.037-65.079,15.628-3.542,33.141-3.981,47.805-8.776,11.772-3.849,20.695-10.192,31.881-14.621,40.02-15.847,103.582,3.113,106.066,31.64.377,4.329-.319,8.919,3.083,12.743,11.84,13.311,46.009.781,71.053,2.995,25.868,2.287,37.418,20.448,41.091,35.872,7.605,31.946,3.161,64.918-12.909,95.79,34.085-13.23,53.434-37,59.906-60.894s1.675-48.276-3.132-72.282c31.941,25.137,45.511,58.292,36.616,89.45,44.334-82.507,25.388-171.965-4.262-256.6-5.38-15.356-11.129-31.038-7.742-46.615s17.889-31.323,42.3-37.3c46.9-11.475,93.222,17.414,114.187,44.815,27.5,35.945,41.171,75.076,51.907,114.091a870.453,870.453,0,0,1,31.323,211.353c1.257,54.733-2.961,110.211-29.4,162.7s-77.068,102.22-153.312,132.973c-58.978,23.787-129.3,34.957-198.127,45.733-124.439,19.48-249.466,39.028-377.351,47.046s-259.782,4.1-380.257-22.3c-51.6-11.308-114.87-25.611-156.446-4.02-12.058,6.262-21.149,15.265-36.336,18.239-16.327,3.2-33.639-1.727-48.773-6.514L108.149,843.269c-23-7.276-47.126-15.172-60.456-28.5-22.4-22.393-10.247-55.976-44.8-71.966,9.919-11.637-28.124-10.207-6.273-10.857,12.689-111.567-6.884-210.8,68.291-342.924,27.5-48.327,77.4-91.14,133.788-129.612,118.328-80.722,277.258-150.084,461.156-159.97C554.286,120.136,464.236,177.667,415.576,235.508Z" transform="translate(34.385 -99.443)"/>
            <path id="Path_3268" data-name="Path 3268" class="cls-6" d="M217.779,232.026c9.1-8.267,21.112-15.159,33.012-21.973,49.077-28.1,85.9-39.373,134.978-67.475C333.2,178.178,300.736,201.26,266.835,244.5c-49.068,62.583-87.65,134.292-68.661,202.7,1.261,4.541,2.893,9.176,7.046,13.021,5.719,5.3,15.681,8.588,20.666,14.153,4.626,5.166,4.2,11.378,4.508,17.261,2.514,48.4,60.932,88.6,121.874,119.577a1169.585,1169.585,0,0,0,146.089,61.778c-68.273-28.908-138.11-58.759-185.025-100.63,58.681,34.464,133.612,58.493,213.387,68.43,30.416,3.788,65.662,7.19,81.632,23.443,5.089,5.179,7.576,11.2,12.909,16.291,16.185,15.44,52.051,17.24,81.626,14.1s60-9.521,88.831-4.417c15.38,2.723,28.717,8.5,42.676,13.295,34.761,11.94,74.867,18.01,114.737,17.368-105.324,12.673-203.821,41.446-308.493,56-73.577,10.226-149.243,13.294-224.538,16.33-49.27,1.987-99.014,3.961-147.807-.659,46.619-8.65,90.052-23.637,126.24-43.56a1145.275,1145.275,0,0,1-132.963-79.944c-69.535-48.763-130.633-106.672-136.055-171.246-4.965-6.723-4.143-14.927,2.128-21.23,3.3,22.422,13.051,44.485,28.665,64.879,14.254-12.772,3.225-29.771-2.084-44.883-4.116-11.711-4.433-23.778-4.734-35.755Q148.125,406.6,146.763,352.4c-28.262,37.178-35.091,80.277-19.024,120.073C109.3,448.135,90.5,420.812,104.258,395.342c5.5-10.174,16-19.4,18.334-30.019,1.993-9.085-2.241-18.281-1.489-27.436,1.585-19.3,21.149-46.664,39.732-62.459,6.579-5.591,15.385-9.89,23.29-14.735C192.4,255.62,218.792,239.753,217.779,232.026Z" transform="translate(124.639 -78.145)"/>
            <path id="Path_3269" data-name="Path 3269" class="cls-7" d="M39.547,415.2c.527-15.843,6.286-31.424,12.018-46.879,4.94-13.319,9.9-26.67,17.249-39.567a125.548,125.548,0,0,1,41.663-44.087c-30.906,69.659-24.5,143.187-17.869,215.242,2.511,27.253,5.362,55.34,24.98,79.865,3.2,4,6.867,7.953,8.156,12.331,1.982,6.741-1.906,13.555-5.732,19.993q-6.789,11.418-13.574,22.834c-2.465,4.15-4.967,8.591-3.318,12.887,2.23,5.809,11.166,9.518,18.139,13.7,16.071,9.633,23.65,23.787,40.774,32.718,28.063,14.637,70.373,10.352,105.834,4.109-18.376-10.908-41.228-18.981-65.873-23.273-12.652-2.2-26.42-3.631-36.164-9.03l26.593-14.215c3.025-1.616,6.23-3.418,6.977-5.83,1.181-3.817-4.122-7.1-8.649-9.826-28.82-17.378-42.7-41.875-52.248-65.91-15.462-38.914-22.027-79.142-19.445-119.154-1.3,28.485,10.537,56.541,23.6,83.9,24.253,50.8,57.819,104.63,131.028,132.95,5.391,2.085,11.167,4.138,14.513,7.457,6.323,6.275,1.742,14.372,2.77,21.712.982,7.01,7.254,13.789,5.248,20.716-2.108,7.285-12.858,12.489-23.909,15.517-31.261,8.565-67.414,4.982-101.126,1.24-26.841-2.978-54.139-6.051-78.37-13.705-32.342-10.216-56.579-27.717-79.932-44.776C7.186,671.959,1.288,667.534-.214,662.2c-1.192-4.244.55-8.558,1.547-12.821,2.422-10.343.435-20.855-1.086-31.262-5.388-36.893-15.2-86.915,7.988-122.143,7.073-10.743,23.534-17.081,30.653-27.47C49.649,452.8,39,431.729,39.547,415.2Z" transform="translate(37.491 -7.985)"/>
            <path id="Path_3270" data-name="Path 3270" class="cls-8" d="M122.521,325.652c-.339-7.215,7.161-13.513,15.613-15.816s17.625-1.5,26.414-.487c105.72,12.2,206.082,51.758,282.966,111.539-10.28,7.334-21.77,15.075-35.384,15.386,23.929,4.929,51.132-2.284,67.077-17.783l6.838-8.069a681.81,681.81,0,0,0-111.4-53.311c-32.956-12.294-67.159-22.283-100.459-33.961-57.9-20.3-118.266-46.374-180.677-37.344l39.947,8.692-32.232,5.44c-2.764.466-5.867,1.126-7.25,3.132s1.17,5.252,3.637,4.127A279,279,0,0,0-23.5,320.71C-16.84,318.381,30.191,410,44.5,372.826c4.55-11.814-2.941-24.495,6.321-36.215C66.29,317.041,99.073,321.688,122.521,325.652Z" transform="translate(23.503 -8.331)"/>
            <path id="Path_3271" data-name="Path 3271" class="cls-8" d="M268.608,115.138c1.758-2.268,6.825-2.654,7.875-.109a6.291,6.291,0,0,1,5.975,1,10.776,10.776,0,0,1,3.156,4.6,42.4,42.4,0,0,1-1.224,35.624c-1.747-.763-4.187.829-3.668,2.4.578,1.748,3.883,2.024,5.362.68s1.3-3.5.228-5.083c3.786-.487,5.412-4.177,5.995-7.284a52.116,52.116,0,0,0-4.213-31.879c-.773-1.643-2.146-3.54-4.291-3.443q-.052.894-.106,1.787c-.5-1.685-1.133-3.536-2.917-4.469s-4.887.039-4.562,1.752c-4.28-2.442-10.768-1.749-14.145,1.51-2.232,2.156-4.389,10.35.528,11.6C268.519,125.329,267.123,117.052,268.608,115.138Z" transform="translate(256.249 -94.924)"/>
            <g id="Group_820" data-name="Group 820" transform="translate(250.954 112.339)">
              <path id="Path_3272" data-name="Path 3272" class="cls-8" d="M132.044,187.069a21.493,21.493,0,0,1,7.219-2.4,59.843,59.843,0,0,1,18.106-.544,79.717,79.717,0,0,0,8.48.969c3.69.067,7.37-.7,11.071-.975,7.144-.535,14.152.766,20.71,2.456A129.294,129.294,0,0,1,237,203.686c-8.64-7.016-17.607-14.209-29.7-18.236-7.6-2.53-16.085-3.684-24.47-4.814l-36.946-4.982c-5.838-.787-11.938-1.57-17.827-.439s-11.433,4.807-11.169,8.936c.138,2.153,1.787,4.123,1.671,6.286-.082,1.477-.98,2.9-1.687,4.323-2.611,5.258-3.763,9.633-1.2,14.69,5.248-3.373,13.941-8.855,13.941-8.855S125.548,190.733,132.044,187.069Z" transform="translate(-114.228 -174.648)"/>
              <path id="Path_3273" data-name="Path 3273" class="cls-8" d="M229.026,237.164c.616,1.428,1.144,3,.363,4.434a4.384,4.384,0,0,1-5.135,1.621c8.8,4.365,8.4,15.365-.727,20.029-6.383,3.261-16.309,2.487-23.862,1.748-2.232,5.951-3.455,10.176-4.825,14.862,13.161-.426,26.648-5.5,35.146-12.929,1.636-1.43,3.225-3.019,5.576-3.772a31.085,31.085,0,0,0,3.89-1.1,4.684,4.684,0,0,0,2.607-4.342c.1-4.389-3.3-8.61-8.6-10.68,3.01-3.218,2.137-7.4.456-10.925-6.339-13.271-21.786-22.938-37.228-31.462,6.968,3.846,11.973,11.221,18.494,15.668A37.555,37.555,0,0,1,229.026,237.164Z" transform="translate(-47.959 -159.838)"/>
              <path id="Path_3274" data-name="Path 3274" class="cls-8" d="M196.656,198.609l-4.242-.922a33.151,33.151,0,0,0,6.474,6.68,4.787,4.787,0,0,0,1.611.926c.474.14,1,.181,1.492.3a7.615,7.615,0,0,1,1.458.563c1.246.586,7.673,4.513,9.194,3.964,1.463-.526-.239-2.265-.765-2.938C208.581,202.97,203.3,200.05,196.656,198.609Z" transform="translate(-49.954 -163.272)"/>
            </g>
            <path id="Path_3275" data-name="Path 3275" class="cls-9" d="M844.15,381.25c6.164-21.173,7.1-44.216-10.459-62.858a277.258,277.258,0,0,1,42.694,14.068c6.831,2.908,13.675,6.293,16.73,11.026,4.526,7.01-.485,14.975-7.244,21.28s-15.429,12.035-19.294,19.192c-2.3,4.263-2.658,9.155.962,13.06,3.32,3.582,9.584,5.963,12.324,9.721,4.757,6.528-3.076,13.97-12.21,18.435s-20.327,7.869-26.057,14.1c-1.265,1.376-2.154,3.21-.527,4.435,1.37,1.034,3.865,1.119,6.042,1.068a138.313,138.313,0,0,0,25.471-2.944l-10.45,8.674a626.826,626.826,0,0,0,114.733-35.882q-53.883,40.457-110.411,79.566c-3.8,2.633-7.775,5.334-13,6.8-6.856,1.93-14.77,1.456-22.317,1.618-24.9.532-49.008,8.907-62.475,21.707-4.87,4.629-8.613,9.919-15.7,13.319-5.453,2.617-12.319,3.826-19,4.976l-169.1,29.133c59.365-10.607,116.381-26.108,169.013-45.952l-68.854,5.678c-10.983.907-22.063,1.827-32.48,4.136-9.136,2.027-17.554,5.076-26.3,7.669-41.818,12.4-89.709,14-136.139,15.392,35.26-1.055,76.248-12.1,109.615-18.816,35.067-7.061,69.043-15.767,103.7-23.458,55.946-12.418,99.494-42.827,126.7-74.338C826.545,423.043,837.99,402.411,844.15,381.25Z" transform="translate(429.285 8.668)"/>
          </g>
          <g id="Group_827" data-name="Group 827" transform="translate(597.044)">
            <g id="Group_826" data-name="Group 826">
              <g id="Group_822" data-name="Group 822" transform="translate(0 12.325)">
                <path id="Path_3276" data-name="Path 3276" class="cls-10" d="M343.29,89.056a4.18,4.18,0,0,0-1.547-1.125,4.774,4.774,0,0,0-2.228-.028c-14.11,2.167-26.221,10-34.6,19.557a2.811,2.811,0,0,0-.718,1.156,2.274,2.274,0,0,0,.273,1.385,12.459,12.459,0,0,0,2.161,3.249c3.174-4.278,8.447-7.388,14.267-8.913a24.4,24.4,0,0,1,11.435-.477c3.732.848,7.121,3.028,8.436,6.012q4.105-3.148,8-6.474,1.809-1.544,3.569-3.123c.9-.81,3.336-2.327,3.646-3.386.494-1.689-4.506-2.253-6.119-3.041A25.132,25.132,0,0,1,343.29,89.056Z" transform="translate(-304.172 -87.785)"/>
                <path id="Path_3277" data-name="Path 3277" class="cls-10" d="M359.4,123.571a2.94,2.94,0,0,1-.122,1.692,3.64,3.64,0,0,1-1.549,1.312c-11.843,6.652-27.161,8.143-41.328,6.245a4.158,4.158,0,0,1-1.5-.4,2.788,2.788,0,0,1-1-1.137,11.264,11.264,0,0,1-1.279-3.549,31.005,31.005,0,0,0,17.776-1.975,19.3,19.3,0,0,0,8.493-6.3,8.574,8.574,0,0,0,.773-9.143q5.619-.155,11.242-.064,2.61.043,5.218.136c1.337.049,4.366-.29,5.5.279,1.806.908-1.241,4.206-1.7,5.7A17.64,17.64,0,0,0,359.4,123.571Z" transform="translate(-297.23 -76.706)"/>
              </g>
              <path id="Path_3278" data-name="Path 3278" class="cls-11" d="M334.443,129.682c-2.851.06-5.621.109-8.278.166l-3.589-7.1s-.135.036,0-.007l-3.589-7.1c1.926-1.5,3.927-3.073,5.993-4.686,14.165-11.045,31.469-23.942,49.252-28.648,14.5-3.84,31.986-3.07,44.467-1.419,9.387,1.232,15.939,2.964,16.267,3.61a.088.088,0,0,1,.013.049c.528.4-2.62,5.527-8.349,12.028-7.4,8.4-19.092,19.086-32.653,24.783C377.345,128.349,353.985,129.272,334.443,129.682Z" transform="translate(-291.996 -79.534)"/>
              <path id="Path_3279" data-name="Path 3279" class="cls-12" d="M334.443,119.294c-2.851.06-5.621.109-8.278.166l-3.589-7.1s-.135.036,0-.007l-3.589-7.1c1.926-1.5,3.927-3.073,5.993-4.686Z" transform="translate(-291.996 -69.146)"/>
              <path id="Path_3280" data-name="Path 3280" class="cls-10" d="M381.639,96.13l-7.931-15.688c9.387,1.232,15.939,2.964,16.267,3.61a.088.088,0,0,1,.013.049C390.517,84.5,387.368,89.629,381.639,96.13Z" transform="translate(-247.009 -79.085)"/>
              <g id="Group_823" data-name="Group 823" transform="translate(90.439 7.064)">
                <path id="Path_3281" data-name="Path 3281" class="cls-12" d="M372.74,105.853c-6.984,2.372-14.992-.345-17.885-6.069s.419-12.291,7.4-14.663,14.992.344,17.885,6.068S379.722,103.479,372.74,105.853Z" transform="translate(-353.807 -84.262)"/>
                <ellipse id="Ellipse_3265" data-name="Ellipse 3265" class="cls-13" cx="9.864" cy="8.087" rx="9.864" ry="8.087" transform="translate(3.827 3.137)"/>
              </g>
              <g id="Group_824" data-name="Group 824" transform="translate(60.463 20.375)">
                <path id="Path_3282" data-name="Path 3282" class="cls-12" d="M352.563,110.516c-5.608,1.906-12.042-.276-14.367-4.876s.337-9.871,5.947-11.777,12.04.275,14.365,4.874S358.172,108.609,352.563,110.516Z" transform="translate(-337.356 -93.173)"/>
                <path id="Path_3283" data-name="Path 3283" class="cls-13" d="M350,107.357c-4.043,1.373-8.678-.2-10.355-3.513s.244-7.115,4.286-8.488,8.678.2,10.353,3.512S354.043,105.983,350,107.357Z" transform="translate(-335.969 -92.341)"/>
              </g>
              <path id="Path_3284" data-name="Path 3284" d="M387.642,106.311a24.183,24.183,0,0,0-5.344.384c-3.156.871-5.492,3.818-8.8,3.518-1.819-.164-3.4-1.332-5.222-1.258-1.423.058-2.627.862-3.989,1.2-1.93.487-4,.019-6.024.066a27.016,27.016,0,0,0-4.843.745,82.131,82.131,0,0,1-31.733.246l2.76,5.458c7.645-.356,15.278-.538,22.923-.893,9.826-.459,19.717-.925,29.281-2.831s18.886-5.355,25.861-11.048C397.574,103.536,393.166,106.072,387.642,106.311Z" transform="translate(-289.773 -68.488)"/>
              <path id="Path_3285" data-name="Path 3285" class="cls-14" d="M370.366,81.234a5.506,5.506,0,0,0-1.4.027,2.157,2.157,0,0,0-1.687,1.373,1.708,1.708,0,0,0,.731,1.854,4.437,4.437,0,0,0,3.333.363,18.914,18.914,0,0,1,3.391-.66,23.427,23.427,0,0,1,3.5.5,19.105,19.105,0,0,0,3.435.031l6.436-.33c.4-.021,2.3.09,2.483-.224.326-.562-1.157-.707-1.447-.754q-5.988-.981-12.055-1.6Q373.731,81.465,370.366,81.234Z" transform="translate(-252.347 -78.709)"/>
              <path id="Path_3286" data-name="Path 3286" d="M384.46,87.524c-1.722,1.152-3.446,2.3-5.275,3.337-.805.456-1.634.889-2.387,1.4a13.335,13.335,0,0,0-1.984,1.663,4.991,4.991,0,0,0-1.62,2.722.715.715,0,0,0,.49.863,1.106,1.106,0,0,0,.847-.342c2.1-1.731,4.211-3.449,6.292-5.192a13.3,13.3,0,0,0,1.653-1.743c.363-.429.756-.835,1.09-1.28C383.73,88.734,384.231,87.6,384.46,87.524Z" transform="translate(-247.438 -75.588)"/>
              <path id="Path_3287" data-name="Path 3287" d="M357.441,109.963l-22.083-.1c-4.176-.018-8.2-.4-12.33-.689-.06,4.549,5.175,3.149,9,2.889,5.452-.37,10.9-.765,16.342-1.237C351.321,110.576,354.481,109.951,357.441,109.963Z" transform="translate(-288.671 -64.896)"/>
              <path id="Path_3288" data-name="Path 3288" class="cls-14" d="M372.966,92.428a5.105,5.105,0,0,1-1.554-.167,77.091,77.091,0,0,1-10.759-2.852,3.873,3.873,0,0,1-1.113-.565.984.984,0,0,1-.412-.975,8.474,8.474,0,0,0-2.513,8.059,3.7,3.7,0,0,1,2.4-1.791,4.658,4.658,0,0,1,1.161.055l1.791.236c.623.084,1.248.166,1.864.282a32.635,32.635,0,0,1,6.026,1.958,3.821,3.821,0,0,1,1.024.535.9.9,0,0,1,.375.907,1.163,1.163,0,0,1-.909.669,4.136,4.136,0,0,1-1.274.007,55.6,55.6,0,0,1-9.73-1.878c-.568-.163-1.232-.441-1.254-.934a7.665,7.665,0,0,1-1.3.629,5.589,5.589,0,0,0,1.893,2.333,1,1,0,0,0,.335.176,1.442,1.442,0,0,0,.454.007,8.165,8.165,0,0,1,1.988.182l6.935,1.21a4.422,4.422,0,0,0,1.221.1,3.336,3.336,0,0,0,1.611-.733c2.431-1.822,4.187-5.391,2.941-8.059A1.809,1.809,0,0,1,372.966,92.428Z" transform="translate(-261.204 -75.418)"/>
              <path id="Path_3289" data-name="Path 3289" class="cls-14" d="M352.361,100.7a5.7,5.7,0,0,1-1.545-.043q-1.615-.193-3.231-.387a13.7,13.7,0,0,1-4.045-.9,3.292,3.292,0,0,1-2.2-2.75,4.669,4.669,0,0,0-1.882,3.92,6.332,6.332,0,0,0,1.875,3.988,1,1,0,0,1,.308-1.056,3.165,3.165,0,0,1,1.128-.641,9.247,9.247,0,0,1,3.788-.541,3.716,3.716,0,0,1,1.627.409,1.153,1.153,0,0,1,.656,1.219,1.249,1.249,0,0,1-.421.592,3.578,3.578,0,0,1-1.895.721,11.348,11.348,0,0,1-2.125-.021,2.634,2.634,0,0,0,1.649.949,4.706,4.706,0,0,0,1.476-.025,7.393,7.393,0,0,0,5.84-4.2,2.551,2.551,0,0,0,.18-1.888A1.836,1.836,0,0,1,352.361,100.7Z" transform="translate(-275.169 -71.099)"/>
              <path id="Path_3290" data-name="Path 3290" class="cls-14" d="M371.274,92.629l-2.751-.6a61.431,61.431,0,0,1-9.05-2.477,2.465,2.465,0,0,1-1.234-.8,1.679,1.679,0,0,0-.882,1.02,4,4,0,0,0-.137,1.274,5.976,5.976,0,0,1,3.735.064c1.2.351,2.33.88,3.559,1.171.731.172,1.487.258,2.232.382.915.152,1.815.361,2.715.571a5.819,5.819,0,0,1,2.9,1.256c-.016-.019.4-.81.425-.889.086-.26.255-.711.115-.955A3.18,3.18,0,0,1,371.274,92.629Z" transform="translate(-260.563 -74.983)"/>
              <path id="Path_3291" data-name="Path 3291" class="cls-14" d="M345.3,100.136a12.239,12.239,0,0,1-2.884-.724,3.115,3.115,0,0,1-1.877-1.849,3.315,3.315,0,0,0-.519,3.043,5.821,5.821,0,0,1,2.425-.221q1.2.072,2.4.223c2.5.312,5.065.877,7.529.4a1.658,1.658,0,0,0-1.366-.282,5.928,5.928,0,0,1-1.286.172c-.4-.033-.829-.158-1.228-.226Z" transform="translate(-274.839 -70.632)"/>
              <path id="Path_3292" data-name="Path 3292" d="M337.28,116.213a17.212,17.212,0,0,1,7.562,3.359A17.9,17.9,0,0,1,346.6,113.2a11.282,11.282,0,0,0-2.558.055q-3.905.365-7.84.468c-2.593.069-5.258-.172-7.829-.031-.37,1.8,1.212,1.752,2.912,1.833A39.04,39.04,0,0,1,337.28,116.213Z" transform="translate(-284.325 -62.939)"/>
              <path id="Path_3293" data-name="Path 3293" d="M342.551,113.488l-.589,2.154-10.692-1.294c-.146-.018.556-.329.658-.339a14.626,14.626,0,0,1,1.487.049q1.517.016,3.034-.042C338.494,113.939,340.533,113.763,342.551,113.488Z" transform="translate(-281.911 -62.768)"/>
              <g id="Group_825" data-name="Group 825" transform="translate(32.659 16.395)">
                <path id="Path_3294" data-name="Path 3294" d="M327.163,97.268a11.427,11.427,0,0,0,2.445-6.759A26.911,26.911,0,0,0,336.35,94a8.8,8.8,0,0,1-1.855,1.444q-3.077,2.008-5.945,4.215c-1.891,1.456-3.568,3.173-5.506,4.565-1.818-1.061-.656-1.942.476-2.985A27.691,27.691,0,0,0,327.163,97.268Z" transform="translate(-322.096 -90.509)"/>
                <path id="Path_3295" data-name="Path 3295" d="M333,93.648l-2.274-1.18-6.439,7.116c-.087.1.674-.091.756-.143a10.965,10.965,0,0,0,1.009-.9q1.058-.892,2.179-1.73A51.9,51.9,0,0,1,333,93.648Z" transform="translate(-320.3 -89.542)"/>
              </g>
            </g>
            <path id="Path_3296" data-name="Path 3296" class="cls-10" d="M2.844.1l1.9-.143L1.407,50.87l-1.9.143Z" transform="translate(55.489 31.055) rotate(67.484)"/>
          </g>
        </g>
      </g>
    </g>
  </g>
</svg>
