<svg xmlns="http://www.w3.org/2000/svg" xmlns:xlink="http://www.w3.org/1999/xlink" width="1366" height="1903" viewBox="0 0 1366 1903">
  <defs>
    <style>
      .cls-1 {
        fill: #fff;
      }

      .cls-2 {
        clip-path: url(#clip-Điều_khoản);
      }

      .cls-22, .cls-23, .cls-3 {
        opacity: 0.25;
      }

      .cls-4 {
        fill: #fff2df;
      }

      .cls-5 {
        fill: #efd2ac;
      }

      .cls-6 {
        fill: #f9d641;
      }

      .cls-7 {
        fill: #dad5f7;
        opacity: 0.51;
      }

      .cls-8 {
        fill: #eff8f5;
      }

      .cls-9 {
        fill: #ccb5e2;
      }

      .cls-10 {
        fill: #edd0a9;
      }

      .cls-11, .cls-23 {
        fill: none;
        stroke-miterlimit: 10;
      }

      .cls-11 {
        stroke: #241530;
      }

      .cls-12 {
        fill: #d8b182;
      }

      .cls-13 {
        fill: #fcedcd;
      }

      .cls-14 {
        fill: #e5bb0a;
      }

      .cls-15, .cls-22 {
        fill: #f2afcf;
      }

      .cls-16 {
        fill: #a2a4bd;
      }

      .cls-17 {
        fill: #241530;
      }

      .cls-18 {
        fill: #feffcc;
        opacity: 0.68;
      }

      .cls-19 {
        fill: #ed7ac7;
      }

      .cls-20, .cls-21 {
        fill: #f9fbfc;
      }

      .cls-20 {
        opacity: 0.56;
      }

      .cls-23 {
        stroke: #f9fbfc;
      }

      .cls-24, .cls-27, .cls-28 {
        fill: #b0bbea;
      }

      .cls-24 {
        opacity: 0.28;
      }

      .cls-25 {
        fill: #d69230;
        opacity: 0.57;
      }

      .cls-26 {
        fill: #d3d9e8;
      }

      .cls-28 {
        opacity: 0.71;
      }

      .cls-29 {
        fill: #fff9ee;
        opacity: 0.69;
      }

      .cls-30 {
        opacity: 0.3;
      }

      .cls-31 {
        fill: url(#radial-gradient);
      }

      .cls-32 {
        fill: url(#radial-gradient-2);
      }

      .cls-33 {
        fill: url(#radial-gradient-3);
      }

      .cls-34 {
        fill: url(#radial-gradient-4);
      }

      .cls-35 {
        fill: url(#radial-gradient-5);
      }

      .cls-36 {
        fill: url(#radial-gradient-6);
      }

      .cls-37 {
        fill: url(#radial-gradient-7);
      }

      .cls-38 {
        fill: #b7d333;
      }

      .cls-39 {
        fill: #c3e8fa;
        opacity: 0.7;
      }

      .cls-40 {
        fill: #2c1672;
      }

      .cls-41 {
        fill: #d3d6f2;
        opacity: 0.9;
      }

      .cls-42 {
        fill: #005b6f;
      }
    </style>
    <radialGradient id="radial-gradient" cx="42.069" cy="112.579" r="122.719" gradientUnits="userSpaceOnUse">
      <stop offset="0" stop-color="#e3f3fc"/>
      <stop offset="0.472" stop-color="#00bbf1"/>
      <stop offset="0.979" stop-color="#00466c"/>
    </radialGradient>
    <radialGradient id="radial-gradient-2" cx="53.674" cy="136.145" r="142.022" xlink:href="#radial-gradient"/>
    <radialGradient id="radial-gradient-3" cx="10.044" cy="1.659" r="24.122" gradientTransform="translate(-10.766 -16.529) scale(0.76 0.76)" xlink:href="#radial-gradient"/>
    <radialGradient id="radial-gradient-4" cx="103.71" cy="228.431" r="90.19" gradientTransform="translate(-8.389 -34.488) scale(1.218 1.218)" xlink:href="#radial-gradient"/>
    <radialGradient id="radial-gradient-5" cx="582.721" cy="714.044" r="44.77" gradientTransform="translate(-754.614 -948.087) scale(2.501 2.501)" xlink:href="#radial-gradient"/>
    <radialGradient id="radial-gradient-6" cx="140.055" cy="234.113" r="86.305" gradientTransform="translate(-21.822 -43.455) scale(1.272 1.272)" xlink:href="#radial-gradient"/>
    <radialGradient id="radial-gradient-7" cx="335.596" cy="468.182" r="57.8" gradientTransform="translate(-237.862 -353.559) scale(1.899 1.899)" xlink:href="#radial-gradient"/>
    <clipPath id="clip-Điều_khoản">
      <rect width="1366" height="1903"/>
    </clipPath>
  </defs>
  <g id="Điều_khoản" data-name="Điều khoản" class="cls-2">
    <rect class="cls-42" width="1366" height="1903"/>
    <g id="Group_1172" data-name="Group 1172" class="cls-3" transform="translate(1665.094 211.271)">
      <path id="Path_6890" data-name="Path 6890" class="cls-4" d="M-454.985-116.7c-14.2,3.549-15.475,13.663-12.988,19.819s23.629,12.119,27.081-3.515C-438.224-112.474-448.353-118.357-454.985-116.7Z"/>
      <path id="Path_6891" data-name="Path 6891" class="cls-5" d="M-458.018-106.835a13.9,13.9,0,0,1-.56-8.726c-10.8,4.238-11.653,13.091-9.395,18.681,2.487,6.157,23.629,12.119,27.081-3.515.02-.09.033-.177.051-.267C-448-99.387-456.5-103.07-458.018-106.835Z"/>
      <path id="Path_6892" data-name="Path 6892" class="cls-6" d="M-429.106-114.174c.438,1.224-11.1,6.471-25.766,11.718s-26.915,8.51-27.353,7.286,11.1-6.47,25.767-11.718S-429.544-115.4-429.106-114.174Z"/>
      <path id="Path_6893" data-name="Path 6893" class="cls-7" d="M-461.362-105.09c1.81.607,13.4-2.562,27.116-7.468q2.521-.9,4.9-1.8c-1.811-.608-13.4,2.561-27.116,7.467Q-458.98-105.987-461.362-105.09Z"/>
    </g>
    <path id="Path_6961" data-name="Path 6961" class="cls-8" d="M-432.437,297.333a1,1,0,0,0,0,2A1,1,0,0,0-432.437,297.333Z" transform="translate(711.77 1245)"/>
    <path id="Path_6972" data-name="Path 6972" class="cls-8" d="M-310.365,89.433a14.521,14.521,0,0,1-1.755-1.969c-.436-.744-.142-.761.34-1.195l1.159-1.043a.314.314,0,0,0-.22-.53l-1.794.166c-.809.074-1.282.177-1.663-.654a17.8,17.8,0,0,1-.927-3.5c-.063-.288-.421-.269-.568-.074a6.906,6.906,0,0,0-1.4,4.637h0a10.577,10.577,0,0,1-2.772,1.16.314.314,0,0,0,0,.6,14.4,14.4,0,0,0,2.545.619,4.817,4.817,0,0,0-.4,3.051.312.312,0,0,0,.519.137l1.421-1.7c.278-.333.523-.8,1.059-.727a4.193,4.193,0,0,1,.908.486,6.941,6.941,0,0,0,3.328,1.071A.314.314,0,0,0-310.365,89.433Z" transform="translate(1619.77 1731)"/>
    <path id="Path_6980" data-name="Path 6980" class="cls-8" d="M-185.77,92.667a1,1,0,0,0,0,2A1,1,0,0,0-185.77,92.667Z" transform="translate(1520.77 1636)"/>
    <g id="Group_1190" data-name="Group 1190" class="cls-3" transform="translate(1631.255 937.271)">
      <path id="Path_6921" data-name="Path 6921" class="cls-9" d="M-319.838,121.878c-3.668-.948-7.508-1.415-11.241-2.062q-5.791-1-11.59-1.974c-7.381-1.228-14.835-2.776-22.288-3.513,3.9-4.275,6.958-9.5,10.083-14.331a149.846,149.846,0,0,1,10.481-14.822q5.746,1.006,11.493,2c3.428.59,7,1.379,10.492,1.007.421-.045.246-.566-.115-.56-7.3.106-14.677-1.754-21.856-2.943a.266.266,0,0,0-.17.025.219.219,0,0,0-.193.073A145.083,145.083,0,0,0-355.421,99.6c-3.356,5.122-6.964,9.965-10.59,14.887-.24.326.3.673.553.4.07-.074.136-.155.206-.23,7.414,1.624,15.049,2.518,22.531,3.784q5.631.953,11.259,1.923c3.838.665,7.71,1.569,11.586,1.955C-319.537,122.354-319.542,121.954-319.838,121.878Z"/>
      <path id="Path_6922" data-name="Path 6922" class="cls-9" d="M-321.351,119.452c.352-5.013-.466-10.124-.9-15.109a51.789,51.789,0,0,1,.577-15.879c.04-.178-.313-.29-.363-.107-1.3,4.777-1.269,9.7-.918,14.607.391,5.477.929,10.889,1,16.385C-321.948,119.673-321.377,119.818-321.351,119.452Z"/>
      <path id="Path_6923" data-name="Path 6923" class="cls-9" d="M-227.7,154.156a70.4,70.4,0,0,0-18.917,3.941,83.013,83.013,0,0,0-8.409,3.651,3.943,3.943,0,0,1-3.359.44,8.869,8.869,0,0,1-2.627-1.854,21.779,21.779,0,0,1-3.585-4.415c-1.963-3.051-3.681-6.275-5.5-9.414l-2.642-4.56a14.355,14.355,0,0,0-2.714-3.8c-2.413-2.1-6.242-2.866-9.185-3.95q-5.547-2.044-11.1-4.081-12.369-4.535-24.736-9.074c-.25-.091-.394.239-.141.333q11.235,4.183,22.469,8.371,5.538,2.064,11.079,4.122l5.7,2.114c1.969.73,4.312,1.323,5.828,2.867a21.927,21.927,0,0,1,3,4.723l3.074,5.435a97.267,97.267,0,0,0,5.143,8.629c1.5,2.1,3.724,4.777,6.348,5.468a4.053,4.053,0,0,0,2.847-.443c1.719-.814,3.39-1.7,5.141-2.454a68.976,68.976,0,0,1,22.424-5.364C-227.054,154.8-227.254,154.125-227.7,154.156Z"/>
      <path id="Path_6924" data-name="Path 6924" class="cls-9" d="M-344.882,84.273l.684-2.148.991,2.35,3.245.392-3.22.281-.785,2.986-1.1-2.291-2.036,1.029,1.507-1.926L-346.64,83Z"/>
      <path id="Path_6925" data-name="Path 6925" class="cls-9" d="M-277.116,137.112l.684-2.148.991,2.35,3.245.392-3.22.281-.785,2.986-1.1-2.291-2.036,1.029,1.507-1.926-1.039-1.948Z"/>
      <path id="Path_6926" data-name="Path 6926" class="cls-9" d="M-321.718,87.563l.328-2.722.718,2.848,1.633-.334-1.46,1.1,1.094,1.937-2.44-1.781-1.312,2.072.3-2.512-2.5-1.469Z"/>
      <path id="Path_6927" data-name="Path 6927" class="cls-9" d="M-228.052,153.7l.328-2.722.718,2.848,1.633-.334-1.46,1.1,1.094,1.937-2.44-1.781-1.312,2.072.3-2.512-2.5-1.469Z"/>
      <path id="Path_6928" data-name="Path 6928" class="cls-9" d="M-364.625,114.129l.328-2.722.718,2.848,1.633-.334-1.46,1.1,1.094,1.937-2.44-1.781-1.312,2.072.3-2.512-2.5-1.469Z"/>
      <path id="Path_6929" data-name="Path 6929" class="cls-9" d="M-321.166,120.8l.023-1.847.738,1.463,1.31-.414-.759.947.75,1.487-1.528-1.094-1.009,1.7.212-1.47-1.37-.48Z"/>
      <path id="Path_6930" data-name="Path 6930" class="cls-9" d="M-258.01,162.9l.023-1.847.738,1.463,1.309-.414-.759.947.75,1.487-1.528-1.095-1.008,1.7.212-1.47-1.37-.48Z"/>
    </g>
    <g id="Group_1178" data-name="Group 1178" class="cls-3" transform="translate(376.776 775.501) rotate(-13)">
      <path id="Path_6931" data-name="Path 6931" class="cls-4" d="M-234.271-147.673s-24.206,2.368-28.942,21.745a40.306,40.306,0,0,0,6.459,33.157l.43,5.6a9.614,9.614,0,0,0,4.522,5.382,49.084,49.084,0,0,0,7.1,2.8l4.09-2.8s12.057,6.979,24.975,4.782,24.114-17.054,27.344-17.7,4.306-.94,4.306-.94l5.382-10.686s-3.229-4.952-3.66-8.182,3.23-18.515-10.119-26.482-20.238-6.889-21.53-8.612-2.8-3.66-2.8-3.66l-16.148,2.8S-232.638-147.907-234.271-147.673Z"/>
      <path id="Path_6932" data-name="Path 6932" class="cls-10" d="M-244.913-136.477c4.48.746-2.368,15.071-9.473,14.856S-252.663-137.769-244.913-136.477Z"/>
      <path id="Path_6933" data-name="Path 6933" class="cls-10" d="M-254.629-86.976c-1.578-.184,5.751,6.9,8.544,5.75S-252.934-86.779-254.629-86.976Z"/>
      <path id="Path_6934" data-name="Path 6934" class="cls-10" d="M-180.692-105.871c-.822,2.464-2.793,8.051-4.272,8.379S-180.692-105.871-180.692-105.871Z"/>
      <path id="Path_6935" data-name="Path 6935" class="cls-10" d="M-196.465-95.649c2.195,2.038-6.244,11.13-11.666,8.669S-199.258-98.242-196.465-95.649Z"/>
      <path id="Path_6936" data-name="Path 6936" class="cls-10" d="M-235.241-97.483c-.328,2.949,12.22,7.549,13.75,3.113S-234.912-100.431-235.241-97.483Z"/>
      <path id="Path_6937" data-name="Path 6937" class="cls-10" d="M-213.717-135.61c-4.063,2.942,11.666,14.787,14.459,9.529S-204.187-142.511-213.717-135.61Z"/>
      <path id="Path_6938" data-name="Path 6938" class="cls-11" d="M-226.368-112.936"/>
      <path id="Path_6939" data-name="Path 6939" class="cls-10" d="M-234.38-134.615c-2.54.184-4.27.1-6.431-1.414a5.187,5.187,0,0,0-3.107-1.347.221.221,0,0,0-.07.437c1.929.691,3.216,2.364,5.165,3.033a6.384,6.384,0,0,0,4.654-.047A.353.353,0,0,0-234.38-134.615Z"/>
      <path id="Path_6940" data-name="Path 6940" class="cls-10" d="M-213.406-147.8a9.879,9.879,0,0,0-1.144-.578,2.587,2.587,0,0,1-1.036-1.335,6.749,6.749,0,0,0-1.184-2.474c-.214-.222-.661-.021-.588.29.282,1.187.326,2.574,1.052,3.6.547.775,1.666,1.6,2.654,1.29C-213.314-147.112-213.061-147.522-213.406-147.8Z"/>
      <path id="Path_6941" data-name="Path 6941" class="cls-10" d="M-194.245-101.293a.364.364,0,0,0-.213-.552c-.132-.425-.819-.626-1.26-.72a4.235,4.235,0,0,0-2.92.271c-.369.228-.179.648.215.674.526.035,1.046-.071,1.574-.046a5.945,5.945,0,0,1,1.364.158,3.635,3.635,0,0,0-.282,1.847c.013,1.26-.174,2.663.854,3.579.252.225.85-.046.589-.386-.539-.7-.318-1.82-.294-2.645A3.894,3.894,0,0,1-194.245-101.293Z"/>
      <path id="Path_6942" data-name="Path 6942" class="cls-10" d="M-179.192-106.988c-.687-.715-1.444-1.334-2.089-2.1-.616-.73-1.164-1.509-1.712-2.291-.217-.31-.872-.16-.749.269a9.388,9.388,0,0,0,3.669,5.09C-179.452-105.611-178.638-106.41-179.192-106.988Z"/>
      <path id="Path_6943" data-name="Path 6943" class="cls-10" d="M-215.486-99.926a5,5,0,0,0-3.7,2.994,14.477,14.477,0,0,0-.823,2.71c-.617,2.215-2.413,2.3-4.391,2.661-.361.065-.222.48.081.509,1.8.168,4.058-.206,4.935-2.019.451-.933.441-2.064.832-3.034a6.323,6.323,0,0,1,3.241-3.271A.293.293,0,0,0-215.486-99.926Z"/>
      <path id="Path_6944" data-name="Path 6944" class="cls-10" d="M-235.31-82.049c-1.571-.219-3.394-2.073-5.011-1.726-.75.161-1.549,1.07-2.083,1.537a8.035,8.035,0,0,0-2.057,2.194c0,.007,0,.013,0,.02s-.007.012,0,.022c-.042.16.139.266.289.2,1.409-.633,2.429-2.314,3.911-2.716,1.271-.345,3,1.137,4.33,1.47a.7.7,0,0,0,.717-.248l.166-.215A.356.356,0,0,0-235.31-82.049Z"/>
      <path id="Path_6945" data-name="Path 6945" class="cls-4" d="M-187.318-99.064c-24.074,0-43.59-17.442-43.59-38.958a35.189,35.189,0,0,1,2.585-13.236l-4.533.786s.218,2.565-1.415,2.8c0,0-24.206,2.368-28.942,21.745a40.306,40.306,0,0,0,6.459,33.157l.43,5.6a9.614,9.614,0,0,0,4.522,5.382,49.084,49.084,0,0,0,7.1,2.8l4.09-2.8s12.057,6.979,24.975,4.782,24.114-17.054,27.344-17.7,4.306-.94,4.306-.94l1.864-3.7A48.968,48.968,0,0,1-187.318-99.064Z"/>
    </g>
    <g id="Group_1180" data-name="Group 1180" transform="translate(-2819.582 1159)">
      <g id="Group_1162" data-name="Group 1162" class="cls-3" transform="translate(3947.582 -694.49)">
        <g id="Group_1158" data-name="Group 1158" transform="translate(140.067 26.432)">
          <path id="Path_6831" data-name="Path 6831" class="cls-12" d="M-296.063-13.713l29.187-9.193s45.824,12.528,53.967,15.44c.636.227,1.317,7.772-10.111,5.284-10.511-2.289-35.9-5.1-35.9-5.1l-4.579,5.99Z" transform="translate(296.063 26.234)"/>
          <path id="Path_6832" data-name="Path 6832" class="cls-4" d="M-296.063-17.962l29.187-9.193S-215.858-9.86-213.621-8.912c2.689,1.139-1.371,4.038-9.4,2.48-10.56-2.05-35.9-5.1-35.9-5.1l-4.579,5.99Z" transform="translate(296.063 27.155)"/>
        </g>
        <g id="Group_1159" data-name="Group 1159" transform="translate(0 0)">
          <path id="Path_6833" data-name="Path 6833" class="cls-13" d="M-431.775-60.894-474.1-57.489a.864.864,0,0,0-.544,1.47l29.912,30.135a2.6,2.6,0,0,0,.938.6l134.729,49.854,13.122-35.462L-430.67-60.742A2.589,2.589,0,0,0-431.775-60.894Z" transform="translate(474.894 60.903)"/>
          <path id="Path_6834" data-name="Path 6834" class="cls-14" d="M-423.06-60.7s-8.68,1.936-10.368,8.005c-.982,3.531.818,6.376,2.5,8.138a1.6,1.6,0,0,1-.594,2.6,15.381,15.381,0,0,0-7.319,6.245c-3.176,4.8,2.661,10.477,2.661,10.477l134.729,49.854,13.122-35.462Z" transform="translate(467.285 60.858)"/>
          <path id="Rectangle_2961" data-name="Rectangle 2961" class="cls-15" d="M0,0H10.789A15.788,15.788,0,0,1,26.578,15.788v6.235A15.788,15.788,0,0,1,10.789,37.812H0a0,0,0,0,1,0,0V0A0,0,0,0,1,0,0Z" transform="translate(178.953 50.014) rotate(20.306)"/>
          <path id="Path_6835" data-name="Path 6835" class="cls-16" d="M-276.012,34.987l16.657,6.394s1.31.239,1.418-.993c1.079-12.319,6.2-25.32,11.951-36.275l1.462.541c.484-1.888-.7-2.139-.7-2.139l-16.086-5.953a1.223,1.223,0,0,0-1.5.573h0c-7.824,10.309-12.354,23.578-13.539,36.587C-276.439,34.627-276.232,34.9-276.012,34.987Z" transform="translate(431.862 48.463)"/>
          <path id="Path_6836" data-name="Path 6836" class="cls-17" d="M-474.642-55.375l9.381,9.45a11.455,11.455,0,0,1,.6-7.291c2.393-4.71,4.063-4.716,4.063-4.716l-13.5,1.086A.864.864,0,0,0-474.642-55.375Z" transform="translate(474.894 60.259)"/>
          <path id="Path_6837" data-name="Path 6837" class="cls-18" d="M-437.331-33.43l120.87,39.609h0a23.1,23.1,0,0,0,18.418,6.182l.334-.037s9.169,18.863,22.433-2.392h0a12.367,12.367,0,0,0-7.306-15.889l-5.7-2.108.757.28c.484-1.889-.7-2.139-.7-2.139l-16.086-5.953a1.223,1.223,0,0,0-1.5.573h0c-.147.193-.285.395-.429.591L-430.64-60.742a2.578,2.578,0,0,0-1.105-.152L-460.6-58.573h0l-13.472,1.084a.846.846,0,0,0-.631.353.863.863,0,0,0-.06.121Z" transform="translate(474.865 60.903)"/>
          <path id="Path_6838" data-name="Path 6838" class="cls-19" d="M-226.583,33.155c-2.5,6.757-5.546,11.858-6.8,11.393s-.248-6.32,2.253-13.077,5.546-11.858,6.8-11.394S-224.083,26.4-226.583,33.155Z" transform="translate(422.66 43.355)"/>
        </g>
        <g id="Group_1160" data-name="Group 1160" transform="translate(105.023 52.682)">
          <path id="Path_6839" data-name="Path 6839" class="cls-12" d="M-339.694,13.189l44.35,13.031V31.57l-8.768,19.561,33.052,23.318V79.8s-.338,4.385-7.42,2.192-50.589-24.283-50.589-24.283S-345.091,28.7-339.694,13.189Z" transform="translate(340.805 -7.84)"/>
          <path id="Path_6840" data-name="Path 6840" class="cls-4" d="M-339.694,6.359l44.35,18.381L-304.113,44.3l33.052,28.667s-.338,4.385-7.42,2.192-50.589-24.283-50.589-24.283S-345.091,21.873-339.694,6.359Z" transform="translate(340.805 -6.359)"/>
        </g>
        <g id="Group_1161" data-name="Group 1161" transform="translate(193.74 68.523)">
          <path id="Path_6841" data-name="Path 6841" class="cls-20" d="M-223.571,45.6s-.038,4.654,6.5,12.536a27.8,27.8,0,0,0,15.037,9.334c-.255-.085-1.9-7.415-2.49-10.057a.4.4,0,0,1,.6-.43c2.679,1.646,11.438,6.779,17.486,7.418a.55.55,0,0,0,.559-.758c-1.248-3.022-5.815-13.528-10.139-16.577a.15.15,0,0,1,.089-.272h3.065a.5.5,0,0,0,.476-.66c-1.061-3.127-6.461-18.109-25.374-16.229Z" transform="translate(226.676 -27.269)"/>
          <path id="Path_6842" data-name="Path 6842" class="cls-21" d="M-201.585,46.984c.793-.129,1.566-.463,1.721-1.34.194-1.1-1.187-1.819-2.01-2.187-2.83-1.266-5.967-.5-8.815.273-.388.106-.2.606.165.508a17.572,17.572,0,0,1,6-.92,6.928,6.928,0,0,1,2.863.829c.633.363,1.436.877,1.089,1.747-.261.655-1.349.659-1.929.674-.245.007-.432.341-.147.461a8.347,8.347,0,0,1,5.006,6.819,22.7,22.7,0,0,0-8.6-4.349c-.176-.045-.434.137-.294.325,1.918,2.584,1.594,5.9,1.177,8.909-1.982-1.283-3.892-2.733-4.706-5.049-.79-2.249-.76-4.688-1.747-6.885-.068-.152-.373-.1-.3.071,1.042,2.469.78,5.281,1.917,7.719,1,2.138,2.98,3.486,4.907,4.718a.255.255,0,0,0,.377-.184c.434-3.048.782-6.282-.839-9.006a22.891,22.891,0,0,1,8.225,4.49c.15.129.489.067.483-.17A8.831,8.831,0,0,0-201.585,46.984Z" transform="translate(224.194 -30.096)"/>
          <path id="Path_6843" data-name="Path 6843" class="cls-21" d="M-199.088,77.751c-5.89-1.3-11.221-3.167-16.021-6.95A34.687,34.687,0,0,1-225.7,56.817c-.1-.24-.565-.157-.466.109,4.039,10.926,14.986,20.642,26.994,21.331A.256.256,0,0,0-199.088,77.751Z" transform="translate(227.24 -33.108)"/>
          <path id="Path_6844" data-name="Path 6844" class="cls-21" d="M-179.526,77.932A36.027,36.027,0,0,1-191.6,74.163c-.179-.1-.472.145-.263.29a21.913,21.913,0,0,0,12.253,4C-179.29,78.443-179.168,77.987-179.526,77.932Z" transform="translate(219.818 -36.894)"/>
          <path id="Path_6845" data-name="Path 6845" class="cls-21" d="M-181.294,53.978c-.2-.157-.565.091-.333.284,4.371,3.627,6.444,8.222,7.782,13.607.059.237.519.2.5-.058C-173.653,62.391-177.132,57.247-181.294,53.978Z" transform="translate(217.6 -32.512)"/>
          <path id="Path_6846" data-name="Path 6846" class="cls-21" d="M-181.018,42.485c-1.046-4.6-4.213-8.974-7.7-12.052-.2-.176-.558.072-.341.291,3.5,3.53,5.563,7.379,7.548,11.878C-181.4,42.851-180.95,42.784-181.018,42.485Z" transform="translate(219.21 -27.406)"/>
          <path id="Path_6847" data-name="Path 6847" class="cls-21" d="M-187.044,26.609c-.147-.093-.382.113-.219.24a19.131,19.131,0,0,1,6.943,11.409c.058.244.533.2.517-.06A15.526,15.526,0,0,0-187.044,26.609Z" transform="translate(218.817 -26.585)"/>
          <path id="Path_6848" data-name="Path 6848" class="cls-21" d="M-214.743,77.6c-5.26-3.384-9.57-7.366-12.449-13.008-.077-.151-.41-.052-.33.118,2.59,5.49,6.965,10.615,12.551,13.222C-214.737,78.044-214.5,77.761-214.743,77.6Z" transform="translate(227.535 -34.808)"/>
        </g>
      </g>
      <path id="Path_6849" data-name="Path 6849" class="cls-22" d="M-334.673-22.186q1.209-.864,2.376-1.78A28.868,28.868,0,0,0-334.673-22.186Z" transform="translate(4392.081 -641.594)"/>
      <path id="Path_6850" data-name="Path 6850" class="cls-22" d="M-345.124-12.676c-.1.041-.211.076-.316.116a1.336,1.336,0,0,0,1.038.445,1.709,1.709,0,0,0,1.7-1.165A13.676,13.676,0,0,1-345.124-12.676Z" transform="translate(4394.415 -643.91)"/>
      <path id="Path_6851" data-name="Path 6851" class="cls-23" d="M-311.853-11.437" transform="translate(4387.134 -644.31)"/>
      <g id="Group_1171" data-name="Group 1171" class="cls-3" transform="translate(4005.119 -726.497)">
        <g id="Group_1163" data-name="Group 1163" transform="translate(56.571 24.198)">
          <path id="Path_6852" data-name="Path 6852" class="cls-1" d="M-325.3-51.629s1.105-5.19,7.456-11.275c3.392-3.25,5.8-3.832,7.537-4.114.72-.117,1.3-2.108.746-2.577-1.65-1.386-4.956-2.328-9.587.907-7.04,4.916-10.136,13.885-10.056,16.106S-325.3-51.629-325.3-51.629Z" transform="translate(329.206 70.874)"/>
          <path id="Path_6853" data-name="Path 6853" class="cls-24" d="M-317.844-62.356c3.392-3.25,5.8-3.832,7.537-4.114.506-.082.936-1.086.958-1.841a6.806,6.806,0,0,0-4.841,1.423c-3.342,2.422-9.79,10.816-10.484,8.061a8.233,8.233,0,0,1,.793-4.8c-3.706,4.648-5.382,9.956-5.324,11.594.081,2.221,3.9.952,3.9.952S-324.2-56.271-317.844-62.356Z" transform="translate(329.206 70.326)"/>
        </g>
        <path id="Path_6854" data-name="Path 6854" class="cls-25" d="M-323.344-28.589s-6.469,7.809-3.8,14.825c1.783,4.688,8.18,6.257,8.18,6.257l-3.306,9.559L-310.413.027V-21.288Z" transform="translate(385.47 85.906)"/>
        <path id="Path_6855" data-name="Path 6855" class="cls-25" d="M-398.332-48.886s-2.442,12.343,18.068,18.9c10.11,3.235,23.619-3.445,23.619-3.445s-9.425,4.238-9.815,5.533,2.341,2.428,2.341,2.428-2.672-.25-3.287.674,3.767,1.686,3.767,1.686-3.731,1.579-3.211,2.36,5.131-.927,5.131-.927-3.569,2.483-2.659,3.071c.562.363,11.47-2.378,19.256-6.19a26.228,26.228,0,0,0,8.063-6.471L-393.356-50.9Z" transform="translate(400.781 90.742)"/>
        <g id="Group_1166" data-name="Group 1166" transform="translate(0 0)">
          <g id="Group_1164" data-name="Group 1164">
            <path id="Path_6856" data-name="Path 6856" class="cls-1" d="M-332.562-75.639a23.341,23.341,0,0,0-7.257-19.091c-10.907-10.356-40.076-10.833-53.138,9.151s12.391,34.612,25.787,35.17S-344.06-58-344.06-58-338.7-73.742-332.562-75.639Z" transform="translate(400.381 101.768)"/>
            <path id="Path_6857" data-name="Path 6857" class="cls-24" d="M-332.561-75.62s.067-.457.1-1.245c-12.261,12.66-15.923-9.487-21.746-14.834-6.218-5.709-11.079-4.09-12.724-6.152-.66-.828,1.111-2.329,3.467-3.829-10.933.609-22.51,5.441-29.489,16.119-3.312,5.066-4.144,9.787-3.329,14.024,13.566,6.892,39.039,18.281,51.754,13.924.308-.233.471-.37.471-.37S-338.7-73.722-332.561-75.62Z" transform="translate(400.38 101.749)"/>
            <path id="Path_6858" data-name="Path 6858" class="cls-1" d="M-393.329-85c-11.983,11.423-9.8,30.275.807,38.353,10.657,8.117,37.5,12.745,48.4-9.53C-331.721-81.529-369.913-107.318-393.329-85Z" transform="translate(401.434 99.979)"/>
            <path id="Path_6859" data-name="Path 6859" class="cls-26" d="M-383.736-86.413a30.386,30.386,0,0,0-5.9,4.314c-11.394,10.608-9.317,28.118.768,35.62,7.095,5.279,21.732,8.955,33.431,3.59a26.321,26.321,0,0,0,10.613-11.433C-334.346-75.247-361.856-96.488-383.736-86.413Z" transform="translate(400.547 99)"/>
          </g>
          <g id="Group_1165" data-name="Group 1165" transform="translate(4.701 9.988)">
            <path id="Path_6860" data-name="Path 6860" class="cls-27" d="M-389.557-81.2c-7.689,6.6-8.474,25.936,1.518,33.583s33.28,13.448,43.563-7.583S-364.961-102.313-389.557-81.2Z" transform="translate(395.431 89.016)"/>
            <path id="Path_6861" data-name="Path 6861" class="cls-28" d="M-376.727-58.077c-6.862-6.685-8.963-18.416-5.785-27.01a34.8,34.8,0,0,0-7.044,4.738c-7.688,6.6-8.474,25.936,1.518,33.583,9.841,7.532,33.13,13.891,44.479-8.9C-348.7-57.814-365.677-47.312-376.727-58.077Z" transform="translate(395.431 88.164)"/>
            <path id="Path_6862" data-name="Path 6862" class="cls-28" d="M-384.674-49.115c-9.007-6.894-9.254-23.285-3.581-31.283-.435.342-.87.695-1.3,1.065-7.688,6.6-8.474,25.936,1.518,33.583,8.9,6.812,28.342,12.141,39.753-1.635C-359.846-37.969-376.6-42.935-384.674-49.115Z" transform="translate(395.431 87.148)"/>
            <path id="Path_6863" data-name="Path 6863" class="cls-29" d="M-350.429-70.485l5.52-3.4c-4.164-8.115-18.743-13.5-22.921-9.927C-367.83-83.814-354.145-79.685-350.429-70.485Z" transform="translate(389.448 88.133)"/>
            <path id="Path_6864" data-name="Path 6864" class="cls-29" d="M-338.125-66.166l-5.21,2.738,1.6,6.447,6.134-2.653A10.3,10.3,0,0,0-338.125-66.166Z" transform="translate(384.138 84.063)"/>
          </g>
        </g>
        <g id="Group_1167" data-name="Group 1167" transform="translate(33.391 42.986)">
          <path id="Path_6865" data-name="Path 6865" class="cls-1" d="M-330.664-46.429c-4.549-1.6-8.416,1.234-9.982,4.916s-3.637,11.29-8.773,13.345a31.467,31.467,0,0,1,4.308,7.368s9.359-.884,15.133-8.028S-324.5-44.261-330.664-46.429Z" transform="translate(356.767 46.886)"/>
          <path id="Path_6866" data-name="Path 6866" class="cls-1" d="M-350.853-22.416a43.061,43.061,0,0,0-5.454.193,1.257,1.257,0,0,0,.431,2.405c1.628.2.814.475.475.678s-3.593.61-3.39,1.966,3.864,0,3.864,0c.339.475-3.457,1.017-2.983,2.441s3.661-.271,4.2-.406-2.618,1.431-1.766,2.516,3.461-.414,4.613-1.3A15.715,15.715,0,0,1-346.5-15.5Z" transform="translate(358.801 41.588)"/>
          <path id="Path_6867" data-name="Path 6867" class="cls-16" d="M-335.306-18.911a2.783,2.783,0,0,1-1.589.844c-1.082.208-2.121-5.931.795-8.152s8.9-1.44,9.968-.328S-335.306-18.911-335.306-18.911Z" transform="translate(354.291 42.714)"/>
          <path id="Path_6868" data-name="Path 6868" class="cls-26" d="M-334.606-18.376s-1.087-4.615,2.367-6.123,5.732,0,5.732,0S-328.935-18.847-334.606-18.376Z" transform="translate(353.591 42.178)"/>
          <path id="Path_6869" data-name="Path 6869" class="cls-26" d="M-348.761-24.688s2.611-.37,4.285,4.219c1.073,2.942,1,5.772-1.253,5.8a1.56,1.56,0,0,1-1.446-1.151,9.767,9.767,0,0,0-1.125-3.463,14.043,14.043,0,0,0-2.559-3.536C-352.6-23.545-350.82-25.977-348.761-24.688Z" transform="translate(357.232 42.155)"/>
          <path id="Path_6870" data-name="Path 6870" class="cls-26" d="M-350.12-19.724c-.12-.265-.572-.193-.518.122a13.292,13.292,0,0,0,.726,2.047c.263.768.305,1.616.618,2.356.092.219.565.3.613,0C-348.428-16.78-349.495-18.343-350.12-19.724Z" transform="translate(357.032 41.034)"/>
          <path id="Path_6871" data-name="Path 6871" class="cls-26" d="M-351.7-18.412c-.2-.272-.759-.052-.544.27a7.15,7.15,0,0,1,.948,2.015c.186.656.175,1.359.393,2,.081.238.515.262.584,0C-349.947-15.536-350.9-17.308-351.7-18.412Z" transform="translate(357.391 40.741)"/>
          <path id="Path_6872" data-name="Path 6872" class="cls-24" d="M-337.987-39.014a17.237,17.237,0,0,1,1.6-2.768,5.57,5.57,0,0,1,2.329-3c.072-.062.149-.117.224-.175a3.253,3.253,0,0,0-3.092-1.807c-3.038.72-5.536,4.794-5.74,5.274-1.35,3.174-3.081,9.259-6.823,12.195a2.253,2.253,0,0,0-.828-.1c-1.914-1.2-3.582.82-2.408,1.693a31.308,31.308,0,0,0-3.569.2,1.257,1.257,0,0,0,.431,2.405c1.628.2.814.475.475.678-.3.182-2.95.531-3.343,1.581a.36.36,0,0,1,.126.019,2.588,2.588,0,0,0,.744.186c.347-.012.694-.02,1.038-.04.572-.095,1.144-.274,1.71-.393a.388.388,0,0,1,.229.74c-.019.009-.038.015-.057.023-.385.446-3.38,1.014-2.955,2.289a.743.743,0,0,0,.288.391.421.421,0,0,1,.377-.635,7.573,7.573,0,0,0,.757.036,5,5,0,0,0,2.122-1.051c.31-.251.707.188.531.5a2.371,2.371,0,0,1-.444.569,5.7,5.7,0,0,1,.573-.219c.335-.084-.74.482-1.413,1.181,1.968-1.046,3.945-2.079,5.9-3.145a5.879,5.879,0,0,0,.568-.857.3.3,0,0,1-.008-.21,18.258,18.258,0,0,0,.426-2.578l.016-.309a.418.418,0,0,1,.117-.262,3.689,3.689,0,0,1,.208-.562.378.378,0,0,1,.507-.172,3.222,3.222,0,0,1,1.29,1.789c.4-.229.8-.448,1.2-.668a23.813,23.813,0,0,1,1.48-2.171.3.3,0,0,1,.168-.121c.337-.508.688-1.008,1.057-1.5.362-.667.717-1.338,1.034-2.03.928-2.025,1.6-4.172,2.68-6.126C-338.316-38.413-338.157-38.706-337.987-39.014Z" transform="translate(358.785 46.859)"/>
        </g>
        <g id="Group_1170" data-name="Group 1170" transform="translate(58.325 27.282)">
          <path id="Path_6873" data-name="Path 6873" class="cls-1" d="M-290.835-60.58c-10.249-8.573-18.473-5.99-18.473-5.99-1.736.282-4.659,1.27-8.052,4.52-6.351,6.085-7.456,11.275-7.456,11.275a8.054,8.054,0,0,1-1.93.357c-.147.55-.222.876-.222.876s8.835-2.365,3.226,14.477,8.171,18.732,8.171,19.521-4.818,8.044-3.547,11.365c.261.681,17.239-4.315,17.239-4.315l-.883-3.6s-2.756-4.238-2.855-5.815.99-7.966,2.855-8.675C-287.342-32.45-280.586-52.007-290.835-60.58Z" transform="translate(326.967 66.935)"/>
          <g id="Group_1168" data-name="Group 1168" transform="translate(7.327 54.84)">
            <path id="Path_6874" data-name="Path 6874" class="cls-15" d="M-300.734,3.082S-316.36,7.111-317.039,7.8s-.912,3.084.2,3.261,17.284-4.437,17.284-4.437S-299.75,3.159-300.734,3.082Z" transform="translate(317.612 -3.082)"/>
            <path id="Path_6875" data-name="Path 6875" class="cls-19" d="M-314.289,10.374a7.746,7.746,0,0,0-.332-1.207c-.187-.432-.654-.172-.689.089l-.009-.008a7.207,7.207,0,0,0,.175,1.166c.064.367.05.787.371,1.02a.368.368,0,0,0,.518-.056C-314.043,11.052-314.2,10.729-314.289,10.374Z" transform="translate(317.115 -4.351)"/>
            <path id="Path_6876" data-name="Path 6876" class="cls-19" d="M-310.508,10.09a.657.657,0,0,0-.069-.245c-.064-.2-.151-.386-.23-.576-.159-.382-.327-.761-.479-1.147-.114-.289-.642-.2-.558.13.139.545.241,1.1.382,1.642.1.394.3.695.751.526a.339.339,0,0,0,.188-.249C-310.522,10.186-310.518,10.17-310.508,10.09Z" transform="translate(316.363 -4.137)"/>
            <path id="Path_6877" data-name="Path 6877" class="cls-19" d="M-307.063,8.311a10.8,10.8,0,0,0-.48-1.059c-.111-.205-.562-.136-.54.124a8.088,8.088,0,0,0,.2,1.126,2.7,2.7,0,0,0,.369,1.118c.23.278.789.233.816-.188A2.748,2.748,0,0,0-307.063,8.311Z" transform="translate(315.546 -3.96)"/>
            <path id="Path_6878" data-name="Path 6878" class="cls-19" d="M-302.413,7.834q.127.086-.03-.1l-.153-.258c-.1-.172-.208-.341-.315-.511a3.341,3.341,0,0,0-.678-.927h0c-.217-.172-.676-.092-.652.229a3.437,3.437,0,0,0,.5,1.194,2.915,2.915,0,0,0,.634,1.059.607.607,0,0,0,.756,0l.037-.037A.387.387,0,0,0-302.413,7.834Z" transform="translate(314.713 -3.703)"/>
            <path id="Path_6879" data-name="Path 6879" class="cls-19" d="M-297.672,5.942a2.222,2.222,0,0,0-.522-1.151c-.2-.19-.688-.086-.67.236.026.444.127.905.193,1.347a1.461,1.461,0,0,0,.617,1.182c.265.152.838,0,.793-.387A10.911,10.911,0,0,0-297.672,5.942Z" transform="translate(313.548 -3.432)"/>
          </g>
          <g id="Group_1169" data-name="Group 1169" transform="translate(9.579 47.595)">
            <path id="Path_6880" data-name="Path 6880" class="cls-26" d="M-301.54-4.951c.139-.534-.456-1.168-1.138-1.212a5.037,5.037,0,0,0-1.841.349,25.3,25.3,0,0,0-3.741.825l-3.523.88a7.108,7.108,0,0,0-2.453.743,1.04,1.04,0,0,0-.456,1.148.862.862,0,0,0,.316.587.7.7,0,0,0,.215.232,1.3,1.3,0,0,0,.406.167,1.016,1.016,0,0,0,.188.054.475.475,0,0,0,.424.25c2.3.143,4.656-.84,6.847-1.44,1.108-.3,3.747-.493,4.476-1.553a1.03,1.03,0,0,0,.2-.674A.778.778,0,0,0-301.54-4.951Z" transform="translate(314.736 6.168)"/>
            <path id="Path_6881" data-name="Path 6881" class="cls-21" d="M-310.835-1.314c-.133-.09-.271-.147-.338-.3a1.158,1.158,0,0,1-.014-.653c.044-.253-.334-.323-.425-.1a1.176,1.176,0,0,0-.067,1.082.621.621,0,0,0,.8.289A.186.186,0,0,0-310.835-1.314Z" transform="translate(314.097 5.374)"/>
            <path id="Path_6882" data-name="Path 6882" class="cls-21" d="M-308.738-2.2a2.226,2.226,0,0,0-.208-.728.194.194,0,0,0-.306,0,1.238,1.238,0,0,0,.3,1.525.24.24,0,0,0,.332-.115C-308.554-1.773-308.675-1.954-308.738-2.2Z" transform="translate(313.58 5.483)"/>
            <path id="Path_6883" data-name="Path 6883" class="cls-21" d="M-305.916-3.8c-.189-.15-.507.06-.313.265a1.421,1.421,0,0,1,.381.794c.027.22-.014.381.157.548a.223.223,0,0,0,.276,0C-304.875-2.569-305.571-3.524-305.916-3.8Z" transform="translate(312.905 5.666)"/>
            <path id="Path_6884" data-name="Path 6884" class="cls-21" d="M-301.96-4.483c-.191-.174-.545.074-.332.282a2.046,2.046,0,0,1,.41.554,1.616,1.616,0,0,0,.251.452c.085.089.313.06.34-.077C-301.2-3.716-301.656-4.206-301.96-4.483Z" transform="translate(312.053 5.816)"/>
            <path id="Path_6885" data-name="Path 6885" class="cls-21" d="M-299.846-5.581c-.19-.132-.524.067-.312.265a1.6,1.6,0,0,1,.417,1.156.282.282,0,0,0,.534.062A1.394,1.394,0,0,0-299.846-5.581Z" transform="translate(311.591 6.05)"/>
          </g>
          <path id="Path_6886" data-name="Path 6886" class="cls-16" d="M-325.085-18.026a7.318,7.318,0,0,1,8.106-.019c4.363,2.763,2.231,8.586-1.758,11.044C-318.738-7-324.834-8.668-325.085-18.026Z" transform="translate(326.559 56.603)"/>
          <path id="Path_6887" data-name="Path 6887" class="cls-26" d="M-325.085-16.592a7.265,7.265,0,0,1,7.224-.015c3.889,2.162,1.387,7.457-2.168,9.38C-320.029-7.227-324.861-9.27-325.085-16.592Z" transform="translate(326.559 56.233)"/>
          <path id="Path_6888" data-name="Path 6888" class="cls-24" d="M-309.208-12.479s-6.376-10.808-5.242-21.28a23.363,23.363,0,0,1,6.571-14.082.4.4,0,0,0-.442-.638c-4.866,2.046-9.517,6.024-13.187,10.412a37.369,37.369,0,0,1-1.712,6.994c-5.609,16.843,8.171,18.732,8.171,19.521S-319.867-3.508-318.6-.186c.171.448,7.563-1.556,12.611-2.983Z" transform="translate(326.446 62.942)"/>
          <path id="Path_6889" data-name="Path 6889" class="cls-24" d="M-288.96-22.715c-3.3,2.488-8.386,5.8-11.228,4.871l-4.381-1.429s1.458,3.731,5.345,3.864A2.991,2.991,0,0,1-297.907-17,26.4,26.4,0,0,0-288.96-22.715Z" transform="translate(322.112 57.35)"/>
        </g>
      </g>
    </g>
    <g id="Group_1181" data-name="Group 1181" class="cls-3" transform="translate(524.255 368.271)">
      <path id="Path_6921-2" data-name="Path 6921" class="cls-9" d="M-319.838,121.878c-3.668-.948-7.508-1.415-11.241-2.062q-5.791-1-11.59-1.974c-7.381-1.228-14.835-2.776-22.288-3.513,3.9-4.275,6.958-9.5,10.083-14.331a149.846,149.846,0,0,1,10.481-14.822q5.746,1.006,11.493,2c3.428.59,7,1.379,10.492,1.007.421-.045.246-.566-.115-.56-7.3.106-14.677-1.754-21.856-2.943a.266.266,0,0,0-.17.025.219.219,0,0,0-.193.073A145.083,145.083,0,0,0-355.421,99.6c-3.356,5.122-6.964,9.965-10.59,14.887-.24.326.3.673.553.4.07-.074.136-.155.206-.23,7.414,1.624,15.049,2.518,22.531,3.784q5.631.953,11.259,1.923c3.838.665,7.71,1.569,11.586,1.955C-319.537,122.354-319.542,121.954-319.838,121.878Z"/>
      <path id="Path_6922-2" data-name="Path 6922" class="cls-9" d="M-321.351,119.452c.352-5.013-.466-10.124-.9-15.109a51.789,51.789,0,0,1,.577-15.879c.04-.178-.313-.29-.363-.107-1.3,4.777-1.269,9.7-.918,14.607.391,5.477.929,10.889,1,16.385C-321.948,119.673-321.377,119.818-321.351,119.452Z"/>
      <path id="Path_6923-2" data-name="Path 6923" class="cls-9" d="M-227.7,154.156a70.4,70.4,0,0,0-18.917,3.941,83.013,83.013,0,0,0-8.409,3.651,3.943,3.943,0,0,1-3.359.44,8.869,8.869,0,0,1-2.627-1.854,21.779,21.779,0,0,1-3.585-4.415c-1.963-3.051-3.681-6.275-5.5-9.414l-2.642-4.56a14.355,14.355,0,0,0-2.714-3.8c-2.413-2.1-6.242-2.866-9.185-3.95q-5.547-2.044-11.1-4.081-12.369-4.535-24.736-9.074c-.25-.091-.394.239-.141.333q11.235,4.183,22.469,8.371,5.538,2.064,11.079,4.122l5.7,2.114c1.969.73,4.312,1.323,5.828,2.867a21.927,21.927,0,0,1,3,4.723l3.074,5.435a97.267,97.267,0,0,0,5.143,8.629c1.5,2.1,3.724,4.777,6.348,5.468a4.053,4.053,0,0,0,2.847-.443c1.719-.814,3.39-1.7,5.141-2.454a68.976,68.976,0,0,1,22.424-5.364C-227.054,154.8-227.254,154.125-227.7,154.156Z"/>
      <path id="Path_6924-2" data-name="Path 6924" class="cls-9" d="M-344.882,84.273l.684-2.148.991,2.35,3.245.392-3.22.281-.785,2.986-1.1-2.291-2.036,1.029,1.507-1.926L-346.64,83Z"/>
      <path id="Path_6925-2" data-name="Path 6925" class="cls-9" d="M-277.116,137.112l.684-2.148.991,2.35,3.245.392-3.22.281-.785,2.986-1.1-2.291-2.036,1.029,1.507-1.926-1.039-1.948Z"/>
      <path id="Path_6926-2" data-name="Path 6926" class="cls-9" d="M-321.718,87.563l.328-2.722.718,2.848,1.633-.334-1.46,1.1,1.094,1.937-2.44-1.781-1.312,2.072.3-2.512-2.5-1.469Z"/>
      <path id="Path_6927-2" data-name="Path 6927" class="cls-9" d="M-228.052,153.7l.328-2.722.718,2.848,1.633-.334-1.46,1.1,1.094,1.937-2.44-1.781-1.312,2.072.3-2.512-2.5-1.469Z"/>
      <path id="Path_6928-2" data-name="Path 6928" class="cls-9" d="M-364.625,114.129l.328-2.722.718,2.848,1.633-.334-1.46,1.1,1.094,1.937-2.44-1.781-1.312,2.072.3-2.512-2.5-1.469Z"/>
      <path id="Path_6929-2" data-name="Path 6929" class="cls-9" d="M-321.166,120.8l.023-1.847.738,1.463,1.31-.414-.759.947.75,1.487-1.528-1.094-1.009,1.7.212-1.47-1.37-.48Z"/>
      <path id="Path_6930-2" data-name="Path 6930" class="cls-9" d="M-258.01,162.9l.023-1.847.738,1.463,1.309-.414-.759.947.75,1.487-1.528-1.095-1.008,1.7.212-1.47-1.37-.48Z"/>
    </g>
    <g id="Group_1187" data-name="Group 1187" class="cls-3" transform="translate(381.372 896.271)">
      <path id="Path_6921-3" data-name="Path 6921" class="cls-9" d="M-319.838,121.878c-3.668-.948-7.508-1.415-11.241-2.062q-5.791-1-11.59-1.974c-7.381-1.228-14.835-2.776-22.288-3.513,3.9-4.275,6.958-9.5,10.083-14.331a149.846,149.846,0,0,1,10.481-14.822q5.746,1.006,11.493,2c3.428.59,7,1.379,10.492,1.007.421-.045.246-.566-.115-.56-7.3.106-14.677-1.754-21.856-2.943a.266.266,0,0,0-.17.025.219.219,0,0,0-.193.073A145.083,145.083,0,0,0-355.421,99.6c-3.356,5.122-6.964,9.965-10.59,14.887-.24.326.3.673.553.4.07-.074.136-.155.206-.23,7.414,1.624,15.049,2.518,22.531,3.784q5.631.953,11.259,1.923c3.838.665,7.71,1.569,11.586,1.955C-319.537,122.354-319.542,121.954-319.838,121.878Z"/>
      <path id="Path_6922-3" data-name="Path 6922" class="cls-9" d="M-321.351,119.452c.352-5.013-.466-10.124-.9-15.109a51.789,51.789,0,0,1,.577-15.879c.04-.178-.313-.29-.363-.107-1.3,4.777-1.269,9.7-.918,14.607.391,5.477.929,10.889,1,16.385C-321.948,119.673-321.377,119.818-321.351,119.452Z"/>
      <path id="Path_6923-3" data-name="Path 6923" class="cls-9" d="M-227.7,154.156a70.4,70.4,0,0,0-18.917,3.941,83.013,83.013,0,0,0-8.409,3.651,3.943,3.943,0,0,1-3.359.44,8.869,8.869,0,0,1-2.627-1.854,21.779,21.779,0,0,1-3.585-4.415c-1.963-3.051-3.681-6.275-5.5-9.414l-2.642-4.56a14.355,14.355,0,0,0-2.714-3.8c-2.413-2.1-6.242-2.866-9.185-3.95q-5.547-2.044-11.1-4.081-12.369-4.535-24.736-9.074c-.25-.091-.394.239-.141.333q11.235,4.183,22.469,8.371,5.538,2.064,11.079,4.122l5.7,2.114c1.969.73,4.312,1.323,5.828,2.867a21.927,21.927,0,0,1,3,4.723l3.074,5.435a97.267,97.267,0,0,0,5.143,8.629c1.5,2.1,3.724,4.777,6.348,5.468a4.053,4.053,0,0,0,2.847-.443c1.719-.814,3.39-1.7,5.141-2.454a68.976,68.976,0,0,1,22.424-5.364C-227.054,154.8-227.254,154.125-227.7,154.156Z"/>
      <path id="Path_6924-3" data-name="Path 6924" class="cls-9" d="M-344.882,84.273l.684-2.148.991,2.35,3.245.392-3.22.281-.785,2.986-1.1-2.291-2.036,1.029,1.507-1.926L-346.64,83Z"/>
      <path id="Path_6925-3" data-name="Path 6925" class="cls-9" d="M-277.116,137.112l.684-2.148.991,2.35,3.245.392-3.22.281-.785,2.986-1.1-2.291-2.036,1.029,1.507-1.926-1.039-1.948Z"/>
      <path id="Path_6926-3" data-name="Path 6926" class="cls-9" d="M-321.718,87.563l.328-2.722.718,2.848,1.633-.334-1.46,1.1,1.094,1.937-2.44-1.781-1.312,2.072.3-2.512-2.5-1.469Z"/>
      <path id="Path_6927-3" data-name="Path 6927" class="cls-9" d="M-228.052,153.7l.328-2.722.718,2.848,1.633-.334-1.46,1.1,1.094,1.937-2.44-1.781-1.312,2.072.3-2.512-2.5-1.469Z"/>
      <path id="Path_6928-3" data-name="Path 6928" class="cls-9" d="M-364.625,114.129l.328-2.722.718,2.848,1.633-.334-1.46,1.1,1.094,1.937-2.44-1.781-1.312,2.072.3-2.512-2.5-1.469Z"/>
      <path id="Path_6929-3" data-name="Path 6929" class="cls-9" d="M-321.166,120.8l.023-1.847.738,1.463,1.31-.414-.759.947.75,1.487-1.528-1.094-1.009,1.7.212-1.47-1.37-.48Z"/>
      <path id="Path_6930-3" data-name="Path 6930" class="cls-9" d="M-258.01,162.9l.023-1.847.738,1.463,1.309-.414-.759.947.75,1.487-1.528-1.095-1.008,1.7.212-1.47-1.37-.48Z"/>
    </g>
    <g id="Group_1188" data-name="Group 1188" class="cls-3" transform="translate(539.372 1250.271)">
      <path id="Path_6921-4" data-name="Path 6921" class="cls-9" d="M-319.838,121.878c-3.668-.948-7.508-1.415-11.241-2.062q-5.791-1-11.59-1.974c-7.381-1.228-14.835-2.776-22.288-3.513,3.9-4.275,6.958-9.5,10.083-14.331a149.846,149.846,0,0,1,10.481-14.822q5.746,1.006,11.493,2c3.428.59,7,1.379,10.492,1.007.421-.045.246-.566-.115-.56-7.3.106-14.677-1.754-21.856-2.943a.266.266,0,0,0-.17.025.219.219,0,0,0-.193.073A145.083,145.083,0,0,0-355.421,99.6c-3.356,5.122-6.964,9.965-10.59,14.887-.24.326.3.673.553.4.07-.074.136-.155.206-.23,7.414,1.624,15.049,2.518,22.531,3.784q5.631.953,11.259,1.923c3.838.665,7.71,1.569,11.586,1.955C-319.537,122.354-319.542,121.954-319.838,121.878Z"/>
      <path id="Path_6922-4" data-name="Path 6922" class="cls-9" d="M-321.351,119.452c.352-5.013-.466-10.124-.9-15.109a51.789,51.789,0,0,1,.577-15.879c.04-.178-.313-.29-.363-.107-1.3,4.777-1.269,9.7-.918,14.607.391,5.477.929,10.889,1,16.385C-321.948,119.673-321.377,119.818-321.351,119.452Z"/>
      <path id="Path_6923-4" data-name="Path 6923" class="cls-9" d="M-227.7,154.156a70.4,70.4,0,0,0-18.917,3.941,83.013,83.013,0,0,0-8.409,3.651,3.943,3.943,0,0,1-3.359.44,8.869,8.869,0,0,1-2.627-1.854,21.779,21.779,0,0,1-3.585-4.415c-1.963-3.051-3.681-6.275-5.5-9.414l-2.642-4.56a14.355,14.355,0,0,0-2.714-3.8c-2.413-2.1-6.242-2.866-9.185-3.95q-5.547-2.044-11.1-4.081-12.369-4.535-24.736-9.074c-.25-.091-.394.239-.141.333q11.235,4.183,22.469,8.371,5.538,2.064,11.079,4.122l5.7,2.114c1.969.73,4.312,1.323,5.828,2.867a21.927,21.927,0,0,1,3,4.723l3.074,5.435a97.267,97.267,0,0,0,5.143,8.629c1.5,2.1,3.724,4.777,6.348,5.468a4.053,4.053,0,0,0,2.847-.443c1.719-.814,3.39-1.7,5.141-2.454a68.976,68.976,0,0,1,22.424-5.364C-227.054,154.8-227.254,154.125-227.7,154.156Z"/>
      <path id="Path_6924-4" data-name="Path 6924" class="cls-9" d="M-344.882,84.273l.684-2.148.991,2.35,3.245.392-3.22.281-.785,2.986-1.1-2.291-2.036,1.029,1.507-1.926L-346.64,83Z"/>
      <path id="Path_6925-4" data-name="Path 6925" class="cls-9" d="M-277.116,137.112l.684-2.148.991,2.35,3.245.392-3.22.281-.785,2.986-1.1-2.291-2.036,1.029,1.507-1.926-1.039-1.948Z"/>
      <path id="Path_6926-4" data-name="Path 6926" class="cls-9" d="M-321.718,87.563l.328-2.722.718,2.848,1.633-.334-1.46,1.1,1.094,1.937-2.44-1.781-1.312,2.072.3-2.512-2.5-1.469Z"/>
      <path id="Path_6927-4" data-name="Path 6927" class="cls-9" d="M-228.052,153.7l.328-2.722.718,2.848,1.633-.334-1.46,1.1,1.094,1.937-2.44-1.781-1.312,2.072.3-2.512-2.5-1.469Z"/>
      <path id="Path_6928-4" data-name="Path 6928" class="cls-9" d="M-364.625,114.129l.328-2.722.718,2.848,1.633-.334-1.46,1.1,1.094,1.937-2.44-1.781-1.312,2.072.3-2.512-2.5-1.469Z"/>
      <path id="Path_6929-4" data-name="Path 6929" class="cls-9" d="M-321.166,120.8l.023-1.847.738,1.463,1.31-.414-.759.947.75,1.487-1.528-1.094-1.009,1.7.212-1.47-1.37-.48Z"/>
      <path id="Path_6930-4" data-name="Path 6930" class="cls-9" d="M-258.01,162.9l.023-1.847.738,1.463,1.309-.414-.759.947.75,1.487-1.528-1.095-1.008,1.7.212-1.47-1.37-.48Z"/>
    </g>
    <g id="Group_1191" data-name="Group 1191" class="cls-30" transform="translate(42.3 1381.124)">
      <path id="Path_2458" data-name="Path 2458" class="cls-31" d="M168.089,127.294a56.85,56.85,0,1,1-56.856-56.856A56.847,56.847,0,0,1,168.089,127.294Z" transform="translate(-54.389 -70.438)"/>
      <path id="Path_2459" data-name="Path 2459" class="cls-32" d="M111.233,70.438a56.85,56.85,0,1,0,56.856,56.856A56.851,56.851,0,0,0,111.233,70.438ZM107,168.76a47.047,47.047,0,1,1,47.042-47.047A47.05,47.05,0,0,1,107,168.76Z" transform="translate(-54.389 -70.438)"/>
      <g id="Group_651" data-name="Group 651" transform="translate(5.553 0.674)">
        <path id="Path_2460" data-name="Path 2460" class="cls-33" d="M59.239,100.286c1.1-1.332,2.845-1.286,4.278-2.023,1.91-.969,1.315-3.355,2.924-4.227,1.133-.6,2.556.215,3.728-.459a3.286,3.286,0,0,0,1.2-2.119c.153-.561,1.405-1.094,1.972-1.281s1.864.057,2.267-.516c.419-.578,2.034.918,3.422.516,2.046-.595-.419-2.584-1.077-3.349-1.966-2.272,1.1-3.326,2.7-4.272,1.677-.986,2.839-1.989,3.286-3.972.238-1.094,2.131-1.286,2.952-1.694,1.15-.578,1.853-1.83,3.218-1.983,1.621-.176,7,.822,6.528-2.3-.023-.2-.21-1.779-.181-2.006-17.481,3.167-33.29,16.036-41.081,31.391C56.423,101.578,58.814,100.8,59.239,100.286Z" transform="translate(-55.369 -70.356)"/>
        <path id="Path_2461" data-name="Path 2461" class="cls-34" d="M70.115,70.557a5.691,5.691,0,0,1,1.354,2.884C71.441,74.6,70.5,74.7,69.582,75.05a7.576,7.576,0,0,0-4.5,3.581,3.113,3.113,0,0,0,.159.272,2.554,2.554,0,0,0,2.34.776,34.932,34.932,0,0,1,3.927-.221c1.473.091,2.918.351,4.38.533,2.6.312,5.309-.051,7.865.578,2.238.544,3.524,2.136,4.805,3.961,1.57,2.244,2.907,4.3,5.428,5.536,2.148,1.071,3.723,2.085,4.629,4.386,1.156,2.912,3.2,4.986,4.913,7.542a9.48,9.48,0,0,1,1.626,3.411c.266,1.3-.419,2.714-.907,3.876a.264.264,0,0,1-.317.181,10.924,10.924,0,0,1-2.21-.663,2.844,2.844,0,0,1-.867,2.012l-.074.051a3.1,3.1,0,0,1,.6,1.252c-.028.635.385,1.371.334,1.915s-.357,2.646.623,3.3,1,1.9,1.479,2.034,1.031.98,1.983-1.3-.238-1.853.958-2.284,1.694.453,1.354,1.519-.635,1.349-.227,2.085a4.93,4.93,0,0,1-.312,3.774c-.623.844-1.315,2.663-.7,3.7s-.113,1.734-.5,2.255c-.374.521-1.4,2.1-1.167,2.771a3.358,3.358,0,0,0,1.383,1.966c.669.278,1.9.68,2.635-.017s1.145-2.136,2.425-2,2.618-1.485,3.66-2.9c1-1.349.538-3.252,2.023-4.08C116.2,98,96.089,74.659,70.115,70.557Z" transform="translate(-10.04 -70.557)"/>
        <path id="Path_2462" data-name="Path 2462" class="cls-35" d="M76.5,84.5a7.16,7.16,0,0,1-2.544,3.649c-.538.329-.521,1.876-.839,3.3-.725,3.252,1,7.984,1.048,8.012,2.98-5.258,4.442-10.93,5.6-17.067C78.937,82.529,76.942,82.977,76.5,84.5Z" transform="translate(26.621 -15.298)"/>
        <path id="Path_2463" data-name="Path 2463" class="cls-36" d="M112.227,118.137c-.912-1.405-2.255-1.337-1.983-2.6a2.961,2.961,0,0,0-.606-2.81c-.533-.385-.765-2.6-1.864-.884a10.092,10.092,0,0,1-2.289,2.777c-.55.4-.351.8-.827,1.989s-2.17,1.728-2.652,1.949-.142-.357-.363-1.819.221-1.621-.306-2.9.431-.578-1.128-2.216-2.606-1.19-2.04-2.725a4.256,4.256,0,0,1,2.148-2.476c.691-.385,3.57-2.975,5.015-2.391s3.037.618,3.711.142,2.442-.555,2.085-1.717a2.269,2.269,0,0,0-2.176-1.683c-.992-.091-2.227-.833-2.38-1.513s.3-.833-.873-2.108a10.263,10.263,0,0,1-1.853-2.669,13.763,13.763,0,0,1-.907-5.049c-.113-2.93.652-3.184-.38-3.774s-.516-1.842-.136-2.788,1.836-1.723.958-2.952.17-1.332-.816-2.3l-1.02-.833a8.119,8.119,0,0,1-1.133-1,2.394,2.394,0,0,0-1.632-.64,24.031,24.031,0,0,1-4.3-.567c-1.071-.306-2.567,1.275-3.717,1.4s-1.723.034-1.122,1.524-.079,1.978.646,2.754a4.021,4.021,0,0,1,.748,3.394c-.363.708-4.522,2.272-5.213,3.87s-1.281,2.063-2.046,2.221a4.614,4.614,0,0,0-2.59,2.4c-.187.918.1,2.187-.13,2.5a3.675,3.675,0,0,1-1.547,1.536c-1.043.533-4.216,1.53-4.9,1.915s-2.833.748-4.176,2.352-2.272.436-3.241,3.3-2.459,2.329-1.859,3.83,1.649,5.927.674,7.242a33.509,33.509,0,0,0-3.439,5.423c-.459,1.292-.465,4.051-1.162,4.992s-1.683,2.17-1.723,3.111a6.9,6.9,0,0,0,1.241,3.921,12.486,12.486,0,0,1,2.482,4.352c.215,1.139,2.2,3.5,4.182,4.8,1.978,1.281,2.153,2.471,3.587,2.391s1.02-.708.312-1.955-.091-1.536-1.332-3.252c-1.247-1.74-.958-.47-1.343-2.374a5.258,5.258,0,0,1,.765-4.561c.992-1.456,1.864-2.522,2.414-3.5s3.02-2.323,6.12-2.561.963,1.774,4.862,1.893,4.187,3.9,8,2.811,3.864-2.918,5.321-3.791,6.386,6.743,9.621,5.553,2.2.975,4.618-1.626,4.182-3.252,3.422-5.842S113.14,119.542,112.227,118.137Z" transform="translate(-35.222 -51.943)"/>
        <path id="Path_2464" data-name="Path 2464" class="cls-37" d="M77.864,82.207c-.385-1.672-.159-3.626-1.082-5.145A4.168,4.168,0,0,0,72.94,75.05a6.319,6.319,0,0,0-4.114,2.623,2.138,2.138,0,0,0-.459,2.114c.2.476,2.045,1.49,1.819,2.085-.878,2.4,2.2,4.635,1.139,6.975-.289.64-.975.793-1.332,1.36a6.085,6.085,0,0,0,0,5.474c.306.584,1.269,1.949,2.131,1.587.686-.295.306-1.275.544-1.791a17.777,17.777,0,0,1,5.383-6.29,4.708,4.708,0,0,0,1.819-2.1c.4-1.247-.487-2.244-1.122-3.247A5.167,5.167,0,0,1,77.864,82.207Z" transform="translate(4.66 -49.643)"/>
      </g>
      <g id="Group_652" data-name="Group 652" transform="translate(6.114 0.697)">
        <path id="Path_2465" data-name="Path 2465" class="cls-38" d="M58.018,99.357c1.122-1.343,2.89-1.309,4.34-2.046,1.932-.98,1.337-3.417,2.969-4.289,1.15-.623,2.6.221,3.785-.47A3.344,3.344,0,0,0,70.331,90.4c.147-.572,1.417-1.111,1.989-1.3s1.9.068,2.318-.521,2.057.941,3.468.521c2.08-.595-.425-2.629-1.094-3.394-2-2.312,1.122-3.377,2.743-4.335,1.694-1.009,2.878-2.017,3.326-4.034.244-1.111,2.17-1.3,3-1.723,1.173-.578,1.887-1.853,3.269-2.006,1.643-.181,7.106.822,6.63-2.34a2.616,2.616,0,0,1,.011-.663,56.91,56.91,0,0,0-40.52,30.252A7.088,7.088,0,0,0,58.018,99.357Z" transform="translate(-55.468 -70.379)"/>
        <path id="Path_2466" data-name="Path 2466" class="cls-38" d="M70.264,70.561c.6.47,1.315.912,1.3,1.536-.023,1.167-.975,1.275-1.921,1.626a7.637,7.637,0,0,0-4.561,3.638,2.079,2.079,0,0,0,2.538,1.06,36.026,36.026,0,0,1,3.983-.227c1.5.1,2.964.363,4.448.544,2.629.312,5.389-.057,7.984.578,2.261.555,3.575,2.182,4.873,4.023,1.592,2.284,2.958,4.363,5.513,5.627,2.182,1.077,3.774,2.119,4.7,4.454,1.167,2.958,3.23,5.06,4.981,7.649a9.7,9.7,0,0,1,1.655,3.468c.261,1.309-.431,2.759-.918,3.927a.287.287,0,0,1-.329.193,11.059,11.059,0,0,1-2.244-.68,2.834,2.834,0,0,1-.878,2.04l-.074.057a3.325,3.325,0,0,1,.612,1.269c-.034.64.374,1.388.334,1.949s-.357,2.686.635,3.343,1.014,1.927,1.5,2.074c.482.13,1.037.986,2.012-1.326s-.244-1.881.969-2.312,1.723.453,1.377,1.53-.64,1.377-.232,2.114a4.942,4.942,0,0,1-.317,3.83c-.635.867-1.332,2.709-.708,3.762s-.119,1.762-.5,2.289-1.422,2.131-1.19,2.811a3.451,3.451,0,0,0,1.405,2c.686.283,1.932.68,2.669-.028.754-.7,1.162-2.159,2.465-2.017s2.663-1.507,3.717-2.946c1.02-1.377.55-3.3,2.057-4.142A56.875,56.875,0,0,0,70.264,70.561Z" transform="translate(-10.592 -70.561)"/>
        <path id="Path_2467" data-name="Path 2467" class="cls-38" d="M76.568,84.465a7.194,7.194,0,0,1-2.589,3.706c-.538.334-.652,1.876-.85,3.355s.306,8.2.306,8.2l.062.045a56.428,56.428,0,0,0,6.375-17.435C79.039,82.459,77,82.912,76.568,84.465Z" transform="translate(26.728 -15.624)"/>
        <path id="Path_2468" data-name="Path 2468" class="cls-38" d="M112.781,118.571c-.935-1.422-2.3-1.36-2.017-2.64a2.985,2.985,0,0,0-.612-2.85c-.544-.391-.782-2.635-1.893-.9A10.217,10.217,0,0,1,105.93,115c-.555.419-.351.822-.839,2.023s-2.2,1.762-2.692,1.978-.147-.351-.368-1.842.227-1.643-.306-2.952c-.521-1.286.442-.578-1.145-2.238s-2.652-1.213-2.074-2.771a4.3,4.3,0,0,1,2.182-2.51c.7-.391,3.621-3.014,5.088-2.437,1.462.6,3.082.635,3.768.147s2.482-.567,2.108-1.74a2.275,2.275,0,0,0-2.2-1.706c-1.009-.091-2.267-.85-2.414-1.536s.3-.85-.9-2.142a10.376,10.376,0,0,1-1.876-2.708,13.944,13.944,0,0,1-.924-5.134c-.108-2.964.657-3.224-.38-3.819-1.037-.612-.521-1.876-.142-2.828s1.864-1.757.969-3,.176-1.349-.827-2.335l-1.031-.839a8.363,8.363,0,0,1-1.15-1.014,2.386,2.386,0,0,0-1.66-.652,24.265,24.265,0,0,1-4.352-.578c-1.1-.317-2.607,1.292-3.774,1.422s-1.757.028-1.139,1.547-.085,2.006.652,2.793a4.067,4.067,0,0,1,.759,3.445c-.368.72-4.59,2.306-5.292,3.932s-1.292,2.091-2.074,2.261A4.57,4.57,0,0,0,81.282,92.2c-.193.929.1,2.21-.136,2.533A3.739,3.739,0,0,1,79.57,96.3c-1.054.538-4.272,1.547-4.975,1.938s-2.873.765-4.238,2.4-2.306.436-3.292,3.343c-.986,2.89-2.488,2.369-1.876,3.887s1.66,6.012.68,7.344a33.178,33.178,0,0,0-3.49,5.513c-.465,1.3-.476,4.1-1.184,5.06s-1.706,2.2-1.751,3.162a7.015,7.015,0,0,0,1.269,3.983,12.634,12.634,0,0,1,2.51,4.414c.221,1.15,2.25,3.547,4.244,4.862s2.187,2.516,3.643,2.436,1.031-.725.317-1.989-.085-1.553-1.354-3.3-.969-.476-1.36-2.414a5.293,5.293,0,0,1,.776-4.618c1.014-1.485,1.893-2.567,2.454-3.553s3.065-2.352,6.2-2.589.98,1.8,4.935,1.91,4.25,3.961,8.12,2.844c3.864-1.1,3.915-2.958,5.4-3.836s6.488,6.845,9.769,5.638,2.233.992,4.686-1.66,4.25-3.292,3.468-5.921S113.7,119.993,112.781,118.571Z" transform="translate(-36.926 -53.017)"/>
        <path id="Path_2469" data-name="Path 2469" class="cls-38" d="M77.906,82.012c-.385-1.694-.159-3.677-1.1-5.207a4.237,4.237,0,0,0-3.893-2.057,6.477,6.477,0,0,0-4.176,2.669,2.184,2.184,0,0,0-.476,2.142c.215.482,2.085,1.513,1.859,2.119-.9,2.431,2.227,4.709,1.156,7.077-.3.652-.986.8-1.354,1.377a6.175,6.175,0,0,0,0,5.559c.312.595,1.286,1.978,2.159,1.609.7-.289.312-1.286.55-1.819A18.308,18.308,0,0,1,78.1,89.1a4.72,4.72,0,0,0,1.847-2.131c.408-1.264-.487-2.284-1.133-3.3A5.393,5.393,0,0,1,77.906,82.012Z" transform="translate(3.626 -51.074)"/>
      </g>
      <g id="Group_653" data-name="Group 653" transform="translate(6.114 0.697)">
        <path id="Path_2470" data-name="Path 2470" class="cls-38" d="M58.505,93.881A12.388,12.388,0,0,0,61.321,89.6a17.666,17.666,0,0,1,2.912-4.986,32.235,32.235,0,0,1,4.845-3.955,55.775,55.775,0,0,0,6.148-4.51,20.13,20.13,0,0,0,1.876-2.4,26.139,26.139,0,0,1,1.87-2.079,57.134,57.134,0,0,0-23.5,24.229,9.964,9.964,0,0,0,1.315-.6A16.9,16.9,0,0,0,58.505,93.881Z" transform="translate(-55.468 -65.419)"/>
        <path id="Path_2471" data-name="Path 2471" class="cls-38" d="M108.534,132.879a2.1,2.1,0,0,1-1.218-2.261,3.877,3.877,0,0,1,1.434-2.867c1.5-1.247.215-3.3.476-4.986.323-2.119,2.023-3.9,1.456-6.148-.465-1.893-1.683-3.434-2.567-5.128a13.688,13.688,0,0,0-3.3,3.6c-.091.153-.38.187-.459,0-.669-1.507-2.278-4.074-.215-5.105.64-.329,1.377-.419,2.012-.754a3.117,3.117,0,0,0,1.451-2.1c.374-1.343.538-2.714.8-4.074a2.7,2.7,0,0,1-2.907-1.337c-1.343-1.706-1.972-3.9-3.026-5.78a17.494,17.494,0,0,1-1.383-3.218,13.449,13.449,0,0,0-.918-2.793c-.323-.544-1.088-.55-1.643-.731A10.09,10.09,0,0,1,96.017,88c-.992-.68-1.9-1.451-2.827-2.2a20.535,20.535,0,0,1-2.539-2.17c-1.513-1.694-2.686-4.34-4.85-5.287-2.352-1.014-4.867-.2-7.332-.34a22.333,22.333,0,0,1-7.293-1.349.269.269,0,0,1-.159-.391c.436-1.037,2.442-3.349,1.241-4.386-.555-.476-1.235-.765-1.728-1.264-.091-.011-.176-.034-.266-.051.6.47,1.315.912,1.3,1.536-.023,1.167-.975,1.275-1.921,1.626a7.637,7.637,0,0,0-4.561,3.638,2.079,2.079,0,0,0,2.538,1.06,36.026,36.026,0,0,1,3.983-.227c1.5.1,2.964.363,4.448.544,2.629.312,5.389-.057,7.984.578,2.261.555,3.575,2.182,4.873,4.023,1.592,2.284,2.958,4.363,5.513,5.627,2.182,1.077,3.774,2.119,4.7,4.454,1.167,2.958,3.23,5.06,4.981,7.649a9.7,9.7,0,0,1,1.655,3.468c.261,1.309-.431,2.759-.918,3.927a.287.287,0,0,1-.329.193,11.059,11.059,0,0,1-2.244-.68,2.834,2.834,0,0,1-.878,2.04l-.074.057a3.325,3.325,0,0,1,.612,1.269c-.034.64.374,1.388.334,1.949s-.357,2.686.635,3.343,1.014,1.927,1.5,2.074c.482.13,1.037.986,2.012-1.326s-.244-1.881.969-2.312,1.723.453,1.377,1.53-.64,1.377-.232,2.114a4.942,4.942,0,0,1-.317,3.83c-.635.867-1.332,2.709-.708,3.762s-.119,1.762-.5,2.289-1.422,2.131-1.19,2.811a3.451,3.451,0,0,0,1.405,2c.686.283,1.932.68,2.669-.028a5.48,5.48,0,0,0,.737-.935A2.309,2.309,0,0,1,108.534,132.879Z" transform="translate(-10.592 -70.561)"/>
        <path id="Path_2472" data-name="Path 2472" class="cls-38" d="M74.347,96.3c.5-1.847-1.456-3.9-.017-5.6a7.5,7.5,0,0,1,2.1-1.536,4.877,4.877,0,0,0,2.267-2.692c.142-.295.283-.589.448-.867.272-1.077.521-2.17.731-3.275-.833.125-2.867.578-3.3,2.131a7.194,7.194,0,0,1-2.589,3.706c-.538.334-.652,1.876-.85,3.355a66.569,66.569,0,0,0,.232,7.179C73.684,97.837,74.166,96.953,74.347,96.3Z" transform="translate(26.729 -15.624)"/>
        <path id="Path_2473" data-name="Path 2473" class="cls-38" d="M67.847,142.3c-.822-.754-2.335-2.023-2.335-3.281,0-.465.136-.9.136-1.349,0-.776-.669-1.4-1.145-1.938-.68-.759-1.264-1.553-1.9-2.363a4.872,4.872,0,0,1-1.252-4.278c.442-1.938,1.774-3.394,2.556-5.19.839-1.927.5-4.193,1.575-6.006.941-1.609,3-2.828,3.468-4.675.516-2.051-.85-3.626-1.173-5.559-.448-2.663,1.06-4.782,3.36-5.938a10.284,10.284,0,0,0,2.493-1.541,8.976,8.976,0,0,1,1.473-1.23,14.969,14.969,0,0,1,4.607-1.332,8.452,8.452,0,0,1,3.666-.232c.249.057,1.388.453,1.485-.011a5.019,5.019,0,0,0-.306-2.34c-.538-1.83-1.162-2.85.618-4.125,2.476-1.774,3.893-4.788,6.63-6.188a4.057,4.057,0,0,1,1.394-.312,2.9,2.9,0,0,0,.765-.108c.742-.272.312-1.609.023-1.9-.4-.4-1.519-1.36-1.009-2.068.493-.669,1.541-1.218.652-2.176-.385-.408-.8-.788-1.173-1.2-.329-.374-.623-1.02-.21-1.462.612-.652,1.728-.561,2.539-.51a8.082,8.082,0,0,0,2.369-.215,18.367,18.367,0,0,1-2.38-.414c-1.1-.317-2.607,1.292-3.774,1.422s-1.757.028-1.139,1.547-.085,2.006.652,2.793a4.067,4.067,0,0,1,.759,3.445c-.368.72-4.59,2.306-5.292,3.932s-1.292,2.091-2.074,2.261A4.57,4.57,0,0,0,81.282,92.2c-.193.929.1,2.21-.136,2.533A3.739,3.739,0,0,1,79.57,96.3c-1.054.538-4.272,1.547-4.975,1.938s-2.873.765-4.238,2.4-2.306.436-3.292,3.343c-.986,2.89-2.488,2.369-1.876,3.887s1.66,6.012.68,7.344a33.178,33.178,0,0,0-3.49,5.513c-.465,1.3-.476,4.1-1.184,5.06s-1.706,2.2-1.751,3.162a7.015,7.015,0,0,0,1.269,3.983,12.634,12.634,0,0,1,2.51,4.414c.221,1.15,2.25,3.547,4.244,4.862a15.783,15.783,0,0,1,2.221,1.915A20.65,20.65,0,0,0,67.847,142.3Z" transform="translate(-36.926 -53.017)"/>
        <path id="Path_2474" data-name="Path 2474" class="cls-38" d="M85.285,90.1c-1.558-.028-2.816,1.054-4.289-.04a12.85,12.85,0,0,1-3.479-4.006c-.317-.555-.5-1.247-1.1-1.575a12.822,12.822,0,0,0-2.856-1.167c-2.731-.731-2.652,1.564-3.706,3.292a3.549,3.549,0,0,1-3.105,1.978c-.833-.079-1.655-.266-2.493-.312,1.224.986,2.261,1.966,4.476,1.332,3.864-1.1,3.915-2.958,5.4-3.836s6.488,6.845,9.769,5.638c2.329-.856,2.482-.006,3.247-.385A2.768,2.768,0,0,0,85.285,90.1Z" transform="translate(-14.456 -11.698)"/>
        <path id="Path_2475" data-name="Path 2475" class="cls-38" d="M71.424,95.473A6.3,6.3,0,0,1,70.4,92.187a2.609,2.609,0,0,1,.714-2.425c.782-.85,2.527-2.21,1.927-3.5A12.776,12.776,0,0,1,72,81.744a6.408,6.408,0,0,0-.827-3.292c-.255-.368-.771-.737-.952-1.156a2.547,2.547,0,0,1,.419-2.4,6.842,6.842,0,0,0-1.9,1.8,2.184,2.184,0,0,0-.476,2.142c.215.482,2.085,1.513,1.859,2.119-.9,2.431,2.227,4.709,1.156,7.077-.3.652-.986.8-1.354,1.377a6.175,6.175,0,0,0,0,5.559c.312.595,1.286,1.978,2.159,1.609a.656.656,0,0,0,.346-.329A3.857,3.857,0,0,1,71.424,95.473Z" transform="translate(3.626 -50.346)"/>
      </g>
      <path id="Path_2476" data-name="Path 2476" class="cls-39" d="M66.605,117.692c-7.684-12.143-10.33-22.75-10.845-30.9l-.017-.074a51.872,51.872,0,0,1-.357-7.78c-1.485,8.5-1.558,21.929,7,36.7,14.46,24.96,41.421,28.9,54.986,26.575C117.375,142.21,84.46,145.9,66.605,117.692Z" transform="translate(-53.284 -30.793)"/>
    </g>
    <g id="Group_1174" data-name="Group 1174" class="cls-3" transform="translate(1795.476 1356.271)">
      <path id="Path_6898" data-name="Path 6898" class="cls-15" d="M-541.009-148.167c-15.749,2.316-24.444,28.127-13.729,40.182s25.763,16.428,40.172,2.689S-495.469-154.864-541.009-148.167Z"/>
      <path id="Path_6899" data-name="Path 6899" class="cls-19" d="M-542.524-145.365a62.82,62.82,0,0,0-7.856,1.871,28.55,28.55,0,0,0-7.523,12.1c4.3-1.369,8.559-3,12.775-4.527,2.583-.934,9.646-2.955,9.2-6.839C-536.271-145.781-540.36-145.736-542.524-145.365Z"/>
      <path id="Path_6900" data-name="Path 6900" class="cls-19" d="M-506.286-137.056a17.289,17.289,0,0,0-4.282-5.872c-.36-.005-.722-.03-1.082-.026a.635.635,0,0,0-.557-.251,20.08,20.08,0,0,0-4.671.645,38.966,38.966,0,0,0-14.991,5.187,6.463,6.463,0,0,0-2.256,1.9,8.092,8.092,0,0,0-.723.631c-1.209,1.259-1.7,3.409.073,4.472,2.419,1.452,7.51.1,9.984-.582a27.1,27.1,0,0,0,4.569-1.737c1.331-.3,2.655-.663,3.966-1.063a77,77,0,0,0,9.763-3.188A1.094,1.094,0,0,0-506.286-137.056Z"/>
      <path id="Path_6901" data-name="Path 6901" class="cls-19" d="M-507.183-124c-5.437.77-11.135,1.9-15.978,4.214-2.492,1.188-7.28,4.624-3.429,7.277,3.6,2.482,11.017.149,14.608-1.315a33.088,33.088,0,0,0,4.79-2.381,33.471,33.471,0,0,0,2.371-8.326A16.474,16.474,0,0,0-507.183-124Z"/>
      <path id="Path_6902" data-name="Path 6902" class="cls-19" d="M-532.533-109.621c-2.112-1.687-5.71-.215-7.842.562a27.771,27.771,0,0,0-9.415,5.817A31.123,31.123,0,0,0-542.1-98.6a72.7,72.7,0,0,0,8.6-5.511C-531.829-105.437-530.4-107.921-532.533-109.621Z"/>
      <path id="Path_6903" data-name="Path 6903" class="cls-19" d="M-558.866-116.293a19.428,19.428,0,0,0,2.559,6.215,53.117,53.117,0,0,0,5.216-2.1c2.254-.93,6.014-1.724,7.243-4.133a2.912,2.912,0,0,0-1.063-4.027c-1.96-1.15-4.651-.243-6.616.4A28.315,28.315,0,0,0-558.866-116.293Z"/>
      <path id="Path_6904" data-name="Path 6904" class="cls-15" d="M-528.258-131.368c-4.055-4.562-5.326-11.093-4.491-17.576a76.445,76.445,0,0,0-8.088.777c-15.749,2.316-24.444,28.127-13.729,40.182s25.763,16.428,40.172,2.689a34.146,34.146,0,0,0,8.81-14.911C-513.978-119.746-521.884-124.2-528.258-131.368Z"/>
    </g>
    <g id="Group_1173" data-name="Group 1173" class="cls-3" transform="translate(1556.346 1625.271)">
      <path id="Path_6894" data-name="Path 6894" class="cls-40" d="M-301.442-146.91c-11.828.295-22.252,10.9-17.892,21.4s22.586,14.663,30.117,6.142S-285.53-147.306-301.442-146.91Z"/>
      <path id="Path_6895" data-name="Path 6895" class="cls-7" d="M-301.441-146.888a20.608,20.608,0,0,0-3.238.34,12.764,12.764,0,0,0,.134,9.63c2.749,6.624,11.016,10.721,18.636,10.708C-283.956-135.438-289.023-147.2-301.441-146.888Z"/>
      <path id="Path_6896" data-name="Path 6896" class="cls-41" d="M-316.257-123.474a2.5,2.5,0,0,0,1.062-1.7c.044-.3-.269-1.275-.173-1.536.754-2.051,2.209-.855,3.385-.451,1.622.558,4,.964,4.983-.916,1.244-2.377-1.83-3.89-2.7-5.8a15.118,15.118,0,0,0,4.482.684,1.881,1.881,0,0,0,1.6-.769c.722-1.076.053-2.952-.32-4.034a24.287,24.287,0,0,1-1.652-6.668.612.612,0,0,0-.477-.875,11.508,11.508,0,0,0-1.881-.155c-8.755,3.108-14.922,11.678-11.391,20.183a13.462,13.462,0,0,0,1.462,2.619A3.148,3.148,0,0,0-316.257-123.474Z"/>
      <path id="Path_6897" data-name="Path 6897" class="cls-41" d="M-289.649-131.783c.656-1.093,2.355-2.125,1.006-3.412-.812-.775-1.925-.253-2.789.366a2.722,2.722,0,0,0-1.352-.593c-2.739-.41-3.654,1.956-3.354,4.233.359,2.721,2.668,6.244-1.632,6.933a3.234,3.234,0,0,0-2.2.858c-1.348,1.371-1.705,4.433.178,5.51,2.426,1.388,4.625-.477,6.241-2.014,1.706-1.623,5.165-1.808,3.967-5.187-.114-.321-.659-.948-.718-1.278-.229-1.276.571-.986,1.22-1.612a2.915,2.915,0,0,0,.776-2.686A1.584,1.584,0,0,0-289.649-131.783Z"/>
    </g>
  </g>
</svg>
