<svg xmlns="http://www.w3.org/2000/svg" width="160" height="117" viewBox="0 0 160 117">
  <defs>
    <style>
      .cls-1 {
        fill: #febfbd;
      }

      .cls-1, .cls-5, .cls-6 {
        opacity: 0.5;
      }

      .cls-2 {
        opacity: 0.45;
      }

      .cls-3, .cls-4, .cls-5, .cls-7 {
        fill: #d7605c;
      }

      .cls-4, .cls-8 {
        opacity: 0.1;
      }

      .cls-6 {
        fill: #dee3f3;
      }

      .cls-11, .cls-7 {
        opacity: 0.3;
      }

      .cls-9 {
        fill: #b84a46;
      }

      .cls-10 {
        fill: #a24b48;
      }

      .cls-12 {
        fill: #ab3633;
      }

      .cls-13, .cls-15 {
        fill: none;
        stroke-miterlimit: 10;
        stroke-width: 2px;
      }

      .cls-13 {
        stroke: #fc6681;
      }

      .cls-14 {
        fill: #fc6681;
      }

      .cls-15 {
        stroke: #ffd037;
      }

      .cls-16 {
        fill: #ffd037;
      }

      .cls-17 {
        fill: #a8a8a8;
      }

      .cls-18 {
        opacity: 0.2;
      }
    </style>
  </defs>
  <g id="Group_939" data-name="Group 939" transform="translate(-1035 -1097)">
    <ellipse id="Ellipse_344" data-name="Ellipse 344" class="cls-1" cx="39.809" cy="6.692" rx="39.809" ry="6.692" transform="translate(1074.878 1200.136)"/>
    <g id="Group_415" data-name="Group 415" class="cls-2" transform="translate(1035 1115.395)">
      <path id="Path_1742" data-name="Path 1742" class="cls-3" d="M536.5,332.707a1.725,1.725,0,0,0,.016.224A1.725,1.725,0,0,1,536.5,332.707Z" transform="translate(-466.38 -310.837)"/>
      <path id="Path_1743" data-name="Path 1743" class="cls-3" d="M665.418,301.82c0,.02.007.04.009.06C665.425,301.86,665.421,301.84,665.418,301.82Z" transform="translate(-575.242 -284.757)"/>
      <path id="Path_1744" data-name="Path 1744" class="cls-3" d="M665.15,300.546c.006.021.011.042.016.063C665.161,300.588,665.156,300.567,665.15,300.546Z" transform="translate(-575.015 -283.681)"/>
      <path id="Path_1745" data-name="Path 1745" class="cls-3" d="M665.142,335.124c-.008.034-.016.068-.026.1C665.126,335.192,665.134,335.158,665.142,335.124Z" transform="translate(-574.986 -312.878)"/>
      <path id="Path_1746" data-name="Path 1746" class="cls-3" d="M665.374,334.069c0,.037-.01.073-.017.109C665.364,334.142,665.37,334.106,665.374,334.069Z" transform="translate(-575.191 -311.987)"/>
      <path id="Path_1747" data-name="Path 1747" class="cls-3" d="M540.464,341.116a1.736,1.736,0,0,1-.369-.259A1.728,1.728,0,0,0,540.464,341.116Z" transform="translate(-469.415 -317.719)"/>
      <path id="Path_1748" data-name="Path 1748" class="cls-3" d="M539.211,339.933a1.723,1.723,0,0,1-.147-.156A1.723,1.723,0,0,0,539.211,339.933Z" transform="translate(-468.543 -316.807)"/>
      <path id="Path_1749" data-name="Path 1749" class="cls-3" d="M729.851,551.088a1.688,1.688,0,0,0-.073-.2,1.7,1.7,0,0,1,.073.2Z" transform="translate(-629.589 -495.065)"/>
      <path id="Path_1750" data-name="Path 1750" class="cls-3" d="M724.741,545.507a1.723,1.723,0,0,1,.2.12A1.715,1.715,0,0,0,724.741,545.507Z" transform="translate(-625.336 -490.522)"/>
      <path id="Path_1751" data-name="Path 1751" class="cls-3" d="M727.219,547.272a1.725,1.725,0,0,1,.275.333,1.727,1.727,0,0,0-.275-.333Z" transform="translate(-627.429 -492.012)"/>
      <path id="Path_1752" data-name="Path 1752" class="cls-3" d="M726.041,546.3a1.754,1.754,0,0,1,.163.133A1.746,1.746,0,0,0,726.041,546.3Z" transform="translate(-626.434 -491.196)"/>
      <path id="Path_1753" data-name="Path 1753" class="cls-3" d="M729.214,549.807a1.726,1.726,0,0,0-.086-.163A1.712,1.712,0,0,1,729.214,549.807Z" transform="translate(-629.04 -494.015)"/>
      <path id="Path_1754" data-name="Path 1754" class="cls-3" d="M730.355,552.616q-.014-.086-.037-.17Q730.34,552.53,730.355,552.616Z" transform="translate(-630.046 -496.38)"/>
      <path id="Path_1755" data-name="Path 1755" class="cls-3" d="M727.593,238.97h-9.905a1.72,1.72,0,0,0,.741-1.415v-4.548a1.723,1.723,0,0,0-1.723-1.723H705.3a1.724,1.724,0,0,0,1.2-1.642v-4.547a1.72,1.72,0,0,0-.741-1.415h10.943a1.723,1.723,0,0,0,1.723-1.723v-4.548a1.723,1.723,0,0,0-1.723-1.723H704.524a1.724,1.724,0,0,0,1.2-1.642V209.5a1.72,1.72,0,0,0-.741-1.415h11.723a1.723,1.723,0,0,0,1.723-1.723V201.81a1.723,1.723,0,0,0-1.723-1.723h-6.137a1.724,1.724,0,0,0,1.2-1.642V193.9a1.724,1.724,0,0,0-1.723-1.723H693.408a1.723,1.723,0,1,1-3.447,0H673.325a1.722,1.722,0,0,0-1.562,1,1.72,1.72,0,0,1,.033.336v4.548a1.713,1.713,0,0,1-.161.724,1.72,1.72,0,0,0,.6,1h4.273a1.716,1.716,0,0,1,1.091.39h1.863a1.352,1.352,0,1,1-1.232,1.315c0,.006,0,.012,0,.018v4.548a1.72,1.72,0,0,1-.056.43.623.623,0,0,1,.074.1.29.29,0,1,1,.042.081.509.509,0,0,1,.039.173,1.726,1.726,0,0,0,.674.945h-1.482c.013-.009.025-.02.038-.03-.138,0-.276-.012-.414-.013a.382.382,0,0,1-.143-.03,1.722,1.722,0,0,1-.494.073l-10.209.308a1.721,1.721,0,0,0-.741,1.415v4.548a1.724,1.724,0,0,0,1.2,1.642l9.751.082a1.723,1.723,0,0,1,.506.076,1.885,1.885,0,0,1,.322.057l.024,0a1.711,1.711,0,0,0-.3-.128h2.4a1.381,1.381,0,1,1-1.226,1.344.379.379,0,0,1-.038.046,1.727,1.727,0,0,1,.033.333v4.548c0,.211.031.16.031-.082a1.721,1.721,0,0,0,.741,1.415l6.084.195a1.716,1.716,0,0,1,.61.113h1.464a1.73,1.73,0,0,0-.6.729,1.712,1.712,0,0,1,.244.881v4.548a1.715,1.715,0,0,1-.145.69,1.728,1.728,0,0,0,.954.757h-1.6a1.714,1.714,0,0,1-.934.277h-6.035a1.72,1.72,0,0,0-.79,1.447c0-.607-.226,5.378-.226,5.378,0,.538,9.391.78,9.391.78a1.716,1.716,0,0,1,.693.146,1.205,1.205,0,0,1,.3-.026l-.009-.007h1.482a1.314,1.314,0,1,1-.76,1.169c-.008.019-.017.037-.026.055a1.722,1.722,0,0,1,.045.386v4.353a1.723,1.723,0,0,0,1.723,1.723h-2.652a1.714,1.714,0,0,1-.794.195h-10.8a1.722,1.722,0,0,0-.929,1.528v4.548a1.723,1.723,0,0,0,1.723,1.723h16.636a1.723,1.723,0,1,1,3.447,0h16.636a1.723,1.723,0,0,0,1.723-1.723v-4.548a1.723,1.723,0,0,0-1.723-1.723h13.454a1.723,1.723,0,0,0,1.723-1.723v-4.548a1.723,1.723,0,0,0-1.723-1.723Zm-41.212-30.889a.9.9,0,1,1-1.482,0Zm-1.941,7.6a1.259,1.259,0,1,1,2.4,0Zm6.044-15.6a1.259,1.259,0,1,1,2.4,0Zm5.294,48.6a1.723,1.723,0,0,0-1.723-1.723H697.5a1.723,1.723,0,0,0-1.723,1.723Zm1.825-9.718a.9.9,0,1,1,1.482,0Zm.741-5.963a1.724,1.724,0,0,0-1.2-1.642h2.4a1.724,1.724,0,0,0-1.2,1.642Zm-.741-9.636a.9.9,0,1,1,1.482,0Zm.741-5.963a1.724,1.724,0,0,0-1.2-1.642h2.4a1.724,1.724,0,0,0-1.2,1.642Zm-.741-9.636a.9.9,0,1,1,1.482,0Zm.741-5.963a1.724,1.724,0,0,0-1.2-1.642h2.4a1.724,1.724,0,0,0-1.2,1.642Zm11.629,37.468a.9.9,0,1,1-1.482,0Zm-2.464,7.686a1.723,1.723,0,0,1,3.447,0Z" transform="translate(-575.384 -192.174)"/>
      <path id="Path_1756" data-name="Path 1756" class="cls-3" d="M747.2,483.79" transform="translate(-644.3 -438.409)"/>
      <path id="Path_1757" data-name="Path 1757" class="cls-3" d="M730.626,554.137a1.736,1.736,0,0,0-.015-.219A1.735,1.735,0,0,1,730.626,554.137Z" transform="translate(-630.292 -497.624)"/>
      <path id="Path_1758" data-name="Path 1758" class="cls-3" d="M665.513,332.707c0,.055,0,.108-.008.162C665.509,332.815,665.513,332.762,665.513,332.707Z" transform="translate(-575.314 -310.837)"/>
      <path id="Path_1759" data-name="Path 1759" class="cls-3" d="M536.63,334.358a1.7,1.7,0,0,0,.044.2A1.7,1.7,0,0,1,536.63,334.358Z" transform="translate(-466.488 -312.232)"/>
      <path id="Path_1760" data-name="Path 1760" class="cls-3" d="M412.022,398.4a.392.392,0,0,1-.074-.087.42.42,0,0,1-.049-.144,3.476,3.476,0,0,0,.005.354.258.258,0,1,0,.156.014.712.712,0,0,1-.036-.121C412.023,398.411,412.023,398.406,412.022,398.4Z" transform="translate(-361.159 -366.113)"/>
      <path id="Path_1761" data-name="Path 1761" class="cls-3" d="M213.91,192.174H197.274a1.723,1.723,0,0,0-1.723,1.723,1.723,1.723,0,0,0-1.723-1.723H177.191a1.723,1.723,0,0,0-1.723,1.723v4.548a1.724,1.724,0,0,0,1.2,1.642h-12.9a1.723,1.723,0,0,0-1.723,1.723v4.547a1.721,1.721,0,0,0,.741,1.415H151.063a1.723,1.723,0,0,0-1.723,1.723v4.548a1.723,1.723,0,0,0,1.723,1.723h12.181a1.724,1.724,0,0,0-1.2,1.642v4.548a1.721,1.721,0,0,0,.741,1.415H151.843a1.723,1.723,0,0,0-1.723,1.723v4.548a1.723,1.723,0,0,0,1.723,1.723h11.4a1.724,1.724,0,0,0-1.2,1.642v4.548a1.723,1.723,0,0,0,1.723,1.723h9.905a1.721,1.721,0,0,0-.741,1.415v4.548a1.723,1.723,0,0,0,1.723,1.723H161.2a1.723,1.723,0,0,0-1.723,1.723v4.548a1.723,1.723,0,0,0,1.723,1.723h16.636a1.723,1.723,0,0,0,1.723-1.723,1.723,1.723,0,0,0,1.723,1.723h16.636a1.723,1.723,0,0,0,1.723-1.723v-4.548a1.722,1.722,0,0,0-.929-1.528h-3.587a1.715,1.715,0,0,1-.795-.2h-3.042a1.723,1.723,0,0,0,1.723-1.723c0,.75.39-4.353.39-4.353a1.723,1.723,0,0,1,1.723-1.723l6.341-.195a1.735,1.735,0,0,0,.457-.471,1.712,1.712,0,0,1-.137-.667v-4.547a1.714,1.714,0,0,1,.285-.948,1.728,1.728,0,0,0-.654-.775H192.4a1.714,1.714,0,0,1-.934-.277h-2.378a1.724,1.724,0,0,0,1.2-1.642l-.061-4.514c0-.2-.011-.383-.019-.543a1.726,1.726,0,0,0-.661-.905h1.482c-.011.008-.021.017-.032.025.84-.048,10.438-.611,11.218-1.239a1.353,1.353,0,0,1-.011-.361,1.728,1.728,0,0,1-.022-.262V217.3c0-.056,0-.112.008-.167a1.725,1.725,0,0,0-1.177-1.361h2.1a1.714,1.714,0,0,1,.794-.195h4.757a1.722,1.722,0,0,0,.929-1.528V209.5a1.721,1.721,0,0,0-.741-1.415l-4.945-.308c-.838,0-1.392-.307-.951,0H201.47a1.72,1.72,0,0,0,.74-1.4,1.732,1.732,0,0,1-.031-.319V201.5s0-.007,0-.011a1.725,1.725,0,0,0-1.169-1.322h1.8a1.716,1.716,0,0,1,1.091-.39H215a1.718,1.718,0,0,0,.633-1.333V193.9a1.723,1.723,0,0,0-1.723-1.723Zm-43.747,15.907a1.72,1.72,0,0,0-.741,1.415,1.721,1.721,0,0,0-.741-1.415Zm-.741,5.963a1.724,1.724,0,0,0,1.2,1.642h-2.4a1.724,1.724,0,0,0,1.2-1.642Zm1.521,9.636a1.721,1.721,0,0,0-.741,1.415,1.721,1.721,0,0,0-.741-1.415Zm-1.941,7.6a1.724,1.724,0,0,0,1.2-1.642,1.724,1.724,0,0,0,1.2,1.642Zm21.244-23.2a1.721,1.721,0,0,0-.741,1.415,1.72,1.72,0,0,0-.741-1.415Zm-10.685,40.607a1.723,1.723,0,0,0-1.723-1.723h3.447a1.723,1.723,0,0,0-1.723,1.723Zm1.825-9.718a1.721,1.721,0,0,0,.741-1.415,1.721,1.721,0,0,0,.741,1.415Zm.741-5.963a1.724,1.724,0,0,0-1.2-1.642h2.4a1.724,1.724,0,0,0-1.2,1.642Zm-.741-9.636a1.721,1.721,0,0,0,.741-1.415,1.721,1.721,0,0,0,.741,1.415Zm.741-5.963a1.724,1.724,0,0,0-1.2-1.642h2.4a1.724,1.724,0,0,0-1.2,1.642Zm-.741-9.636a1.721,1.721,0,0,0,.741-1.415,1.72,1.72,0,0,0,.741,1.415Zm.741-5.963a1.724,1.724,0,0,0-1.2-1.642h2.4a1.724,1.724,0,0,0-1.2,1.642Zm6.179,13.875a1.724,1.724,0,0,0,1.2-1.642,1.724,1.724,0,0,0,1.2,1.642Zm6.044-15.6a1.724,1.724,0,0,0,1.2-1.642,1.724,1.724,0,0,0,1.2,1.642Z" transform="translate(-139.441 -192.174)"/>
      <path id="Path_1762" data-name="Path 1762" class="cls-3" d="M540.143,295.172l.024-.022Z" transform="translate(-469.454 -279.125)"/>
      <path id="Path_1763" data-name="Path 1763" class="cls-3" d="M539.27,296.027l-.025.028Z" transform="translate(-468.695 -279.866)"/>
      <path id="Path_1764" data-name="Path 1764" class="cls-3" d="M538.478,297.091l.012-.016Z" transform="translate(-468.048 -280.75)"/>
      <path id="Path_1765" data-name="Path 1765" class="cls-3" d="M536.979,335.9a1.713,1.713,0,0,0,.072.2,1.724,1.724,0,0,1-.072-.2Z" transform="translate(-466.783 -313.534)"/>
      <path id="Path_1766" data-name="Path 1766" class="cls-3" d="M538.16,338.53a1.741,1.741,0,0,0,.127.177A1.741,1.741,0,0,1,538.16,338.53Z" transform="translate(-467.78 -315.754)"/>
      <path id="Path_1767" data-name="Path 1767" class="cls-3" d="M537.5,337.283a1.731,1.731,0,0,0,.1.192A1.728,1.728,0,0,1,537.5,337.283Z" transform="translate(-467.221 -314.701)"/>
      <path id="Path_1768" data-name="Path 1768" class="cls-3" d="M536.806,300.609c0-.021.01-.042.016-.063C536.816,300.567,536.811,300.588,536.806,300.609Z" transform="translate(-466.637 -283.681)"/>
      <path id="Path_1769" data-name="Path 1769" class="cls-3" d="M537.18,299.422c.006-.017.012-.035.019-.051C537.192,299.388,537.186,299.4,537.18,299.422Z" transform="translate(-466.952 -282.689)"/>
      <path id="Path_1770" data-name="Path 1770" class="cls-3" d="M536.582,301.879c0-.02.006-.04.009-.06C536.588,301.839,536.584,301.859,536.582,301.879Z" transform="translate(-466.447 -284.756)"/>
      <path id="Path_1771" data-name="Path 1771" class="cls-3" d="M537.79,298.276l0-.006Z" transform="translate(-467.467 -281.759)"/>
      <rect id="Rectangle_1684" data-name="Rectangle 1684" class="cls-4" width="20.083" height="7.994" rx="3.997" transform="translate(56.289 7.994) rotate(180)"/>
      <rect id="Rectangle_1685" data-name="Rectangle 1685" class="cls-4" width="20.083" height="7.994" rx="3.997" transform="translate(116.319 7.994) rotate(180)"/>
      <rect id="Rectangle_1686" data-name="Rectangle 1686" class="cls-4" width="20.083" height="7.994" rx="3.997" transform="translate(143.013 15.794) rotate(180)"/>
      <rect id="Rectangle_1687" data-name="Rectangle 1687" class="cls-4" width="20.083" height="7.994" rx="3.997" transform="translate(110.277 23.593) rotate(180)"/>
      <rect id="Rectangle_1688" data-name="Rectangle 1688" class="cls-4" width="20.083" height="7.994" rx="3.997" transform="translate(143.013 31.587) rotate(180)"/>
      <rect id="Rectangle_1689" data-name="Rectangle 1689" class="cls-4" width="20.083" height="7.994" rx="3.997" transform="translate(143.013 47.186) rotate(180)"/>
      <path id="Path_1772" data-name="Path 1772" class="cls-4" d="M835.992,494.136H818.419a1.255,1.255,0,0,0-1.2.9.8.8,0,0,1-.014.212.891.891,0,0,1-.036.12c0,.007,0,.013,0,.02v5.485a1.255,1.255,0,0,0,1.255,1.255h17.574a1.255,1.255,0,0,0,1.255-1.255v-5.485A1.255,1.255,0,0,0,835.992,494.136Z" transform="translate(-703.388 -447.145)"/>
      <rect id="Rectangle_1690" data-name="Rectangle 1690" class="cls-4" width="20.083" height="7.994" rx="3.997" transform="translate(120.411 62.784) rotate(180)"/>
      <rect id="Rectangle_1691" data-name="Rectangle 1691" class="cls-4" width="20.083" height="7.994" rx="3.997" transform="translate(62.721 15.794) rotate(180)"/>
      <rect id="Rectangle_1692" data-name="Rectangle 1692" class="cls-4" width="20.083" height="7.994" rx="3.997" transform="translate(50.247 23.593) rotate(180)"/>
      <rect id="Rectangle_1693" data-name="Rectangle 1693" class="cls-4" width="20.083" height="7.994" rx="3.997" transform="translate(42.655 31.587) rotate(180)"/>
      <rect id="Rectangle_1694" data-name="Rectangle 1694" class="cls-4" width="20.083" height="7.994" rx="3.997" transform="translate(50.832 39.387) rotate(180)"/>
      <rect id="Rectangle_1695" data-name="Rectangle 1695" class="cls-4" width="20.083" height="7.994" rx="3.997" transform="translate(42.655 47.186) rotate(180)"/>
      <rect id="Rectangle_1696" data-name="Rectangle 1696" class="cls-3" width="20.083" height="7.994" rx="3.997" transform="translate(33.57 54.994) rotate(180)"/>
      <rect id="Rectangle_1697" data-name="Rectangle 1697" class="cls-3" width="20.083" height="7.994" rx="3.997" transform="translate(150.773 39.378) rotate(180)"/>
      <rect id="Rectangle_1698" data-name="Rectangle 1698" class="cls-3" width="20.083" height="7.994" rx="3.997" transform="translate(149.921 23.62) rotate(180)"/>
      <rect id="Rectangle_1699" data-name="Rectangle 1699" class="cls-3" width="20.083" height="7.994" rx="3.997" transform="translate(160 62.66) rotate(180)"/>
      <rect id="Rectangle_1700" data-name="Rectangle 1700" class="cls-3" width="20.083" height="7.994" rx="3.997" transform="translate(20.083 62.802) rotate(180)"/>
      <rect id="Rectangle_1701" data-name="Rectangle 1701" class="cls-3" width="20.083" height="7.994" rx="3.997" transform="translate(22.78 47.044) rotate(180)"/>
      <rect id="Rectangle_1702" data-name="Rectangle 1702" class="cls-3" width="20.083" height="7.994" rx="3.997" transform="translate(22.78 31.57) rotate(180)"/>
      <rect id="Rectangle_1703" data-name="Rectangle 1703" class="cls-3" width="20.083" height="7.994" rx="3.997" transform="translate(23.49 15.812) rotate(180)"/>
      <rect id="Rectangle_1704" data-name="Rectangle 1704" class="cls-4" width="20.083" height="7.994" rx="3.997" transform="translate(23.49 15.812) rotate(180)"/>
      <rect id="Rectangle_1705" data-name="Rectangle 1705" class="cls-3" width="20.083" height="7.994" rx="3.997" transform="translate(36.267 8.004) rotate(180)"/>
      <rect id="Rectangle_1706" data-name="Rectangle 1706" class="cls-4" width="20.083" height="7.994" rx="3.997" transform="translate(53.755 54.985) rotate(180)"/>
      <rect id="Rectangle_1707" data-name="Rectangle 1707" class="cls-4" width="20.083" height="7.994" rx="3.997" transform="translate(40.121 62.784) rotate(180)"/>
    </g>
    <circle id="Ellipse_345" data-name="Ellipse 345" class="cls-5" cx="4.501" cy="4.501" r="4.501" transform="translate(1156.555 1097)"/>
    <path id="Path_1773" data-name="Path 1773" class="cls-6" d="M278.412,146.959h-1.071a.75.75,0,0,0,0-1.5h-8.673a.75.75,0,0,0,0,1.5h1.071a.75.75,0,0,0,0,1.5h-1.5a.75.75,0,0,0,0,1.5h8.673a.75.75,0,1,0,0-1.5h1.5a.75.75,0,1,0,0-1.5Z" transform="translate(795.783 962.701)"/>
    <path id="Path_1774" data-name="Path 1774" class="cls-6" d="M847.3,92.994h-.815a.57.57,0,0,0,0-1.141h-6.6a.57.57,0,1,0,0,1.141h.815a.57.57,0,1,0,0,1.141H839.56a.57.57,0,0,0,0,1.141h6.6a.57.57,0,0,0,0-1.141H847.3a.57.57,0,0,0,0-1.141Z" transform="translate(313.185 1007.966)"/>
    <path id="Path_1775" data-name="Path 1775" class="cls-6" d="M410.412,78.959h-1.071a.75.75,0,1,0,0-1.5h-8.673a.75.75,0,0,0,0,1.5h1.071a.75.75,0,0,0,0,1.5h-1.5a.75.75,0,0,0,0,1.5h8.673a.75.75,0,1,0,0-1.5h1.5a.75.75,0,1,0,0-1.5Z" transform="translate(684.317 1020.119)"/>
    <rect id="Rectangle_1708" data-name="Rectangle 1708" class="cls-3" width="36.105" height="16.744" rx="8.372" transform="translate(1093.781 1138.155)"/>
    <rect id="Rectangle_1709" data-name="Rectangle 1709" class="cls-4" width="30.349" height="0.314" transform="translate(1096.659 1152.323)"/>
    <rect id="Rectangle_1710" data-name="Rectangle 1710" class="cls-7" width="30.349" height="11.512" transform="translate(1096.659 1140.771)"/>
    <circle id="Ellipse_346" data-name="Ellipse 346" class="cls-8" cx="4.186" cy="4.186" r="4.186" transform="translate(1099.54 1142.58)"/>
    <circle id="Ellipse_347" data-name="Ellipse 347" class="cls-9" cx="4.186" cy="4.186" r="4.186" transform="translate(1115.755 1142.58)"/>
    <rect id="Rectangle_1711" data-name="Rectangle 1711" class="cls-3" width="6.279" height="3.664" transform="translate(1108.694 1154.888)"/>
    <rect id="Rectangle_1712" data-name="Rectangle 1712" class="cls-3" width="26.163" height="20.93" transform="translate(1098.752 1157.492)"/>
    <rect id="Rectangle_1713" data-name="Rectangle 1713" class="cls-3" width="27.21" height="2.616" transform="translate(1098.229 1182.596)"/>
    <path id="Path_1776" data-name="Path 1776" class="cls-3" d="M435.067,587.838v12.035h4.709v-15.7h-4.709Z" transform="translate(667.612 603.627)"/>
    <path id="Path_1777" data-name="Path 1777" class="cls-3" d="M525.853,584.175v15.7h4.709v-15.7Z" transform="translate(590.949 603.627)"/>
    <path id="Path_1778" data-name="Path 1778" class="cls-3" d="M409.507,493.155v4.84a7.079,7.079,0,0,0-3.479,1.677,8.229,8.229,0,0,0-2.071,3.037,15.426,15.426,0,0,0-1.02,4.636,26.5,26.5,0,0,0,.289,6.219h-5.232a35.714,35.714,0,0,1,.137-7.505,19.916,19.916,0,0,1,1.679-5.948,12.079,12.079,0,0,1,5.566-5.842A10.281,10.281,0,0,1,409.507,493.155Z" transform="translate(685.691 669.042)"/>
    <rect id="Rectangle_1714" data-name="Rectangle 1714" class="cls-10" width="4.709" height="3.663" transform="translate(1102.679 1187.823)"/>
    <rect id="Rectangle_1715" data-name="Rectangle 1715" class="cls-10" width="4.709" height="4.709" transform="translate(1102.679 1194.604)"/>
    <rect id="Rectangle_1716" data-name="Rectangle 1716" class="cls-11" width="4.709" height="1.57" transform="translate(1102.679 1201.93)"/>
    <rect id="Rectangle_1717" data-name="Rectangle 1717" class="cls-11" width="4.709" height="3.663" transform="translate(1116.802 1187.823)"/>
    <rect id="Rectangle_1718" data-name="Rectangle 1718" class="cls-11" width="4.709" height="4.709" transform="translate(1116.802 1194.604)"/>
    <rect id="Rectangle_1719" data-name="Rectangle 1719" class="cls-11" width="4.709" height="1.57" transform="translate(1116.802 1201.93)"/>
    <path id="Path_1779" data-name="Path 1779" class="cls-11" d="M450.275,493.155v4.84a7.079,7.079,0,0,0-3.479,1.677l-.651-5.4A10.281,10.281,0,0,1,450.275,493.155Z" transform="translate(644.921 669.051)"/>
    <path id="Path_1780" data-name="Path 1780" class="cls-11" d="M405.41,540.44a15.427,15.427,0,0,0-1.02,4.636l-4.806-1.286a19.916,19.916,0,0,1,1.679-5.948Z" transform="translate(684.238 631.313)"/>
    <path id="Path_1781" data-name="Path 1781" class="cls-3" d="M686.6,493.155v4.84a7.079,7.079,0,0,1,3.479,1.677,8.231,8.231,0,0,1,2.071,3.037,15.428,15.428,0,0,1,1.02,4.636,26.507,26.507,0,0,1-.29,6.219h5.232a35.725,35.725,0,0,0-.137-7.505,19.919,19.919,0,0,0-1.679-5.948,12.079,12.079,0,0,0-5.566-5.842A10.282,10.282,0,0,0,686.6,493.155Z" transform="translate(441.865 669.042)"/>
    <path id="Path_1782" data-name="Path 1782" class="cls-11" d="M686.6,493.155v4.84a7.079,7.079,0,0,1,3.479,1.677l.651-5.4A10.281,10.281,0,0,0,686.6,493.155Z" transform="translate(441.867 669.051)"/>
    <path id="Path_1783" data-name="Path 1783" class="cls-12" d="M722.267,540.44a15.425,15.425,0,0,1,1.02,4.636l4.806-1.286a19.915,19.915,0,0,0-1.679-5.948Z" transform="translate(411.752 631.313)"/>
    <rect id="Rectangle_1720" data-name="Rectangle 1720" class="cls-4" width="6.279" height="0.434" transform="translate(1108.694 1154.89)"/>
    <path id="Path_1784" data-name="Path 1784" class="cls-8" d="M664.053,486.856v8.763a1.826,1.826,0,0,1-.486-1.242V488.1A1.823,1.823,0,0,1,664.053,486.856Z" transform="translate(461.322 674.37)"/>
    <path id="Path_1785" data-name="Path 1785" class="cls-8" d="M493.534,484.547v6.56a1.824,1.824,0,0,1-.488,1.11v-8.78A1.824,1.824,0,0,1,493.534,484.547Z" transform="translate(605.316 677.257)"/>
    <rect id="Rectangle_1721" data-name="Rectangle 1721" class="cls-4" width="23.546" height="0.31" transform="translate(1100.061 1178.416)"/>
    <rect id="Rectangle_1722" data-name="Rectangle 1722" class="cls-8" width="11.511" height="0.24" transform="translate(1099.539 1185.212)"/>
    <rect id="Rectangle_1723" data-name="Rectangle 1723" class="cls-4" width="11.511" height="0.24" transform="translate(1112.093 1185.212)"/>
    <rect id="Rectangle_1724" data-name="Rectangle 1724" class="cls-3" width="1.802" height="15.496" transform="translate(1100.824 1122.676)"/>
    <rect id="Rectangle_1725" data-name="Rectangle 1725" class="cls-3" width="1.802" height="15.496" transform="translate(1121.478 1122.676)"/>
    <circle id="Ellipse_348" data-name="Ellipse 348" class="cls-8" cx="2.042" cy="2.042" r="2.042" transform="translate(1099.624 1120.759)"/>
    <circle id="Ellipse_349" data-name="Ellipse 349" class="cls-3" cx="2.042" cy="2.042" r="2.042" transform="translate(1099.624 1120.639)"/>
    <circle id="Ellipse_350" data-name="Ellipse 350" class="cls-4" cx="2.042" cy="2.042" r="2.042" transform="translate(1120.397 1120.759)"/>
    <circle id="Ellipse_351" data-name="Ellipse 351" class="cls-3" cx="2.042" cy="2.042" r="2.042" transform="translate(1120.397 1120.639)"/>
    <path id="Path_1786" data-name="Path 1786" class="cls-13" d="M232.111,543.952s5.976,11.73,1.107,18.148.443,23.9.443,23.9" transform="translate(826.468 626.116)"/>
    <path id="Path_1787" data-name="Path 1787" class="cls-14" d="M230.621,498.268a6.894,6.894,0,0,1-1.66,4.094,5.88,5.88,0,0,1,0-8.189A6.894,6.894,0,0,1,230.621,498.268Z" transform="translate(829.729 668.19)"/>
    <path id="Path_1788" data-name="Path 1788" class="cls-15" d="M240.8,543.952s-5.976,11.73-1.107,18.148-.443,23.9-.443,23.9" transform="translate(820.88 626.116)"/>
    <path id="Path_1789" data-name="Path 1789" class="cls-16" d="M245.79,498.268a6.894,6.894,0,0,0,1.66,4.094,5.88,5.88,0,0,0,0-8.189A6.894,6.894,0,0,0,245.79,498.268Z" transform="translate(814.118 668.19)"/>
    <path id="Path_1790" data-name="Path 1790" class="cls-13" d="M267.666,543.952s5.976,11.73,1.107,18.148.443,23.9.443,23.9" transform="translate(796.436 626.116)"/>
    <path id="Path_1791" data-name="Path 1791" class="cls-14" d="M266.176,498.268a6.894,6.894,0,0,1-1.66,4.094,5.88,5.88,0,0,1,0-8.189A6.894,6.894,0,0,1,266.176,498.268Z" transform="translate(799.707 668.19)"/>
    <path id="Path_1792" data-name="Path 1792" class="cls-14" d="M256.317,558.625a6.893,6.893,0,0,1-4.035,1.8,5.88,5.88,0,0,1,5.677-5.9A6.893,6.893,0,0,1,256.317,558.625Z" transform="translate(808.636 617.224)"/>
    <path id="Path_1793" data-name="Path 1793" class="cls-14" d="M257.317,610.625a6.893,6.893,0,0,1-4.035,1.8,5.88,5.88,0,0,1,5.677-5.9A6.893,6.893,0,0,1,257.317,610.625Z" transform="translate(807.791 573.308)"/>
    <path id="Path_1794" data-name="Path 1794" class="cls-14" d="M203.211,650.621a6.894,6.894,0,0,1,1.431,4.18,5.88,5.88,0,0,1-5.369-6.184A6.893,6.893,0,0,1,203.211,650.621Z" transform="translate(853.396 537.759)"/>
    <path id="Path_1795" data-name="Path 1795" class="cls-14" d="M209.921,545.549a6.894,6.894,0,0,1,2.5,3.646,5.88,5.88,0,0,1-6.826-4.524A6.893,6.893,0,0,1,209.921,545.549Z" transform="translate(848.061 625.589)"/>
    <path id="Path_1796" data-name="Path 1796" class="cls-15" d="M276.354,543.952s-5.976,11.73-1.107,18.148S274.8,586,274.8,586" transform="translate(790.847 626.116)"/>
    <path id="Path_1797" data-name="Path 1797" class="cls-16" d="M281.345,498.268a6.894,6.894,0,0,0,1.66,4.094,5.88,5.88,0,0,0,0-8.189A6.894,6.894,0,0,0,281.345,498.268Z" transform="translate(784.084 668.19)"/>
    <path id="Path_1798" data-name="Path 1798" class="cls-16" d="M275.236,572.5a6.894,6.894,0,0,0-1.692,4.081,5.88,5.88,0,0,0,5.748-5.833A6.894,6.894,0,0,0,275.236,572.5Z" transform="translate(790.671 603.525)"/>
    <path id="Path_1799" data-name="Path 1799" class="cls-16" d="M295.236,644.5a6.894,6.894,0,0,0-1.692,4.082,5.88,5.88,0,0,0,5.748-5.833A6.894,6.894,0,0,0,295.236,644.5Z" transform="translate(773.783 542.719)"/>
    <path id="Path_1800" data-name="Path 1800" class="cls-15" d="M274.99,606.748s3.6-5.67,8.646-5.792" transform="translate(789.45 578.01)"/>
    <path id="Path_1801" data-name="Path 1801" class="cls-13" d="M210.078,584.748s-3.6-5.67-8.646-5.792" transform="translate(851.572 596.59)"/>
    <path id="Path_1802" data-name="Path 1802" class="cls-15" d="M253.99,636.748s3.6-5.67,8.646-5.792" transform="translate(807.184 552.674)"/>
    <circle id="Ellipse_352" data-name="Ellipse 352" class="cls-16" cx="0.934" cy="0.934" r="0.934" transform="translate(1071.985 1177.992)"/>
    <circle id="Ellipse_353" data-name="Ellipse 353" class="cls-14" cx="0.934" cy="0.934" r="0.934" transform="translate(1052.158 1174.65)"/>
    <path id="Path_1803" data-name="Path 1803" class="cls-13" d="M224.078,648.748s-3.6-5.67-8.646-5.792" transform="translate(839.751 542.54)"/>
    <circle id="Ellipse_354" data-name="Ellipse 354" class="cls-14" cx="0.934" cy="0.934" r="0.934" transform="translate(1054.336 1184.6)"/>
    <circle id="Ellipse_355" data-name="Ellipse 355" class="cls-16" cx="0.934" cy="0.934" r="0.934" transform="translate(1068.952 1182.734)"/>
    <path id="Path_1804" data-name="Path 1804" class="cls-17" d="M214.1,724.2s-8.668-1.734-10.98-4.045-12.714-6.357-13.869-3.467-15.6,12.714-5.779,14.447,23.116,2.312,26.005,1.156S214.1,724.2,214.1,724.2Z" transform="translate(869.613 481.104)"/>
    <path id="Path_1805" data-name="Path 1805" class="cls-18" d="M183.483,775.941c9.824,1.734,23.116,2.312,26.005,1.156,2.2-.88,3.73-5.109,4.334-7.077l.289.06s-1.734,6.935-4.623,8.091-16.181.578-26.005-1.156c-2.836-.5-3.647-1.676-3.341-3.163C180.384,774.822,181.373,775.569,183.483,775.941Z" transform="translate(869.601 435.228)"/>
    <path id="Path_1806" data-name="Path 1806" class="cls-14" d="M969.377,557.26s2.077,2.716-.959,6.817-5.539,7.562-4.527,10.119c0,0,4.58-7.616,8.308-7.722S973.479,561.84,969.377,557.26Z" transform="translate(207.9 614.905)"/>
    <path id="Path_1807" data-name="Path 1807" class="cls-8" d="M970.015,557.26a3.362,3.362,0,0,1,.424.852c3.637,4.274,5.575,8.262,2.079,8.362-3.257.093-7.164,5.917-8.1,7.388a3.154,3.154,0,0,0,.111.335s4.58-7.616,8.308-7.722S974.117,561.84,970.015,557.26Z" transform="translate(207.262 614.905)"/>
    <path id="Path_1808" data-name="Path 1808" class="cls-16" d="M1022.6,576.186c0,.956-.107,1.731-.24,1.731s-.24-.775-.24-1.731.134-.506.266-.506S1022.6,575.23,1022.6,576.186Z" transform="translate(158.54 599.449)"/>
    <path id="Path_1809" data-name="Path 1809" class="cls-16" d="M1024.818,583.283c-.839.458-1.571.734-1.634.618s.566-.581,1.405-1.039.508-.125.572-.008S1025.656,582.825,1024.818,583.283Z" transform="translate(157.646 593.492)"/>
    <path id="Path_1810" data-name="Path 1810" class="cls-14" d="M904.595,557.26s-2.077,2.716.959,6.817,5.539,7.562,4.527,10.119c0,0-4.58-7.616-8.308-7.722S900.494,561.84,904.595,557.26Z" transform="translate(261.712 614.905)"/>
    <path id="Path_1811" data-name="Path 1811" class="cls-8" d="M904.595,557.26a3.362,3.362,0,0,0-.424.852c-3.637,4.274-5.575,8.262-2.079,8.362,3.257.093,7.164,5.917,8.1,7.388a3.14,3.14,0,0,1-.111.335s-4.58-7.616-8.308-7.722S900.494,561.84,904.595,557.26Z" transform="translate(261.713 614.905)"/>
    <path id="Path_1812" data-name="Path 1812" class="cls-16" d="M905.074,576.186c0,.956.107,1.731.24,1.731s.24-.775.24-1.731-.134-.506-.266-.506S905.074,575.23,905.074,576.186Z" transform="translate(257.384 599.449)"/>
    <path id="Path_1813" data-name="Path 1813" class="cls-16" d="M893.789,583.283c.839.458,1.571.734,1.635.618s-.566-.581-1.405-1.039-.508-.125-.572-.008S892.95,582.825,893.789,583.283Z" transform="translate(267.344 593.492)"/>
    <path id="Path_1814" data-name="Path 1814" class="cls-17" d="M909.324,646.778s5.807-.179,7.557-1.425,8.933-2.734,9.367-.736,8.727,9.94,2.171,9.993-15.233-1.021-16.98-2.085S909.324,646.778,909.324,646.778Z" transform="translate(253.783 541.941)"/>
    <path id="Path_1815" data-name="Path 1815" class="cls-18" d="M928.537,670.9c-6.556.053-15.234-1.021-16.98-2.085-1.33-.81-1.86-3.718-2.038-5.059l-.194.008s.368,4.683,2.115,5.747,10.424,2.138,16.98,2.085c1.893-.015,2.546-.689,2.51-1.686C930.667,670.513,929.945,670.889,928.537,670.9Z" transform="translate(253.782 524.955)"/>
  </g>
</svg>
