<svg xmlns="http://www.w3.org/2000/svg" width="88.611" height="88.611" viewBox="0 0 88.611 88.611">
  <defs>
    <style>
      .cls-1 {
        fill: #009C72;
        stroke: #009C72;
      }
    </style>
  </defs>
  <g id="blockchain" transform="translate(0 0)">
    <path id="Path_2322" data-name="Path 2322" class="cls-1" d="M87.7,38.733a1.731,1.731,0,0,0,.91-1.524V25.095a1.768,1.768,0,0,0-.91-1.524L73.009,15.584a1.731,1.731,0,0,0-1.693,3.02l.719.4-8.475,4.563a1.768,1.768,0,0,0-.91,1.524V35.67l-6.756.795-9.859-5.308V26.994l10.339-5.567a1.731,1.731,0,0,0,.91-1.524V10.741l1.952,1.094a1.728,1.728,0,0,0,2.355-.665,1.728,1.728,0,0,0-.663-2.355L45.126.206a1.73,1.73,0,0,0-1.641,0l-15.8,8.609a1.731,1.731,0,1,0,1.693,3.02l1.952-1.094V19.9a1.731,1.731,0,0,0,.91,1.524l10.339,5.567v4.163l-9.859,5.309L25.96,35.67V25.095a1.77,1.77,0,0,0-.91-1.524l-8.475-4.563.719-.4a1.731,1.731,0,1,0-1.693-3.02L.91,23.571A1.792,1.792,0,0,0,0,25.095V37.209a1.731,1.731,0,0,0,.91,1.524L11.249,44.3v1.221L.91,51.089A1.769,1.769,0,0,0,0,52.613V64.727a1.731,1.731,0,0,0,.91,1.524l14.344,7.606a1.731,1.731,0,0,0,1.549-3.1l-.066-.033,8.313-4.476a1.731,1.731,0,0,0,.91-1.524V53.958l6.869-1.751,9.745,5.247v4.163L32.236,67.184a1.771,1.771,0,0,0-.91,1.524v9.315l-2.139-1.07a1.731,1.731,0,0,0-1.549,3.1L43.485,88.4a1.776,1.776,0,0,0,.821.207,1.757,1.757,0,0,0,.821-.207l15.846-8.355a1.731,1.731,0,1,0-1.547-3.1l-2.139,1.069V68.708a1.77,1.77,0,0,0-.91-1.524L46.036,61.617V57.454l9.745-5.247,6.869,1.751v10.77a1.731,1.731,0,0,0,.91,1.524l8.313,4.476-.066.033a1.731,1.731,0,0,0,.777,3.28,1.717,1.717,0,0,0,.772-.183L87.7,66.251a1.731,1.731,0,0,0,.91-1.524V52.613a1.77,1.77,0,0,0-.91-1.524L77.362,45.521V44.3ZM64.155,50.769l-6.869-1.751V39.787l6.756-.795L73.9,44.3v1.221ZM73.9,32.186v8.184l-7.788-4.194V27.992Zm3.461,8.184V32.186l7.788-4.194v8.184ZM75.631,21l7.6,4.092-7.6,4.092-7.6-4.092Zm-29.595,2.06V14.879l7.788-4.194v8.184ZM44.306,3.7l7.6,4.092-7.6,4.092-7.6-4.092Zm-9.519,6.989,7.788,4.194v8.184l-7.788-4.194Zm9.519,23.471,7.6,4.092-7.6,4.092-7.6-4.092ZM24.456,50.769l-9.745-5.247V44.3l9.859-5.309,6.756.795v9.231ZM22.5,27.992v8.184l-7.788,4.194V32.186ZM12.98,21l7.6,4.092-7.6,4.092-7.6-4.092ZM3.461,27.992l7.788,4.194v8.184L3.461,36.176ZM12.98,48.521l7.6,4.092L12.98,56.7l-7.6-4.092ZM3.461,55.51,11.249,59.7v8.184L3.461,63.694ZM14.711,67.887V59.7L22.5,55.51v8.184ZM34.787,41.145l7.788,4.194v8.184l-7.788-4.194ZM42.575,75.8v8.184l-7.788-4.194V71.606Zm3.461,8.184V75.8l7.788-4.194v8.184ZM44.306,72.8l-7.6-4.092,7.6-4.092,7.6,4.092Zm1.731-19.277V45.339l7.788-4.194v8.184ZM66.112,55.51,73.9,59.7v8.184l-7.788-4.194ZM77.362,67.887V59.7L85.15,55.51v8.184ZM75.631,56.7l-7.6-4.092,7.6-4.092,7.6,4.092Z" transform="translate(0 0)"/>
    <path id="Path_2323" data-name="Path 2323" class="cls-1" d="M372.949,72.46a1.73,1.73,0,1,0-.82-1.04A1.724,1.724,0,0,0,372.949,72.46Z" transform="translate(-307.671 -57.241)"/>
    <path id="Path_2324" data-name="Path 2324" class="cls-1" d="M375.342,425.69a1.712,1.712,0,0,0-.772.183,1.731,1.731,0,0,0,.775,3.28,1.732,1.732,0,0,0,0-3.463Z" transform="translate(-308.952 -352.017)"/>
    <path id="Path_2325" data-name="Path 2325" class="cls-1" d="M121.66,72.681a1.73,1.73,0,1,0-1.511-.884A1.724,1.724,0,0,0,121.66,72.681Z" transform="translate(-99.171 -57.241)"/>
    <path id="Path_2326" data-name="Path 2326" class="cls-1" d="M120.89,425.873a1.731,1.731,0,1,0,.774,2.323A1.733,1.733,0,0,0,120.89,425.873Z" transform="translate(-97.896 -352.017)"/>
  </g>
</svg>
