<svg id="computer" xmlns="http://www.w3.org/2000/svg" width="33" height="33" viewBox="0 0 33 33">
  <defs>
    <style>
      .cls-1 {
        fill: #00b584;
        stroke: #009C72;
      }
    </style>
  </defs>
  <path id="Path_2417" data-name="Path 2417" class="cls-1" d="M48,160h2.129v1.065H48Zm0,0" transform="translate(-44.806 -149.355)"/>
  <path id="Path_2418" data-name="Path 2418" class="cls-1" d="M31.4,8.516a1.6,1.6,0,0,0,1.6-1.6V1.6A1.6,1.6,0,0,0,31.4,0H23.951a1.6,1.6,0,0,0-1.6,1.6V6.919a1.6,1.6,0,0,0,1.6,1.6h1.6V9.581H24.484v1.065h2.661v5.323h-2.2a3.721,3.721,0,0,0-1.533-.906c0-.054,0-.106,0-.158a4.255,4.255,0,0,0-7.844-2.288,4.236,4.236,0,0,0-1.736-.373,4.282,4.282,0,0,0-3.979,2.746,3.7,3.7,0,0,0-1.123.447H4.79v-1.6H6.919a1.6,1.6,0,0,0,1.6-1.6V1.6A1.6,1.6,0,0,0,6.919,0H1.6A1.6,1.6,0,0,0,0,1.6V12.242a1.6,1.6,0,0,0,1.6,1.6H3.726V16.5H7.6a3.705,3.705,0,0,0-.517,1.065H4.79v5.855H2.661a1.6,1.6,0,0,0-1.6,1.6v4.79H0v1.6A1.6,1.6,0,0,0,1.6,33h8.516a1.6,1.6,0,0,0,1.6-1.6v-1.6H10.645v-4.79a1.6,1.6,0,0,0-1.6-1.6H5.855v-4.79H6.919a3.731,3.731,0,0,0,3.726,3.726h11.71a3.729,3.729,0,0,0,3.683-3.194h2.172v4.258H24.484V33H33V23.419H29.274V18.1H26.036a3.684,3.684,0,0,0-.331-1.065h2.5V10.645h2.661V9.581H29.806V8.516Zm-23.951,0H1.065V3.194H7.452ZM1.6,1.065H6.919a.533.533,0,0,1,.532.532v.532H1.065V1.6A.533.533,0,0,1,1.6,1.065ZM1.065,12.242V9.581H7.452v2.661a.533.533,0,0,1-.532.532H1.6A.533.533,0,0,1,1.065,12.242ZM10.645,31.4a.533.533,0,0,1-.532.532H1.6a.533.533,0,0,1-.532-.532v-.532h9.581ZM9.581,25.016v4.79H2.129v-4.79a.533.533,0,0,1,.532-.532H9.048A.533.533,0,0,1,9.581,25.016Zm15.968,6.919V28.742h6.387v3.194Zm6.387-4.258H25.548V24.484h6.387ZM22.355,21.29H10.645a2.66,2.66,0,0,1-.319-5.3l.349-.042.1-.338a3.185,3.185,0,0,1,4.735-1.826l.508.313.253-.541A3.186,3.186,0,0,1,22.312,15.4l-.08.527.526.08a2.66,2.66,0,0,1-.4,5.288Zm1.6-20.226H31.4a.533.533,0,0,1,.532.532V5.323H23.419V1.6A.533.533,0,0,1,23.951,1.065Zm-.532,5.855V6.387h8.516v.532a.533.533,0,0,1-.532.532H23.951A.533.533,0,0,1,23.419,6.919Zm5.323,2.661H26.613V8.516h2.129Zm0,0"/>
  <path id="Path_2419" data-name="Path 2419" class="cls-1" d="M400,384h1.065v1.065H400Zm0,0" transform="translate(-373.387 -358.452)"/>
  <path id="Path_2420" data-name="Path 2420" class="cls-1" d="M448,448h1.065v1.065H448Zm0,0" transform="translate(-418.194 -418.194)"/>
  <path id="Path_2421" data-name="Path 2421" class="cls-1" d="M432,384h2.129v1.065H432Zm0,0" transform="translate(-403.258 -358.452)"/>
  <path id="Path_2422" data-name="Path 2422" class="cls-1" d="M400,448h2.129v1.065H400Zm0,0" transform="translate(-373.387 -418.194)"/>
</svg>
