<svg id="computer2" xmlns="http://www.w3.org/2000/svg" width="23.396" height="23.396" viewBox="0 0 23.396 23.396">
  <defs>
    <style>
      .cls-1 {
        fill: #00b584;
        stroke: #009C72;
      }
    </style>
  </defs>
  <path id="Path_2417" data-name="Path 2417" class="cls-1" d="M48,160h1.509v.755H48Zm0,0" transform="translate(-45.736 -152.453)"/>
  <path id="Path_2418" data-name="Path 2418" class="cls-1" d="M22.264,6.038A1.134,1.134,0,0,0,23.4,4.906V1.132A1.134,1.134,0,0,0,22.264,0H16.981a1.134,1.134,0,0,0-1.132,1.132V4.906a1.134,1.134,0,0,0,1.132,1.132h1.132v.755h-.755v.755h1.887v3.774H17.688a2.638,2.638,0,0,0-1.087-.643c0-.038,0-.075,0-.112a3.017,3.017,0,0,0-5.561-1.622,3,3,0,0,0-1.231-.265A3.036,3.036,0,0,0,6.99,10.626a2.623,2.623,0,0,0-.8.317H3.4V9.811H4.906A1.134,1.134,0,0,0,6.038,8.679V1.132A1.134,1.134,0,0,0,4.906,0H1.132A1.134,1.134,0,0,0,0,1.132V8.679A1.134,1.134,0,0,0,1.132,9.811H2.641V11.7H5.391a2.627,2.627,0,0,0-.367.755H3.4V16.6H1.887A1.134,1.134,0,0,0,.755,17.736v3.4H0v1.132A1.134,1.134,0,0,0,1.132,23.4H7.17A1.134,1.134,0,0,0,8.3,22.264V21.132H7.547v-3.4A1.134,1.134,0,0,0,6.415,16.6H4.151v-3.4h.755a2.645,2.645,0,0,0,2.641,2.641h8.3a2.643,2.643,0,0,0,2.611-2.264H20V16.6H17.358V23.4H23.4V16.6H20.754V12.83h-2.3a2.612,2.612,0,0,0-.235-.755H20V7.547h1.887V6.792h-.755V6.038Zm-16.981,0H.755V2.264H5.283ZM1.132.755H4.906a.378.378,0,0,1,.377.377v.377H.755V1.132A.378.378,0,0,1,1.132.755ZM.755,8.679V6.792H5.283V8.679a.378.378,0,0,1-.377.377H1.132A.378.378,0,0,1,.755,8.679ZM7.547,22.264a.378.378,0,0,1-.377.377H1.132a.378.378,0,0,1-.377-.377v-.377H7.547Zm-.755-4.528v3.4H1.509v-3.4a.378.378,0,0,1,.377-.377H6.415A.378.378,0,0,1,6.792,17.736Zm11.321,4.906V20.377h4.528v2.264Zm4.528-3.019H18.113V17.358h4.528Zm-6.792-4.528h-8.3a1.886,1.886,0,0,1-.226-3.758l.248-.03.07-.24A2.258,2.258,0,0,1,11,9.772l.36.222.18-.384a2.259,2.259,0,0,1,4.284,1.3l-.057.373.373.057a1.886,1.886,0,0,1-.286,3.749ZM16.981.755h5.283a.378.378,0,0,1,.377.377V3.774H16.6V1.132A.378.378,0,0,1,16.981.755ZM16.6,4.906V4.528h6.038v.377a.378.378,0,0,1-.377.377H16.981A.378.378,0,0,1,16.6,4.906Zm3.774,1.887H18.868V6.038h1.509Zm0,0" transform="translate(0 0)"/>
  <path id="Path_2419" data-name="Path 2419" class="cls-1" d="M400,384h.755v.755H400Zm0,0" transform="translate(-381.132 -365.887)"/>
  <path id="Path_2420" data-name="Path 2420" class="cls-1" d="M448,448h.755v.755H448Zm0,0" transform="translate(-426.868 -426.868)"/>
  <path id="Path_2421" data-name="Path 2421" class="cls-1" d="M432,384h1.509v.755H432Zm0,0" transform="translate(-411.623 -365.887)"/>
  <path id="Path_2422" data-name="Path 2422" class="cls-1" d="M400,448h1.509v.755H400Zm0,0" transform="translate(-381.132 -426.868)"/>
</svg>
