<svg xmlns="http://www.w3.org/2000/svg" width="32.631" height="32.642" viewBox="0 0 32.631 32.642">
  <defs>
    <style>
      .cls-1 {
        fill: #00b584;
        stroke: #009C72;
      }
    </style>
  </defs>
  <g id="confetti" transform="translate(-0.082)">
    <g id="Group_555" data-name="Group 555" transform="translate(0.082 7.713)">
      <g id="Group_554" data-name="Group 554" transform="translate(0)">
        <path id="Path_2380" data-name="Path 2380" class="cls-1" d="M22.334,126.226a.544.544,0,0,0-1.023.369l.008.021c.5,1.294.532,2.284.1,2.719-.526.525-1.838.361-3.508-.438a23.261,23.261,0,0,1-6.02-4.492c-4.26-4.26-6.017-8.441-4.93-9.528a1.486,1.486,0,0,1,1.23-.287.544.544,0,0,0,.106-1.082,2.5,2.5,0,0,0-2.1.6C4.2,116.1,7.243,121.293,11.12,125.17a24.322,24.322,0,0,0,6.319,4.7,10.714,10.714,0,0,0,1.312.525l-3.864,1.465a15.393,15.393,0,0,1-9.735-11.988.544.544,0,0,0-1.075.169,16.465,16.465,0,0,0,9.34,12.375l-6.36,2.406a.534.534,0,0,0-.109-.129,7.577,7.577,0,0,1-2.806-5.266l-.252-3.056a.537.537,0,0,0-.572-.5H3.3a.544.544,0,0,0-.5.585v0l.257,3.055a8.663,8.663,0,0,0,2.877,5.729L1.4,136.967l.816-3.348a.544.544,0,1,0-1.057-.258L.1,137.712a.544.544,0,0,0,.721.638l20.122-7.614a.507.507,0,0,0,.09-.057,2.113,2.113,0,0,0,1.155-.576C22.724,129.565,23.188,128.454,22.334,126.226Z" transform="translate(-0.082 -113.468)"/>
      </g>
    </g>
    <g id="Group_557" data-name="Group 557" transform="translate(15.867 17.931)">
      <g id="Group_556" data-name="Group 556">
        <path id="Path_2381" data-name="Path 2381" class="cls-1" d="M243.892,264.918a17.908,17.908,0,0,0-9.214-.895l-1.943.326a.544.544,0,0,0,.179,1.072l1.943-.324a16.808,16.808,0,0,1,8.653.841.562.562,0,0,0,.191.032.544.544,0,0,0,.191-1.053Z" transform="translate(-232.294 -263.781)"/>
      </g>
    </g>
    <g id="Group_559" data-name="Group 559" transform="translate(16.944 10.333)">
      <g id="Group_558" data-name="Group 558">
        <path id="Path_2382" data-name="Path 2382" class="cls-1" d="M260.581,152.307a.544.544,0,0,0-.725-.257l-11.42,5.438a.544.544,0,0,0-.257.725h0a.544.544,0,0,0,.725.257h0l11.42-5.438A.544.544,0,0,0,260.581,152.307Z" transform="translate(-248.126 -151.997)"/>
      </g>
    </g>
    <g id="Group_561" data-name="Group 561" transform="translate(10.584 3.255)">
      <g id="Group_560" data-name="Group 560">
        <path id="Path_2383" data-name="Path 2383" class="cls-1" d="M157.282,48.323a.544.544,0,1,0-1.066.217l0,.019a15.212,15.212,0,0,1-.812,9.2l-.791,1.9a.544.544,0,0,0,.292.709.536.536,0,0,0,.209.042.544.544,0,0,0,.5-.334l.791-1.9A16.293,16.293,0,0,0,157.282,48.323Z" transform="translate(-154.576 -47.887)"/>
      </g>
    </g>
    <g id="Group_563" data-name="Group 563" transform="translate(28.363 19.578)">
      <g id="Group_562" data-name="Group 562">
        <path id="Path_2384" data-name="Path 2384" class="cls-1" d="M417.736,288a1.631,1.631,0,1,0,1.632,1.631A1.631,1.631,0,0,0,417.736,288Zm0,2.175a.544.544,0,1,1,.544-.544A.544.544,0,0,1,417.736,290.175Z" transform="translate(-416.105 -288)"/>
      </g>
    </g>
    <g id="Group_565" data-name="Group 565" transform="translate(15.311 4.351)">
      <g id="Group_564" data-name="Group 564">
        <path id="Path_2385" data-name="Path 2385" class="cls-1" d="M225.736,64a1.631,1.631,0,1,0,1.632,1.631A1.631,1.631,0,0,0,225.736,64Zm0,2.175a.544.544,0,1,1,.544-.544A.544.544,0,0,1,225.736,66.175Z" transform="translate(-224.105 -64)"/>
      </g>
    </g>
    <g id="Group_567" data-name="Group 567" transform="translate(10.96)">
      <g id="Group_566" data-name="Group 566">
        <circle id="Ellipse_3234" data-name="Ellipse 3234" class="cls-1" cx="1.088" cy="1.088" r="1.088"/>
      </g>
    </g>
    <g id="Group_569" data-name="Group 569" transform="translate(26.731 2.719)">
      <g id="Group_568" data-name="Group 568">
        <path id="Path_2386" data-name="Path 2386" class="cls-1" d="M392.649,40a.544.544,0,0,0-.544.544v.544a.544.544,0,1,0,1.088,0v-.544A.544.544,0,0,0,392.649,40Z" transform="translate(-392.105 -40)"/>
      </g>
    </g>
    <g id="Group_571" data-name="Group 571" transform="translate(26.731)">
      <g id="Group_570" data-name="Group 570">
        <path id="Path_2387" data-name="Path 2387" class="cls-1" d="M392.649,0a.544.544,0,0,0-.544.544v.544a.544.544,0,1,0,1.088,0V.544A.544.544,0,0,0,392.649,0Z" transform="translate(-392.105)"/>
      </g>
    </g>
    <g id="Group_573" data-name="Group 573" transform="translate(27.819 1.631)">
      <g id="Group_572" data-name="Group 572">
        <path id="Path_2388" data-name="Path 2388" class="cls-1" d="M409.193,24h-.544a.544.544,0,0,0,0,1.088h.544a.544.544,0,0,0,0-1.088Z" transform="translate(-408.105 -24)"/>
      </g>
    </g>
    <g id="Group_575" data-name="Group 575" transform="translate(25.1 1.631)">
      <g id="Group_574" data-name="Group 574">
        <path id="Path_2389" data-name="Path 2389" class="cls-1" d="M369.193,24h-.544a.544.544,0,0,0,0,1.088h.544a.544.544,0,0,0,0-1.088Z" transform="translate(-368.105 -24)"/>
      </g>
    </g>
    <g id="Group_577" data-name="Group 577" transform="translate(20.194 5.971)">
      <g id="Group_576" data-name="Group 576">
        <path id="Path_2390" data-name="Path 2390" class="cls-1" d="M299.211,87.832h-2.731a.544.544,0,0,0-.544.544v2.731a.544.544,0,0,0,.544.544h2.731a.544.544,0,0,0,.544-.544V88.376A.544.544,0,0,0,299.211,87.832Zm-.544,2.731h-1.643V88.92h1.643Z" transform="translate(-295.937 -87.832)"/>
      </g>
    </g>
    <g id="Group_579" data-name="Group 579" transform="translate(13.136 10.34)">
      <g id="Group_578" data-name="Group 578">
        <path id="Path_2391" data-name="Path 2391" class="cls-1" d="M198.478,152.277a.544.544,0,0,0-.753-.039l-5.438,4.894a.544.544,0,1,0,.728.808l5.438-4.894A.544.544,0,0,0,198.478,152.277Z" transform="translate(-192.107 -152.105)"/>
      </g>
    </g>
    <g id="Group_581" data-name="Group 581" transform="translate(28.906 12.508)">
      <g id="Group_580" data-name="Group 580">
        <path id="Path_2392" data-name="Path 2392" class="cls-1" d="M424.649,184a.544.544,0,0,0-.544.544v.544a.544.544,0,1,0,1.088,0v-.544A.544.544,0,0,0,424.649,184Z" transform="translate(-424.105 -184)"/>
      </g>
    </g>
    <g id="Group_583" data-name="Group 583" transform="translate(30.452 11.877)">
      <g id="Group_582" data-name="Group 582">
        <path id="Path_2393" data-name="Path 2393" class="cls-1" d="M448.142,175.259l-.384-.384a.544.544,0,0,0-.769.769l.385.384a.544.544,0,0,0,.769-.769Z" transform="translate(-446.836 -174.722)"/>
      </g>
    </g>
    <g id="Group_585" data-name="Group 585" transform="translate(31.082 10.333)">
      <g id="Group_584" data-name="Group 584">
        <path id="Path_2394" data-name="Path 2394" class="cls-1" d="M457.193,152h-.544a.544.544,0,0,0,0,1.088h.544a.544.544,0,0,0,0-1.088Z" transform="translate(-456.105 -152)"/>
      </g>
    </g>
    <g id="Group_587" data-name="Group 587" transform="translate(30.445 8.417)">
      <g id="Group_586" data-name="Group 586">
        <path id="Path_2395" data-name="Path 2395" class="cls-1" d="M448.038,123.971a.544.544,0,0,0-.756,0l-.384.384a.544.544,0,0,0,.384.928h0a.544.544,0,0,0,.385-.159l.384-.384A.544.544,0,0,0,448.038,123.971Z" transform="translate(-446.739 -123.818)"/>
      </g>
    </g>
    <g id="Group_589" data-name="Group 589" transform="translate(28.906 7.614)">
      <g id="Group_588" data-name="Group 588">
        <path id="Path_2396" data-name="Path 2396" class="cls-1" d="M424.649,112a.544.544,0,0,0-.544.544v.544a.544.544,0,0,0,1.088,0v-.544A.544.544,0,0,0,424.649,112Z" transform="translate(-424.105 -112)"/>
      </g>
    </g>
    <g id="Group_591" data-name="Group 591" transform="translate(26.99 8.417)">
      <g id="Group_590" data-name="Group 590">
        <path id="Path_2397" data-name="Path 2397" class="cls-1" d="M397.222,124.355l-.385-.384a.544.544,0,0,0-.769.769l.384.384a.544.544,0,0,0,.769-.769Z" transform="translate(-395.915 -123.818)"/>
      </g>
    </g>
    <g id="Group_593" data-name="Group 593" transform="translate(0.083 0.025)">
      <g id="Group_592" data-name="Group 592">
        <path id="Path_2398" data-name="Path 2398" class="cls-1" d="M6.595,2.688a.544.544,0,0,0-.439-.37l-1.6-.232L3.848.64a.566.566,0,0,0-.976,0L2.157,2.086l-1.6.232a.544.544,0,0,0-.3.927L1.413,4.371l-.272,1.59a.544.544,0,0,0,.79.575l1.428-.753,1.428.75a.544.544,0,0,0,.789-.573L5.3,4.371,6.458,3.245A.544.544,0,0,0,6.595,2.688Zm-2.257,1.1a.544.544,0,0,0-.157.481l.135.786-.7-.371a.544.544,0,0,0-.506,0L2.4,5.058l.135-.786a.544.544,0,0,0-.154-.48l-.572-.556L2.6,3.121a.544.544,0,0,0,.41-.3l.352-.714.352.714a.544.544,0,0,0,.409.3l.789.115Z" transform="translate(-0.095 -0.361)"/>
      </g>
    </g>
    <g id="Group_595" data-name="Group 595" transform="translate(24.569 23.387)">
      <g id="Group_594" data-name="Group 594">
        <path id="Path_2399" data-name="Path 2399" class="cls-1" d="M366.6,347.9h0l-.224-.336a8.207,8.207,0,0,0-5.461-3.531.544.544,0,0,0-.18,1.072,7.115,7.115,0,0,1,4.15,2.313,3.208,3.208,0,0,0-2.175,1.494,2.175,2.175,0,1,0,3.8,2.121,3.154,3.154,0,0,0,.353-1.4,2.657,2.657,0,0,1,.119,2.824.544.544,0,1,0,.935.555l.014-.025A3.8,3.8,0,0,0,366.6,347.9Zm-1.041,2.6a1.088,1.088,0,0,1-1.9-1.051l0-.009a2.038,2.038,0,0,1,1.473-.958.553.553,0,0,1,.272.063C365.864,348.807,365.888,349.918,365.56,350.506Z" transform="translate(-360.294 -344.031)"/>
      </g>
    </g>
  </g>
</svg>
