<svg xmlns="http://www.w3.org/2000/svg" width="24.082" height="24.083" viewBox="0 0 24.082 24.083">
  <defs>
    <style>
      .cls-1 {
        fill: #00b584;
        stroke: #009C72;
      }
    </style>
  </defs>
  <g id="data-mining" transform="translate(-0.014)">
    <path id="Path_2410" data-name="Path 2410" class="cls-1" d="M16.993,9.877h2.822v8.56H16.993V15.943L12.76,13.121V9.877h2.822V0H8.527V9.877h2.822v3.244L7.116,15.943v2.494H4.294V9.877H7.116V0H.014V9.877H2.883v9.971H7.116v.942l4.939,3.292,4.939-3.292v-.942h4.233V9.877H24.1V0h-7.1ZM9.938,1.411h4.233V8.466H9.938Zm-8.513,0h4.28V8.466H1.425ZM12.055,18.3,9.094,16.321l2.961-1.974,2.961,1.974Zm-3.528-.656,2.822,1.881v2.4L8.527,20.035Zm4.233,4.278v-2.4l2.822-1.881v2.4ZM18.4,1.411h4.28V8.466H18.4Z"/>
    <path id="Path_2411" data-name="Path 2411" class="cls-1" d="M61.014,60h1.411v1.411H61.014Z" transform="translate(-58.131 -57.178)"/>
    <path id="Path_2412" data-name="Path 2412" class="cls-1" d="M61.014,120h1.411v1.411H61.014Z" transform="translate(-58.131 -114.356)"/>
    <path id="Path_2413" data-name="Path 2413" class="cls-1" d="M241.014,60h1.411v1.411h-1.411Z" transform="translate(-229.665 -57.178)"/>
    <path id="Path_2414" data-name="Path 2414" class="cls-1" d="M241.014,120h1.411v1.411h-1.411Z" transform="translate(-229.665 -114.356)"/>
    <path id="Path_2415" data-name="Path 2415" class="cls-1" d="M421.014,60h1.411v1.411h-1.411Z" transform="translate(-401.198 -57.178)"/>
    <path id="Path_2416" data-name="Path 2416" class="cls-1" d="M421.014,120h1.411v1.411h-1.411Z" transform="translate(-401.198 -114.356)"/>
  </g>
</svg>
