<svg xmlns="http://www.w3.org/2000/svg" width="94.5" height="84.78" viewBox="0 0 94.5 84.78">
  <defs>
    <style>
      .cls-1 {
        fill: #009C72;
        stroke: #009C72;
      }
    </style>
  </defs>
  <path id="devices" class="cls-1" d="M90.742,53.176V30.206a6.677,6.677,0,0,0-6.669-6.669H6.669A6.677,6.677,0,0,0,0,30.206V77a6.677,6.677,0,0,0,6.669,6.669H28.606l-2.511,2.7H22.332a1.549,1.549,0,1,0,0,3.1H43.881V104.4a3.917,3.917,0,0,0,3.913,3.913H64.441a3.917,3.917,0,0,0,3.913-3.913v-3.145H89.2a5.311,5.311,0,0,0,5.3-5.306v-37.7a5.315,5.315,0,0,0-3.758-5.075Zm.661,5.075v.423H55.788v-.423A2.212,2.212,0,0,1,58,56.043H89.2A2.211,2.211,0,0,1,91.4,58.252ZM64.441,71.335H55.788V61.772H91.4v30.66H68.354V75.248A3.917,3.917,0,0,0,64.441,71.335Zm.816,5.948H46.978V75.248a.817.817,0,0,1,.816-.816H64.441a.817.817,0,0,1,.816.816v2.035ZM87.645,31.755V52.945H58a5.312,5.312,0,0,0-5.306,5.306V71.335h-4.9a3.917,3.917,0,0,0-3.913,3.908H3.1V31.755H87.645ZM46.977,80.381H65.256V99.272H46.977ZM6.669,26.634h77.4a3.573,3.573,0,0,1,3.214,2.023H3.455a3.573,3.573,0,0,1,3.214-2.023ZM3.36,78.34h40.52v2.232H6.669A3.576,3.576,0,0,1,3.36,78.34Zm26.962,8.032,2.511-2.7H43.881v2.7ZM64.441,105.22H47.793a.817.817,0,0,1-.816-.816v-2.035H65.256V104.4A.817.817,0,0,1,64.441,105.22ZM89.2,98.162H68.354V95.529H91.4v.423A2.211,2.211,0,0,1,89.2,98.162Z" transform="translate(0 -23.537)"/>
</svg>
