<svg xmlns="http://www.w3.org/2000/svg" xmlns:xlink="http://www.w3.org/1999/xlink" width="160" height="124" viewBox="0 0 160 124">
  <defs>
    <style>
      .cls-1 {
        fill: #f5f5f5;
      }

      .cls-2 {
        fill: url(#linear-gradient);
      }

      .cls-13, .cls-3 {
        fill: #fff;
      }

      .cls-4 {
        fill: #ff5252;
      }

      .cls-5 {
        fill: #ff0;
      }

      .cls-6 {
        fill: #69f0ae;
      }

      .cls-7 {
        fill: #d7605c;
      }

      .cls-8 {
        fill: url(#linear-gradient-2);
      }

      .cls-9 {
        fill: url(#linear-gradient-3);
      }

      .cls-10 {
        fill: url(#linear-gradient-4);
      }

      .cls-11 {
        fill: url(#linear-gradient-5);
      }

      .cls-12 {
        fill: url(#linear-gradient-6);
      }

      .cls-13 {
        stroke: #fff;
        stroke-miterlimit: 10;
      }

      .cls-14 {
        opacity: 0.1;
      }

      .cls-15 {
        fill: #e0e0e0;
      }

      .cls-16 {
        fill: #bdbdbd;
      }

      .cls-17 {
        fill: url(#linear-gradient-7);
      }

      .cls-18 {
        fill: url(#linear-gradient-8);
      }

      .cls-19 {
        fill: url(#linear-gradient-9);
      }

      .cls-20 {
        fill: url(#linear-gradient-10);
      }

      .cls-21 {
        fill: #2196f3;
      }

      .cls-22 {
        fill: url(#linear-gradient-11);
      }

      .cls-23 {
        fill: url(#linear-gradient-12);
      }

      .cls-24 {
        fill: url(#linear-gradient-13);
      }

      .cls-25 {
        fill: url(#linear-gradient-14);
      }

      .cls-26 {
        fill: url(#linear-gradient-15);
      }

      .cls-27 {
        fill: url(#linear-gradient-16);
      }

      .cls-28 {
        fill: url(#linear-gradient-17);
      }

      .cls-29 {
        fill: url(#linear-gradient-18);
      }

      .cls-30 {
        fill: #64ffda;
      }
    </style>
    <linearGradient id="linear-gradient" x1="-0.409" y1="0.678" x2="-0.409" y2="-0.322" gradientUnits="objectBoundingBox">
      <stop offset="0" stop-color="gray" stop-opacity="0.251"/>
      <stop offset="0.54" stop-color="gray" stop-opacity="0.122"/>
      <stop offset="1" stop-color="gray" stop-opacity="0.102"/>
    </linearGradient>
    <linearGradient id="linear-gradient-2" x1="-6.068" y1="-0.993" x2="-6.068" y2="-1.96" gradientUnits="objectBoundingBox">
      <stop offset="0" stop-opacity="0.122"/>
      <stop offset="0.55" stop-opacity="0.09"/>
      <stop offset="1" stop-opacity="0.02"/>
    </linearGradient>
    <linearGradient id="linear-gradient-3" x1="-109.239" y1="-8.25" x2="-109.239" y2="-9.25" xlink:href="#linear-gradient-2"/>
    <linearGradient id="linear-gradient-4" x1="-16.486" y1="-4.127" x2="-16.486" y2="-5.127" xlink:href="#linear-gradient-2"/>
    <linearGradient id="linear-gradient-5" x1="-17.75" y1="-4.759" x2="-17.75" y2="-5.716" xlink:href="#linear-gradient-2"/>
    <linearGradient id="linear-gradient-6" x1="-14.648" y1="-3.726" x2="-14.648" y2="-4.581" xlink:href="#linear-gradient-2"/>
    <linearGradient id="linear-gradient-7" x1="-21.53" y1="-4.822" x2="-20.53" y2="-4.822" gradientUnits="objectBoundingBox">
      <stop offset="0" stop-opacity="0.09"/>
      <stop offset="0.55" stop-opacity="0.071"/>
      <stop offset="1" stop-opacity="0.02"/>
    </linearGradient>
    <linearGradient id="linear-gradient-8" x1="-21.343" y1="-3.326" x2="-20.343" y2="-3.326" xlink:href="#linear-gradient-7"/>
    <linearGradient id="linear-gradient-9" x1="-21.15" y1="-1.784" x2="-20.15" y2="-1.784" xlink:href="#linear-gradient-7"/>
    <linearGradient id="linear-gradient-10" x1="-22.873" y1="-4.629" x2="-21.873" y2="-4.629" xlink:href="#linear-gradient-7"/>
    <linearGradient id="linear-gradient-11" x1="-22.686" y1="-3.133" x2="-21.686" y2="-3.133" xlink:href="#linear-gradient-7"/>
    <linearGradient id="linear-gradient-12" x1="-22.493" y1="-1.591" x2="-21.493" y2="-1.591" xlink:href="#linear-gradient-7"/>
    <linearGradient id="linear-gradient-13" x1="0.5" y1="1" x2="0.5" y2="0" xlink:href="#linear-gradient"/>
    <linearGradient id="linear-gradient-14" x1="0.5" y1="1" x2="0.5" y2="0" xlink:href="#linear-gradient-2"/>
    <linearGradient id="linear-gradient-15" x1="0.502" y1="1" x2="0.502" y2="0" xlink:href="#linear-gradient-2"/>
    <linearGradient id="linear-gradient-16" x1="0.5" y1="1" x2="0.5" y2="0" xlink:href="#linear-gradient-2"/>
    <linearGradient id="linear-gradient-17" x1="0.5" y1="1" x2="0.5" y2="0" xlink:href="#linear-gradient-2"/>
    <linearGradient id="linear-gradient-18" x1="0.5" y1="1.001" x2="0.5" y2="0" xlink:href="#linear-gradient-2"/>
  </defs>
  <g id="Group_940" data-name="Group 940" transform="translate(-171 -1348)">
    <rect id="Rectangle_1829" data-name="Rectangle 1829" class="cls-1" width="138.681" height="68.439" transform="translate(171.952 1384.814) rotate(-15.27)"/>
    <rect id="Rectangle_1830" data-name="Rectangle 1830" class="cls-2" width="140.429" height="70.114" transform="translate(171 1384.985) rotate(-15.27)"/>
    <rect id="Rectangle_1831" data-name="Rectangle 1831" class="cls-3" width="138.681" height="61.488" transform="translate(173.77 1391.475) rotate(-15.27)"/>
    <circle id="Ellipse_454" data-name="Ellipse 454" class="cls-4" cx="1.738" cy="1.738" r="1.738" transform="translate(173.525 1385.628) rotate(-15.154)"/>
    <circle id="Ellipse_455" data-name="Ellipse 455" class="cls-5" cx="1.748" cy="1.748" r="1.748" transform="translate(178.924 1384.41) rotate(-15.27)"/>
    <circle id="Ellipse_456" data-name="Ellipse 456" class="cls-6" cx="1.748" cy="1.748" r="1.748" transform="translate(183.984 1383.034) rotate(-15.27)"/>
    <rect id="Rectangle_1832" data-name="Rectangle 1832" class="cls-7" width="36.512" height="61.567" transform="translate(173.748 1391.115) rotate(-15.27)"/>
    <path id="Path_2020" data-name="Path 2020" class="cls-8" d="M264.7,377.485a9.724,9.724,0,0,0-18.736,5.118,9.268,9.268,0,0,0,8.483,6.684l-.625-2.293a3.218,3.218,0,0,1,2.357-3.88h0a3.208,3.208,0,0,1,3.988,2.148l.625,2.293A9.283,9.283,0,0,0,264.7,377.485Z" transform="translate(-58.899 1024.884)"/>
    <rect id="Rectangle_1833" data-name="Rectangle 1833" class="cls-9" width="1.168" height="3.912" rx="0.584" transform="translate(196.329 1406.753) rotate(-15.27)"/>
    <ellipse id="Ellipse_457" data-name="Ellipse 457" class="cls-10" cx="3.733" cy="3.546" rx="3.733" ry="3.546" transform="translate(191.567 1401.266) rotate(-15.27)"/>
    <path id="Path_2021" data-name="Path 2021" class="cls-11" d="M292.559,438.264h0a3.231,3.231,0,0,0-2.357,3.88l.625,2.293a10.23,10.23,0,0,0,6.345-1.731l-.625-2.293A3.211,3.211,0,0,0,292.559,438.264Z" transform="translate(-95.289 969.706)"/>
    <path id="Path_2022" data-name="Path 2022" class="cls-12" d="M272.859,384.426a3.3,3.3,0,0,1-.854-1.615,2.342,2.342,0,0,1,.372-1.779,3.647,3.647,0,0,1,1.751-1.151c.664-.245,1.378-.4,2.02-.709a4.476,4.476,0,0,0,2.266-2.522,5.418,5.418,0,0,1,.4,1.51,1.914,1.914,0,0,1-.48,1.468c.48-.39.577.181.544.56.363.238,1.028.109,1.171.5a2.5,2.5,0,0,1,.181,1.226c-.063.415.292,1.022-.123,1.166" transform="translate(-80.439 1020.092)"/>
    <path id="Path_2023" data-name="Path 2023" class="cls-7" d="M264.256,370.568a9.226,9.226,0,1,0-9.628,11.63L254,379.9a3.133,3.133,0,0,1,2.19-3.836h0a3.133,3.133,0,0,1,3.836,2.19l.625,2.293A9.228,9.228,0,0,0,264.256,370.568Z" transform="translate(-59.291 1030.624)"/>
    <rect id="Rectangle_1834" data-name="Rectangle 1834" class="cls-13" width="1.11" height="3.912" rx="0.555" transform="translate(195.993 1405.443) rotate(-15.27)"/>
    <circle id="Ellipse_458" data-name="Ellipse 458" class="cls-13" cx="3.546" cy="3.546" r="3.546" transform="translate(191.382 1399.914) rotate(-15.27)"/>
    <path id="Path_2024" data-name="Path 2024" class="cls-13" d="M291.258,431.1h0a3.133,3.133,0,0,0-2.19,3.836l.624,2.293a9.26,9.26,0,0,0,6.026-1.646l-.625-2.293a3.133,3.133,0,0,0-3.834-2.19Z" transform="translate(-94.354 975.567)"/>
    <path id="Path_2025" data-name="Path 2025" class="cls-13" d="M271.907,377.311a3.444,3.444,0,0,1-.834-1.621,2.386,2.386,0,0,1,.332-1.768,3.284,3.284,0,0,1,1.655-1.126,17.535,17.535,0,0,0,1.916-.682,4.24,4.24,0,0,0,2.128-2.486,5.7,5.7,0,0,1,.4,1.51,1.923,1.923,0,0,1-.441,1.45c.453-.383.544.2.531.566.343.241.983.121,1.124.515a2.624,2.624,0,0,1,.194,1.224c-.056.413.292,1.022-.1,1.16" transform="translate(-79.672 1025.844)"/>
    <path id="Path_2026" data-name="Path 2026" class="cls-3" d="M305.24,385.244s2.444-.444,1.711,3.562" transform="translate(-107.684 1013.069)"/>
    <rect id="Rectangle_1835" data-name="Rectangle 1835" class="cls-14" width="36.512" height="30.685" transform="translate(181.763 1420.773) rotate(-15.27)"/>
    <rect id="Rectangle_1836" data-name="Rectangle 1836" class="cls-3" width="17.868" height="1.748" transform="translate(190.247 1425.363) rotate(-15.27)"/>
    <rect id="Rectangle_1837" data-name="Rectangle 1837" class="cls-3" width="22.141" height="1.748" transform="translate(191.321 1429.284) rotate(-15.27)"/>
    <rect id="Rectangle_1838" data-name="Rectangle 1838" class="cls-1" width="26.412" height="13.013" transform="translate(215.972 1383.654) rotate(-15.27)"/>
    <rect id="Rectangle_1839" data-name="Rectangle 1839" class="cls-15" width="26.412" height="13.013" transform="translate(219.298 1395.777) rotate(-15.27)"/>
    <rect id="Rectangle_1840" data-name="Rectangle 1840" class="cls-1" width="26.412" height="13.013" transform="translate(276.495 1367.26) rotate(-15.27)"/>
    <rect id="Rectangle_1841" data-name="Rectangle 1841" class="cls-15" width="26.412" height="13.013" transform="translate(279.821 1379.329) rotate(-15.27)"/>
    <rect id="Rectangle_1842" data-name="Rectangle 1842" class="cls-1" width="26.412" height="13.013" transform="translate(246.14 1375.454) rotate(-15.27)"/>
    <rect id="Rectangle_1843" data-name="Rectangle 1843" class="cls-15" width="26.412" height="13.013" transform="translate(249.464 1387.58) rotate(-15.27)"/>
    <rect id="Rectangle_1844" data-name="Rectangle 1844" class="cls-15" width="26.269" height="12.943" transform="translate(223.089 1411.91) rotate(-15.154)"/>
    <rect id="Rectangle_1845" data-name="Rectangle 1845" class="cls-16" width="26.412" height="13.013" transform="translate(227.072 1424.131) rotate(-15.27)"/>
    <rect id="Rectangle_1846" data-name="Rectangle 1846" class="cls-1" width="26.412" height="13.013" transform="translate(284.271 1395.558) rotate(-15.27)"/>
    <rect id="Rectangle_1847" data-name="Rectangle 1847" class="cls-16" width="26.412" height="13.013" transform="translate(287.596 1407.683) rotate(-15.27)"/>
    <rect id="Rectangle_1848" data-name="Rectangle 1848" class="cls-1" width="26.412" height="13.013" transform="translate(253.914 1403.808) rotate(-15.27)"/>
    <rect id="Rectangle_1849" data-name="Rectangle 1849" class="cls-16" width="26.412" height="13.013" transform="translate(257.24 1415.932) rotate(-15.27)"/>
    <ellipse id="Ellipse_459" data-name="Ellipse 459" class="cls-17" cx="2.913" cy="2.719" rx="2.913" ry="2.719" transform="translate(219.567 1393.095) rotate(-15.27)"/>
    <circle id="Ellipse_460" data-name="Ellipse 460" class="cls-7" cx="2.512" cy="2.512" r="2.512" transform="translate(219.359 1392.958) rotate(-15.154)"/>
    <ellipse id="Ellipse_461" data-name="Ellipse 461" class="cls-18" cx="2.913" cy="2.719" rx="2.913" ry="2.719" transform="translate(249.36 1384.994) rotate(-15.27)"/>
    <circle id="Ellipse_462" data-name="Ellipse 462" class="cls-7" cx="2.525" cy="2.525" r="2.525" transform="translate(249.735 1384.892) rotate(-15.27)"/>
    <ellipse id="Ellipse_463" data-name="Ellipse 463" class="cls-19" cx="2.913" cy="2.719" rx="2.913" ry="2.719" transform="translate(280.09 1376.637) rotate(-15.27)"/>
    <circle id="Ellipse_464" data-name="Ellipse 464" class="cls-7" cx="2.525" cy="2.525" r="2.525" transform="translate(280.464 1376.536) rotate(-15.27)"/>
    <ellipse id="Ellipse_465" data-name="Ellipse 465" class="cls-20" cx="2.913" cy="2.719" rx="2.913" ry="2.719" transform="translate(227.394 1421.648) rotate(-15.27)"/>
    <circle id="Ellipse_466" data-name="Ellipse 466" class="cls-21" cx="2.525" cy="2.525" r="2.525" transform="translate(227.769 1421.548) rotate(-15.27)"/>
    <ellipse id="Ellipse_467" data-name="Ellipse 467" class="cls-22" cx="2.913" cy="2.719" rx="2.913" ry="2.719" transform="translate(257.187 1413.547) rotate(-15.27)"/>
    <circle id="Ellipse_468" data-name="Ellipse 468" class="cls-21" cx="2.525" cy="2.525" r="2.525" transform="translate(257.56 1413.446) rotate(-15.27)"/>
    <ellipse id="Ellipse_469" data-name="Ellipse 469" class="cls-23" cx="2.913" cy="2.719" rx="2.913" ry="2.719" transform="translate(287.915 1405.191) rotate(-15.27)"/>
    <circle id="Ellipse_470" data-name="Ellipse 470" class="cls-21" cx="2.525" cy="2.525" r="2.525" transform="translate(288.29 1405.09) rotate(-15.27)"/>
    <rect id="Rectangle_1850" data-name="Rectangle 1850" class="cls-1" width="138.682" height="68.436" transform="translate(191.535 1401.974)"/>
    <rect id="Rectangle_1851" data-name="Rectangle 1851" class="cls-24" width="140.429" height="70.111" transform="translate(190.571 1401.889)"/>
    <rect id="Rectangle_1852" data-name="Rectangle 1852" class="cls-3" width="138.682" height="61.485" transform="translate(190.746 1408.521)"/>
    <circle id="Ellipse_471" data-name="Ellipse 471" class="cls-4" cx="1.748" cy="1.748" r="1.748" transform="translate(193.089 1403.803)"/>
    <circle id="Ellipse_472" data-name="Ellipse 472" class="cls-5" cx="1.748" cy="1.748" r="1.748" transform="translate(198.332 1403.803)"/>
    <circle id="Ellipse_473" data-name="Ellipse 473" class="cls-6" cx="1.748" cy="1.748" r="1.748" transform="translate(203.579 1403.803)"/>
    <rect id="Rectangle_1853" data-name="Rectangle 1853" class="cls-7" width="36.512" height="61.567" transform="translate(191.535 1408.8)"/>
    <path id="Path_2027" data-name="Path 2027" class="cls-25" d="M338.622,509.036a9.724,9.724,0,0,0-19.422,0,9.268,9.268,0,0,0,6.423,8.682v-2.377a3.218,3.218,0,0,1,3.289-3.124h0a3.216,3.216,0,0,1,3.289,3.124v2.377A9.27,9.27,0,0,0,338.622,509.036Z" transform="translate(-119.111 919.145)"/>
    <rect id="Rectangle_1854" data-name="Rectangle 1854" class="cls-26" width="1.168" height="3.912" rx="0.584" transform="translate(209.216 1429.926)"/>
    <ellipse id="Ellipse_474" data-name="Ellipse 474" class="cls-27" cx="3.733" cy="3.546" rx="3.733" ry="3.546" transform="translate(206.074 1423.377)"/>
    <path id="Path_2028" data-name="Path 2028" class="cls-28" d="M357.919,568.25h0a3.216,3.216,0,0,0-3.289,3.124v2.377a10.23,10.23,0,0,0,6.575,0v-2.377A3.218,3.218,0,0,0,357.919,568.25Z" transform="translate(-148.117 863.095)"/>
    <path id="Path_2029" data-name="Path 2029" class="cls-29" d="M350.171,515.331a3.3,3.3,0,0,1-.4-1.784,2.342,2.342,0,0,1,.827-1.617,3.576,3.576,0,0,1,1.994-.651,19.924,19.924,0,0,0,2.136-.152,4.476,4.476,0,0,0,2.85-1.836,5.42,5.42,0,0,1-.016,1.561,1.914,1.914,0,0,1-.85,1.289c.567-.248.506.335.383.685.281.323.964.375,1,.792a2.5,2.5,0,0,1-.143,1.233c-.172.384.013,1.062-.426,1.088" transform="translate(-144.135 911.406)"/>
    <path id="Path_2030" data-name="Path 2030" class="cls-7" d="M340.276,501.538a9.226,9.226,0,1,0-12.35,8.682v-2.373a3.133,3.133,0,0,1,3.124-3.124h0a3.133,3.133,0,0,1,3.133,3.124v2.377A9.228,9.228,0,0,0,340.276,501.538Z" transform="translate(-121.258 925.289)"/>
    <rect id="Rectangle_1855" data-name="Rectangle 1855" class="cls-13" width="1.11" height="3.912" rx="0.555" transform="translate(209.239 1428.571)"/>
    <circle id="Ellipse_475" data-name="Ellipse 475" class="cls-13" cx="3.546" cy="3.546" r="3.546" transform="translate(206.253 1422.022)"/>
    <path id="Path_2031" data-name="Path 2031" class="cls-13" d="M358.624,560.75h0a3.133,3.133,0,0,0-3.124,3.127v2.377a9.26,9.26,0,0,0,6.247,0v-2.377A3.133,3.133,0,0,0,358.624,560.75Z" transform="translate(-148.83 869.24)"/>
    <path id="Path_2032" data-name="Path 2032" class="cls-13" d="M351.262,507.841a3.445,3.445,0,0,1-.379-1.784,2.386,2.386,0,0,1,.787-1.617,3.28,3.28,0,0,1,1.893-.651,18.007,18.007,0,0,0,2.029-.152A4.241,4.241,0,0,0,358.3,501.8a5.7,5.7,0,0,1-.015,1.561,1.923,1.923,0,0,1-.809,1.289c.544-.248.48.335.363.685.266.323.906.375.948.792a2.623,2.623,0,0,1-.136,1.233c-.163.384.011,1.062-.4,1.088" transform="translate(-145.045 917.544)"/>
    <path id="Path_2033" data-name="Path 2033" class="cls-3" d="M388.39,517s2.475.216.712,3.889" transform="translate(-175.757 905.095)"/>
    <rect id="Rectangle_1856" data-name="Rectangle 1856" class="cls-14" width="36.512" height="30.685" transform="translate(191.437 1439.583)"/>
    <rect id="Rectangle_1857" data-name="Rectangle 1857" class="cls-3" width="17.868" height="1.748" transform="translate(198.432 1446.276)"/>
    <rect id="Rectangle_1858" data-name="Rectangle 1858" class="cls-16" width="17.868" height="1.748" transform="translate(241.744 1419.382)"/>
    <rect id="Rectangle_1859" data-name="Rectangle 1859" class="cls-15" width="63.896" height="1.748" transform="translate(241.747 1429.83)"/>
    <rect id="Rectangle_1860" data-name="Rectangle 1860" class="cls-15" width="63.896" height="1.748" transform="translate(241.747 1440.278)"/>
    <rect id="Rectangle_1861" data-name="Rectangle 1861" class="cls-30" width="17.868" height="1.748" transform="translate(241.744 1450.653)"/>
    <rect id="Rectangle_1862" data-name="Rectangle 1862" class="cls-1" width="17.868" height="1.748" transform="translate(264.663 1450.653)"/>
    <rect id="Rectangle_1863" data-name="Rectangle 1863" class="cls-30" width="17.868" height="1.748" transform="translate(287.778 1450.653)"/>
    <rect id="Rectangle_1864" data-name="Rectangle 1864" class="cls-3" width="22.141" height="1.748" transform="translate(198.432 1450.265)"/>
  </g>
</svg>
