<svg xmlns="http://www.w3.org/2000/svg" xmlns:xlink="http://www.w3.org/1999/xlink" width="160" height="119" viewBox="0 0 160 119">
  <defs>
    <style>
      .cls-1 {
        fill: url(#linear-gradient);
      }

      .cls-2 {
        fill: #fff;
      }

      .cls-3, .cls-7 {
        fill: #d7605c;
      }

      .cls-4 {
        fill: #bdbdbd;
      }

      .cls-5 {
        fill: #e0e0e0;
      }

      .cls-6 {
        fill: url(#linear-gradient-2);
      }

      .cls-7 {
        opacity: 0.1;
      }
    </style>
    <linearGradient id="linear-gradient" x1="0.5" y1="1.198" x2="0.5" y2="-0.168" gradientUnits="objectBoundingBox">
      <stop offset="0" stop-color="gray" stop-opacity="0.251"/>
      <stop offset="0.535" stop-color="gray" stop-opacity="0.122"/>
      <stop offset="1" stop-color="gray" stop-opacity="0.102"/>
    </linearGradient>
    <linearGradient id="linear-gradient-2" x1="0.5" y1="1" x2="0.5" y2="0" xlink:href="#linear-gradient"/>
  </defs>
  <g id="Group_942" data-name="Group 942" transform="translate(-1035 -1338)">
    <rect id="Rectangle_1726" data-name="Rectangle 1726" class="cls-1" width="126.358" height="77.172" rx="4" transform="translate(1035 1375.494) rotate(-17.261)"/>
    <rect id="Rectangle_1727" data-name="Rectangle 1727" class="cls-2" width="123.779" height="74.441" rx="6" transform="translate(1036.884 1375.749) rotate(-17.261)"/>
    <rect id="Rectangle_1728" data-name="Rectangle 1728" class="cls-3" width="123.796" height="10.677" transform="translate(1039.796 1385.123) rotate(-17.261)"/>
    <rect id="Rectangle_1729" data-name="Rectangle 1729" class="cls-4" width="31.454" height="4.617" transform="translate(1064.231 1430.702) rotate(-17.261)"/>
    <rect id="Rectangle_1730" data-name="Rectangle 1730" class="cls-5" width="54.539" height="4.617" transform="translate(1061.919 1423.262) rotate(-17.261)"/>
    <rect id="Rectangle_1731" data-name="Rectangle 1731" class="cls-6" width="127.087" height="77.258" rx="6" transform="translate(1067.913 1379.742)"/>
    <rect id="Rectangle_1732" data-name="Rectangle 1732" class="cls-2" width="123.796" height="74.451" rx="6" transform="translate(1069.356 1380.53)"/>
    <rect id="Rectangle_1733" data-name="Rectangle 1733" class="cls-5" width="3.607" height="10.244" transform="translate(1098.807 1416.676)"/>
    <rect id="Rectangle_1734" data-name="Rectangle 1734" class="cls-5" width="3.607" height="10.244" transform="translate(1103.423 1416.676)"/>
    <rect id="Rectangle_1735" data-name="Rectangle 1735" class="cls-5" width="3.607" height="10.244" transform="translate(1108.04 1416.676)"/>
    <rect id="Rectangle_1736" data-name="Rectangle 1736" class="cls-5" width="3.607" height="10.244" transform="translate(1116.119 1416.676)"/>
    <rect id="Rectangle_1737" data-name="Rectangle 1737" class="cls-5" width="3.607" height="10.244" transform="translate(1120.735 1416.676)"/>
    <rect id="Rectangle_1738" data-name="Rectangle 1738" class="cls-5" width="3.607" height="10.244" transform="translate(1125.352 1416.676)"/>
    <rect id="Rectangle_1739" data-name="Rectangle 1739" class="cls-5" width="3.607" height="10.244" transform="translate(1133.431 1416.676)"/>
    <rect id="Rectangle_1740" data-name="Rectangle 1740" class="cls-5" width="3.607" height="10.244" transform="translate(1138.047 1416.676)"/>
    <rect id="Rectangle_1741" data-name="Rectangle 1741" class="cls-5" width="3.607" height="10.244" transform="translate(1142.664 1416.676)"/>
    <rect id="Rectangle_1742" data-name="Rectangle 1742" class="cls-5" width="3.607" height="10.244" transform="translate(1150.743 1416.676)"/>
    <rect id="Rectangle_1743" data-name="Rectangle 1743" class="cls-5" width="3.607" height="10.244" transform="translate(1155.359 1416.676)"/>
    <rect id="Rectangle_1744" data-name="Rectangle 1744" class="cls-5" width="3.607" height="10.244" transform="translate(1159.976 1416.676)"/>
    <rect id="Rectangle_1745" data-name="Rectangle 1745" class="cls-3" width="21.507" height="11.794" transform="translate(1077.245 1400.041)"/>
    <rect id="Rectangle_1746" data-name="Rectangle 1746" class="cls-7" width="13.182" height="13.182" transform="translate(1160.832 1438.712)"/>
    <rect id="Rectangle_1747" data-name="Rectangle 1747" class="cls-7" width="13.182" height="13.182" transform="translate(1167.423 1438.712)"/>
  </g>
</svg>
