<svg xmlns="http://www.w3.org/2000/svg" xmlns:xlink="http://www.w3.org/1999/xlink" width="160" height="102" viewBox="0 0 160 102">
  <defs>
    <style>
      .cls-1, .cls-3 {
        fill: #6c63ff;
      }

      .cls-1, .cls-12, .cls-2, .cls-4 {
        opacity: 0.1;
      }

      .cls-10, .cls-4, .cls-6 {
        fill: #d7605c;
      }

      .cls-5 {
        fill: #fff;
      }

      .cls-7 {
        fill: #fa5959;
      }

      .cls-7, .cls-8, .cls-9 {
        opacity: 0.8;
      }

      .cls-8 {
        fill: #fed253;
      }

      .cls-9 {
        fill: #8ccf4d;
      }

      .cls-10, .cls-15 {
        opacity: 0.2;
      }

      .cls-11 {
        fill: none;
        stroke: #3f3d56;
        stroke-miterlimit: 10;
      }

      .cls-13 {
        fill: #46455b;
      }

      .cls-14 {
        fill: #a8a8a8;
      }

      .cls-16 {
        fill: url(#linear-gradient);
      }

      .cls-17 {
        fill: #65617d;
      }

      .cls-18 {
        opacity: 0.05;
      }

      .cls-19 {
        fill: #3f3d56;
      }

      .cls-20 {
        fill: #ee8e9e;
      }

      .cls-21 {
        fill: #e3e8f4;
      }

      .cls-22 {
        fill: #e6e8ec;
      }

      .cls-23 {
        fill: #565387;
      }
    </style>
    <linearGradient id="linear-gradient" x1="0.5" y1="1" x2="0.5" gradientUnits="objectBoundingBox">
      <stop offset="0" stop-color="gray" stop-opacity="0.251"/>
      <stop offset="0.54" stop-color="gray" stop-opacity="0.122"/>
      <stop offset="1" stop-color="gray" stop-opacity="0.102"/>
    </linearGradient>
  </defs>
  <g id="Group_938" data-name="Group 938" transform="translate(-603 -1112)">
    <ellipse id="Ellipse_322" data-name="Ellipse 322" class="cls-1" cx="27.837" cy="6.234" rx="27.837" ry="6.234" transform="translate(697.409 1201.531)"/>
    <g id="Group_411" data-name="Group 411" class="cls-2" transform="translate(693.596 1115.884)">
      <path id="Path_1597" data-name="Path 1597" class="cls-3" d="M673.12,122.89c0,22.632,14.2,40.944,31.751,40.944" transform="translate(-673.12 -122.89)"/>
    </g>
    <path id="Path_1598" data-name="Path 1598" class="cls-4" d="M139.015,154.815c-10.255.078-20.109-2.224-29.531-4.788S90.717,144.578,80.67,143.4c-6.468-.758-13.828-.639-18.912,2.3-4.892,2.83-6.34,7.468-7.055,11.749-.538,3.221-.8,6.6,1.093,9.531,1.307,2.034,3.566,3.7,5.16,5.641,5.546,6.74,2.106,15.415-3.393,22.382-2.579,3.269-5.6,6.4-7.552,9.856s-2.78,7.355-.839,10.737C51.1,218.95,55.483,221.356,60.2,223c9.586,3.325,20.758,3.987,31.637,4.2,24.082.468,48.226-.954,72.305-2.375a265.1,265.1,0,0,0,26.6-2.468c4.85-.784,9.845-1.934,13.3-4.406,4.385-3.138,5.317-8.22,2.174-11.85-5.272-6.087-19.278-7.15-23.047-13.75-2.074-3.633-.228-7.825,2.464-11.359,5.789-7.576,15.705-14.393,15.944-22.83.159-5.793-4.928-11.411-12.564-13.879-8.008-2.591-18.958-1.841-24.62,3.11C158.557,152.494,148.071,154.748,139.015,154.815Z" transform="translate(554.935 975.949)"/>
    <path id="Path_1599" data-name="Path 1599" class="cls-5" d="M336.73,100.622v75.16c0,2.236-2.157,4.06-4.819,4.06H229.928c-2.662,0-4.818-1.818-4.818-4.06v-75.16a4.853,4.853,0,0,1,4.818-4.522l101.97.248C334.556,96.348,336.73,98.382,336.73,100.622Z" transform="translate(403.522 1015.9)"/>
    <path id="Path_1600" data-name="Path 1600" class="cls-6" d="M336.73,100.645v3.48H225.11v-3.48a4.545,4.545,0,0,1,4.544-4.545H332.178A4.547,4.547,0,0,1,336.73,100.645Z" transform="translate(403.522 1015.9)"/>
    <circle id="Ellipse_323" data-name="Ellipse 323" class="cls-7" cx="1.606" cy="1.606" r="1.606" transform="translate(632.461 1114.405)"/>
    <circle id="Ellipse_324" data-name="Ellipse 324" class="cls-8" cx="1.606" cy="1.606" r="1.606" transform="translate(637.133 1114.405)"/>
    <circle id="Ellipse_325" data-name="Ellipse 325" class="cls-9" cx="1.606" cy="1.606" r="1.606" transform="translate(641.805 1114.405)"/>
    <rect id="Rectangle_1655" data-name="Rectangle 1655" class="cls-10" width="10.15" height="4.816" rx="2.408" transform="translate(669.246 1136.592)"/>
    <rect id="Rectangle_1656" data-name="Rectangle 1656" class="cls-10" width="10.15" height="4.816" rx="2.408" transform="translate(689.805 1136.592)"/>
    <path id="Path_1601" data-name="Path 1601" class="cls-11" d="M491.81,202.8l10.16,13.267,10.466-13.33" transform="translate(182.48 938.45)"/>
    <rect id="Rectangle_1657" data-name="Rectangle 1657" class="cls-12" width="15.517" height="7.364" rx="3.682" transform="translate(676.691 1154.024)"/>
    <rect id="Rectangle_1658" data-name="Rectangle 1658" class="cls-6" width="14.887" height="7.065" rx="3.532" transform="translate(677.007 1154.175)"/>
    <line id="Line_10" data-name="Line 10" class="cls-11" x1="0.132" y1="4.69" transform="translate(674.23 1131.932)"/>
    <path id="Path_1602" data-name="Path 1602" class="cls-11" d="M603.048,139.93l-5.964,4.461-6.273-4.461" transform="translate(97.831 992.229)"/>
    <rect id="Rectangle_1659" data-name="Rectangle 1659" class="cls-10" width="10.15" height="4.816" rx="2.408" transform="translate(669.189 1127.47)"/>
    <rect id="Rectangle_1660" data-name="Rectangle 1660" class="cls-10" width="10.15" height="4.816" rx="2.408" transform="translate(695.802 1127.47)"/>
    <rect id="Rectangle_1661" data-name="Rectangle 1661" class="cls-10" width="10.15" height="4.816" rx="2.408" transform="translate(683.568 1127.47)"/>
    <line id="Line_11" data-name="Line 11" class="cls-11" x1="0.039" y2="12.831" transform="translate(684.411 1161.172)"/>
    <path id="Path_1603" data-name="Path 1603" class="cls-11" d="M609.53,558.59Z" transform="translate(74.854 620.059)"/>
    <path id="Path_1604" data-name="Path 1604" class="cls-11" d="M462.42,466.921l14.353-4.441,14.411,4.409" transform="translate(207.609 716.149)"/>
    <rect id="Rectangle_1662" data-name="Rectangle 1662" class="cls-10" width="10.15" height="4.816" rx="2.408" transform="translate(679.337 1173.95)"/>
    <rect id="Rectangle_1663" data-name="Rectangle 1663" class="cls-10" width="10.15" height="4.816" rx="2.408" transform="translate(728.443 1145.214) rotate(90)"/>
    <rect id="Rectangle_1664" data-name="Rectangle 1664" class="cls-10" width="10.15" height="4.816" rx="2.408" transform="translate(723.627 1171.152) rotate(-90)"/>
    <rect id="Rectangle_1665" data-name="Rectangle 1665" class="cls-10" width="10.15" height="4.816" rx="2.408" transform="translate(693.716 1182.975)"/>
    <rect id="Rectangle_1666" data-name="Rectangle 1666" class="cls-10" width="10.15" height="4.816" rx="2.408" transform="translate(675.109 1187.793) rotate(180)"/>
    <rect id="Rectangle_1667" data-name="Rectangle 1667" class="cls-10" width="10.15" height="4.816" rx="2.408" transform="translate(689.74 1187.793) rotate(180)"/>
    <line id="Line_12" data-name="Line 12" class="cls-11" x2="4.518" y2="7.9" transform="translate(719.109 1158.156)"/>
    <line id="Line_13" data-name="Line 13" class="cls-11" x2="4.742" transform="translate(709.558 1158.083)"/>
    <line id="Line_14" data-name="Line 14" class="cls-11" x2="12.944" y2="0.381" transform="translate(691.891 1157.703)"/>
    <line id="Line_15" data-name="Line 15" class="cls-11" x1="4.496" y2="7.913" transform="translate(719.13 1150.26)"/>
    <rect id="Rectangle_1668" data-name="Rectangle 1668" class="cls-10" width="10.15" height="4.816" rx="2.408" transform="translate(709.649 1152.982) rotate(90)"/>
    <rect id="Rectangle_1669" data-name="Rectangle 1669" class="cls-10" width="10.15" height="4.816" rx="2.408" transform="translate(719.11 1153.107) rotate(90)"/>
    <rect id="Rectangle_1670" data-name="Rectangle 1670" class="cls-10" width="10.15" height="4.816" rx="2.408" transform="translate(645.275 1145.212) rotate(90)"/>
    <rect id="Rectangle_1671" data-name="Rectangle 1671" class="cls-10" width="10.15" height="4.816" rx="2.408" transform="translate(640.458 1171.152) rotate(-90)"/>
    <line id="Line_16" data-name="Line 16" class="cls-11" x1="4.519" y2="7.9" transform="translate(645.273 1158.156)"/>
    <line id="Line_17" data-name="Line 17" class="cls-11" x1="4.741" transform="translate(654.601 1158.083)"/>
    <line id="Line_18" data-name="Line 18" class="cls-11" x1="12.944" y2="0.381" transform="translate(664.067 1157.703)"/>
    <line id="Line_19" data-name="Line 19" class="cls-11" x2="4.496" y2="7.913" transform="translate(645.273 1150.26)"/>
    <rect id="Rectangle_1672" data-name="Rectangle 1672" class="cls-10" width="10.15" height="4.816" rx="2.408" transform="translate(664.069 1152.983) rotate(90)"/>
    <rect id="Rectangle_1673" data-name="Rectangle 1673" class="cls-10" width="10.15" height="4.816" rx="2.408" transform="translate(654.608 1153.107) rotate(90)"/>
    <path id="Path_1605" data-name="Path 1605" class="cls-13" d="M156.12,598c0,7.284,4.57,13.179,10.217,13.179" transform="translate(462.546 586.263)"/>
    <path id="Path_1606" data-name="Path 1606" class="cls-3" d="M226.59,610.3c0-7.367,5.1-13.327,11.4-13.327" transform="translate(402.287 587.144)"/>
    <path id="Path_1607" data-name="Path 1607" class="cls-6" d="M181.66,602.55c0,6.919,2.914,12.518,6.514,12.518" transform="translate(440.709 582.372)"/>
    <path id="Path_1608" data-name="Path 1608" class="cls-13" d="M226.59,588.468c0-9.412,5.895-17.028,13.179-17.028" transform="translate(402.286 608.978)"/>
    <ellipse id="Ellipse_326" data-name="Ellipse 326" class="cls-1" cx="2.54" cy="0.429" rx="2.54" ry="0.429" transform="translate(625.899 1198.984)"/>
    <path id="Path_1609" data-name="Path 1609" class="cls-14" d="M211.77,684.913a5.314,5.314,0,0,0,1.885-.355c.435-.31,2.228-.683,2.337-.184s2.175,2.481.541,2.494a13.865,13.865,0,0,1-4.236-.521C211.861,686.082,211.77,684.913,211.77,684.913Z" transform="translate(414.964 512.505)"/>
    <path id="Path_1610" data-name="Path 1610" class="cls-15" d="M216.563,691.3a13.821,13.821,0,0,1-4.236-.521c-.332-.2-.464-.927-.509-1.261h-.048s.091,1.169.528,1.434a13.867,13.867,0,0,0,4.236.521c.473,0,.635-.173.626-.421C217.1,691.206,216.915,691.3,216.563,691.3Z" transform="translate(414.964 507.897)"/>
    <path id="Path_1611" data-name="Path 1611" class="cls-16" d="M811.886,555.029l-4.012-5.817a5.5,5.5,0,0,0-.338-1.778c-.262-.338-.057-1.084-.057-1.084s.281-.412.038-.448-.038-.954-.038-.954l-.019-1.46a5.127,5.127,0,0,0,.038-1.74.554.554,0,0,1,.019-.6s.225-.8,0-1.015a6.039,6.039,0,0,1-.113-2.449,3.724,3.724,0,0,0-.393-1.7c0-.149-1.482-1.609-1.482-1.74a3.719,3.719,0,0,0-1.5-.824c-.562-.151-.844-.261-.825-.336s-.882-.374-.882-.374a1.768,1.768,0,0,1-1.087-.448c-.3-.393-1.218-.507-1.242-.51a.507.507,0,0,0-.017-.078l-.017-.084c.071-.119.136-.241.2-.367l.052-.115a1.594,1.594,0,0,0,.922-.29,1.261,1.261,0,0,0,.449-.9,1.972,1.972,0,0,0-.219-1,1.689,1.689,0,0,1-.323-1.051c.036-.158.13-.29.18-.451a1.187,1.187,0,0,0-.135-.886c-.145-.271-.339-.51-.5-.774a3.007,3.007,0,0,1-.4-1.093,1.725,1.725,0,0,0-.145-.6,1.106,1.106,0,0,0-.329-.332,3.284,3.284,0,0,0-2.015-.61,9.8,9.8,0,0,1-1.525.093,5.641,5.641,0,0,1-.892-.233,2.3,2.3,0,0,0-1.9.1c-.547.36-.766,1.067-1.137,1.621a12.9,12.9,0,0,0-1.058,1.419.047.047,0,0,1,.007-.03,1.782,1.782,0,0,0-.145.378,2.688,2.688,0,0,0,.083,1.24.874.874,0,0,0,.3.554,1.718,1.718,0,0,0,.655.129c-.009.036-.017.071-.025.107a4.277,4.277,0,0,0,2.972,4.995v.113a2.862,2.862,0,0,1-.02.322h0a6.55,6.55,0,0,0-2.391-.126c-.506.261-1.5.468-1.65.618s-.525.038-.863.916-.374,1.777-.806,2.188-.655.693-.674.992.055.374-.113.468-.412.486-.338.635a.532.532,0,0,1-.206.561.625.625,0,0,0-.263.561s-.113.412-.375.5-.435.712-.435.712l-.85.977-1.686-1.864a.71.71,0,0,0-1-.051l-.813.754a1.629,1.629,0,0,0-.828.493,2.176,2.176,0,0,0-.435.638l-.452.409a1.149,1.149,0,0,0-.116,1.27l1.079,1.195v.01a1.886,1.886,0,0,0-1.044.425c-1.612,1.421-1.631,2.73-1.387,3.335a24.471,24.471,0,0,0,2.286,2.9,9.137,9.137,0,0,0,2.9,2.365h0l-.012.013c-.035.036-.068.075-.1.117l-.028.036-.026.036-.03.045-.023.036-.033.054a.288.288,0,0,1-.02.036c-.013.023-.026.048-.038.072l-.013.025c-.016.032-.03.067-.046.1a.167.167,0,0,0-.015.038c0,.012-.02.049-.029.075l-.017.048c-.009.023-.016.048-.025.073s-.01.035-.016.054l-.022.081-.013.051c-.011.044-.02.089-.03.135l-.009.054a.822.822,0,0,1-.016.1c0,.033-.007.045-.01.068a.384.384,0,0,1-.012.093c-.012.032,0,.048-.007.071a.525.525,0,0,0,0,.107v.065a1.55,1.55,0,0,1-.007.181,10.381,10.381,0,0,0,.09,2.505,1.215,1.215,0,0,0,1,.747,1.289,1.289,0,0,0,.32-.017,18.582,18.582,0,0,1,4.068-.41,6.953,6.953,0,0,0,2.02-.164l.17-.033.116.373.371-.1.315.181.2.115c.37,1.254,1.872.826,1.872.826l.357.206,3.625.093a7.327,7.327,0,0,0,1.282.616,1.276,1.276,0,0,0,.181.039,8.319,8.319,0,0,0,1.007.019c.278,0,.493-.019.493-.019s-.038-.981-.09-2.082a30.038,30.038,0,0,0,3.35-.274,4.135,4.135,0,0,0,3.024-3.042,8.787,8.787,0,0,1,.188,1.16,8.488,8.488,0,0,0,.3,1.015,3.423,3.423,0,0,0,.413.748c1.425-.486.563-1.215.262-1.532s.206-.58.206-.58.394-.262.357-.506-.057-.5,1.218-.486S811.886,555.029,811.886,555.029Zm-19.8-11.942a8.664,8.664,0,0,0,.355,1.562,2.081,2.081,0,0,1,.042.616c-.755-.059-1.542-.093-1.542-.093a.181.181,0,0,1,.041.1l-.119-.028c-.055-.013-.113-.026-.172-.042l1.392-2.115Zm-2.755,4.386,1.3.207.11.017a4.391,4.391,0,0,0-.068.618c0,.019.029.042.071.07a1.7,1.7,0,0,0-.025.309,3.578,3.578,0,0,0,1.334.513c-.01.038-.02.073-.029.107h0c-.619-.326-1.595-.478-1.708-.725a24.558,24.558,0,0,0-3.423-1.4s-.122-.065-.331-.165l.87.165.241-.025a13.035,13.035,0,0,0,1.65.3Z" transform="translate(-70.282 650.416)"/>
    <path id="Path_1612" data-name="Path 1612" class="cls-17" d="M835.6,709.066s-.521,3.139-3.159,3.6-11.445.371-11.445.371-5.035-.725-6.856-4.979-2.991-5.944-1.431-6.021,9.978,2.843,10.461,2.881S836.066,698.456,835.6,709.066Z" transform="translate(-98.258 497.192)"/>
    <path id="Path_1613" data-name="Path 1613" class="cls-18" d="M835.6,709.066s-.521,3.139-3.159,3.6-11.445.371-11.445.371-5.035-.725-6.856-4.979-2.991-5.944-1.431-6.021,9.978,2.843,10.461,2.881S836.066,698.456,835.6,709.066Z" transform="translate(-98.258 497.192)"/>
    <path id="Path_1614" data-name="Path 1614" class="cls-19" d="M811.44,746.545a1.206,1.206,0,0,0,.986.742,1.275,1.275,0,0,0,.318-.017,18.342,18.342,0,0,1,4.032-.409,6.941,6.941,0,0,0,2-.162c.421-.08.725-.154.725-.154s-.742-2.465-.837-2.546-3.343-2.03-3.343-2.03l-2.579-.18h0a1.361,1.361,0,0,0-.87.513,2.754,2.754,0,0,0-.521,1.754A9.946,9.946,0,0,0,811.44,746.545Z" transform="translate(-97.71 463.205)"/>
    <path id="Path_1615" data-name="Path 1615" class="cls-18" d="M811.437,746.58a1.206,1.206,0,0,0,.986.742,10.719,10.719,0,0,1-.7-1.015l.013-1.8a3.174,3.174,0,0,1,1.015-2.675h-.01s-1.356.093-1.393,2.268A10.232,10.232,0,0,0,811.437,746.58Z" transform="translate(-97.705 463.171)"/>
    <path id="Path_1616" data-name="Path 1616" class="cls-12" d="M880.176,714.168l2.4-1.876,3.769-3.716s-.407-.02-1.022-.046c-.145.1-.58.4-.6.776-.017.455-1.015.032-1.54.29s-3.059,3.52-3.506,3.5-.8-.226-.984.09l-.013.02Z" transform="translate(-155.284 491.643)"/>
    <path id="Path_1617" data-name="Path 1617" class="cls-12" d="M815,742.3c.086.041.172.081.259.119a16.418,16.418,0,0,1,4.236,2.713,17.641,17.641,0,0,0,2.412,1.566c.421-.08.725-.154.725-.154s-.742-2.465-.837-2.546-3.343-2.03-3.343-2.03l-2.584-.18h0A1.362,1.362,0,0,0,815,742.3Z" transform="translate(-100.834 463.205)"/>
    <path id="Path_1618" data-name="Path 1618" class="cls-17" d="M779.431,686.428a24.858,24.858,0,0,0,2.268,2.879,8.877,8.877,0,0,0,3.1,2.453,16.447,16.447,0,0,1,4.236,2.713,19.448,19.448,0,0,0,2.581,1.666l.229.133.507.29.268.155s.622-.5,1.243-1,1.219-.995,1.229-1.015c.017-.055.26-.687.2-.725-.029-.019-.157-.277-.39-.58a2.647,2.647,0,0,0-.947-.783,2.686,2.686,0,0,1-1.227-1.279s-.081-.058-.2-.136a2.478,2.478,0,0,0-.836-.373c-.409-.051-1.17-.887-1.17-.887a2.3,2.3,0,0,1-.725-.761,25.824,25.824,0,0,0-3.343-2.571l6.985,4.487,1.672,1.074,2.4-1.876,3.77-3.716s-.508-.025-1.244-.056c-1.834-.08-5.089-.2-5.5-.112a3.108,3.108,0,0,1-1.015.067,3.587,3.587,0,0,1-1.541-.281c-.613-.323-1.58-.476-1.692-.715a25.128,25.128,0,0,0-3.4-1.393s-4.477-2.378-6.076-.966S779.191,685.834,779.431,686.428Z" transform="translate(-70.329 513.754)"/>
    <path id="Path_1619" data-name="Path 1619" class="cls-20" d="M879.67,582.08l.58,1.912.744,4.312,2.73.186.792-1.3.789-1.3s.492-1.74.845-3.427c.312-1.49.516-2.937.177-3.094-.3-.145-.5-.642-.629-1.182-.016-.067-.032-.135-.045-.2a10.709,10.709,0,0,1-.181-1.386s-5.722-.3-4.929,2.063a3.744,3.744,0,0,1,.216,1.254,3.163,3.163,0,0,1-.02.319A2.675,2.675,0,0,1,879.67,582.08Z" transform="translate(-156.13 604.609)"/>
    <path id="Path_1620" data-name="Path 1620" class="cls-21" d="M871.46,603.218l.206,3.25.464,2.769.52,1.282.464,7.014s4.48.518,5.57-.009a.482.482,0,0,0,.2-.155c1.315-1.986.884-7.742.884-7.742l.5-3.716-.335-1.928-.808-.087-.622-.065s-.145.173-.344.435c-.551.725-1.564,2.157-1.5,2.755.093.818-.112,1.653-.435,1.783s-.58.354-.631.13a1.052,1.052,0,0,1-.056-.594,4.917,4.917,0,0,0-.242-1.283,5.356,5.356,0,0,1-.464-1.616,1.893,1.893,0,0,0-.2-1.17c-.149-.13-.352-.259-.186-.854s-.732-1.747-.732-1.747Z" transform="translate(-149.111 583.01)"/>
    <path id="Path_1621" data-name="Path 1621" class="cls-12" d="M912.237,599.044l.187,5.556,1.073.594a.493.493,0,0,0,.2-.154c1.315-1.988.884-7.743.884-7.743l.5-3.716-.335-1.928-.807-.087c.312-1.49.516-2.937.177-3.094-.3-.145-.5-.642-.629-1.182h0l-.58,3.93s.048.355.065.725a2.071,2.071,0,0,1-.046.692,2.307,2.307,0,0,0-.038.929,7.468,7.468,0,0,0-.58,2.739C912.2,597.706,912.237,599.044,912.237,599.044Z" transform="translate(-183.97 595.305)"/>
    <path id="Path_1622" data-name="Path 1622" class="cls-19" d="M914.112,586.68s.937.116,1.234.507a1.742,1.742,0,0,0,1.077.445s.892.29.87.371.26.187.816.335a3.668,3.668,0,0,1,1.488.818c0,.13,1.474,1.579,1.474,1.728a3.694,3.694,0,0,1,.39,1.69,5.994,5.994,0,0,0,.112,2.434c.223.2,0,1,0,1a.548.548,0,0,0-.019.594,5.105,5.105,0,0,1-.036,1.728l.017,1.45s-.2.91.038.948-.038.447-.038.447-.2.742.057,1.077a5.446,5.446,0,0,1,.335,1.764L925.9,609.8s.057,1.058-1.208,1.041-1.245.241-1.208.483-.352.5-.352.5-.5.26-.2.58,1.151,1.041-.261,1.524a3.445,3.445,0,0,1-.409-.744,8.408,8.408,0,0,1-.3-1s-.13-1.412-.39-1.595-.223-1.077-.223-1.077.373-.725-.145-1.022-8.064-4.478-8.064-4.478l-.188-5.563s-.13-4.106.65-5.482a2.309,2.309,0,0,1,.038-.929,4.8,4.8,0,0,0-.019-1.412Z" transform="translate(-184.588 595.827)"/>
    <path id="Path_1623" data-name="Path 1623" class="cls-12" d="M847.4,600.79a6.446,6.446,0,0,0-2.371-.125c-.5.261-1.486.464-1.635.613s-.519.036-.854.91-.371,1.764-.8,2.175-.651.687-.67.984.057.371-.11.465-.409.483-.335.631,3.864,3.419,3.864,3.419a8.988,8.988,0,0,0,.354,1.562c.167.316-.186,4.663-.557,4.961s2.508.27,2.508.27.129-2.853.241-3a29.469,29.469,0,0,0-.074-3.19,18.126,18.126,0,0,1,.223-3.288,14.97,14.97,0,0,0,.215-2.972,6.148,6.148,0,0,1,.473-1.692C848.135,602.192,847.4,600.79,847.4,600.79Z" transform="translate(-122.737 583.947)"/>
    <path id="Path_1624" data-name="Path 1624" class="cls-19" d="M847.007,600.4a6.471,6.471,0,0,0-2.369-.125c-.5.26-1.482.463-1.63.607s-.52.038-.855.91-.371,1.766-.8,2.175-.65.687-.668.984.055.371-.112.464-.409.483-.335.632,3.868,3.424,3.868,3.424a8.842,8.842,0,0,0,.354,1.56c.168.316-.187,4.664-.558,4.961s2.508.27,2.508.27.13-2.852.242-3a29.474,29.474,0,0,0-.075-3.19,18.278,18.278,0,0,1,.223-3.288,14.98,14.98,0,0,0,.206-2.979,6.129,6.129,0,0,1,.473-1.69C847.739,601.8,847.007,600.4,847.007,600.4Z" transform="translate(-122.404 584.276)"/>
    <path id="Path_1625" data-name="Path 1625" class="cls-12" d="M885.239,578.582a3.746,3.746,0,0,1,.216,1.254,4.256,4.256,0,0,0,4.889-1.931,10.71,10.71,0,0,1-.181-1.386S884.44,576.222,885.239,578.582Z" transform="translate(-160.827 604.709)"/>
    <path id="Path_1626" data-name="Path 1626" class="cls-20" d="M866.21,545.468a4.255,4.255,0,1,0,.093-.884A4.255,4.255,0,0,0,866.21,545.468Z" transform="translate(-144.622 634.897)"/>
    <path id="Path_1627" data-name="Path 1627" class="cls-19" d="M825.388,638.49l-1.015.316a.526.526,0,0,1-.2.557.622.622,0,0,0-.259.558s-.112.409-.371.5-.428.706-.428.706l-.855.984s-.315.26-.26.39-.335.167-.335.167l.194,3.309,1.766.333,1.1-.112.892-.333.78-.465.354-.91,1.56-2.378Z" transform="translate(-106.529 551.634)"/>
    <path id="Path_1628" data-name="Path 1628" class="cls-20" d="M796.546,657.16s-2.268-3.271-3.958-1.5.687,4.626,1.245,4.534,3.214-.242,3.214-.242Z" transform="translate(-81.16 537.404)"/>
    <rect id="Rectangle_1674" data-name="Rectangle 1674" class="cls-19" width="11.864" height="9.212" rx="1.54" transform="translate(710.433 1187.796) rotate(27.04)"/>
    <rect id="Rectangle_1675" data-name="Rectangle 1675" class="cls-6" width="9.972" height="7.514" transform="translate(710.904 1188.97) rotate(27.04)"/>
    <circle id="Ellipse_327" data-name="Ellipse 327" class="cls-22" cx="0.164" cy="0.164" r="0.164" transform="translate(708.698 1192.104)"/>
    <circle id="Ellipse_328" data-name="Ellipse 328" class="cls-22" cx="0.27" cy="0.27" r="0.27" transform="translate(718.203 1196.792)"/>
    <path id="Path_1629" data-name="Path 1629" class="cls-20" d="M813.28,667.066c-.017,2.453,5.054,2.972,5.054,2.972l1.3.206.58.093.242-2.4s-.265-.039-.6-.116c-.492-.115-1.128-.313-1.261-.59C818.372,666.768,813.3,664.612,813.28,667.066Z" transform="translate(-99.363 528.081)"/>
    <path id="Path_1630" data-name="Path 1630" class="cls-12" d="M866.85,544.646a.5.5,0,0,1,.312.145c.145.152.145.422.338.515a.374.374,0,0,0,.222.026c.494-.07.78-.628,1.254-.781a1.257,1.257,0,0,1,.831.073.605.605,0,0,1,.275.175c.159.206.048.509.122.757.1.345.513.483.87.528a1.523,1.523,0,0,1,1,.339.909.909,0,0,1,.177.725.568.568,0,0,0,0,.265c.1.28.58.238.706.017.093-.159.065-.29.281-.336a.916.916,0,0,1,.455.078,3.343,3.343,0,0,0,1.176.18,4.255,4.255,0,1,0-8.013-2.694Z" transform="translate(-145.169 634.844)"/>
    <path id="Path_1631" data-name="Path 1631" class="cls-19" d="M866.074,533.833a.581.581,0,0,1,0-.267.91.91,0,0,0-.177-.725,1.547,1.547,0,0,0-1-.339c-.357-.049-.768-.183-.87-.528-.074-.248.038-.551-.122-.755a.6.6,0,0,0-.276-.177,1.257,1.257,0,0,0-.831-.072c-.474.154-.76.712-1.254.781a.374.374,0,0,1-.222-.026c-.187-.093-.194-.362-.338-.515-.226-.239-.654-.084-.931-.263a.861.861,0,0,1-.3-.549,2.68,2.68,0,0,1-.081-1.232c.161-.692.779-1.16,1.173-1.756.368-.549.58-1.245,1.127-1.611a2.246,2.246,0,0,1,1.885-.1,5.5,5.5,0,0,0,.883.231,9.653,9.653,0,0,0,1.512-.091,3.257,3.257,0,0,1,2,.606,1.11,1.11,0,0,1,.326.331,1.665,1.665,0,0,1,.145.592,3.016,3.016,0,0,0,.393,1.087c.155.261.352.5.493.768a1.186,1.186,0,0,1,.133.88c-.048.152-.145.29-.178.448a1.675,1.675,0,0,0,.32,1.044,1.963,1.963,0,0,1,.217.99,1.249,1.249,0,0,1-.447.89,1.6,1.6,0,0,1-.941.29,3.333,3.333,0,0,1-1.2-.184.916.916,0,0,0-.455-.078c-.216.043-.189.177-.281.336C866.653,534.069,866.172,534.111,866.074,533.833Z" transform="translate(-138.998 648.308)"/>
    <path id="Path_1632" data-name="Path 1632" class="cls-12" d="M878.357,714.878l2.4-1.876,3.77-3.716s-.507-.025-1.244-.057a.816.816,0,0,0-.264.508c-.017.454-1.015.032-1.54.29s-3.063,3.519-3.51,3.5-.8-.226-.984.09l-.013.02a.534.534,0,0,1-.29.168Z" transform="translate(-153.574 491.045)"/>
    <path id="Path_1633" data-name="Path 1633" class="cls-17" d="M854.93,707.178l1.2,3.845.188.6.58-.157,1.264-.348,5.631-1.547a4.873,4.873,0,0,0,2.03-.541,6.153,6.153,0,0,1,3.5-.763c.744.07,1.572-.251,2.259-1.521,0,0,1.56-4.608-2.379-5.927s-4.126.7-4.126.7l-.054.033c-.145.1-.58.4-.6.776-.017.455-1.015.032-1.54.29s-3.074,3.52-3.52,3.5-.8-.226-.984.09l-.013.02c-.138.19-.552.233-.825.242h-.258l-.035.01-.29.086Z" transform="translate(-134.979 498.614)"/>
    <path id="Path_1634" data-name="Path 1634" class="cls-12" d="M857.08,681.5l.58.093.242-2.4s-.265-.039-.6-.116A12.333,12.333,0,0,1,857.08,681.5Z" transform="translate(-136.814 516.823)"/>
    <path id="Path_1635" data-name="Path 1635" class="cls-12" d="M872.791,618.193s1.728-.5,1.3,4.4a13.674,13.674,0,0,1-3.625,8.007s-3.678,1.617-5.332,1.357a28.743,28.743,0,0,0-2.86-.316,4.2,4.2,0,0,0-1.673-.447,7.788,7.788,0,0,1-2.917-.8c-.038-.186.484-2.917.261-3.122a17.648,17.648,0,0,1,2.86.29c.26.183.632.054.91,0a3.167,3.167,0,0,1,2.824-.145,1.712,1.712,0,0,0,.8-.093.8.8,0,0,1,.58-.038,1.669,1.669,0,0,0,.4-.2c.055-.074.5,0,.5,0a.2.2,0,0,0,.278-.131,1.207,1.207,0,0,1,.26-.409s.5-2.824,1.45-3.883a.608.608,0,0,0,.2-.539C868.948,621.831,870.562,617.6,872.791,618.193Z" transform="translate(-137.335 568.932)"/>
    <path id="Path_1636" data-name="Path 1636" class="cls-19" d="M872.447,615.593s1.728-.5,1.3,4.4A13.675,13.675,0,0,1,870.127,628s-3.68,1.617-5.332,1.357-2.868-.316-2.868-.316a4.207,4.207,0,0,0-1.672-.447,7.778,7.778,0,0,1-2.917-.8c-.038-.186.483-2.917.26-3.121a17.687,17.687,0,0,1,2.862.29c.261.183.632.052.911,0a3.167,3.167,0,0,1,2.824-.145,1.713,1.713,0,0,0,.8-.093.8.8,0,0,1,.58-.038,1.635,1.635,0,0,0,.4-.2c.055-.074.5,0,.5,0a.2.2,0,0,0,.278-.13,1.247,1.247,0,0,1,.261-.409s.5-2.824,1.45-3.883a.6.6,0,0,0,.2-.539C868.6,619.231,870.217,615,872.447,615.593Z" transform="translate(-137.036 571.155)"/>
    <path id="Path_1637" data-name="Path 1637" class="cls-12" d="M869,742.567l2.453,2.969c.01-.009.016-.014.016-.017.019-.055.26-.687.2-.725a3.444,3.444,0,0,0-1.338-1.357,2.537,2.537,0,0,1-1.05-.957Z" transform="translate(-147.006 462.615)"/>
    <path id="Path_1638" data-name="Path 1638" class="cls-12" d="M868.917,759.184l.268.155s.622-.5,1.242-1,1.219-.995,1.229-1.015c.017-.055.259-.687.2-.725-.029-.019-.157-.277-.39-.58-1.664-.467-.6.689-.464.741a1.694,1.694,0,0,0-2.137,1.74A2.61,2.61,0,0,0,868.917,759.184Z" transform="translate(-146.891 451.136)"/>
    <path id="Path_1639" data-name="Path 1639" class="cls-19" d="M872.01,760.142l.354.2,3.585.093a7.252,7.252,0,0,0,1.27.61,1.1,1.1,0,0,0,.18.041,8.482,8.482,0,0,0,1,.019c.276,0,.487-.019.487-.019s-.17-4.523-.29-5c-.061-.228-.362-.177-.658-.064a4.346,4.346,0,0,0-.642.325,11.067,11.067,0,0,0-1.766.28c-.242.135-.928-.075-1.356,0s-1.189-.5-1.189-.5c-2.082-.687-.911.594-.763.65a1.693,1.693,0,0,0-2.136,1.74A1.433,1.433,0,0,0,872.01,760.142Z" transform="translate(-147.933 451.118)"/>
    <path id="Path_1640" data-name="Path 1640" class="cls-23" d="M919.13,758.392a6.053,6.053,0,0,0,1.2,2.714c.275,0,.487-.019.487-.019s-.17-4.523-.29-5c-.061-.228-.362-.177-.658-.064A5.151,5.151,0,0,0,919.13,758.392Z" transform="translate(-189.868 451.116)"/>
    <path id="Path_1641" data-name="Path 1641" class="cls-12" d="M919.13,758.392a6.053,6.053,0,0,0,1.2,2.714c.275,0,.487-.019.487-.019s-.17-4.523-.29-5c-.061-.228-.362-.177-.658-.064A5.151,5.151,0,0,0,919.13,758.392Z" transform="translate(-189.868 451.116)"/>
    <path id="Path_1642" data-name="Path 1642" class="cls-18" d="M914.554,758.517a10.572,10.572,0,0,0,.638,2.53,1.1,1.1,0,0,0,.18.041,8.485,8.485,0,0,0,1,.019c.275,0,.487-.019.487-.019s-.17-4.523-.29-5c-.061-.228-.362-.177-.658-.064a4.349,4.349,0,0,0-.642.325A2.491,2.491,0,0,0,914.554,758.517Z" transform="translate(-185.906 451.116)"/>
    <path id="Path_1643" data-name="Path 1643" class="cls-12" d="M829.58,710.55a7.429,7.429,0,0,1,3.291,2.633Z" transform="translate(-113.301 489.916)"/>
    <g id="Group_412" data-name="Group 412" class="cls-2" transform="translate(720.631 1177.097)">
      <path id="Path_1644" data-name="Path 1644" d="M928.983,556.77a.059.059,0,0,1-.01.041,1.547,1.547,0,0,1-.062.155A1.176,1.176,0,0,1,928.983,556.77Z" transform="translate(-918.862 -555.494)"/>
      <path id="Path_1645" data-name="Path 1645" d="M859.65,548.346a1.734,1.734,0,0,1,.145-.375c-.01.032-.019.064-.028.1a2.671,2.671,0,0,0,.083,1.231.861.861,0,0,0,.3.551c.277.177.7.023.931.262.145.145.145.422.338.515a.374.374,0,0,0,.222.026c.493-.07.78-.628,1.254-.781a1.257,1.257,0,0,1,.831.073.6.6,0,0,1,.275.177c.158.2.048.508.12.755.1.345.515.481.87.528a1.534,1.534,0,0,1,1,.339.908.908,0,0,1,.177.725.55.55,0,0,0,0,.265c.1.278.58.238.706.017.093-.159.064-.29.281-.338a.934.934,0,0,1,.455.08,3.372,3.372,0,0,0,1.2.18,1.6,1.6,0,0,0,.941-.29,1.094,1.094,0,0,0,.29-.351,1.19,1.19,0,0,1-.4.629,1.594,1.594,0,0,1-.941.29,3.334,3.334,0,0,1-1.2-.191.917.917,0,0,0-.455-.078c-.216.044-.188.177-.281.336-.126.22-.607.262-.706-.016a.583.583,0,0,1,0-.267.909.909,0,0,0-.177-.725,1.547,1.547,0,0,0-1-.339c-.357-.049-.768-.183-.87-.528-.074-.248.038-.551-.122-.755a.607.607,0,0,0-.275-.177,1.257,1.257,0,0,0-.831-.073c-.474.154-.761.712-1.254.781a.374.374,0,0,1-.222-.026c-.187-.093-.194-.362-.338-.515-.226-.239-.654-.084-.931-.262a.861.861,0,0,1-.3-.549A2.6,2.6,0,0,1,859.65,548.346Z" transform="translate(-859.608 -547.97)"/>
    </g>
    <path id="Path_1646" data-name="Path 1646" class="cls-12" d="M922.6,647.86c-.341.46-.725.884-1.031,1.37a2.579,2.579,0,0,0-.451,1.622,4.265,4.265,0,0,0,.651-1.16,17.055,17.055,0,0,1,1.25-1.885c.08-.119.593-.808.333-.841C923.134,646.942,922.712,647.7,922.6,647.86Z" transform="translate(-191.558 544.399)"/>
  </g>
</svg>
