<svg xmlns="http://www.w3.org/2000/svg" xmlns:xlink="http://www.w3.org/1999/xlink" width="65" height="124" viewBox="0 0 65 124">
  <defs>
    <style>
      .cls-1 {
        opacity: 0.9;
      }

      .cls-2, .cls-6 {
        fill: #3a3768;
      }

      .cls-3 {
        fill: #e6e8ec;
      }

      .cls-4 {
        fill: #6c63ff;
      }

      .cls-10, .cls-18, .cls-4 {
        opacity: 0.1;
      }

      .cls-5 {
        fill: #d7605c;
      }

      .cls-6 {
        opacity: 0.3;
      }

      .cls-7 {
        fill: #fff;
      }

      .cls-8 {
        fill: url(#linear-gradient);
      }

      .cls-9 {
        fill: #2d293d;
      }

      .cls-11 {
        fill: #464353;
      }

      .cls-12, .cls-13 {
        opacity: 0.05;
      }

      .cls-14 {
        fill: #ffcdd3;
      }

      .cls-15 {
        fill: #dce6f2;
      }

      .cls-16 {
        fill: #3f3d56;
      }

      .cls-17 {
        fill: #575988;
      }
    </style>
    <linearGradient id="linear-gradient" x1="0.501" y1="1" x2="0.501" gradientUnits="objectBoundingBox">
      <stop offset="0" stop-color="gray" stop-opacity="0.251"/>
      <stop offset="0.54" stop-color="gray" stop-opacity="0.122"/>
      <stop offset="1" stop-color="gray" stop-opacity="0.102"/>
    </linearGradient>
  </defs>
  <g id="Group_941" data-name="Group 941" transform="translate(-651 -1348)">
    <g id="Group_421" data-name="Group 421" class="cls-1" transform="translate(651 1348)">
      <rect id="Rectangle_1865" data-name="Rectangle 1865" class="cls-2" width="1.583" height="13.047" rx="0.792" transform="translate(52.644 24.422)"/>
      <rect id="Rectangle_1866" data-name="Rectangle 1866" class="cls-2" width="0.888" height="4.296" rx="0.444" transform="translate(0.032 14.195)"/>
      <rect id="Rectangle_1867" data-name="Rectangle 1867" class="cls-2" width="1.001" height="7.476" rx="0.5" transform="translate(0 22.064)"/>
      <rect id="Rectangle_1868" data-name="Rectangle 1868" class="cls-2" width="0.952" height="7.54" rx="0.476" transform="translate(0.016 32.158)"/>
      <rect id="Rectangle_1869" data-name="Rectangle 1869" class="cls-2" width="52.962" height="107.661" rx="8" transform="translate(0.536 0)"/>
      <rect id="Rectangle_1870" data-name="Rectangle 1870" class="cls-3" width="7.396" height="1.501" rx="0.75" transform="translate(21.907 3.213)"/>
      <ellipse id="Ellipse_476" data-name="Ellipse 476" class="cls-3" cx="0.852" cy="0.852" rx="0.852" ry="0.852" transform="translate(30.421 3.113)"/>
    </g>
    <ellipse id="Ellipse_478" data-name="Ellipse 478" class="cls-4" cx="16.739" cy="1.706" rx="16.739" ry="1.706" transform="translate(682.522 1468.587)"/>
    <path id="Path_2035" data-name="Path 2035" class="cls-5" d="M527.161,176.84h-5.794v.7a3.312,3.312,0,0,1-3.312,3.312H499.565a3.312,3.312,0,0,1-3.312-3.312v-.7h-5.442a4.021,4.021,0,0,0-4.022,4.023v89.544a4.022,4.022,0,0,0,4.022,4.023h36.349a4.023,4.023,0,0,0,4.023-4.023V180.863A4.023,4.023,0,0,0,527.161,176.84Z" transform="translate(168.916 1176.604)"/>
    <rect id="Rectangle_1871" data-name="Rectangle 1871" class="cls-6" width="13.943" height="13.943" transform="translate(681.643 1415.151)"/>
    <rect id="Rectangle_1872" data-name="Rectangle 1872" class="cls-6" width="13.943" height="13.943" transform="translate(661.013 1396.743)"/>
    <rect id="Rectangle_1873" data-name="Rectangle 1873" class="cls-6" width="13.943" height="13.943" transform="translate(662.359 1433.245)"/>
    <rect id="Rectangle_1874" data-name="Rectangle 1874" class="cls-7" width="13.943" height="13.943" transform="translate(658.846 1363.213)"/>
    <rect id="Rectangle_1875" data-name="Rectangle 1875" class="cls-7" width="13.943" height="13.943" transform="matrix(0.742, -0.671, 0.671, 0.742, 682.47, 1419.48)"/>
    <rect id="Rectangle_1876" data-name="Rectangle 1876" class="cls-7" width="13.943" height="13.943" transform="translate(681.411 1379.307)"/>
    <rect id="Rectangle_1877" data-name="Rectangle 1877" class="cls-7" width="13.943" height="13.943" transform="translate(663.717 1394.856)"/>
    <path id="Path_2094" data-name="Path 2094" class="cls-5" d="M661.141,357.793a3.28,3.28,0,0,1-.933.256,1.636,1.636,0,0,0,.715-.893,3.266,3.266,0,0,1-1.033.395,1.622,1.622,0,0,0-2.811,1.11,1.6,1.6,0,0,0,.041.372,4.6,4.6,0,0,1-3.348-1.7,1.631,1.631,0,0,0,.5,2.173,1.583,1.583,0,0,1-.738-.2v.02a1.628,1.628,0,0,0,1.3,1.6,1.69,1.69,0,0,1-.429.057,1.579,1.579,0,0,1-.306-.03,1.632,1.632,0,0,0,1.519,1.129,3.259,3.259,0,0,1-2.019.7,3.5,3.5,0,0,1-.388-.023,4.617,4.617,0,0,0,7.115-3.9v-.209A3.3,3.3,0,0,0,661.141,357.793Z" transform="translate(31.444 1025.974)"/>
    <path id="Path_2095" data-name="Path 2095" class="cls-5" d="M664.5,536.761l.536,1.345,3.5,3.711,1.172-1.1.738.781.781-.738.045-1.517.976-.922.079-2.657-3.132-3.32Zm7.058-.743-.045,1.519-1.172,1.1-.045,1.519-.736-.781-.977.922-3.14-3.322,3.711-3.5Z" transform="translate(22.187 881.998)"/>
    <path id="Path_2096" data-name="Path 2096" class="cls-5" d="M681.767,546.662l.586-.552,1.487,1.574-.586.55Zm-1.367,1.29.586-.554,1.485,1.576-.586.552Z" transform="translate(9.128 870.688)"/>
    <path id="Path_2097" data-name="Path 2097" class="cls-7" d="M274.01,676h-5.732a.357.357,0,0,0-.357.357v5.734a.357.357,0,0,0,.357.357h2.859V679.9h-.77v-.94h.784v-.7a1.224,1.224,0,0,1,1.32-1.285c.357,0,.74.027.827.039v.868h-.591c-.4,0-.482.191-.482.474v.6h.963l-.125.94h-.84v2.552h1.787a.357.357,0,0,0,.357-.357v-5.732A.357.357,0,0,0,274.01,676Z" transform="translate(398.22 760.795)"/>
    <path id="Path_2098" data-name="Path 2098" class="cls-5" d="M561.52,444.536a1.346,1.346,0,0,1,1.342,1.342v2.68a1.346,1.346,0,0,1-1.342,1.342h-2.68a1.348,1.348,0,0,1-.949-.393,1.331,1.331,0,0,1-.395-.949v-2.68a1.345,1.345,0,0,1,1.344-1.342h2.68m0-.536h-2.68a1.885,1.885,0,0,0-1.88,1.88v2.68a1.885,1.885,0,0,0,1.88,1.88h2.68a1.885,1.885,0,0,0,1.88-1.873v-2.68A1.887,1.887,0,0,0,561.52,444Z" transform="translate(110.442 954.549)"/>
    <path id="Path_2099" data-name="Path 2099" class="cls-5" d="M569.347,450.818a.4.4,0,1,1,.285-.117A.4.4,0,0,1,569.347,450.818Zm-1.739.263a1.072,1.072,0,1,1-1.072,1.072,1.072,1.072,0,0,1,1.072-1.072m0-.536a1.608,1.608,0,1,0,1.608,1.608A1.608,1.608,0,0,0,567.608,450.544Z" transform="translate(103.02 949.613)"/>
    <path id="Path_2100" data-name="Path 2100" class="cls-7" d="M1007.414,607.342a1.306,1.306,0,0,0-1.251-1.362c-.931-.045-1.878-.061-2.847-.061h-.3c-.967,0-1.917.016-2.846.061a1.306,1.306,0,0,0-1.24,1.365c-.043.6-.061,1.2-.059,1.787s.016,1.2.057,1.787a1.31,1.31,0,0,0,1.24,1.369c.975.045,1.978.064,3,.064s2.019-.018,3-.064a1.317,1.317,0,0,0,1.251-1.369c.039-.6.059-1.2.057-1.8s-.016-1.194-.055-1.787Zm-5.062,3.443v-3.3l2.434,1.647Z" transform="translate(-312.832 756.511)"/>
    <path id="Path_2101" data-name="Path 2101" class="cls-5" d="M532.6,260a3.752,3.752,0,0,0-1.508,7.2,3.338,3.338,0,0,1,.064-.863c.073-.306.484-2.049.484-2.049a1.43,1.43,0,0,1-.121-.593c0-.557.323-.974.725-.974a.5.5,0,0,1,.507.565,8.106,8.106,0,0,1-.332,1.333.581.581,0,0,0,.593.724c.715,0,1.192-.915,1.192-2a1.406,1.406,0,0,0-1.563-1.438,1.787,1.787,0,0,0-1.851,1.8,1.081,1.081,0,0,0,.248.738.179.179,0,0,1,.054.209c-.018.07-.059.236-.077.3a.13.13,0,0,1-.189.095,1.444,1.444,0,0,1-.77-1.43,2.479,2.479,0,0,1,2.68-2.348,2.25,2.25,0,0,1,2.38,2.153c0,1.474-.82,2.577-2.03,2.577a1.072,1.072,0,0,1-.917-.468s-.22.865-.266,1.033a3.1,3.1,0,0,1-.377.806,3.809,3.809,0,0,0,1.072.154,3.763,3.763,0,1,0,0-7.526Z" transform="translate(133.546 1105.662)"/>
    <path id="Path_2102" data-name="Path 2102" class="cls-8" d="M653.815,600.817c-.145-.613-.232-1.149-.232-1.149a2.381,2.381,0,0,0-.266-1.167v-.168h0V597.1a4.073,4.073,0,0,1,.311-.645,4.815,4.815,0,0,0,0-1.8,7.991,7.991,0,0,1-.624-3.268c.2-1.269-1.687-5.634-1.687-5.634a5.557,5.557,0,0,1,.179-1.251.9.9,0,0,0,.023-.261.189.189,0,0,0,0-.032v.011a9.712,9.712,0,0,0-.69-2.405l.089-2.987a8.8,8.8,0,0,0-.266-4.129c-.241-.826-.395-1.485-.493-2-.011-.057-.022-.113-.03-.166,1.417-.216,2.5-.4,2.5-.4s-.822-3.44-1.378-4.042a7.919,7.919,0,0,1-1-2.493s-.289-2.43.179-3.139a4.725,4.725,0,0,0,.536-1.935s1.072-.774,1.2-1.118a5.663,5.663,0,0,0,.357-1.526c0-.409-.134-.774-.089-.99s-.311-1.031-.132-1.419a1.04,1.04,0,0,0,.07-.373.029.029,0,0,0,0-.011h0a5.327,5.327,0,0,0-.095-1.01,2.858,2.858,0,0,0-1.054-.565l-.023-.091-.061-.241a.8.8,0,0,0-.105-.063v-.447l.166-.786c.329-1.363-1.494-1.567-1.494-1.567a.96.96,0,0,0-.516-.454c-.357-.129-.061,2.055.111,2.194a7.1,7.1,0,0,1,.715,1.126h0l.032.055a.735.735,0,0,0-.084.088l.07.474.011.073a1.944,1.944,0,0,0-.291.495,1.056,1.056,0,0,1,.266.776,2.427,2.427,0,0,0,.111.945c-.02-.023-.254-.277-.488-.214s-.893.257-.893.257-.49.086-.445.193-.332.581-.332.581l-1.313-1.251c-.014-.038-.027-.075-.039-.113a3.02,3.02,0,0,1-.113-.536,2.925,2.925,0,0,0,.418-.134.907.907,0,0,0,.357-.232,1.418,1.418,0,0,0,.211-.566,7.85,7.85,0,0,1,.488-1.086,3.533,3.533,0,0,0,.254-1.939,1.287,1.287,0,0,0-.2-.572c-.214-.295-.6-.415-.893-.65s-.465-.593-.8-.77a1.567,1.567,0,0,0-1-.086,5.325,5.325,0,0,0-1.86.675.957.957,0,0,1-.624.206.842.842,0,0,1-.448-.329.088.088,0,0,1,0-.02l-.016-.016a2.355,2.355,0,0,0-.2.983v.211a.393.393,0,0,1,0,.046h0a.315.315,0,0,1-.011.07.508.508,0,0,1-.122.179.791.791,0,0,0-.107.146.16.16,0,0,1,.018-.054.776.776,0,0,0-.138.413.412.412,0,0,0,.1.3,1.43,1.43,0,0,0,.213.179,2.5,2.5,0,0,0-.037.436,2.541,2.541,0,0,0,1.237,2.167l.045.113a3.125,3.125,0,0,1,.238,1.43.24.24,0,0,1-.016.105l-.046.054h0s-2.169.022-2.68-.441-1.288,1.129-1.288,1.129-.777.152-.933,0-1.072-.021-1.072-.021a1.965,1.965,0,0,0-1.354-.493,3.982,3.982,0,0,0-1-.554h0l-.025-.009h0a1.112,1.112,0,0,0-.49-.061,9.662,9.662,0,0,1-1.376-1.354c-.3-.472-1.787-2.228-1.8-2.237v-.084l-.018-.256a.982.982,0,0,1-.132.013.31.31,0,0,0-.03-.089,4.829,4.829,0,0,0-.314-.715s0-.322.095-.4a5.49,5.49,0,0,0-.039-1.263s-.961-2.246-1.821-.57c0,0-1.628,1.085-.263,2.35,0,0,.536.263.622.472.052.136.236.516.357.768l.055.113-.016.012.022.211v.082c-.257.145-.431.289-.39.4a2.353,2.353,0,0,1,.155.581,15.453,15.453,0,0,1,2.133,3.375s5.064,3.009,6.729,3.225l-.288,1.5a11.884,11.884,0,0,0-.066,1.226c.022.322-.2,1.787-.2,1.787a11.835,11.835,0,0,1-.536,2.45,4.1,4.1,0,0,0-.2,1.592,10.72,10.72,0,0,1-.332,1.826,4.639,4.639,0,0,0-.066,1.828s-.845,1.935,1.178.624c0,0,.992-.061,2.144-.1v.588c-.014,1.108-.021,2.636.029,3.792.089,2.042.715,6.075.715,6.075v2.03a2.838,2.838,0,0,0-.057.581,3.763,3.763,0,0,0,.547,2.033l.155,1.354a5.608,5.608,0,0,1,.372,1.429.7.7,0,0,1-.016.129.963.963,0,0,0-.018.207,11.616,11.616,0,0,0,.357,2.087s.023,1.483.245,1.569c.189.073-.254.856-.386,1.072a.339.339,0,0,1-.009-.043c-.016.029-.027.045-.027.045a1.043,1.043,0,0,0-.07.375.536.536,0,0,0,.247.522c.422.259.649.474.291.559a3.521,3.521,0,0,0-.391.082c0-.016-.014-.034-.02-.05a.239.239,0,0,0-.139.248,1.1,1.1,0,0,0,.134.5,5.351,5.351,0,0,0,.6,1.1l.179-.02a.844.844,0,0,1-.1.179.693.693,0,0,1-.25.222.8.8,0,0,1-.3.105.847.847,0,0,0-.629.306.657.657,0,0,0,.077,1.02l1.588.547s2.732.357,2.587-.257-.232-1.149-.232-1.149a2.425,2.425,0,0,0-.223-1.088,1.067,1.067,0,0,0-.1-.161l.1-.011a4.982,4.982,0,0,1,.466-1.608c.062-.059.077-.105.061-.141.029-.073-.041-.116-.13-.141l-.02.054a1.346,1.346,0,0,0-.264-.029s-.089-.715.2-.969a.273.273,0,0,0,.057-.211,1.217,1.217,0,0,0-.03-.289l-.011.018a10.315,10.315,0,0,0-.638-1.667,2.063,2.063,0,0,1,.155-.9,22.889,22.889,0,0,0-.021-3.5,10.622,10.622,0,0,0-.134-2.3,2.581,2.581,0,0,1,.245-1.592v-.057s-.011-.1-.027-.248v.016c-.045-.416-.129-1.169-.191-1.515-.089-.5.021-2.859.021-2.859l.4-1.01.715,1.74.754,2.323a1.975,1.975,0,0,1,.384.986c0,.025,0,.05,0,.073a1.2,1.2,0,0,0,0,.156,1.387,1.387,0,0,0,.231.827,3.6,3.6,0,0,0,.511,1.376,1.239,1.239,0,0,1,.311.817,13.63,13.63,0,0,0,.556,1.871,2.741,2.741,0,0,1,.155,1.072h0v.059s.052.568.05,1.047v.166a1.671,1.671,0,0,1-.046.386v-.057a3.972,3.972,0,0,0-.114.992,2.537,2.537,0,0,0,.424,1.646c.6.688.977.6.977.6s-.289.859-.645,1.033a.215.215,0,0,0-.037.023.1.1,0,0,0-.009-.05.42.42,0,0,0-.1.322,2.3,2.3,0,0,0,.44,1.274.7.7,0,0,0,.3.179l-.055.034a1.248,1.248,0,0,1-.123.059.583.583,0,0,1-.179.046.847.847,0,0,0-.629.306.657.657,0,0,0,.077,1.02l1.589.547S653.952,601.439,653.815,600.817Z" transform="translate(51.787 868.955)"/>
    <path id="Path_2103" data-name="Path 2103" class="cls-9" d="M703.488,834.347l-1.539-.547a.668.668,0,0,1-.073-1.02.809.809,0,0,1,.608-.306.751.751,0,0,0,.295-.105.7.7,0,0,0,.243-.222,1.132,1.132,0,0,0,.179-.6s1.688-.493,2.144,0a1.269,1.269,0,0,1,.206.3,2.5,2.5,0,0,1,.214,1.088s.086.536.225,1.149S703.488,834.347,703.488,834.347Z" transform="translate(-8.329 636.44)"/>
    <path id="Path_2104" data-name="Path 2104" class="cls-9" d="M745.6,830.143l-1.537-.547a.665.665,0,0,1-.075-1.018.808.808,0,0,1,.609-.307.557.557,0,0,0,.179-.046.92.92,0,0,0,.118-.059.973.973,0,0,0,.42-.817s1.687-.5,2.144,0a1.193,1.193,0,0,1,.161.22,2.454,2.454,0,0,1,.259,1.169s.086.536.225,1.149S745.6,830.143,745.6,830.143Z" transform="translate(-42.891 639.893)"/>
    <path id="Path_2105" data-name="Path 2105" class="cls-10" d="M711.545,831.55a1.264,1.264,0,0,1,.206.3h0l-2.53.293a1.13,1.13,0,0,0,.179-.6S711.084,831.057,711.545,831.55Z" transform="translate(-14.528 636.442)"/>
    <path id="Path_2106" data-name="Path 2106" class="cls-10" d="M752.158,827.512v.474c-.393.649-2.3.507-2.848.179a.9.9,0,0,0,.118-.059.972.972,0,0,0,.42-.817s1.687-.495,2.144,0A1.2,1.2,0,0,1,752.158,827.512Z" transform="translate(-47.43 639.942)"/>
    <path id="Path_2107" data-name="Path 2107" class="cls-11" d="M707.862,702.643a4.211,4.211,0,0,0-.3.645v1.7c-.429.715-2.666.474-2.966.086s-.624-1.4-.281-1.569.624-1.033.624-1.033-.357.086-.945-.6a3.523,3.523,0,0,1-.3-2.58,7.647,7.647,0,0,0,0-1.59,3.2,3.2,0,0,0-.15-1.14,14.207,14.207,0,0,1-.536-1.871,1.27,1.27,0,0,0-.3-.817,3.7,3.7,0,0,1-.5-1.376,1.411,1.411,0,0,1-.214-.924,1.881,1.881,0,0,0-.366-1.119l-.731-2.323-.688-1.742-.386,1.01s-.109,2.366-.021,2.859.214,1.8.214,1.8a2.648,2.648,0,0,0-.236,1.592,10.876,10.876,0,0,1,.129,2.3,23.619,23.619,0,0,1,.021,3.506,2.075,2.075,0,0,0-.15.893s.881,1.892.6,2.144-.193.969-.193.969.6,0,.345.257a5.153,5.153,0,0,0-.452,1.608l-2.6.329a5.5,5.5,0,0,1-.582-1.1c-.343-.8.064-.715.411-.8s.127-.3-.282-.559-.179-.838-.179-.838.624-1.054.409-1.14-.238-1.569-.238-1.569a9.624,9.624,0,0,1-.322-2.235,4.29,4.29,0,0,0-.345-1.608l-.15-1.354a3.723,3.723,0,0,1-.465-2.562v-2.092s-.6-4.042-.69-6.075c-.054-1.308-.039-3.093-.021-4.208.011-.624.021-1.038.021-1.038l9.292-.967a7.7,7.7,0,0,0,.17,1.379c.095.509.243,1.17.475,2a9.077,9.077,0,0,1,.259,4.128l-.086,2.988a7.612,7.612,0,0,1,.645,2.68,5.67,5.67,0,0,0-.179,1.251s1.828,4.365,1.635,5.634a8.139,8.139,0,0,0,.6,3.259A5,5,0,0,1,707.862,702.643Z" transform="translate(-2.838 762.769)"/>
    <path id="Path_2108" data-name="Path 2108" class="cls-12" d="M737.22,753.707l2.82-.377S738.446,754.963,737.22,753.707Z" transform="translate(-37.507 700.505)"/>
    <path id="Path_2109" data-name="Path 2109" class="cls-10" d="M748.385,737.87s.1,1-.515,1.376C747.87,739.246,748.965,739.074,748.385,737.87Z" transform="translate(-46.254 713.203)"/>
    <path id="Path_2110" data-name="Path 2110" class="cls-10" d="M734.455,720.06s-2.362,1.946-3.216,1.787S734.455,720.06,734.455,720.06Z" transform="translate(-32.5 727.83)"/>
    <path id="Path_2111" data-name="Path 2111" class="cls-10" d="M709.1,760.55s-1.787.409-1.848,1.129S709.1,760.55,709.1,760.55Z" transform="translate(-12.914 694.575)"/>
    <path id="Path_2112" data-name="Path 2112" class="cls-12" d="M710.874,810.72s-2.536.473-1.815.8a12.284,12.284,0,0,0,1.9.579S711.778,812.139,710.874,810.72Z" transform="translate(-14.289 653.37)"/>
    <g id="Group_422" data-name="Group 422" class="cls-13" transform="translate(692.162 1441.176)">
      <path id="Path_2113" data-name="Path 2113" d="M705.287,816.308a.5.5,0,0,1-.232-.368l-.025.046s-.238.579.179.838c.046.029.091.059.132.088.075-.014.157-.025.234-.045C705.914,816.789,705.7,816.572,705.287,816.308Z" transform="translate(-703.174 -792.093)"/>
      <path id="Path_2114" data-name="Path 2114" d="M724.515,815.043c.07-.064.066-.23.025-.443a1.2,1.2,0,0,0-.145.624A.477.477,0,0,1,724.515,815.043Z" transform="translate(-719.134 -790.992)"/>
      <path id="Path_2115" data-name="Path 2115" d="M722.059,757.22a2.956,2.956,0,0,0-.179.79,3.107,3.107,0,0,1,.2-.536A1.6,1.6,0,0,0,722.059,757.22Z" transform="translate(-717.069 -743.865)"/>
      <path id="Path_2116" data-name="Path 2116" d="M755.176,749.816a1.021,1.021,0,0,0,.023-.236c-.032.161-.054.311-.07.441C755.144,749.953,755.159,749.885,755.176,749.816Z" transform="translate(-744.378 -737.59)"/>
      <path id="Path_2117" data-name="Path 2117" d="M722.269,797.807a1.351,1.351,0,0,0,.064-.477,1.573,1.573,0,0,0-.123.6A.572.572,0,0,1,722.269,797.807Z" transform="translate(-717.34 -776.808)"/>
      <path id="Path_2118" data-name="Path 2118" d="M708.543,822.68a8.6,8.6,0,0,0-.295,1.32l-2.6.3a5.385,5.385,0,0,1-.582-1.1,1.9,1.9,0,0,1-.073-.189c-.155.071-.218.232-.012.715a5.328,5.328,0,0,0,.582,1.1l2.6-.3a5.128,5.128,0,0,1,.452-1.608C708.739,822.778,708.659,822.714,708.543,822.68Z" transform="translate(-703.082 -797.629)"/>
      <path id="Path_2119" data-name="Path 2119" d="M696.983,703.67s.021,1.485.236,1.571h0c.109-.245.179-.477.084-.516-.214-.086-.236-1.569-.236-1.569a9.529,9.529,0,0,1-.322-2.237,4.245,4.245,0,0,0-.345-1.608l-.15-1.354a3.731,3.731,0,0,1-.473-2.559v-2.089s-.6-4.042-.688-6.084c-.055-1.308-.039-3.093-.021-4.208v-.536h-.073s-.011.413-.021,1.038c-.018,1.113-.034,2.9.021,4.208.086,2.042.688,6.084.688,6.084V695.9a3.718,3.718,0,0,0,.484,2.58l.15,1.354a4.272,4.272,0,0,1,.343,1.608A9.489,9.489,0,0,0,696.983,703.67Z" transform="translate(-694.956 -682.48)"/>
      <path id="Path_2120" data-name="Path 2120" d="M746.771,823.812a2.5,2.5,0,0,1-.411-1.022c-.266.239.039,1.17.325,1.538s2.537.624,2.968-.088v-.409A3.091,3.091,0,0,1,746.771,823.812Z" transform="translate(-737.091 -797.719)"/>
      <path id="Path_2121" data-name="Path 2121" d="M766.04,814.82a4.284,4.284,0,0,0-.3.645v.3c.048-.111.118-.257.214-.431a1.3,1.3,0,0,0,.095-.536Z" transform="translate(-753.092 -791.157)"/>
      <path id="Path_2122" data-name="Path 2122" d="M744.214,802.207a4.105,4.105,0,0,0,.213-.511s-.357.086-.947-.6a3.066,3.066,0,0,1-.386-2.064,3.559,3.559,0,0,0,.3,2.58A1.515,1.515,0,0,0,744.214,802.207Z" transform="translate(-734.402 -778.204)"/>
      <path id="Path_2123" data-name="Path 2123" d="M726.147,735.816a11.789,11.789,0,0,1,.043,1.274c.014-.084.03-.152.043-.2a7.54,7.54,0,0,0,0-1.59,3.2,3.2,0,0,0-.15-1.14,14.127,14.127,0,0,1-.536-1.871,1.27,1.27,0,0,0-.3-.817,3.7,3.7,0,0,1-.5-1.376,1.41,1.41,0,0,1-.216-.924,1.884,1.884,0,0,0-.357-1.119l-.731-2.323-.7-1.731-.388,1.01s0,.127-.013.327l.314-.82.688,1.74.731,2.323a1.839,1.839,0,0,1,.357,1.117,1.413,1.413,0,0,0,.223.915,3.693,3.693,0,0,0,.493,1.376,1.276,1.276,0,0,1,.3.817,13.167,13.167,0,0,0,.536,1.871A3.062,3.062,0,0,1,726.147,735.816Z" transform="translate(-717.455 -716.581)"/>
    </g>
    <path id="Path_2124" data-name="Path 2124" class="cls-14" d="M743.974,559.517l-.161.786.009.357v.257l-.893.093-.1-.179h0a7.6,7.6,0,0,0-.7-1.126c-.166-.139-.461-2.323-.107-2.193a.936.936,0,0,1,.5.452S744.292,558.152,743.974,559.517Z" transform="translate(-41.316 861.327)"/>
    <path id="Path_2125" data-name="Path 2125" class="cls-10" d="M748.323,574.909l-.893.093-.1-.179h0a.79.79,0,0,1,.99-.163Z" transform="translate(-45.81 847.327)"/>
    <path id="Path_2126" data-name="Path 2126" class="cls-15" d="M748.294,575.692l-1.181.275-.025-.179-.068-.474a.813.813,0,0,1,1.145-.157l.059.241Z" transform="translate(-45.555 846.969)"/>
    <path id="Path_2127" data-name="Path 2127" class="cls-14" d="M633.745,551.9l-1.262.679-.114-.24c-.122-.252-.3-.631-.357-.766-.075-.209-.6-.474-.6-.474a1.455,1.455,0,0,1,.252-2.348c.834-1.678,1.764.568,1.764.568a5.709,5.709,0,0,1,.038,1.263c-.091.079-.091.4-.091.4a4.9,4.9,0,0,1,.306.715C633.725,551.824,633.745,551.9,633.745,551.9Z" transform="translate(49.769 869.032)"/>
    <path id="Path_2128" data-name="Path 2128" class="cls-10" d="M640.586,568.315l-1.261.679-.114-.24c.179-.148.81-.661,1.017-.638a1.468,1.468,0,0,0,.3,0C640.566,568.241,640.586,568.315,640.586,568.315Z" transform="translate(42.931 852.615)"/>
    <path id="Path_2129" data-name="Path 2129" class="cls-15" d="M640.887,569.091l-1.419.7-.029-.306-.02-.209s.822-.706,1.072-.679a1.317,1.317,0,0,0,.372,0l.016.256Z" transform="translate(42.758 852.221)"/>
    <path id="Path_2130" data-name="Path 2130" class="cls-14" d="M710.66,575.885s-6.188.7-5.032.323a1.553,1.553,0,0,0,1.194-1.342,3.268,3.268,0,0,0-.231-1.429,6.212,6.212,0,0,0-.554-1.119s4.73-2.6,3.785-.236a3.707,3.707,0,0,0-.268,1.12,3.161,3.161,0,0,0,.12,1.133A3.379,3.379,0,0,0,710.66,575.885Z" transform="translate(-11.456 850.173)"/>
    <path id="Path_2131" data-name="Path 2131" class="cls-10" d="M712.365,572.082a3.713,3.713,0,0,0-.268,1.12,2.189,2.189,0,0,1-1.562.357,2.791,2.791,0,0,1-1.4-.114,6.215,6.215,0,0,0-.554-1.119S713.31,569.717,712.365,572.082Z" transform="translate(-13.999 850.172)"/>
    <ellipse id="Ellipse_484" data-name="Ellipse 484" class="cls-14" cx="2.559" cy="2.559" rx="2.559" ry="2.559" transform="translate(693.894 1418.771)"/>
    <path id="Path_2132" data-name="Path 2132" class="cls-10" d="M710.66,589.578s-6.188.7-5.032.323a1.553,1.553,0,0,0,1.194-1.342,3.358,3.358,0,0,1,1.324-.7,1.846,1.846,0,0,1,1.12-.018,1.493,1.493,0,0,1,.407.179A3.379,3.379,0,0,0,710.66,589.578Z" transform="translate(-11.456 836.48)"/>
    <path id="Path_2133" data-name="Path 2133" class="cls-10" d="M748.606,577.382l-1.181.275-.025-.179a1.043,1.043,0,0,1,1.136-.39Z" transform="translate(-45.867 845.28)"/>
    <path id="Path_2134" data-name="Path 2134" class="cls-10" d="M640.977,570.269l-1.419.7-.029-.306a10.438,10.438,0,0,1,1.429-.632Z" transform="translate(42.668 851.043)"/>
    <path id="Path_2135" data-name="Path 2135" class="cls-10" d="M704.579,678.849a38.855,38.855,0,0,1-6.349.706,15.707,15.707,0,0,0-3.131-.08c.011-.624.021-1.038.021-1.038l9.292-.967a7.684,7.684,0,0,0,.166,1.379Z" transform="translate(-2.922 762.804)"/>
    <path id="Path_2136" data-name="Path 2136" class="cls-16" d="M659.607,590.382s-7.891,1.354-8.738,1.1a33.739,33.739,0,0,0-5.194.023c-1.957,1.31-1.138-.624-1.138-.624a4.662,4.662,0,0,1,.064-1.828,11.208,11.208,0,0,0,.322-1.828,4.259,4.259,0,0,1,.193-1.59,12.281,12.281,0,0,0,.516-2.452s.216-1.462.195-1.787.064-1.224.064-1.224l.279-1.506c-1.608-.214-6.515-3.225-6.515-3.225a15.541,15.541,0,0,0-2.064-3.375,2.476,2.476,0,0,0-.15-.581c-.129-.343,1.807-1.031,1.807-1.031s1.44,1.764,1.74,2.235a9.841,9.841,0,0,0,1.333,1.354,1.042,1.042,0,0,1,.474.063h.025a3.819,3.819,0,0,1,.961.552,1.865,1.865,0,0,1,1.312.5s.883-.129,1.033.021.893,0,.893,0,.754-1.59,1.251-1.129,2.593.441,2.593.441a3.1,3.1,0,0,1,1.387-.775,1.846,1.846,0,0,1,1.12-.018,1.393,1.393,0,0,1,.443.214l1.272,1.251s.357-.474.323-.581.431-.193.431-.193.624-.193.859-.259.454.193.472.214a2.518,2.518,0,0,1-.107-.945,1.072,1.072,0,0,0-.257-.774c.759-1.837,2.459-.282,2.459-.282a3.549,3.549,0,0,1,.021,1.4c-.172.388.179,1.2.129,1.419a9.672,9.672,0,0,0,.086.988,5.875,5.875,0,0,1-.343,1.528c-.13.343-1.161,1.117-1.161,1.117a4.849,4.849,0,0,1-.516,1.935c-.452.709-.179,3.14-.179,3.14a8.168,8.168,0,0,0,.967,2.5C658.805,586.969,659.607,590.382,659.607,590.382Z" transform="translate(44.434 850.701)"/>
    <path id="Path_2137" data-name="Path 2137" class="cls-10" d="M692.206,596.809s-.236-.715-.452-.776a5.076,5.076,0,0,1-.624-.279l.139-.264s.808.222.936.457A1.869,1.869,0,0,1,692.206,596.809Z" transform="translate(0.317 830.133)"/>
    <path id="Path_2138" data-name="Path 2138" class="cls-10" d="M664.015,591.5c-.043.216-1.955.409-1.955.409l.967-.97h0l.025.009h0A3.812,3.812,0,0,1,664.015,591.5Z" transform="translate(24.178 833.87)"/>
    <ellipse id="Ellipse_485" data-name="Ellipse 485" class="cls-17" cx="0.172" cy="0.172" rx="0.172" ry="0.172" transform="translate(682.464 1422.249)"/>
    <ellipse id="Ellipse_486" data-name="Ellipse 486" class="cls-17" cx="0.172" cy="0.172" rx="0.172" ry="0.172" transform="translate(682.684 1422.594)"/>
    <ellipse id="Ellipse_487" data-name="Ellipse 487" class="cls-17" cx="0.172" cy="0.172" rx="0.172" ry="0.172" transform="translate(682.901 1422.91)"/>
    <ellipse id="Ellipse_488" data-name="Ellipse 488" class="cls-17" cx="0.172" cy="0.172" rx="0.172" ry="0.172" transform="translate(683.127 1423.255)"/>
    <ellipse id="Ellipse_489" data-name="Ellipse 489" class="cls-17" cx="0.139" cy="0.139" rx="0.139" ry="0.139" transform="translate(703.526 1423.267)"/>
    <ellipse id="Ellipse_490" data-name="Ellipse 490" class="cls-17" cx="0.139" cy="0.139" rx="0.139" ry="0.139" transform="translate(703.547 1423.585)"/>
    <ellipse id="Ellipse_491" data-name="Ellipse 491" class="cls-17" cx="0.139" cy="0.139" rx="0.139" ry="0.139" transform="translate(703.565 1423.902)"/>
    <path id="Path_2139" data-name="Path 2139" class="cls-10" d="M697.21,635.469c-.02-.025,4.824,6.095,8.589,2.559C705.8,638.028,699.852,638.834,697.21,635.469Z" transform="translate(-4.656 797.299)"/>
    <path id="Path_2140" data-name="Path 2140" class="cls-10" d="M681.63,653.28s2.9.079,3.2.913v.868a.555.555,0,0,1-.536,0c-.293-.157-2.046-1.049-2.664-.62Z" transform="translate(8.118 782.671)"/>
    <path id="Path_2141" data-name="Path 2141" class="cls-16" d="M681.93,653.28s2.773.075,3.064.87v.829a.536.536,0,0,1-.516,0c-.281-.152-1.966-1-2.548-.591Z" transform="translate(7.872 782.671)"/>
    <path id="Path_2142" data-name="Path 2142" class="cls-10" d="M690.49,618a9.344,9.344,0,0,0,1.124,1.928,7.534,7.534,0,0,0,1.762,1.7A33.32,33.32,0,0,1,690.49,618Z" transform="translate(0.846 811.646)"/>
    <path id="Path_2143" data-name="Path 2143" class="cls-10" d="M685.18,599.18s.484,2.089,1.73,2.8Z" transform="translate(5.202 827.103)"/>
    <path id="Path_2144" data-name="Path 2144" class="cls-10" d="M680.8,600.357a2.307,2.307,0,0,0,1.608,2.587S681.547,602.651,680.8,600.357Z" transform="translate(8.832 826.137)"/>
    <path id="Path_2145" data-name="Path 2145" class="cls-10" d="M751.9,592.514a14.962,14.962,0,0,1,1.287.967S752.51,592.471,751.9,592.514Z" transform="translate(-49.557 832.578)"/>
    <path id="Path_2146" data-name="Path 2146" class="cls-9" d="M705.4,557.893a.545.545,0,0,0,.2.347.561.561,0,0,0,.241.054,5.227,5.227,0,0,0,2.323-.218.864.864,0,0,0,.357-.234,1.393,1.393,0,0,0,.19-.563,8.742,8.742,0,0,1,.474-1.086,3.653,3.653,0,0,0,.252-1.951,1.307,1.307,0,0,0-.195-.572c-.207-.295-.584-.415-.858-.65s-.45-.595-.768-.772a1.493,1.493,0,0,0-.965-.086,5.1,5.1,0,0,0-1.8.677.891.891,0,0,1-.6.206.827.827,0,0,1-.443-.339,2.38,2.38,0,0,0-.191,1.113.329.329,0,0,1-.12.347.651.651,0,0,0-.123.8c.084.1.211.152.291.252.145.179.095.438.091.668a.358.358,0,0,0,.057.227.332.332,0,0,0,.316.075.864.864,0,0,1,.336-.032.566.566,0,0,1,.293.225A4.084,4.084,0,0,1,705.4,557.893Z" transform="translate(-9.641 865.755)"/>
    <g id="Group_423" data-name="Group 423" class="cls-18" transform="translate(693.615 1420.008)">
      <path id="Path_2147" data-name="Path 2147" d="M708.505,567.461a.848.848,0,0,1-.357.232,5.137,5.137,0,0,1-2.312.218.525.525,0,0,1-.241-.054.536.536,0,0,1-.2-.345,3.985,3.985,0,0,0-.652-1.513.557.557,0,0,0-.293-.225.866.866,0,0,0-.336.032.332.332,0,0,1-.316-.075.346.346,0,0,1-.055-.227c0-.23.052-.49-.093-.668-.08-.1-.207-.154-.291-.252a.5.5,0,0,1-.048-.515.589.589,0,0,0-.038.686c.084.1.211.152.291.252.145.179.095.438.091.668a.359.359,0,0,0,.057.227.331.331,0,0,0,.316.075.864.864,0,0,1,.336-.032.566.566,0,0,1,.293.225,4.058,4.058,0,0,1,.652,1.513.545.545,0,0,0,.2.347.56.56,0,0,0,.241.054,5.228,5.228,0,0,0,2.323-.218.879.879,0,0,0,.357-.234.682.682,0,0,0,.111-.207A.128.128,0,0,1,708.505,567.461Z" transform="translate(-703.176 -564.07)"/>
    </g>
    <path id="Path_2148" data-name="Path 2148" class="cls-10" d="M712.62,592.857s3.2.423,3.484-.057" transform="translate(-17.316 832.342)"/>
    <path id="Path_2149" data-name="Path 2149" class="cls-10" d="M747.4,585.72s1.774,0,2.166.668" transform="translate(-45.864 838.157)"/>
  </g>
</svg>
