<svg xmlns="http://www.w3.org/2000/svg" xmlns:xlink="http://www.w3.org/1999/xlink" width="160" height="115" viewBox="0 0 160 115">
  <defs>
    <style>
      .cls-1 {
        fill: #6c63ff;
      }

      .cls-16, .cls-2, .cls-4, .cls-8, .cls-9 {
        fill: #d7605c;
      }

      .cls-2, .cls-3 {
        opacity: 0.25;
      }

      .cls-5 {
        fill: #fbd56f;
      }

      .cls-14, .cls-6, .cls-9 {
        opacity: 0.1;
      }

      .cls-7 {
        fill: #434175;
      }

      .cls-8 {
        opacity: 0.8;
      }

      .cls-10 {
        fill: none;
        stroke: #535461;
        stroke-miterlimit: 10;
        stroke-width: 2px;
      }

      .cls-11 {
        fill: url(#linear-gradient);
      }

      .cls-12 {
        fill: #565387;
      }

      .cls-13 {
        fill: #ee8e9e;
      }

      .cls-15, .cls-16 {
        opacity: 0.2;
      }

      .cls-17 {
        fill: #b53d39;
      }

      .cls-18 {
        fill: #fad46f;
      }
    </style>
    <linearGradient id="linear-gradient" x1="0.5" y1="1" x2="0.5" gradientUnits="objectBoundingBox">
      <stop offset="0" stop-color="gray" stop-opacity="0.251"/>
      <stop offset="0.535" stop-color="gray" stop-opacity="0.122"/>
      <stop offset="1" stop-color="gray" stop-opacity="0.102"/>
    </linearGradient>
  </defs>
  <g id="Group_937" data-name="Group 937" transform="translate(-171 -1100)">
    <g id="Group_936" data-name="Group 936">
      <path id="Path_1820" data-name="Path 1820" class="cls-1" d="M995.147,757.248c.418.675,2.852,1.876,2.852,1.876s.01-2.715-.408-3.39a1.438,1.438,0,0,0-2.445,1.514Z" transform="translate(-687.417 446.154)"/>
      <path id="Path_1822" data-name="Path 1822" class="cls-1" d="M1027.643,739c-.791.069-3.21-1.162-3.21-1.162s2.168-1.633,2.959-1.7a1.438,1.438,0,0,1,.251,2.865Z" transform="translate(-712.695 462.366)"/>
      <path id="Path_1823" data-name="Path 1823" class="cls-1" d="M1013.234,783.986c-.768.2-3.36-.6-3.36-.6s1.861-1.976,2.629-2.178a1.438,1.438,0,0,1,.732,2.781Z" transform="translate(-700.22 423.787)"/>
      <path id="Path_1827" data-name="Path 1827" class="cls-2" d="M995.147,757.248c.418.675,2.852,1.876,2.852,1.876s.01-2.715-.408-3.39a1.438,1.438,0,0,0-2.445,1.514Z" transform="translate(-687.417 446.154)"/>
      <path id="Path_1829" data-name="Path 1829" class="cls-2" d="M1027.643,739c-.791.069-3.21-1.162-3.21-1.162s2.168-1.633,2.959-1.7a1.438,1.438,0,0,1,.251,2.865Z" transform="translate(-712.695 462.366)"/>
      <path id="Path_1830" data-name="Path 1830" class="cls-3" d="M1013.234,783.986c-.768.2-3.36-.6-3.36-.6s1.861-1.976,2.629-2.178a1.438,1.438,0,0,1,.732,2.781Z" transform="translate(-700.22 423.787)"/>
      <path id="Path_1832" data-name="Path 1832" class="cls-4" d="M1100.639,688.65c-.568.555-1.21,3.193-1.21,3.193s2.652-.581,3.219-1.136a1.438,1.438,0,1,0-2.01-2.056Z" transform="translate(-776.956 503.389)"/>
      <path id="Path_1833" data-name="Path 1833" class="cls-4" d="M1074.164,693.993c-.175.774.72,3.337.72,3.337s1.91-1.929,2.085-2.7a1.438,1.438,0,1,0-2.8-.634Z" transform="translate(-755.288 499.435)"/>
      <path id="Path_1834" data-name="Path 1834" class="cls-4" d="M1036.855,726.714c.24.757,2.306,2.517,2.306,2.517s.675-2.629.435-3.386a1.438,1.438,0,1,0-2.741.869Z" transform="translate(-723.281 472.042)"/>
      <path id="Path_1835" data-name="Path 1835" class="cls-4" d="M1015.488,762.611c.108.787,1.847,2.871,1.847,2.871s1.109-2.477,1-3.264a1.438,1.438,0,1,0-2.848.393Z" transform="translate(-705.019 441.079)"/>
      <path id="Path_1836" data-name="Path 1836" class="cls-4" d="M1074.993,722.644c-.794-.021-3.058-1.518-3.058-1.518s2.339-1.377,3.133-1.357a1.438,1.438,0,0,1-.075,2.874Z" transform="translate(-753.398 476.387)"/>
      <path id="Path_1837" data-name="Path 1837" class="cls-4" d="M1052.68,763.184c-.751-.257-2.464-2.363-2.464-2.363s2.644-.614,3.4-.357a1.438,1.438,0,1,1-.931,2.72Z" transform="translate(-734.788 441.572)"/>
      <path id="Path_1838" data-name="Path 1838" class="cls-4" d="M1020.012,798.21c-.784-.126-2.828-1.913-2.828-1.913s2.5-1.052,3.286-.926a1.438,1.438,0,0,1-.458,2.839Z" transform="translate(-706.484 411.617)"/>
      <path id="Path_1840" data-name="Path 1840" class="cls-5" d="M600.753,746.707l-.559-.311a6.774,6.774,0,0,0-.176,1.869.387.387,0,0,0,.291.335c1.286.319,7.418,1.681,11.634-.237a.387.387,0,0,0,.224-.311,5.791,5.791,0,0,0-.2-1.657C611.8,745.982,600.753,746.707,600.753,746.707Z" transform="translate(-349.002 453.682)"/>
      <path id="Path_1841" data-name="Path 1841" class="cls-6" d="M600.753,746.707l-.559-.311a6.774,6.774,0,0,0-.176,1.869.387.387,0,0,0,.291.335c1.286.319,7.418,1.681,11.634-.237a.387.387,0,0,0,.224-.311,5.791,5.791,0,0,0-.2-1.657C611.8,745.982,600.753,746.707,600.753,746.707Z" transform="translate(-349.002 453.682)"/>
      <ellipse id="Ellipse_360" data-name="Ellipse 360" class="cls-5" cx="5.884" cy="1.326" rx="5.884" ry="1.326" transform="translate(251.192 1198.751)"/>
      <path id="Path_1842" data-name="Path 1842" class="cls-5" d="M616.458,733.035l-.559-.311a6.772,6.772,0,0,0-.176,1.869.388.388,0,0,0,.291.335c1.286.319,7.418,1.681,11.634-.237a.387.387,0,0,0,.224-.311,5.79,5.79,0,0,0-.2-1.657C627.51,732.31,616.458,733.035,616.458,733.035Z" transform="translate(-362.459 465.397)"/>
      <path id="Path_1843" data-name="Path 1843" class="cls-6" d="M616.458,733.035l-.559-.311a6.772,6.772,0,0,0-.176,1.869.388.388,0,0,0,.291.335c1.286.319,7.418,1.681,11.634-.237a.387.387,0,0,0,.224-.311,5.79,5.79,0,0,0-.2-1.657C627.51,732.31,616.458,733.035,616.458,733.035Z" transform="translate(-362.459 465.397)"/>
      <ellipse id="Ellipse_361" data-name="Ellipse 361" class="cls-5" cx="5.884" cy="1.326" rx="5.884" ry="1.326" transform="translate(253.44 1196.794)"/>
      <path id="Path_1856" data-name="Path 1856" class="cls-5" d="M718.882,752.069l-.559-.311a6.775,6.775,0,0,0-.176,1.869.388.388,0,0,0,.291.335c1.286.319,7.418,1.681,11.634-.237a.387.387,0,0,0,.224-.311,5.79,5.79,0,0,0-.2-1.657C729.934,751.344,718.882,752.069,718.882,752.069Z" transform="translate(-450.225 449.088)"/>
      <path id="Path_1857" data-name="Path 1857" class="cls-6" d="M718.882,752.069l-.559-.311a6.775,6.775,0,0,0-.176,1.869.388.388,0,0,0,.291.335c1.286.319,7.418,1.681,11.634-.237a.387.387,0,0,0,.224-.311,5.79,5.79,0,0,0-.2-1.657C729.934,751.344,718.882,752.069,718.882,752.069Z" transform="translate(-450.225 449.088)"/>
      <ellipse id="Ellipse_368" data-name="Ellipse 368" class="cls-5" cx="5.884" cy="1.326" rx="5.884" ry="1.326" transform="translate(268.097 1199.519)"/>
      <path id="Path_1858" data-name="Path 1858" class="cls-5" d="M732.766,734.1l-.559-.311a6.774,6.774,0,0,0-.176,1.869.388.388,0,0,0,.291.335c1.286.319,7.418,1.68,11.634-.237a.387.387,0,0,0,.224-.311,5.791,5.791,0,0,0-.2-1.657C743.818,733.375,732.766,734.1,732.766,734.1Z" transform="translate(-462.122 464.484)"/>
      <path id="Path_1859" data-name="Path 1859" class="cls-6" d="M732.766,734.1l-.559-.311a6.774,6.774,0,0,0-.176,1.869.388.388,0,0,0,.291.335c1.286.319,7.418,1.68,11.634-.237a.387.387,0,0,0,.224-.311,5.791,5.791,0,0,0-.2-1.657C743.818,733.375,732.766,734.1,732.766,734.1Z" transform="translate(-462.122 464.484)"/>
      <ellipse id="Ellipse_369" data-name="Ellipse 369" class="cls-5" cx="5.884" cy="1.326" rx="5.884" ry="1.326" transform="translate(270.084 1196.947)"/>
      <path id="Path_1871" data-name="Path 1871" class="cls-7" d="M922.714,787.633v1.66s7.929.143,9.675.143,4.15-.859,4.294-1.546-2-1.259-2.805-1.288-.83-.344-1.861-.887a10.727,10.727,0,0,1-2.123-1.916c-.508-.554-.882-1-.882-1s-4.265-.086-5.5.6a1.489,1.489,0,0,0-.612.852A9.536,9.536,0,0,0,922.714,787.633Z" transform="translate(-625.474 422.385)"/>
      <path id="Path_1872" data-name="Path 1872" class="cls-6" d="M924.472,784.249a56.4,56.4,0,0,1,6.99-.449c-.508-.554-.882-1-.882-1s-4.265-.086-5.5.6A1.489,1.489,0,0,0,924.472,784.249Z" transform="translate(-627.037 422.386)"/>
      <path id="Path_1876" data-name="Path 1876" class="cls-7" d="M753.971,776.329l5.21,2.318s6.755.143,7.929-.172.916-1.632-.63-1.889a4.6,4.6,0,0,1-2.433-1.259,24.605,24.605,0,0,1-2.348-2.455c-.369-.419-.629-.722-.629-.722a3.306,3.306,0,0,0-3.778-2.061,2.845,2.845,0,0,0-1.351.711c-1.5,1.385-1.626,4.126-1.626,4.126Z" transform="translate(-480.938 433.347)"/>
      <path id="Path_1878" data-name="Path 1878" class="cls-6" d="M767.729,770.8c1.1,3.79,5.673,2.552,5.673,2.552l.085-.48c-.369-.419-.629-.722-.629-.722a3.306,3.306,0,0,0-3.778-2.061A2.845,2.845,0,0,0,767.729,770.8Z" transform="translate(-492.726 433.346)"/>
      <ellipse id="Ellipse_375" data-name="Ellipse 375" class="cls-5" cx="5.376" cy="5.706" rx="5.376" ry="5.706" transform="translate(255.481 1197.641)"/>
      <ellipse id="Ellipse_376" data-name="Ellipse 376" class="cls-6" cx="5.376" cy="5.706" rx="5.376" ry="5.706" transform="translate(255.481 1197.641)"/>
      <ellipse id="Ellipse_377" data-name="Ellipse 377" class="cls-5" cx="5.376" cy="5.579" rx="5.376" ry="5.579" transform="translate(256.409 1197.895)"/>
      <ellipse id="Ellipse_378" data-name="Ellipse 378" class="cls-4" cx="6.64" cy="1.122" rx="6.64" ry="1.122" transform="translate(177.263 1204.238)"/>
      <path id="Path_1905" data-name="Path 1905" class="cls-4" d="M113.539,752.927a1.927,1.927,0,0,0,.633-.955.849.849,0,0,0-.442-.973,1.244,1.244,0,0,0-1.17.411,1.564,1.564,0,0,1-1.137.549,1.731,1.731,0,0,0,.535-1.62.676.676,0,0,0-.149-.329c-.226-.241-.634-.138-.9.052a3.369,3.369,0,0,0-1.1,2.82,5.335,5.335,0,0,1-.016-1.162,1.192,1.192,0,0,0-.436-1.028,1.313,1.313,0,0,0-.665-.156,1.376,1.376,0,0,0-1.08.307,1.073,1.073,0,0,0,.042,1.326,4.184,4.184,0,0,0,1.117.9,2.477,2.477,0,0,1,.8.762.753.753,0,0,1,.059.136h2.42A6.746,6.746,0,0,0,113.539,752.927Z" transform="translate(73.109 450.597)"/>
      <path id="Path_1906" data-name="Path 1906" class="cls-8" d="M511.323,726.93a5.791,5.791,0,0,1,.72,1.314c.048.121.1.248.14.381.715,2.138-.418,4.7-.742,4.425s-1.334-.79-1.529-.069a4.137,4.137,0,0,1-.916,1.458c-1.314,1.322-2.5-.106-3.284-1.582a14.288,14.288,0,0,1-.679-1.5c-.173-.453-.273-.766-.273-.766l5.473-4.663A3.24,3.24,0,0,1,511.323,726.93Z" transform="translate(-267.389 471.111)"/>
      <path id="Path_1907" data-name="Path 1907" class="cls-8" d="M451.059,747.763a5.791,5.791,0,0,1,.72,1.314c.048.121.1.248.14.381.715,2.138-.418,4.7-.742,4.425s-1.334-.79-1.529-.069a4.136,4.136,0,0,1-.916,1.458c-1.314,1.322-2.5-.106-3.284-1.582a14.3,14.3,0,0,1-.679-1.5c-.173-.453-.273-.766-.273-.766l5.473-4.663A3.24,3.24,0,0,1,451.059,747.763Z" transform="translate(-215.75 453.26)"/>
      <path id="Path_1908" data-name="Path 1908" class="cls-8" d="M319.809,773.754a5.788,5.788,0,0,1-.285,1.471c-.04.124-.085.251-.136.382-.814,2.1-3.322,3.353-3.4,2.933s-.523-1.459-1.133-1.029a4.137,4.137,0,0,1-1.636.537c-1.855.179-1.86-1.68-1.519-3.314a14.273,14.273,0,0,1,.435-1.589c.156-.46.279-.764.279-.764l7.19-.1A3.24,3.24,0,0,1,319.809,773.754Z" transform="translate(-101.816 431.389)"/>
      <path id="Path_1909" data-name="Path 1909" class="cls-8" d="M254.91,757.386a5.791,5.791,0,0,1-.285,1.471c-.04.124-.085.251-.136.383-.814,2.1-3.322,3.353-3.4,2.933s-.523-1.459-1.133-1.029a4.137,4.137,0,0,1-1.636.538c-1.855.179-1.86-1.68-1.519-3.314a14.291,14.291,0,0,1,.435-1.589c.156-.459.279-.764.279-.764l7.19-.1A3.239,3.239,0,0,1,254.91,757.386Z" transform="translate(-46.204 445.414)"/>
    </g>
    <g id="Group_935" data-name="Group 935">
      <ellipse id="Ellipse_356" data-name="Ellipse 356" class="cls-9" cx="80" cy="9.726" rx="80" ry="9.726" transform="translate(171 1195.548)"/>
      <path id="Path_1816" data-name="Path 1816" class="cls-10" d="M997.486,701.175s4.173-5.31,3.836-10.579a10.234,10.234,0,0,1,1.61-6.269,17.221,17.221,0,0,1,1.961-2.462" transform="translate(-689.605 508.866)"/>
      <path id="Path_1817" data-name="Path 1817" class="cls-1" d="M1047.32,653.241c-.294.737.188,3.409.188,3.409s2.189-1.606,2.483-2.343a1.438,1.438,0,1,0-2.671-1.066Z" transform="translate(-732.225 534.15)"/>
      <path id="Path_1818" data-name="Path 1818" class="cls-1" d="M1020.915,670.771c.154.779,2.01,2.759,2.01,2.759s.964-2.537.811-3.316a1.438,1.438,0,0,0-2.821.557Z" transform="translate(-709.657 519.827)"/>
      <path id="Path_1819" data-name="Path 1819" class="cls-1" d="M1000.13,715.774c.526.595,3.128,1.367,3.128,1.367s-.449-2.677-.975-3.272a1.438,1.438,0,0,0-2.154,1.9Z" transform="translate(-691.562 481.859)"/>
      <path id="Path_1821" data-name="Path 1821" class="cls-1" d="M1033.893,692.572c-.734.3-3.411-.148-3.411-.148s1.58-2.207,2.314-2.51a1.438,1.438,0,0,1,1.1,2.658Z" transform="translate(-717.878 502.048)"/>
      <path id="Path_1824" data-name="Path 1824" class="cls-2" d="M1047.32,653.241c-.294.737.188,3.409.188,3.409s2.189-1.606,2.483-2.343a1.438,1.438,0,1,0-2.671-1.066Z" transform="translate(-732.225 534.15)"/>
      <path id="Path_1825" data-name="Path 1825" class="cls-2" d="M1020.915,670.771c.154.779,2.01,2.759,2.01,2.759s.964-2.537.811-3.316a1.438,1.438,0,0,0-2.821.557Z" transform="translate(-709.657 519.827)"/>
      <path id="Path_1826" data-name="Path 1826" class="cls-2" d="M1000.13,715.774c.526.595,3.128,1.367,3.128,1.367s-.449-2.677-.975-3.272a1.438,1.438,0,0,0-2.154,1.9Z" transform="translate(-691.562 481.859)"/>
      <path id="Path_1828" data-name="Path 1828" class="cls-2" d="M1033.893,692.572c-.734.3-3.411-.148-3.411-.148s1.58-2.207,2.314-2.51a1.438,1.438,0,0,1,1.1,2.658Z" transform="translate(-717.878 502.048)"/>
      <path id="Path_1831" data-name="Path 1831" class="cls-10" d="M997.733,727.513s5.967-3.164,7.794-8.117a10.234,10.234,0,0,1,4.013-5.079,17.21,17.21,0,0,1,2.79-1.456" transform="translate(-689.817 482.307)"/>
      <path id="Path_1839" data-name="Path 1839" class="cls-9" d="M249.168,62.2c-7.9-.275-15.433-2.827-22.622-5.62s-14.31-5.887-22.025-7.366c-4.962-.952-10.637-1.086-14.636,1.575-3.848,2.561-5.091,6.982-5.759,11.084-.5,3.086-.8,6.334.579,9.223.957,2.006,2.655,3.692,3.83,5.613,4.087,6.685,1.2,14.929-3.231,21.457-2.078,3.062-4.488,5.983-6.091,9.243s-2.345,6.994-.942,10.32c1.39,3.3,4.7,5.771,8.293,7.512,7.29,3.536,15.881,4.548,24.258,5.122,18.543,1.269,37.186.72,55.778.169a163.631,163.631,0,0,0,20.56-1.474c3.759-.591,7.64-1.529,10.369-3.793a8.688,8.688,0,0,0,2-11.347c-3.894-6.046-14.66-7.548-17.381-14.036-1.5-3.572.04-7.55,2.217-10.862,4.67-7.106,12.5-13.34,12.91-21.462.283-5.578-3.48-11.165-9.3-13.8-6.1-2.767-14.556-2.419-19.055,2.161C264.289,60.628,256.147,62.442,249.168,62.2Z" transform="translate(13.015 1051.41)"/>
      <ellipse id="Ellipse_357" data-name="Ellipse 357" class="cls-5" cx="5.376" cy="5.706" rx="5.376" ry="5.706" transform="translate(243.272 1189.499)"/>
      <ellipse id="Ellipse_358" data-name="Ellipse 358" class="cls-6" cx="5.376" cy="5.706" rx="5.376" ry="5.706" transform="translate(243.272 1189.499)"/>
      <ellipse id="Ellipse_359" data-name="Ellipse 359" class="cls-5" cx="5.376" cy="5.579" rx="5.376" ry="5.579" transform="translate(244.199 1189.753)"/>
      <path id="Path_1844" data-name="Path 1844" class="cls-5" d="M630.343,715.067l-.559-.311a6.774,6.774,0,0,0-.176,1.869.388.388,0,0,0,.291.335c1.286.319,7.418,1.681,11.634-.237a.386.386,0,0,0,.224-.311,5.792,5.792,0,0,0-.2-1.657C641.395,714.342,630.343,715.067,630.343,715.067Z" transform="translate(-374.357 480.793)"/>
      <path id="Path_1845" data-name="Path 1845" class="cls-6" d="M630.343,715.067l-.559-.311a6.774,6.774,0,0,0-.176,1.869.388.388,0,0,0,.291.335c1.286.319,7.418,1.681,11.634-.237a.386.386,0,0,0,.224-.311,5.792,5.792,0,0,0-.2-1.657C641.395,714.342,630.343,715.067,630.343,715.067Z" transform="translate(-374.357 480.793)"/>
      <ellipse id="Ellipse_362" data-name="Ellipse 362" class="cls-5" cx="5.884" cy="1.326" rx="5.884" ry="1.326" transform="translate(255.427 1194.222)"/>
      <path id="Path_1846" data-name="Path 1846" class="cls-5" d="M614.967,696.361l-.559-.311a6.773,6.773,0,0,0-.176,1.869.387.387,0,0,0,.291.335c1.286.319,7.418,1.681,11.634-.237a.387.387,0,0,0,.224-.311,5.791,5.791,0,0,0-.2-1.657C626.019,695.636,614.967,696.361,614.967,696.361Z" transform="translate(-361.181 496.821)"/>
      <path id="Path_1847" data-name="Path 1847" class="cls-6" d="M614.967,696.361l-.559-.311a6.773,6.773,0,0,0-.176,1.869.387.387,0,0,0,.291.335c1.286.319,7.418,1.681,11.634-.237a.387.387,0,0,0,.224-.311,5.791,5.791,0,0,0-.2-1.657C626.019,695.636,614.967,696.361,614.967,696.361Z" transform="translate(-361.181 496.821)"/>
      <ellipse id="Ellipse_363" data-name="Ellipse 363" class="cls-5" cx="5.884" cy="1.326" rx="5.884" ry="1.326" transform="translate(253.226 1191.529)"/>
      <path id="Path_1848" data-name="Path 1848" class="cls-5" d="M649.558,681.35l-.559-.311a6.773,6.773,0,0,0-.176,1.869.387.387,0,0,0,.291.335c1.286.319,7.418,1.681,11.634-.237a.387.387,0,0,0,.224-.311,5.791,5.791,0,0,0-.2-1.657C660.61,680.625,649.558,681.35,649.558,681.35Z" transform="translate(-390.822 509.668)"/>
      <path id="Path_1849" data-name="Path 1849" class="cls-6" d="M649.558,681.35l-.559-.311a6.773,6.773,0,0,0-.176,1.869.387.387,0,0,0,.291.335c1.286.319,7.418,1.681,11.634-.237a.387.387,0,0,0,.224-.311,5.791,5.791,0,0,0-.2-1.657C660.61,680.625,649.558,681.35,649.558,681.35Z" transform="translate(-390.822 509.668)"/>
      <ellipse id="Ellipse_364" data-name="Ellipse 364" class="cls-5" cx="5.884" cy="1.326" rx="5.884" ry="1.326" transform="translate(258.176 1189.379)"/>
      <path id="Path_1850" data-name="Path 1850" class="cls-5" d="M626.186,671.26l-.559-.311a6.773,6.773,0,0,0-.176,1.869.387.387,0,0,0,.291.335c1.286.319,7.418,1.681,11.634-.237a.387.387,0,0,0,.224-.311,5.793,5.793,0,0,0-.2-1.657C637.238,670.535,626.186,671.26,626.186,671.26Z" transform="translate(-370.795 518.312)"/>
      <path id="Path_1851" data-name="Path 1851" class="cls-6" d="M626.186,671.26l-.559-.311a6.773,6.773,0,0,0-.176,1.869.387.387,0,0,0,.291.335c1.286.319,7.418,1.681,11.634-.237a.387.387,0,0,0,.224-.311,5.793,5.793,0,0,0-.2-1.657C637.238,670.535,626.186,671.26,626.186,671.26Z" transform="translate(-370.795 518.312)"/>
      <ellipse id="Ellipse_365" data-name="Ellipse 365" class="cls-5" cx="5.884" cy="1.326" rx="5.884" ry="1.326" transform="translate(254.832 1187.933)"/>
      <path id="Path_1852" data-name="Path 1852" class="cls-5" d="M641.79,651.782l-.559-.311a6.77,6.77,0,0,0-.176,1.869.388.388,0,0,0,.291.335c1.286.32,7.418,1.68,11.634-.237a.387.387,0,0,0,.224-.311,5.794,5.794,0,0,0-.2-1.657C652.842,651.057,641.79,651.782,641.79,651.782Z" transform="translate(-384.166 535)"/>
      <path id="Path_1853" data-name="Path 1853" class="cls-6" d="M641.79,651.782l-.559-.311a6.77,6.77,0,0,0-.176,1.869.388.388,0,0,0,.291.335c1.286.32,7.418,1.68,11.634-.237a.387.387,0,0,0,.224-.311,5.794,5.794,0,0,0-.2-1.657C652.842,651.057,641.79,651.782,641.79,651.782Z" transform="translate(-384.166 535)"/>
      <ellipse id="Ellipse_366" data-name="Ellipse 366" class="cls-5" cx="5.884" cy="1.326" rx="5.884" ry="1.326" transform="translate(257.065 1185.143)"/>
      <path id="Path_1854" data-name="Path 1854" class="cls-5" d="M649.487,628.662l-.559-.311a6.774,6.774,0,0,0-.176,1.869.388.388,0,0,0,.291.335c1.286.32,7.418,1.68,11.634-.237a.387.387,0,0,0,.224-.311,5.792,5.792,0,0,0-.2-1.657C660.539,627.937,649.487,628.662,649.487,628.662Z" transform="translate(-390.761 554.808)"/>
      <path id="Path_1855" data-name="Path 1855" class="cls-6" d="M649.487,628.662l-.559-.311a6.774,6.774,0,0,0-.176,1.869.388.388,0,0,0,.291.335c1.286.32,7.418,1.68,11.634-.237a.387.387,0,0,0,.224-.311,5.792,5.792,0,0,0-.2-1.657C660.539,627.937,649.487,628.662,649.487,628.662Z" transform="translate(-390.761 554.808)"/>
      <ellipse id="Ellipse_367" data-name="Ellipse 367" class="cls-5" cx="5.884" cy="1.326" rx="5.884" ry="1.326" transform="translate(258.166 1181.831)"/>
      <path id="Path_1860" data-name="Path 1860" class="cls-5" d="M717.39,715.395l-.559-.311a6.778,6.778,0,0,0-.176,1.87.388.388,0,0,0,.291.335c1.287.32,7.418,1.681,11.634-.236a.387.387,0,0,0,.224-.311,5.794,5.794,0,0,0-.2-1.657C728.442,714.67,717.39,715.395,717.39,715.395Z" transform="translate(-448.947 480.512)"/>
      <path id="Path_1861" data-name="Path 1861" class="cls-6" d="M717.39,715.395l-.559-.311a6.778,6.778,0,0,0-.176,1.87.388.388,0,0,0,.291.335c1.287.32,7.418,1.681,11.634-.236a.387.387,0,0,0,.224-.311,5.794,5.794,0,0,0-.2-1.657C728.442,714.67,717.39,715.395,717.39,715.395Z" transform="translate(-448.947 480.512)"/>
      <ellipse id="Ellipse_370" data-name="Ellipse 370" class="cls-5" cx="5.884" cy="1.326" rx="5.884" ry="1.326" transform="translate(267.884 1194.269)"/>
      <path id="Path_1862" data-name="Path 1862" class="cls-5" d="M751.981,700.384l-.559-.311a6.772,6.772,0,0,0-.176,1.869.387.387,0,0,0,.291.335c1.286.319,7.418,1.68,11.634-.237a.386.386,0,0,0,.224-.311,5.8,5.8,0,0,0-.2-1.657C763.033,699.659,751.981,700.384,751.981,700.384Z" transform="translate(-478.587 493.374)"/>
      <path id="Path_1863" data-name="Path 1863" class="cls-6" d="M751.981,700.384l-.559-.311a6.772,6.772,0,0,0-.176,1.869.387.387,0,0,0,.291.335c1.286.319,7.418,1.68,11.634-.237a.386.386,0,0,0,.224-.311,5.8,5.8,0,0,0-.2-1.657C763.033,699.659,751.981,700.384,751.981,700.384Z" transform="translate(-478.587 493.374)"/>
      <ellipse id="Ellipse_371" data-name="Ellipse 371" class="cls-5" cx="5.884" cy="1.326" rx="5.884" ry="1.326" transform="translate(272.834 1192.12)"/>
      <path id="Path_1864" data-name="Path 1864" class="cls-5" d="M728.61,690.294l-.559-.311a6.773,6.773,0,0,0-.176,1.869.387.387,0,0,0,.291.335c1.286.32,7.418,1.681,11.634-.236a.387.387,0,0,0,.224-.311,5.791,5.791,0,0,0-.2-1.657C739.662,689.569,728.61,690.294,728.61,690.294Z" transform="translate(-458.561 502.005)"/>
      <path id="Path_1865" data-name="Path 1865" class="cls-6" d="M728.61,690.294l-.559-.311a6.773,6.773,0,0,0-.176,1.869.387.387,0,0,0,.291.335c1.286.32,7.418,1.681,11.634-.236a.387.387,0,0,0,.224-.311,5.791,5.791,0,0,0-.2-1.657C739.662,689.569,728.61,690.294,728.61,690.294Z" transform="translate(-458.561 502.005)"/>
      <ellipse id="Ellipse_372" data-name="Ellipse 372" class="cls-5" cx="5.884" cy="1.326" rx="5.884" ry="1.326" transform="translate(269.49 1190.66)"/>
      <path id="Path_1866" data-name="Path 1866" class="cls-5" d="M744.213,670.816l-.559-.311a6.774,6.774,0,0,0-.176,1.869.387.387,0,0,0,.291.335c1.286.319,7.418,1.68,11.634-.237a.387.387,0,0,0,.224-.311,5.79,5.79,0,0,0-.2-1.657C755.265,670.091,744.213,670.816,744.213,670.816Z" transform="translate(-471.931 518.693)"/>
      <path id="Path_1867" data-name="Path 1867" class="cls-6" d="M744.213,670.816l-.559-.311a6.774,6.774,0,0,0-.176,1.869.387.387,0,0,0,.291.335c1.286.319,7.418,1.68,11.634-.237a.387.387,0,0,0,.224-.311,5.79,5.79,0,0,0-.2-1.657C755.265,670.091,744.213,670.816,744.213,670.816Z" transform="translate(-471.931 518.693)"/>
      <ellipse id="Ellipse_373" data-name="Ellipse 373" class="cls-5" cx="5.884" cy="1.326" rx="5.884" ry="1.326" transform="translate(271.723 1187.87)"/>
      <path id="Path_1868" data-name="Path 1868" class="cls-5" d="M751.91,647.7l-.559-.311a6.777,6.777,0,0,0-.176,1.869.388.388,0,0,0,.291.335c1.286.32,7.418,1.68,11.634-.237a.387.387,0,0,0,.224-.311,5.79,5.79,0,0,0-.2-1.657C762.962,646.971,751.91,647.7,751.91,647.7Z" transform="translate(-478.526 538.501)"/>
      <path id="Path_1869" data-name="Path 1869" class="cls-6" d="M751.91,647.7l-.559-.311a6.777,6.777,0,0,0-.176,1.869.388.388,0,0,0,.291.335c1.286.32,7.418,1.68,11.634-.237a.387.387,0,0,0,.224-.311,5.79,5.79,0,0,0-.2-1.657C762.962,646.971,751.91,647.7,751.91,647.7Z" transform="translate(-478.526 538.501)"/>
      <ellipse id="Ellipse_374" data-name="Ellipse 374" class="cls-5" cx="5.884" cy="1.326" rx="5.884" ry="1.326" transform="translate(272.824 1184.558)"/>
      <path id="Path_1870" data-name="Path 1870" class="cls-11" d="M777.617,395.682c-.819-.029-.848-.346-1.9-.895a10.917,10.917,0,0,1-2.17-1.932l-.156-.17.279-.006a11.173,11.173,0,0,1-.029-2.858,21.255,21.255,0,0,0,.058-3.81,12.75,12.75,0,0,0-.117-3.06c-.263-.577.088-4.272.088-4.272s.234-2.194.293-6.668-2.574-4.619-2.574-4.619-.351-.027-.884-.078l-.16-.015c.345-.723.546-1.263.546-1.263s-.439-4.186-.556-4.907-.819-3.695-.819-3.695-.5-1.27-.79-2.165a7.308,7.308,0,0,0-1.17-1.934,35.8,35.8,0,0,0-2.018-3.579c-.2-.214-.489-.484-.737-.712l-.129-.118a5.224,5.224,0,0,0,.1-.988,13.393,13.393,0,0,1-1.755-2.021,11.874,11.874,0,0,0-1.667-1.905s-.878-1.616-1.872-1.645a8.113,8.113,0,0,0-1.409.043c.2-.756.446-1.548.663-2.228l.071-.222a5.01,5.01,0,0,0,1.8-2.174c.021-.047.039-.094.058-.142l.031,0a.79.79,0,0,0,.123-.011c.328-.056.6-.426.454-.718a.107.107,0,0,0,.1.052c.109,0,.242-.161.268-.3,0-.024.007-.048.011-.073s.01-.06.013-.09.005-.057.008-.086,0-.059.006-.088,0-.055,0-.083,0-.064,0-.1,0-.051,0-.076-.005-.077-.009-.116c0-.016,0-.032,0-.048v0a2.6,2.6,0,0,0-.094-.466c-.162-.537-.5-1.069-.37-1.613,0-.006,0-.011.006-.017h0a4.739,4.739,0,0,1,.7-1.108c.021-.036.04-.073.059-.11l.011-.02c.013-.028.025-.057.037-.086s.016-.037.023-.055.017-.051.025-.076.015-.046.022-.07.011-.046.017-.068.013-.055.018-.083.007-.04.01-.06.009-.063.013-.095,0-.034,0-.052c0-.035,0-.071.006-.106,0-.014,0-.029,0-.043q0-.058,0-.117c0-.012,0-.023,0-.035q0-.062-.013-.124c0-.006,0-.012,0-.018v0a2.082,2.082,0,0,0-.419-.995,2.564,2.564,0,0,0-2.106-.911,3.526,3.526,0,0,1-.662.012,2.188,2.188,0,0,1-.971-.513l-2.45-1.887a3.024,3.024,0,0,0-.926-.551,1.034,1.034,0,0,0-1.018.184c-.459.453-.167,1.232-.351,1.846a1.793,1.793,0,0,1-1.2,1.072c-.532.18-1.1.219-1.647.349a.908.908,0,0,0-.441.2.852.852,0,0,0-.192.614,3.309,3.309,0,0,0,.38,1.561c.1.2.228.394.338.6l.027.05c.012.023.025.046.036.069s.037.075.054.113c.008.016.014.033.021.049s.022.053.033.08l.019.051c.011.032.021.063.03.1a1.056,1.056,0,0,1,.016.576,2.137,2.137,0,0,1-.54.792,1.54,1.54,0,0,0-.361.669v.005a.531.531,0,0,0-.007.177c0,.007,0,.015,0,.022a.315.315,0,0,0,.011.039.264.264,0,0,0,.011.027.221.221,0,0,0,.015.03.224.224,0,0,0,.037.044l.021.015a.25.25,0,0,0,.037.023l.025.011a.349.349,0,0,0,.06.016l.017,0a.554.554,0,0,0,.094,0l.028,0a.873.873,0,0,0,.09-.011l.033-.006a1.418,1.418,0,0,0,.138-.035,3.1,3.1,0,0,0,.478-.189c0,.018,0,.035,0,.053s0,.062,0,.092a4.866,4.866,0,0,0,.316,1.656,5,5,0,0,0,1.526,2.108q-.013.075-.028.15c-.141.692-.436,1.387-.618,1.333a2.481,2.481,0,0,0-.542-.059l-.159,0h0a2.164,2.164,0,0,0-.5,0,.539.539,0,0,1-.218-.03,2.968,2.968,0,0,0-1.462-.082,7.715,7.715,0,0,0-2.972,1.04,9.462,9.462,0,0,0-2.633,4.243s-.526,1.761-.936,1.992a2.744,2.744,0,0,1,.278-.125.741.741,0,0,1-.219.24,3.234,3.234,0,0,1,.461-.192,47.151,47.151,0,0,0,.154,7.26s-.38.928.117,1.476a2.78,2.78,0,0,1,.538,1.194l-.072.112h0c-.263.408-.615.94-.847,1.234a4.617,4.617,0,0,0-.292,2.165,2.291,2.291,0,0,1-.38,1.068c-.293.289-.234,1.357-.234,1.357l-.761,2.8s-.7.635-.7.924a3.794,3.794,0,0,1-.556,1.1s-.848,1.386,0,1.184a2.662,2.662,0,0,0,.857-.431v.021q0,.076,0,.155c-.024,1.509.141,3.633,1.253,3.633,1.726,0,6.172,2.049,6.172,2.049a2.982,2.982,0,0,0,2.135.462s-2.165,2.165-2.106,3.06-1.229,2.367-1.229,2.367l-3.978,7.765a5.962,5.962,0,0,0,.285,1.592l-.057.049c-1.529,1.4-1.662,4.161-1.662,4.161l-.351,1.414,5.324,2.338s6.9.144,8.1-.173.936-1.645-.643-1.905a4.717,4.717,0,0,1-2.487-1.27,24.962,24.962,0,0,1-2.4-2.476l-.034-.039.181-1.007c.351-.173.878-1.905.878-1.905s0-.693.351-.895a9.168,9.168,0,0,0,1.082-2.28,15.762,15.762,0,0,0,1.492-2.973c-.088-.346,1.141-2.107,1.141-2.107s2.077-2.021,1.989-2.381,1.667-2.208,1.667-2.208a5.86,5.86,0,0,0,1.553-1.789l.507-.083c2.3-.376,6.114-1.057,6.54-1.246.585-.26.468.895.234,1.876a27.069,27.069,0,0,0-.146,6.293,3.793,3.793,0,0,1,.146,1.588l-.351,5.282.234,1.126s-.79.635-.468,1.01.029,1.992.029,1.992c.028-.01.06-.02.1-.03-.028.063-.055.128-.079.2a9.49,9.49,0,0,0-.194,3.413v1.674s8.1.144,9.887.144,4.242-.866,4.388-1.559S778.436,395.711,777.617,395.682Zm-23.047-30.051-.531.045A4.4,4.4,0,0,1,754.571,365.631Zm3.236-22.157c.074-.334.164-.693.264-1.061Zm1,22.966a2.148,2.148,0,0,1-1.576,0l0,0a16.724,16.724,0,0,1,.263-2.858c.234-.837.556-2.367.556-2.367a30.972,30.972,0,0,1,.527-3.06c.263-.953,1.287-6.264,1.814-6.61a.555.555,0,0,1,.819.26s.079,0,.211-.016q.037.083.084.177a43.477,43.477,0,0,0,2.456,3.852,4.218,4.218,0,0,1,1.346,1.328,8.781,8.781,0,0,1,.644,2.8s1.111,4.359,1.638,4.965c.263.3.146.484-.036.588a2.592,2.592,0,0,0-.923.853c-.075.119-.154.249-.235.389-.2-.047-.381-.1-.532-.146a20.429,20.429,0,0,0-7.05-.154Z" transform="translate(-468.777 813.281)"/>
      <path id="Path_1873" data-name="Path 1873" class="cls-12" d="M763.77,601.186l.463.279.173.1.673.405c3.6,2.168,13.411,8.045,13.948,8,.141-.012.564-.076,1.148-.171l.5-.082c2.248-.373,5.982-1.048,6.4-1.236.573-.258.458.887.229,1.861a27.2,27.2,0,0,0-.143,6.24,3.807,3.807,0,0,1,.143,1.574l-.344,5.238.229,1.116s-.773.63-.458,1,.029,1.975.029,1.975c.916-.343,7.128-.458,7.128-.458a11.231,11.231,0,0,1-.029-2.834,21.351,21.351,0,0,0,.057-3.778,12.807,12.807,0,0,0-.115-3.034,22.062,22.062,0,0,1,.086-4.236s.229-2.175.286-6.612-2.519-4.58-2.519-4.58-.344-.027-.865-.077a38.432,38.432,0,0,1-3.856-.532,6.46,6.46,0,0,1-.689-.183,19.725,19.725,0,0,0-6.9-.153,2.075,2.075,0,0,1-1.542,0l0,0-.6-.973-5.741.49-.609.052-5.652.482-.389.033Z" transform="translate(-489.337 578.978)"/>
      <path id="Path_1874" data-name="Path 1874" class="cls-6" d="M919.429,613.411c1.668.813,3.259-2.069,4-3.7a38.363,38.363,0,0,1-3.856-.532C918.827,610.438,917.83,612.632,919.429,613.411Z" transform="translate(-621.983 571.121)"/>
      <path id="Path_1875" data-name="Path 1875" class="cls-13" d="M889.552,485.862a1.747,1.747,0,0,0,.2.56,43.18,43.18,0,0,0,2.4,3.82,4.149,4.149,0,0,1,1.317,1.317,8.806,8.806,0,0,1,.63,2.777s1.088,4.322,1.6,4.923c.258.3.143.48-.036.583a2.551,2.551,0,0,0-.9.846c-.75,1.207-1.949,3.6-.263,4.422,2.29,1.116,4.437-4.734,4.437-4.734s-.429-4.151-.544-4.866-.8-3.664-.8-3.664-.487-1.259-.773-2.147a7.259,7.259,0,0,0-1.145-1.918,35.625,35.625,0,0,0-1.975-3.549c-.2-.212-.479-.48-.721-.707-.28-.262-.51-.467-.51-.467S889.523,485.175,889.552,485.862Z" transform="translate(-597.115 679.189)"/>
      <path id="Path_1877" data-name="Path 1877" class="cls-6" d="M768.213,600.885l.673.405c3.6,2.168,13.411,8.045,13.948,8,.141-.012.564-.076,1.148-.171l.5-.082L784.5,609a6.58,6.58,0,0,0,.656-1.6c.6-2.29-2.376-4.036-2.376-4.036l-.63-.489c-.716-1.205-5.868-2.344-5.868-2.344l-.664-.446-.354-.238-.093-.062-.806-.542-4.036.286-1.2.771-.126.081-.445.286Z" transform="translate(-493.142 579.642)"/>
      <path id="Path_1879" data-name="Path 1879" class="cls-12" d="M752.018,607.97c1.689,0,6.04,2.032,6.04,2.032a2.885,2.885,0,0,0,2.09.458s-2.118,2.147-2.061,3.034-1.2,2.347-1.2,2.347l-3.893,7.7c.286,5.467,5.9,3.95,5.9,3.95l.229-1.288c.343-.172.859-1.889.859-1.889s0-.687.343-.887a9.147,9.147,0,0,0,1.059-2.261,15.717,15.717,0,0,0,1.46-2.948c-.086-.344,1.116-2.09,1.116-2.09s2.032-2,1.946-2.362,1.632-2.19,1.632-2.19a5.779,5.779,0,0,0,1.52-1.774,6.582,6.582,0,0,0,.656-1.6c.484-1.844-1.352-3.336-2.086-3.846-.178-.124-.29-.19-.29-.19l-.63-.49a6.1,6.1,0,0,0-2.828-1.5c-.908-.3-1.824-.546-2.41-.692-.388-.1-.63-.15-.63-.15l-.664-.446-.234-.157-.214-.144-.806-.542-1.8.127-2.24.159-1.2.771-.571.368-2.237,1.438s-.059.551-.078,1.29c0,.057,0,.115,0,.175C750.768,605.864,750.929,607.97,752.018,607.97Z" transform="translate(-478.212 578.978)"/>
      <path id="Path_1880" data-name="Path 1880" class="cls-13" d="M819.562,414.815l.6,2.147s1.059,3.693,1.174,3.95a40.7,40.7,0,0,0,3.006,2.92c.114.057,1.626.916,1.626.916s.12-4.723.005-6.1a3.923,3.923,0,0,1,.074-.9,33.858,33.858,0,0,1,1.028-3.872c.321-1.019.587-1.783.587-1.783s-6.7-.286-6.469.372a2.351,2.351,0,0,1-.025,1.083c-.138.686-.427,1.375-.6,1.322a2.4,2.4,0,0,0-.531-.059C819.786,414.806,819.562,414.815,819.562,414.815Z" transform="translate(-537.141 740.032)"/>
      <path id="Path_1881" data-name="Path 1881" class="cls-6" d="M830.785,413.55a4.954,4.954,0,0,0,5.908.329c.321-1.019.587-1.783.587-1.783s-6.7-.286-6.469.372A2.35,2.35,0,0,1,830.785,413.55Z" transform="translate(-546.758 740.029)"/>
      <path id="Path_1882" data-name="Path 1882" class="cls-13" d="M828.271,365.234a4.934,4.934,0,0,1-.248,1.546,4.047,4.047,0,0,1-.143.379,4.953,4.953,0,0,1-9.2-.192,4.884,4.884,0,0,1-.309-1.642c0-.03,0-.062,0-.092a4.952,4.952,0,1,1,9.9,0Z" transform="translate(-536.117 784.369)"/>
      <path id="Path_1883" data-name="Path 1883" class="cls-6" d="M819.562,431.436l.6,2.147s1.059,3.693,1.174,3.95a40.729,40.729,0,0,0,3.006,2.92c.114.057,1.626.916,1.626.916s.12-4.723.005-6.1a3.924,3.924,0,0,1,.074-.9l-.389,1.587.029,3.177.229.172-.515.773v-.573a13.533,13.533,0,0,1-2.118-2.519,12.489,12.489,0,0,0-1.317-2.092,16.986,16.986,0,0,1-1.2-2.316,3.694,3.694,0,0,0-.731-1.147C819.786,431.427,819.562,431.436,819.562,431.436Z" transform="translate(-537.141 723.412)"/>
      <path id="Path_1884" data-name="Path 1884" class="cls-6" d="M889.552,485.862a1.746,1.746,0,0,0,.2.56,3.533,3.533,0,0,0,3.228-2.9c-.28-.262-.51-.467-.51-.467S889.523,485.175,889.552,485.862Z" transform="translate(-597.114 679.18)"/>
      <path id="Path_1885" data-name="Path 1885" class="cls-6" d="M750.8,604.368c.578-.409,1.127-.966,1.455-1.121a6.316,6.316,0,0,0,1.231-.973s.189-.128.479-.3a5.787,5.787,0,0,1,2.069-.818c.6-.05,2.583-.177,4.145-.274l2.038-.127s1.861-.658,2.662-.229a8.412,8.412,0,0,0,1.8.658s0-.062,0-.17l0,0-.6-.973-6.35.542-.806-.542-4.036.286-1.2.771-1.034.088.463.279-2.237,1.438S750.817,603.543,750.8,604.368Z" transform="translate(-478.224 578.954)"/>
      <path id="Path_1886" data-name="Path 1886" class="cls-7" d="M742.763,459.154a2.592,2.592,0,0,0,.838-.427h0c.576-.408,1.124-.964,1.452-1.118a6.323,6.323,0,0,0,1.231-.973,7.236,7.236,0,0,1,2.548-1.116c.281-.023.868-.064,1.574-.11.723-.048,1.568-.1,2.337-.149l1.213-.076,1.059-.065s1.861-.658,2.662-.229a8.415,8.415,0,0,0,1.8.658,16.812,16.812,0,0,1,.258-2.834c.229-.83.544-2.347.544-2.347s.258-2.09.515-3.034,1.26-6.211,1.775-6.555.8.258.8.258a3.613,3.613,0,0,0,3.492-3.836,13.237,13.237,0,0,1-1.717-2,11.728,11.728,0,0,0-1.632-1.889s-.859-1.6-1.832-1.632a7.831,7.831,0,0,0-1.379.042l-.826,3.364.029,3.177.229.172-.515.773v-.572a13.535,13.535,0,0,1-2.118-2.519,12.494,12.494,0,0,0-1.317-2.092,16.975,16.975,0,0,1-1.2-2.316c-.029-.344-.83-1.264-.83-1.264a2.1,2.1,0,0,0-.487,0,.52.52,0,0,1-.213-.03,2.866,2.866,0,0,0-1.43-.081,7.485,7.485,0,0,0-2.908,1.032,9.392,9.392,0,0,0-2.576,4.208l5.553,2-.475.9-4.42,8.4s-.147.239-.345.551h0c-.258.4-.6.933-.828,1.223a4.636,4.636,0,0,0-.286,2.147,2.292,2.292,0,0,1-.372,1.059c-.286.286-.229,1.345-.229,1.345l-.744,2.777s-.687.63-.687.916a3.78,3.78,0,0,1-.544,1.088S741.933,459.354,742.763,459.154Z" transform="translate(-471.02 724.414)"/>
      <path id="Path_1887" data-name="Path 1887" class="cls-6" d="M935.694,646.435s-1.8.6-2.29,1.46S935.694,646.435,935.694,646.435Z" transform="translate(-634.642 539.204)"/>
      <path id="Path_1888" data-name="Path 1888" class="cls-6" d="M929.426,633.237c-.057.086-2.47,2.507-2.319,3.091S929.426,633.237,929.426,633.237Z" transform="translate(-629.289 550.513)"/>
      <path id="Path_1889" data-name="Path 1889" class="cls-6" d="M833.209,645.235s-2.691,1.269-2.92,1.822S833.209,645.235,833.209,645.235Z" transform="translate(-546.323 540.232)"/>
      <path id="Path_1890" data-name="Path 1890" class="cls-6" d="M832.888,656.634s-2.428,1.031-2.76,1.288S832.888,656.634,832.888,656.634Z" transform="translate(-546.173 530.466)"/>
      <path id="Path_1891" data-name="Path 1891" class="cls-6" d="M831.178,671.069s-1.075.8-1.668.172S831.178,671.069,831.178,671.069Z" transform="translate(-545.58 518.236)"/>
      <path id="Path_1892" data-name="Path 1892" class="cls-6" d="M841.89,526.051c-.058.086-3.636,6.526-4.58,7.013S841.89,526.051,841.89,526.051Z" transform="translate(-552.255 642.346)"/>
      <path id="Path_1893" data-name="Path 1893" class="cls-6" d="M844.131,543.049c0,.143-3.492,7.614-4.065,7.7S844.131,543.049,844.131,543.049Z" transform="translate(-554.669 627.784)"/>
      <path id="Path_1894" data-name="Path 1894" class="cls-6" d="M761.35,576.644s-1.687,3.6-2.347,3.807S761.35,576.644,761.35,576.644Z" transform="translate(-485.167 598.999)"/>
      <path id="Path_1895" data-name="Path 1895" class="cls-6" d="M768.006,565.446s-.581,1.26-.935,1.26S768.006,565.446,768.006,565.446Z" transform="translate(-492.109 608.592)"/>
      <path id="Path_1896" data-name="Path 1896" class="cls-6" d="M828.271,365.234a4.931,4.931,0,0,1-.248,1.546q-.062.193-.143.379a1.458,1.458,0,0,1-.694-.3,1.718,1.718,0,0,1-.52-.555,6.971,6.971,0,0,1-.253-.723,1.682,1.682,0,0,0-1.358-1.029.528.528,0,0,1-.419.716,1.024,1.024,0,0,1-.857-.382c-.222-.239-.382-.53-.6-.769a1.024,1.024,0,0,0-.857-.382,1.961,1.961,0,0,0-.744.422.717.717,0,0,1-.8.1c-.129-.1-.192-.259-.315-.364-.316-.265-.809.009-1.042.351a2.766,2.766,0,0,1-1.045,1.089c0-.03,0-.062,0-.092a4.952,4.952,0,1,1,9.9,0Z" transform="translate(-536.117 784.369)"/>
      <path id="Path_1897" data-name="Path 1897" class="cls-7" d="M812.7,338.844c.233-.342.725-.616,1.042-.35.123.1.186.267.314.363a.716.716,0,0,0,.8-.1,1.948,1.948,0,0,1,.744-.422,1.021,1.021,0,0,1,.857.382c.221.239.382.529.6.769a1.021,1.021,0,0,0,.857.382.527.527,0,0,0,.419-.715,1.682,1.682,0,0,1,1.358,1.029,6.982,6.982,0,0,0,.254.723,1.715,1.715,0,0,0,.52.555,1.232,1.232,0,0,0,.9.3c.321-.056.592-.423.443-.713.1.156.323-.061.356-.245a2.619,2.619,0,0,0-.066-1.208,3.246,3.246,0,0,1-.362-1.6,4.49,4.49,0,0,1,.689-1.114,2.014,2.014,0,0,0-.189-2.194,2.494,2.494,0,0,0-2.06-.9,3.409,3.409,0,0,1-.648.012,2.132,2.132,0,0,1-.95-.508l-2.4-1.872a2.95,2.95,0,0,0-.906-.546,1,1,0,0,0-1,.182c-.449.449-.164,1.222-.344,1.83a1.762,1.762,0,0,1-1.179,1.063c-.52.178-1.077.217-1.611.346a.884.884,0,0,0-.431.2.853.853,0,0,0-.187.609,3.318,3.318,0,0,0,.372,1.548c.278.534.718,1.083.562,1.664a2.121,2.121,0,0,1-.528.785c-.453.521-.606,1.291.247,1.022A2.468,2.468,0,0,0,812.7,338.844Z" transform="translate(-529.401 809.615)"/>
      <g id="Group_416" data-name="Group 416" class="cls-14" transform="translate(281.131 1144.493)">
        <path id="Path_1898" data-name="Path 1898" d="M822.429,381.844c-.033.183-.253.4-.356.245.149.29-.122.657-.443.713a1.232,1.232,0,0,1-.9-.3,1.716,1.716,0,0,1-.52-.555,6.966,6.966,0,0,1-.254-.723A1.682,1.682,0,0,0,818.6,380.2a.526.526,0,0,1-.419.715,1.021,1.021,0,0,1-.858-.382c-.221-.239-.382-.529-.6-.769a1.022,1.022,0,0,0-.857-.382,1.951,1.951,0,0,0-.744.422.716.716,0,0,1-.8.1c-.128-.1-.191-.26-.314-.363-.317-.266-.809.008-1.042.35a2.467,2.467,0,0,1-1.515,1.276c-.27.085-.438.066-.529-.016-.18.414-.1.778.529.58a2.467,2.467,0,0,0,1.515-1.276c.233-.342.725-.616,1.042-.35.123.1.186.267.314.363a.716.716,0,0,0,.8-.1,1.949,1.949,0,0,1,.744-.422,1.021,1.021,0,0,1,.857.382c.221.239.382.53.6.769a1.021,1.021,0,0,0,.858.382.526.526,0,0,0,.419-.715,1.682,1.682,0,0,1,1.358,1.029,6.973,6.973,0,0,0,.254.723,1.716,1.716,0,0,0,.52.555,1.232,1.232,0,0,0,.9.3c.321-.056.592-.423.443-.713.1.156.323-.061.356-.245a2.614,2.614,0,0,0,.026-.749C822.448,381.721,822.44,381.783,822.429,381.844Z" transform="translate(-810.79 -376.481)"/>
        <path id="Path_1899" data-name="Path 1899" d="M811.48,362.076c0-.007.005-.014.007-.022.156-.581-.284-1.13-.562-1.664a3.319,3.319,0,0,1-.356-1.209,1.573,1.573,0,0,0-.016.225,3.315,3.315,0,0,0,.372,1.548A5.826,5.826,0,0,1,811.48,362.076Z" transform="translate(-810.553 -359.181)"/>
        <path id="Path_1900" data-name="Path 1900" d="M889.395,365.392a4.49,4.49,0,0,0-.689,1.114,1.242,1.242,0,0,0,.005.548,4.7,4.7,0,0,1,.683-1.1,1.881,1.881,0,0,0,.22-1.208,1.77,1.77,0,0,1-.22.644Z" transform="translate(-877.495 -363.951)"/>
      </g>
      <path id="Path_1901" data-name="Path 1901" class="cls-6" d="M770.757,496.519h0a4.4,4.4,0,0,1,.088.479s2.261,5.3,2.548,5.61c.088.1.42.573.838,1.186.151.222.313.461.479.708.866,1.285,1.832,2.743,1.832,2.743l2.118,1.861s4.608.369,6.072-1.127c-.177-.124-.29-.19-.29-.19l-.63-.49a6.1,6.1,0,0,0-2.828-1.5c-1.16.009-2.108.1-2.108.1l-.3-.795-.315-.829-1.6-4.216s-1.033-5.324-1.376-5.582-.258-1.059-.258-1.059.63-2.261.4-2.576.372-2.633.372-2.633a2.4,2.4,0,0,0-.275-.642l-4.42,8.4S770.956,496.207,770.757,496.519Z" transform="translate(-495.322 675.324)"/>
      <path id="Path_1902" data-name="Path 1902" class="cls-13" d="M770.888,476.307s-.6,2.319-.372,2.633-.4,2.576-.4,2.576-.086.8.258,1.059,1.376,5.582,1.376,5.582L773.967,494s6.94-.687,6.224,1.488-6.441,1.717-6.441,1.717l-2.118-1.861s-2.862-4.322-3.149-4.637-2.548-5.61-2.548-5.61a3.423,3.423,0,0,0-.6-1.6c-.487-.544-.115-1.464-.115-1.464s-.6-6.923.029-7.753S770.229,473.817,770.888,476.307Z" transform="translate(-490.355 687.055)"/>
      <path id="Path_1903" data-name="Path 1903" class="cls-6" d="M765.29,458.1l-1.8,1.088s-.515,1.746-.916,1.975c0,0,3.607-2,6.326,2.6a1.043,1.043,0,0,1,.286-.887c.372-.286.286-1.517.286-1.517a4.947,4.947,0,0,0,.258-.6A2.985,2.985,0,0,0,765.29,458.1Z" transform="translate(-488.306 700.9)"/>
      <path id="Path_1904" data-name="Path 1904" class="cls-7" d="M764.89,457.3l-1.8,1.088s-.515,1.746-.916,1.975c0,0,3.607-2,6.326,2.6a1.043,1.043,0,0,1,.286-.887c.372-.286.286-1.517.286-1.517a4.938,4.938,0,0,0,.258-.6A2.985,2.985,0,0,0,764.89,457.3Z" transform="translate(-487.963 701.586)"/>
      <path id="Path_1914" data-name="Path 1914" class="cls-4" d="M215.866,337.9c0,19.2-6.5,34.771-36.475,34.771-20.145,0-35.73-5.005-36.475-34.771-.481-19.2,16.331-34.771,36.475-34.771S215.866,318.7,215.866,337.9Z" transform="translate(42.681 833.39)"/>
      <path id="Path_1915" data-name="Path 1915" class="cls-15" d="M349.994,307.369h0Z" transform="translate(-134.773 829.7)"/>
      <path id="Path_1916" data-name="Path 1916" class="cls-15" d="M350.186,306.924c.093-.015.276-.04.542-.061l-.593.07.032-.006Z" transform="translate(-134.894 830.133)"/>
      <path id="Path_1917" data-name="Path 1917" class="cls-15" d="M380.715,318.314l-2.662.959a59.478,59.478,0,0,0-4.374-5.214,42.732,42.732,0,0,0-5.539-4.962c-6.817-5.052-12.09-5.181-13.831-5.051l4-.471a32.537,32.537,0,0,1,10.745,3.884,35.5,35.5,0,0,1,6.457,4.77A31.573,31.573,0,0,1,380.715,318.314Z" transform="translate(-138.472 832.955)"/>
      <path id="Path_1918" data-name="Path 1918" class="cls-15" d="M360.269,329.291s-3.514-11.715-.533-14.91c0,0,4.686-1.6,8.2,7.455Z" transform="translate(-142.093 823.789)"/>
      <path id="Path_1919" data-name="Path 1919" class="cls-8" d="M494.962,302.96s9.32-7.92,13.443-6.471c0,0,3.344,3.651-3.538,10.5Z" transform="translate(-258.995 839.176)"/>
      <path id="Path_1921" data-name="Path 1921" class="cls-4" d="M546.912,495.722c0,10.322-7.407,18.477-14.377,18.477s-10.863-8.155-10.863-18.477,5.662-18.287,12.62-18.69C545.314,476.393,546.912,485.4,546.912,495.722Z" transform="translate(-281.884 684.406)"/>
      <path id="Path_1922" data-name="Path 1922" class="cls-16" d="M546.912,495.722c0,10.322-7.407,18.477-14.377,18.477s-10.863-8.155-10.863-18.477,5.662-18.287,12.62-18.69C545.314,476.393,546.912,485.4,546.912,495.722Z" transform="translate(-281.884 684.406)"/>
      <ellipse id="Ellipse_379" data-name="Ellipse 379" class="cls-17" cx="2.343" cy="2.982" rx="2.343" ry="2.982" transform="translate(247.882 1178.668)"/>
      <ellipse id="Ellipse_380" data-name="Ellipse 380" class="cls-17" cx="2.343" cy="2.982" rx="2.343" ry="2.982" transform="translate(256.187 1176.11)"/>
      <path id="Path_1923" data-name="Path 1923" class="cls-18" d="M458.759,325.745a4.251,4.251,0,0,1-.455,1.923,4.087,4.087,0,0,1-1.834,1.83,42.732,42.732,0,0,0-5.539-4.962,4.174,4.174,0,0,1,.916-1.638,3.926,3.926,0,0,1,2.912-1.3A4.078,4.078,0,0,1,458.759,325.745Z" transform="translate(-221.266 817.515)"/>
    </g>
  </g>
</svg>
