<svg xmlns="http://www.w3.org/2000/svg" width="43.383" height="36.815" viewBox="0 0 43.383 36.815">
  <defs>
    <style>
      .cls-1 {
        fill: none;
        stroke: #009C72;
        stroke-width: 2px;
      }
    </style>
  </defs>
  <g id="headphone-symbol_1_" data-name="headphone-symbol (1)" transform="translate(1 -21.804)">
    <g id="Group_523" data-name="Group 523" transform="translate(0 22.804)">
      <path id="Path_2355" data-name="Path 2355" class="cls-1" d="M62.743,146.359v14.172a1.527,1.527,0,1,0,3.054,0V146.359a1.527,1.527,0,1,0-3.054,0Z" transform="translate(-53.708 -127.26)"/>
      <path id="Path_2356" data-name="Path 2356" class="cls-1" d="M4.242,57.619H7.6V40.793a2.136,2.136,0,0,0,.024-.244,13.06,13.06,0,1,1,26.12,0,2.125,2.125,0,0,0,.033.326V57.619h3.363a4.316,4.316,0,0,0,4.24-4.387V44.457a4.37,4.37,0,0,0-3.062-4.212,17.635,17.635,0,0,0-35.267,0A4.366,4.366,0,0,0,0,44.459v8.773A4.317,4.317,0,0,0,4.242,57.619Z" transform="translate(0 -22.804)"/>
      <path id="Path_2357" data-name="Path 2357" class="cls-1" d="M203.454,146.359v14.172a1.527,1.527,0,1,0,3.054,0V146.359a1.527,1.527,0,1,0-3.054,0Z" transform="translate(-174.157 -127.26)"/>
    </g>
  </g>
</svg>
