<svg xmlns="http://www.w3.org/2000/svg" width="16.048" height="19.124" viewBox="0 0 16.048 19.124">
  <defs>
    <style>
      .cls-1 {
        fill: #00b584;
        stroke: #009C72;
      }
    </style>
  </defs>
  <g id="hourglass" transform="translate(-5)">
    <path id="Path_2358" data-name="Path 2358" class="cls-1" d="M20.727,18.487h-.963V17.212h-1.6V13.954a2.56,2.56,0,0,0-1.152-2.137L13.6,9.562l3.4-2.254a2.56,2.56,0,0,0,1.152-2.137V1.912h1.6V.637h.963a.319.319,0,1,0,0-.637H5.321a.319.319,0,1,0,0,.637h.963V1.912h1.6V5.171A2.56,2.56,0,0,0,9.041,7.308l3.4,2.254-3.4,2.254a2.56,2.56,0,0,0-1.152,2.137v3.258h-1.6v1.275H5.321a.319.319,0,1,0,0,.637H20.727a.319.319,0,1,0,0-.637ZM6.926,1.275V.637h12.2v.637H6.926ZM9.4,6.778a1.925,1.925,0,0,1-.866-1.607V1.912h8.987V5.171a1.925,1.925,0,0,1-.866,1.607l-3.627,2.4Zm-.866,7.176A1.925,1.925,0,0,1,9.4,12.347l3.627-2.4,3.627,2.4a1.925,1.925,0,0,1,.866,1.607v3.258H8.531Zm-1.6,3.9h12.2v.637H6.926Z" transform="translate(0 0)"/>
    <path id="Path_2359" data-name="Path 2359" class="cls-1" d="M19.024,14.733a.722.722,0,0,1-.322-.6v-.78a.351.351,0,0,0-.7,0v.78a1.422,1.422,0,0,0,.635,1.186L20.263,16.4a.351.351,0,0,0,.39-.584Z" transform="translate(-8.902 -8.939)"/>
    <path id="Path_2360" data-name="Path 2360" class="cls-1" d="M36.174,39.144l-1.628-1.086a.351.351,0,1,0-.39.584l1.628,1.086a.721.721,0,0,1,.322.6v.78a.351.351,0,0,0,.7,0v-.78A1.422,1.422,0,0,0,36.174,39.144Z" transform="translate(-19.858 -26.129)"/>
  </g>
</svg>
