<svg xmlns="http://www.w3.org/2000/svg" width="34.775" height="16.681" viewBox="0 0 34.775 16.681">
  <defs>
    <style>
      .cls-1 {
        fill: none;
        stroke: #009C72;
        stroke-width: 2px;
      }
    </style>
  </defs>
  <g id="infinity" transform="translate(1 -140.333)">
    <g id="Group_449" data-name="Group 449" transform="translate(0 141.333)">
      <path id="Path_2315" data-name="Path 2315" class="cls-1" d="M25.4,141.333a7.286,7.286,0,0,0-5.155,2.1l-3.858,3.414-.007-.007-2.069,1.823.014.014-3.68,3.264a4.62,4.62,0,1,1-3.271-7.873,4.666,4.666,0,0,1,3.332,1.407l1.55,1.372,2.062-1.823-1.728-1.529a7.337,7.337,0,1,0-.061,10.434l3.858-3.421.007.007,2.062-1.83-.007-.007,3.68-3.257a4.618,4.618,0,1,1,3.271,7.866,4.686,4.686,0,0,1-3.332-1.4l-1.55-1.372-2.062,1.83,1.728,1.53A7.36,7.36,0,1,0,25.4,141.333Z" transform="translate(0 -141.333)"/>
    </g>
  </g>
</svg>
