<svg xmlns="http://www.w3.org/2000/svg" width="178.968" height="178.968" viewBox="0 0 178.968 178.968">
  <defs>
    <style>
      .cls-1 {
        fill: #e2f1ed;
      }

      .cls-2 {
        fill: #eff8f5;
      }

      .cls-3 {
        fill: #a9d7ca;
      }

      .cls-4 {
        fill: #d4ebe5;
      }

      .cls-5 {
        fill: #e8f4f1;
      }
    </style>
  </defs>
  <g id="Group_837" data-name="Group 837" transform="translate(412.374 -103.385)">
    <g id="Group_680" data-name="Group 680" transform="translate(-412.374 103.385)">
      <g id="Group_679" data-name="Group 679">
        <ellipse id="Ellipse_3264" data-name="Ellipse 3264" class="cls-1" cx="8.21" cy="7.266" rx="8.21" ry="7.266" transform="translate(152.927 76.1)"/>
        <path id="Path_2624" data-name="Path 2624" class="cls-2" d="M-330.267,163.2a17.187,17.187,0,0,0,6.805,1.352,21.35,21.35,0,0,0,8.529-1.847c.372-.165.738-.342,1.1-.525l-.012.024.561-.313a20.5,20.5,0,0,0,7.1-6.357c.006-.012.012-.018.018-.03q.212-.3.407-.62c.012-.018.024-.041.035-.059a17.13,17.13,0,0,0,.921-1.712c.059-.118.112-.236.165-.348s.106-.254.154-.378c.065-.148.118-.3.177-.449.024-.059.047-.112.065-.171s.041-.124.065-.189c.041-.112.077-.23.112-.342l.106-.336c.035-.142.077-.277.112-.413.024-.094.047-.183.071-.272l.106-.478c.012-.071.024-.136.035-.207.035-.177.065-.36.094-.543.006-.041.012-.089.018-.13.03-.207.053-.407.071-.614a.075.075,0,0,0,.006-.035,13.317,13.317,0,0,0-.266-4.138c-.006-.035-.012-.065-.018-.094q-.062-.274-.142-.549c-.018-.071-.035-.142-.059-.213-.041-.159-.094-.319-.142-.478-.035-.1-.071-.2-.106-.3-.047-.142-.094-.277-.148-.413s-.106-.266-.159-.4c-.047-.106-.089-.212-.136-.325-.1-.224-.207-.449-.319-.667a.548.548,0,0,0-.03-.059c-3.288-6.481-9.786-9.4-17.389-7.8-.384.077-.761.171-1.145.277-.089.024-.177.047-.272.071-.319.094-.643.195-.962.3-.165.053-.325.112-.484.171-.195.071-.4.148-.59.224-.277.112-.555.224-.832.348-.124.053-.254.112-.378.171-.289.13-.567.272-.844.413-.177.089-.36.183-.531.277-.153.083-.3.165-.449.254-.307.177-.614.36-.915.549-.03.018-.053.035-.083.053a19.612,19.612,0,0,0-8.257,10.288l-.089.242.018-.006a15.776,15.776,0,0,0-.679,4.492C-338.861,155.955-335.338,161.007-330.267,163.2Zm18.752,30.079c0,3.536,3.217,6.4,7.171,6.4s7.166-2.869,7.166-6.4-3.217-6.4-7.166-6.4S-311.515,189.746-311.515,193.276Zm18.758-75.6a3.22,3.22,0,0,0,3.37-3.034,3.22,3.22,0,0,0-3.37-3.034,3.222,3.222,0,0,0-3.376,3.034A3.222,3.222,0,0,0-292.758,117.671Zm60.063,77.346c4.852,0,8.8-3.524,8.8-7.856s-3.949-7.856-8.8-7.856-8.8,3.524-8.8,7.856S-237.546,195.017-232.694,195.017Zm-71.65-90.632a88.992,88.992,0,0,1,88.891,88.891,88.639,88.639,0,0,1-27.623,64.348,21.848,21.848,0,0,1-12.029-.643,1.069,1.069,0,0,1-.738-1.287c.862-2.154,1.659-4.586-1.428-4.421-2.739.142-5.525,1.358-8.045,2.337-2.9,1.133-5.755,2.414-8.682,3.494-1.605.6-3.559,1.44-5.306,1.057a1.063,1.063,0,0,1-.738-1.287c.732-3.158,3.512-7.986,2.036-11.191-1.865-4.055-7.272-.844-10.229-.313a6.348,6.348,0,0,1-5.95-1.93c-3.028-3.046-1.948-7.26-.018-10.595,2.756-4.757,6.906-8.694,10.8-12.507,3.447-3.364,7.166-6.575,9.42-10.908.6-1.145,1.724-3.146.289-4.014-1.334-.8-3.972-.03-5.33.272a85.334,85.334,0,0,0-13.806,4.8c-4.149,1.735-8.116,3.736-12.194,5.625-4.173,1.936-12.23,5.973-16.255,1.635a4.543,4.543,0,0,1-1.074-2.8,3.29,3.29,0,0,0-2.556-3.164c-3.1-1.116-6.563-1.092-9.78-1.694-2.385-.449-5.289-1.157-6.829-3.217-1.505-2.013-.862-4.757.012-6.894,1.062-2.615,3.494-5.59,3.052-8.541-.472-3.14-4.108-4.746-6.941-4.633-1.287.053-2.91.578-4.055-.236-1.411-1-.986-3.117-.72-4.557a21.145,21.145,0,0,1,3.748-9.214c1.033-1.4,2.208-2.815,1.346-4.61-1.169-2.461-3.783-3.37-6.3-3.559-5.011-.378-10.028-.041-13.705-4.1-4.94-5.46.189-12.968,3.837-17.518,6.569-8.181,14.809-14.98,22.571-21.975,3.671-3.305,7.354-6.623,10.725-10.235a39.684,39.684,0,0,0,3.547-4.138A89.132,89.132,0,0,1-304.344,104.385Zm43.69,62.7a7.871,7.871,0,0,0,1.5-.142,6.731,6.731,0,0,0,4.45-3l.336-.466-.071.03a7.265,7.265,0,0,0-1.257-8.824c-2.414-2.638-6.758-4.374-10.524-2.886l.018-.041-.307.153c-.077.03-.153.077-.224.112l-.23.112c-.106.053-.218.112-.331.171a6.676,6.676,0,0,0-3.069,5.472c0,.059-.006.112-.006.171a7.055,7.055,0,0,0,.053,1,9.363,9.363,0,0,0,3.978,6.251A9.911,9.911,0,0,0-260.654,167.081Zm-.171,63.835c.189.094.378.183.555.26a12.253,12.253,0,0,0,4.852.962,15.169,15.169,0,0,0,6.062-1.31,14.015,14.015,0,0,0,7.608-7.785,9.888,9.888,0,0,0-.514-7.98,11.2,11.2,0,0,0-2.243-3.046l-.531-.519.012.053a11.109,11.109,0,0,0-9.627-2.054c-5.666,1.186-11.7,6.115-11.734,12.9a9.714,9.714,0,0,0,4.138,7.644l-.118-.006.773.449c.053.035.118.065.177.1l.071.047a.179.179,0,0,1,.047.024C-261.138,230.744-260.985,230.833-260.825,230.916Zm18.563.36a15.424,15.424,0,0,0,4.787-11.362l-.59.012a14.822,14.822,0,0,1-4.6,10.925ZM-264.6,212.648l-.348-.472a14.933,14.933,0,0,0-5.991,10.636l.584.047A14.387,14.387,0,0,1-264.6,212.648Zm-3.931-63.487-.319-.5a11.822,11.822,0,0,0-4.993,7.053,11.836,11.836,0,0,0,1.192,8.564l.514-.3a11.211,11.211,0,0,1-1.133-8.128A11.232,11.232,0,0,1-268.534,149.161Z" transform="translate(393.831 -103.795)"/>
        <path id="Path_2625" data-name="Path 2625" class="cls-3" d="M-145.483,231.905c-4.527,0-8.21,3.258-8.21,7.266s3.683,7.266,8.21,7.266,8.21-3.258,8.21-7.266S-140.956,231.905-145.483,231.905Zm0,15.122c-4.852,0-8.8-3.524-8.8-7.856s3.949-7.856,8.8-7.856,8.8,3.524,8.8,7.856S-140.632,247.027-145.483,247.027Z" transform="translate(306.62 -155.805)"/>
        <path id="Path_2626" data-name="Path 2626" class="cls-3" d="M-151.08,300.115a15.424,15.424,0,0,1-4.787,11.362l-.407-.425a14.823,14.823,0,0,0,4.6-10.925Z" transform="translate(307.435 -183.996)"/>
        <path id="Path_2627" data-name="Path 2627" class="cls-2" d="M-159.524,365.416c.508-.466,1.015-.933,1.511-1.411C-158.509,364.483-159.016,364.949-159.524,365.416Z" transform="translate(308.767 -210.176)"/>
        <path id="Path_2628" data-name="Path 2628" class="cls-4" d="M-169.808,288.725a10.748,10.748,0,0,1,1.417,2.137,9.3,9.3,0,0,1,.49,7.52,11.268,11.268,0,0,1-1.5,2.815,14.252,14.252,0,0,1-5.79,4.628,13.244,13.244,0,0,1-10.353.384,15.1,15.1,0,0,0,10.359-4.291C-172.216,299.048-169.454,293.583-169.808,288.725Z" transform="translate(319.429 -179.329)"/>
        <path id="Path_2629" data-name="Path 2629" class="cls-2" d="M-160.611,366.425c-.5.454-1.009.9-1.523,1.352C-161.62,367.328-161.113,366.879-160.611,366.425Z" transform="translate(309.837 -211.167)"/>
        <path id="Path_2630" data-name="Path 2630" class="cls-2" d="M-138.329,170.983a90,90,0,0,0-23.645-31.914,10.4,10.4,0,0,0,6.9-1.464,93.119,93.119,0,0,1,18.882,29.058A19.817,19.817,0,0,0-138.329,170.983Z" transform="translate(309.771 -117.407)"/>
        <path id="Path_2631" data-name="Path 2631" class="cls-2" d="M-163.3,368.825c-.5.431-.992.85-1.5,1.275C-164.3,369.675-163.8,369.25-163.3,368.825Z" transform="translate(310.931 -212.151)"/>
        <path id="Path_2632" data-name="Path 2632" class="cls-2" d="M-165.929,370.985c-.531.443-1.062.874-1.605,1.3C-167,371.859-166.46,371.422-165.929,370.985Z" transform="translate(312.049 -213.036)"/>
        <path id="Path_2633" data-name="Path 2633" class="cls-2" d="M-170.144,374.377c.519-.4,1.027-.791,1.541-1.192C-169.111,373.586-169.625,373.988-170.144,374.377Z" transform="translate(313.119 -213.937)"/>
        <path id="Path_2634" data-name="Path 2634" class="cls-1" d="M-190.773,303.253a9.242,9.242,0,0,1-4.681-7.679c.03-6.481,5.826-11.191,11.262-12.33a13.12,13.12,0,0,1,2.7-.289,9.819,9.819,0,0,1,6.953,2.686c.714,4.852-2.089,10.559-5.117,13.487A14.741,14.741,0,0,1-190.773,303.253Z" transform="translate(323.49 -176.965)"/>
        <path id="Path_2635" data-name="Path 2635" class="cls-2" d="M-172.8,375.635q-1.479,1.107-3.01,2.154Q-174.282,376.745-172.8,375.635Z" transform="translate(315.442 -214.941)"/>
        <path id="Path_2636" data-name="Path 2636" class="cls-3" d="M-178.816,381.015c-.2.136-.407.266-.608.4C-179.217,381.281-179.017,381.151-178.816,381.015Z" transform="translate(316.921 -217.146)"/>
        <path id="Path_2637" data-name="Path 2637" class="cls-1" d="M-185.745,196.727a8.433,8.433,0,0,1-8.281-1.706,9.083,9.083,0,0,1-2.869-9.556,7.309,7.309,0,0,1,3.2-.72A10.115,10.115,0,0,1-186.542,188a6.7,6.7,0,0,1,.974,8.47C-185.621,196.562-185.686,196.638-185.745,196.727Z" transform="translate(324.246 -136.723)"/>
        <path id="Path_2638" data-name="Path 2638" class="cls-2" d="M-184.294,384.154c.431-.26.862-.514,1.293-.779Q-183.639,383.773-184.294,384.154Z" transform="translate(318.917 -218.113)"/>
        <path id="Path_2639" data-name="Path 2639" class="cls-2" d="M-191.094,387.1q1.833-.956,3.612-2Q-189.261,386.14-191.094,387.1Z" transform="translate(321.703 -218.817)"/>
        <path id="Path_2640" data-name="Path 2640" class="cls-2" d="M-194.244,389.429c.626-.307,1.245-.626,1.859-.944C-193,388.81-193.618,389.122-194.244,389.429Z" transform="translate(322.994 -220.206)"/>
        <path id="Path_2641" data-name="Path 2641" class="cls-2" d="M-197.424,390.988q.947-.443,1.877-.9Q-196.477,390.554-197.424,390.988Z" transform="translate(324.297 -220.862)"/>
        <path id="Path_2642" data-name="Path 2642" class="cls-3" d="M-190.014,303.433a13.244,13.244,0,0,0,10.353-.384,14.252,14.252,0,0,0,5.79-4.628,11.268,11.268,0,0,0,1.5-2.815,9.3,9.3,0,0,0-.49-7.52,10.748,10.748,0,0,0-1.417-2.137c.354,4.858-2.408,10.323-5.377,13.192A15.1,15.1,0,0,1-190.014,303.433Zm-1.169-.59a14.741,14.741,0,0,0,11.114-4.126c3.028-2.928,5.832-8.635,5.117-13.487a9.819,9.819,0,0,0-6.953-2.686,13.122,13.122,0,0,0-2.7.289c-5.436,1.139-11.232,5.849-11.262,12.33A9.242,9.242,0,0,0-191.183,302.843Zm-5.271-7.685c.03-6.788,6.068-11.716,11.734-12.9a11.109,11.109,0,0,1,9.627,2.054l-.012-.053.531.519a11.2,11.2,0,0,1,2.243,3.046,9.888,9.888,0,0,1,.514,7.98,14.014,14.014,0,0,1-7.608,7.785,15.169,15.169,0,0,1-6.062,1.31,12.252,12.252,0,0,1-4.852-.962c-.177-.077-.366-.165-.555-.26-.159-.083-.313-.171-.472-.26a.178.178,0,0,0-.047-.024l-.071-.047c-.059-.035-.124-.065-.177-.1l-.773-.449.118.006A9.714,9.714,0,0,1-196.454,295.158Z" transform="translate(323.9 -176.554)"/>
        <path id="Path_2643" data-name="Path 2643" class="cls-2" d="M-200.664,392.477c.637-.283,1.275-.567,1.906-.862C-199.389,391.916-200.027,392.2-200.664,392.477Z" transform="translate(325.625 -221.489)"/>
        <path id="Path_2644" data-name="Path 2644" class="cls-4" d="M-188.437,198.322c-2.627,2.686-6.994,2.249-9.981.1a8.784,8.784,0,0,1-3.742-5.849,6.24,6.24,0,0,1,2.509-5.908,9.767,9.767,0,0,0,3.24,9.6A9.047,9.047,0,0,0-188.437,198.322Z" transform="translate(326.259 -137.509)"/>
        <path id="Path_2645" data-name="Path 2645" class="cls-2" d="M-203.894,393.884c.637-.266,1.275-.531,1.907-.809C-202.619,393.352-203.257,393.624-203.894,393.884Z" transform="translate(326.948 -222.087)"/>
        <path id="Path_2646" data-name="Path 2646" class="cls-3" d="M-197.835,287.477a14.387,14.387,0,0,0-5.755,10.211l-.584-.047A14.933,14.933,0,0,1-198.183,287Z" transform="translate(327.063 -178.624)"/>
        <path id="Path_2647" data-name="Path 2647" class="cls-3" d="M-188.962,187.6a10.115,10.115,0,0,0-7.154-3.252,7.309,7.309,0,0,0-3.2.72,9.083,9.083,0,0,0,2.869,9.556,8.433,8.433,0,0,0,8.281,1.706c.059-.089.124-.165.177-.26A6.7,6.7,0,0,0-188.962,187.6Zm-9.863,9.639c2.987,2.148,7.354,2.585,9.981-.1a9.047,9.047,0,0,1-7.974-2.06,9.767,9.767,0,0,1-3.24-9.6,6.24,6.24,0,0,0-2.509,5.908A8.784,8.784,0,0,0-198.825,197.235Zm-.23-12.92c3.766-1.487,8.11.248,10.524,2.886a7.265,7.265,0,0,1,1.257,8.824l.071-.03-.336.466a6.731,6.731,0,0,1-4.45,3,7.871,7.871,0,0,1-1.5.142,9.911,9.911,0,0,1-5.684-1.895,9.363,9.363,0,0,1-3.978-6.251,7.065,7.065,0,0,1-.053-1c0-.059.006-.112.006-.171a6.676,6.676,0,0,1,3.069-5.472c.112-.059.224-.118.331-.171l.23-.112c.071-.035.148-.083.224-.112l.307-.153Z" transform="translate(326.666 -136.322)"/>
        <path id="Path_2648" data-name="Path 2648" class="cls-2" d="M-207.244,395.228c.655-.254,1.3-.508,1.954-.773C-205.94,394.727-206.589,394.98-207.244,395.228Z" transform="translate(328.321 -222.653)"/>
        <path id="Path_2649" data-name="Path 2649" class="cls-3" d="M-208.749,186.6a11.211,11.211,0,0,0,1.133,8.128l-.514.3a11.836,11.836,0,0,1-1.192-8.564,11.822,11.822,0,0,1,4.993-7.053l.319.5A11.232,11.232,0,0,0-208.749,186.6Z" transform="translate(329.307 -134.535)"/>
        <path id="Path_2650" data-name="Path 2650" class="cls-2" d="M-210.594,396.5c.649-.23,1.293-.466,1.936-.708C-209.3,396.043-209.945,396.279-210.594,396.5Z" transform="translate(329.693 -223.202)"/>
        <path id="Path_2651" data-name="Path 2651" class="cls-2" d="M-211.844,397.255c.248-.089.5-.171.738-.26C-211.348,397.084-211.6,397.172-211.844,397.255Z" transform="translate(330.206 -223.693)"/>
        <path id="Path_2652" data-name="Path 2652" class="cls-2" d="M-213.809,397.665c-.62.212-1.24.413-1.865.608C-215.048,398.078-214.429,397.872-213.809,397.665Z" transform="translate(331.775 -223.968)"/>
        <path id="Path_2653" data-name="Path 2653" class="cls-2" d="M-217.394,399.008c.342-.1.679-.207,1.015-.313C-216.715,398.807-217.052,398.908-217.394,399.008Z" transform="translate(332.48 -224.39)"/>
        <path id="Path_2654" data-name="Path 2654" class="cls-2" d="M-218.1,399.225c-.336.106-.673.207-1.015.3C-218.772,399.426-218.435,399.325-218.1,399.225Z" transform="translate(333.185 -224.607)"/>
        <path id="Path_2655" data-name="Path 2655" class="cls-2" d="M-220.3,399.936c.236-.071.472-.136.7-.2C-219.832,399.806-220.068,399.871-220.3,399.936Z" transform="translate(333.672 -224.816)"/>
        <path id="Path_2656" data-name="Path 2656" class="cls-2" d="M-222.674,388.87a89.336,89.336,0,0,0,35.521-18.545,27.133,27.133,0,0,0-1.877,4.362,3.6,3.6,0,0,1-1.641,1.718l-7.337,4.911a112.766,112.766,0,0,1-11.634,7.112,9.255,9.255,0,0,1-3,1.068l-.39.053a2.894,2.894,0,0,1-1.765-.089c-.72-.413-3.116-.632-5.832-.632C-221.3,388.829-221.983,388.841-222.674,388.87Z" transform="translate(334.643 -212.765)"/>
        <path id="Path_2657" data-name="Path 2657" class="cls-2" d="M-223.178,400.685c-.283.077-.567.153-.856.224C-223.751,400.833-223.461,400.762-223.178,400.685Z" transform="translate(335.201 -225.205)"/>
        <path id="Path_2658" data-name="Path 2658" class="cls-2" d="M-227.493,401.6c-.62.142-1.245.283-1.871.413C-228.738,401.878-228.113,401.737-227.493,401.6Z" transform="translate(337.385 -225.578)"/>
        <path id="Path_2659" data-name="Path 2659" class="cls-3" d="M-233.43,403.015c-.236.047-.478.089-.714.13C-233.9,403.1-233.666,403.062-233.43,403.015Z" transform="translate(339.343 -226.16)"/>
        <path id="Path_2660" data-name="Path 2660" class="cls-3" d="M-235.994,403.424c.366-.059.732-.124,1.092-.189C-235.262,403.3-235.628,403.365-235.994,403.424Z" transform="translate(340.101 -226.25)"/>
        <path id="Path_2661" data-name="Path 2661" class="cls-1" d="M-243.068,117.615a2.631,2.631,0,0,1,2.78,2.444,2.631,2.631,0,0,1-2.78,2.444,2.633,2.633,0,0,1-2.786-2.444A2.633,2.633,0,0,1-243.068,117.615Z" transform="translate(344.141 -109.216)"/>
        <path id="Path_2662" data-name="Path 2662" class="cls-2" d="M-242.214,404.377c.3-.035.584-.071.874-.112C-241.63,404.306-241.919,404.342-242.214,404.377Z" transform="translate(342.65 -226.672)"/>
        <path id="Path_2663" data-name="Path 2663" class="cls-3" d="M-240.7,119.649a2.631,2.631,0,0,0-2.78-2.444,2.633,2.633,0,0,0-2.786,2.444,2.633,2.633,0,0,0,2.786,2.444A2.631,2.631,0,0,0-240.7,119.649Zm-2.78-3.034a3.22,3.22,0,0,1,3.37,3.034,3.22,3.22,0,0,1-3.37,3.034,3.222,3.222,0,0,1-3.376-3.034A3.222,3.222,0,0,1-243.478,116.615Z" transform="translate(344.551 -108.806)"/>
        <path id="Path_2664" data-name="Path 2664" class="cls-3" d="M-254.954,405.448c.384-.018.761-.03,1.139-.053C-254.193,405.419-254.576,405.43-254.954,405.448Z" transform="translate(347.87 -227.135)"/>
        <path id="Path_2665" data-name="Path 2665" class="cls-1" d="M-271.914,250.949c0-3.205,2.951-5.814,6.581-5.814s6.575,2.609,6.575,5.814-2.951,5.814-6.575,5.814S-271.914,254.154-271.914,250.949Z" transform="translate(354.82 -161.468)"/>
        <path id="Path_2666" data-name="Path 2666" class="cls-4" d="M-284.6,160.656c4.008,7.9-.49,15.889-7.154,19.992,2.078-5.4,3.813-14.142-4.6-17.873a18.03,18.03,0,0,0-7.313-1.47,25.151,25.151,0,0,0-12.472,3.524c2.4-5.655,8.234-10.288,14.8-11.669C-294.012,151.631-287.755,154.429-284.6,160.656Z" transform="translate(372.939 -123.613)"/>
        <path id="Path_2667" data-name="Path 2667" class="cls-3" d="M-272.324,250.539c0,3.205,2.951,5.814,6.581,5.814s6.575-2.609,6.575-5.814-2.951-5.814-6.575-5.814S-272.324,247.334-272.324,250.539Zm-.59,0c0-3.53,3.217-6.4,7.171-6.4s7.166,2.874,7.166,6.4-3.217,6.4-7.166,6.4S-272.914,254.075-272.914,250.539Z" transform="translate(355.229 -161.058)"/>
        <path id="Path_2668" data-name="Path 2668" class="cls-1" d="M-317.358,172.116c6.445-3.984,14.254-4.94,19.915-2.432,8.34,3.7,6.115,12.72,4.008,17.825a18.971,18.971,0,0,1-1.7.844,18.8,18.8,0,0,1-14.856.49c-4.864-2.1-8.24-6.929-8.222-11.758A15.464,15.464,0,0,1-317.358,172.116Z" transform="translate(373.791 -129.985)"/>
        <path id="Path_2669" data-name="Path 2669" class="cls-3" d="M-295.955,334.61a17.941,17.941,0,0,0-.649-13.936l.525-.26a18.5,18.5,0,0,1,.673,14.4Z" transform="translate(364.937 -192.314)"/>
        <path id="Path_2670" data-name="Path 2670" class="cls-3" d="M-297.362,108.725c-.319.071-.643.153-.962.236C-298.005,108.878-297.681,108.8-297.362,108.725Z" transform="translate(365.641 -105.573)"/>
        <path id="Path_2671" data-name="Path 2671" class="cls-2" d="M-302.342,109.965c-.443.118-.885.248-1.322.378C-303.221,110.213-302.785,110.089-302.342,109.965Z" transform="translate(367.829 -106.081)"/>
        <path id="Path_2672" data-name="Path 2672" class="cls-1" d="M-311.2,329a6.787,6.787,0,0,1,.36,5.5,9.853,9.853,0,0,1-5.354,5.46c-.23.1-.46.183-.7.272A9.717,9.717,0,0,1-322.262,337a9.007,9.007,0,0,1-1.34-10.247,11.463,11.463,0,0,1,3.807-1.594,9.683,9.683,0,0,1,1.977-.212A7.153,7.153,0,0,1-311.2,329Z" transform="translate(376.423 -194.171)"/>
        <path id="Path_2673" data-name="Path 2673" class="cls-3" d="M-316.346,114.865c-.171.071-.342.142-.508.207C-316.683,115-316.518,114.936-316.346,114.865Z" transform="translate(373.234 -108.089)"/>
        <path id="Path_2674" data-name="Path 2674" class="cls-4" d="M-325.091,339.131a10.5,10.5,0,0,0,4.751,3.187,9.184,9.184,0,0,1-5.891-.348,6.841,6.841,0,0,1-4.214-6.02,8.9,8.9,0,0,1,3.477-6.735A9.661,9.661,0,0,0-325.091,339.131Z" transform="translate(378.803 -195.92)"/>
        <path id="Path_2675" data-name="Path 2675" class="cls-3" d="M-310.4,182.062a18.8,18.8,0,0,0,14.856-.49,18.967,18.967,0,0,0,1.7-.844c2.107-5.106,4.332-14.125-4.008-17.825-5.66-2.509-13.469-1.552-19.915,2.432a15.463,15.463,0,0,0-.856,4.97C-318.642,175.133-315.265,179.967-310.4,182.062Zm23.852-7.124a20.5,20.5,0,0,1-7.1,6.357l-.561.313.012-.024c-.366.183-.732.36-1.1.525a21.35,21.35,0,0,1-8.529,1.847,17.187,17.187,0,0,1-6.806-1.352c-5.07-2.19-8.594-7.242-8.576-12.3a15.777,15.777,0,0,1,.679-4.492l-.018.006.089-.242a19.612,19.612,0,0,1,8.258-10.288c.03-.018.053-.035.083-.053.3-.189.608-.372.915-.549.148-.089.3-.171.449-.254.171-.094.354-.189.531-.277.277-.142.555-.283.844-.413.124-.059.254-.118.378-.171.277-.124.555-.236.832-.348.195-.077.4-.153.59-.224.159-.059.319-.118.484-.171.319-.106.643-.207.962-.3.094-.024.183-.047.272-.071.384-.106.761-.2,1.145-.277,7.6-1.594,14.1,1.322,17.389,7.8a.541.541,0,0,1,.03.059c.112.218.218.443.319.667.047.112.089.218.136.325.053.136.112.266.159.4s.1.272.148.413c.035.094.071.195.106.3.047.159.1.319.142.478.024.071.041.142.059.212q.08.274.142.549c.006.03.012.059.018.094a13.315,13.315,0,0,1,.266,4.138.075.075,0,0,1-.006.035c-.018.207-.041.407-.071.614-.006.041-.012.089-.018.13-.03.183-.059.366-.094.543-.012.071-.024.136-.035.207l-.106.478c-.024.089-.047.177-.071.272-.035.136-.077.272-.112.413l-.106.336c-.035.112-.071.23-.112.342-.024.065-.041.124-.065.189s-.041.112-.065.171c-.059.153-.112.3-.177.449-.047.124-.1.254-.154.378s-.106.23-.165.348a17.125,17.125,0,0,1-.921,1.712c-.012.018-.024.041-.035.059q-.195.319-.407.62C-286.538,174.92-286.544,174.926-286.55,174.938Zm-6.463,5.3c6.664-4.1,11.161-12.094,7.154-19.992-3.158-6.227-9.414-9.025-16.739-7.5-6.564,1.381-12.4,6.015-14.8,11.669a25.151,25.151,0,0,1,12.472-3.524,18.03,18.03,0,0,1,7.313,1.47C-289.2,166.1-290.935,174.838-293.013,180.238Z" transform="translate(374.201 -123.203)"/>
        <path id="Path_2676" data-name="Path 2676" class="cls-2" d="M-320.1,116.065c-.573.236-1.139.484-1.706.738C-321.237,116.549-320.671,116.3-320.1,116.065Z" transform="translate(375.262 -108.581)"/>
        <path id="Path_2677" data-name="Path 2677" class="cls-2" d="M-322.976,117.315c-.567.248-1.127.508-1.688.773C-324.1,117.823-323.543,117.563-322.976,117.315Z" transform="translate(376.434 -109.093)"/>
        <path id="Path_2678" data-name="Path 2678" class="cls-2" d="M-325.643,118.625c-.472.218-.944.449-1.411.679C-326.588,119.074-326.116,118.843-325.643,118.625Z" transform="translate(377.414 -109.63)"/>
        <path id="Path_2679" data-name="Path 2679" class="cls-2" d="M-328.921,120.235c-.454.224-.909.46-1.363.7C-329.83,120.689-329.375,120.459-328.921,120.235Z" transform="translate(378.737 -110.289)"/>
        <path id="Path_2680" data-name="Path 2680" class="cls-2" d="M-331.415,121.415c-.549.283-1.092.573-1.629.874C-332.507,121.988-331.964,121.7-331.415,121.415Z" transform="translate(379.868 -110.773)"/>
        <path id="Path_2681" data-name="Path 2681" class="cls-3" d="M-326.639,339.808a9.184,9.184,0,0,0,5.891.348,10.5,10.5,0,0,1-4.751-3.187,9.661,9.661,0,0,1-1.877-9.916,8.9,8.9,0,0,0-3.477,6.735A6.841,6.841,0,0,0-326.639,339.808Zm13.015-5.719a6.787,6.787,0,0,0-.36-5.5,7.152,7.152,0,0,0-6.623-4.055,9.686,9.686,0,0,0-1.977.212,11.462,11.462,0,0,0-3.807,1.594,9.007,9.007,0,0,0,1.34,10.247,9.717,9.717,0,0,0,5.377,3.235c.236-.089.466-.171.7-.272A9.853,9.853,0,0,0-313.625,334.088Zm.165-5.767a7.369,7.369,0,0,1,.39,5.967,10.431,10.431,0,0,1-5.531,5.731l.089.018-1.033.366a1.188,1.188,0,0,1-.136.041q-.257.089-.514.159t-.531.142c-.165.041-.331.077-.5.112-.207.041-.407.071-.608.1-.142.018-.277.041-.413.053a10.064,10.064,0,0,1-1.027.053,9.125,9.125,0,0,1-3.606-.714,7.9,7.9,0,0,1-2.987-2.284,6.894,6.894,0,0,1-1.582-4.279A6.913,6.913,0,0,1-331.4,333c.006-.094.018-.183.03-.277.024-.159.053-.325.083-.484.047-.236.1-.466.165-.7v-.006a9.614,9.614,0,0,1,2.668-4.315c.106-.1.212-.2.325-.3.065-.059.136-.118.2-.177a12.225,12.225,0,0,1,1.151-.868l.992-.655-.053.1a11.688,11.688,0,0,1,3.128-1.157C-318.665,323.316-315.206,324.869-313.459,328.322Z" transform="translate(379.212 -193.758)"/>
        <path id="Path_2682" data-name="Path 2682" class="cls-2" d="M-334.122,122.9c-.519.283-1.039.573-1.552.868C-335.16,123.468-334.641,123.178-334.122,122.9Z" transform="translate(380.946 -111.379)"/>
        <path id="Path_2683" data-name="Path 2683" class="cls-2" d="M-336.876,124.425c-.531.307-1.062.62-1.588.938C-337.939,125.045-337.407,124.732-336.876,124.425Z" transform="translate(382.089 -112.006)"/>
        <path id="Path_2684" data-name="Path 2684" class="cls-2" d="M-339.5,126.015c-.5.3-1,.614-1.493.927C-340.5,126.623-340,126.316-339.5,126.015Z" transform="translate(383.126 -112.658)"/>
        <path id="Path_2685" data-name="Path 2685" class="cls-2" d="M-342.123,127.735c-.431.272-.856.549-1.281.826C-342.979,128.278-342.554,128.007-342.123,127.735Z" transform="translate(384.113 -113.363)"/>
        <path id="Path_2686" data-name="Path 2686" class="cls-3" d="M-336.894,323.515l.348.478a13.507,13.507,0,0,0-5.377,11.941l-.59.059A14.129,14.129,0,0,1-336.894,323.515Z" transform="translate(383.771 -193.585)"/>
        <path id="Path_2687" data-name="Path 2687" class="cls-2" d="M-344.838,129.4c-.5.331-.986.661-1.476,1C-345.824,130.066-345.334,129.736-344.838,129.4Z" transform="translate(385.306 -114.047)"/>
        <path id="Path_2688" data-name="Path 2688" class="cls-2" d="M-347.355,131.1c-.508.348-1,.7-1.5,1.062C-348.358,131.8-347.857,131.447-347.355,131.1Z" transform="translate(386.346 -114.743)"/>
        <path id="Path_2689" data-name="Path 2689" class="cls-3" d="M-348.727,272.44a10.419,10.419,0,0,0-.8-11.344l.466-.36a11.019,11.019,0,0,1,.844,12Z" transform="translate(386.621 -167.86)"/>
        <path id="Path_2690" data-name="Path 2690" class="cls-2" d="M-349.882,132.9c-.5.36-.992.72-1.482,1.092C-350.874,133.625-350.384,133.259-349.882,132.9Z" transform="translate(387.375 -115.481)"/>
        <path id="Path_2691" data-name="Path 2691" class="cls-2" d="M-352.372,134.755c-.49.366-.974.744-1.452,1.121C-353.346,135.493-352.862,135.121-352.372,134.755Z" transform="translate(388.383 -116.239)"/>
        <path id="Path_2692" data-name="Path 2692" class="cls-2" d="M-355.795,136.655q-1.443,1.133-2.839,2.331C-357.707,138.19-356.757,137.411-355.795,136.655Z" transform="translate(390.354 -117.018)"/>
        <path id="Path_2693" data-name="Path 2693" class="cls-1" d="M-365.177,271.817a8.941,8.941,0,0,1-6.729-1.653c-.089-.065-.165-.136-.254-.2a7.638,7.638,0,0,1-.714-6.144,10.95,10.95,0,0,1,5.684-6.3,10.443,10.443,0,0,1,5.147,3.01,6.705,6.705,0,0,1,.98,8.47A6.15,6.15,0,0,1-365.177,271.817Z" transform="translate(396.33 -166.541)"/>
        <path id="Path_2694" data-name="Path 2694" class="cls-2" d="M-362.933,142.855q-1.266,1.133-2.491,2.32Q-364.2,143.988-362.933,142.855Z" transform="translate(393.136 -119.558)"/>
        <path id="Path_2695" data-name="Path 2695" class="cls-4" d="M-369.865,257.19a11.418,11.418,0,0,0-5.294,6.3,8.107,8.107,0,0,0,.165,5.336,8.334,8.334,0,0,1-2.367-4.669,6.171,6.171,0,0,1,2.733-6.05,7.237,7.237,0,0,1,3.695-.98A9.346,9.346,0,0,1-369.865,257.19Z" transform="translate(398.049 -166.381)"/>
        <path id="Path_2696" data-name="Path 2696" class="cls-2" d="M-370.7,151.295c-.39.413-.779.826-1.163,1.245C-371.48,152.121-371.091,151.708-370.7,151.295Z" transform="translate(395.775 -123.016)"/>
        <path id="Path_2697" data-name="Path 2697" class="cls-3" d="M-373.817,282.125c2,1.924,4.988,2.143,8.134,2.2l-.012.59c-3.134-.059-6.381-.3-8.529-2.367Z" transform="translate(396.742 -176.625)"/>
        <path id="Path_2698" data-name="Path 2698" class="cls-2" d="M-375.219,156.485c-.3.342-.6.691-.885,1.039C-375.815,157.176-375.52,156.827-375.219,156.485Z" transform="translate(397.512 -125.143)"/>
        <path id="Path_2699" data-name="Path 2699" class="cls-2" d="M-376.915,158.245q-.593.7-1.169,1.417Q-377.509,158.944-376.915,158.245Z" transform="translate(398.323 -125.864)"/>
        <path id="Path_2700" data-name="Path 2700" class="cls-3" d="M-374.037,269.6a8.941,8.941,0,0,0,6.729,1.653,6.15,6.15,0,0,0,4.114-2.821,6.705,6.705,0,0,0-.98-8.47,10.444,10.444,0,0,0-5.147-3.01,10.95,10.95,0,0,0-5.684,6.3,7.638,7.638,0,0,0,.714,6.144C-374.2,269.46-374.125,269.53-374.037,269.6Zm3.76-12.814a9.347,9.347,0,0,0-1.068-.065,7.238,7.238,0,0,0-3.695.98,6.171,6.171,0,0,0-2.733,6.05,8.334,8.334,0,0,0,2.367,4.669,8.107,8.107,0,0,1-.165-5.336A11.418,11.418,0,0,1-370.277,256.781Zm-.632-.643q.381.018.761.071h.029c.254.035.508.083.761.136a.115.115,0,0,0,.041.006l.148.035c.047.012.094.018.142.029l.537.118-.047.024a11.048,11.048,0,0,1,4.8,3c2.544,2.774,2.934,6.209,1.039,9.184a6.754,6.754,0,0,1-4.5,3.081,7.979,7.979,0,0,1-1.505.142,9.757,9.757,0,0,1-4.917-1.4l.106.189-1.181-.915c-.077-.059-.142-.124-.218-.183-.142-.118-.277-.23-.413-.354-.094-.083-.183-.171-.277-.266-.148-.142-.289-.283-.425-.431-.065-.071-.13-.142-.189-.218-.148-.171-.3-.342-.425-.519a1.8,1.8,0,0,1-.124-.171c-.142-.195-.277-.39-.4-.59-.03-.053-.059-.106-.089-.153-.124-.212-.242-.419-.348-.637-.03-.059-.047-.118-.077-.177-.094-.212-.189-.419-.266-.632-.035-.106-.065-.212-.1-.313-.053-.177-.112-.348-.154-.519a8.445,8.445,0,0,1-.165-.856,6.8,6.8,0,0,1,3.028-6.64c.23-.136.466-.254.708-.366.112-.047.23-.089.342-.136s.254-.1.378-.148c.153-.047.313-.089.466-.13.089-.024.177-.053.266-.071.189-.047.372-.077.561-.106a1.691,1.691,0,0,1,.183-.03c.212-.03.425-.047.637-.059.041,0,.077-.006.112-.006.242-.006.478-.006.714,0A.182.182,0,0,0-370.908,256.138Z" transform="translate(398.461 -165.972)"/>
        <path id="Path_2701" data-name="Path 2701" class="cls-2" d="M-380.963,163.495c-.313.407-.62.815-.921,1.228C-381.583,164.31-381.276,163.9-380.963,163.495Z" transform="translate(399.881 -128.015)"/>
        <path id="Path_2702" data-name="Path 2702" class="cls-2" d="M-382.568,165.575c-.336.443-.661.9-.986,1.352C-383.229,166.472-382.9,166.024-382.568,165.575Z" transform="translate(400.565 -128.868)"/>
        <path id="Path_2703" data-name="Path 2703" class="cls-4" d="M-383.9,206.583a4.838,4.838,0,0,1,.661,3.966,6.192,6.192,0,0,1-2.55,3.6,6.2,6.2,0,0,1-4.279,1.1,4.864,4.864,0,0,1-3.465-2.036,4.851,4.851,0,0,1-.661-3.961,6.213,6.213,0,0,1,2.55-3.606,6.323,6.323,0,0,1,3.565-1.139,5.729,5.729,0,0,1,.714.047A4.838,4.838,0,0,1-383.9,206.583Z" transform="translate(404.989 -144.82)"/>
        <path id="Path_2704" data-name="Path 2704" class="cls-2" d="M-384.271,168.1c-.272.384-.543.767-.8,1.157C-384.814,168.862-384.543,168.479-384.271,168.1Z" transform="translate(401.188 -129.9)"/>
        <path id="Path_2705" data-name="Path 2705" class="cls-3" d="M-385.3,170.055c-.112.153-.218.307-.319.466C-385.508,170.362-385.4,170.208-385.3,170.055Z" transform="translate(401.409 -130.703)"/>
        <path id="Path_2706" data-name="Path 2706" class="cls-5" d="M-370.706,247.785l.59-.059a13.507,13.507,0,0,1,5.377-11.941l-.348-.478A14.129,14.129,0,0,0-370.706,247.785Zm-2.851-37.534a11.019,11.019,0,0,0-.844-12l-.466.36a10.419,10.419,0,0,1,.8,11.344Zm17.536,42.433a10.059,10.059,0,0,0,1.027-.053c.136-.012.272-.035.413-.053.2-.03.4-.059.608-.1.165-.035.331-.071.5-.112s.354-.089.531-.142.342-.1.514-.159a1.187,1.187,0,0,0,.136-.041l1.033-.366-.089-.018a10.431,10.431,0,0,0,5.531-5.731,7.369,7.369,0,0,0-.39-5.967c-1.747-3.453-5.206-5.005-9.249-4.155a11.687,11.687,0,0,0-3.128,1.157l.053-.1-.992.655a12.224,12.224,0,0,0-1.151.868c-.065.059-.136.118-.2.177-.112.1-.218.2-.325.3a9.614,9.614,0,0,0-2.668,4.315v.006c-.065.23-.118.46-.165.7-.029.159-.059.325-.083.484-.012.094-.024.183-.03.277a6.921,6.921,0,0,0-.047.785,6.894,6.894,0,0,0,1.582,4.279,7.9,7.9,0,0,0,2.987,2.284A9.125,9.125,0,0,0-356.021,252.684Zm-45.72-83.018a5.447,5.447,0,0,0,.75,4.439,5.421,5.421,0,0,0,3.872,2.284,7.109,7.109,0,0,0,.791.047,6.944,6.944,0,0,0,3.9-1.24,6.778,6.778,0,0,0,2.786-3.955,5.386,5.386,0,0,0-.75-4.433,5.427,5.427,0,0,0-3.872-2.29,6.788,6.788,0,0,0-4.687,1.2A6.8,6.8,0,0,0-401.741,169.666Zm14.62,40.308a9.758,9.758,0,0,0,4.917,1.4,7.98,7.98,0,0,0,1.505-.142,6.753,6.753,0,0,0,4.5-3.081c1.895-2.975,1.505-6.41-1.039-9.184a11.049,11.049,0,0,0-4.8-3l.047-.024-.537-.118c-.047-.012-.094-.018-.142-.03l-.148-.035a.115.115,0,0,1-.041-.006c-.254-.053-.508-.1-.761-.136h-.03q-.381-.053-.761-.071a.182.182,0,0,1-.059-.006c-.236-.006-.472-.006-.714,0-.035,0-.071.006-.112.006-.212.012-.425.03-.637.059a1.687,1.687,0,0,0-.183.03c-.189.03-.372.059-.561.106-.089.018-.177.047-.266.071-.154.041-.313.083-.466.13-.124.047-.254.1-.378.148s-.23.089-.342.136c-.242.112-.478.23-.708.366a6.8,6.8,0,0,0-3.028,6.64,8.4,8.4,0,0,0,.165.856c.041.171.1.342.153.519.035.1.065.207.1.313.077.212.171.419.266.632.029.059.047.118.077.177.106.218.224.425.348.637.03.047.059.1.089.153.124.2.26.4.4.59a1.8,1.8,0,0,0,.124.171c.13.177.277.348.425.519.059.077.124.148.189.218.136.148.277.289.425.431.094.094.183.183.277.266.136.124.272.236.413.354.077.059.142.124.218.183l1.18.915Zm6.215,3.1c-3.146-.059-6.133-.277-8.134-2.2l-.407.425c2.149,2.072,5.395,2.308,8.529,2.367Zm37.274,20.659a17.941,17.941,0,0,1,.649,13.936l.549.207a18.5,18.5,0,0,0-.673-14.4Zm70.392,24.826a21.848,21.848,0,0,0,12.029.643c-.5.478-1,.944-1.511,1.411l-.018.018c-.5.455-1.009.9-1.523,1.352-.024.018-.047.041-.077.065-.5.425-1,.85-1.5,1.275h-.006c-.531.437-1.068.874-1.605,1.3-.514.4-1.021.8-1.541,1.192-.112.083-.224.171-.336.254q-1.479,1.107-3.01,2.154c-.5.348-1.009.685-1.523,1.021-.2.136-.4.266-.608.4-.519.336-1.051.673-1.582,1-.431.266-.862.519-1.293.779-.13.077-.266.159-.4.236q-1.78,1.045-3.612,2c-.614.319-1.234.637-1.859.944s-1.245.608-1.877.9c0,0,0,.006-.006,0-.632.3-1.269.578-1.906.862s-1.269.543-1.906.809a.036.036,0,0,1-.024.006c-.649.266-1.3.519-1.954.773a.292.292,0,0,1-.041.018c-.643.242-1.287.478-1.936.708-.242.089-.49.171-.738.26-.13.047-.266.094-.4.136-.62.207-1.24.413-1.865.608-.336.106-.673.212-1.015.313s-.673.2-1.015.3c-.23.065-.466.13-.7.2-.449.124-.891.248-1.346.36-.283.077-.573.148-.856.224-.425.106-.85.212-1.275.313-.62.142-1.245.283-1.871.413q-1.045.23-2.107.425c-.236.047-.472.089-.714.13-.36.065-.726.13-1.092.189-.927.154-1.859.3-2.8.419-.289.041-.578.077-.874.112-2.107.26-4.232.449-6.381.555-.378.024-.755.035-1.139.053-1.139.041-2.278.065-3.429.065a89,89,0,0,1-88.9-88.9c0-.655.006-1.316.024-1.971s.035-1.3.065-1.96c.024-.59.053-1.18.094-1.771,0-.065.006-.136.012-.207.041-.637.089-1.269.148-1.906a1.148,1.148,0,0,1,.012-.142c.053-.6.112-1.192.177-1.783q.106-.956.23-1.912c.083-.626.171-1.245.266-1.865.065-.449.142-.891.218-1.334.041-.289.094-.578.148-.862.018-.106.035-.212.059-.313.065-.384.136-.761.212-1.139.047-.242.094-.484.148-.726.083-.431.177-.856.272-1.287.106-.5.224-1,.342-1.493.035-.148.071-.3.112-.454.094-.4.195-.8.3-1.2.083-.313.159-.62.248-.927.018-.071.035-.142.059-.212q.159-.6.336-1.2c.171-.6.354-1.2.543-1.8.177-.573.36-1.139.555-1.706.03-.1.065-.207.1-.307.171-.513.354-1.027.537-1.541.177-.49.354-.98.543-1.47.071-.189.142-.378.218-.567.148-.378.3-.756.449-1.127.083-.207.165-.419.254-.626.195-.472.39-.944.6-1.411.242-.567.5-1.133.755-1.694.242-.531.49-1.062.744-1.588.183-.378.366-.75.555-1.116.13-.272.272-.543.407-.815.024-.047.047-.089.065-.13.23-.443.466-.891.7-1.328.289-.543.584-1.086.891-1.623.289-.514.584-1.033.891-1.541a.375.375,0,0,1,.047-.083c.283-.484.578-.968.874-1.446q.965-1.567,2-3.081c.1-.159.207-.313.319-.466.26-.39.531-.773.8-1.157.03-.047.065-.094.094-.136.325-.454.649-.909.986-1.352.3-.413.608-.82.921-1.228.437-.567.874-1.127,1.322-1.682q.576-.717,1.169-1.417c.289-.348.59-.7.885-1.039.531-.614,1.068-1.222,1.617-1.818.384-.419.773-.832,1.163-1.245q1.293-1.363,2.638-2.662,1.222-1.186,2.491-2.32c.5-.449,1-.891,1.517-1.328q1.4-1.2,2.839-2.331c.478-.378.962-.756,1.452-1.121s.986-.732,1.481-1.092.992-.714,1.5-1.062c.49-.342.98-.673,1.476-1,.077-.053.159-.106.242-.159.425-.277.85-.555,1.281-.826a.933.933,0,0,1,.142-.089c.5-.313.992-.626,1.493-.927.525-.319,1.057-.632,1.588-.938.018-.012.041-.024.059-.035.514-.3,1.033-.584,1.552-.868.537-.3,1.08-.59,1.629-.874.454-.236.909-.472,1.363-.7.183-.094.36-.183.543-.272.466-.23.938-.46,1.411-.679.561-.266,1.121-.525,1.688-.773s1.133-.5,1.706-.738c.4-.171.809-.336,1.216-.5.165-.065.336-.136.508-.207q3.568-1.408,7.278-2.514c.437-.13.879-.26,1.322-.378.6-.171,1.216-.336,1.83-.5.319-.083.643-.165.962-.236.384-.1.767-.189,1.151-.283a39.686,39.686,0,0,1-3.547,4.138c-3.37,3.612-7.053,6.929-10.725,10.235-7.762,6.994-16,13.794-22.571,21.975-3.648,4.551-8.777,12.059-3.837,17.518,3.677,4.061,8.694,3.724,13.705,4.1,2.514.189,5.129,1.1,6.3,3.559.862,1.794-.313,3.211-1.346,4.61A21.144,21.144,0,0,0-368.3,183.6c-.266,1.44-.691,3.553.72,4.557,1.145.815,2.768.289,4.055.236,2.833-.112,6.469,1.493,6.941,4.633.443,2.951-1.989,5.926-3.052,8.541-.874,2.137-1.517,4.881-.012,6.894,1.541,2.06,4.445,2.768,6.829,3.217,3.217.6,6.676.578,9.78,1.694a3.29,3.29,0,0,1,2.556,3.164,4.543,4.543,0,0,0,1.074,2.8c4.025,4.338,12.082.3,16.255-1.635,4.079-1.889,8.045-3.89,12.194-5.625a85.334,85.334,0,0,1,13.806-4.8c1.358-.3,4-1.074,5.33-.272,1.434.868.307,2.869-.289,4.014-2.255,4.332-5.973,7.543-9.42,10.908-3.9,3.813-8.045,7.75-10.8,12.507-1.93,3.335-3.01,7.549.018,10.595a6.348,6.348,0,0,0,5.95,1.93c2.957-.531,8.364-3.742,10.229.313,1.476,3.205-1.3,8.033-2.036,11.191a1.063,1.063,0,0,0,.738,1.287c1.747.384,3.7-.46,5.306-1.057,2.928-1.08,5.779-2.361,8.682-3.494,2.52-.98,5.306-2.2,8.045-2.337,3.087-.165,2.29,2.267,1.428,4.421A1.069,1.069,0,0,0-273.239,258.562Z" transform="translate(411.964 -105.376)"/>
        <path id="Path_2707" data-name="Path 2707" class="cls-2" d="M-389.6,176.065c-.3.478-.59.962-.874,1.446C-390.191,177.027-389.9,176.543-389.6,176.065Z" transform="translate(403.4 -133.166)"/>
        <path id="Path_2708" data-name="Path 2708" class="cls-2" d="M-391.173,178.655c-.307.508-.6,1.027-.891,1.541C-391.775,179.676-391.474,179.163-391.173,178.655Z" transform="translate(404.052 -134.227)"/>
        <path id="Path_2709" data-name="Path 2709" class="cls-2" d="M-392.683,181.265c-.307.537-.6,1.08-.891,1.623C-393.285,182.345-392.984,181.8-392.683,181.265Z" transform="translate(404.671 -135.297)"/>
        <path id="Path_2710" data-name="Path 2710" class="cls-2" d="M-394.062,184.015c-.236.437-.472.885-.7,1.328C-394.534,184.9-394.3,184.458-394.062,184.015Z" transform="translate(405.158 -136.424)"/>
        <path id="Path_2711" data-name="Path 2711" class="cls-3" d="M-386.2,213.739a6.192,6.192,0,0,0,2.55-3.6,4.838,4.838,0,0,0-.661-3.966,4.838,4.838,0,0,0-3.465-2.03,5.727,5.727,0,0,0-.714-.047,6.323,6.323,0,0,0-3.565,1.139,6.213,6.213,0,0,0-2.55,3.606,4.851,4.851,0,0,0,.661,3.961,4.864,4.864,0,0,0,3.465,2.036A6.2,6.2,0,0,0-386.2,213.739Zm-1.5-10.188a5.427,5.427,0,0,1,3.872,2.29,5.386,5.386,0,0,1,.75,4.433,6.778,6.778,0,0,1-2.786,3.955,6.944,6.944,0,0,1-3.9,1.24,7.109,7.109,0,0,1-.791-.047,5.421,5.421,0,0,1-3.872-2.284,5.447,5.447,0,0,1-.75-4.439,6.8,6.8,0,0,1,2.792-3.949A6.789,6.789,0,0,1-387.7,203.551Z" transform="translate(405.398 -144.409)"/>
        <path id="Path_2712" data-name="Path 2712" class="cls-3" d="M-395.157,186.485c-.136.272-.277.543-.407.815C-395.434,187.028-395.293,186.757-395.157,186.485Z" transform="translate(405.486 -137.436)"/>
        <path id="Path_2713" data-name="Path 2713" class="cls-2" d="M-380.022,347.161a7.981,7.981,0,0,0-3.382,1.346,67.987,67.987,0,0,1-15.14-20.021,18.49,18.49,0,0,0,1.535-3.961l.761.891A90.071,90.071,0,0,0-380.022,347.161Z" transform="translate(406.707 -193.998)"/>
        <path id="Path_2714" data-name="Path 2714" class="cls-2" d="M-397.02,189.755c-.254.525-.5,1.057-.744,1.588C-397.522,190.812-397.274,190.28-397.02,189.755Z" transform="translate(406.387 -138.776)"/>
        <path id="Path_2715" data-name="Path 2715" class="cls-2" d="M-385.694,150.264a6.835,6.835,0,0,1,4.061-1.5c.189,0,.372.018.561.035a90,90,0,0,0-16.609,23.45,30.292,30.292,0,0,0-.732-3.494l-.065-.26a2.8,2.8,0,0,1-.136-1.092,2.873,2.873,0,0,1,.614-1.18l8.541-11.722A19.378,19.378,0,0,1-385.694,150.264Z" transform="translate(406.742 -121.98)"/>
        <path id="Path_2716" data-name="Path 2716" class="cls-2" d="M-398.289,192.445c-.26.561-.513,1.127-.755,1.694C-398.8,193.572-398.548,193.006-398.289,192.445Z" transform="translate(406.912 -139.878)"/>
        <path id="Path_2717" data-name="Path 2717" class="cls-2" d="M-399.458,195.315c-.207.466-.4.938-.6,1.411C-399.859,196.253-399.664,195.781-399.458,195.315Z" transform="translate(407.326 -141.054)"/>
        <path id="Path_2718" data-name="Path 2718" class="cls-2" d="M-400.8,198.765c-.153.372-.3.75-.449,1.127C-401.1,199.515-400.949,199.137-400.8,198.765Z" transform="translate(407.813 -142.468)"/>
        <path id="Path_2719" data-name="Path 2719" class="cls-2" d="M-401.991,201.635c-.189.49-.366.98-.543,1.47C-402.357,202.609-402.174,202.119-401.991,201.635Z" transform="translate(408.342 -143.644)"/>
        <path id="Path_2720" data-name="Path 2720" class="cls-2" d="M-402.907,204.125c-.183.514-.366,1.027-.537,1.541C-403.273,205.152-403.09,204.639-402.907,204.125Z" transform="translate(408.715 -144.664)"/>
        <path id="Path_2721" data-name="Path 2721" class="cls-2" d="M-404,207.255c-.195.567-.378,1.133-.555,1.706C-404.377,208.388-404.194,207.822-404,207.255Z" transform="translate(409.17 -145.946)"/>
        <path id="Path_2722" data-name="Path 2722" class="cls-2" d="M-404.931,210.145c-.189.6-.372,1.2-.543,1.8C-405.3,211.343-405.12,210.741-404.931,210.145Z" transform="translate(409.547 -147.131)"/>
        <path id="Path_2723" data-name="Path 2723" class="cls-2" d="M-405.708,213.2q-.177.6-.336,1.2Q-405.885,213.8-405.708,213.2Z" transform="translate(409.78 -148.38)"/>
        <path id="Path_2724" data-name="Path 2724" class="cls-3" d="M-406.316,215.6c-.089.307-.165.614-.248.927C-406.487,216.209-406.4,215.9-406.316,215.6Z" transform="translate(409.993 -149.364)"/>
        <path id="Path_2725" data-name="Path 2725" class="cls-3" d="M-407.152,219.2c-.041.153-.077.307-.112.454C-407.229,219.5-407.193,219.343-407.152,219.2Z" transform="translate(410.28 -150.839)"/>
        <path id="Path_2726" data-name="Path 2726" class="cls-2" d="M-407.5,219.965c-.118.5-.236.992-.342,1.493C-407.738,220.962-407.62,220.461-407.5,219.965Z" transform="translate(410.518 -151.154)"/>
        <path id="Path_2727" data-name="Path 2727" class="cls-2" d="M-408.032,222.495c-.094.431-.189.856-.271,1.287C-408.221,223.351-408.127,222.926-408.032,222.495Z" transform="translate(410.706 -152.191)"/>
        <path id="Path_2728" data-name="Path 2728" class="cls-2" d="M-408.7,225.9c-.077.378-.148.756-.213,1.139C-408.849,226.66-408.778,226.283-408.7,225.9Z" transform="translate(410.956 -153.588)"/>
        <path id="Path_2729" data-name="Path 2729" class="cls-3" d="M-409.116,228.365c-.053.283-.106.573-.148.862C-409.223,228.938-409.17,228.648-409.116,228.365Z" transform="translate(411.1 -154.596)"/>
        <path id="Path_2730" data-name="Path 2730" class="cls-2" d="M-409.818,232.085c-.094.62-.183,1.24-.266,1.865C-410,233.325-409.913,232.7-409.818,232.085Z" transform="translate(411.436 -156.121)"/>
        <path id="Path_2731" data-name="Path 2731" class="cls-3" d="M-402.676,233.912a18.491,18.491,0,0,1-1.535,3.961,67.987,67.987,0,0,0,15.14,20.021,7.98,7.98,0,0,1,3.382-1.346A90.071,90.071,0,0,1-401.915,234.8Zm-1.369-83.75a30.292,30.292,0,0,1,.732,3.494,90,90,0,0,1,16.609-23.45c-.189-.018-.372-.035-.561-.035a6.836,6.836,0,0,0-4.061,1.5,19.378,19.378,0,0,0-3.766,4.238l-8.541,11.722a2.873,2.873,0,0,0-.614,1.18,2.8,2.8,0,0,0,.136,1.092Zm139.469-25.115a90,90,0,0,1,23.645,31.914,19.818,19.818,0,0,1,2.137-4.321,93.119,93.119,0,0,0-18.882-29.058A10.4,10.4,0,0,1-264.577,125.047Zm-22.8,154a112.771,112.771,0,0,0,11.634-7.112l7.337-4.911a3.6,3.6,0,0,0,1.641-1.718,27.131,27.131,0,0,1,1.877-4.362A89.336,89.336,0,0,1-300.4,279.49c.691-.03,1.375-.041,2.048-.041,2.715,0,5.112.218,5.832.632a2.894,2.894,0,0,0,1.765.089l.39-.053A9.254,9.254,0,0,0-287.372,279.047ZM-234,192.866a88.992,88.992,0,0,0-88.891-88.891,89.132,89.132,0,0,0-20.056,2.278c-.384.094-.767.183-1.151.283-.319.071-.643.153-.962.236-.614.159-1.228.325-1.83.5-.443.124-.879.248-1.322.378q-3.71,1.107-7.278,2.514c-.171.071-.336.136-.508.207-.407.165-.815.331-1.216.5-.573.236-1.139.484-1.706.738s-1.127.508-1.688.773c-.472.218-.944.449-1.411.679-.183.089-.36.177-.543.272-.454.224-.909.454-1.363.7-.549.283-1.092.573-1.629.874-.519.283-1.039.573-1.552.868-.018.012-.041.024-.059.035-.531.307-1.062.62-1.588.938-.5.3-1,.608-1.493.927a.932.932,0,0,0-.142.089c-.431.272-.856.543-1.281.826-.083.053-.165.106-.242.159-.5.331-.986.661-1.476,1s-1,.7-1.5,1.062-.992.72-1.482,1.092-.974.738-1.452,1.121c-.962.756-1.912,1.535-2.839,2.331-.513.437-1.015.879-1.517,1.328q-1.266,1.133-2.491,2.32-1.346,1.3-2.638,2.662c-.39.413-.779.826-1.163,1.245-.549.6-1.086,1.2-1.617,1.818-.3.342-.6.691-.885,1.039q-.593.7-1.169,1.417c-.449.555-.885,1.116-1.322,1.682-.313.407-.62.815-.921,1.228-.336.449-.661.9-.986,1.352-.03.041-.065.089-.094.136-.272.384-.543.767-.8,1.157-.106.153-.212.307-.319.466q-1.027,1.514-2,3.081c-.3.478-.59.962-.874,1.446a.377.377,0,0,0-.047.083c-.3.508-.6,1.021-.891,1.541-.3.537-.6,1.08-.891,1.623-.236.443-.472.885-.7,1.328-.018.041-.041.083-.065.13-.136.272-.277.543-.407.815-.189.366-.372.738-.555,1.116-.254.525-.5,1.057-.744,1.588-.26.561-.508,1.127-.755,1.694-.207.466-.4.938-.6,1.411-.089.207-.171.419-.254.626-.153.372-.3.75-.449,1.127-.077.189-.148.378-.218.567-.183.484-.366.974-.543,1.47-.183.514-.366,1.027-.537,1.541-.035.1-.071.207-.1.307-.195.567-.378,1.133-.555,1.706-.189.6-.372,1.2-.543,1.8q-.177.6-.336,1.2c-.024.071-.041.142-.059.212-.089.307-.171.614-.248.927-.106.4-.207.8-.3,1.2-.041.148-.077.3-.112.454-.118.5-.236,1-.342,1.493-.094.431-.189.856-.272,1.287-.053.242-.1.484-.148.726-.077.378-.148.756-.212,1.139-.024.1-.041.207-.059.313-.053.283-.106.573-.148.862-.077.443-.153.885-.218,1.334-.094.62-.183,1.24-.266,1.865s-.159,1.275-.23,1.912c-.065.6-.124,1.186-.177,1.783a1.143,1.143,0,0,0-.012.142c-.059.637-.106,1.269-.148,1.906-.006.071-.012.142-.012.207-.041.59-.071,1.18-.094,1.771-.03.649-.053,1.3-.065,1.96s-.024,1.31-.024,1.971a89,89,0,0,0,88.9,88.9c1.151,0,2.29-.024,3.429-.065.378-.018.761-.03,1.139-.053,2.148-.106,4.273-.3,6.381-.555.3-.035.584-.071.874-.112.938-.124,1.871-.266,2.8-.419.366-.059.732-.124,1.092-.189.236-.041.478-.083.714-.13q1.062-.195,2.107-.425c.626-.13,1.251-.272,1.871-.413.425-.1.85-.207,1.275-.313.289-.071.573-.148.856-.224.454-.112.9-.236,1.346-.36.236-.065.472-.13.7-.2.342-.094.679-.195,1.015-.3s.679-.2,1.015-.313c.626-.195,1.245-.4,1.865-.608.13-.041.266-.089.4-.136.248-.083.5-.171.738-.26.649-.224,1.293-.46,1.936-.708a.294.294,0,0,0,.041-.018c.655-.248,1.3-.5,1.954-.773a.035.035,0,0,0,.024-.006c.637-.26,1.275-.531,1.906-.809s1.275-.561,1.906-.862c.006.006.006,0,.006,0q.947-.434,1.877-.9c.626-.307,1.245-.62,1.859-.944q1.833-.956,3.612-2c.136-.077.272-.159.4-.236q.655-.381,1.293-.779c.531-.325,1.062-.661,1.582-1,.2-.13.407-.26.608-.4.513-.336,1.021-.673,1.523-1.021q1.532-1.045,3.01-2.154c.112-.083.224-.171.336-.254.519-.39,1.033-.791,1.541-1.192.543-.425,1.074-.856,1.605-1.3h.006c.508-.425,1-.844,1.5-1.275.03-.024.053-.047.077-.065.514-.449,1.021-.9,1.523-1.352l.018-.018c.508-.466,1.015-.933,1.511-1.411A88.638,88.638,0,0,0-234,192.866Zm-41.417,79.559a113.444,113.444,0,0,1-11.693,7.148A9.761,9.761,0,0,1-290.3,280.7l-.378.053a7.3,7.3,0,0,1-1.027.1,2.212,2.212,0,0,1-1.11-.26c-1.051-.6-7.378-.773-11.569-.171-.655.136-1.3.266-1.965.39-.035.012-.071.018-.106.03v-.012a89.242,89.242,0,0,1-16.432,1.523,89.2,89.2,0,0,1-62.259-25.274,7.3,7.3,0,0,0-3.772,1.428l-.195.136-.177-.153a68.456,68.456,0,0,1-15.529-20.523l-.094-.189.142-.148a17.681,17.681,0,0,0,1.682-4.409l.124-.454a88.91,88.91,0,0,1-9.408-39.9,88.892,88.892,0,0,1,8.582-38.206,26.16,26.16,0,0,0-.826-4.35l-.065-.26a3.359,3.359,0,0,1-.148-1.322,3.376,3.376,0,0,1,.72-1.446l8.541-11.722a20.173,20.173,0,0,1,3.884-4.362,6.989,6.989,0,0,1,5.483-1.505,89.207,89.207,0,0,1,63.315-26.307,89.1,89.1,0,0,1,57.354,20.853,9.739,9.739,0,0,0,7.75-1.281l.2-.124.165.165a93.846,93.846,0,0,1,19.242,29.595l.083.195-.159.142a19.626,19.626,0,0,0-2.349,4.8,88.948,88.948,0,0,1,7.2,35.137,89.292,89.292,0,0,1-29.967,66.762l-.106.136a24.581,24.581,0,0,0-2.721,5.714,4,4,0,0,1-1.871,2.036Z" transform="translate(412.374 -103.385)"/>
        <path id="Path_2732" data-name="Path 2732" class="cls-2" d="M-410.244,235.245q-.124.956-.23,1.912C-410.4,236.52-410.326,235.877-410.244,235.245Z" transform="translate(411.595 -157.415)"/>
        <path id="Path_2733" data-name="Path 2733" class="cls-2" d="M-410.6,238.485c-.065.59-.124,1.186-.177,1.783C-410.721,239.671-410.662,239.081-410.6,238.485Z" transform="translate(411.718 -158.743)"/>
        <path id="Path_2734" data-name="Path 2734" class="cls-2" d="M-410.9,241.745c-.059.637-.106,1.269-.148,1.907C-411,243.014-410.955,242.382-410.9,241.745Z" transform="translate(411.829 -160.079)"/>
        <path id="Path_2735" data-name="Path 2735" class="cls-2" d="M-411.13,245.325c-.041.59-.071,1.18-.094,1.771C-411.2,246.505-411.171,245.915-411.13,245.325Z" transform="translate(411.903 -161.546)"/>
        <path id="Path_2736" data-name="Path 2736" class="cls-2" d="M-411.269,248.325c-.03.655-.053,1.3-.065,1.96C-411.322,249.629-411.3,248.974-411.269,248.325Z" transform="translate(411.948 -162.775)"/>
        <path id="Path_2737" data-name="Path 2737" class="cls-2" d="M-411.35,251.645c-.018.655-.024,1.316-.024,1.971C-411.374,252.955-411.368,252.3-411.35,251.645Z" transform="translate(411.964 -164.135)"/>
      </g>
    </g>
  </g>
</svg>
