<svg xmlns="http://www.w3.org/2000/svg" width="23.46" height="25.222" viewBox="0 0 23.46 25.222">
  <defs>
    <style>
      .cls-1 {
        fill: #009C72;
        stroke: #009C72;
      }
    </style>
  </defs>
  <path id="music-player" class="cls-1" d="M24.31.11A.446.446,0,0,0,23.963,0L10.311,1.77a.44.44,0,0,0-.384.436V17.89a4.57,4.57,0,0,0-3.523-1.6A4.206,4.206,0,0,0,2,20.258a4.206,4.206,0,0,0,4.4,3.964,4.206,4.206,0,0,0,4.4-3.964c0-.1-.008-.2-.017-.3a.424.424,0,0,0,.017-.085V7.1L23.579,5.446v8.04a4.571,4.571,0,0,0-3.523-1.6,4.206,4.206,0,0,0-4.4,3.964,4.206,4.206,0,0,0,4.4,3.964,4.212,4.212,0,0,0,4.4-3.9c0-.006,0-.011,0-.016V.441A.439.439,0,0,0,24.31.11Z" transform="translate(-1.5 0.5)"/>
</svg>
