<svg xmlns="http://www.w3.org/2000/svg" width="49.073" height="42.931" viewBox="0 0 49.073 42.931">
  <defs>
    <style>
      .cls-1 {
        fill: none;
        stroke: #009C72;
        stroke-width: 3px;
      }
    </style>
  </defs>
  <g id="photo-camera_1_" data-name="photo-camera (1)" transform="translate(1.5 1.5)">
    <g id="Group_450" data-name="Group 450">
      <path id="Path_2316" data-name="Path 2316" class="cls-1" d="M44.274,44.483a5.919,5.919,0,0,0-4.343-1.8H34.555L33.332,39.42a4.457,4.457,0,0,0-1.668-2.028,4.274,4.274,0,0,0-2.484-.852H16.894a4.274,4.274,0,0,0-2.484.852,4.458,4.458,0,0,0-1.668,2.028l-1.224,3.263H6.143a5.919,5.919,0,0,0-4.344,1.8A5.919,5.919,0,0,0,0,48.826v21.5a5.918,5.918,0,0,0,1.8,4.343,5.919,5.919,0,0,0,4.344,1.8H39.93a6.145,6.145,0,0,0,6.143-6.143v-21.5A5.918,5.918,0,0,0,44.274,44.483ZM30.632,67.172a10.353,10.353,0,0,1-7.595,3.156,10.353,10.353,0,0,1-7.595-3.156,10.717,10.717,0,0,1,0-15.19,10.353,10.353,0,0,1,7.595-3.156,10.354,10.354,0,0,1,7.595,3.156,10.717,10.717,0,0,1,0,15.19Z" transform="translate(0 -36.54)"/>
    </g>
  </g>
</svg>
