<svg xmlns="http://www.w3.org/2000/svg" width="110.117" height="95.385" viewBox="0 0 110.117 95.385">
  <defs>
    <style>
      .cls-1 {
        fill: #009C72;
        stroke: #009C72;
      }
    </style>
  </defs>
  <g id="present" transform="translate(0 -34.249)">
    <g id="Group_597" data-name="Group 597" transform="translate(71.37 34.249)">
      <g id="Group_596" data-name="Group 596">
        <path id="Path_2406" data-name="Path 2406" class="cls-1" d="M340.366,37.331a1.613,1.613,0,0,0-2.035-1.03l-.573.188v-.627a1.613,1.613,0,0,0-3.226,0v.627l-.573-.188a1.613,1.613,0,1,0-1.005,3.066l.594.2-.374.52a1.615,1.615,0,0,0,1.308,2.556c.94,0,1.306-.664,1.663-1.161l.353.49a1.613,1.613,0,1,0,2.618-1.885l-.374-.52.594-.2A1.613,1.613,0,0,0,340.366,37.331Z" transform="translate(-331.843 -34.249)"/>
      </g>
    </g>
    <g id="Group_599" data-name="Group 599" transform="translate(87.321 51.563)">
      <g id="Group_598" data-name="Group 598">
        <path id="Path_2407" data-name="Path 2407" class="cls-1" d="M414.53,117.836a1.613,1.613,0,0,0-2.035-1.03l-.573.188v-.627a1.613,1.613,0,1,0-3.226,0v.627l-.573-.188a1.613,1.613,0,1,0-1.005,3.065l.594.2-.374.52a1.613,1.613,0,0,0,2.618,1.885l.352-.49c.339.471.71,1.161,1.663,1.161a1.615,1.615,0,0,0,1.308-2.556l-.374-.52.594-.2A1.613,1.613,0,0,0,414.53,117.836Z" transform="translate(-406.006 -114.754)"/>
      </g>
    </g>
    <g id="Group_601" data-name="Group 601" transform="translate(72.694 49.304)">
      <g id="Group_600" data-name="Group 600">
        <circle id="Ellipse_3235" data-name="Ellipse 3235" class="cls-1" cx="1.5" cy="1.5" r="1.5" transform="translate(0.306 -0.055)"/>
      </g>
    </g>
    <g id="Group_603" data-name="Group 603" transform="translate(98.503 75.416)">
      <g id="Group_602" data-name="Group 602">
        <circle id="Ellipse_3236" data-name="Ellipse 3236" class="cls-1" cx="1.613" cy="1.613" r="1.613"/>
      </g>
    </g>
    <g id="Group_605" data-name="Group 605" transform="translate(81.727 63.069)">
      <g id="Group_604" data-name="Group 604" transform="translate(0 0)">
        <circle id="Ellipse_3237" data-name="Ellipse 3237" class="cls-1" cx="1.5" cy="1.5" r="1.5" transform="translate(0.273 0.18)"/>
      </g>
    </g>
    <g id="Group_607" data-name="Group 607" transform="translate(99.15 41.992)">
      <g id="Group_606" data-name="Group 606" transform="translate(0 0)">
        <circle id="Ellipse_3238" data-name="Ellipse 3238" class="cls-1" cx="1.5" cy="1.5" r="1.5" transform="translate(-0.15 0.257)"/>
      </g>
    </g>
    <g id="Group_609" data-name="Group 609" transform="translate(51.297 48.492)">
      <g id="Group_608" data-name="Group 608">
        <path id="Path_2408" data-name="Path 2408" class="cls-1" d="M258.175,106.715a3.208,3.208,0,0,0-2.03-1.144,1.614,1.614,0,0,0-.465,3.194l-2.878,2.8a1.613,1.613,0,0,0-.465,1.428l.68,3.962h0c-4.739-2.493-3.906-2.477-8.609,0h0s0,0,0,0l.68-3.962a1.618,1.618,0,0,0-.462-1.428l-2.88-2.8,3.979-.578a1.615,1.615,0,0,0,1.213-.882l1.781-3.6.7,1.422a1.614,1.614,0,1,0,2.895-1.428l-.7-1.421a3.229,3.229,0,0,0-5.788,0l-1.4,2.843c-3.2.465-4.2.4-5.17,1.6a3.229,3.229,0,0,0-.731,2.058c-.012,1.673.965,2.29,3.245,4.515l-.536,3.127a3.213,3.213,0,0,0,.929,2.856,3.229,3.229,0,0,0,2.254.918c1.007,0,1.362-.3,4.3-1.85h0l2.807,1.475a3.229,3.229,0,0,0,4.727-2.845,3.172,3.172,0,0,0-.047-.555l-.536-3.127,2.271-2.213A3.222,3.222,0,0,0,258.175,106.715Z" transform="translate(-238.511 -100.475)"/>
      </g>
    </g>
    <g id="Group_611" data-name="Group 611" transform="translate(0 69.353)">
      <g id="Group_610" data-name="Group 610">
        <path id="Path_2409" data-name="Path 2409" class="cls-1" d="M108.5,211.506H87.035l.765-.746a3.634,3.634,0,0,0-2.014-6.2l-4.143-.6-1.853-3.754a3.634,3.634,0,0,0-6.516,0l-1.853,3.754-4.143.6a3.634,3.634,0,0,0-2.014,6.2l.765.746H60.26a3.222,3.222,0,0,0-.926-2.609l-9.125-9.125a3.23,3.23,0,0,0-4.562,0l-5.614,5.614L33.85,199.2a5.914,5.914,0,0,0-9.895,2.651l-3.234,12.068a8.013,8.013,0,0,0-4.266,4.266L4.388,221.422a5.913,5.913,0,0,0-2.651,9.9L7.92,237.5l-5.614,5.614a3.224,3.224,0,0,0,0,4.563L11.43,256.8a3.23,3.23,0,0,0,4.562,0l42.068-42.07h48.83v38.176a1.621,1.621,0,0,1-1.613,1.613H50.865a1.621,1.621,0,0,1-1.613-1.613V232.336a1.613,1.613,0,0,0-3.226,0v20.576a4.839,4.839,0,0,0,4.839,4.839h54.412a4.837,4.837,0,0,0,4.839-4.839V213.119A1.616,1.616,0,0,0,108.5,211.506ZM27.071,202.69a2.688,2.688,0,0,1,4.5-1.205l6.183,6.183L30.3,215.124l1.946-7.263a1.613,1.613,0,1,0-3.116-.835l-1.874,6.992a8.008,8.008,0,0,0-3.02-.733ZM22.513,216.7a4.816,4.816,0,0,1,4.882,1.325l-6.837,6.837A4.839,4.839,0,0,1,22.513,216.7Zm-18.5,12.335a2.689,2.689,0,0,1,1.205-4.5L15.817,221.7a8.014,8.014,0,0,0,.733,3.02l-6.992,1.874a1.613,1.613,0,0,0,.835,3.116l7.263-1.946L10.2,235.22Zm9.694,25.485L4.586,245.4l6.755-6.755h0l29.832-29.832h0l6.755-6.755,9.126,9.123ZM85.548,208.45l-3.135,3.056H70.653c-3.371-3.286-3.346-3.142-3.238-3.474s-.051-.222,5.311-1a1.612,1.612,0,0,0,1.215-.882c2.405-4.874,2.245-4.742,2.593-4.742s.188-.132,2.593,4.742a1.613,1.613,0,0,0,1.215.882l4.982.724A.406.406,0,0,1,85.548,208.45Z" transform="translate(0 -197.466)"/>
      </g>
    </g>
  </g>
</svg>
