<svg xmlns="http://www.w3.org/2000/svg" width="26.153" height="26.146" viewBox="0 0 26.153 26.146">
  <defs>
    <style>
      .cls-1 {
        fill: #00b584;
        stroke: #009C72;
      }
    </style>
  </defs>
  <g id="project-management" transform="translate(0 -0.067)">
    <g id="Group_535" data-name="Group 535" transform="translate(0 0.175)">
      <g id="Group_534" data-name="Group 534">
        <path id="Path_2369" data-name="Path 2369" class="cls-1" d="M25.781,8.813h0l-1.688-.241a.434.434,0,0,1-.2-.777l1.364-1.023a.434.434,0,0,0,.087-.608L23.782,4.08a.434.434,0,0,0-.608-.087L21.81,5.017a.434.434,0,0,1-.692-.408L21.36,2.92a.434.434,0,0,0-.368-.491h0l-2.576-.368a.434.434,0,0,0-.491.368h0l-.241,1.688a.434.434,0,0,1-.777.2L15.883,2.952a.434.434,0,0,0-.608-.087l-1.3.979a8.4,8.4,0,0,0-1.775,0,8.245,8.245,0,0,0-7.27,7.393c-.012.123-.016.245-.022.367h-.13a.434.434,0,0,0-.424.347l-.3,1.426-1.2-.828a.434.434,0,0,0-.553.05l-1.3,1.3a.434.434,0,0,0-.05.553l.825,1.2-1.426.3A.434.434,0,0,0,0,16.378v1.736a.434.434,0,0,0,.345.425l1.426.3-.825,1.2A.434.434,0,0,0,1,20.59l1.3,1.3a.434.434,0,0,0,.553.05l1.2-.827.3,1.426a.434.434,0,0,0,.424.347H6.511a.434.434,0,0,0,.425-.345l.3-1.426,1.2.825a.434.434,0,0,0,.553-.05l.674-.676v1.237a1.73,1.73,0,0,0,.868,1.495v2.411a1.736,1.736,0,0,0,1.736,1.736H14a1.736,1.736,0,0,0,1.736-1.736V23.948a1.73,1.73,0,0,0,.868-1.495V20.736a2.126,2.126,0,0,1,1-1.771,8.328,8.328,0,0,0,1.022-.781l-.579-.647a7.387,7.387,0,0,1-.914.7,2.989,2.989,0,0,0-1.4,2.5v1.718a.868.868,0,0,1-.868.868H11.4a.868.868,0,0,1-.868-.868V20.7A2.92,2.92,0,0,0,9.153,18.25,7.355,7.355,0,0,1,13.04,4.667a.472.472,0,0,0-.017.047.434.434,0,0,0,.083.322L14.129,6.4a.425.425,0,0,1,.026.482.431.431,0,0,1-.434.209l-1.688-.241a.434.434,0,0,0-.491.368h0l-.368,2.577a.434.434,0,0,0,.368.491h0l1.688.241a.434.434,0,0,1,.2.777l-1.364,1.023a.434.434,0,0,0-.087.608l1.562,2.083a.434.434,0,0,0,.608.087l1.364-1.023a.434.434,0,0,1,.69.408l-.241,1.688a.434.434,0,0,0,.368.491h0l2.578.368a.481.481,0,0,0,.061,0,.434.434,0,0,0,.43-.372l.241-1.688a.434.434,0,0,1,.777-.2l1.023,1.364a.434.434,0,0,0,.608.087L24.13,14.67a.434.434,0,0,0,.087-.608L23.194,12.7a.427.427,0,0,1-.026-.482.421.421,0,0,1,.434-.208l1.688.241a.434.434,0,0,0,.491-.368h0L26.149,9.3A.434.434,0,0,0,25.781,8.813ZM11.4,24.189h3.472v.868H11.4Zm0,1.736h3.472v.434a.868.868,0,0,1-.868.868H12.266a.868.868,0,0,1-.868-.868ZM7.943,18.441a8.2,8.2,0,0,0,.742.54,2.118,2.118,0,0,1,.874,1.111l-.931.929-.9-.621a.868.868,0,0,0-1.342.536l-.227,1.084H5.126L4.9,20.937A.868.868,0,0,0,3.557,20.4l-.9.62-.791-.789.621-.9a.868.868,0,0,0-.536-1.342L.868,17.761V16.73L1.95,16.5a.868.868,0,0,0,.536-1.34l-.621-.9.791-.789.9.621A.868.868,0,0,0,4.9,13.555l.076-.361a8.264,8.264,0,0,0,.344,1.472,2.6,2.6,0,1,0,2.624,3.775Zm-.674-.611a1.733,1.733,0,1,1-1.627-2.32h.016A8.219,8.219,0,0,0,7.269,17.83Zm17.712-6.5-1.258-.18a1.3,1.3,0,0,0-1.226,2.07l.762,1.017L21.87,15.277l-.763-1.016a1.3,1.3,0,0,0-2.33.6l-.176,1.26-1.718-.246.18-1.258a1.3,1.3,0,0,0-2.07-1.226l-1.017.762-1.042-1.389L13.951,12a1.3,1.3,0,0,0-.6-2.33L12.1,9.488l.246-1.718,1.258.18a1.3,1.3,0,0,0,1.226-2.07l-.765-1.018L15.45,3.82l.763,1.017a1.3,1.3,0,0,0,2.33-.6l.18-1.258,1.718.245-.18,1.258a1.3,1.3,0,0,0,2.07,1.226l1.017-.762,1.042,1.389L23.372,7.1a1.3,1.3,0,0,0,.6,2.33l1.258.18Z" transform="translate(0 -2.057)"/>
      </g>
    </g>
    <g id="Group_537" data-name="Group 537" transform="translate(15.189 4.195)">
      <g id="Group_536" data-name="Group 536">
        <path id="Path_2370" data-name="Path 2370" class="cls-1" d="M283.472,76.171a3.472,3.472,0,1,0,3.472,3.472A3.472,3.472,0,0,0,283.472,76.171Zm0,6.076a2.6,2.6,0,1,1,2.6-2.6A2.6,2.6,0,0,1,283.472,82.246Z" transform="translate(-280 -76.171)"/>
      </g>
    </g>
    <g id="Group_539" data-name="Group 539" transform="translate(12.7 19.269)">
      <g id="Group_538" data-name="Group 538">
        <rect id="Rectangle_2245" data-name="Rectangle 2245" class="cls-1" width="0.868" height="1.302"/>
      </g>
    </g>
    <g id="Group_541" data-name="Group 541" transform="translate(7.054 5.015)">
      <g id="Group_540" data-name="Group 540">
        <path id="Path_2371" data-name="Path 2371" class="cls-1" d="M134.225,101.283a5.208,5.208,0,0,1-.879-9.258l-.464-.734a6.076,6.076,0,0,0,1.028,10.8,2.77,2.77,0,0,1,1.779,2.586h.868A3.631,3.631,0,0,0,134.225,101.283Z" transform="translate(-130.044 -91.291)"/>
      </g>
    </g>
    <g id="Group_543" data-name="Group 543" transform="translate(21.379 16.231)">
      <g id="Group_542" data-name="Group 542">
        <rect id="Rectangle_2246" data-name="Rectangle 2246" class="cls-1" width="3.038" height="0.868"/>
      </g>
    </g>
    <g id="Group_545" data-name="Group 545" transform="translate(20.667 18.502)">
      <g id="Group_544" data-name="Group 544" transform="translate(0 0)">
        <rect id="Rectangle_2247" data-name="Rectangle 2247" class="cls-1" width="0.868" height="3.389" transform="matrix(0.64, -0.768, 0.768, 0.64, 0, 0.667)"/>
      </g>
    </g>
    <g id="Group_547" data-name="Group 547" transform="translate(18.775 19.703)">
      <g id="Group_546" data-name="Group 546">
        <rect id="Rectangle_2248" data-name="Rectangle 2248" class="cls-1" width="0.868" height="3.038"/>
      </g>
    </g>
    <g id="Group_549" data-name="Group 549" transform="translate(0.443 6.697)">
      <g id="Group_548" data-name="Group 548" transform="translate(0 0)">
        <rect id="Rectangle_2249" data-name="Rectangle 2249" class="cls-1" width="3.578" height="0.867" transform="translate(0 0.868) rotate(-14.035)"/>
      </g>
    </g>
    <g id="Group_551" data-name="Group 551" transform="translate(1.164 2.426)">
      <g id="Group_550" data-name="Group 550" transform="translate(0 0)">
        <rect id="Rectangle_2250" data-name="Rectangle 2250" class="cls-1" width="0.867" height="3.733" transform="matrix(0.581, -0.814, 0.814, 0.581, 0, 0.706)"/>
      </g>
    </g>
    <g id="Group_553" data-name="Group 553" transform="translate(4.882 0.067)">
      <g id="Group_552" data-name="Group 552" transform="translate(0 0)">
        <rect id="Rectangle_2251" data-name="Rectangle 2251" class="cls-1" width="0.868" height="3.583" transform="matrix(0.969, -0.248, 0.248, 0.969, 0, 0.215)"/>
      </g>
    </g>
  </g>
</svg>
