<svg xmlns="http://www.w3.org/2000/svg" width="27.614" height="36.563" viewBox="0 0 27.614 36.563">
  <defs>
    <style>
      .cls-1 {
        fill: #00b584;
        stroke: #009C72;
      }
    </style>
  </defs>
  <g id="robotic" transform="translate(-57.693 -0.001)">
    <g id="Group_470" data-name="Group 470" transform="translate(65.473 8.157)">
      <g id="Group_469" data-name="Group 469" transform="translate(0)">
        <path id="Path_2328" data-name="Path 2328" class="cls-1" d="M160.506,105.178a2.482,2.482,0,1,0,2.482,2.482A2.482,2.482,0,0,0,160.506,105.178Zm0,3.722a1.238,1.238,0,1,1,0-2.475v-.006a1.241,1.241,0,1,1,0,2.482Z" transform="translate(-158.024 -105.178)"/>
      </g>
    </g>
    <g id="Group_472" data-name="Group 472" transform="translate(72.571 8.157)">
      <g id="Group_471" data-name="Group 471" transform="translate(0)">
        <path id="Path_2329" data-name="Path 2329" class="cls-1" d="M252.026,105.178a2.482,2.482,0,1,0,2.482,2.482A2.482,2.482,0,0,0,252.026,105.178Zm0,3.722a1.238,1.238,0,1,1,0-2.475v-.006a1.241,1.241,0,1,1,0,2.482Z" transform="translate(-249.544 -105.178)"/>
      </g>
    </g>
    <g id="Group_474" data-name="Group 474" transform="translate(60.335 0.001)">
      <g id="Group_473" data-name="Group 473" transform="translate(0)">
        <path id="Path_2330" data-name="Path 2330" class="cls-1" d="M114.042,11.013a3.456,3.456,0,0,0-2.937-2.806,3.724,3.724,0,0,0-3.958-2.8h-3.6V4.038a2.066,2.066,0,1,0-1.241,0V5.372H98.716a3.825,3.825,0,0,0-3.97,2.8A3.456,3.456,0,0,0,94.6,15l-.006.031a3.816,3.816,0,0,0,4.113,3.722h8.437a3.794,3.794,0,0,0,4.113-3.722A3.456,3.456,0,0,0,114.042,11.013ZM94.578,13.79a2.209,2.209,0,0,1,0-4.243ZM102.1,2.1a.825.825,0,1,1,.825.825A.825.825,0,0,1,102.1,2.1Zm7.935,12.482a2.622,2.622,0,0,1-2.891,2.891H98.716a2.622,2.622,0,0,1-2.891-2.891l-.006-5.038A2.619,2.619,0,0,1,98.71,6.656h8.437a2.619,2.619,0,0,1,2.891,2.891Zm1.216-.838V9.5a2.207,2.207,0,0,1,0,4.243Z" transform="translate(-91.76 -0.001)"/>
      </g>
    </g>
    <g id="Group_476" data-name="Group 476" transform="translate(67.335 14.808)">
      <g id="Group_475" data-name="Group 475" transform="translate(0)">
        <path id="Path_2331" data-name="Path 2331" class="cls-1" d="M189.742,190.938h-7.1a.62.62,0,1,0,0,1.241h7.1a.62.62,0,0,0,0-1.241Z" transform="translate(-182.024 -190.938)"/>
      </g>
    </g>
    <g id="Group_478" data-name="Group 478" transform="translate(57.693 17.499)">
      <g id="Group_477" data-name="Group 477">
        <path id="Path_2332" data-name="Path 2332" class="cls-1" d="M85.307,228.053h0a2.407,2.407,0,0,0-4.752-.521l-1.656.323H64.108l-1.656-.323a2.407,2.407,0,1,0-2.965,2.841v4.634a2.407,2.407,0,0,0-1.787,2.314v1.1a.62.62,0,1,0,1.241,0v-1.1a1.166,1.166,0,1,1,2.333,0v1.1a.62.62,0,0,0,1.241,0v-1.1A2.407,2.407,0,0,0,60.727,235v-4.634a2.4,2.4,0,0,0,1.663-1.588l1.036.2v7.656a8.022,8.022,0,0,0,.695,3.257v.056a8.065,8.065,0,0,0,14.7,0l.031-.068a8.015,8.015,0,0,0,.713-3.245v-7.656l1.036-.2a2.4,2.4,0,0,0,1.663,1.588V235a2.407,2.407,0,0,0-1.787,2.314v1.1a.62.62,0,1,0,1.241,0v-1.1a1.166,1.166,0,0,1,2.333,0v1.1a.62.62,0,0,0,1.241,0v-1.1A2.407,2.407,0,0,0,83.508,235v-4.634A2.407,2.407,0,0,0,85.307,228.053Zm-25.2,1.166a1.166,1.166,0,1,1,1.166-1.166A1.166,1.166,0,0,1,60.107,229.219Zm11.4,14.25a6.824,6.824,0,0,1-5.763-3.17H77.267A6.825,6.825,0,0,1,71.5,243.469Zm6.824-6.824a6.823,6.823,0,0,1-.453,2.42H65.12a6.823,6.823,0,0,1-.453-2.42v-7.55H78.328Zm4.579-7.426H82.9l-.012-.019a.825.825,0,1,1,.019.019Z" transform="translate(-57.693 -225.638)"/>
      </g>
    </g>
    <g id="Group_480" data-name="Group 480" transform="translate(69.335 21.812)">
      <g id="Group_479" data-name="Group 479">
        <path id="Path_2333" data-name="Path 2333" class="cls-1" d="M212.181,284.776a.621.621,0,0,0-.414-.16h-1.861l2.283-2.345a.62.62,0,0,0-.887-.862l-3.307,3.4a.62.62,0,0,0,.447,1.055h1.911L208,288.481a.62.62,0,0,0,.043.875h0a.62.62,0,0,0,.875-.043l3.307-3.66A.62.62,0,0,0,212.181,284.776Z" transform="translate(-207.817 -281.253)"/>
      </g>
    </g>
  </g>
</svg>
