<svg xmlns="http://www.w3.org/2000/svg" width="54.008" height="54" viewBox="0 0 54.008 54">
  <defs>
    <style>
      .cls-1 {
        fill: #009C72;
        stroke: #009C72;
      }
    </style>
  </defs>
  <g id="robot-arm" transform="translate(0 -0.04)">
    <g id="Group_482" data-name="Group 482" transform="translate(45.247 47.704)">
      <g id="Group_481" data-name="Group 481">
        <path id="Path_2334" data-name="Path 2334" class="cls-1" d="M430,451.9a1.055,1.055,0,1,0,1.055,1.055A1.055,1.055,0,0,0,430,451.9Z" transform="translate(-428.945 -451.898)"/>
      </g>
    </g>
    <g id="Group_484" data-name="Group 484" transform="translate(38.604 47.704)">
      <g id="Group_483" data-name="Group 483">
        <path id="Path_2335" data-name="Path 2335" class="cls-1" d="M367.02,451.9a1.055,1.055,0,1,0,1.055,1.055A1.055,1.055,0,0,0,367.02,451.9Z" transform="translate(-365.965 -451.898)"/>
      </g>
    </g>
    <g id="Group_486" data-name="Group 486" transform="translate(32.277 47.704)">
      <g id="Group_485" data-name="Group 485">
        <path id="Path_2336" data-name="Path 2336" class="cls-1" d="M307.039,451.9a1.055,1.055,0,1,0,1.055,1.055A1.055,1.055,0,0,0,307.039,451.9Z" transform="translate(-305.984 -451.898)"/>
      </g>
    </g>
    <g id="Group_488" data-name="Group 488" transform="translate(25.317 47.704)">
      <g id="Group_487" data-name="Group 487">
        <path id="Path_2337" data-name="Path 2337" class="cls-1" d="M241.06,451.9a1.055,1.055,0,1,0,1.055,1.055A1.055,1.055,0,0,0,241.06,451.9Z" transform="translate(-240.005 -451.898)"/>
      </g>
    </g>
    <g id="Group_490" data-name="Group 490" transform="translate(18.99 47.704)">
      <g id="Group_489" data-name="Group 489">
        <path id="Path_2338" data-name="Path 2338" class="cls-1" d="M181.079,451.9a1.055,1.055,0,1,0,1.055,1.055A1.055,1.055,0,0,0,181.079,451.9Z" transform="translate(-180.024 -451.898)"/>
      </g>
    </g>
    <g id="Group_492" data-name="Group 492" transform="translate(12.663 47.704)">
      <g id="Group_491" data-name="Group 491">
        <path id="Path_2339" data-name="Path 2339" class="cls-1" d="M121.1,451.9a1.055,1.055,0,1,0,1.055,1.055A1.055,1.055,0,0,0,121.1,451.9Z" transform="translate(-120.043 -451.898)"/>
      </g>
    </g>
    <g id="Group_494" data-name="Group 494" transform="translate(6.336 47.704)">
      <g id="Group_493" data-name="Group 493">
        <path id="Path_2340" data-name="Path 2340" class="cls-1" d="M61.117,451.9a1.055,1.055,0,1,0,1.055,1.055A1.055,1.055,0,0,0,61.117,451.9Z" transform="translate(-60.062 -451.898)"/>
      </g>
    </g>
    <g id="Group_496" data-name="Group 496" transform="translate(0 0.04)">
      <g id="Group_495" data-name="Group 495">
        <path id="Path_2341" data-name="Path 2341" class="cls-1" d="M48.727,43.478H47.356V32.73A1.055,1.055,0,0,0,46.3,31.676H37.549a1.055,1.055,0,0,0-1.055,1.055V43.478H27.426V29.567a8.362,8.362,0,0,0-1.706-5.088,8.5,8.5,0,0,0-4.066-2.917l-6.921-6.585L36.28,12.356a7.327,7.327,0,0,0,1.27,1.122v3.434H36.495a1.054,1.054,0,0,0-.943.583l-2.109,4.218a1.055,1.055,0,0,0,.2,1.217l4.218,4.218a1.055,1.055,0,1,0,1.491-1.491l-3.681-3.681,1.478-2.955h9.242l1.478,2.955-3.681,3.681a1.055,1.055,0,1,0,1.491,1.491l4.218-4.218a1.054,1.054,0,0,0,.2-1.217L47.983,17.5a1.054,1.054,0,0,0-.943-.583H45.985V13.478A7.381,7.381,0,1,0,35.267,3.922l-25.7.547A1.054,1.054,0,0,0,9.3,4.51a7.381,7.381,0,1,0-2.324,14.5L11.774,25.2a8.356,8.356,0,0,0-1.22,4.37V43.478H5.281a5.281,5.281,0,0,0,0,10.562H48.727a5.281,5.281,0,0,0,0-10.562ZM43.876,16.912H39.658V14.5a7.384,7.384,0,0,0,4.218,0v2.417ZM36.907,5.373h0a5.28,5.28,0,1,1-.413,2.049A5.265,5.265,0,0,1,36.907,5.373Zm1.7,28.412h6.643v9.7H38.6ZM20.8,23.5h0a6.328,6.328,0,1,1-8.137,6.064A6.331,6.331,0,0,1,20.8,23.5Zm4.52,11.636v8.349H12.663V35.138a8.419,8.419,0,0,0,12.654,0Zm9.2-29.09a7.415,7.415,0,0,0-.129,1.374,7.335,7.335,0,0,0,.619,2.965L14.67,12.86A7.38,7.38,0,0,0,12.7,6.512ZM7.177,16.907a5.266,5.266,0,1,1,5.073-3.218A5.424,5.424,0,0,1,12,14.2,5.294,5.294,0,0,1,7.73,16.9,1.058,1.058,0,0,0,7.177,16.907Zm2.256,1.825a7.427,7.427,0,0,0,3.658-2.405l5.091,4.844A8.5,8.5,0,0,0,13.129,23.5ZM50.958,50.989a3.134,3.134,0,0,1-2.23.924H5.281a3.155,3.155,0,0,1,0-6.31h6.327a1.059,1.059,0,0,0,.129-.009H26.243a1.058,1.058,0,0,0,.129.009H37.549a1.059,1.059,0,0,0,.129-.009h8.5a1.059,1.059,0,0,0,.129.009h2.425a3.154,3.154,0,0,1,2.23,5.386Z" transform="translate(0 -0.04)"/>
      </g>
    </g>
    <g id="Group_498" data-name="Group 498" transform="translate(38.604 4.258)">
      <g id="Group_497" data-name="Group 497">
        <path id="Path_2342" data-name="Path 2342" class="cls-1" d="M369.129,40.028a3.164,3.164,0,1,0,3.164,3.164A3.167,3.167,0,0,0,369.129,40.028Zm0,4.218a1.055,1.055,0,1,1,1.055-1.055A1.056,1.056,0,0,1,369.129,44.246Z" transform="translate(-365.965 -40.028)"/>
      </g>
    </g>
    <g id="Group_500" data-name="Group 500" transform="translate(4.227 8.476)">
      <g id="Group_499" data-name="Group 499">
        <path id="Path_2343" data-name="Path 2343" class="cls-1" d="M43.232,80.016A3.164,3.164,0,1,0,46.4,83.18,3.167,3.167,0,0,0,43.232,80.016Zm0,4.218a1.055,1.055,0,1,1,1.055-1.055A1.056,1.056,0,0,1,43.232,84.234Z" transform="translate(-40.068 -80.016)"/>
      </g>
    </g>
    <g id="Group_502" data-name="Group 502" transform="translate(14.772 25.348)">
      <g id="Group_501" data-name="Group 501">
        <path id="Path_2344" data-name="Path 2344" class="cls-1" d="M144.255,239.965a4.218,4.218,0,1,0,4.218,4.218A4.223,4.223,0,0,0,144.255,239.965Zm0,6.327a2.109,2.109,0,1,1,2.109-2.109A2.111,2.111,0,0,1,144.255,246.292Z" transform="translate(-140.037 -239.965)"/>
      </g>
    </g>
  </g>
</svg>
