<svg xmlns="http://www.w3.org/2000/svg" width="9.902" height="10.441" viewBox="0 0 9.902 10.441">
  <defs>
    <style>
      .cls-1 {
        fill: #eff8f5;
      }
    </style>
  </defs>
  <path id="Path_3297" data-name="Path 3297" class="cls-1" d="M-310.365,89.433a14.521,14.521,0,0,1-1.755-1.969c-.436-.744-.142-.761.34-1.195l1.159-1.043a.314.314,0,0,0-.22-.53l-1.794.166c-.809.074-1.282.177-1.663-.654a17.8,17.8,0,0,1-.927-3.5c-.063-.288-.421-.269-.568-.074a6.906,6.906,0,0,0-1.4,4.637h0a10.577,10.577,0,0,1-2.772,1.16.314.314,0,0,0,0,.6,14.4,14.4,0,0,0,2.545.619,4.817,4.817,0,0,0-.4,3.051.312.312,0,0,0,.519.137l1.421-1.7c.278-.333.523-.8,1.059-.727a4.193,4.193,0,0,1,.908.486,6.941,6.941,0,0,0,3.328,1.071A.314.314,0,0,0-310.365,89.433Z" transform="translate(320.184 -80.486)"/>
</svg>
