<svg xmlns="http://www.w3.org/2000/svg" width="10.433" height="11" viewBox="0 0 10.433 11">
  <defs>
    <style>
      .cls-1 {
        fill: #eff8f5;
      }
    </style>
  </defs>
  <path id="Path_3299" data-name="Path 3299" class="cls-1" d="M-207.245,41.167a15.351,15.351,0,0,0,1.848-2.074c.46-.784.15-.8-.358-1.26l-1.22-1.1a.33.33,0,0,1,.231-.559l1.89.175c.852.079,1.351.187,1.752-.689a18.735,18.735,0,0,0,.977-3.69c.066-.305.443-.284.6-.078a7.281,7.281,0,0,1,1.472,4.885h0A11.127,11.127,0,0,0-197.134,38a.33.33,0,0,1,0,.632,15.093,15.093,0,0,1-2.68.652,5.087,5.087,0,0,1,.423,3.215.329.329,0,0,1-.547.144l-1.5-1.794c-.292-.351-.55-.844-1.115-.766a4.47,4.47,0,0,0-.957.512,7.327,7.327,0,0,1-3.506,1.129A.331.331,0,0,1-207.245,41.167Z" transform="translate(207.333 -31.741)"/>
</svg>
