<svg xmlns="http://www.w3.org/2000/svg" width="27.596" height="27.59" viewBox="0 0 27.596 27.59">
  <defs>
    <style>
      .cls-1 {
        fill: none;
        stroke: #009C72;
      }
    </style>
  </defs>
  <g id="start-up" transform="translate(0.531 0.499)">
    <path id="Path_2372" data-name="Path 2372" class="cls-1" d="M73.232,284.176a.779.779,0,0,0,.145.9l.19.19c.55-.652,1.191-1.359,1.968-2.136.055-.055.111-.081.167-.132l-1.224-1.225C73.766,283.061,73.351,283.94,73.232,284.176Zm0,0" transform="translate(-69.353 -267.152)"/>
    <path id="Path_2373" data-name="Path 2373" class="cls-1" d="M165.023,389.729c-.779.779-1.484,1.421-2.132,1.971l.258.258a.778.778,0,0,0,.906.142c.4-.208,1.037-.506,2.383-1.256l-1.282-1.282C165.1,389.617,165.078,389.674,165.023,389.729Zm0,0" transform="translate(-154.438 -369.349)"/>
    <path id="Path_2374" data-name="Path 2374" class="cls-1" d="M66.665,311.542c-.562-.562-2.144-.058-2.887.685a20.7,20.7,0,0,0-4.112,5.288.778.778,0,0,0,1.041,1.039,20.848,20.848,0,0,0,5.273-4.126c.817-.817,1.22-2.351.686-2.885Zm0,0" transform="translate(-56.496 -295.149)"/>
    <path id="Path_2375" data-name="Path 2375" class="cls-1" d="M2.43,165.648l-2.2,2.2a.778.778,0,0,0,.752,1.3,6.4,6.4,0,0,1,2.941-.273,41.762,41.762,0,0,1,3.222-4.915c-.66-.423-2.841-.187-4.714,1.685Zm0,0" transform="translate(0 -155.285)"/>
    <path id="Path_2376" data-name="Path 2376" class="cls-1" d="M246.069,383.44a.777.777,0,0,0,.9-.144l2.2-2.2c1.7-1.7,2-3.9,1.618-4.6a44.417,44.417,0,0,1-4.919,3.2,9.538,9.538,0,0,1-.22,2.941A.777.777,0,0,0,246.069,383.44Zm0,0" transform="translate(-232.895 -356.957)"/>
    <path id="Path_2377" data-name="Path 2377" class="cls-1" d="M285.326,137.992a2.335,2.335,0,1,0,3.3,0A2.338,2.338,0,0,0,285.326,137.992Zm0,0" transform="translate(-269.875 -130.183)"/>
    <path id="Path_2378" data-name="Path 2378" class="cls-1" d="M394.173.76a.777.777,0,0,0-.718-.718A15.386,15.386,0,0,0,387.773.7a6.534,6.534,0,0,0,1.936,3.8,6.513,6.513,0,0,0,3.876,1.932A16.094,16.094,0,0,0,394.173.76Zm0,0" transform="translate(-367.653 0)"/>
    <path id="Path_2379" data-name="Path 2379" class="cls-1" d="M129.361,28.357A8.176,8.176,0,0,1,127.022,24c-4.673,1.917-9.147,6.1-12.682,11.982l1.756,1.756a3.277,3.277,0,0,1,3.581.308,3.274,3.274,0,0,1,.307,3.58l1.814,1.814c4.524-2.727,9.791-7.022,12.031-12.737a8.137,8.137,0,0,1-4.467-2.342Zm-1.1,6.6a3.891,3.891,0,1,1,0-5.5A3.9,3.9,0,0,1,128.26,34.96Zm0,0" transform="translate(-108.406 -22.75)"/>
  </g>
</svg>
