<svg xmlns="http://www.w3.org/2000/svg" width="31.426" height="31.426" viewBox="0 0 31.426 31.426">
  <defs>
    <style>
      .cls-1 {
        fill: #00b584;
        stroke: #009C72;
      }
    </style>
  </defs>
  <g id="statistics" transform="translate(0)">
    <path id="Path_2423" data-name="Path 2423" class="cls-1" d="M104.917,286.1a2.024,2.024,0,0,1-2.806,2.806l-.56.845a3.039,3.039,0,0,0,4.211-4.212Zm0,0" transform="translate(-95.117 -267.451)"/>
    <path id="Path_2424" data-name="Path 2424" class="cls-1" d="M83.041,265.014a2.014,2.014,0,0,1,1.116.337l.56-.845a3.039,3.039,0,0,0-4.211,4.212l.845-.56a2.025,2.025,0,0,1,1.69-3.144Zm0,0" transform="translate(-74.931 -247.273)"/>
    <path id="Path_2425" data-name="Path 2425" class="cls-1" d="M288,336v3.041h2.027v-1.014h-1.014V336Zm0,0" transform="translate(-269.753 -314.711)"/>
    <path id="Path_2426" data-name="Path 2426" class="cls-1" d="M243.841,288a5.586,5.586,0,0,0-3.528,1.259l.643.785a4.565,4.565,0,0,1,2.379-1v.982h1.014v-.984a4.568,4.568,0,0,1,4.025,4.025h-.984v1.014h.982a4.566,4.566,0,0,1-1,2.379l.784.642a5.575,5.575,0,0,0-4.316-9.1Zm0,0" transform="translate(-225.087 -269.752)"/>
    <path id="Path_2427" data-name="Path 2427" class="cls-1" d="M214.082,328.371v-.982h-1.014v.984a4.568,4.568,0,0,1-4.025-4.025h.984v-1.014h-.982a4.566,4.566,0,0,1,1-2.379l-.784-.642a5.575,5.575,0,0,0,7.844,7.845l-.643-.785A4.563,4.563,0,0,1,214.082,328.371Zm0,0" transform="translate(-194.821 -300.018)"/>
    <path id="Path_2428" data-name="Path 2428" class="cls-1" d="M28.385,98.248H27.371V84.056H24.33V93.6a7.644,7.644,0,0,0-1.014-.916v-6.1H20.275V91.3a7.625,7.625,0,0,0-1.014-.128V89.124H16.22V91.6a7.565,7.565,0,0,0-1.448.695,7.009,7.009,0,0,0-.35-.824l.8-1.122-2.757-2.758-1.123.8a7.058,7.058,0,0,0-1.056-.436L10.06,86.59H6.16l-.226,1.362a7.058,7.058,0,0,0-1.056.436l-1.123-.8L1,90.344l.8,1.122a6.967,6.967,0,0,0-.436,1.056L0,92.75v3.9l1.362.227A7.017,7.017,0,0,0,1.8,97.933L1,99.055l2.757,2.758,1.123-.8a7.059,7.059,0,0,0,1.056.436l.226,1.362h3.9l.226-1.362a7.058,7.058,0,0,0,1.056-.436l.2.145a7.595,7.595,0,0,0,14.786-1.9h5.094V80H28.385ZM25.344,85.069h1.014V98.248h-.026a7.544,7.544,0,0,0-.988-3.27ZM21.289,87.6H22.3v4.432a7.542,7.542,0,0,0-1.014-.44Zm-4.055,2.534h1.014v1.039a7.585,7.585,0,0,0-1.014.128Zm-6.105,9.838a6.031,6.031,0,0,1-1.422.587l-.314.085L9.2,101.8H7.019l-.192-1.148-.314-.085a6.039,6.039,0,0,1-1.422-.587l-.282-.162-.945.676L2.32,98.947,3,98l-.162-.282A6.023,6.023,0,0,1,2.246,96.3l-.085-.314-1.148-.191V93.609l1.148-.191.085-.314a6.039,6.039,0,0,1,.587-1.422L3,91.4l-.676-.946L3.864,88.91l.945.676.282-.162a6.031,6.031,0,0,1,1.422-.587l.314-.085L7.019,87.6H9.2l.192,1.148.314.085a6.04,6.04,0,0,1,1.422.587l.282.162.945-.676L13.9,90.453l-.676.946.162.282a6.029,6.029,0,0,1,.519,1.222,7.694,7.694,0,0,0-.825.807,5.088,5.088,0,1,0-1.929,5.03s0,.009,0,.014a7.587,7.587,0,0,0,.1,1.152ZM12.152,95a7.564,7.564,0,0,0-.833,2.173,4.05,4.05,0,1,1,.845-2.471c0,.1-.006.2-.013.3Zm6.6,10.346a6.589,6.589,0,1,1,6.589-6.589A6.6,6.6,0,0,1,18.754,105.344ZM29.4,81.014h1.014V98.248H29.4Zm0,0" transform="translate(0 -74.932)"/>
    <path id="Path_2429" data-name="Path 2429" class="cls-1" d="M28.385,0V1.014h1.089L25.888,3.883,24.33,2.324l-2.39,2.39a1.5,1.5,0,0,0-.651-.152,1.523,1.523,0,0,0-1.521,1.521,1.5,1.5,0,0,0,.19.721L17.309,9.747a1.513,1.513,0,0,0-.582-.117c-.01,0-.018,0-.028,0L14.661,4.2A1.518,1.518,0,1,0,12.2,3.361L8.044,5.917a1.5,1.5,0,0,0-2.376.672H2.948a1.521,1.521,0,1,0,0,1.014H5.669a1.517,1.517,0,0,0,2.913-.826L12.738,4.22a1.5,1.5,0,0,0,.948.342c.01,0,.018,0,.028,0l2.038,5.435a1.524,1.524,0,1,0,2.306.437l2.649-2.944a1.519,1.519,0,0,0,2.1-1.4,1.5,1.5,0,0,0-.152-.651L24.33,3.758l1.483,1.483,4.6-3.679v1.48h1.014V0ZM1.52,7.6A.507.507,0,1,1,2.027,7.1.508.508,0,0,1,1.52,7.6ZM7.1,7.6A.507.507,0,1,1,7.6,7.1.508.508,0,0,1,7.1,7.6Zm6.082-4.562a.507.507,0,1,1,.507.507A.508.508,0,0,1,13.179,3.041Zm3.548,8.617a.507.507,0,1,1,.507-.507A.508.508,0,0,1,16.727,11.658Zm4.562-5.069a.507.507,0,1,1,.507-.507A.508.508,0,0,1,21.289,6.589Zm0,0" transform="translate(0)"/>
  </g>
</svg>
