<svg xmlns="http://www.w3.org/2000/svg" width="1353.002" height="272.951" viewBox="0 0 1353.002 272.951">
  <defs>
    <style>
      .cls-1 {
        fill: #fff;
        stroke: rgba(0,0,0,0);
        opacity: 0.09;
      }
    </style>
  </defs>
  <path id="Subtraction_5" data-name="Subtraction 5" class="cls-1" d="M1891.2,964.951l-5.482,0,.027-.013a2.38,2.38,0,0,1-.144-.8,2.411,2.411,0,0,1,.094-.638l-7.462-2.946-5.039,4.393h-.563l5.214-4.546-2.457-.969-3.6,5.515h-.442l3.695-5.654-3.04-1.2-1.453,6.853h-.376l1.481-6.991L1821.3,938.089l-31.251,26.4,1.363.462h-1.769l-.1-.034-.041.034h-.573l.2-.173-6.227-2.109.348,2.281h-.373l-.368-2.415-21.786-7.378a2.682,2.682,0,0,1-2.427,1.579,2.646,2.646,0,0,1-2.276-1.3L1751.7,957.5l-1.3,7.029a1.8,1.8,0,0,1,.724.425h-2.461a1.722,1.722,0,0,1,1.242-.525.251.251,0,0,1,.073.014.274.274,0,0,0,.061.013l1.249-6.76-11.235,5.354,6.359,1.9h-1.291l-5.565-1.667-3.5,1.667h-1.317l4.005-1.909-51.023-15.28,7.231,17.189h-.551l-7.312-17.378-48.988-14.67a1.768,1.768,0,0,1-.982.962l8.356,31.086h-.38l-.9-3.362-7.435-27.651a.886.886,0,0,0-.1.024.585.585,0,0,1-.17.031,1.716,1.716,0,0,1-1.507-.922l-18.751,7.981-13.886,23.9h-.589l13.694-23.566-55.362,23.566h-.945l22.608-9.623,34.01-14.479,9.843-16.941L1588.834,895a1.721,1.721,0,0,1-1.255.544,1.67,1.67,0,0,1-.829-.239l-17.4,25.173-22.681,32.808,3.865,11.661H1550l-3.691-11.138-1.643,2.377,3.686,8.761h-.611l-3.454-8.212-5.677,8.212h-.449l5.955-8.615-19.292-45.858-26.385,6.939c.005.03.013.058.019.081l0,.015a.569.569,0,0,1,.029.158,1.739,1.739,0,0,1-.762,1.42l12.634,23.154,12.39,22.706h-.422L1497.418,919.3a1.725,1.725,0,0,1-.679.138.445.445,0,0,1-.128-.023.665.665,0,0,0-.093-.021l-10.882,45.56h-.379l10.9-45.633a1.724,1.724,0,0,1-1.1-1.335l-33.642,2.513-25.83,44.456h-.653l25.8-44.4-64.189,4.8-21.391,3.139,8.472,25.566,25.9,10.9h-.957l-24.785-10.435,3.458,10.435h-.593l-3.554-10.725-47.395-19.956-5.885.864,13.436,23.674,22.148,6.143h-1.914l-19.876-5.513,3.129,5.513h-.425L1343.1,959.3l-59.317-16.454a2.4,2.4,0,0,1-4.379.236L1205.792,962.5l8.841,2.452H1211.7l-6.28-1.531a1.716,1.716,0,0,1-3.338-.386l-112.521,1.124a3.162,3.162,0,0,1,.076.793h-6.155a3.147,3.147,0,0,1,.064-.732l-27.471.274a1.856,1.856,0,0,1-.1.458h-3.238a1.752,1.752,0,0,1-.117-.625,1.729,1.729,0,0,1,.674-1.361l-25.188-40.044-17.825-2.109a2.4,2.4,0,0,1-4.564-.54l-7.523-.89,4.272,45.569h-.369l-4.276-45.613-77.32-9.148v-.573l77.266,9.141-4.7-50.085a1.765,1.765,0,0,1,.021-3.529,1.691,1.691,0,0,1,1.041.386l57.306-60.941a1.734,1.734,0,0,1-.432-1.129,1.759,1.759,0,0,1,1.749-1.766,1.738,1.738,0,0,1,1.718,1.618l11.557.25-4.246-27.865a.539.539,0,0,0-.057.006h-.01a.541.541,0,0,1-.059,0,2.637,2.637,0,0,1-1.854-.762L950.636,867.159a2.49,2.49,0,0,1,.249,3.2,2.458,2.458,0,0,1-2,1.031,2.429,2.429,0,0,1-1.433-.468,2.5,2.5,0,0,1-.573-.589L920.5,892.616v-.741l26.112-22.058a2.5,2.5,0,0,1,.289-2.36,2.46,2.46,0,0,1,2-1.03,2.42,2.42,0,0,1,1.289.371l109.254-92.288a2.693,2.693,0,0,1-.421-1.161l-126.249,2.739a2.725,2.725,0,0,1-.844,1.756,2.626,2.626,0,0,1-1.806.718,1.369,1.369,0,0,1-.174-.014l-.015,0-.064-.008h-.008l-.018,0L920.5,822.593v-2.72l8.788-41.458a2.561,2.561,0,0,1-.393-.165L920.5,791.1v-1.031l7.925-12.128-.026-.021-.009-.007c-.034-.028-.065-.053-.095-.082l-7.8,6.8v-.751l7.424-6.473a2.677,2.677,0,1,1,4.833-1.878l126.251-2.741a2.715,2.715,0,0,1,.844-1.756,2.622,2.622,0,0,1,1.805-.718,2.694,2.694,0,0,1,2.672,2.679l46.5,4.612a2.659,2.659,0,0,1,5.142-.31l145.284-32.524c0-.02,0-.041-.008-.065l0-.011v-.008l0-.025a1.489,1.489,0,0,1-.016-.192,2.69,2.69,0,0,1,2.674-2.7,2.639,2.639,0,0,1,1.869.773,2.71,2.71,0,0,1,.8,1.871L1447.9,759.939a2.661,2.661,0,0,1,5.067-.574l63.587-20.451a5.512,5.512,0,0,1,1.094-1.687,5.384,5.384,0,0,1,6.812-.856l1.546-.5a2.639,2.639,0,0,1-.054-.544,2.668,2.668,0,0,1,5.3-.491l163.6-12.874a2.7,2.7,0,0,1,.8-1.858,2.638,2.638,0,0,1,1.861-.767,2.69,2.69,0,0,1,2.674,2.7,2.03,2.03,0,0,1-.025.28v.006l0,.023-.006.042,130.771,31.88a2.4,2.4,0,0,1,4.7.747,1.756,1.756,0,0,1-.022.246v.016l-.007.055,110.653,26.976a2.652,2.652,0,0,1,5.125.661l43.3-.433a4.817,4.817,0,0,1,1.827-4.118,4.777,4.777,0,0,1,7.726,4.022l170.409-1.7a2.65,2.65,0,0,1,4.805-1.323l71.036-41.284a2.722,2.722,0,0,1-.231-1.092,2.673,2.673,0,1,1,3.2,2.647l6.4,68.278,3.441-.034a2.389,2.389,0,0,1,4.331-1.193l4.875-2.832v.591l-4.617,2.684a2.424,2.424,0,0,1-.709,2.881l5.327,8.467v.953l-5.752-9.146a2.36,2.36,0,0,1-1.067.263l-.021,0h-.011l-.008,0-.028,0-3.2,24-.035.259,7.874,83.986,2.252.659v.533l-2.2-.643.74,7.911a2.648,2.648,0,0,1,1.46.457v4.483a2.628,2.628,0,0,1-3.108-.107l-13.006,13.83,2.662,18.987h-.511l-2.6-18.515-17.41,18.515h-.776l18.087-19.234-2.9-20.708-13.083-3.825-68.727,42.3.206,1.471h-.569l-.161-1.149-1.868,1.149h-.974l2.764-1.7-8.767-62.531-.034,0h-.006a.313.313,0,0,1-.052.005,2.638,2.638,0,0,1-2.115-1.066l-19.631,12.081-32.7,53.208h-.6l32.337-52.617-46.31,28.5-6.474,24.117h-.526l6.369-23.729-38.557,23.729h-1.083l8.893-5.473,30.962-19.054,14.728-54.865a2.4,2.4,0,0,1-1.285-1.2l-78.566,28.894-31.77,51.7h-.664l31.576-51.38-41.054,15.1-1.907,7.111-7.831,29.171h-.584l4.087-15.223,5.588-20.82-38.2,14.05a5.091,5.091,0,0,1-1.49.549l-54.519,20.05a2.4,2.4,0,0,1,.079.585,2.483,2.483,0,0,1-.059.525l.84.284Zm-78.972-30.445-31.825,11.7,2.413,15.826,6.828,2.312,31.27-26.414-8.686-3.428Zm-707.714.486L1055.953,963.6a1.713,1.713,0,0,1,.12.518l27.58-.275a3.149,3.149,0,0,1,.417-.81,3.071,3.071,0,0,1,2.5-1.292,3.035,3.035,0,0,1,1.8.588,3.083,3.083,0,0,1,1.091,1.456l112.625-1.125a1.791,1.791,0,0,1,.09-.454l-.521-.267-62.6-17.365a6.221,6.221,0,0,1-4.763.788,6.3,6.3,0,0,1-4.151-3.261Zm100.995,28.015,0,.015a.249.249,0,0,0-.006.03l1.411.344Zm-145.925-36.365-4.8,36a1.7,1.7,0,0,1,.971.653l15.7-9.247,32.572-19.192-16.031-4.447a2.657,2.657,0,0,1-2.484,1.717,2.691,2.691,0,0,1-2.673-2.7l0-.029-23.25-2.751Zm875.884-15.986h0l-46.979,40.958-.181,10.12a2.4,2.4,0,0,1,1.859,1.337l53.068-19.518a5,5,0,0,1-.519-.1,5.175,5.175,0,0,1-1.98-9.069,5.069,5.069,0,0,1,3.136-1.1,5.166,5.166,0,0,1,3.764,8.643l37.08-13.637,8.339-31.066a4.709,4.709,0,0,1,1.468-5.47l5.949-22.159-8.7-1.13-39.538,14.541,12.589.113a1.736,1.736,0,1,1,1.708,1.968,1.726,1.726,0,0,1-1.188-.484l-26.507,23.109a2.592,2.592,0,0,1-.023,1.084,2.556,2.556,0,0,1-3.085,1.929c-.089-.022-.177-.048-.26-.077Zm-47.5,41.408-9.3,8.112,7.214,2.847a2.4,2.4,0,0,1,1.919-1.3l.172-9.66h0Zm276.168-53.021a2.678,2.678,0,0,1-1.823,1.592l4.715,33.633,4.018,28.656,68.146-41.937-75.056-21.944Zm-487.145,23.205,10.545,25.067,51.71,15.486,12.172-5.8.926-5.012Zm-648.419.725,25.023,39.781a1.7,1.7,0,0,1,.769-.2.064.064,0,0,1,.017,0l.007,0,.006,0,.016,0,4.8-35.968ZM1203.8,961.064a1.727,1.727,0,0,1,1.623,1.145l73.836-19.478a2.469,2.469,0,0,1-.124-.775l0-.028-96.419-11.409,12.432,18.859L1203,961.285A1.7,1.7,0,0,1,1203.8,961.064Zm576.251-14.723-19.157,7.046a2.515,2.515,0,0,1,.021,1.232l21.51,7.284ZM1128.9,924.153h0l72.026,36.994,1.644.456a1.382,1.382,0,0,1,.118-.112l-20.454-31.029-53.335-6.311Zm6.815,8.647a6.3,6.3,0,0,1,5.367,3.015,6.385,6.385,0,0,1,.778,4.811,6.32,6.32,0,0,1-2.215,3.523l59.506,16.506-71.3-36.627-1.429-.169a1.626,1.626,0,0,1-2.018.145l-1.647.241-17.562,10.346,24.645,6.836a6.39,6.39,0,0,1-.243-3.716,6.313,6.313,0,0,1,6.122-4.912Zm752.47,7.043L1875.671,959l2.607,1.029,9.7-8.457Zm.6-33.493-6.315,2.322L1872.1,957.587l3.218,1.27,12.88-19.711Zm-559.371,28.84-45.325,6.651-.148.039,0,.02a.372.372,0,0,1,.005.057,2.547,2.547,0,0,1-.04.392l58.828,16.318-13.325-23.477Zm552.649-26.368h0l-24.81,9.125-21.438,7.884-14.068,11.883,50.008,19.736,10.309-48.628Zm-129.369,43.305-.866,4.68,3.96-1.887a2.7,2.7,0,0,1-.157-.884,2.747,2.747,0,0,1,.1-.708l-3.04-1.2Zm-221.317-43.375h0l-6.006,1.58,19.122,45.452,1.667-2.412-14.784-44.619Zm-156.793,19.81-38.182,5.6,46.53,19.59-8.348-25.193Zm385.191-14.757h0l-.523,2.822-.62,34.742a2.656,2.656,0,0,1,2.064,1.484l19.264-7.085-3.891-25.532-16.295-6.431ZM1585.956,894.4h0l-54.086,14.223,6.507,19.64,8.147,24.586,39.922-57.75a1.712,1.712,0,0,1-.489-.7ZM1758.629,920h0l-5.831,31.555,3.141,1.24a2.657,2.657,0,0,1,2.13-1.44l.56-31.355Zm-46.352-24.944-38.7,19.083,3.1,7.376,75.767,29.9.952-5.15,5.267-28.509.078-4.361-46.471-18.341h0Zm238.969-11.68h0l-34.435,12.664-28.1,43-.215,12.074,46.6-40.625a2.607,2.607,0,0,1-1.271-2.872,2.557,2.557,0,0,1,2.493-2,2.561,2.561,0,0,1,2.411,1.706l26.392-23.008a1.727,1.727,0,0,1-.3-.815l-13.568-.122ZM1665.964,917.9l-27.842,13.73a1.785,1.785,0,0,1,.12.6.715.715,0,0,1-.037.2v.006c-.01.035-.019.068-.025.1l48.729,14.593-10.576-25.139Zm110.5,2.495,3.848,25.245,31.118-11.444-34.966-13.8Zm477,4.77,2.814,20.079,12.7-13.5a2.71,2.71,0,0,1-.647-1.743,2.67,2.67,0,0,1,.047-.472l-14.914-4.36ZM1195.831,913.522h0l-22.175,3.255,8.691,13.183,96.846,11.46a2.409,2.409,0,0,1,1.732-1.809l-2.338-15.339-82.757-10.75Zm113.933,14.8L1283.8,941.127c.025.069.045.135.07.227l1.368-.2,39.951-10.539a.668.668,0,0,0-.024-.1.556.556,0,0,1-.027-.152.043.043,0,0,1,0-.013v-.006a.045.045,0,0,0,0-.02l-15.381-2h0Zm15.5,2.657h0l-36.739,9.692,40.622-5.96-1.555-2.74a1.749,1.749,0,0,1-.7.153,1.73,1.73,0,0,1-1.625-1.146Zm-40.346-5.884h0l-2.686,14.539a2.414,2.414,0,0,1,1.349,1.032l9.935-4.9,15.334-7.562-23.932-3.109Zm341.1-.871h0l-9.465,16.29,18.3-7.789,0-.013a1.637,1.637,0,0,1-.1-.486,1.73,1.73,0,0,1,.287-.913l-9.019-7.089Zm481.439-38.533-2.419,9.015-12.17,45.33,46.755-28.772,11.6-18.878-13.705-7.832a4.277,4.277,0,0,1-1.355-.774l-9.821-5.613-7.347,2.142-8.792,2.563a2.479,2.479,0,0,1,.041.423,2.425,2.425,0,0,1-2.409,2.435,2.394,2.394,0,0,1-.364-.036l-.015,0h0Zm-825.913,53.831a.734.734,0,0,1,.1.009l.011,0,.012,0c.021,0,.041.006.063.007l2.681-14.512-5.3-.689,2.316,15.192.047-.005.012,0h.007A.437.437,0,0,1,1281.541,939.521Zm634.686-43.264-26.928,9.9-.576,32.187,27.5-42.09ZM1834.8,926.2l-21.852,8.036,8.409,3.319ZM1328.4,931.2a1.759,1.759,0,0,1-.5.566l1.642,2.891,5.243-.769L1328.4,931.2Zm-206.616-6.808-33.619,4.933,0,.017c0,.009,0,.019,0,.028a.4.4,0,0,1,.005.057,2.669,2.669,0,0,1-.043.435l16.567,4.6,17.084-10.065Zm648.074-56.721a1.7,1.7,0,0,1-1.228,1.29l7.75,50.85,35.779,14.12,23.911-8.794,50.557-42.705a1.722,1.722,0,0,1-.321-.963l0-.02-116.452-13.778Zm-395.782,59.352-45.451,3.4a1.671,1.671,0,0,1-.087.437l6.954,2.928,38.931-5.712Zm262.422,3.441a1.707,1.707,0,0,1,1.453.841l27.551-13.587-28.574-11.277-.468-.185L1626.2,923.9l8.937,7.025.1.078A1.73,1.73,0,0,1,1636.495,930.46ZM1365.411,900.88h0l-38.152,18.814-.159,8.941a1.724,1.724,0,0,1,1.47,1.41l45.382-3.39-8.541-25.776Zm-38.523,19h0l-16.521,8.148,14.851,1.93a1.711,1.711,0,0,1,1.514-1.33l.156-8.747Zm-153.635-3.043h0l-45.456,6.67,54.07,6.4-8.614-13.068Zm1080.576-2.263a2.417,2.417,0,0,1-1.642,1.436l1.2,8.539,15.154,4.431a2.708,2.708,0,0,1,.815-1.086l-6.767-10.76-8.756-2.56Zm-1193.434,5.985h0l-.738,5.522,23.241,2.75a2.668,2.668,0,0,1,1.921-2.005l-.833-5.466-16.462-.662a2.395,2.395,0,0,1-4.761-.117l-2.367-.022Zm40.707,1.49-13.1,6.459a2.5,2.5,0,0,1,.077.253l27.485-4.033a2.441,2.441,0,0,1-1.677-2.164l-12.787-.515Zm892.334-24.063-8.073,30.078,41.325-15.2,22.682-36.906-16.414-2.132-31.922-4.147-5.807,21.634a4.584,4.584,0,0,1,2.113-.519,4.655,4.655,0,0,1,4.518,5.751,4.706,4.706,0,0,1-1.655,2.618,4.6,4.6,0,0,1-6.767-1.178h0Zm-906.183,23.505-.99,5.359a2.667,2.667,0,0,1,1.5,1.144L1099.913,922Zm302.09,4.389-14.693,1.1.335,1.009,14.357-2.106Zm-62-31.653h0l-37.75,5.539-4.614,24.962,24.468,3.179,17.448-8.6.448-25.076ZM2263.4,917.371l6.426,10.213a2.689,2.689,0,0,1,.652-.237l-.763-8.131-6.315-1.846Zm-1177.9,9.353a.856.856,0,0,1,.115.01l.011,0c.027,0,.056.007.083.009l.974-5.278-2.125-.086.816,5.356.035,0,.016,0A.454.454,0,0,1,1085.5,926.724Zm319.158-45.2-38.738,19.1,8.611,25.984,19.976-1.492,69.488-10.2,4.718-8.118-64.055-25.281h0Zm-377.795,38.728,1.322,2.1,31.1,3.681.733-5.483Zm859.976-37.523h0l-49.757,42.029,45.119-16.594,5.31-25.044a1.736,1.736,0,0,1-.671-.391Zm-597.775,17.112h0l-13.387,1.965,3.376,22.151,5.424.7,4.587-24.82Zm174.6,15.648h0l-61.962,9.092,59.251-4.426,2.711-4.666Zm-345.037,7.447h0a2.427,2.427,0,0,1-1.009,1.487l5.456-.8.226-.133-4.674-.553Zm1131.064-7.811h0l-9.189,5.655,5.359,1.567,6.985,2.043-1.165-8.311h-.025l-.013,0a.294.294,0,0,1-.046,0,2.383,2.383,0,0,1-1.906-.962Zm-974.519-13.245-77.984,11.443,20.182,2.622,61.156,7.944Zm325.348-9.812h0l-11.208,1.645a.072.072,0,0,0,.007.031.136.136,0,0,1,.005.035,1.727,1.727,0,0,1-.286.912l36.756,28.89,10.181-17.519-35.455-13.993ZM1167.241,910.5l-40.235,11.727c.005.03.012.056.021.089l.005.02,0,.007,0,.015a.665.665,0,0,1,.028.169,1.67,1.67,0,0,1-.093.53l45.933-6.74-3.252-4.934a1.671,1.671,0,0,1-.8.219A1.743,1.743,0,0,1,1167.241,910.5Zm-47.313,9.16-1.644,1.39a2.439,2.439,0,0,1,.409,1.356l0,.027,4.953.586a1.746,1.746,0,0,1-.074-.492,1.769,1.769,0,0,1,.147-.7Zm-109.459.451h0c-.008.065-.015.112-.023.15l17.269,2.044-1.29-2.05-15.956-.144Zm102.985-4.152-11.392,5.619,11.846.477a2.4,2.4,0,0,1,2.375-2.083,1.074,1.074,0,0,1,.16.014l.022,0,.016,0,.027,0,.021,0,.436-2.031Zm29.953-14.771h0l-3.871,1.909-4.287,3.622-8.873,14.437a1.735,1.735,0,0,1,.557.7l40.236-11.726c-.007-.037-.017-.075-.027-.109v-.005l0-.005a.725.725,0,0,1-.03-.179,1.76,1.76,0,0,1,1.749-1.767.583.583,0,0,1,.158.028.8.8,0,0,0,.109.026l6.069-22.611-25.778,12.712a3.461,3.461,0,0,1,.6,2.857,3.4,3.4,0,0,1-3.31,2.656,3.32,3.32,0,0,1-.782-.094,3.422,3.422,0,0,1-2.513-2.455Zm-52.727,1.756-3.334,18.041,13.528.545,11.984-5.91-22.179-12.676Zm43.671,4.534L1120.231,919.4l3.693,2.11a1.647,1.647,0,0,1,2.148-.566Zm538.774,6.893-6.472,3.192,9.371,3.7Zm-592.23-17.02,3.585,23.518,2.3.092,3.384-18.314Zm-.541.193-13.679,20.934a2.4,2.4,0,0,1,.867,1.709l16.366.659Zm37.074,20.685-.4,1.873a2.394,2.394,0,0,1,.926.556l1.5-1.268Zm1049.387-50.242-1.091,1.775-2.1,15.725-1.326,9.928a2.686,2.686,0,0,1,2.04,2.617,2.747,2.747,0,0,1-.046.471l75.552,22.089,9.584-5.9a2.434,2.434,0,0,1-.239-1.038,2.46,2.46,0,0,1,.2-.968l-44.806-25.6-34.771-19.87a2.4,2.4,0,0,1-1.955,1.022A2.361,2.361,0,0,1,2166.815,867.983ZM1483.385,912.6h0l-19.006,2.789-2.742,4.719L1495,917.613a1.437,1.437,0,0,1,.063-.332l0-.01,0-.009.013-.047-11.7-4.617Zm-418.854-23.03h0l-4.068,30.478,2.3.021a2.413,2.413,0,0,1,2.382-2.156,2.361,2.361,0,0,1,1.1.281l13.9-21.269-14.175-8.1a1.716,1.716,0,0,1-1.4.756.069.069,0,0,1-.023,0l-.007,0-.017,0Zm-14.632-5.854h0l-29.72,25.912,6.361,10.112,33.552.3,4.077-30.549a1.744,1.744,0,0,1-1.336-1.682.739.739,0,0,1,.029-.178l0-.011,0-.012a.842.842,0,0,0,.022-.1l-12.991-3.8Zm-30,26.158-9.833,8.573a2.434,2.434,0,0,1,.411,1.149l15.627.141-6.2-9.863h0Zm-26.038-41.393a1.7,1.7,0,0,1-.418.127l-.006,0,4.7,50.194,7.543.893a2.42,2.42,0,0,1,2.407-2.3,2.382,2.382,0,0,1,1.642.662l9.891-8.624-25.763-40.956Zm774.194.543h0l-8.181,44.272,16.11,6.359-7.715-50.62a.189.189,0,0,0-.036.008l-.006,0a.165.165,0,0,1-.04.007.264.264,0,0,1-.068-.012l-.007,0a.424.424,0,0,0-.057-.013Zm-632.094,35.837-17.528,8.645-.92,4.342,2.252,1.287,15.443-13.045Zm223.2-15.3h0l-31.438,4.612-.445,24.946,37.979-18.728-2.936-8.863a2.608,2.608,0,0,1-.579.068,2.671,2.671,0,0,1-2.581-2.035Zm902.887-52.216h0l-8.574,64.234,9.524,15.141,6.675,1.951-7.625-81.326ZM1117.848,913.787l-3.991,1.969,3.188,1.823.8-3.792Zm542.22-30.453-11.255,1.651-12.067,20.769,29.442,11.62,6.793-3.35Zm-136.815,23.413h0l-21.815,3.2-3.674,6.326a1.745,1.745,0,0,1,.6.775l26.312-6.919-1.423-3.383Zm-29.487,4.327-9.645,1.415,11.086,4.376a1.759,1.759,0,0,1,.694-.715l-2.136-5.075Zm759.586-8.622-1.18,8.842a2.42,2.42,0,0,1,1.84,2.358,2.632,2.632,0,0,1-.042.427l8.206,2.4-8.823-14.026Zm-1082.828,7.783a1.73,1.73,0,0,1-.564.934l3.351,5.083,20.443-3-23.231-3.018ZM1496.74,915.9a1.712,1.712,0,0,1,.717.165l3.516-6.051-6.829,1,2.1,4.986.006,0,.005,0A1.673,1.673,0,0,1,1496.74,915.9ZM1111,859.459l-9.638,5.932-5.222,7.989-5.39,29.173,22.51,12.864,4.739-2.336,8.807-41.544,5.315-25.075-9.614,5.917a7.525,7.525,0,0,1-4.084,13.806,7.4,7.4,0,0,1-1.714-.2A7.5,7.5,0,0,1,1111,859.459Zm358.243,47.558h0l-4.535,7.8,17.721-2.6-13.186-5.2Zm290.064,6.6-.015.765.132-.718Zm-82.838-32.694h0l-15.882,2.33,12.849,30.542,38.374-18.924-20.377-8.043-14.964-5.906Zm90.262-12.722-6.672,3.29-.742,41.579.2.08,8.168-44.208A1.7,1.7,0,0,1,1766.732,868.2Zm-496.024,4.365h0l-100.185,36.847c.008.032.017.066.028.1l0,.008a1.176,1.176,0,0,1,.053.3.06.06,0,0,1,0,.021.048.048,0,0,0,0,.017l24.519,3.185,79.974-11.734-4.382-28.749Zm488.786-.795-46.6,22.978,45.861,18.1.734-41.078ZM1195.21,807.637l-62.494,38.458-14.139,66.7,17.939-8.846,59-96a1.691,1.691,0,0,1-.3-.312h0Zm854.774,68.4-22.439,36.511,77.957-28.67a2.335,2.335,0,0,1-.079-.584h0v-.008a.042.042,0,0,0,0-.008v-.007a.149.149,0,0,0,0-.031Zm163.565-36.861h0L2170.055,864.8a2.442,2.442,0,0,1,.014,1.963l79.574,45.476a2.412,2.412,0,0,1,1.957-1.022.138.138,0,0,1,.028,0l.011,0a.148.148,0,0,0,.028,0l1.262-9.446-39.379-62.6Zm-731.073,45.065-13.044,22.451,13.733,5.42,10.4-1.526Zm669.186,8.4h0l-11.083,18.035,18.678-11.494a2.668,2.668,0,0,1-.041-2.225l-7.554-4.317Zm-662.7-19.566h0l-6.259,10.771,11.23,26.69,7.362-1.081,10.645-18.32-22.978-18.06Zm39.245,32.95-4.385.643,1.4,3.322,6.033-1.587-.2-.6a2.329,2.329,0,0,1-.518.061,2.41,2.41,0,0,1-2.328-1.835Zm-15.975-14.659-10.47,18.022,21.28-3.122-4.026-9.568-6.785-5.332ZM994.7,867.574a1.719,1.719,0,0,1-.54.693l25.738,40.92,29.416-25.644-41.42-12.11Zm271.161-26.779-90.231,44.5-6.147,22.9a1.752,1.752,0,0,1,.927.868L1270.65,872.2Zm320.594,50.187h0l-53.545,14.081a2.165,2.165,0,0,1,.035.359,2.447,2.447,0,0,1-1.409,2.21l.212.639,31.662-8.325,22.469-5.909a.722.722,0,0,0-.018-.083l-.005-.02a.572.572,0,0,1-.027-.152,1.767,1.767,0,0,1,1.024-1.6l-.4-1.2Zm301.414-7.787h0l-.816,3.845-4.447,20.976,6.188-2.275.411-22.973a1.668,1.668,0,0,1-1.157.464.338.338,0,0,1-.1-.018.572.572,0,0,0-.079-.018Zm-415.551-23.089h0l-51.909,13.65-15.306,7.548,63.795,25.177,13.3-22.893-9.88-23.483Zm47.613,37.3,3.688,8.766,4.517-.662a.239.239,0,0,0,0-.025v-.006s0-.007,0-.01a.285.285,0,0,1-.006-.052,2.456,2.456,0,0,1,.368-1.281Zm128.234-12.33-46.517,6.825,34.614,13.661Zm241.578-3.361h0l-.005.029v.012c0,.017-.005.027-.007.036l-.112,6.284-.312,17.473,27.438-10.091,7.293-11.161a1.747,1.747,0,0,1-.627-1.226l-33.666-1.356Zm-752.111,22.31-1.059.523-.477.775Zm415.4-30.7-1.515,2.193-19.4,28.069a2.422,2.422,0,0,1,.675.973l53.508-14.07-1.539-4.645-31.724-12.52Zm-24.661-9.734h0l-13.146,22.624,4.3,10.221,9.281,7.294a2.382,2.382,0,0,1,1.734-.748,2.348,2.348,0,0,1,1.156.312l20.85-30.162-24.176-9.542Zm-332.554-55.438-58.683,95.486,2.3-1.135,4.073-3.441a3.439,3.439,0,0,1,2.553-2.158l4.214-3.558,29.5-24.918,16.164-60.216a.8.8,0,0,1-.086-.041l-.011-.005-.012-.006ZM1095.342,874.6h0l-14.528,22.231.007.048,9.411,5.378,5.109-27.656Zm47.969,25.3-1.974,1.668,1.967-.97A3.4,3.4,0,0,1,1143.312,899.9Zm152.5-36.565-24.616,9.053,4.4,28.854,13.581-1.993ZM2259.666,812l-20.033,11.8-25.6,15.081,39.01,62.016,8.787-65.815ZM1399.144,879.35l-34.774,9.145,0,.027a2.568,2.568,0,0,1,.036.371,2.71,2.71,0,0,1-1.564,2.453l2.914,8.794,38.257-18.867-4.872-1.922Zm-80.888-24.267-21.893,8.051-6.659,36.041,37.652-5.525.555-30.979ZM1179.547,869.3h0l-32.629,27.561a3.622,3.622,0,0,1,.559.085,3.4,3.4,0,0,1,1.55.838l26.364-13,4.023-14.986.133-.5Zm-101.87,10.672-11.526,7.094a1.716,1.716,0,0,1,.03,1.449l14.019,8.012ZM2165,870.937l-13.037,21.216,7.536,4.307a2.673,2.673,0,0,1,2.171-1.134l.021,0h.007l.009,0h.009l.03,0,3.255-24.4Zm-1068.506-2.549h0l-18.3,11.259,2.5,16.43,14.884-22.775.907-4.913Zm418.38,18.439-.841,1.45-1.534,2.637,6.117,4.808Zm409.474-2.32-7.017,10.739,32.31-11.883-22.794-.206a1.742,1.742,0,0,1-1.706,1.565,1.672,1.672,0,0,1-.793-.215Zm-164.8-15.771h0l-82.059,12.04,34.945,13.791,33.142-16.343,13.925-6.869.047-2.62Zm-431.273-5.783h0l-.547,30.641,31.345-4.6a.253.253,0,0,0,0-.049.411.411,0,0,1-.005-.056,2.711,2.711,0,0,1,.408-1.418l-31.2-24.519Zm259.306,29.06a1.737,1.737,0,0,1,1.662,1.335l10.588-1.554-6.587-2.6-6.428,1.691.4,1.2.107-.028.016,0A.9.9,0,0,1,1587.579,892.015Zm551.365-15.977a4.381,4.381,0,0,1,.142,8.758l12.432,7.1,13.646-22.2.394-2.965L2127.1,877.945l8.059,4.605a4.412,4.412,0,0,1,1.115-5.579A4.342,4.342,0,0,1,2138.945,876.038Zm-485.412-2.7h0l-59.359,15.61,6.784,2.679,47.451-6.963,5.944-10.23a2.412,2.412,0,0,1-.819-1.1Zm-153.957-18.528-10.348,17.811,22.978,18.06,2.488-4.282-13.241-31.474a2.57,2.57,0,0,1-.777.13,2.631,2.631,0,0,1-1.1-.245Zm85.628,31.21h0l1.45,4.375,5.784-1.52-7.234-2.855Zm53.82-43.719h0l-66.656,4.981,12.6,38.035,8.4,3.313,60.042-15.788-.005-.032v-.008a2.2,2.2,0,0,1-.031-.319,2.446,2.446,0,0,1,1.033-1.993l-15.381-28.188Zm-263.816,27.6h0l-11.723,16.961a2.7,2.7,0,0,1,.745,1.079l34.02-8.946-23.042-9.094Zm-312.9,3h0l-12.069,10.522,12.731,3.722a1.728,1.728,0,0,1,1.194-1.014L1062.3,872.9ZM1329.833,852a1.727,1.727,0,0,1-1.381.93l-.167,9.318,31.528,24.779a2.633,2.633,0,0,1,1.921-.831,2.607,2.607,0,0,1,1.285.346l11.646-16.849-21.5-8.484a3.418,3.418,0,0,1-.088.922,3.3,3.3,0,0,1-3.222,2.592,3.363,3.363,0,0,1-2.34-5.744L1329.833,852Zm-265.255,34.049a1.721,1.721,0,0,1,1.365.709l11.673-7.184-2.695-17.672-12.287,10.712,1.885,13.447a.1.1,0,0,0,.026-.006l.008,0,.008,0ZM1503.037,853.6h0a2.677,2.677,0,0,1-1.068,1.112l13.079,31.085,12.976-22.335-24.986-9.861Zm68.951-6.281-1.025.076-17.6,25.457,24.757,9.771,6.4,2.526Zm82.8,27.386-5.738,9.874,10.869-1.595-3.439-8.174a2.37,2.37,0,0,1-.7.115A2.333,2.333,0,0,1,1654.789,874.7Zm-417.537-54.149h0l-57.212,48.328-4.21,15.681,57.781-28.493,32.165-15.864-.671-4.4-.936-6.14-26.916-9.116ZM1051.71,804.839,994.4,865.779a1.75,1.75,0,0,1,.434,1.128.68.68,0,0,1-.033.184v.005l-.005.017a.832.832,0,0,0-.022.1l54.873,16.042,12.568-10.956-9.405-67.084a.13.13,0,0,0-.028.006.105.105,0,0,1-.032.006,1.7,1.7,0,0,1-1.044-.385ZM1472.845,860.4h0l9.589,22.79,6.084-10.471L1472.846,860.4Zm452.293,20.792a1.736,1.736,0,0,1,1.713,1.595l23.773.214,39.928-14.683-39.944-5.189c-.016.1-.031.171-.047.244a3.693,3.693,0,0,1-4.458,2.792,3.748,3.748,0,0,1-2.847-3.991l-50.959-6.62a2.406,2.406,0,0,1-2.13,1.851l-.422,23.719c.013.072.023.148.03.226l33.666,1.354A1.728,1.728,0,0,1,1925.139,881.192Zm-267.228-7.59a2.4,2.4,0,0,1-.964,1l3.491,8.3,15.337-2.251-17.864-7.051Zm409.7-26.242-17.331,28.2,55.217,7.173a2.418,2.418,0,0,1,.806-1.3l-15.566-23.611-19.8-11.314a2.666,2.666,0,0,1-2.169,1.134,2.621,2.621,0,0,1-1.158-.278Zm40.224,33.5a2.4,2.4,0,0,1,2.229,1.518l15.659-4.565-34.009-19.435,15.01,22.767A2.344,2.344,0,0,1,2107.833,880.859Zm-339.649-15.343a1.759,1.759,0,0,1,1.749,1.766l0,.02,116.451,13.779a1.728,1.728,0,0,1,1.671-1.382,1.7,1.7,0,0,1,1.2.5l.407-22.8a2.4,2.4,0,0,1-2.07-1.97l-127.2,9.5,6.172,1.712A1.734,1.734,0,0,1,1768.183,865.516Zm-350.251,8.892h0l-18.183,4.782,4.715,1.861,13.469-6.643Zm341.359-9.4h0l-7.995.6-93.116,6.957a2.47,2.47,0,0,1-.086.562l8.6,3.393,10.1,3.985,82.76-12.144.058-3.263-.319-.088Zm-657.229-26.774-26.638,23.225.911,5.986,1.8,11.8,18.445-11.353,5.481-29.661h0Zm298.078-4.4h0l-24.719,35.759,23.432,9.247,21.635-5.69,40.355-19.9a2.467,2.467,0,0,1-.151-.83,2.576,2.576,0,0,1,.043-.441l-60.6-18.147Zm695.9-4.636h0l-16.973,10,11.954,18.131,35.458,20.264,39.012-11.372a2.4,2.4,0,0,1-.041-.423,2.445,2.445,0,0,1,.164-.866L2096.042,829.2ZM2001.751,867h0l-.585,2.175,48.5,6.3,17.465-28.421a2.675,2.675,0,0,1-.836-1.105L2004.8,863.875a2.664,2.664,0,0,1-2.626,3.172,2.667,2.667,0,0,1-.421-.043Zm-431.439-19.564-34.031,2.542-7.62,13.116,24.219,9.559,17.432-25.217Zm-109.246,6.27h0l-38.1,18.786,48.905-12.86-7.039-5.531a2.384,2.384,0,0,1-3.769-.4Zm37.114-.4h0l-25.127,6.607,15.724,12.358,10.313-17.749a2.682,2.682,0,0,1-.909-1.216Zm-397.838,12.711h0l-.887.546-2.318,1.427-.32,1.735-.436,2.354,3.962-6.062Zm568.951-25.973-5.6.419-7.1,29.739a2.43,2.43,0,0,1,1.56,1.851l99.687-7.448Zm-390.743-5.505h0l-12.207,6.02,4.794,31.458,24.75-9.1,3.913-21.179-21.25-7.2ZM1054.457,803.68a1.727,1.727,0,0,1-1.281,1.459l9.373,66.867,12.281-10.706-8.744-57.368Zm712.066,64.033h0l-6.413.94-.042,2.423,6.487-3.2a.38.38,0,0,1-.015-.069l0-.013v-.017l-.005-.028c0-.009,0-.017-.005-.026v-.011ZM1663.159,840.5l-23.578,1.761,15.265,27.978a2.385,2.385,0,0,1,.935-.19,1.694,1.694,0,0,1,.258.025l.055.007,7.065-29.582Zm-313.3,17.5a3.292,3.292,0,0,1,.761.089,3.341,3.341,0,0,1,2.508,2.7l21.756,8.587,24.689-35.715-20.913-6.263-48.724,23.221a1.757,1.757,0,0,1,.115.572,1.323,1.323,0,0,1-.068.372l0,.008,0,.016-.007.026,0,.017,0,.017,17.874,7.054A3.326,3.326,0,0,1,1349.855,858Zm649.925,7.524h0l-6.972,2.564,7.794,1.013.6-2.248a2.676,2.676,0,0,1-1.426-1.328Zm166.26,1.854-.152,1.136.5-.807a2.452,2.452,0,0,1-.345-.328Zm-405.869-2.128-.055,3.024,6.333-.929a.072.072,0,0,0-.005-.026l0-.006,0-.008a.112.112,0,0,1,0-.028.586.586,0,0,1,.031-.168c.011-.04.019-.075.025-.107ZM1196.3,808.289l-9.881,36.817-6.15,22.909,56.417-47.655-38.535-13.051a1.75,1.75,0,0,1-1.581,1.034.587.587,0,0,1-.157-.028l-.007,0-.018-.006-.009,0-.008,0c-.024-.006-.046-.011-.069-.015Zm750.643,50.479a3.7,3.7,0,0,1,.85.1,3.753,3.753,0,0,1,2.862,3.749l40.933,5.317,8-2.94a2.678,2.678,0,0,1-.087-.648.174.174,0,0,1,0-.025l0-.012V864.3a.077.077,0,0,0,0-.016l-96.336-12.514-10.839,2.859.005.033v.011l0,.023a2.016,2.016,0,0,1,.027.293.135.135,0,0,1,0,.028v.013a.054.054,0,0,1,0,.014l40.034,5.2,10.944,1.421,0-.005A3.7,3.7,0,0,1,1946.946,858.768Zm-807.368-53.24-36.833,32.113-5.516,29.858,3.591-2.21,39.047-59.755Zm.8.158-38.539,58.977,9.13-5.62a7.567,7.567,0,0,1,2.843-6.3,7.409,7.409,0,0,1,8.344-.58l10.071-6.2,8.505-40.125a2.084,2.084,0,0,1-.354-.151Zm617.465,27.743-87.45,6.533,88.544,24.561.687-.051.038-2.068a2.616,2.616,0,0,1,.064-3.636l.416-23.151A2.662,2.662,0,0,1,1757.842,833.429Zm415.378-24.084-44.236.442-32.421,19.1,69.279,35.585.022-.034Zm-413.006,53.507h0l-.028,1.578,124.173-9.276,3.2-.239a2.451,2.451,0,0,1,.1-.613l-15.607-6.572-108.99-14.157a2.665,2.665,0,0,1-2.361,2.054l-.406,22.714a2.54,2.54,0,0,1,1.819-.248,2.6,2.6,0,0,1,1.914,3.118,2.567,2.567,0,0,1-2.5,2.005,2.519,2.519,0,0,1-.59-.07,2.567,2.567,0,0,1-.724-.293Zm407.646.511a2.379,2.379,0,0,1,1.935,1l30.13-17.751,13.351-7.866-18.626-29.611-20.862.208-7.265,54.435A2.366,2.366,0,0,1,2167.86,863.362Zm-187.7-31.9-12.583,3.32-62.949,16.606,94.952,12.335a2.673,2.673,0,0,1,.9-1.444Zm22.015,30.183a2.664,2.664,0,0,1,2.474,1.684l61.493-17.923a2.576,2.576,0,0,1-.046-.469,2.733,2.733,0,0,1,.18-.96L2020.956,820.7l-40.222,10.612,20.206,30.652A2.627,2.627,0,0,1,2002.173,861.645Zm-466.338-11.63-32.495,2.428a2.771,2.771,0,0,1-.1.623l25.071,9.894,7.521-12.946ZM1300.286,841.9h0l-3.441,18.629-.4,2.181,21.471-7.9-15.526-12.2-2.1-.712Zm26.459,10.061-7.863,2.892,9.042,7.105.161-9.045A1.736,1.736,0,0,1,1326.745,851.961Zm-260.087-48.016,8.675,56.917,26.878-23.434,6.021-32.58-33.087-.718a2.971,2.971,0,0,1,.19,1.91,2.926,2.926,0,0,1-3.531,2.207,2.969,2.969,0,0,1-2.187-3.562,3.034,3.034,0,0,1,.243-.669l-3.2-.069Zm426.824,35.819-24.864,10.585,3.821,9.081.054.043,25.548-6.717,0-.029v-.012a2.5,2.5,0,0,1-.034-.356,2.717,2.717,0,0,1,1.147-2.213l-5.666-10.381Zm-25.2,10.73-2.879,1.226a2.417,2.417,0,0,1,.112.7,2.448,2.448,0,0,1-.367,1.28l6.7,5.262-3.561-8.466Zm610.35-11.039-7.429,4.377a2.686,2.686,0,0,1,.017,2.179l18.824,10.758-11.412-17.313Zm-774.624,3.705h0l14.535,11.421,8.1-2.977-.005-.02c-.006-.025-.012-.05-.02-.075l0-.009,0-.01a1.141,1.141,0,0,1-.053-.3.952.952,0,0,1,.045-.253v-.006l0-.008.007-.026,0-.009c.006-.022.012-.045.016-.067Zm585.954,9.4a2.419,2.419,0,0,1,2.246,1.578l9.616-2.537L1887.25,849.7l1.739,3.063A2.362,2.362,0,0,1,1889.96,852.556Zm-16-4.579h0l13.9,5.851a2.464,2.464,0,0,1,.695-.8l-1.93-3.4Zm-316.294-35.535h0l-52.506,22.352-2.172,9.091-1.417,5.939a2.693,2.693,0,0,1,1.729,2.053l32.881-2.457,21.485-36.977ZM1443.844,796.33l-26.515,12.636-16.88,24.421,60.43,18.1a2.43,2.43,0,0,1,1.353-1.33l-.756-2.811-9.695-36.063-5.969-14.191-.031.009a1.591,1.591,0,0,1-.469.094A1.725,1.725,0,0,1,1443.844,796.33Zm19.258,53.655a2.4,2.4,0,0,1,2.1,1.263l2.877-1.225-14.842-35.275,9.484,35.275.014,0A2.392,2.392,0,0,1,1463.1,849.984Zm402.884-42.058a3.448,3.448,0,0,1,1.31,6.619l19.6,34.539,16.381,2.128,68.8-18.15,7.778-2.052-29.893-45.344a2.622,2.622,0,0,1-1.234.319,2.686,2.686,0,0,1-2.493-1.75l-6.012,1.586a2.729,2.729,0,0,1-.066.77,2.637,2.637,0,0,1-4.956.555l-72.593,19.15,1.32,2.326A3.41,3.41,0,0,1,1865.986,807.926Zm-537.038,4.583h0l-25.216,10.735-3.178,17.2,2.571,2.021,23.594,7.99a1.748,1.748,0,0,1,1.58-1.034,1.725,1.725,0,0,1,1.467.862l48.36-23.048-49.179-14.729Zm119.241-16.544h0l4.341,16.148,15.889,37.765,24.818-10.565-22.12-40.539-22.927-2.808Zm56.326,39.1-9.365,3.987-1.148.488,5.635,10.325a2.638,2.638,0,0,1,1.037-.211,1.785,1.785,0,0,1,.264.025l.026,0,.05.007h.009l3.492-14.624Zm55.575-23.658-1.856.79-21.606,37.186,34.1-2.548.745-1.078Zm302.014-4.979h0l-53.376,14.08,63.26,26.636,14.28,1.855L1866.8,814.712a3.321,3.321,0,0,1-1.6.008,3.454,3.454,0,0,1-1.661-5.752l-1.441-2.537Zm-54.186,14.295h0L1763.1,832.548l0,.029a2.5,2.5,0,0,1,.036.372.137.137,0,0,1,0,.028l0,.013a.133.133,0,0,0,0,.018L1870.082,846.9l-62.165-26.175Zm-216.872-2.387h0l-19.11,27.645.248.745,66.541-4.971-6.553-12.01-41.125-11.409Zm-449.816-12.4-8.406,39.65L1195,807.328a1.821,1.821,0,0,1-.148-.6l-52.1-1.131a2.364,2.364,0,0,1-1.273.371,1.144,1.144,0,0,1-.127-.009l-.021,0-.016,0Zm421.217,4.462h0l-2.016.859,11.305,34.115,18.792-27.184-28.081-7.79Zm494.968.675-35.637,9.4,44.749,22.986a2.645,2.645,0,0,1,4.387-.127l7.4-4.361-17.54-26.608a2.367,2.367,0,0,1-1.111.286A2.394,2.394,0,0,1,2057.415,811.08Zm-756.977,30-.083.451,1.155.391Zm332.415-11.143,6.427,11.78,24.018-1.794.345-1.444-30.79-8.541Zm-348.191,1.589-5.64,2.781,20.847,7.06.118-.641-11.144-8.759a2.642,2.642,0,0,1-4.181-.441Zm18.51-8.042-13.7,5.835a2.627,2.627,0,0,1,.127.776,2.7,2.7,0,0,1-.408,1.419l10.917,8.581Zm-38.461,6.368h0l1.542,10.118,11.536-5.689Zm399.422,8.761h0l-.3,1.269,3.844-.287-3.539-.982Zm9.965-41.723h0l-9.88,41.359,4.554,1.264,77.046-5.756,11.985-.9a2.644,2.644,0,0,1,.115-.678L1726.136,818.8,1674.1,796.89ZM1471.8,798.858l21.954,40.234,10.906-4.643,7.324-30.668-40.184-4.923Zm589.877,12.688a2.445,2.445,0,0,1-.483.541l17.557,26.634,16.688-9.833-33.763-17.342Zm197.656-3.061-64.024.639,18.449,29.331,45.852-27.014ZM1637.189,781.35l-24.252,7.8a2.571,2.571,0,0,1,.047.49,2.442,2.442,0,0,1-1.031,1.994L1632.6,829.48l31.127,8.635,9.893-41.424-36.434-15.34ZM1108.8,804.859l-5.909,31.974,35.927-31.323Zm403.748-1.009h0l-7.243,30.325,52.788-22.472.511-.879a1.746,1.746,0,0,1-.723-1.395l0-.025-45.335-5.554Zm-248.816,19.6.913,5.991,13.612,4.61,6.157-3.036a2.7,2.7,0,0,1-.168-.918,2.793,2.793,0,0,1,.048-.49ZM1416.3,809.456l-36.957,17.613,20.532,6.148Zm847.442.147h0l-3.542,2.086,1.96,20.913,2.948-22.079a2.407,2.407,0,0,1-1.367-.921Zm-503.277,20.645a2.651,2.651,0,0,1,2.494,1.749l44.1-11.633-70.177-29.55,22.511,39.665A2.656,2.656,0,0,1,1760.467,830.247Zm-79.8-60.846h0l-6.433,26.928,83.9,35.328a2.7,2.7,0,0,1,.77-.891l-22.878-40.311-52.943-22.292a2.407,2.407,0,0,1-2.1,1.271,1.647,1.647,0,0,1-.233-.022l-.033,0-.047-.006Zm277.286,27.347h0l22.487,34.109,39.84-10.51-69.3-35.6a2.721,2.721,0,0,1-.538.6l6.421,9.741a3.2,3.2,0,0,1-.028-1.556,3.12,3.12,0,0,1,3.042-2.43,3.085,3.085,0,0,1,.714.084,3.156,3.156,0,0,1,2.325,3.788,3.119,3.119,0,0,1-3.038,2.435,3.165,3.165,0,0,1-.718-.084A3.071,3.071,0,0,1,1957.95,796.748Zm-348.533-4.986h0l-18.148,26.251,40.652,11.277L1612.122,793l-.61-1.121a2.371,2.371,0,0,1-.937.192,2.342,2.342,0,0,1-1.157-.312Zm-367.763,25.071-4.072,3.439,26.522,8.982-.911-5.97Zm20.756-15.38a2.435,2.435,0,0,1-1.746,1.852l2.974,19.519,20.815,6.233a2.709,2.709,0,0,1,1.5-1.475l-6.571-24.446-16.972-1.683Zm24.51,25.94a2.669,2.669,0,0,1,2.33,1.4l14.046-5.98,2.753-14.9a2.413,2.413,0,0,1-1.721-2.3l-24.348-2.415,6.517,24.242A2.57,2.57,0,0,1,1286.921,827.393ZM2127.845,809.8l-65.795.657a2.4,2.4,0,0,1-.141.633l34.056,17.492Zm-688.537-33.623-52.743,11.808-56.88,24.214,49.131,14.713,37.911-18.068Zm-180.932,26.532-16.2,13.688,20.928,6.268-2.939-19.279-.035,0-.013,0a.338.338,0,0,1-.063.006,2.381,2.381,0,0,1-1.674-.688Zm48.176,5.3h0l-2.692,14.568,24.242-10.32-19.137-5.73a2.4,2.4,0,0,1-2.223,1.5.928.928,0,0,1-.122-.01l-.015,0h-.011l-.013,0-.023,0Zm524.3-52.545h0l-109.165,8.59,14.773,26.033,71.405,30.065,53.944-14.231-1.4-2.471-26.221-46.2a2.339,2.339,0,0,1-.97.209,2.408,2.408,0,0,1-2.364-1.991Zm120.429,28.6c-.02.069-.04.126-.058.176l9.928,5.1,59.939,30.787,36.2-9.548,0-.014v-.006a2.333,2.333,0,0,1-.033-.341,1.636,1.636,0,0,1,.025-.262l.006-.053-106-25.842Zm-754.713,20.747a1.759,1.759,0,0,1,1.748,1.766.983.983,0,0,1-.045.262l-.009.034c-.006.025-.013.05-.018.076l38.772,13.131,4.05-3.423-46.8-14.015-50.4,1.094a2.452,2.452,0,0,1-.676,1.5l51.678,1.121A1.724,1.724,0,0,1,1196.572,804.813Zm411.9-14L1563,810.172l27.754,7.7,18.25-26.4a2.426,2.426,0,0,1-.526-.658h0Zm-350.805,10.455-61.554,1.337,45.471,13.617,16.461-13.9A2.429,2.429,0,0,1,1257.671,801.267Zm125.837-12.6-74.389,16.654.006.053a1.586,1.586,0,0,1,.02.219,2.542,2.542,0,0,1-.042.44l19.732,5.909Zm175.405,22.364-.25.429.682-.291A1.756,1.756,0,0,1,1558.913,811.032Zm704.385-2.586-3.4.034.249,2.647,3.335-1.966A2.533,2.533,0,0,1,2263.3,808.446Zm-702.051,1.627a1.812,1.812,0,0,1-.2.372l.608-.259Zm-1.617-2.409a1.759,1.759,0,0,1,1.748,1.766.6.6,0,0,1-.031.172l0,.01c-.009.033-.017.065-.023.1l.887.246,46.072-19.613a2.412,2.412,0,0,1-.108-.648l-90.39-7.743-5.145,21.538,45.321,5.552A1.734,1.734,0,0,1,1559.63,807.664Zm500.035.124a2.414,2.414,0,0,1,2.381,2.155l66.686-.666,46.12-27.173a2.709,2.709,0,0,1-.208-.795l-170.474,1.7c-.019.115-.042.226-.063.32a4.783,4.783,0,0,1-4.647,3.729,4.69,4.69,0,0,1-1.1-.13,4.817,4.817,0,0,1-3.613-3.824l-43.367.434,0,.01v.01L2057.4,809.407A2.412,2.412,0,0,1,2059.665,807.788Zm115.475-25.194h0l-45.27,26.671,43.419-.434,1.219-9.127,2.146-16.089a2.662,2.662,0,0,1-1.514-1.021Zm2.072,1.1-3.355,25.133,20.473-.2L2178.47,783.41a2.614,2.614,0,0,1-1.183.291.286.286,0,0,1-.041,0,.131.131,0,0,0-.036,0h0ZM1446.98,795.817a1.707,1.707,0,0,1-.83,1.128l4.922,11.7-3.427-12.747-.665-.081Zm803.786-57.192-71.036,41.284a2.69,2.69,0,0,1-.786,3.2l16.047,25.512,64.3-.643-6.4-68.231a2.644,2.644,0,0,1-2.127-1.117ZM1440.091,776.04h0l-22.339,32.314L1443.678,796a1.736,1.736,0,0,1-.115-.572,1.748,1.748,0,1,1,3.5,0l-.006.026.489.059-4.808-17.884-.014,0a2.539,2.539,0,0,1-.367.034A2.411,2.411,0,0,1,1440.091,776.04Zm395.343-20.086a2.428,2.428,0,0,1-.8,1.033l27.695,48.8,72.692-19.176a2.678,2.678,0,0,1,0-1.239,2.639,2.639,0,0,1,5.124-.111l5.967-1.574,0-.02a2.594,2.594,0,0,1-.037-.381,1.943,1.943,0,0,1,.024-.276V783l.009-.066-110.662-26.978Zm-722.192,24.871-4.373,23.666,30.367.659.265-.23a2.413,2.413,0,1,1,4.356-1.694l48.819-1.059-76.756-22.986a2.673,2.673,0,0,1-2.47,1.666.923.923,0,0,1-.12-.011l-.025,0c-.022,0-.042-.005-.063-.006Zm153.282-35.851a2.674,2.674,0,0,1-1.656,2l14.971,55.691,24.538,2.435a2.4,2.4,0,0,1,4.633-.28l77.1-17.259,61.869-26.339a2.669,2.669,0,0,1-.119-.718l-181.333-15.531ZM1072.473,802.4a2.962,2.962,0,0,1,.675.079,2.912,2.912,0,0,1,1.795,1.28l33.357.724,4.39-23.758a2.677,2.677,0,0,1-1.909-2.556l-46.506-4.612a2.7,2.7,0,0,1-1.937,2.057l4.263,27.964,3.477.076A2.935,2.935,0,0,1,1072.473,802.4Zm387.4-25.406,8.341,15.286,3.372,6.182,40.49,4.96,5.139-21.517ZM1260.05,798.526a2.428,2.428,0,0,1,2.407,2.416l16.782,1.665-14.917-55.485a2.485,2.485,0,0,1-.422.043,2.669,2.669,0,0,1-2.524-1.846l-145.283,32.526c0,.029.007.055.012.082v.012a1.67,1.67,0,0,1,.017.207,2.673,2.673,0,0,1-.05.489l78.446,23.492,63.14-1.37A2.4,2.4,0,0,1,1260.05,798.526Zm184.667-22.835h0a2.417,2.417,0,0,1-1.492,1.8l4.861,18.084,22.812,2.794-11.7-21.443-14.481-1.24Zm234.055-7.716h0l-40.752,13.106,35.738,15.047,6.412-26.847a2.43,2.43,0,0,1-1.4-1.306Zm42.3-3.875-37.687,2.966a2.425,2.425,0,0,1-.1.623l52.335,22.036ZM1528.28,738,1517.9,781.445l90.31,7.735a2.4,2.4,0,0,1,4.568-.517l23.685-7.618-105.5-44.423a2.668,2.668,0,0,1-2.336,1.41,1.881,1.881,0,0,1-.247-.022h-.007l-.012,0-.067-.009-.013,0ZM1448.2,761.747l-59.031,25.129,50.572-11.321.206-.3v-.025a2.439,2.439,0,0,1,1.6-2.3l7.23-10.457a2.683,2.683,0,0,1-.582-.73h0Zm68.134-22.164L1453.144,759.9a2.786,2.786,0,0,1,.054.544,2.709,2.709,0,0,1-1.144,2.211l7.523,13.79,57.758,4.947,9.019-37.761a5.554,5.554,0,0,1-.853,1.18,5.383,5.383,0,0,1-7.679.167A5.521,5.521,0,0,1,1516.33,739.583Zm178.57-17.05-163.607,12.873a2.7,2.7,0,0,1-.115.689L1637.3,780.777l41.32-13.289a2.589,2.589,0,0,1-.05-.49,2.406,2.406,0,0,1,4.776-.444l37.445-2.947-22.19-39.1a2.607,2.607,0,0,1-1.076.231A2.674,2.674,0,0,1,1694.9,722.533ZM1449.241,762.8l-6.909,9.993h.021a2.372,2.372,0,0,1,1.685.7,2.442,2.442,0,0,1,.72,1.687l14.146,1.211-7.342-13.454a2.584,2.584,0,0,1-2.32-.135Zm250.791-39.858a2.7,2.7,0,0,1-.947,1.279l22.326,39.336,109.407-8.609c0-.045,0-.085.005-.121Zm-173.85,13.471-1.15.37c.1.087.2.173.3.27a5.484,5.484,0,0,1,1.677,3.839l.724-3.03A2.7,2.7,0,0,1,1526.181,736.415ZM1300.788,964.949h-8.477a7.009,7.009,0,0,1-2.608-6.405,6.943,6.943,0,0,1,6.844-6.082,6.82,6.82,0,0,1,.891.057,7,7,0,0,1,3.351,12.43Zm-80.558,0h-1.992a2.952,2.952,0,0,1-1.844-3.44,2.9,2.9,0,0,1,2.832-2.269,2.873,2.873,0,0,1,.669.078,2.952,2.952,0,0,1,.335,5.63Zm339.825-3.239a2.325,2.325,0,0,1-.536-.063,2.356,2.356,0,0,1-1.734-2.827,2.324,2.324,0,0,1,2.267-1.808,2.326,2.326,0,0,1,2.259,2.885A2.311,2.311,0,0,1,1560.055,961.71Zm305.063-9.519a2.781,2.781,0,0,1-.648-.076,2.882,2.882,0,0,1-2.121-3.453,2.839,2.839,0,0,1,3.421-2.138,2.872,2.872,0,0,1,2.115,3.454A2.835,2.835,0,0,1,1865.118,952.191ZM1177.592,943.3a3.226,3.226,0,0,1-.407-.026,3.173,3.173,0,0,1,.392-6.315,3.137,3.137,0,0,1,.418.028,3.086,3.086,0,0,1,2.079,1.206,3.2,3.2,0,0,1,.624,2.345A3.149,3.149,0,0,1,1177.592,943.3Zm308.976-3.358a2.735,2.735,0,0,1-2.656-3.389,2.72,2.72,0,0,1,3.284-2.054,2.763,2.763,0,0,1,2.032,3.315A2.731,2.731,0,0,1,1486.569,939.945Zm626.063-3.67a3.257,3.257,0,0,1-2.277-.924,3.362,3.362,0,0,1-.1-4.713,3.279,3.279,0,0,1,4.661-.1,3.358,3.358,0,0,1,.1,4.705A3.253,3.253,0,0,1,2112.632,936.275Zm-886.492-1.347a4.662,4.662,0,1,1,2.863-1A4.662,4.662,0,0,1,1226.14,934.927Zm931.006-14.218a3.111,3.111,0,0,1-.009-6.222,3.1,3.1,0,0,1,3.005,3.823A3.074,3.074,0,0,1,2157.146,920.71Zm-263.418-1.29a3.044,3.044,0,0,1-.715-.084,3.119,3.119,0,0,1-2.3-3.749,3.076,3.076,0,0,1,3.715-2.326,3.123,3.123,0,0,1,2.3,3.75A3.077,3.077,0,0,1,1893.728,919.42Zm-845.65-5.406a3.318,3.318,0,0,1-1.958-.639,3.405,3.405,0,0,1-.756-4.706,3.347,3.347,0,0,1,2.714-1.4,3.282,3.282,0,0,1,1.946.635,3.4,3.4,0,0,1,.758,4.711A3.32,3.32,0,0,1,1048.078,914.014Zm-84.715-12.067a2.675,2.675,0,0,1-1.582-.517,2.753,2.753,0,0,1-.614-3.818,2.715,2.715,0,0,1,2.2-1.133,2.651,2.651,0,0,1,1.577.516,2.747,2.747,0,0,1,.612,3.816A2.7,2.7,0,0,1,963.363,901.947Zm535.656-2a8.211,8.211,0,0,1-.02-16.42,8.038,8.038,0,0,1,1.054.068,8.216,8.216,0,0,1-1.033,16.352Zm-236.381-36.524a5.783,5.783,0,0,1-.735-.048,5.644,5.644,0,1,1,.735.048Zm701.285-15.673a2.134,2.134,0,0,1-.5-.059,2.16,2.16,0,0,1-1.357-.982,2.2,2.2,0,0,1-.266-1.665,2.167,2.167,0,0,1,2.619-1.637,2.2,2.2,0,0,1,1.626,2.645A2.177,2.177,0,0,1,1963.923,847.749Zm130.392-4.81a3.658,3.658,0,0,1,.008-7.316,3.591,3.591,0,0,1,.826.1,3.663,3.663,0,0,1-.834,7.22Zm-1099.8-3.592a3.581,3.581,0,0,1-1.8-.489,3.676,3.676,0,0,1-1.33-4.986,3.593,3.593,0,0,1,4.937-1.346,3.684,3.684,0,0,1,1.33,4.991A3.623,3.623,0,0,1,994.511,839.347Zm1130.18-16.9a4.306,4.306,0,0,1-3.006-1.221,4.413,4.413,0,0,1-.131-6.192,4.306,4.306,0,0,1,6.133-.139,4.424,4.424,0,0,1,.132,6.2A4.261,4.261,0,0,1,2124.691,822.448Zm-1080.395-.8h-.005a2.963,2.963,0,0,1-1.494-.407,3.064,3.064,0,0,1-1.106-4.157,2.993,2.993,0,0,1,4.113-1.114,3.066,3.066,0,0,1,1.1,4.157A3.015,3.015,0,0,1,1044.3,821.652ZM989.346,804.8a4.825,4.825,0,0,1-2.421-.655,4.932,4.932,0,0,1-1.782-6.691,4.817,4.817,0,0,1,6.622-1.8,4.932,4.932,0,0,1,1.782,6.693A4.848,4.848,0,0,1,989.346,804.8Zm92.939-9.246a4.766,4.766,0,0,1-.6-.04,4.67,4.67,0,0,1,.587-9.3,4.758,4.758,0,0,1,.6.039,4.67,4.67,0,0,1-.589,9.3Zm1051.458-2.223a3.459,3.459,0,0,1-.816-.1,3.555,3.555,0,0,1-2.624-4.273,3.51,3.51,0,0,1,4.237-2.657,3.566,3.566,0,0,1,2.622,4.281A3.506,3.506,0,0,1,2133.743,793.327Zm-167.061-12.7a2.789,2.789,0,0,1-.651-.076,2.851,2.851,0,0,1-2.1-3.424,2.814,2.814,0,0,1,2.742-2.2,2.779,2.779,0,0,1,.648.076,2.85,2.85,0,0,1,2.1,3.426A2.812,2.812,0,0,1,1966.683,780.631Zm-133.2-5.415a2.932,2.932,0,0,1-.364-.023,2.86,2.86,0,0,1,.359-5.693,2.931,2.931,0,0,1,.366.024,2.86,2.86,0,0,1-.362,5.692Zm161.98-11.2a2.011,2.011,0,0,1-.471-.055,2.083,2.083,0,0,1-1.535-2.5,2.046,2.046,0,0,1,2.472-1.545,2.085,2.085,0,0,1,1.536,2.5A2.054,2.054,0,0,1,1995.46,764.012Zm-13.613-.9a2.656,2.656,0,0,1-2.578-3.281,2.638,2.638,0,0,1,2.572-2.063,2.655,2.655,0,0,1,2.576,3.279A2.642,2.642,0,0,1,1981.848,763.116Zm-965.637-10.469a7.691,7.691,0,0,1-3.865-1.048,7.883,7.883,0,0,1-2.846-10.7,7.7,7.7,0,0,1,10.589-2.875,7.889,7.889,0,0,1,2.849,10.7,7.738,7.738,0,0,1-6.727,3.928Zm-27.764-8.12a1.944,1.944,0,0,1-.981-.266,2,2,0,0,1-.721-2.716,1.975,1.975,0,0,1,1.71-1,1.954,1.954,0,0,1,.98.266,2,2,0,0,1,.721,2.72A1.975,1.975,0,0,1,988.447,744.527ZM1668.3,703.236a5.01,5.01,0,0,1-3.5-1.421,5.168,5.168,0,0,1-.155-7.239,5.031,5.031,0,0,1,7.16-.155,5.165,5.165,0,0,1,.158,7.236A5,5,0,0,1,1668.3,703.236Z" transform="translate(-919.999 -692.501)"/>
</svg>
