<svg xmlns="http://www.w3.org/2000/svg" xmlns:xlink="http://www.w3.org/1999/xlink" width="29.926" height="144.735" viewBox="0 0 29.926 144.735">
  <defs>
    <style>
      .cls-1 {
        fill: #ed1c24;
      }

      .cls-2 {
        fill: #f1e10a;
      }

      .cls-2, .cls-3 {
        opacity: 0.6;
      }

      .cls-3 {
        fill: #f3e235;
      }

      .cls-4 {
        fill: #eac076;
      }

      .cls-5 {
        fill: #e7f6fd;
      }

      .cls-6 {
        fill: #626467;
      }

      .cls-7 {
        fill: url(#linear-gradient);
      }

      .cls-8 {
        fill: #3a3c3f;
      }

      .cls-9 {
        fill: #b3b5b8;
        opacity: 0.9;
      }

      .cls-10 {
        fill: url(#linear-gradient-2);
      }

      .cls-11 {
        fill: #008ed0;
      }

      .cls-12 {
        fill: #fff;
      }

      .cls-13 {
        fill: #083879;
      }

      .cls-14 {
        fill: #c2c4c6;
      }

      .cls-15 {
        fill: url(#linear-gradient-3);
      }

      .cls-16 {
        fill: #ff0026;
      }

      .cls-17 {
        fill: #ecb020;
      }

      .cls-18 {
        fill: #c9e9eb;
        opacity: 0.7;
      }

      .cls-19 {
        fill: url(#radial-gradient);
      }

      .cls-20 {
        fill: url(#radial-gradient-2);
      }

      .cls-21 {
        fill: url(#radial-gradient-3);
      }

      .cls-22 {
        fill: #dedfe0;
      }

      .cls-23 {
        fill: #fff2bb;
        opacity: 0.5;
      }
    </style>
    <linearGradient id="linear-gradient" x1="0.379" y1="-0.933" x2="0.74" y2="4.598" gradientUnits="objectBoundingBox">
      <stop offset="0.457" stop-color="#e5e0df"/>
      <stop offset="1" stop-color="#8ca99c"/>
    </linearGradient>
    <linearGradient id="linear-gradient-2" x1="0.379" y1="-0.933" x2="0.741" y2="4.598" xlink:href="#linear-gradient"/>
    <linearGradient id="linear-gradient-3" x1="-0.339" y1="0.5" x2="1.332" y2="0.5" xlink:href="#linear-gradient"/>
    <radialGradient id="radial-gradient" cx="1.445" cy="1.827" r="6.329" gradientUnits="userSpaceOnUse">
      <stop offset="0.149" stop-color="#21687e"/>
      <stop offset="0.491" stop-color="#023f5f"/>
      <stop offset="0.98"/>
    </radialGradient>
    <radialGradient id="radial-gradient-2" cx="220.141" cy="195.558" r="3.683" gradientTransform="translate(-116.994 -105.393) scale(1.629 1.629)" gradientUnits="userSpaceOnUse">
      <stop offset="0.285" stop-color="#fff"/>
      <stop offset="0.691" stop-color="#6b6b6b"/>
      <stop offset="1"/>
    </radialGradient>
    <radialGradient id="radial-gradient-3" cx="-73.122" cy="-84.889" r="10.961" gradientTransform="translate(-43.002 -50.072) scale(0.548 0.548)" xlink:href="#radial-gradient-2"/>
  </defs>
  <g id="Group_1209" data-name="Group 1209" transform="translate(-1195 -4896.321)">
    <g id="Group_831" data-name="Group 831" transform="translate(1197.161 4949.273)">
      <path id="Path_2531" data-name="Path 2531" class="cls-1" d="M31.507,121.747c.051-.518.056-1.039.091-1.562.058-.963.25-1.942.35-2.9.168-1.619.834-9.785,1-12.253.217-3.179.567-6.343.844-9.514.118-1.367.814-7.583.831-7.49.379,2.289.022,4.634.113,6.952.046-.294.1-.592.149-.89.8-6.452.675-13.071,1.3-19.559.008-.108.227,3.1.284,4.641.147-1.25.284-2.528.333-3.785.046-1.232.367-3.744.364-3.639-.073,2.355-.144,4.712-.1,7.069.255-2,.482-4,.692-6.018.389-3.766.937-7.5,1.327-11.262a38.9,38.9,0,0,0,.152-9.365c-.438-3.083-1.743-5.546-3.705-6.863-5.188-3.491-12.622-.107-14.12,7.77a51.784,51.784,0,0,0-.387,10.81c.218,2.255,1.178,7.68,1.519,9.9q.2,1.317.413,2.636c.6,2.822,1.135,5.7,1.937,8.407-.235-2.964-.915-8.966-.888-8.866a29.829,29.829,0,0,1,.717,3.8c.213,1.452.5,2.875.773,4.306.254,1.335.519,2.668.724,4.022.181,1.217.35,2.442.606,3.631-.007-3.21-.333-11.751-.318-11.626q.112,1.005.19,2.015c.217,2.338.425,4.68.687,7.008.333,2.936.785,5.842,1.151,8.771.55,4.389,1.034,8.8,1.645,13.172-.168-4.37-.382-13.26-.371-13.133.464,5.3,1.164,10.558,1.379,15.9C31.3,116.456,31.349,119.111,31.507,121.747Z" transform="translate(-18.07 -39.675)"/>
      <path id="Path_2532" data-name="Path 2532" class="cls-2" d="M26.164,44.939a6.726,6.726,0,0,1,3.242.173,7.251,7.251,0,0,1,2.778,2.034,11.917,11.917,0,0,1,2.1,4.325,21.489,21.489,0,0,1,.509,2.557c.093.678.066,1.4.178,2.063.007.041.036-.014.032-.039-.078-.772,0-1.589-.066-2.376a16.9,16.9,0,0,0-.438-2.526,12.57,12.57,0,0,0-2.074-4.421c-1.646-2.281-4.139-2.462-6.26-1.873C26.145,44.861,26.137,44.942,26.164,44.939Z" transform="translate(-14.443 -39.237)"/>
      <path id="Path_2533" data-name="Path 2533" class="cls-2" d="M23.135,48.473c-.255.6-.482,1.227-.694,1.844a25.2,25.2,0,0,0-1.321,8.02c0,.056.036.03.037-.012a27.477,27.477,0,0,1,1.506-7.673,18.649,18.649,0,0,1,1.453-3.3c.311-.521.634-1.02.963-1.513A10.548,10.548,0,0,0,23.135,48.473Z" transform="translate(-17.922 -38.358)"/>
      <path id="Path_2534" data-name="Path 2534" class="cls-2" d="M34.608,64.337c.169-1.025.389-2.034.54-3.066.147-1.008.213-2.063.271-3.088a27.747,27.747,0,0,0-.372-6.118,13.877,13.877,0,0,0-1.929-5.4,10.069,10.069,0,0,0-3.4-3.354c-.032-.017-.056.1-.025.122,2.442,1.648,4.211,5.331,4.89,9.072a30.768,30.768,0,0,1,.5,5.787,58.935,58.935,0,0,1-.541,6.027C34.522,64.421,34.589,64.443,34.608,64.337Z" transform="translate(-12.003 -40.11)"/>
      <path id="Path_2535" data-name="Path 2535" class="cls-2" d="M25.47,44.849a10.363,10.363,0,0,1,2.345-.892,7.938,7.938,0,0,1,2.034-.4c.283-.014.56-.015.836-.007a4.821,4.821,0,0,1,1.589.164,6.858,6.858,0,0,1,.985.406,6.946,6.946,0,0,0-3.441-1.352,7.82,7.82,0,0,0-3.922,1.073,10.561,10.561,0,0,0-3.43,3.37c-.237.333-.464.68-.677,1.041A10.731,10.731,0,0,1,25.47,44.849Z" transform="translate(-17.459 -40.488)"/>
      <path id="Path_2536" data-name="Path 2536" class="cls-2" d="M20.438,61.307c-.069-.525-.044-1.056-.064-1.584-.02-.6-.061-1.195-.052-1.8.019-1.176.088-2.338.166-3.507a44.692,44.692,0,0,1,.92-6.646c.015-.074-.025-.23-.073-.11a16.873,16.873,0,0,0-.958,3.084,29.305,29.305,0,0,0-.371,3.607c-.076,1.272-.071,2.5-.027,3.773a15.588,15.588,0,0,0,.206,1.761c.073.5.081,1.01.183,1.5C20.387,61.478,20.446,61.361,20.438,61.307Z" transform="translate(-18.733 -37.126)"/>
      <path id="Path_2537" data-name="Path 2537" class="cls-2" d="M31.1,67.7c.1-1.125.413-2.257.611-3.352.233-1.311.465-2.619.687-3.932a53.636,53.636,0,0,0,.9-7.949c0-.188-.11-.147-.137,0-.23,1.274-.325,2.589-.492,3.88q-.254,2-.563,3.976c-.206,1.318-.415,2.634-.6,3.958-.161,1.117-.415,2.281-.465,3.42C31.036,67.783,31.093,67.771,31.1,67.7Z" transform="translate(-11.058 -33.857)"/>
      <path id="Path_2538" data-name="Path 2538" class="cls-2" d="M22.735,68.8c-.665-4.348-1.1-8.753-1.91-13.054-.039-.2-.157.039-.159.14a37.1,37.1,0,0,0,.744,6.438c.343,2.208.719,4.423,1.264,6.546C22.695,68.945,22.744,68.845,22.735,68.8Z" transform="translate(-18.238 -31.556)"/>
      <path id="Path_2539" data-name="Path 2539" class="cls-2" d="M25.933,82.787c-.308-1.856-.572-3.726-.888-5.577-.311-1.831-.753-3.6-1.173-5.381q-.378-1.6-.787-3.176c.244,1.7.523,3.377.824,5.054.294,1.215.587,2.433.841,3.668.374,1.829.729,3.668,1.113,5.492C25.88,82.956,25.941,82.841,25.933,82.787Z" transform="translate(-16.562 -22.57)"/>
      <path id="Path_2540" data-name="Path 2540" class="cls-2" d="M27.292,98.558c-.228-3.714-.462-7.43-.951-11.094-.239-1.792-.438-3.589-.7-5.372a29.437,29.437,0,0,0-1.079-4.963c-.054-.161-.129.073-.113.167,1.228,7,2.047,14.169,2.8,21.307C27.25,98.68,27.294,98.609,27.292,98.558Z" transform="translate(-15.622 -16.743)"/>
      <path id="Path_2541" data-name="Path 2541" class="cls-2" d="M28.328,84.674c-.058,1.254-.156,2.5-.2,3.753-.029.778-.068,1.555-.112,2.33-.024,1.431-.024,2.866-.019,4.3.052-.342.1-.682.146-1.025.2-1.68.35-3.37.453-5.067.1-1.633.247-3.274.3-4.912.036-1.2.047-2.414.056-3.623C28.668,81.825,28.469,83.241,28.328,84.674Z" transform="translate(-13.168 -14.421)"/>
      <path id="Path_2542" data-name="Path 2542" class="cls-2" d="M29.01,91.567c.042-.931.252-1.81.379-2.716.144-1.035.286-2.071.4-3.113.244-2.15.5-4.3.738-6.446.232-2.129.43-4.266.607-6.4s.183-4.291.249-6.443c0-.09-.063-.078-.069,0-.193,2.137-.508,4.235-.687,6.37q-.274,3.282-.612,6.556c-.222,2.117-.431,4.238-.6,6.369-.081,1.035-.156,2.073-.24,3.112-.074.915-.242,1.807-.237,2.734C28.946,91.681,29.007,91.64,29.01,91.567Z" transform="translate(-12.506 -24.142)"/>
      <path id="Path_2543" data-name="Path 2543" class="cls-2" d="M30.308,83a11.528,11.528,0,0,1,.211-1.487c.078-.481.173-.958.266-1.431.211-1.049.394-2.112.569-3.176.364-2.24.694-4.5,1.027-6.748.646-4.362,1.342-8.77,1.724-13.2.014-.149-.088-.117-.108,0-.736,4.423-1.35,8.873-2.007,13.321-.333,2.254-.656,4.509-1,6.758q-.259,1.69-.511,3.382a13.955,13.955,0,0,0-.235,2.616C30.252,83.113,30.3,83.047,30.308,83Z" transform="translate(-11.611 -30.736)"/>
      <path id="Path_2544" data-name="Path 2544" class="cls-2" d="M27.947,105.843c-.071-.927-.31-1.792-.465-2.687-.179-1.025-.354-2.049-.5-3.081-.311-2.132-.641-4.257-.942-6.389-.3-2.11-.567-4.232-.814-6.357s-.318-4.272-.452-6.416c-.005-.091.059-.085.068-.005.262,2.118.643,4.193.888,6.314.255,2.174.525,4.345.822,6.507.289,2.1.569,4.2.8,6.32.113,1.03.223,2.063.34,3.091.1.909.3,1.792.321,2.717C28.013,105.953,27.95,105.917,27.947,105.843Z" transform="translate(-15.397 -14.133)"/>
      <path id="Path_2545" data-name="Path 2545" class="cls-2" d="M26.163,88.182a11.29,11.29,0,0,0-.279-1.464c-.1-.472-.211-.939-.328-1.4-.257-1.029-.487-2.069-.707-3.115-.464-2.2-.892-4.421-1.327-6.636-.838-4.291-1.729-8.624-2.31-13.006-.02-.151.086-.127.11-.012.931,4.343,1.743,8.727,2.6,13.1.431,2.215.854,4.436,1.294,6.651.174.868.4,1.978.66,3.323a13.5,13.5,0,0,1,.352,2.589C26.225,88.295,26.166,88.232,26.163,88.182Z" transform="translate(-17.86 -26.861)"/>
      <path id="Path_2546" data-name="Path 2546" class="cls-2" d="M24.831,42.975a18.143,18.143,0,0,0-3.56,5.1,25.178,25.178,0,0,0-1.946,7.683,39.615,39.615,0,0,0,.538,8.883c.4,3.039,1.025,6.022,1.347,9.081.007.056.081-.01.076-.058-.179-2.392-.641-4.731-.993-7.083a50.244,50.244,0,0,1-.455-9.076,23.936,23.936,0,0,1,5.029-14.439C24.9,43.012,24.88,42.924,24.831,42.975Z" transform="translate(-19.23 -40.35)"/>
      <path id="Path_2547" data-name="Path 2547" class="cls-2" d="M38.483,49.408l-.01-.025c-1.315-3.159-3.491-5.983-5.935-7.062a10.476,10.476,0,0,0-3.535-.9,7.309,7.309,0,0,0-3.854.887c-.036.02-.08.154-.015.129a8.477,8.477,0,0,1,7.671.628,14.941,14.941,0,0,1,5.677,7.462c1.247,3.34,1.377,7.037,1.44,10.742a86.78,86.78,0,0,1-.838,11.5c-.007.071.081.017.088-.034a94.3,94.3,0,0,0,.946-12.673A28.927,28.927,0,0,0,38.483,49.408Z" transform="translate(-15.167 -41.417)"/>
      <path id="Path_2548" data-name="Path 2548" class="cls-3" d="M36.41,64.592c.036.572.069,1.149.09,1.721.054,1.321-.112,2.783,0,4.117.178-.873.408-1.719.636-2.563.508-4.836,1.193-9.624.763-14.556a13.4,13.4,0,0,0-2.1-6.749,6.148,6.148,0,0,0-4.431-2.475c-3.181-.428-6.281,1.829-8.145,5.514a20.8,20.8,0,0,0-1.78,6.793,31.65,31.65,0,0,0-.142,3.971,19.74,19.74,0,0,0,.357,4.054c.047.227.277-.044.3-.171.2-1.2.232-2.425.457-3.621.189-1.012.406-2.034.687-3.01-.134.689-.293,1.364-.364,2.079-.122,1.191-.179,2.382-.2,3.585a31.246,31.246,0,0,0,.465,7.04c.058.257.3-.059.327-.188a24.9,24.9,0,0,0,.232-3.172,33.146,33.146,0,0,1,.462-3.392,34.585,34.585,0,0,0-.195,3.834c.027,1.78.176,3.594.342,5.357.171,1.814.453,3.6.68,5.4a9.766,9.766,0,0,0,.655,3.33c.095.156.257-.091.289-.212a17.948,17.948,0,0,0,.156-3.291,55.23,55.23,0,0,1,.6-5.6c.027-.161.058-.321.083-.484.014.25.027.5.044.751.166,2.491.574,5,.888,7.462.365,2.851.79,5.687,1.25,8.506.227,1.376.455,2.753.714,4.113a8.963,8.963,0,0,0,.572,2.4c.1.184.289-.108.323-.239a7.14,7.14,0,0,0,.19-1.975c0-1.032.125-2.076.22-3.095.215-2.32.5-4.6.592-6.937.037-.91.052-1.821.063-2.729.052.744.1,1.491.147,2.237a13.931,13.931,0,0,0,.276,3.367c.036.1.118.086.174.03.416-.428.354-1.587.386-2.233.063-1.188.191-2.369.345-3.55.03,2.107.076,4.237.188,6.328.154-.875.332-1.736.506-2.6.081-1.223.124-2.464.244-3.648.112-1.081.225-2.156.354-3.225q.01,1.343.024,2.678a28.2,28.2,0,0,0,.069,3.294c.343-2.166.621-4.355.954-6.524.2-1.707.475-3.386.719-5.091a58.879,58.879,0,0,0,.514-6.274C36.4,64.831,36.4,64.712,36.41,64.592Z" transform="translate(-17.803 -39.607)"/>
      <path id="Path_2549" data-name="Path 2549" class="cls-4" d="M36.106,52.526a9.411,9.411,0,0,0-2.822-6.5,4.033,4.033,0,0,0-1.332-.844,1.629,1.629,0,0,0,.288,0c.029,0,.081-.108.03-.115a7.594,7.594,0,0,0-1.552-.33,15.155,15.155,0,0,0-2.272.362A5.626,5.626,0,0,0,27,45.628a6.064,6.064,0,0,0-1.283.775,16.132,16.132,0,0,0-3.286,6.118,20.482,20.482,0,0,0-.23,2.809,11.058,11.058,0,0,1,2.418-4.367A16.908,16.908,0,0,0,23.147,54.7c-.032.112-.059.23-.091.343a17.633,17.633,0,0,0,.08,6.218,33.944,33.944,0,0,1,.9-3.966,17.85,17.85,0,0,1,2.056-4.785c-.139.4-.311.778-.435,1.195q-.338,1.132-.6,2.3a23.4,23.4,0,0,0-.406,5.788c0,.095.007.189.01.279a54.627,54.627,0,0,0,1.7,8.956.278.278,0,0,0,.044-.139,35.8,35.8,0,0,1,.173-3.714c.151-1.073.448-2.289.492-3.374.01-.252.132-.672.124-.819.025.641-.083,1.328-.113,1.968a34.87,34.87,0,0,0,.063,3.968,54.163,54.163,0,0,0,.973,7.188c.118.589.423,3.587.954,3.8a.165.165,0,0,0,.2-.081,9.041,9.041,0,0,0,.645-2.809c.364-2.107.772-4.184,1.174-6.277.249-1.291.45-2.6.623-3.908,0,.08,0,.161.005.244.02.88.13,1.773.208,2.648.083.936.073,1.912.237,2.829.017.095.063.117.115.1.218-.548.406-1.12.575-1.7.129-.839.193-1.733.3-2.5.284-1.978.611-3.939.807-5.944a44.981,44.981,0,0,0,.188-4.732c.293,1.327.575,2.65.89,3.961q.254-.764.526-1.519.206-1.051.4-2.11A35.324,35.324,0,0,0,36.106,52.526Z" transform="translate(-17.17 -39.12)"/>
      <path id="Path_2550" data-name="Path 2550" class="cls-5" d="M32.847,47.165A5.257,5.257,0,0,0,29.2,45.207c-.247.005-.486.024-.709.044-.208.02-.415.056-.616.095a6.98,6.98,0,0,0-2.3.976,7.762,7.762,0,0,0-.7.552,8.458,8.458,0,0,0-1.139,1.32,6.083,6.083,0,0,1,4.194-2.222,5.824,5.824,0,0,1,4.2,1.574,6.6,6.6,0,0,1,1.846,2.438c.019.044.086-.036.073-.08a17.558,17.558,0,0,0-1.132-2.64C32.9,47.229,32.874,47.2,32.847,47.165Z" transform="translate(-16.108 -38.795)"/>
    </g>
    <g id="Group_832" data-name="Group 832" transform="translate(1195 4896.321)">
      <g id="Group_667" data-name="Group 667" transform="translate(7.295 52.898)">
        <g id="Group_664" data-name="Group 664" transform="translate(8.543)">
          <path id="Path_2551" data-name="Path 2551" class="cls-6" d="M31.993,41.385H29.509a15.754,15.754,0,0,0-2.191,8.58,9.532,9.532,0,0,0,3.433.552,9.506,9.506,0,0,0,3.431-.552A15.745,15.745,0,0,0,31.993,41.385Z" transform="translate(-27.313 -41.385)"/>
          <g id="Group_663" data-name="Group 663" transform="translate(0.003)">
            <path id="Path_2552" data-name="Path 2552" class="cls-7" d="M32.722,43.757a12.38,12.38,0,0,0-1.149-2.372H29.089a12.413,12.413,0,0,0-1.169,2.428A13.358,13.358,0,0,0,32.722,43.757Z" transform="translate(-26.896 -41.385)"/>
            <path id="Path_2553" data-name="Path 2553" class="cls-8" d="M27.323,45.878c-.005.14-.008.283-.008.426a10.937,10.937,0,0,0,3.171.426,15.52,15.52,0,0,0,3.7-.469c0-.139,0-.277-.01-.415A12.861,12.861,0,0,1,27.323,45.878Z" transform="translate(-27.315 -38.297)"/>
            <path id="Path_2554" data-name="Path 2554" class="cls-8" d="M27.4,45.1c-.017.134-.034.274-.042.415a11.053,11.053,0,0,0,3.1.4,15.615,15.615,0,0,0,3.629-.448c-.015-.139-.029-.274-.044-.408A12.965,12.965,0,0,1,27.4,45.1Z" transform="translate(-27.287 -38.838)"/>
            <path id="Path_2555" data-name="Path 2555" class="cls-8" d="M33.452,43.931c-.032-.135-.068-.266-.1-.394a13.194,13.194,0,0,1-5.628.052c-.037.13-.071.264-.107.4a11.66,11.66,0,0,0,2.663.289A15.347,15.347,0,0,0,33.452,43.931Z" transform="translate(-27.107 -39.896)"/>
            <path id="Path_2556" data-name="Path 2556" class="cls-8" d="M27.528,44.338c-.025.134-.049.269-.073.406a11.244,11.244,0,0,0,2.934.359,15.367,15.367,0,0,0,3.453-.408c-.024-.135-.049-.269-.074-.4A13.087,13.087,0,0,1,27.528,44.338Z" transform="translate(-27.218 -39.371)"/>
            <path id="Path_2557" data-name="Path 2557" class="cls-8" d="M32.918,43.176c-.044-.132-.093-.264-.139-.389a13.358,13.358,0,0,1-4.8.056c-.046.125-.095.259-.14.4a12.082,12.082,0,0,0,2.288.208A15.142,15.142,0,0,0,32.918,43.176Z" transform="translate(-26.954 -40.415)"/>
          </g>
          <path id="Path_2558" data-name="Path 2558" class="cls-9" d="M31.993,41.385H29.509a15.754,15.754,0,0,0-2.191,8.58s.1.041.284.1a16.47,16.47,0,0,1,.433-3.59c.129-.77.492-2.609,1.638-2.526,1.267.09,1,5.343,1.037,6.567h.041a9.506,9.506,0,0,0,3.431-.552A15.745,15.745,0,0,0,31.993,41.385Z" transform="translate(-27.313 -41.385)"/>
          <path id="Path_2559" data-name="Path 2559" class="cls-9" d="M30.6,41.385H29.326a23.459,23.459,0,0,1,1.956,8.976,7.739,7.739,0,0,0,1.508-.4A15.745,15.745,0,0,0,30.6,41.385Z" transform="translate(-25.92 -41.385)"/>
        </g>
        <g id="Group_666" data-name="Group 666">
          <path id="Path_2560" data-name="Path 2560" class="cls-6" d="M26.942,41.385h-2.48a15.729,15.729,0,0,0-2.193,8.58,9.521,9.521,0,0,0,3.433.552,9.5,9.5,0,0,0,3.43-.552A15.728,15.728,0,0,0,26.942,41.385Z" transform="translate(-22.264 -41.385)"/>
          <g id="Group_665" data-name="Group 665" transform="translate(0.003)">
            <path id="Path_2561" data-name="Path 2561" class="cls-10" d="M27.671,43.757a12.139,12.139,0,0,0-1.149-2.372h-2.48a12.348,12.348,0,0,0-1.171,2.428A13.348,13.348,0,0,0,27.671,43.757Z" transform="translate(-21.847 -41.385)"/>
            <path id="Path_2562" data-name="Path 2562" class="cls-8" d="M22.274,45.878c-.005.14-.007.283-.008.426a10.942,10.942,0,0,0,3.169.426,15.543,15.543,0,0,0,3.7-.469c0-.139-.005-.277-.01-.415A12.862,12.862,0,0,1,22.274,45.878Z" transform="translate(-22.266 -38.297)"/>
            <path id="Path_2563" data-name="Path 2563" class="cls-8" d="M22.346,45.1c-.014.134-.027.274-.041.415a11.063,11.063,0,0,0,3.1.4,15.6,15.6,0,0,0,3.629-.448c-.014-.139-.027-.274-.042-.408A12.978,12.978,0,0,1,22.346,45.1Z" transform="translate(-22.239 -38.838)"/>
            <path id="Path_2564" data-name="Path 2564" class="cls-8" d="M28.406,43.931c-.034-.135-.068-.266-.107-.394a13.185,13.185,0,0,1-5.626.052c-.037.13-.073.264-.108.4a11.672,11.672,0,0,0,2.663.289A15.365,15.365,0,0,0,28.406,43.931Z" transform="translate(-22.059 -39.896)"/>
            <path id="Path_2565" data-name="Path 2565" class="cls-8" d="M22.479,44.338c-.025.134-.051.269-.074.406a11.276,11.276,0,0,0,2.934.359,15.359,15.359,0,0,0,3.455-.408c-.025-.135-.049-.269-.074-.4A13.088,13.088,0,0,1,22.479,44.338Z" transform="translate(-22.17 -39.371)"/>
            <path id="Path_2566" data-name="Path 2566" class="cls-8" d="M27.87,43.176c-.046-.132-.093-.264-.14-.389a13.347,13.347,0,0,1-4.8.056c-.047.125-.095.259-.142.4a12.11,12.11,0,0,0,2.288.208A15.159,15.159,0,0,0,27.87,43.176Z" transform="translate(-21.905 -40.415)"/>
          </g>
          <path id="Path_2567" data-name="Path 2567" class="cls-9" d="M26.942,41.385h-2.48a15.729,15.729,0,0,0-2.193,8.58s.1.041.286.1a16.264,16.264,0,0,1,.431-3.59c.132-.77.492-2.609,1.638-2.526,1.267.09,1,5.343,1.039,6.567H25.7a9.5,9.5,0,0,0,3.43-.552A15.728,15.728,0,0,0,26.942,41.385Z" transform="translate(-22.264 -41.385)"/>
          <path id="Path_2568" data-name="Path 2568" class="cls-9" d="M25.55,41.385H24.276a23.431,23.431,0,0,1,1.959,8.976,7.7,7.7,0,0,0,1.5-.4A15.728,15.728,0,0,0,25.55,41.385Z" transform="translate(-20.872 -41.385)"/>
        </g>
      </g>
      <g id="Group_671" data-name="Group 671">
        <path id="Path_2569" data-name="Path 2569" class="cls-11" d="M22.141,34.054a6.244,6.244,0,0,0-4.179,5.387c-.279,4.171,5.766,16.827,6.228,15.121s.866-10.648.866-10.648Z" transform="translate(-17.952 6.44)"/>
        <path id="Path_2570" data-name="Path 2570" class="cls-11" d="M21.155,35.512a.152.152,0,0,1,.22.173c-1.132,3.37-.6,7.176.022,10.6a31.436,31.436,0,0,0,2.719,8.4.234.234,0,0,0,.074-.129c.462-1.707.866-10.648.866-10.648l-2.915-9.861a6.244,6.244,0,0,0-4.179,5.387,5.01,5.01,0,0,0,.008.726A6.516,6.516,0,0,1,21.155,35.512Z" transform="translate(-17.952 6.44)"/>
        <path id="Path_2571" data-name="Path 2571" class="cls-12" d="M20.975,44.8c-.411-1.293-.824-2.609-1.347-3.863-.413-.99-1.012-1.88-1.519-2.824v.017a46.688,46.688,0,0,0,4.423,11.345C21.948,47.938,21.471,46.363,20.975,44.8Z" transform="translate(-17.844 9.246)"/>
        <path id="Path_2572" data-name="Path 2572" class="cls-13" d="M34.359,34.054a6.243,6.243,0,0,1,4.177,5.387c.281,4.171-5.766,16.827-6.226,15.121s-.87-10.648-.87-10.648Z" transform="translate(-8.619 6.44)"/>
        <path id="Path_2573" data-name="Path 2573" class="cls-11" d="M32.506,54.71c.019-.11.037-.22.054-.332.14-.934.237-1.881.332-2.822.166-1.665.357-3.323.626-4.976a42.654,42.654,0,0,1,2.406-9.81.151.151,0,0,1,.208-.054,5.831,5.831,0,0,1,2.392,3.513,5.654,5.654,0,0,0,.012-.787,6.243,6.243,0,0,0-4.177-5.387L31.44,43.915s.408,8.94.87,10.648C32.345,54.691,32.413,54.737,32.506,54.71Z" transform="translate(-8.619 6.44)"/>
        <path id="Path_2574" data-name="Path 2574" class="cls-14" d="M43.37,37.1a43.472,43.472,0,0,0-.78-8.167c-.655-4.834-8.873-17.421-9.583-18.184a1.966,1.966,0,0,0-2.883,0c-.711.763-8.927,13.35-9.583,18.184a43.32,43.32,0,0,0-.78,8.167c-.218,6.274,1.266,22.253,4.546,27.595a27.4,27.4,0,0,0,7.259.633,27.422,27.422,0,0,0,7.26-.633C42.1,59.356,43.586,43.377,43.37,37.1Z" transform="translate(-16.716 -10.121)"/>
        <path id="Path_2575" data-name="Path 2575" class="cls-13" d="M29.216,33.984a2.7,2.7,0,0,0-.728-.318H27.244a3.469,3.469,0,0,0-.64.181c-.569.394-1.553,1.623-1.414,5.379.154,4.127,2.267,16.3,2.638,15.741.372.56,2.638-11.612,2.641-15.741C30.471,35.82,29.744,34.5,29.216,33.984Z" transform="translate(-12.953 6.172)"/>
        <path id="Path_2576" data-name="Path 2576" class="cls-11" d="M27.518,34.4a1.208,1.208,0,0,0-.365-.232h-.624a1.274,1.274,0,0,0-.325.132c-.286.281-.78,1.166-.711,3.863.078,2.964,1.14,11.714,1.327,11.313.188.4,1.327-8.345,1.33-11.313C28.149,35.72,27.784,34.769,27.518,34.4Z" transform="translate(-12.739 6.522)"/>
        <path id="Path_2577" data-name="Path 2577" class="cls-12" d="M26.163,41.181a65.148,65.148,0,0,1-.2-6.606,9.478,9.478,0,0,0-.3,3.112c.039,1.442.308,4.243.6,6.7C26.226,43.317,26.2,42.25,26.163,41.181Z" transform="translate(-12.624 6.801)"/>
        <g id="Group_668" data-name="Group 668" transform="translate(3.893)">
          <path id="Path_2578" data-name="Path 2578" class="cls-15" d="M31.209,10.123a1.855,1.855,0,0,0-1.442.629c-.69.744-8.5,12.692-9.514,17.786a39,39,0,0,0,10.956,1.5,39.008,39.008,0,0,0,10.957-1.5C41.149,23.445,33.34,11.5,32.65,10.752A1.857,1.857,0,0,0,31.209,10.123Z" transform="translate(-20.253 -10.121)"/>
          <path id="Path_2579" data-name="Path 2579" class="cls-16" d="M31.209,10.123a1.855,1.855,0,0,0-1.442.629c-.69.744-8.5,12.692-9.514,17.786a39,39,0,0,0,10.956,1.5,39.008,39.008,0,0,0,10.957-1.5C41.149,23.445,33.34,11.5,32.65,10.752A1.857,1.857,0,0,0,31.209,10.123Z" transform="translate(-20.253 -10.121)"/>
        </g>
        <g id="Group_669" data-name="Group 669" transform="translate(4.339 18.969)">
          <path id="Path_2580" data-name="Path 2580" class="cls-12" d="M21.483,21.908A.483.483,0,1,1,21,21.424.482.482,0,0,1,21.483,21.908Z" transform="translate(-20.517 -21.268)"/>
          <path id="Path_2581" data-name="Path 2581" class="cls-12" d="M27.419,22.757a.484.484,0,1,1-.484-.484A.483.483,0,0,1,27.419,22.757Z" transform="translate(-16.411 -20.681)"/>
          <path id="Path_2582" data-name="Path 2582" class="cls-12" d="M33.356,21.818a.485.485,0,1,1-.484-.486A.485.485,0,0,1,33.356,21.818Z" transform="translate(-12.304 -21.332)"/>
          <path id="Path_2583" data-name="Path 2583" class="cls-12" d="M30.387,22.572a.485.485,0,1,1-.486-.484A.486.486,0,0,1,30.387,22.572Z" transform="translate(-14.358 -20.809)"/>
          <path id="Path_2584" data-name="Path 2584" class="cls-12" d="M24.453,22.572a.485.485,0,1,1-.486-.484A.486.486,0,0,1,24.453,22.572Z" transform="translate(-18.464 -20.809)"/>
        </g>
        <path id="Path_2585" data-name="Path 2585" class="cls-17" d="M33.972,29.869a4.958,4.958,0,1,1-4.959-4.959A4.958,4.958,0,0,1,33.972,29.869Z" transform="translate(-13.728 0.113)"/>
        <ellipse id="Ellipse_3262" data-name="Ellipse 3262" class="cls-18" cx="4.195" cy="4.195" rx="4.195" ry="4.195" transform="translate(11.09 25.937)"/>
        <ellipse id="Ellipse_3263" data-name="Ellipse 3263" class="cls-19" cx="3.771" cy="3.771" rx="3.771" ry="3.771" transform="translate(11.515 26.234)"/>
        <g id="Group_670" data-name="Group 670" transform="translate(12.002 26.616)">
          <path id="Path_2586" data-name="Path 2586" class="cls-20" d="M25.68,28.234c-.208-.036-.413-.074-.619-.12A3.366,3.366,0,0,0,26.5,30.457a3.355,3.355,0,0,1-.821-2.2Z" transform="translate(-25.036 -24.287)"/>
          <path id="Path_2587" data-name="Path 2587" class="cls-21" d="M28.411,25.852a3.379,3.379,0,0,0-3.365,3.128c.242.037.482.076.722.117a3.377,3.377,0,0,1,5.2-2.068A3.368,3.368,0,0,0,28.411,25.852Z" transform="translate(-25.046 -25.852)"/>
        </g>
        <path id="Path_2588" data-name="Path 2588" class="cls-12" d="M37.325,37.7a36.908,36.908,0,0,1-4.81,13.1A88.785,88.785,0,0,0,37.325,37.7Z" transform="translate(-7.875 8.962)"/>
        <path id="Path_2589" data-name="Path 2589" class="cls-18" d="M24.815,22.278c-.22-.022-.44-.052-.656-.088-.709-.122-1.406-.31-2.112-.447a40.458,40.458,0,0,0-.653,7.951c.112,8.707,1.959,17.229,3.409,25.781.533.08,1.186.159,1.949.222-.746-7.93-1.881-15.83-2.166-23.8A75.369,75.369,0,0,1,24.815,22.278Z" transform="translate(-15.574 -2.079)"/>
        <path id="Path_2590" data-name="Path 2590" class="cls-22" d="M38.559,37.1a43.472,43.472,0,0,0-.78-8.167C37.124,24.1,28.906,11.515,28.2,10.752a1.857,1.857,0,0,0-1.442-.629h-.063a66.6,66.6,0,0,1,2.33,6.621c4.6,15.637,4.338,32.319,2.4,48.4a19.063,19.063,0,0,0,2.594-.443C37.293,59.356,38.775,43.377,38.559,37.1Z" transform="translate(-11.905 -10.121)"/>
        <path id="Path_2591" data-name="Path 2591" class="cls-23" d="M23.645,27.112c.308.051.616.086.922.112.129-1.12.284-2.242.481-3.362.646-3.7,1.536-7.355,2.4-11.011a68.839,68.839,0,0,0-4.475,10.015,36.9,36.9,0,0,0-1.054,3.824A16.008,16.008,0,0,0,23.645,27.112Z" transform="translate(-15.206 -8.233)"/>
      </g>
    </g>
  </g>
</svg>
