<svg xmlns="http://www.w3.org/2000/svg" width="34.928" height="35.168" viewBox="0 0 34.928 35.168">
  <defs>
    <style>
      .cls-1 {
        fill: #00b584;
        stroke: #009C72;
      }
    </style>
  </defs>
  <g id="wrench" transform="translate(-1.752)">
    <g id="Group_531" data-name="Group 531" transform="translate(18.118 0)">
      <g id="Group_530" data-name="Group 530" transform="translate(0)">
        <path id="Path_2367" data-name="Path 2367" class="cls-1" d="M257.492,3.2l-2.113-2.113A3.861,3.861,0,0,0,250.2.91l-3.714,3.219a.6.6,0,0,0-.121.144L242.752,10.3l-2.321.774a.6.6,0,0,0-.233.988l6.326,6.326a.6.6,0,0,0,.988-.233l.774-2.322,6.111-3.69a.6.6,0,0,0,.143-.121l3.143-3.642A3.865,3.865,0,0,0,257.492,3.2Zm-.712,4.393L253.7,11.165l-6.218,3.754a.6.6,0,0,0-.258.322l-.538,1.615-1.426-1.426h0l-2.109-2.109h0L241.723,11.9l1.615-.538a.6.6,0,0,0,.323-.259l3.68-6.13,3.642-3.157a2.649,2.649,0,0,1,3.552.121l2.113,2.113A2.652,2.652,0,0,1,256.78,7.595Z" transform="translate(-240.023 0)"/>
      </g>
    </g>
    <g id="Group_533" data-name="Group 533" transform="translate(1.752 1.101)">
      <g id="Group_532" data-name="Group 532" transform="translate(0)">
        <path id="Path_2368" data-name="Path 2368" class="cls-1" d="M33.9,38.89a6.564,6.564,0,0,0-6.664-1.6L14.556,24.611a6.564,6.564,0,0,0-8.64-8.134.6.6,0,0,0-.2.977l3.794,3.794L6.976,23.779,3.181,19.984a.6.6,0,0,0-.977.2,6.564,6.564,0,0,0,8.134,8.64l4.74,4.74-5.9,5.9-3.754,2.1a.6.6,0,0,0-.242.254L3.492,45.2a.6.6,0,0,0,.112.689L5.712,48a.6.6,0,0,0,.689.112L9.775,46.42a.6.6,0,0,0,.254-.242l2.1-3.754,5.9-5.9L23.015,41.5a6.563,6.563,0,0,0,8.64,8.134.6.6,0,0,0,.2-.977l-3.794-3.794,2.531-2.531,3.794,3.794a.6.6,0,0,0,.977-.2A6.564,6.564,0,0,0,33.9,38.89ZM11.225,41.638a.6.6,0,0,0-.1.131l-2.05,3.666L6.252,46.848l-1.5-1.5,1.413-2.825,3.666-2.05a.6.6,0,0,0,.131-.1l5.961-5.961,1.265,1.265Zm23.3,2.939-3.507-3.507a.6.6,0,0,0-.844,0L26.8,44.445a.6.6,0,0,0,0,.844L30.305,48.8a5.371,5.371,0,0,1-6.047-7.228.6.6,0,0,0-.134-.639l-13.21-13.21a.6.6,0,0,0-.639-.134,5.371,5.371,0,0,1-7.228-6.047l3.507,3.507a.6.6,0,0,0,.844,0l3.374-3.374a.6.6,0,0,0,0-.844L7.265,17.32a5.371,5.371,0,0,1,6.047,7.228.6.6,0,0,0,.134.639L26.655,38.4a.6.6,0,0,0,.639.134,5.371,5.371,0,0,1,7.228,6.047Z" transform="translate(-1.752 -16.024)"/>
      </g>
    </g>
  </g>
</svg>
