<svg id="XMLID_2603_" xmlns="http://www.w3.org/2000/svg" width="40.161" height="40.161" viewBox="0 0 40.161 40.161">
  <defs>
    <style>
      .cls-1 {
        fill: #009C72;
        stroke: #009C72;
      }
    </style>
  </defs>
  <g id="XMLID_636_">
    <path id="XMLID_1699_" class="cls-1" d="M7.259,14.518A7.259,7.259,0,1,0,0,7.259,7.268,7.268,0,0,0,7.259,14.518Zm0-12.95a5.69,5.69,0,1,1-5.69,5.69A5.7,5.7,0,0,1,7.259,1.569Z"/>
    <path id="XMLID_1701_" class="cls-1" d="M84.016,40.316a.784.784,0,0,0,1.108-1.111l-.942-.939V34.784a.784.784,0,1,0-1.569,0v3.808a.785.785,0,0,0,.231.556Z" transform="translate(-76.133 -31.333)"/>
    <path id="XMLID_1706_" class="cls-1" d="M39.377,152.23H34.549a4.632,4.632,0,0,0-2.8-1.861l-3.449-.754a5.293,5.293,0,0,0,2.341-4.392v-3a5.294,5.294,0,1,0-10.587,0v3a5.293,5.293,0,0,0,2.336,4.388l-3.446.756c-.147.032-.292.072-.434.118v-6.491a.784.784,0,0,0-.784-.784H12.394a.784.784,0,0,0,0,1.569h4.55V155.76H11.609v-3.922a2.353,2.353,0,0,0-4.706,0v3.922H1.569V144.779h4.55a.784.784,0,0,0,0-1.569H.784a.784.784,0,0,0-.784.784v12.55a.784.784,0,0,0,.784.784H6.9v1.49H6.824a2.434,2.434,0,0,0-2.432,2.432v.392H.784a.784.784,0,0,0-.784.784v3.138a.784.784,0,0,0,.784.784H39.377a.784.784,0,0,0,.784-.784v-12.55A.784.784,0,0,0,39.377,152.23Zm-4.771,9.413H30.121v-1.569h8.472v1.569Zm3.986-3.138H30.121v-1.569h8.472Zm0-3.138H30.121V153.8h8.472ZM21.625,142.223a3.725,3.725,0,0,1,7.438-.292L27.24,140.86a.784.784,0,0,0-1,.172,4.16,4.16,0,0,1-3.2,1.492h-1.42v-.3Zm0,1.87h1.42a5.723,5.723,0,0,0,3.938-1.564l2.091,1.229v1.466a3.725,3.725,0,0,1-7.45,0v-1.131Zm4.954,6.279-1.241,3.318L24.1,150.366a5.267,5.267,0,0,0,2.483.006Zm-8.851,6.957a.784.784,0,0,0,.784-.784v-4.363a3.051,3.051,0,0,1,.77-.281l3.431-.753L24.6,156.2a.784.784,0,0,0,1.469,0l1.891-5.056,3.452.755a3.053,3.053,0,0,1,.855.329H29.337a.784.784,0,0,0-.784.784v8.628H16.879v-4.314h.849Zm-2.418,0v4.314H14.119v-.392a2.434,2.434,0,0,0-2.432-2.432h-.078v-1.49Zm-6.838-5.491a.784.784,0,0,1,1.569,0v6.981H8.472Zm-2.51,9.413a.864.864,0,0,1,.863-.863h4.863a.864.864,0,0,1,.863.863v.392H5.961Zm32.631,3.53H1.569v-1.569H38.592Z" transform="translate(0 -126.188)"/>
    <path id="XMLID_1768_" class="cls-1" d="M108.23,217.23a.784.784,0,1,0,.555-.23A.79.79,0,0,0,108.23,217.23Z" transform="translate(-99.528 -199.979)"/>
  </g>
</svg>
